<svg width="375" height="812" viewBox="0 0 375 812" fill="none" xmlns="http://www.w3.org/2000/svg">
<g clip-path="url(#clip0_218_42035)">
<rect width="375" height="812" fill="white"/>
<rect width="375" height="812" fill="#FEFFEE"/>
<path d="M376 745H0V751H376V745Z" fill="black"/>
<path d="M375 812H-1V750H375V812Z" fill="#D7DF23"/>
<rect x="140" y="788" width="95.674" height="6.30817" rx="3.15409" fill="white"/>
<path d="M254.947 584.104L253.992 644.745L249.837 677.391L240.663 677.295L237.564 677.261L222.838 677.102L221.597 657.197L219.831 587.671L254.947 584.104Z" fill="#D5D6DA"/>
<path d="M292.571 677.745H285.609L265.648 677.557L265.935 650.068L266.619 588.283L290.169 593.921L291.739 650.068L292.571 677.745Z" fill="#D5D6DA"/>
<path d="M218.033 628.543V676.956L205.543 676.796L180.545 676.48L178.758 620.416L218.033 628.543Z" fill="#D5D6DA"/>
<path d="M191.661 676.622L181.502 676.498L171.592 676.375L167.088 676.321L167.34 645.08L167.967 567.719L189.489 576.21L190.922 645.08L191.661 676.622Z" fill="#D5D6DA"/>
<path d="M212.958 588.283L212.956 588.474L212.329 676.882L211.268 676.868L205.543 676.79L201.882 676.74L195.875 676.66L196.299 638.025L196.782 593.418L212.958 588.283Z" fill="#D5D6DA"/>
<path d="M281.375 607.736L278.941 607.39L278.809 602.618L281.375 602.444V607.736Z" fill="white"/>
<path d="M273.625 599.033L271.191 598.687L271.059 593.917L273.625 593.742V599.033Z" fill="white"/>
<path d="M246.743 629.294L244.309 628.883L244.177 623.23L246.743 623.024V629.294Z" fill="white"/>
<path d="M176.482 586.231L174.048 585.822L173.916 580.169L176.482 579.961V586.231Z" fill="white"/>
<path d="M209.608 600.739L207.176 600.329L207.042 594.676L209.608 594.467V600.739Z" fill="white"/>
<path d="M226.368 613.782L223.934 613.371L223.802 607.718L226.368 607.512V613.782Z" fill="white"/>
<path d="M187.442 707.035C267.004 707.035 331.501 699.268 331.501 689.686C331.501 680.105 267.004 672.338 187.442 672.338C107.881 672.338 43.3838 680.105 43.3838 689.686C43.3838 699.268 107.881 707.035 187.442 707.035Z" fill="#EAEAEA"/>
<path d="M314.72 548.631C314.72 548.631 311.879 541.524 304.691 542.423C297.503 543.322 298.358 550.447 294.935 549.779C291.512 549.11 286.728 549.779 285.691 554.236C284.654 558.694 280.042 556.239 279.872 560.032C279.702 563.824 285.179 566.496 291.512 563.152C297.845 559.807 300.92 565.755 309.828 564.673C318.735 563.592 319.836 562.27 325.099 562.929C330.361 563.588 330.241 558.9 327.845 555.78C325.449 552.66 315.747 552.947 314.72 548.631Z" fill="#EAEAEA"/>
<path d="M192.634 530.502C192.634 530.502 189.703 523.159 182.283 524.08C174.863 525.001 175.747 532.36 172.214 531.672C168.681 530.983 163.735 531.672 162.674 536.277C161.613 540.883 156.845 538.348 156.669 542.259C156.493 546.17 162.146 548.93 168.679 545.479C175.213 542.029 178.396 548.161 187.581 547.049C196.767 545.938 197.906 544.558 203.343 545.247C208.779 545.936 208.651 541.09 206.177 537.869C203.703 534.649 193.695 534.95 192.634 530.502Z" fill="#EAEAEA"/>
<path d="M225.131 553.98C225.131 553.98 222.941 549.775 217.403 550.295C211.864 550.816 212.522 555.039 209.884 554.651C207.246 554.262 203.553 554.651 202.762 557.29C201.971 559.93 198.408 558.478 198.278 560.721C198.148 562.963 202.368 564.547 207.248 562.569C212.128 560.59 214.502 564.107 221.362 563.47C228.222 562.833 229.071 562.042 233.13 562.437C237.189 562.831 237.093 560.052 235.246 558.203C233.398 556.355 225.924 556.531 225.131 553.98Z" fill="#EAEAEA"/>
<path d="M73.4295 567.836C72.2285 570.002 71.1816 570.271 70.3248 569.804C69.4681 569.337 69.1238 568.316 70.3248 566.149C72.5047 562.202 75.1109 561.143 75.1109 561.143C75.1109 561.143 75.6454 563.83 73.4295 567.836Z" fill="#D5D6DA"/>
<path d="M102.323 617.909L101.899 618.109C101.867 618.045 98.6342 611.533 91.0497 603.691C84.0538 596.448 71.8094 586.553 53.2275 580.544L53.3737 580.099C72.0516 586.143 84.36 596.095 91.406 603.383C99.0345 611.279 102.291 617.843 102.323 617.909Z" fill="#D5D6DA"/>
<path d="M73.7704 589.503L73.3 589.489C73.8285 572.513 60.0708 560.438 59.9307 560.318L60.2329 559.965C60.379 560.086 74.3049 572.301 73.7704 589.503Z" fill="#D5D6DA"/>
<path d="M63.7502 586.601C59.6387 589.038 55.301 588.838 55.2529 588.836L55.279 588.37C55.335 588.37 60.8837 588.622 65.2735 584.953L65.5777 585.31C65.0043 585.789 64.3931 586.221 63.7502 586.601Z" fill="#D5D6DA"/>
<path d="M51.6141 578.469C54.9109 579.116 55.7376 580.071 55.5475 581.028C55.3573 581.985 54.2244 582.556 50.9275 581.909C44.9224 580.732 42.3643 578.443 42.3643 578.443C42.3643 578.443 45.5229 577.267 51.6141 578.469Z" fill="#D5D6DA"/>
<path d="M55.555 586.896C58.8938 586.527 59.9748 587.196 60.0829 588.159C60.1909 589.123 59.2822 590.012 55.9473 590.382C49.8642 591.055 46.7295 589.637 46.7295 589.637C46.7295 589.637 49.3838 587.577 55.555 586.896Z" fill="#D5D6DA"/>
<path d="M64.0369 577.754C65.7683 579.53 65.7163 580.604 65.0137 581.279C64.3111 581.954 63.2282 581.97 61.4947 580.193C58.34 576.957 58.0918 574.176 58.0918 574.176C58.0918 574.176 60.8341 574.464 64.0369 577.754Z" fill="#D5D6DA"/>
<path d="M60.1124 557.833C62.4604 560.216 62.5925 561.474 61.8939 562.15C61.1954 562.827 59.9303 562.667 57.5823 560.284C53.3046 555.943 52.502 552.618 52.502 552.618C52.502 552.618 55.7707 553.437 60.1124 557.833Z" fill="#D5D6DA"/>
<path d="M112.314 649.782C112.314 649.782 79.928 584.593 62.4231 593.973C44.9182 603.353 93.8839 632.886 102.705 652.163L112.314 649.782Z" fill="#D5D6DA"/>
<path d="M95.6623 639.827C95.6623 639.827 50.3338 582.875 31.854 596.36C13.3743 609.845 72.5987 627.461 85.1514 644.477L95.6623 639.827Z" fill="#EAEAEA"/>
<path d="M89.8101 642.48C81.3549 630.573 68.1137 620.619 58.4935 614.365C48.0646 607.584 39.5313 603.577 39.4473 603.537L39.6975 603.01C39.7836 603.05 48.3528 607.077 58.8158 613.878C68.478 620.16 81.7813 630.163 90.2905 642.15L89.8101 642.48Z" fill="white"/>
<path d="M100.403 672.262C93.031 672.122 100.772 679.538 91.9521 679.774C80.9427 678.813 76.4149 673.714 74.8435 671.223C74.0333 669.925 73.0628 668.735 71.9551 667.68C68.5782 664.494 67.6434 665.384 57.1425 667.232C48.2369 668.796 47.192 661.024 43.4128 655.385C43.3447 655.283 43.2747 655.185 43.2126 655.078C41.7534 652.994 39.8818 651.242 37.0333 650.431C33.9431 649.555 30.9818 648.276 28.2258 646.626C28.0017 646.492 27.7795 646.353 27.5593 646.209C22.2007 642.765 18.5876 638.033 20.5333 633.139C20.5793 633.022 20.6274 632.906 20.6794 632.792C21.0877 631.91 21.618 631.089 22.2548 630.355C29.4469 621.894 36.7391 624.904 45.1543 626.206C49.8062 626.925 56.4459 621.053 62.9694 618.262L63.2497 618.143C68.4261 615.999 73.5104 615.885 77.4437 622.653L77.6819 623.054C86.4734 637.959 90.8271 632.594 103.208 635.353C105.51 635.868 107.583 636.439 108.953 637.652C121.715 648.983 113.146 664.645 100.403 672.262Z" fill="#D5D6DA"/>
<path d="M101.468 657.712L101.91 657.145C101.658 656.945 76.0604 637.73 20.5611 632.78L20.4971 633.495C75.7901 638.427 101.22 657.519 101.468 657.712Z" fill="white"/>
<path d="M68.3136 634.14C76.0842 628.078 77.7216 622.968 77.7876 622.753L77.097 622.553C77.081 622.603 75.4396 627.68 67.8672 633.585L68.3136 634.14Z" fill="white"/>
<path d="M66.5267 641.777C68.8266 638.313 68.9807 633.11 66.967 626.734C66.0095 623.747 64.7597 620.861 63.2359 618.119L62.6113 618.478C62.6974 618.626 71.2186 633.425 65.9322 641.391L66.5267 641.777Z" fill="white"/>
<path d="M51.9824 639.571C52.9031 638.904 53.4056 638.463 53.4296 638.443L52.9472 637.909C52.8411 638.003 42.2361 647.251 27.5896 645.845L27.5195 646.556C39.3216 647.691 48.5494 642.056 51.9824 639.571Z" fill="white"/>
<path d="M43.6647 655.639C47.2677 652.155 48.4688 648.514 48.8411 646.073C49.2414 643.418 48.8071 641.603 48.787 641.527L48.0844 641.701C48.1025 641.772 49.7439 648.744 43.1562 655.118L43.6647 655.639Z" fill="white"/>
<path d="M30.737 619.425C28.4391 618.47 28.0607 617.463 28.4391 616.57C28.8174 615.676 29.8062 615.236 32.1042 616.191C36.2897 617.931 37.6289 620.396 37.6289 620.396C37.6289 620.396 34.9846 621.189 30.737 619.425Z" fill="#D5D6DA"/>
<path d="M95.463 687.608L88.6993 687.566C84.6478 688.064 81.1328 684.161 81.1328 679.155V558.658C81.1328 553.674 84.6198 549.769 88.6552 550.233H97.0203C100.557 550.634 151.279 560.781 151.279 565.148V672.206C151.289 676.552 98.988 687.177 95.463 687.608Z" fill="#364154"/>
<path d="M153.456 680.625L97.0645 687.566C93.013 688.064 89.498 684.161 89.498 679.155V558.658C89.498 553.674 92.985 549.769 97.0204 550.233L153.412 556.721C156.949 557.122 159.652 560.779 159.652 565.146V672.206C159.654 676.552 156.975 680.198 153.456 680.625Z" fill="#364154"/>
<path d="M156.262 567.097V663.952C156.262 667.885 153.896 671.179 150.79 671.561L122.502 675.138L100.987 677.849C97.4084 678.3 94.3037 674.762 94.3037 670.24V561.225C94.3037 556.714 97.3843 553.183 100.949 553.602L139.382 558.133L150.746 559.473C153.438 559.791 155.586 562.291 156.124 565.509C156.215 566.033 156.261 566.564 156.262 567.097V567.097Z" fill="#EAEAEA"/>
<path d="M152.436 589.771V661.953C152.436 664.885 150.42 667.338 147.772 667.63L123.667 670.288L105.336 672.31C102.287 672.647 99.6387 670.009 99.6387 666.633V585.398C99.6387 582.036 102.263 579.404 105.301 579.717L138.055 583.095L147.74 584.096C150.034 584.332 151.863 586.197 152.324 588.594C152.398 588.982 152.436 589.376 152.436 589.771V589.771Z" fill="#B8C1C9"/>
<path d="M96.3864 687.678C94.883 687.661 93.4384 687.091 92.3289 686.076C90.5274 684.474 89.4385 681.884 89.4385 679.151V558.658C89.4385 555.934 90.5114 553.353 92.3069 551.751C93.6721 550.533 95.3515 549.969 97.0389 550.163L97.0229 550.301C95.3775 550.111 93.7361 550.664 92.401 551.855C90.6335 553.431 89.5786 555.974 89.5786 558.664V679.147C89.5786 681.842 90.6415 684.394 92.421 685.968C93.7662 687.157 95.4236 687.702 97.067 687.498L97.083 687.636C96.8519 687.664 96.6192 687.678 96.3864 687.678Z" fill="#131F2D"/>
<path d="M116.583 671.069L113.866 671.369C114.645 660.874 117.413 651.21 121.513 643.62C124.812 637.514 129.159 632.406 134.438 628.463C143.445 621.72 152.079 620.549 152.435 620.509V623.09C152.353 623.09 144.268 624.059 135.773 630.459C130.799 634.208 126.695 639.044 123.58 644.838C119.667 652.111 117.333 660.95 116.583 671.069Z" fill="#EAEAEA"/>
<path d="M130.937 632.752C130.857 632.63 122.834 620.591 119.315 617.563C113.711 612.757 99.7788 613.852 99.6387 613.862V611.447C100.239 611.397 114.521 610.273 120.879 615.742C124.646 618.985 132.597 630.916 132.933 631.422L130.937 632.752Z" fill="#EAEAEA"/>
<path d="M138.646 609.538L136.482 610.567L143.21 624.716L145.374 623.686L138.646 609.538Z" fill="#EAEAEA"/>
<path d="M99.6387 645.074V642.675L122.45 641.711L122.552 644.108L99.6387 645.074Z" fill="#EAEAEA"/>
<path d="M140.525 668.429L138.107 668.696L138.183 626.893H140.58L140.525 668.429Z" fill="#EAEAEA"/>
<path d="M139.331 654.751L117.61 655.593L117.703 657.988L139.423 657.146L139.331 654.751Z" fill="#EAEAEA"/>
<path d="M108.852 612.53H106.456V643.536H108.852V612.53Z" fill="#EAEAEA"/>
<path d="M102.213 606.072C100.64 606.072 99.7308 606.072 99.6387 606.072V603.637C99.8509 603.637 121.143 604.418 132.619 598.058C135.984 596.194 137.869 593.216 138.224 589.207C138.384 587.328 138.22 585.435 137.737 583.612L140.029 582.911C140.603 585.029 140.8 587.232 140.612 589.419C140.189 594.201 137.825 597.914 133.78 600.157C128.691 602.974 121.385 604.819 112.057 605.64C107.994 605.998 104.471 606.072 102.213 606.072Z" fill="#EAEAEA"/>
<path d="M120.625 603.715L118.229 603.661L118.709 581.098L121.217 581.357L120.625 603.715Z" fill="#EAEAEA"/>
<path d="M122.362 618.52L120.024 615.903L152.436 603.262V606.963L122.362 618.52Z" fill="#EAEAEA"/>
<path d="M141.885 580.818C137.833 581.06 135.848 584.118 135.569 588.175C135.291 592.19 139.621 598.046 141.761 600.673C141.9 600.846 142.077 600.986 142.277 601.082C142.477 601.178 142.697 601.229 142.919 601.23C143.141 601.231 143.361 601.183 143.562 601.089C143.763 600.995 143.941 600.857 144.083 600.685C146.156 598.172 150.268 592.695 150.268 588.78C150.268 584.715 146.919 580.516 141.885 580.818ZM142.399 592.865C140.059 592.771 138.318 591.103 138.318 588.76C138.318 586.417 139.305 584.739 142.665 584.164C145.542 583.674 146.919 586.293 147.101 588.63C147.319 591.464 145.606 593.002 142.399 592.865Z" fill="#131F2D"/>
<path d="M140.78 608.383L134.381 598.364L137.043 596.64L143.677 607.252L140.78 608.383Z" fill="#EAEAEA"/>
<path d="M126.766 625.351C126.673 625.351 126.58 625.329 126.496 625.287C126.413 625.245 126.34 625.183 126.284 625.108L125.808 624.467C125.723 624.339 125.691 624.184 125.718 624.033C125.745 623.882 125.829 623.747 125.952 623.655C126.075 623.564 126.228 623.523 126.38 623.541C126.532 623.559 126.672 623.635 126.77 623.753L127.247 624.393C127.313 624.483 127.352 624.588 127.362 624.699C127.371 624.809 127.35 624.92 127.3 625.019C127.25 625.118 127.174 625.202 127.08 625.26C126.986 625.319 126.877 625.35 126.766 625.351V625.351Z" fill="#D7DF23"/>
<path d="M125.358 623.458C125.264 623.458 125.172 623.436 125.088 623.394C125.004 623.352 124.931 623.291 124.875 623.216L123.947 621.964C123.862 621.836 123.831 621.681 123.857 621.53C123.884 621.379 123.968 621.244 124.091 621.152C124.214 621.061 124.367 621.02 124.519 621.038C124.672 621.056 124.811 621.132 124.909 621.249L125.838 622.501C125.904 622.59 125.944 622.696 125.953 622.807C125.963 622.917 125.941 623.028 125.891 623.127C125.842 623.226 125.766 623.31 125.671 623.368C125.577 623.426 125.469 623.458 125.358 623.458V623.458ZM123.498 620.953C123.404 620.953 123.312 620.931 123.228 620.889C123.144 620.847 123.072 620.786 123.016 620.711L122.085 619.459C122.033 619.396 121.994 619.324 121.97 619.245C121.947 619.167 121.94 619.084 121.949 619.003C121.959 618.922 121.985 618.844 122.026 618.773C122.067 618.702 122.122 618.64 122.188 618.592C122.254 618.543 122.329 618.508 122.408 618.489C122.488 618.47 122.57 618.468 122.651 618.482C122.731 618.497 122.808 618.527 122.876 618.572C122.945 618.617 123.003 618.676 123.048 618.744L123.977 619.996C124.042 620.085 124.082 620.191 124.092 620.301C124.101 620.412 124.08 620.523 124.03 620.622C123.98 620.721 123.904 620.804 123.81 620.863C123.716 620.921 123.607 620.953 123.496 620.953H123.498Z" fill="#D7DF23"/>
<path d="M121.641 618.448C121.547 618.448 121.455 618.426 121.371 618.384C121.287 618.342 121.214 618.281 121.158 618.206L120.682 617.565C120.627 617.49 120.59 617.404 120.574 617.313C120.558 617.222 120.563 617.129 120.588 617.04C120.614 616.952 120.66 616.87 120.722 616.802C120.785 616.734 120.862 616.681 120.948 616.648L121.695 616.361C121.769 616.327 121.85 616.309 121.932 616.307C122.014 616.306 122.095 616.321 122.171 616.352C122.247 616.383 122.315 616.429 122.373 616.488C122.43 616.546 122.475 616.616 122.504 616.692C122.533 616.769 122.547 616.85 122.544 616.932C122.54 617.014 122.52 617.094 122.485 617.168C122.449 617.242 122.399 617.308 122.337 617.362C122.275 617.415 122.203 617.456 122.125 617.481V617.481C122.191 617.57 122.231 617.676 122.24 617.786C122.25 617.897 122.228 618.008 122.178 618.107C122.129 618.206 122.053 618.289 121.958 618.348C121.864 618.406 121.756 618.437 121.645 618.438L121.641 618.448Z" fill="#D7DF23"/>
<path d="M123.467 616.918C123.328 616.917 123.193 616.867 123.086 616.778C122.979 616.688 122.907 616.564 122.881 616.427C122.856 616.29 122.879 616.149 122.946 616.027C123.014 615.904 123.121 615.81 123.251 615.758L124.808 615.158C124.883 615.124 124.963 615.105 125.045 615.104C125.127 615.102 125.209 615.117 125.284 615.148C125.36 615.179 125.429 615.226 125.486 615.284C125.543 615.343 125.588 615.412 125.618 615.489C125.647 615.565 125.66 615.647 125.657 615.729C125.654 615.811 125.634 615.891 125.598 615.965C125.563 616.039 125.513 616.104 125.451 616.158C125.389 616.212 125.317 616.252 125.239 616.277L123.681 616.878C123.613 616.904 123.54 616.918 123.467 616.918ZM126.584 615.716C126.444 615.715 126.31 615.666 126.203 615.576C126.096 615.487 126.023 615.363 125.998 615.226C125.972 615.089 125.995 614.947 126.063 614.825C126.13 614.703 126.238 614.608 126.368 614.557L127.925 613.956C127.999 613.922 128.08 613.904 128.162 613.902C128.244 613.901 128.325 613.916 128.401 613.947C128.477 613.978 128.545 614.024 128.603 614.083C128.66 614.141 128.705 614.211 128.734 614.287C128.764 614.364 128.777 614.445 128.774 614.527C128.77 614.609 128.75 614.689 128.715 614.763C128.679 614.837 128.629 614.903 128.567 614.957C128.505 615.01 128.433 615.051 128.355 615.076L126.798 615.676C126.73 615.703 126.657 615.716 126.584 615.716V615.716ZM129.692 614.515C129.553 614.514 129.418 614.464 129.311 614.375C129.205 614.285 129.132 614.161 129.107 614.024C129.081 613.887 129.104 613.745 129.171 613.623C129.239 613.501 129.347 613.407 129.476 613.355L131.034 612.755C131.179 612.708 131.337 612.72 131.475 612.786C131.613 612.852 131.721 612.969 131.776 613.112C131.831 613.255 131.829 613.413 131.771 613.555C131.713 613.696 131.603 613.811 131.464 613.874L129.907 614.475C129.838 614.501 129.766 614.515 129.692 614.515ZM132.809 613.313C132.67 613.312 132.535 613.263 132.428 613.173C132.321 613.084 132.249 612.96 132.223 612.823C132.198 612.686 132.221 612.544 132.288 612.422C132.355 612.3 132.463 612.205 132.593 612.154L134.15 611.553C134.296 611.507 134.454 611.518 134.592 611.584C134.73 611.651 134.837 611.767 134.892 611.91C134.947 612.053 134.946 612.211 134.888 612.353C134.83 612.495 134.72 612.609 134.581 612.673L133.023 613.273C132.957 613.299 132.888 613.312 132.817 613.313H132.809ZM135.926 612.112C135.786 612.111 135.652 612.061 135.545 611.972C135.438 611.882 135.365 611.758 135.34 611.621C135.314 611.484 135.337 611.342 135.405 611.22C135.472 611.098 135.58 611.004 135.71 610.952L137.267 610.352C137.341 610.318 137.422 610.299 137.504 610.298C137.586 610.296 137.667 610.311 137.743 610.342C137.819 610.373 137.887 610.42 137.945 610.478C138.002 610.537 138.047 610.606 138.076 610.683C138.106 610.759 138.119 610.841 138.116 610.923C138.112 611.005 138.092 611.085 138.057 611.159C138.021 611.233 137.971 611.298 137.909 611.352C137.847 611.406 137.775 611.446 137.697 611.471L136.14 612.072C136.075 612.101 136.005 612.119 135.934 612.124L135.926 612.112ZM139.042 610.91C138.903 610.909 138.768 610.86 138.661 610.77C138.555 610.681 138.482 610.557 138.457 610.42C138.431 610.283 138.454 610.141 138.521 610.019C138.589 609.897 138.697 609.802 138.826 609.751L140.384 609.15C140.458 609.116 140.539 609.098 140.621 609.096C140.702 609.095 140.784 609.11 140.86 609.141C140.935 609.172 141.004 609.218 141.061 609.277C141.119 609.335 141.163 609.405 141.193 609.481C141.222 609.558 141.236 609.639 141.232 609.721C141.229 609.803 141.209 609.883 141.173 609.957C141.138 610.031 141.088 610.097 141.026 610.151C140.964 610.204 140.892 610.245 140.814 610.269L139.257 610.87C139.192 610.9 139.122 610.919 139.05 610.924L139.042 610.91Z" fill="#D7DF23"/>
<path d="M142.167 609.725C142.028 609.724 141.893 609.674 141.786 609.585C141.679 609.495 141.607 609.371 141.581 609.234C141.556 609.097 141.579 608.955 141.646 608.833C141.714 608.711 141.821 608.617 141.951 608.565L142.015 608.541L141.979 608.483C141.903 608.349 141.882 608.191 141.919 608.041C141.957 607.892 142.05 607.763 142.18 607.68C142.31 607.598 142.467 607.568 142.618 607.598C142.769 607.628 142.903 607.715 142.992 607.84L143.42 608.515C143.468 608.59 143.498 608.675 143.509 608.763C143.52 608.851 143.511 608.94 143.483 609.024C143.455 609.109 143.409 609.186 143.348 609.25C143.287 609.314 143.213 609.364 143.13 609.396L142.383 609.683C142.315 609.71 142.241 609.724 142.167 609.725Z" fill="#D7DF23"/>
<path d="M141.522 607.244C141.421 607.244 141.322 607.218 141.234 607.169C141.145 607.121 141.07 607.051 141.016 606.965L140.053 605.445C139.977 605.311 139.956 605.153 139.993 605.004C140.031 604.854 140.124 604.725 140.254 604.642C140.384 604.56 140.541 604.53 140.692 604.56C140.843 604.59 140.977 604.677 141.066 604.803L142.029 606.322C142.086 606.413 142.118 606.518 142.121 606.625C142.124 606.732 142.099 606.838 142.047 606.932C141.995 607.026 141.92 607.105 141.827 607.16C141.735 607.214 141.63 607.243 141.522 607.244V607.244ZM139.597 604.204C139.496 604.204 139.396 604.178 139.308 604.13C139.219 604.081 139.145 604.011 139.09 603.925L138.128 602.405C138.052 602.271 138.03 602.113 138.068 601.964C138.105 601.814 138.199 601.685 138.329 601.602C138.459 601.52 138.615 601.491 138.767 601.52C138.918 601.55 139.051 601.637 139.14 601.763L140.103 603.283C140.16 603.373 140.192 603.478 140.196 603.585C140.199 603.692 140.173 603.798 140.121 603.893C140.07 603.987 139.994 604.065 139.902 604.12C139.809 604.174 139.704 604.203 139.597 604.204Z" fill="#D7DF23"/>
<path d="M137.669 601.166C137.568 601.166 137.468 601.14 137.38 601.092C137.291 601.043 137.217 600.973 137.162 600.888L136.734 600.213C136.658 600.079 136.637 599.921 136.674 599.771C136.712 599.622 136.805 599.492 136.935 599.41C137.065 599.327 137.222 599.298 137.373 599.328C137.524 599.357 137.658 599.444 137.747 599.57L138.175 600.245C138.232 600.336 138.264 600.44 138.268 600.547C138.271 600.655 138.245 600.761 138.193 600.855C138.142 600.949 138.066 601.027 137.974 601.082C137.881 601.137 137.776 601.166 137.669 601.166V601.166Z" fill="#D7DF23"/>
<path d="M136.179 598.913C136.742 598.913 137.198 598.457 137.198 597.894C137.198 597.331 136.742 596.874 136.179 596.874C135.616 596.874 135.16 597.331 135.16 597.894C135.16 598.457 135.616 598.913 136.179 598.913Z" fill="#131F2D"/>
<path d="M127.977 627.139C128.434 627.139 128.804 626.769 128.804 626.312C128.804 625.855 128.434 625.485 127.977 625.485C127.521 625.485 127.15 625.855 127.15 626.312C127.15 626.769 127.521 627.139 127.977 627.139Z" fill="#131F2D"/>
<path d="M240.269 609.541H240.237C239.516 609.538 238.806 609.375 238.156 609.063C237.506 608.751 236.934 608.299 236.482 607.738C232.999 603.465 227.984 596.868 223.885 589.715C218.921 581.062 216.597 573.875 216.979 568.352C217.431 561.744 219.337 556.163 222.492 552.21C225.969 547.848 230.847 545.451 236.988 545.085C240.483 544.854 243.987 545.364 247.271 546.583C250.284 547.717 253.041 549.443 255.378 551.659C260.474 556.465 263.519 563.416 263.519 570.261C263.519 575.649 261.063 582.526 256.216 590.699C252.195 597.483 247.371 603.727 244.034 607.77C243.576 608.325 243.001 608.771 242.35 609.077C241.699 609.383 240.988 609.542 240.269 609.541V609.541ZM237.01 545.415C230.965 545.778 226.167 548.132 222.75 552.424C219.637 556.327 217.756 561.836 217.309 568.384C216.931 573.841 219.241 580.964 224.171 589.559C228.261 596.686 233.261 603.267 236.738 607.532C237.16 608.056 237.693 608.479 238.299 608.771C238.905 609.063 239.568 609.215 240.241 609.218H240.271C240.942 609.22 241.605 609.072 242.212 608.787C242.82 608.502 243.356 608.085 243.784 607.568C247.115 603.535 251.925 597.305 255.936 590.546C260.75 582.424 263.192 575.605 263.192 570.277C263.192 563.52 260.19 556.659 255.155 551.915C252.85 549.73 250.131 548.028 247.159 546.909C243.918 545.706 240.459 545.203 237.01 545.431V545.415ZM239.812 583.291C239.421 583.291 239.021 583.283 238.611 583.265C234.982 583.119 231.686 581.751 229.328 579.418C226.935 577.051 225.62 573.779 225.62 570.207C225.62 561.738 229.878 557.234 239.432 555.606C242.689 555.051 245.537 555.702 247.899 557.542C251.042 559.994 253.164 564.569 253.572 569.784C253.894 573.957 252.916 577.256 250.664 579.596C248.31 582.022 244.572 583.291 239.802 583.291H239.812ZM241.614 555.744C240.901 555.746 240.19 555.809 239.488 555.93C234.468 556.787 230.967 558.448 228.787 561.011C226.881 563.252 225.955 566.26 225.955 570.207C225.955 573.691 227.238 576.879 229.558 579.186C231.878 581.493 235.076 582.791 238.623 582.939C243.868 583.161 247.947 581.923 250.421 579.36C252.605 577.099 253.552 573.885 253.238 569.81C252.838 564.686 250.762 560.198 247.691 557.795C245.956 556.436 243.809 555.713 241.606 555.744H241.614Z" fill="#131F2D"/>
<path d="M240.466 545.251C227.725 546.012 221.484 555.62 220.611 568.366C219.739 580.982 233.352 599.38 240.076 607.628C240.516 608.171 241.071 608.609 241.7 608.911C242.33 609.213 243.019 609.372 243.717 609.375C244.415 609.379 245.106 609.228 245.738 608.932C246.371 608.636 246.931 608.204 247.376 607.666C253.896 599.768 266.823 582.562 266.823 570.261C266.823 557.496 256.292 544.304 240.466 545.251ZM242.082 583.099C234.727 582.803 229.247 577.562 229.247 570.203C229.247 562.843 232.349 557.566 242.916 555.764C251.962 554.222 256.29 562.453 256.864 569.792C257.555 578.697 252.168 583.529 242.082 583.101V583.099Z" fill="#D7DF23"/>
<path opacity="0.1" d="M348.757 74.1231C316.252 76.0678 300.329 100.623 298.102 133.197C295.876 165.438 330.608 212.455 347.762 233.535C348.884 234.921 350.299 236.041 351.906 236.813C353.512 237.585 355.269 237.991 357.051 238C358.833 238.009 360.594 237.622 362.208 236.867C363.823 236.111 365.25 235.007 366.387 233.632C383.02 213.448 416 169.476 416 138.038C416 105.418 389.133 71.7024 348.757 74.1231ZM352.879 170.848C334.116 170.09 320.133 156.697 320.133 137.89C320.133 119.082 328.049 105.597 355.008 100.991C378.086 97.0504 389.127 118.084 390.593 136.841C392.355 159.599 378.612 171.948 352.879 170.853V170.848Z" fill="#D7DF23"/>
<path d="M145.233 645.905C145.53 644.834 145.95 643.802 146.484 642.829C146.484 642.829 150.738 642.853 150.942 643.229C151.417 644.09 151.969 646.001 152.428 646.872C152.628 647.25 153.206 648.564 152.856 648.812C152.552 649.027 151.593 648.2 151.182 647.751C150.832 650.541 149.065 654.454 149.381 648.552C149.295 649.153 148.812 652.449 148.062 652.02C147.399 651.644 147.647 649.265 147.78 648.288H147.754C147.533 649.271 146.939 651.628 146.426 651.067C145.784 650.362 145.99 647.749 145.99 647.749C145.99 647.749 145.65 651.083 144.809 650.352C144.235 649.86 144.933 647.198 145.129 646.261C145.15 646.139 145.185 646.019 145.233 645.905Z" fill="#FF7955"/>
<path d="M178.952 628.533C182.555 629.211 189.665 630.603 194.982 626.887C197.985 624.788 200.387 621.856 200.477 621.784L196.549 616.201L198.515 619.004L196.555 616.201C194.508 617.679 191.121 622.183 186.375 621.023C184.221 620.496 181.713 620.17 179.116 616.343L172.265 618.72C174.418 623.022 173.79 627.776 178.952 628.533Z" fill="#D7DF23"/>
<path d="M191.175 622.525C191.175 622.525 193.411 619.219 195.683 618.199C197.955 617.18 199.396 618.025 199.396 618.025L201.834 617.058C201.834 617.058 202.184 626.244 195.845 624.624C195.348 624.504 191.175 622.525 191.175 622.525Z" fill="#FF7955"/>
<path d="M201.471 612.276L199.151 625.591C199.114 625.798 199.035 625.996 198.92 626.173C198.806 626.35 198.657 626.501 198.482 626.62C198.308 626.738 198.112 626.82 197.905 626.862C197.699 626.903 197.486 626.903 197.28 626.861L191.038 625.605C190.637 625.526 190.283 625.293 190.05 624.957C189.818 624.62 189.725 624.206 189.793 623.803L192.089 610.682C192.163 610.271 192.396 609.906 192.737 609.667C193.079 609.427 193.501 609.332 193.913 609.402L200.188 610.464C200.598 610.534 200.964 610.765 201.204 611.104C201.445 611.444 201.541 611.866 201.471 612.276V612.276Z" fill="#131F2D"/>
<path d="M199.849 612.783C200.216 612.772 200.505 612.468 200.495 612.104C200.485 611.739 200.18 611.451 199.813 611.461C199.446 611.472 199.157 611.775 199.167 612.14C199.177 612.505 199.482 612.793 199.849 612.783Z" fill="white"/>
<path d="M202.909 617.377C202.909 617.377 203.729 615.588 202.08 614.855C199.978 613.922 196.459 614.759 197.782 615.37C198.955 615.911 200.807 616.281 200.807 616.281C200.807 616.281 196.085 615.402 196.237 616.437C196.389 617.473 200.459 618.174 200.459 618.174C200.459 618.174 195.781 617.749 196.243 618.68C196.705 619.611 200.397 620.272 200.397 620.272C200.397 620.272 195.847 619.611 196.409 620.673C196.972 621.734 199.394 621.612 200.433 621.788C201.415 621.954 201.834 621.388 201.936 620.428C201.936 620.428 202.584 619.535 202.488 618.898C202.452 618.654 202.713 618.462 202.763 618.298C202.835 617.995 202.884 617.687 202.909 617.377V617.377Z" fill="#FF7955"/>
<path d="M154.755 643.097C154.779 644.061 160.646 644.443 167.9 644.219C175.154 643.994 180.953 642.997 180.927 642.034C180.901 641.071 175.064 640.506 167.81 640.73C160.556 640.955 154.729 642.134 154.755 643.097Z" fill="#131F2D"/>
<path d="M156.532 615.831C156.532 615.831 157.815 610.782 167.281 610.732C180.93 610.658 179.667 623.11 180.93 642.036C180.93 642.036 172.655 638.606 154.756 643.099C154.756 643.097 153.567 623.542 156.532 615.831Z" fill="#D7DF23"/>
<path d="M153.036 615.116L159.219 618.52C159.219 618.52 173.051 621.55 176.644 620.961C180.237 620.372 180.936 618.898 180.936 618.898C180.936 618.898 177.109 611.996 170.603 610.946C169.993 610.846 169.358 610.774 168.701 610.732C167.605 610.657 166.505 610.679 165.413 610.796C157.16 611.711 153.036 615.116 153.036 615.116Z" fill="#D7DF23"/>
<path d="M165.977 609.575L166.691 607.286L166.891 606.619L168.124 602.7L168.285 606.599L168.381 608.938L168.411 609.679C168.431 610.181 168.741 610.279 169.115 610.724C169.267 610.9 170.242 611.974 169.135 612.46C167.758 613.061 165.184 612.15 164.205 610.952C164.213 610.948 165.746 610.309 165.977 609.575Z" fill="#FF7955"/>
<path d="M151.211 644.753C151.779 638.533 153.086 629.64 156.073 622.595C156.766 620.963 157.054 620.35 157.594 619.459C158.029 618.742 157.25 617.166 156.023 616.415C154.872 615.71 153.076 615.826 152.794 616.175C152.312 616.776 151.793 617.907 150.993 619.713C148.208 625.989 146.539 634.096 145.864 644.545L151.211 644.753Z" fill="#FF7955"/>
<path d="M171.27 601.228C171.421 601.933 171.421 602.662 171.27 603.367C171.02 604.556 169.803 601.633 169.803 601.633L171.27 601.228Z" fill="#131F2D"/>
<path d="M171.416 603.701C171.112 601.402 169.309 599.74 167.387 599.99C165.465 600.241 164.156 602.307 164.458 604.608C164.761 606.909 166.566 608.569 168.488 608.319C170.409 608.069 171.729 606.01 171.416 603.701Z" fill="#FF7955"/>
<path d="M168.125 603.987C168.137 603.98 168.148 603.968 168.153 603.954C168.159 603.94 168.16 603.925 168.157 603.911C168.153 603.896 168.145 603.883 168.133 603.873C168.122 603.864 168.108 603.858 168.093 603.857C167.924 603.834 167.753 603.866 167.605 603.95C167.457 604.033 167.34 604.163 167.274 604.32C167.27 604.328 167.267 604.337 167.267 604.346C167.266 604.356 167.267 604.365 167.27 604.374C167.273 604.382 167.278 604.39 167.284 604.397C167.29 604.404 167.298 604.41 167.306 604.414C167.323 604.421 167.342 604.422 167.36 604.416C167.377 604.41 167.392 604.398 167.402 604.382C167.581 604.183 167.82 604.048 168.083 603.997C168.097 603.999 168.112 603.995 168.125 603.987V603.987Z" fill="#080435"/>
<path d="M168.11 605.122C168.228 605.09 168.289 604.933 168.245 604.77C168.201 604.608 168.069 604.503 167.951 604.535C167.832 604.567 167.772 604.724 167.816 604.887C167.86 605.049 167.991 605.154 168.11 605.122Z" fill="#080435"/>
<path d="M170.751 603.777C170.76 603.775 170.768 603.771 170.775 603.764C170.781 603.758 170.786 603.75 170.789 603.741C170.795 603.724 170.796 603.706 170.791 603.688C170.786 603.671 170.775 603.656 170.761 603.645C170.709 603.601 170.648 603.568 170.583 603.548C170.517 603.528 170.449 603.522 170.381 603.529C170.313 603.537 170.247 603.559 170.188 603.593C170.129 603.627 170.077 603.672 170.036 603.727C170.026 603.741 170.021 603.759 170.021 603.776C170.021 603.794 170.026 603.811 170.036 603.825C170.04 603.832 170.046 603.837 170.052 603.841C170.059 603.845 170.066 603.847 170.073 603.848C170.08 603.849 170.088 603.848 170.095 603.846C170.102 603.844 170.109 603.84 170.114 603.835C170.204 603.783 170.304 603.75 170.407 603.738C170.511 603.726 170.616 603.736 170.715 603.767C170.72 603.771 170.726 603.774 170.732 603.776C170.738 603.778 170.745 603.778 170.751 603.777Z" fill="#080435"/>
<path d="M170.547 604.558C170.568 604.391 170.486 604.243 170.364 604.228C170.242 604.213 170.127 604.336 170.106 604.503C170.085 604.67 170.167 604.817 170.289 604.832C170.411 604.848 170.526 604.725 170.547 604.558Z" fill="#080435"/>
<path d="M162.12 603.525C162.12 603.525 163.293 606.038 164.955 606.222C164.955 606.222 163.609 604.308 166.444 603.14C166.448 603.14 163.846 602.734 162.12 603.525Z" fill="#131F2D"/>
<path d="M164.466 604.903C164.622 605.01 164.813 605.053 165 605.023C165.186 604.992 165.354 604.89 165.467 604.738C165.513 604.656 165.542 604.565 165.553 604.472C165.564 604.378 165.557 604.283 165.531 604.192C165.505 604.101 165.461 604.016 165.403 603.942C165.344 603.869 165.271 603.807 165.189 603.761C165.033 603.654 164.842 603.611 164.655 603.641C164.469 603.672 164.301 603.774 164.188 603.925C164.142 604.008 164.112 604.099 164.102 604.192C164.091 604.286 164.098 604.381 164.124 604.472C164.15 604.563 164.193 604.647 164.252 604.721C164.311 604.795 164.384 604.857 164.466 604.903V604.903Z" fill="#FF7955"/>
<path d="M166.447 603.14C166.447 603.14 166.221 605.249 166.648 605.648C167.074 606.046 169.934 606.218 171.266 605.708C171.279 606.367 171.056 607.009 170.637 607.517C170.218 608.026 169.631 608.368 168.982 608.481C168.53 608.558 168.07 608.558 167.618 608.481C166.686 608.319 165.779 607.936 165.395 607.079C165.278 606.819 165.619 605.211 165.619 605.211C165.619 605.211 165.747 604.268 165.194 603.777C165.198 603.769 165.837 603.2 166.447 603.14Z" fill="#131F2D"/>
<path d="M166.448 603.14C166.448 603.14 166.214 601.666 167.377 601.56C168.54 601.454 169.869 601.26 170.325 601.56C170.782 601.861 171.326 603.036 171.326 603.036C171.326 603.036 171.965 600.833 170.794 599.88C169.623 598.927 165.895 597.693 163.521 599.337C161.147 600.982 162.12 603.527 162.12 603.527C162.12 603.527 163.824 603.01 166.448 603.14Z" fill="#131F2D"/>
<path d="M164.831 599.338C164.831 599.338 163.076 597.898 163.472 596.834C163.869 595.771 165.726 596.107 166.445 596.274C167.163 596.44 167.284 597.713 166.707 598.535C166.131 599.356 164.831 599.338 164.831 599.338Z" fill="#131F2D"/>
<path d="M167.534 689.502C167.943 689.479 168.351 689.571 168.711 689.767C169.071 689.963 169.369 690.255 169.572 690.612C169.766 690.979 170.079 691.27 170.46 691.437C171.727 691.961 175.398 692.438 174.027 693.629C173.241 694.314 169.532 693.872 168.483 693.872C167.434 693.872 166.453 694.324 165.68 693.629C165.214 693.213 165.256 691.893 165.39 690.778C165.435 690.388 165.633 690.033 165.94 689.79C166.247 689.546 166.638 689.435 167.027 689.48C167.149 689.496 167.273 689.503 167.396 689.5L167.534 689.502Z" fill="#131F2D"/>
<path d="M154.598 689.062C154.598 689.062 154.644 690.92 155.911 691.445C157.178 691.969 160.849 692.446 159.478 693.637C158.691 694.322 154.982 693.88 153.933 693.88C152.884 693.88 151.903 694.332 151.131 693.637C150.274 692.872 151.131 689.062 151.131 689.062C151.131 689.062 152.034 689.528 152.848 689.508C154.013 689.478 154.598 689.062 154.598 689.062Z" fill="#131F2D"/>
<path d="M177 642.298C177.277 642.327 177.536 642.448 177.735 642.643C177.933 642.837 178.061 643.093 178.095 643.37C178.233 644.501 178.255 646.892 177.573 651.852C176.572 659.14 172.769 685.729 172.144 689.274C171.918 690.541 171.66 691.322 169.81 691.589L167.352 691.541C165.35 691.829 164.58 689.696 164.566 688.337L166.167 647.375L159.762 642.528C163.151 642.136 166.559 641.936 169.97 641.928C172.318 641.933 174.665 642.056 177 642.298V642.298Z" fill="#657285"/>
<path d="M170.981 643.658L156.881 688.625C156.6 689.537 156.039 690.338 155.278 690.913C154.517 691.488 153.593 691.809 152.64 691.829L151.793 691.843C151.32 691.846 150.852 691.744 150.422 691.545C149.993 691.345 149.614 691.053 149.311 690.689C149.008 690.326 148.79 689.899 148.671 689.441C148.553 688.982 148.537 688.503 148.626 688.038L156.339 645.785C156.451 645.282 156.739 643.063 157.225 642.923C159.872 642.172 171.241 641.8 170.981 643.658Z" fill="#657285"/>
<path d="M164.679 663.757L164.455 663.683L167.488 654.532C168.177 652.428 169.622 650.656 171.543 649.559L171.659 649.759C169.789 650.826 168.382 652.55 167.71 654.596L164.679 663.757Z" fill="#020202"/>
<path d="M161.193 611.873C161.193 611.873 159.722 610.524 161.491 610.047C162.19 609.859 163.233 608.145 164.205 608.293C165.178 608.441 165.753 613.88 169.656 615.562C169.656 615.562 170.617 616.393 169.056 616.363C167.494 616.333 161.193 611.873 161.193 611.873Z" fill="#657285"/>
<path d="M169.658 615.562C169.658 615.562 171.611 613.654 171.271 611.874C170.931 610.093 171.924 608.569 172.408 609.374C172.892 610.179 173.451 609.679 173.563 610.688C173.675 611.697 172.162 616.652 170.797 616.652C169.431 616.652 169.658 615.562 169.658 615.562Z" fill="#657285"/>
<path d="M169.216 615.939C169.216 615.939 167.953 616.503 168.416 617.837C168.878 619.171 168.229 619.711 168.229 619.711C168.229 619.711 169.761 619.785 169.945 618.356C169.994 617.924 169.955 617.488 169.83 617.072C169.705 616.656 169.496 616.271 169.216 615.939Z" fill="#657285"/>
<path d="M169.926 615.939C169.926 615.939 171.528 616.481 171.6 617.517C171.672 618.552 170.749 618.798 170.427 618.181C170.104 617.565 169.426 616.357 169.426 616.357L169.926 615.939Z" fill="#657285"/>
<path d="M165.4 607.071C165.4 607.071 165.412 608.521 166.447 609.334C167.482 610.147 166.798 610.858 167.708 612.014C168.619 613.169 167.534 613.195 169.15 614.036C170.765 614.877 171.98 614.114 171.664 612.835C171.347 611.555 172.749 611.89 172.086 610.262C171.424 608.633 170.943 609.631 171.502 607.899C172.06 606.166 171.269 605.704 171.269 605.704C171.269 605.704 170.377 605.764 169.656 605.892C168.935 606.02 168.289 605.796 167.784 605.956C167.28 606.116 165.4 607.071 165.4 607.071Z" fill="#131F2D"/>
<path d="M170.567 606.467C169.819 606.647 169.047 606.707 168.279 606.645C168.279 606.645 168.455 607.744 169.664 607.524C170.367 607.398 170.567 606.467 170.567 606.467Z" fill="white"/>
<path d="M145.865 642.308C145.865 642.308 149.55 642.709 151.46 642.308C151.46 642.308 151.708 643.281 151.31 643.728C151.31 643.728 146.894 644.06 145.867 643.728C145.865 643.726 145.105 642.995 145.865 642.308Z" fill="#131F2D"/>
<path d="M148.26 641.647H148.194C147.466 641.647 146.875 642.238 146.875 642.967V643.213C146.875 643.942 147.466 644.533 148.194 644.533H148.26C148.989 644.533 149.579 643.942 149.579 643.213V642.967C149.579 642.238 148.989 641.647 148.26 641.647Z" fill="#131F2D"/>
<path d="M153.037 615.115C153.037 615.115 149.91 616.94 146.875 628.993C143.841 641.046 146.121 641.265 146.121 641.265C146.121 641.265 150.22 641.343 151.539 640.876C152.859 640.41 153.563 629.608 156.191 625.216C158.82 620.825 159.76 614.098 153.037 615.115Z" fill="#D7DF23"/>
<path d="M170.439 624.199C170.697 624.199 170.905 623.992 170.905 623.737C170.905 623.481 170.697 623.274 170.439 623.274C170.181 623.274 169.973 623.481 169.973 623.737C169.973 623.992 170.181 624.199 170.439 624.199Z" fill="#131F2D"/>
<path d="M170.439 629.828C170.697 629.828 170.905 629.621 170.905 629.366C170.905 629.11 170.697 628.903 170.439 628.903C170.181 628.903 169.973 629.11 169.973 629.366C169.973 629.621 170.181 629.828 170.439 629.828Z" fill="#131F2D"/>
<path d="M170.439 636.501C170.697 636.501 170.905 636.294 170.905 636.038C170.905 635.783 170.697 635.576 170.439 635.576C170.181 635.576 169.973 635.783 169.973 636.038C169.973 636.294 170.181 636.501 170.439 636.501Z" fill="#131F2D"/>
<path d="M154.634 629.552L154.403 629.496C155.025 626.995 155.842 624.548 156.849 622.177L157.066 622.273C156.064 624.631 155.251 627.065 154.634 629.552Z" fill="#131F2D"/>
<path d="M180.047 628.911C179.787 624.718 177.689 619.331 177.667 619.277L177.887 619.191C177.909 619.245 180.021 624.666 180.289 628.895L180.047 628.911Z" fill="#131F2D"/>
<path d="M253.546 656.438C253.546 656.438 295.708 583.714 318.94 596.148C342.171 608.581 277.741 638.481 266.271 660.049L253.546 656.438Z" fill="#EAEAEA"/>
<path d="M260.645 658.523C268.296 643.484 281.711 629.9 291.618 621.155C302.359 611.673 311.399 605.682 311.489 605.621L311.118 605.059C311.028 605.119 301.949 611.138 291.171 620.651C281.221 629.436 267.752 643.079 260.043 658.218L260.645 658.523Z" fill="white"/>
<path d="M337.293 652.831C327.248 655.124 329.086 670.352 317.586 667.65C307.855 665.361 307.029 664.474 303.7 667.308C302.564 668.285 301.573 669.419 300.755 670.674C299.767 672.174 297.851 674.389 294.91 674.94C276.941 678.3 252.028 651.938 270.648 637.049C271.993 635.974 273.963 635.543 276.144 635.177C287.981 633.195 291.736 638.597 300.922 624.515C310.107 610.434 323.01 630.335 330.947 629.54C338.884 628.745 345.872 626.282 352.165 634.642C358.459 643.003 347.339 650.547 337.293 652.831Z" fill="#D5D6DA"/>
<g opacity="0.5">
<path opacity="0.5" d="M276.601 656.368L276.217 655.809C276.463 655.639 301.424 638.822 353.625 637.024L353.649 637.7C301.638 639.491 276.845 656.198 276.601 656.368Z" fill="white"/>
<path opacity="0.5" d="M323.858 641.806C323.031 641.129 322.583 640.688 322.562 640.666L323.041 640.188C323.135 640.282 332.579 649.562 346.359 648.999L346.387 649.676C335.291 650.128 326.948 644.329 323.858 641.806Z" fill="white"/>
<path opacity="0.5" d="M330.811 657.406C327.626 653.929 326.69 650.431 326.465 648.108C326.221 645.579 326.732 643.89 326.752 643.82L327.4 644.021C327.38 644.085 325.481 650.583 331.312 656.949L330.811 657.406Z" fill="white"/>
</g>
<path d="M312.886 582.384C314.93 580.672 316.089 580.812 316.753 581.613C317.418 582.414 317.354 583.574 315.316 585.286C311.593 588.406 308.578 588.462 308.578 588.462C308.578 588.462 309.109 585.548 312.886 582.384Z" fill="#D5D6DA"/>
<g opacity="0.6">
<path opacity="0.6" d="M333.265 616.718C336.099 616.664 336.958 617.549 336.98 618.66C337.002 619.772 336.18 620.689 333.341 620.743C328.179 620.841 325.645 618.876 325.645 618.876C325.645 618.876 328.025 616.818 333.265 616.718Z" fill="#D5D6DA"/>
</g>
<path d="M294.418 686.937C294.418 686.937 286.98 687.169 286.063 685.505C282.692 679.383 286.195 665.189 290.177 661.637C294.158 658.084 297.103 664.282 297.103 664.282L294.418 686.937Z" fill="#131F2D"/>
<path d="M298.036 666.411C298.036 666.411 296.675 661.405 293.652 662.975C290.629 664.545 290.78 686.845 294.409 686.937C298.038 687.029 299.557 673.44 298.036 666.411Z" fill="#364154"/>
<path d="M297.034 668.297C297.034 668.297 296.207 664.422 294.37 665.634C292.532 666.845 292.624 684.139 294.828 684.211C297.032 684.284 297.949 673.746 297.034 668.297Z" fill="#B8C1C9"/>
<path d="M265.608 693.799C265.608 693.799 255.657 694.464 254.63 692.318C251.37 685.509 248.139 666.961 259.613 660.946C269.541 655.739 272.235 668.918 272.235 668.918L265.608 693.799Z" fill="#131F2D"/>
<path d="M270.422 668.487C270.422 668.487 268.62 662.324 264.607 664.25C260.593 666.176 260.804 693.687 265.608 693.802C270.412 693.916 272.428 677.154 270.422 668.487Z" fill="#364154"/>
<path d="M269.075 670.812C269.075 670.812 267.978 666.034 265.54 667.526C263.102 669.018 263.224 690.355 266.141 690.437C269.057 690.519 270.294 677.533 269.075 670.812Z" fill="#B8C1C9"/>
<path d="M265.594 690.183L265.468 689.949C266.569 689.348 267.469 686.48 267.886 682.271C268.286 678.298 268.172 673.916 267.614 670.837L267.876 670.788C268.975 676.858 268.264 688.731 265.594 690.183Z" fill="#131F2D"/>
<path d="M204.97 669.745C204.67 668.932 204.248 668.169 203.719 667.482C203.719 667.482 199.812 660.896 194.529 664.679C189.247 668.461 191.118 688.609 192.255 690.411C193.392 692.214 200.152 691.561 200.152 691.561C204.97 691.657 206.976 677.215 204.97 669.745Z" fill="#131F2D"/>
<path d="M201.939 640.58C201.939 640.58 185.539 647.381 186.94 662.977C186.94 662.977 185.417 663.211 184.83 666.259C184.244 669.307 187.29 683.609 189.518 683.961C191.746 684.314 255.843 686.188 257.482 685.251C259.122 684.314 260.763 682.085 260.647 676.694C260.531 671.303 262.01 660.073 266.74 660.546C270.784 660.946 271.744 674.315 270.784 682.734C270.303 686.909 276.232 681.034 281.393 680.563C286.553 680.092 289.93 680.871 290.164 677.942C290.398 675.012 289.646 662.498 294.107 662.302C298.321 662.118 298.631 670.755 298.631 670.755C299.1 670.168 299.672 663.503 298.383 660.542C297.094 657.58 298.97 645.508 295.923 643.748C292.876 641.988 295.102 623.819 277.643 620.302C260.185 616.786 224.672 618.12 217.766 621.961C210.861 625.801 201.939 640.58 201.939 640.58Z" fill="#D7DF23"/>
<path d="M231.212 660.672H206.631C206.101 660.673 205.576 660.57 205.087 660.367C204.597 660.164 204.153 659.866 203.779 659.49L203.28 658.991C202.931 658.64 202.516 658.362 202.059 658.173C201.602 657.983 201.111 657.886 200.616 657.888H198.362V657.622H200.616C201.146 657.62 201.671 657.723 202.161 657.926C202.651 658.129 203.095 658.427 203.469 658.803L203.967 659.302C204.316 659.653 204.731 659.931 205.189 660.12C205.646 660.31 206.136 660.407 206.631 660.405H231.212C231.842 660.403 232.461 660.243 233.014 659.941L236.341 658.116C236.935 657.791 237.602 657.62 238.28 657.62H241.587V657.886H238.292C237.662 657.888 237.043 658.048 236.491 658.351L233.152 660.173C232.557 660.499 231.89 660.671 231.212 660.672Z" fill="#131F2D"/>
<path d="M265.952 621.578C266.214 621.603 266.468 621.682 266.697 621.812C266.926 621.941 267.126 622.117 267.282 622.329C267.439 622.54 267.549 622.783 267.606 623.04C267.663 623.297 267.665 623.563 267.612 623.821C267.041 626.599 266.711 629.421 266.625 632.256C266.507 637.648 269.319 640.931 260.42 641.517C251.52 642.104 202.901 642.318 203.253 640.674C203.605 639.03 215.892 623.386 219.407 622.291C222.523 621.324 256.947 620.749 265.952 621.578Z" fill="#131F2D"/>
<path d="M195.182 676.844C195.182 678.398 194.041 680.048 192.272 680.048C190.502 680.048 189.361 678.398 189.361 676.844C189.361 675.29 190.795 673.84 192.564 673.84C194.334 673.84 195.182 675.29 195.182 676.844Z" fill="#131F2D"/>
<path d="M251.372 676.844C251.372 678.398 250.231 680.048 248.461 680.048C246.692 680.048 245.551 678.398 245.551 676.844C245.551 675.29 246.984 673.84 248.754 673.84C250.523 673.84 251.372 675.29 251.372 676.844Z" fill="#131F2D"/>
<path d="M184.831 666.255C184.831 666.255 184.519 668.716 189.363 669.361C194.207 670.005 198.425 668.834 199.598 672.819C200.771 676.804 198.427 680.557 206.159 681.612C213.892 682.668 233.665 683.839 234.794 680.675C235.923 677.511 233.579 672.234 238.501 671.297C243.423 670.36 254.673 671.531 257.367 670.007C260.061 668.484 260.169 666.603 258.538 665.317C256.907 664.032 195.728 664.146 192.282 664.146C188.835 664.146 184.831 663.792 184.831 666.255Z" fill="#131F2D"/>
<path d="M206.583 668.702L230.261 668.522C230.447 668.52 230.632 668.561 230.801 668.641C230.97 668.72 231.118 668.837 231.235 668.983C231.353 669.128 231.436 669.298 231.478 669.48C231.52 669.662 231.521 669.851 231.48 670.033L230.939 672.437C230.878 672.71 230.726 672.954 230.508 673.13C230.289 673.305 230.018 673.402 229.738 673.404H207.177C206.903 673.404 206.636 673.314 206.419 673.146C206.201 672.979 206.046 672.744 205.976 672.479L205.392 670.254C205.344 670.071 205.339 669.88 205.376 669.695C205.414 669.51 205.493 669.336 205.608 669.186C205.723 669.037 205.87 668.915 206.039 668.831C206.208 668.747 206.394 668.703 206.583 668.702V668.702Z" fill="white"/>
<path d="M284.402 650.573C285.103 650.377 285.44 649.384 285.153 648.355C284.866 647.326 284.064 646.65 283.362 646.846C282.661 647.042 282.324 648.035 282.611 649.064C282.898 650.093 283.7 650.768 284.402 650.573Z" fill="#131F2D"/>
<path d="M294.229 649.463C294.931 649.268 295.267 648.275 294.98 647.246C294.693 646.216 293.891 645.541 293.19 645.737C292.488 645.933 292.152 646.926 292.439 647.955C292.726 648.984 293.527 649.659 294.229 649.463Z" fill="#131F2D"/>
<path d="M291.288 640.189C291.288 640.189 291.35 631.202 286.272 627.529C281.193 623.857 273.851 622.215 272.444 623.31C271.037 624.405 270.802 638.784 272.043 640.191C273.284 641.599 289.975 641.597 291.288 640.189Z" fill="#131F2D"/>
<path d="M275.647 644.038C275.647 644.038 273.361 641.87 274.534 638.231C275.707 634.592 284.728 637.059 285.665 638.876C286.602 640.692 282.911 643.8 280.451 644.327C277.991 644.853 278.517 649.309 276.647 649.075C274.778 648.84 273.285 647.551 274.203 646.73C275.122 645.909 276.818 644.741 275.647 644.038Z" fill="#364154"/>
<path d="M263.006 630.501C263.006 630.501 264.497 624.904 263.668 623.937C262.84 622.97 255.6 622.349 255.6 623.326C255.6 624.303 258.452 624.844 259.203 626.676C259.953 628.509 262.59 632.291 263.006 630.501Z" fill="#364154"/>
<path d="M251.702 653.064L251.456 652.96C252.069 651.508 253.614 649.531 256.06 647.088C257.861 645.274 259.523 643.864 259.539 643.85L259.711 644.05C259.635 644.11 253.131 649.668 251.702 653.064Z" fill="#131F2D"/>
<path d="M193.264 651.943H193.242C193.234 651.94 193.227 651.936 193.221 651.93C193.215 651.925 193.21 651.918 193.206 651.91C193.203 651.903 193.201 651.895 193.2 651.887C193.2 651.878 193.201 651.87 193.204 651.862C194.709 647.697 201.761 642.755 201.831 642.705C201.845 642.697 201.861 642.694 201.876 642.698C201.892 642.701 201.905 642.71 201.914 642.723C201.923 642.736 201.927 642.752 201.924 642.768C201.922 642.783 201.914 642.797 201.901 642.807C200.605 643.734 199.36 644.731 198.172 645.793C196.389 647.395 194.097 649.748 193.32 651.902C193.316 651.914 193.308 651.924 193.298 651.931C193.288 651.938 193.276 651.942 193.264 651.943V651.943Z" fill="#131F2D"/>
<path d="M200.711 654.94C199.406 657.994 195.873 660.469 192.82 660.469C189.768 660.469 188.343 657.994 189.656 654.94C190.969 651.886 194.494 649.411 197.547 649.411C200.599 649.411 202.016 651.888 200.711 654.94Z" fill="#E3EEEC"/>
<path d="M193.907 660.173C192.588 660.173 191.535 659.678 190.944 658.783C190.288 657.782 190.272 656.38 190.894 654.922C192.121 652.052 195.452 649.716 198.323 649.716C198.755 649.712 199.186 649.771 199.602 649.892C199.616 649.898 199.627 649.909 199.634 649.923C199.641 649.937 199.642 649.952 199.637 649.967C199.633 649.982 199.623 649.994 199.61 650.002C199.597 650.01 199.581 650.013 199.566 650.01C199.162 649.892 198.743 649.834 198.323 649.838C195.498 649.838 192.218 652.139 191.011 654.964C190.41 656.386 190.41 657.75 191.049 658.709C191.617 659.57 192.632 660.043 193.907 660.043C194.489 660.038 195.068 659.951 195.626 659.784C195.642 659.78 195.659 659.782 195.674 659.79C195.688 659.798 195.699 659.811 195.704 659.827C195.708 659.843 195.706 659.86 195.698 659.875C195.69 659.889 195.676 659.9 195.66 659.904C195.091 660.076 194.501 660.166 193.907 660.173V660.173Z" fill="#131F2D"/>
<path d="M252.465 654.94C251.16 657.994 247.627 660.469 244.574 660.469C241.521 660.469 240.104 657.994 241.409 654.94C242.714 651.886 246.247 649.411 249.3 649.411C252.353 649.411 253.77 651.888 252.465 654.94Z" fill="#E3EEEC"/>
<path d="M245.663 660.173C244.343 660.173 243.291 659.678 242.7 658.783C242.044 657.782 242.026 656.38 242.65 654.922C243.877 652.052 247.208 649.716 250.078 649.716C250.511 649.712 250.942 649.771 251.357 649.892C251.366 649.893 251.374 649.897 251.381 649.902C251.388 649.907 251.394 649.913 251.399 649.921C251.403 649.928 251.406 649.936 251.407 649.945C251.408 649.954 251.407 649.962 251.405 649.971C251.402 649.979 251.398 649.987 251.392 649.993C251.387 650 251.38 650.005 251.372 650.009C251.364 650.013 251.355 650.015 251.347 650.015C251.338 650.015 251.329 650.013 251.321 650.01C250.918 649.892 250.499 649.834 250.078 649.838C247.254 649.838 243.973 652.139 242.766 654.964C242.166 656.386 242.166 657.75 242.804 658.709C243.373 659.57 244.388 660.043 245.663 660.043C246.245 660.038 246.824 659.951 247.382 659.784C247.39 659.782 247.398 659.781 247.406 659.782C247.415 659.783 247.422 659.786 247.43 659.79C247.437 659.794 247.443 659.799 247.448 659.806C247.453 659.812 247.457 659.819 247.459 659.827C247.461 659.835 247.462 659.844 247.461 659.852C247.46 659.86 247.458 659.868 247.454 659.875C247.45 659.882 247.444 659.888 247.438 659.893C247.431 659.898 247.424 659.902 247.416 659.904C246.847 660.076 246.257 660.166 245.663 660.173V660.173Z" fill="#131F2D"/>
<path d="M288.248 666.707C288.232 666.705 288.217 666.696 288.208 666.683C288.198 666.67 288.194 666.653 288.196 666.637C288.404 665.152 288.968 663.739 289.839 662.519C290.71 661.298 291.863 660.307 293.2 659.628C293.562 659.439 293.866 659.154 294.078 658.805C294.29 658.455 294.401 658.054 294.401 657.646V653.02C294.401 653.003 294.408 652.988 294.419 652.976C294.431 652.964 294.447 652.958 294.463 652.958C294.48 652.958 294.496 652.964 294.507 652.976C294.519 652.988 294.525 653.003 294.525 653.02V657.646C294.525 658.078 294.405 658.502 294.18 658.871C293.955 659.24 293.632 659.54 293.248 659.738C291.929 660.408 290.79 661.388 289.93 662.593C289.071 663.798 288.515 665.193 288.31 666.659C288.307 666.673 288.299 666.685 288.288 666.694C288.276 666.703 288.262 666.708 288.248 666.707V666.707Z" fill="#131F2D"/>
<path d="M288.247 653.074C288.239 653.073 288.231 653.07 288.224 653.066C288.217 653.062 288.211 653.057 288.205 653.05C288.2 653.044 288.197 653.036 288.195 653.028C288.193 653.02 288.192 653.012 288.193 653.004C288.718 648.846 286.792 642.14 286.766 642.072C286.762 642.056 286.764 642.039 286.771 642.025C286.779 642.011 286.792 642 286.808 641.996C286.824 641.991 286.84 641.993 286.855 642.001C286.869 642.009 286.879 642.022 286.884 642.038C286.904 642.106 288.844 648.836 288.315 653.02C288.313 653.036 288.305 653.051 288.292 653.061C288.28 653.071 288.263 653.076 288.247 653.074V653.074Z" fill="#131F2D"/>
<path d="M217.361 658.296C218.219 658.296 218.914 657.958 218.914 657.541C218.914 657.124 218.219 656.786 217.361 656.786C216.503 656.786 215.808 657.124 215.808 657.541C215.808 657.958 216.503 658.296 217.361 658.296Z" fill="#E3EEEC"/>
<path d="M206.417 702.729C206.417 702.729 202.45 698.648 203.815 696.321C205.18 693.994 207.482 701.313 207.482 701.313C207.482 701.313 206.281 692.662 208.761 692.502C211.241 692.342 208.761 701.313 208.761 701.313C208.761 701.313 209.678 699.226 210.575 699.096C211.472 698.966 211.215 700.867 209.616 702.725L206.417 702.729Z" fill="#EAEAEA"/>
<path d="M206.702 702.827C205.929 702.004 205.234 701.111 204.626 700.16C203.359 698.137 203.057 696.531 203.729 695.388C203.98 694.961 204.282 694.765 204.624 694.803C205.319 694.881 206.099 695.942 207.014 698.043C207.288 698.672 207.531 699.301 207.721 699.823C207.503 697.554 207.248 693.037 208.489 691.523C208.604 691.371 208.749 691.245 208.917 691.154C209.084 691.063 209.268 691.009 209.458 690.996C209.628 690.981 209.799 691.009 209.955 691.077C210.111 691.145 210.247 691.252 210.351 691.387C211.468 692.766 210.463 697.676 209.911 699.973C210.323 699.301 210.911 698.554 211.502 698.467C211.625 698.441 211.754 698.456 211.868 698.509C211.982 698.563 212.076 698.652 212.134 698.764C212.499 699.429 212.004 701.129 210.545 702.823L210.325 702.623C211.76 700.957 212.15 699.387 211.88 698.894C211.849 698.835 211.799 698.789 211.739 698.762C211.678 698.736 211.61 698.731 211.546 698.748C210.779 698.858 209.883 700.538 209.602 701.177L209.328 701.079C209.328 701.059 209.877 699.076 210.241 696.922C210.717 694.094 210.677 692.242 210.127 691.561C210.051 691.462 209.952 691.385 209.839 691.336C209.726 691.286 209.601 691.266 209.478 691.278C209.329 691.289 209.183 691.332 209.052 691.405C208.92 691.478 208.806 691.578 208.718 691.699C207.148 693.615 208.159 701.025 208.159 701.107L207.875 701.171C207.356 699.527 205.757 695.227 204.59 695.095C204.368 695.069 204.17 695.215 203.98 695.538C202.504 698.049 206.866 702.581 206.91 702.627L206.702 702.827Z" fill="#364154"/>
<path d="M138.413 699.667C138.413 699.667 135.667 696.842 136.612 695.231C137.557 693.621 139.152 698.688 139.152 698.688C139.152 698.688 138.325 692.696 140.039 692.592C141.752 692.488 140.039 698.688 140.039 698.688C140.039 698.688 140.673 697.242 141.294 697.154C141.914 697.066 141.736 698.379 140.629 699.667H138.413Z" fill="#EAEAEA"/>
<path d="M138.61 699.737C138.074 699.167 137.593 698.548 137.173 697.889C136.296 696.487 136.086 695.376 136.552 694.585C136.726 694.288 136.934 694.152 137.173 694.184C137.653 694.238 138.195 694.973 138.828 696.427C139.018 696.864 139.186 697.298 139.316 697.659C139.164 696.087 138.99 692.961 139.849 691.911C139.928 691.806 140.029 691.719 140.145 691.656C140.26 691.593 140.388 691.556 140.519 691.547C140.637 691.536 140.755 691.556 140.863 691.603C140.971 691.65 141.066 691.724 141.138 691.817C141.911 692.772 141.216 696.173 140.834 697.763C141.118 697.298 141.522 696.779 141.935 696.719C142.02 696.701 142.108 696.71 142.187 696.746C142.266 696.782 142.332 696.843 142.373 696.92C142.625 697.38 142.283 698.558 141.272 699.723L141.12 699.591C142.121 698.438 142.383 697.35 142.197 697.008C142.176 696.966 142.141 696.934 142.099 696.915C142.057 696.897 142.009 696.893 141.965 696.906C141.432 696.982 140.814 698.145 140.62 698.588L140.429 698.52C140.443 698.466 141.917 693.083 140.982 691.929C140.93 691.86 140.862 691.805 140.783 691.77C140.704 691.735 140.617 691.721 140.531 691.729C140.428 691.737 140.327 691.766 140.236 691.816C140.146 691.867 140.067 691.936 140.005 692.019C138.92 693.345 139.605 698.476 139.621 698.528L139.421 698.572C139.062 697.432 137.955 694.456 137.147 694.366C136.992 694.348 136.854 694.448 136.724 694.673C135.703 696.411 138.726 699.551 138.752 699.581L138.61 699.737Z" fill="#364154"/>
<path d="M57.847 683.939C57.847 683.939 54.5282 680.535 55.6712 678.58C56.8141 676.626 58.7398 682.758 58.7398 682.758C58.7398 682.758 57.7389 675.52 59.8107 675.394C61.8824 675.268 59.8107 682.758 59.8107 682.758C59.8107 682.758 60.5773 681.011 61.326 680.903C62.0746 680.795 61.8604 682.383 60.5253 683.939H57.847Z" fill="#EAEAEA"/>
<path d="M58.0829 684.025C57.9268 683.865 54.2796 680.06 55.5968 677.801C55.7969 677.445 56.0572 677.281 56.3454 677.313C56.9259 677.379 57.5805 678.266 58.3471 680.022C58.5753 680.549 58.7795 681.075 58.9476 681.51C58.7655 679.612 58.5473 675.833 59.5902 674.567C59.6849 674.441 59.8052 674.337 59.9432 674.261C60.0813 674.185 60.2338 674.139 60.3909 674.127C60.5327 674.114 60.6755 674.137 60.806 674.194C60.9365 674.251 61.0505 674.34 61.1375 674.453C62.0723 675.606 61.2316 679.714 60.7692 681.636C61.1135 681.073 61.6019 680.449 62.1003 680.377C62.2032 680.354 62.3105 680.366 62.4059 680.411C62.5013 680.455 62.5796 680.53 62.6288 680.623C62.933 681.18 62.5187 682.601 61.2996 684.027L61.1155 683.867C62.3165 682.465 62.6408 681.16 62.4166 680.747C62.3907 680.698 62.3489 680.659 62.2979 680.637C62.247 680.614 62.19 680.61 62.1363 680.625C61.4938 680.717 60.7452 682.123 60.511 682.655L60.2828 682.573C60.2828 682.557 60.7412 680.903 61.0454 679.095C61.4458 676.73 61.4097 675.18 60.9493 674.611C60.887 674.528 60.8043 674.463 60.7092 674.422C60.6141 674.38 60.51 674.364 60.4069 674.375C60.2817 674.384 60.16 674.42 60.0501 674.48C59.9402 674.541 59.8448 674.624 59.7703 674.725C58.4592 676.327 59.2979 682.525 59.3059 682.587L59.0697 682.641C58.6374 681.266 57.2982 677.671 56.3214 677.559C56.1352 677.539 55.9691 677.659 55.811 677.929C54.5779 680.03 58.225 683.821 58.261 683.859L58.0829 684.025Z" fill="#364154"/>
<path d="M75.0118 697.292C75.0118 697.292 72.0093 694.206 73.0442 692.448C74.079 690.69 75.8165 696.219 75.8165 696.219C75.8165 696.219 74.9137 689.674 76.7833 689.56C78.6529 689.446 76.7833 696.219 76.7833 696.219C76.7833 696.219 77.4759 694.641 78.1545 694.543C78.8331 694.445 78.6389 695.882 77.4279 697.288L75.0118 697.292Z" fill="#EAEAEA"/>
<path d="M75.2262 697.37C75.0841 697.224 71.7793 693.786 72.9783 691.743C73.1685 691.421 73.3967 691.272 73.6549 691.3C74.1793 691.36 74.7718 692.161 75.4564 693.751C75.6566 694.228 75.8568 694.703 75.9909 695.097C75.8247 693.381 75.6346 689.965 76.5734 688.819C76.6595 688.704 76.7695 688.608 76.896 688.539C77.0224 688.47 77.1623 688.429 77.306 688.419C77.4344 688.407 77.5637 688.428 77.682 688.479C77.8003 688.531 77.9037 688.611 77.9826 688.713C78.8273 689.756 78.0667 693.471 77.6503 695.207C77.9606 694.699 78.4029 694.134 78.8513 694.068C78.9446 694.048 79.0418 694.059 79.1281 694.1C79.2144 694.14 79.2852 694.208 79.3297 694.292C79.606 694.795 79.2316 696.08 78.1287 697.362L77.9626 697.218C79.0475 695.956 79.3417 694.769 79.1376 694.396C79.1145 694.351 79.0767 694.315 79.0304 694.295C78.9841 694.275 78.9321 694.271 78.8833 694.284C78.3029 694.368 77.6263 695.638 77.4141 696.12L77.2139 696.046C77.2139 696.032 77.6283 694.536 77.9045 692.902C78.2648 690.764 78.2348 689.362 77.8184 688.849C77.7617 688.775 77.6868 688.716 77.601 688.678C77.5152 688.641 77.4212 688.626 77.328 688.635C77.215 688.643 77.105 688.676 77.0059 688.731C76.9067 688.786 76.8206 688.862 76.7535 688.953C75.5685 690.401 76.3252 696.006 76.3332 696.062L76.119 696.11C75.7186 694.867 74.5176 691.615 73.6349 691.515C73.4667 691.495 73.3166 691.605 73.1725 691.849C72.0575 693.747 75.3543 697.176 75.3884 697.212L75.2262 697.37Z" fill="#364154"/>
<path d="M123.116 689.778C123.116 689.778 118.968 685.511 120.396 683.08C121.823 680.649 124.231 688.303 124.231 688.303C124.231 688.303 122.982 679.253 125.57 679.091C128.158 678.929 125.57 688.303 125.57 688.303C125.57 688.303 126.529 686.12 127.466 685.984C128.402 685.847 128.134 687.834 126.465 689.788L123.116 689.778Z" fill="#EAEAEA"/>
<path d="M123.413 689.885C122.605 689.023 121.878 688.089 121.243 687.093C119.918 684.978 119.602 683.298 120.304 682.103C120.566 681.656 120.883 681.452 121.241 681.492C121.968 681.574 122.784 682.683 123.741 684.88C124.027 685.539 124.282 686.196 124.48 686.741C124.252 684.368 123.985 679.644 125.28 678.06C125.401 677.901 125.553 677.77 125.728 677.675C125.902 677.58 126.095 677.524 126.293 677.509C126.47 677.492 126.648 677.52 126.812 677.59C126.975 677.66 127.118 677.77 127.228 677.909C128.397 679.353 127.346 684.488 126.768 686.891C127.198 686.188 127.809 685.405 128.431 685.317C128.56 685.289 128.694 685.304 128.814 685.359C128.933 685.415 129.031 685.508 129.092 685.625C129.472 686.32 128.956 688.098 127.43 689.871L127.2 689.67C128.701 687.926 129.108 686.284 128.825 685.769C128.793 685.708 128.741 685.659 128.677 685.631C128.614 685.603 128.542 685.597 128.475 685.615C127.674 685.731 126.736 687.488 126.443 688.154L126.157 688.052C126.157 688.032 126.732 685.966 127.112 683.705C127.61 680.749 127.568 678.811 126.994 678.098C126.915 677.995 126.812 677.914 126.693 677.862C126.574 677.811 126.444 677.79 126.315 677.803C126.158 677.814 126.005 677.858 125.867 677.934C125.728 678.01 125.608 678.115 125.515 678.242C123.875 680.244 124.914 687.994 124.934 688.072L124.638 688.138C124.095 686.418 122.424 681.93 121.203 681.784C120.971 681.758 120.763 681.908 120.564 682.247C119.023 684.872 123.583 689.614 123.629 689.656L123.413 689.885Z" fill="#364154"/>
<path d="M308.266 682.371C308.266 682.371 305.263 679.285 306.298 677.527C307.333 675.769 309.072 681.304 309.072 681.304C309.072 681.304 308.17 674.759 310.039 674.645C311.909 674.531 310.039 681.304 310.039 681.304C310.039 681.304 310.732 679.726 311.41 679.628C312.089 679.53 311.895 680.967 310.684 682.373L308.266 682.371Z" fill="#EAEAEA"/>
<path d="M308.481 682.447C308.339 682.301 305.034 678.863 306.233 676.82C306.423 676.498 306.652 676.349 306.91 676.377C307.434 676.438 308.027 677.239 308.711 678.829C308.911 679.305 309.112 679.78 309.246 680.174C309.08 678.458 308.889 675.042 309.828 673.896C309.914 673.781 310.024 673.685 310.151 673.616C310.277 673.547 310.417 673.506 310.561 673.496C310.691 673.482 310.822 673.502 310.942 673.554C311.063 673.605 311.168 673.687 311.247 673.79C312.092 674.833 311.332 678.548 310.915 680.286C311.227 679.778 311.668 679.213 312.116 679.147C312.209 679.127 312.307 679.138 312.393 679.179C312.479 679.219 312.55 679.287 312.595 679.371C312.871 679.874 312.497 681.16 311.394 682.441L311.227 682.297C312.312 681.035 312.607 679.848 312.402 679.475C312.38 679.43 312.342 679.394 312.295 679.374C312.249 679.353 312.197 679.349 312.148 679.363C311.568 679.447 310.891 680.717 310.679 681.2L310.479 681.125C310.479 681.111 310.893 679.616 311.169 677.981C311.53 675.843 311.5 674.441 311.083 673.926C311.027 673.852 310.952 673.793 310.866 673.755C310.78 673.718 310.686 673.703 310.593 673.712C310.48 673.72 310.37 673.753 310.271 673.808C310.172 673.863 310.086 673.939 310.018 674.03C308.833 675.478 309.59 681.083 309.598 681.139L309.384 681.188C308.984 679.944 307.783 676.692 306.9 676.592C306.732 676.572 306.581 676.682 306.437 676.926C305.322 678.825 308.619 682.253 308.653 682.289L308.481 682.447Z" fill="#364154"/>
<path d="M278.818 696.896C278.818 696.896 275.816 693.81 276.851 692.051C277.886 690.293 279.619 695.818 279.619 695.818C279.619 695.818 278.716 689.274 280.586 689.16C282.456 689.046 280.586 695.818 280.586 695.818C280.586 695.818 281.279 694.24 281.957 694.142C282.636 694.044 282.442 695.482 281.231 696.887L278.818 696.896Z" fill="#EAEAEA"/>
<path d="M279.019 696.972C278.877 696.826 275.572 693.387 276.771 691.345C276.961 691.022 277.19 690.874 277.448 690.902C277.972 690.962 278.565 691.763 279.249 693.353C279.45 693.83 279.65 694.304 279.784 694.699C279.618 692.983 279.428 689.566 280.366 688.421C280.452 688.305 280.562 688.21 280.689 688.141C280.815 688.071 280.955 688.03 281.099 688.02C281.227 688.009 281.357 688.029 281.475 688.081C281.593 688.132 281.697 688.213 281.776 688.315C282.62 689.358 281.86 693.073 281.443 694.809C281.756 694.3 282.196 693.736 282.644 693.67C282.738 693.65 282.835 693.661 282.921 693.701C283.007 693.742 283.078 693.809 283.123 693.894C283.399 694.396 283.025 695.682 281.922 696.964L281.756 696.82C282.84 695.558 283.135 694.37 282.931 693.998C282.907 693.953 282.87 693.917 282.823 693.897C282.777 693.876 282.725 693.872 282.676 693.886C282.096 693.97 281.419 695.24 281.207 695.722L281.007 695.648C281.007 695.634 281.421 694.138 281.697 692.504C282.058 690.365 282.028 688.964 281.611 688.451C281.555 688.376 281.48 688.318 281.394 688.28C281.308 688.243 281.214 688.228 281.121 688.237C281.008 688.245 280.898 688.278 280.799 688.333C280.7 688.388 280.614 688.464 280.546 688.555C279.361 690.003 280.118 695.608 280.126 695.664L279.912 695.712C279.512 694.469 278.311 691.216 277.428 691.116C277.262 691.096 277.11 691.206 276.965 691.451C275.85 693.349 279.147 696.777 279.181 696.814L279.019 696.972Z" fill="#364154"/>
<path d="M90.0313 321.276H106.925C108.242 321.276 109.412 320.963 110.433 320.337C111.455 319.711 112.239 318.828 112.783 317.689C113.351 316.526 113.635 315.197 113.635 313.699C113.635 312.202 113.351 310.883 112.783 309.743C112.239 308.581 111.455 307.687 110.433 307.061C109.434 306.436 108.265 306.123 106.925 306.123H90.0313V299.619H106.653C109.514 299.619 112.023 300.2 114.18 301.362C116.36 302.524 118.04 304.178 119.221 306.324C120.424 308.447 121.026 310.905 121.026 313.699C121.026 316.493 120.424 318.962 119.221 321.108C118.017 323.231 116.326 324.874 114.146 326.036C111.989 327.198 109.491 327.779 106.653 327.779H90.0313V321.276ZM87 299.619H93.9483V348.397H87V299.619ZM103.519 326.271L110.433 324.729L123.104 348.397H114.861L103.519 326.271Z" fill="black"/>
<path d="M131.142 299.653H138.09V306.491H131.142V299.653ZM131.142 313.599H138.09V348.397H131.142V313.599Z" fill="black"/>
<path d="M168.744 299.653H175.692V348.397H168.744V299.653ZM159.854 349C157.266 349 155.052 348.452 153.213 347.357C151.396 346.24 150.011 344.62 149.057 342.496C148.104 340.373 147.627 337.825 147.627 334.853V327.176C147.627 324.181 148.092 321.622 149.023 319.499C149.954 317.376 151.305 315.766 153.077 314.671C154.87 313.554 157.016 312.995 159.514 312.995C161.603 312.995 163.51 313.532 165.236 314.604C166.984 315.677 168.392 317.186 169.459 319.13L168.744 326.237C168.744 324.762 168.472 323.499 167.927 322.449C167.382 321.399 166.587 320.605 165.543 320.069C164.521 319.51 163.272 319.231 161.796 319.231C159.503 319.231 157.72 319.935 156.448 321.343C155.2 322.751 154.575 324.729 154.575 327.276V334.853C154.575 337.378 155.2 339.334 156.448 340.72C157.72 342.083 159.503 342.765 161.796 342.765C163.272 342.765 164.521 342.485 165.543 341.926C166.587 341.345 167.382 340.518 167.927 339.446C168.472 338.373 168.744 337.088 168.744 335.59L169.221 342.932C168.517 344.653 167.359 346.095 165.747 347.257C164.157 348.419 162.193 349 159.854 349Z" fill="black"/>
<path d="M200.727 348.899C197.457 348.899 194.664 348.296 192.348 347.089C190.032 345.882 188.261 344.117 187.034 341.792C185.831 339.446 185.229 336.618 185.229 333.311V329.388C185.229 325.947 185.808 323.008 186.966 320.572C188.147 318.136 189.85 316.281 192.075 315.007C194.301 313.733 196.98 313.096 200.114 313.096C203.065 313.096 205.586 313.822 207.675 315.275C209.764 316.727 211.353 318.828 212.443 321.577C213.556 324.326 214.112 327.623 214.112 331.467V333.747H190.27V328.249H207.505C207.3 325.41 206.551 323.209 205.257 321.644C203.985 320.058 202.271 319.264 200.114 319.264C197.48 319.264 195.436 320.113 193.983 321.812C192.552 323.511 191.837 325.913 191.837 329.02V333.445C191.837 336.328 192.609 338.54 194.153 340.083C195.697 341.625 197.888 342.396 200.727 342.396C202.134 342.396 203.531 342.116 204.916 341.558C206.301 340.999 207.539 340.217 208.629 339.211L213.193 343.703C211.444 345.357 209.48 346.642 207.3 347.558C205.12 348.452 202.929 348.899 200.727 348.899Z" fill="black"/>
<g clip-path="url(#clip1_218_42035)">
<path d="M220.024 348.672L286.622 288L224.442 348.672H220.024Z" fill="#D7DF23"/>
<path d="M245.168 348.672L287.641 288.984L248.906 349L245.168 348.672Z" fill="#D7DF23"/>
<path d="M225.461 305.054H242.45L254.003 316.204L245.678 323.911L225.461 305.054Z" fill="black"/>
<path d="M264.876 326.043L289 349H272.691L258.42 335.882L264.876 326.043Z" fill="black"/>
<path d="M233.955 347.36L237.693 342.441H241.77L238.372 347.36H233.955Z" fill="black"/>
<path d="M241.091 339.489L244.081 335.554H247.343L244.625 339.489H241.091Z" fill="black"/>
<path d="M246.527 333.258L249.29 328.995H252.304L249.793 333.258H246.527Z" fill="black"/>
<path d="M252.304 326.699L254.58 323.186H257.061L254.991 326.699H252.304Z" fill="black"/>
<path d="M257.4 321.124L259.313 318.172H261.4L259.66 321.124H257.4Z" fill="black"/>
<path d="M261.817 316.532L263.73 313.581H265.817L264.077 316.532H261.817Z" fill="black"/>
<path d="M266.234 311.941L267.536 309.934H268.953L267.77 311.941H266.234Z" fill="black"/>
<path d="M269.633 307.677L270.771 305.923H272.011L270.978 307.677H269.633Z" fill="black"/>
<path d="M273.03 304.07L274.169 302.315H275.409L274.376 304.07H273.03Z" fill="black"/>
<path d="M276.088 300.79L276.9 299.538H277.787L277.049 300.79H276.088Z" fill="black"/>
<path d="M278.127 298.495L278.939 297.242H279.826L279.089 298.495H278.127Z" fill="black"/>
</g>
<path d="M91.5 0.0204082H291.5C291.5 0.0204082 289 -0.979591 288.773 11.0204C288.545 23.0204 283.075 28.0204 276.045 28.0204H106.955C99.9255 28.0204 94.4545 23.0204 94.2273 11.0204C94 -0.979591 91.5 0.0204082 91.5 0.0204082Z" fill="#DDDDDD"/>
<g opacity="0.1">
<path fill-rule="evenodd" clip-rule="evenodd" d="M338.172 13H351.535C352.102 13 352.645 13.2251 353.046 13.6259C353.447 14.0267 353.672 14.5702 353.672 15.137V19.946C353.672 20.5128 353.447 21.0563 353.046 21.4571C352.645 21.8579 352.102 22.083 351.535 22.083H338.172C337.605 22.083 337.062 21.8579 336.661 21.4571C336.26 21.0563 336.035 20.5128 336.035 19.946V15.137C336.035 14.5702 336.26 14.0267 336.661 13.6259C337.062 13.2251 337.605 13 338.172 13Z" fill="black"/>
</g>
<path d="M354.469 15.939V19.145C354.784 19.0124 355.053 18.7899 355.242 18.5053C355.431 18.2208 355.532 17.8868 355.533 17.545C355.533 17.2023 355.433 16.867 355.243 16.5812C355.054 16.2955 354.785 16.0721 354.469 15.939" fill="#111111"/>
<path d="M338.707 14.603H350.997C351.28 14.603 351.552 14.7157 351.753 14.9161C351.953 15.1166 352.066 15.3885 352.066 15.672V19.412C352.066 19.6955 351.953 19.9674 351.753 20.1679C351.552 20.3684 351.28 20.481 350.997 20.481H338.707C338.423 20.481 338.151 20.3684 337.951 20.1679C337.75 19.9674 337.638 19.6955 337.638 19.412V15.67C337.638 15.3869 337.751 15.1155 337.952 14.9154C338.152 14.7154 338.424 14.603 338.707 14.603V14.603Z" fill="#111111"/>
<path d="M325.475 14.8221C327.251 14.8221 328.959 15.5045 330.246 16.7281C330.293 16.7737 330.355 16.7993 330.42 16.7993C330.485 16.7993 330.547 16.7737 330.593 16.7281L331.52 15.7931C331.544 15.769 331.563 15.7404 331.576 15.709C331.589 15.6776 331.596 15.644 331.595 15.6101C331.595 15.5761 331.588 15.5426 331.575 15.5114C331.562 15.4802 331.543 15.4518 331.518 15.4281C329.892 13.8699 327.728 13 325.475 13C323.223 13 321.058 13.8699 319.432 15.4281C319.408 15.4518 319.389 15.4802 319.376 15.5114C319.363 15.5426 319.356 15.5761 319.355 15.6101C319.355 15.644 319.362 15.6776 319.375 15.709C319.388 15.7404 319.407 15.769 319.43 15.7931L320.357 16.7281C320.404 16.7737 320.466 16.7993 320.531 16.7993C320.596 16.7993 320.658 16.7737 320.704 16.7281C321.992 15.5042 323.7 14.8219 325.476 14.8221H325.475ZM325.475 17.8641C326.451 17.8641 327.392 18.227 328.115 18.8821C328.162 18.9272 328.224 18.9525 328.289 18.9525C328.354 18.9525 328.416 18.9272 328.462 18.8821L329.387 17.9471C329.412 17.9227 329.431 17.8939 329.444 17.8621C329.456 17.8303 329.463 17.7963 329.462 17.7621C329.462 17.7278 329.455 17.694 329.441 17.6626C329.428 17.6312 329.408 17.6028 329.383 17.5791C328.322 16.5915 326.925 16.0425 325.475 16.0425C324.025 16.0425 322.629 16.5915 321.567 17.5791C321.543 17.6028 321.523 17.6312 321.51 17.6626C321.496 17.694 321.489 17.7278 321.488 17.7621C321.488 17.7963 321.494 17.8303 321.507 17.8621C321.52 17.8939 321.539 17.9227 321.563 17.9471L322.488 18.8821C322.535 18.9272 322.597 18.9525 322.662 18.9525C322.727 18.9525 322.789 18.9272 322.835 18.8821C323.558 18.2274 324.498 17.8646 325.473 17.8641H325.475ZM327.254 20.0961C327.279 20.072 327.298 20.0432 327.311 20.0113C327.324 19.9795 327.33 19.9454 327.329 19.9111C327.329 19.8767 327.321 19.8428 327.307 19.8115C327.293 19.7802 327.272 19.7521 327.246 19.7291C326.751 19.3102 326.124 19.0804 325.475 19.0804C324.827 19.0804 324.2 19.3102 323.704 19.7291C323.679 19.752 323.659 19.7798 323.644 19.811C323.63 19.8421 323.622 19.8758 323.621 19.9101C323.621 19.9444 323.627 19.9785 323.64 20.0103C323.653 20.0422 323.672 20.071 323.696 20.0951L325.296 21.7111C325.32 21.7346 325.347 21.7532 325.378 21.7659C325.409 21.7786 325.441 21.7851 325.474 21.7851C325.508 21.7851 325.54 21.7786 325.571 21.7659C325.601 21.7532 325.629 21.7346 325.652 21.7111L327.254 20.0961Z" fill="#111111"/>
<path d="M21.294 18.472C20.97 18.472 20.662 18.418 20.37 18.31C20.082 18.202 19.828 18.044 19.608 17.836C19.388 17.624 19.212 17.366 19.08 17.062C18.952 16.754 18.888 16.402 18.888 16.006C18.888 15.63 18.958 15.278 19.098 14.95C19.238 14.622 19.434 14.336 19.686 14.092C19.938 13.848 20.238 13.656 20.586 13.516C20.934 13.376 21.316 13.306 21.732 13.306C22.144 13.306 22.518 13.374 22.854 13.51C23.19 13.646 23.478 13.836 23.718 14.08C23.958 14.324 24.142 14.616 24.27 14.956C24.402 15.296 24.468 15.672 24.468 16.084C24.468 16.332 24.444 16.568 24.396 16.792C24.352 17.012 24.286 17.228 24.198 17.44C24.11 17.652 24.004 17.864 23.88 18.076C23.76 18.284 23.622 18.5 23.466 18.724L21.372 21.748C21.32 21.824 21.246 21.886 21.15 21.934C21.054 21.978 20.944 22 20.82 22H19.836L22.452 18.574C22.54 18.458 22.622 18.348 22.698 18.244C22.774 18.14 22.846 18.036 22.914 17.932C22.694 18.108 22.446 18.242 22.17 18.334C21.894 18.426 21.602 18.472 21.294 18.472ZM23.442 15.958C23.442 15.69 23.398 15.448 23.31 15.232C23.226 15.012 23.108 14.826 22.956 14.674C22.804 14.522 22.622 14.406 22.41 14.326C22.202 14.242 21.972 14.2 21.72 14.2C21.456 14.2 21.214 14.244 20.994 14.332C20.778 14.416 20.592 14.534 20.436 14.686C20.284 14.838 20.166 15.02 20.082 15.232C19.998 15.444 19.956 15.676 19.956 15.928C19.956 16.2 19.994 16.444 20.07 16.66C20.15 16.872 20.262 17.052 20.406 17.2C20.554 17.348 20.732 17.46 20.94 17.536C21.152 17.612 21.388 17.65 21.648 17.65C21.936 17.65 22.19 17.604 22.41 17.512C22.634 17.416 22.822 17.29 22.974 17.134C23.126 16.978 23.242 16.798 23.322 16.594C23.402 16.39 23.442 16.178 23.442 15.958ZM25.7289 21.34C25.7289 21.236 25.7469 21.138 25.7829 21.046C25.8229 20.954 25.8749 20.874 25.9389 20.806C26.0069 20.738 26.0869 20.684 26.1789 20.644C26.2709 20.604 26.3689 20.584 26.4729 20.584C26.5769 20.584 26.6749 20.604 26.7669 20.644C26.8589 20.684 26.9389 20.738 27.0069 20.806C27.0749 20.874 27.1269 20.954 27.1629 21.046C27.2029 21.138 27.2229 21.236 27.2229 21.34C27.2229 21.448 27.2029 21.548 27.1629 21.64C27.1269 21.728 27.0749 21.806 27.0069 21.874C26.9389 21.942 26.8589 21.994 26.7669 22.03C26.6749 22.07 26.5769 22.09 26.4729 22.09C26.3689 22.09 26.2709 22.07 26.1789 22.03C26.0869 21.994 26.0069 21.942 25.9389 21.874C25.8749 21.806 25.8229 21.728 25.7829 21.64C25.7469 21.548 25.7289 21.448 25.7289 21.34ZM25.7289 16.84C25.7289 16.736 25.7469 16.638 25.7829 16.546C25.8229 16.454 25.8749 16.374 25.9389 16.306C26.0069 16.238 26.0869 16.184 26.1789 16.144C26.2709 16.104 26.3689 16.084 26.4729 16.084C26.5769 16.084 26.6749 16.104 26.7669 16.144C26.8589 16.184 26.9389 16.238 27.0069 16.306C27.0749 16.374 27.1269 16.454 27.1629 16.546C27.2029 16.638 27.2229 16.736 27.2229 16.84C27.2229 16.948 27.2029 17.048 27.1629 17.14C27.1269 17.228 27.0749 17.306 27.0069 17.374C26.9389 17.442 26.8589 17.496 26.7669 17.536C26.6749 17.572 26.5769 17.59 26.4729 17.59C26.3689 17.59 26.2709 17.572 26.1789 17.536C26.0869 17.496 26.0069 17.442 25.9389 17.374C25.8749 17.306 25.8229 17.228 25.7829 17.14C25.7469 17.048 25.7289 16.948 25.7289 16.84ZM33.4024 18.898H34.7044V19.51C34.7044 19.574 34.6844 19.628 34.6444 19.672C34.6084 19.716 34.5504 19.738 34.4704 19.738H33.4024V22H32.4604V19.738H28.6504C28.5704 19.738 28.5004 19.716 28.4404 19.672C28.3844 19.624 28.3484 19.566 28.3324 19.498L28.2244 18.952L32.4064 13.402H33.4024V18.898ZM32.4604 15.352C32.4604 15.248 32.4624 15.136 32.4664 15.016C32.4744 14.896 32.4884 14.772 32.5084 14.644L29.3824 18.898H32.4604V15.352ZM36.6673 21.184H38.5153V15.322C38.5153 15.146 38.5213 14.968 38.5333 14.788L36.9973 16.102C36.9573 16.134 36.9173 16.158 36.8773 16.174C36.8373 16.186 36.7993 16.192 36.7633 16.192C36.7033 16.192 36.6493 16.18 36.6013 16.156C36.5533 16.128 36.5173 16.096 36.4933 16.06L36.1573 15.598L38.7133 13.384H39.5833V21.184H41.2753V22H36.6673V21.184Z" fill="#111111"/>
<path d="M302.502 18.34H303.302C303.514 18.34 303.718 18.4243 303.868 18.5743C304.018 18.7243 304.102 18.9278 304.102 19.14V20.74C304.102 20.9522 304.018 21.1557 303.868 21.3057C303.718 21.4557 303.514 21.54 303.302 21.54H302.502C302.29 21.54 302.086 21.4557 301.936 21.3057C301.786 21.1557 301.702 20.9522 301.702 20.74V19.14C301.702 18.9278 301.786 18.7243 301.936 18.5743C302.086 18.4243 302.29 18.34 302.502 18.34V18.34ZM306.242 16.74H307.042C307.254 16.74 307.458 16.8243 307.608 16.9743C307.758 17.1243 307.842 17.3278 307.842 17.54V20.746C307.842 20.8511 307.821 20.9551 307.781 21.0521C307.741 21.1492 307.682 21.2374 307.608 21.3117C307.534 21.386 307.445 21.4449 307.348 21.4851C307.251 21.5253 307.147 21.546 307.042 21.546H306.242C306.137 21.546 306.033 21.5253 305.936 21.4851C305.839 21.4449 305.751 21.386 305.676 21.3117C305.602 21.2374 305.543 21.1492 305.503 21.0521C305.463 20.9551 305.442 20.8511 305.442 20.746V17.54C305.442 17.4347 305.462 17.3303 305.502 17.2329C305.542 17.1355 305.601 17.047 305.675 16.9724C305.75 16.8978 305.838 16.8386 305.935 16.7982C306.033 16.7578 306.137 16.737 306.242 16.737V16.74ZM309.982 14.87H310.782C310.887 14.87 310.991 14.8907 311.088 14.9309C311.185 14.9711 311.274 15.03 311.348 15.1043C311.422 15.1786 311.481 15.2668 311.521 15.3639C311.561 15.4609 311.582 15.5649 311.582 15.67V20.746C311.582 20.8511 311.561 20.9551 311.521 21.0521C311.481 21.1492 311.422 21.2374 311.348 21.3117C311.274 21.386 311.185 21.4449 311.088 21.4851C310.991 21.5253 310.887 21.546 310.782 21.546H309.982C309.877 21.546 309.773 21.5253 309.676 21.4851C309.579 21.4449 309.491 21.386 309.416 21.3117C309.342 21.2374 309.283 21.1492 309.243 21.0521C309.203 20.9551 309.182 20.8511 309.182 20.746V15.67C309.182 15.5646 309.202 15.4602 309.242 15.3627C309.282 15.2652 309.341 15.1766 309.416 15.102C309.49 15.0274 309.579 14.9682 309.676 14.9279C309.773 14.8876 309.878 14.8669 309.983 14.867L309.982 14.87ZM313.722 13H314.522C314.734 13 314.938 13.0843 315.088 13.2343C315.238 13.3843 315.322 13.5878 315.322 13.8V20.746C315.322 20.9582 315.238 21.1617 315.088 21.3117C314.938 21.4617 314.734 21.546 314.522 21.546H313.722C313.617 21.546 313.513 21.5253 313.416 21.4851C313.319 21.4449 313.231 21.386 313.156 21.3117C313.082 21.2374 313.023 21.1492 312.983 21.0521C312.943 20.9551 312.922 20.8511 312.922 20.746V13.8C312.922 13.6949 312.943 13.5909 312.983 13.4939C313.023 13.3968 313.082 13.3086 313.156 13.2343C313.231 13.16 313.319 13.1011 313.416 13.0609C313.513 13.0207 313.617 13 313.722 13V13Z" fill="#111111"/>
</g>
<defs>
<clipPath id="clip0_218_42035">
<rect width="375" height="812" fill="white"/>
</clipPath>
<clipPath id="clip1_218_42035">
<rect width="68.9756" height="61" fill="white" transform="translate(220.024 288)"/>
</clipPath>
</defs>
</svg>
