<svg width="375" height="812" viewBox="0 0 375 812" fill="none" xmlns="http://www.w3.org/2000/svg">
<rect width="375" height="812" fill="#FEFFEE"/>
<rect x="139.663" y="788" width="95.674" height="6.30817" rx="3.15409" fill="#E7E7E7"/>
<rect x="31.5" y="697.5" width="311" height="59" rx="29.5" stroke="#5B5B5B"/>
<path d="M166.412 732.78H172.202V735H163.722V720.54H166.412V732.78ZM177.923 724.58C178.689 724.58 179.383 724.703 180.003 724.95C180.629 725.197 181.163 725.547 181.603 726C182.043 726.453 182.383 727.007 182.623 727.66C182.863 728.313 182.983 729.043 182.983 729.85C182.983 730.663 182.863 731.397 182.623 732.05C182.383 732.703 182.043 733.26 181.603 733.72C181.163 734.18 180.629 734.533 180.003 734.78C179.383 735.027 178.689 735.15 177.923 735.15C177.156 735.15 176.459 735.027 175.833 734.78C175.206 734.533 174.669 734.18 174.223 733.72C173.783 733.26 173.439 732.703 173.193 732.05C172.953 731.397 172.833 730.663 172.833 729.85C172.833 729.043 172.953 728.313 173.193 727.66C173.439 727.007 173.783 726.453 174.223 726C174.669 725.547 175.206 725.197 175.833 724.95C176.459 724.703 177.156 724.58 177.923 724.58ZM177.923 733.25C178.776 733.25 179.406 732.963 179.813 732.39C180.226 731.817 180.433 730.977 180.433 729.87C180.433 728.763 180.226 727.92 179.813 727.34C179.406 726.76 178.776 726.47 177.923 726.47C177.056 726.47 176.416 726.763 176.003 727.35C175.589 727.93 175.383 728.77 175.383 729.87C175.383 730.97 175.589 731.81 176.003 732.39C176.416 732.963 177.056 733.25 177.923 733.25ZM188.46 724.56C188.9 724.56 189.313 724.607 189.7 724.7C190.087 724.787 190.44 724.917 190.76 725.09H193.71V726.01C193.71 726.163 193.67 726.283 193.59 726.37C193.51 726.457 193.373 726.517 193.18 726.55L192.26 726.72C192.327 726.893 192.377 727.077 192.41 727.27C192.45 727.463 192.47 727.667 192.47 727.88C192.47 728.387 192.367 728.847 192.16 729.26C191.96 729.667 191.68 730.013 191.32 730.3C190.967 730.587 190.543 730.81 190.05 730.97C189.563 731.123 189.033 731.2 188.46 731.2C188.073 731.2 187.697 731.163 187.33 731.09C187.01 731.283 186.85 731.5 186.85 731.74C186.85 731.947 186.943 732.1 187.13 732.2C187.323 732.293 187.573 732.36 187.88 732.4C188.193 732.44 188.547 732.467 188.94 732.48C189.333 732.487 189.737 732.507 190.15 732.54C190.563 732.573 190.967 732.633 191.36 732.72C191.753 732.8 192.103 732.93 192.41 733.11C192.723 733.29 192.973 733.537 193.16 733.85C193.353 734.157 193.45 734.553 193.45 735.04C193.45 735.493 193.337 735.933 193.11 736.36C192.89 736.787 192.567 737.167 192.14 737.5C191.72 737.833 191.203 738.1 190.59 738.3C189.977 738.507 189.277 738.61 188.49 738.61C187.71 738.61 187.033 738.533 186.46 738.38C185.887 738.233 185.41 738.033 185.03 737.78C184.657 737.533 184.377 737.247 184.19 736.92C184.003 736.593 183.91 736.253 183.91 735.9C183.91 735.42 184.057 735.017 184.35 734.69C184.643 734.363 185.05 734.103 185.57 733.91C185.317 733.77 185.113 733.583 184.96 733.35C184.807 733.117 184.73 732.813 184.73 732.44C184.73 732.287 184.757 732.13 184.81 731.97C184.863 731.803 184.943 731.64 185.05 731.48C185.163 731.32 185.303 731.17 185.47 731.03C185.637 730.883 185.833 730.753 186.06 730.64C185.54 730.36 185.13 729.987 184.83 729.52C184.537 729.053 184.39 728.507 184.39 727.88C184.39 727.373 184.49 726.917 184.69 726.51C184.897 726.097 185.18 725.747 185.54 725.46C185.907 725.167 186.337 724.943 186.83 724.79C187.33 724.637 187.873 724.56 188.46 724.56ZM191.17 735.46C191.17 735.26 191.11 735.097 190.99 734.97C190.87 734.843 190.707 734.747 190.5 734.68C190.293 734.607 190.05 734.553 189.77 734.52C189.497 734.487 189.203 734.463 188.89 734.45C188.583 734.43 188.263 734.413 187.93 734.4C187.603 734.38 187.287 734.35 186.98 734.31C186.7 734.463 186.473 734.647 186.3 734.86C186.133 735.067 186.05 735.307 186.05 735.58C186.05 735.76 186.093 735.927 186.18 736.08C186.273 736.24 186.417 736.377 186.61 736.49C186.81 736.603 187.067 736.69 187.38 736.75C187.693 736.817 188.077 736.85 188.53 736.85C188.99 736.85 189.387 736.813 189.72 736.74C190.053 736.673 190.327 736.577 190.54 736.45C190.76 736.33 190.92 736.183 191.02 736.01C191.12 735.843 191.17 735.66 191.17 735.46ZM188.46 729.62C188.767 729.62 189.033 729.58 189.26 729.5C189.487 729.413 189.673 729.297 189.82 729.15C189.973 729.003 190.087 728.827 190.16 728.62C190.24 728.413 190.28 728.187 190.28 727.94C190.28 727.433 190.127 727.033 189.82 726.74C189.52 726.44 189.067 726.29 188.46 726.29C187.853 726.29 187.397 726.44 187.09 726.74C186.79 727.033 186.64 727.433 186.64 727.94C186.64 728.18 186.677 728.403 186.75 728.61C186.83 728.817 186.943 728.997 187.09 729.15C187.243 729.297 187.433 729.413 187.66 729.5C187.893 729.58 188.16 729.62 188.46 729.62ZM197.891 724.74V735H195.421V724.74H197.891ZM198.261 721.75C198.261 721.963 198.218 722.163 198.131 722.35C198.045 722.537 197.928 722.7 197.781 722.84C197.641 722.98 197.475 723.093 197.281 723.18C197.088 723.26 196.881 723.3 196.661 723.3C196.448 723.3 196.245 723.26 196.051 723.18C195.865 723.093 195.701 722.98 195.561 722.84C195.421 722.7 195.308 722.537 195.221 722.35C195.141 722.163 195.101 721.963 195.101 721.75C195.101 721.53 195.141 721.323 195.221 721.13C195.308 720.937 195.421 720.77 195.561 720.63C195.701 720.49 195.865 720.38 196.051 720.3C196.245 720.213 196.448 720.17 196.661 720.17C196.881 720.17 197.088 720.213 197.281 720.3C197.475 720.38 197.641 720.49 197.781 720.63C197.928 720.77 198.045 720.937 198.131 721.13C198.218 721.323 198.261 721.53 198.261 721.75ZM200.691 735V724.74H202.201C202.521 724.74 202.731 724.89 202.831 725.19L203.001 726C203.208 725.787 203.424 725.593 203.651 725.42C203.884 725.247 204.128 725.097 204.381 724.97C204.641 724.843 204.918 724.747 205.211 724.68C205.504 724.613 205.824 724.58 206.171 724.58C206.731 724.58 207.228 724.677 207.661 724.87C208.094 725.057 208.454 725.323 208.741 725.67C209.034 726.01 209.254 726.42 209.401 726.9C209.554 727.373 209.631 727.897 209.631 728.47V735H207.161V728.47C207.161 727.843 207.014 727.36 206.721 727.02C206.434 726.673 206.001 726.5 205.421 726.5C204.994 726.5 204.594 726.597 204.221 726.79C203.848 726.983 203.494 727.247 203.161 727.58V735H200.691Z" fill="#111111"/>
<path d="M39.2763 580.54H41.5363C41.7696 580.54 41.9629 580.597 42.1163 580.71C42.2763 580.817 42.3829 580.963 42.4363 581.15L44.8963 589.8C44.9563 590.013 45.0096 590.247 45.0563 590.5C45.1096 590.747 45.1596 591.01 45.2063 591.29C45.2596 591.01 45.3163 590.747 45.3763 590.5C45.4429 590.247 45.5129 590.013 45.5863 589.8L48.4263 581.15C48.4796 580.997 48.5829 580.857 48.7363 580.73C48.8963 580.603 49.0896 580.54 49.3163 580.54H50.1063C50.3396 580.54 50.5329 580.597 50.6862 580.71C50.8396 580.817 50.9463 580.963 51.0063 581.15L53.8263 589.8C53.9729 590.227 54.0996 590.7 54.2063 591.22C54.2529 590.96 54.2996 590.71 54.3463 590.47C54.3996 590.23 54.4529 590.007 54.5063 589.8L56.9663 581.15C57.0129 580.983 57.1163 580.84 57.2763 580.72C57.4363 580.6 57.6296 580.54 57.8563 580.54H59.9663L55.4763 595H53.0463L49.8863 585.12C49.8463 584.993 49.8029 584.857 49.7563 584.71C49.7163 584.563 49.6763 584.407 49.6363 584.24C49.5963 584.407 49.5529 584.563 49.5063 584.71C49.4663 584.857 49.4263 584.993 49.3863 585.12L46.1963 595H43.7663L39.2763 580.54ZM70.6738 580.54V582.68H64.2638V586.69H69.3138V588.76H64.2638V592.85H70.6738V595H61.5538V580.54H70.6738ZM75.6891 592.78H81.4791V595H72.9991V580.54H75.6891V592.78ZM92.4703 591.59C92.617 591.59 92.7436 591.647 92.8503 591.76L93.9103 592.91C93.3236 593.637 92.6003 594.193 91.7403 594.58C90.887 594.967 89.8603 595.16 88.6603 595.16C87.587 595.16 86.6203 594.977 85.7603 594.61C84.907 594.243 84.177 593.733 83.5703 593.08C82.9636 592.427 82.497 591.647 82.1703 590.74C81.8503 589.833 81.6903 588.843 81.6903 587.77C81.6903 586.683 81.8703 585.69 82.2303 584.79C82.5903 583.883 83.097 583.103 83.7503 582.45C84.4036 581.797 85.1836 581.29 86.0903 580.93C87.0036 580.563 88.0103 580.38 89.1103 580.38C90.1836 580.38 91.1203 580.553 91.9203 580.9C92.727 581.24 93.417 581.693 93.9903 582.26L93.0903 583.51C93.037 583.59 92.967 583.66 92.8803 583.72C92.8003 583.78 92.687 583.81 92.5403 583.81C92.387 583.81 92.2303 583.75 92.0703 583.63C91.9103 583.51 91.707 583.38 91.4603 583.24C91.2136 583.1 90.9003 582.97 90.5203 582.85C90.147 582.73 89.6703 582.67 89.0903 582.67C88.4103 582.67 87.7836 582.79 87.2103 583.03C86.6436 583.263 86.1536 583.6 85.7403 584.04C85.3336 584.48 85.0136 585.017 84.7803 585.65C84.5536 586.277 84.4403 586.983 84.4403 587.77C84.4403 588.583 84.5536 589.307 84.7803 589.94C85.0136 590.573 85.327 591.107 85.7203 591.54C86.1136 591.973 86.577 592.307 87.1103 592.54C87.6436 592.767 88.217 592.88 88.8303 592.88C89.197 592.88 89.527 592.86 89.8203 592.82C90.1203 592.78 90.3936 592.717 90.6403 592.63C90.8936 592.543 91.1303 592.433 91.3503 592.3C91.577 592.16 91.8003 591.99 92.0203 591.79C92.087 591.73 92.157 591.683 92.2303 591.65C92.3036 591.61 92.3836 591.59 92.4703 591.59ZM109.818 587.77C109.818 588.83 109.642 589.813 109.288 590.72C108.935 591.62 108.438 592.4 107.798 593.06C107.158 593.72 106.388 594.237 105.488 594.61C104.588 594.977 103.592 595.16 102.498 595.16C101.405 595.16 100.405 594.977 99.4983 594.61C98.5983 594.237 97.8249 593.72 97.1783 593.06C96.5383 592.4 96.0416 591.62 95.6883 590.72C95.3349 589.813 95.1583 588.83 95.1583 587.77C95.1583 586.71 95.3349 585.73 95.6883 584.83C96.0416 583.923 96.5383 583.14 97.1783 582.48C97.8249 581.82 98.5983 581.307 99.4983 580.94C100.405 580.567 101.405 580.38 102.498 580.38C103.592 580.38 104.588 580.567 105.488 580.94C106.388 581.313 107.158 581.83 107.798 582.49C108.438 583.143 108.935 583.923 109.288 584.83C109.642 585.73 109.818 586.71 109.818 587.77ZM107.058 587.77C107.058 586.977 106.952 586.267 106.738 585.64C106.532 585.007 106.232 584.47 105.838 584.03C105.445 583.59 104.965 583.253 104.398 583.02C103.838 582.787 103.205 582.67 102.498 582.67C101.792 582.67 101.155 582.787 100.588 583.02C100.022 583.253 99.5383 583.59 99.1383 584.03C98.7449 584.47 98.4416 585.007 98.2283 585.64C98.0149 586.267 97.9083 586.977 97.9083 587.77C97.9083 588.563 98.0149 589.277 98.2283 589.91C98.4416 590.537 98.7449 591.07 99.1383 591.51C99.5383 591.943 100.022 592.277 100.588 592.51C101.155 592.743 101.792 592.86 102.498 592.86C103.205 592.86 103.838 592.743 104.398 592.51C104.965 592.277 105.445 591.943 105.838 591.51C106.232 591.07 106.532 590.537 106.738 589.91C106.952 589.277 107.058 588.563 107.058 587.77ZM119.204 589C119.318 589.213 119.421 589.437 119.514 589.67C119.614 589.897 119.711 590.127 119.804 590.36C119.898 590.12 119.994 589.883 120.094 589.65C120.194 589.417 120.301 589.193 120.414 588.98L124.694 580.97C124.748 580.87 124.801 580.79 124.854 580.73C124.914 580.67 124.978 580.627 125.044 580.6C125.118 580.573 125.198 580.557 125.284 580.55C125.371 580.543 125.474 580.54 125.594 580.54H127.624V595H125.254V585.66C125.254 585.487 125.258 585.297 125.264 585.09C125.278 584.883 125.294 584.673 125.314 584.46L120.944 592.66C120.844 592.847 120.714 592.993 120.554 593.1C120.394 593.2 120.208 593.25 119.994 593.25H119.624C119.411 593.25 119.224 593.2 119.064 593.1C118.904 592.993 118.774 592.847 118.674 592.66L114.244 584.43C114.271 584.65 114.288 584.867 114.294 585.08C114.308 585.287 114.314 585.48 114.314 585.66V595H111.944V580.54H113.974C114.094 580.54 114.198 580.543 114.284 580.55C114.371 580.557 114.448 580.573 114.514 580.6C114.588 580.627 114.654 580.67 114.714 580.73C114.774 580.79 114.831 580.87 114.884 580.97L119.204 589ZM139.658 580.54V582.68H133.248V586.69H138.298V588.76H133.248V592.85H139.658V595H130.538V580.54H139.658ZM156.041 580.54V582.75H151.691V595H149.001V582.75H144.631V580.54H156.041ZM170.834 587.77C170.834 588.83 170.657 589.813 170.304 590.72C169.951 591.62 169.454 592.4 168.814 593.06C168.174 593.72 167.404 594.237 166.504 594.61C165.604 594.977 164.607 595.16 163.514 595.16C162.421 595.16 161.421 594.977 160.514 594.61C159.614 594.237 158.841 593.72 158.194 593.06C157.554 592.4 157.057 591.62 156.704 590.72C156.351 589.813 156.174 588.83 156.174 587.77C156.174 586.71 156.351 585.73 156.704 584.83C157.057 583.923 157.554 583.14 158.194 582.48C158.841 581.82 159.614 581.307 160.514 580.94C161.421 580.567 162.421 580.38 163.514 580.38C164.607 580.38 165.604 580.567 166.504 580.94C167.404 581.313 168.174 581.83 168.814 582.49C169.454 583.143 169.951 583.923 170.304 584.83C170.657 585.73 170.834 586.71 170.834 587.77ZM168.074 587.77C168.074 586.977 167.967 586.267 167.754 585.64C167.547 585.007 167.247 584.47 166.854 584.03C166.461 583.59 165.981 583.253 165.414 583.02C164.854 582.787 164.221 582.67 163.514 582.67C162.807 582.67 162.171 582.787 161.604 583.02C161.037 583.253 160.554 583.59 160.154 584.03C159.761 584.47 159.457 585.007 159.244 585.64C159.031 586.267 158.924 586.977 158.924 587.77C158.924 588.563 159.031 589.277 159.244 589.91C159.457 590.537 159.761 591.07 160.154 591.51C160.554 591.943 161.037 592.277 161.604 592.51C162.171 592.743 162.807 592.86 163.514 592.86C164.221 592.86 164.854 592.743 165.414 592.51C165.981 592.277 166.461 591.943 166.854 591.51C167.247 591.07 167.547 590.537 167.754 589.91C167.967 589.277 168.074 588.563 168.074 587.77ZM187.017 580.54V582.75H182.667V595H179.977V582.75H175.607V580.54H187.017ZM200.922 595H198.212V588.68H191.432V595H188.722V580.54H191.432V586.76H198.212V580.54H200.922V595ZM212.959 580.54V582.68H206.549V586.69H211.599V588.76H206.549V592.85H212.959V595H203.839V580.54H212.959ZM231.991 587.77C231.991 588.83 231.815 589.803 231.461 590.69C231.108 591.577 230.611 592.34 229.971 592.98C229.331 593.62 228.561 594.117 227.661 594.47C226.761 594.823 225.765 595 224.671 595H219.151V580.54H224.671C225.765 580.54 226.761 580.72 227.661 581.08C228.561 581.433 229.331 581.93 229.971 582.57C230.611 583.203 231.108 583.963 231.461 584.85C231.815 585.737 231.991 586.71 231.991 587.77ZM229.241 587.77C229.241 586.977 229.135 586.267 228.921 585.64C228.708 585.007 228.405 584.473 228.011 584.04C227.618 583.6 227.138 583.263 226.571 583.03C226.011 582.797 225.378 582.68 224.671 582.68H221.861V592.86H224.671C225.378 592.86 226.011 592.743 226.571 592.51C227.138 592.277 227.618 591.943 228.011 591.51C228.405 591.07 228.708 590.537 228.921 589.91C229.135 589.277 229.241 588.563 229.241 587.77ZM236.873 589.35V595H234.183V580.54H238.593C239.579 580.54 240.423 580.643 241.123 580.85C241.829 581.05 242.406 581.333 242.853 581.7C243.306 582.067 243.636 582.507 243.843 583.02C244.056 583.527 244.163 584.087 244.163 584.7C244.163 585.187 244.089 585.647 243.943 586.08C243.803 586.513 243.596 586.907 243.323 587.26C243.056 587.613 242.723 587.923 242.323 588.19C241.929 588.457 241.479 588.67 240.973 588.83C241.313 589.023 241.606 589.3 241.853 589.66L245.473 595H243.053C242.819 595 242.619 594.953 242.453 594.86C242.293 594.767 242.156 594.633 242.043 594.46L239.003 589.83C238.889 589.657 238.763 589.533 238.623 589.46C238.489 589.387 238.289 589.35 238.023 589.35H236.873ZM236.873 587.42H238.553C239.059 587.42 239.499 587.357 239.873 587.23C240.253 587.103 240.563 586.93 240.803 586.71C241.049 586.483 241.233 586.217 241.353 585.91C241.473 585.603 241.533 585.267 241.533 584.9C241.533 584.167 241.289 583.603 240.803 583.21C240.323 582.817 239.586 582.62 238.593 582.62H236.873V587.42ZM250.228 595H247.528V580.54H250.228V595ZM252.067 580.54H254.237C254.471 580.54 254.661 580.597 254.807 580.71C254.954 580.823 255.064 580.97 255.137 581.15L258.537 589.97C258.651 590.257 258.757 590.573 258.857 590.92C258.964 591.26 259.064 591.62 259.157 592C259.311 591.233 259.501 590.557 259.727 589.97L263.117 581.15C263.177 580.997 263.284 580.857 263.437 580.73C263.591 580.603 263.781 580.54 264.007 580.54H266.177L260.337 595H257.907L252.067 580.54ZM276.807 580.54V582.68H270.397V586.69H275.447V588.76H270.397V592.85H276.807V595H267.687V580.54H276.807ZM281.912 589.35V595H279.222V580.54H283.632C284.619 580.54 285.462 580.643 286.162 580.85C286.869 581.05 287.445 581.333 287.892 581.7C288.345 582.067 288.675 582.507 288.882 583.02C289.095 583.527 289.202 584.087 289.202 584.7C289.202 585.187 289.129 585.647 288.982 586.08C288.842 586.513 288.635 586.907 288.362 587.26C288.095 587.613 287.762 587.923 287.362 588.19C286.969 588.457 286.519 588.67 286.012 588.83C286.352 589.023 286.645 589.3 286.892 589.66L290.512 595H288.092C287.859 595 287.659 594.953 287.492 594.86C287.332 594.767 287.195 594.633 287.082 594.46L284.042 589.83C283.929 589.657 283.802 589.533 283.662 589.46C283.529 589.387 283.329 589.35 283.062 589.35H281.912ZM281.912 587.42H283.592C284.099 587.42 284.539 587.357 284.912 587.23C285.292 587.103 285.602 586.93 285.842 586.71C286.089 586.483 286.272 586.217 286.392 585.91C286.512 585.603 286.572 585.267 286.572 584.9C286.572 584.167 286.329 583.603 285.842 583.21C285.362 582.817 284.625 582.62 283.632 582.62H281.912V587.42ZM308.815 595H306.735C306.501 595 306.308 594.943 306.155 594.83C306.008 594.71 305.901 594.563 305.835 594.39L304.755 591.44H298.765L297.685 594.39C297.631 594.543 297.525 594.683 297.365 594.81C297.211 594.937 297.021 595 296.795 595H294.705L300.385 580.54H303.135L308.815 595ZM299.455 589.54H304.065L302.305 584.73C302.225 584.517 302.135 584.267 302.035 583.98C301.941 583.687 301.848 583.37 301.755 583.03C301.661 583.37 301.568 583.687 301.475 583.98C301.388 584.273 301.301 584.53 301.215 584.75L299.455 589.54ZM313.084 589.91V595H310.394V580.54H315.104C316.07 580.54 316.907 580.653 317.614 580.88C318.32 581.107 318.904 581.423 319.364 581.83C319.824 582.237 320.164 582.723 320.384 583.29C320.604 583.857 320.714 584.477 320.714 585.15C320.714 585.85 320.597 586.493 320.364 587.08C320.13 587.66 319.78 588.16 319.314 588.58C318.847 589 318.264 589.327 317.564 589.56C316.864 589.793 316.044 589.91 315.104 589.91H313.084ZM313.084 587.81H315.104C315.597 587.81 316.027 587.75 316.394 587.63C316.76 587.503 317.064 587.327 317.304 587.1C317.544 586.867 317.724 586.587 317.844 586.26C317.964 585.927 318.024 585.557 318.024 585.15C318.024 584.763 317.964 584.413 317.844 584.1C317.724 583.787 317.544 583.52 317.304 583.3C317.064 583.08 316.76 582.913 316.394 582.8C316.027 582.68 315.597 582.62 315.104 582.62H313.084V587.81ZM325.584 589.91V595H322.894V580.54H327.604C328.57 580.54 329.407 580.653 330.114 580.88C330.82 581.107 331.404 581.423 331.864 581.83C332.324 582.237 332.664 582.723 332.884 583.29C333.104 583.857 333.214 584.477 333.214 585.15C333.214 585.85 333.097 586.493 332.864 587.08C332.63 587.66 332.28 588.16 331.814 588.58C331.347 589 330.764 589.327 330.064 589.56C329.364 589.793 328.544 589.91 327.604 589.91H325.584ZM325.584 587.81H327.604C328.097 587.81 328.527 587.75 328.894 587.63C329.26 587.503 329.564 587.327 329.804 587.1C330.044 586.867 330.224 586.587 330.344 586.26C330.464 585.927 330.524 585.557 330.524 585.15C330.524 584.763 330.464 584.413 330.344 584.1C330.224 583.787 330.044 583.52 329.804 583.3C329.564 583.08 329.26 582.913 328.894 582.8C328.527 582.68 328.097 582.62 327.604 582.62H325.584V587.81Z" fill="#111111"/>
<path d="M92.2334 0.0204082H292.233C292.233 0.0204082 289.733 -0.979591 289.506 11.0204C289.279 23.0204 283.808 28.0204 276.779 28.0204H107.688C100.659 28.0204 95.1879 23.0204 94.9607 11.0204C94.7334 -0.979591 92.2334 0.0204082 92.2334 0.0204082Z" fill="#DDDDDD"/>
<g opacity="0.1">
<path fill-rule="evenodd" clip-rule="evenodd" d="M338.906 13H352.269C352.835 13 353.379 13.2251 353.78 13.6259C354.18 14.0267 354.406 14.5702 354.406 15.137V19.946C354.406 20.5128 354.18 21.0563 353.78 21.4571C353.379 21.8579 352.835 22.083 352.269 22.083H338.906C338.339 22.083 337.795 21.8579 337.394 21.4571C336.994 21.0563 336.769 20.5128 336.769 19.946V15.137C336.769 14.5702 336.994 14.0267 337.394 13.6259C337.795 13.2251 338.339 13 338.906 13Z" fill="black"/>
</g>
<path d="M355.202 15.939V19.145C355.517 19.0124 355.786 18.7899 355.975 18.5053C356.164 18.2208 356.266 17.8868 356.266 17.545C356.267 17.2023 356.166 16.867 355.977 16.5812C355.788 16.2955 355.518 16.0721 355.202 15.939" fill="#111111"/>
<path d="M339.44 14.603H351.73C352.014 14.603 352.286 14.7157 352.486 14.9161C352.686 15.1166 352.799 15.3885 352.799 15.672V19.412C352.799 19.6955 352.686 19.9674 352.486 20.1679C352.286 20.3684 352.014 20.481 351.73 20.481H339.44C339.157 20.481 338.885 20.3684 338.684 20.1679C338.484 19.9674 338.371 19.6955 338.371 19.412V15.67C338.372 15.3869 338.484 15.1155 338.685 14.9154C338.885 14.7154 339.157 14.603 339.44 14.603V14.603Z" fill="#111111"/>
<path d="M326.21 14.8221C327.986 14.8221 329.694 15.5045 330.981 16.7281C331.027 16.7737 331.089 16.7993 331.154 16.7993C331.219 16.7993 331.282 16.7737 331.328 16.7281L332.255 15.7931C332.279 15.769 332.298 15.7404 332.311 15.709C332.323 15.6776 332.33 15.644 332.33 15.6101C332.33 15.5761 332.323 15.5426 332.309 15.5114C332.296 15.4802 332.277 15.4518 332.253 15.4281C330.627 13.8699 328.462 13 326.21 13C323.958 13 321.793 13.8699 320.167 15.4281C320.143 15.4518 320.123 15.4802 320.11 15.5114C320.097 15.5426 320.09 15.5761 320.09 15.6101C320.09 15.644 320.096 15.6776 320.109 15.709C320.122 15.7404 320.141 15.769 320.165 15.7931L321.092 16.7281C321.138 16.7737 321.2 16.7993 321.265 16.7993C321.33 16.7993 321.393 16.7737 321.439 16.7281C322.726 15.5042 324.435 14.8219 326.211 14.8221H326.21ZM326.21 17.8641C327.186 17.8641 328.127 18.227 328.85 18.8821C328.896 18.9272 328.959 18.9525 329.023 18.9525C329.088 18.9525 329.15 18.9272 329.197 18.8821L330.122 17.9471C330.146 17.9227 330.165 17.8939 330.178 17.8621C330.191 17.8303 330.197 17.7963 330.197 17.7621C330.196 17.7278 330.189 17.694 330.176 17.6626C330.162 17.6312 330.142 17.6028 330.118 17.5791C329.056 16.5915 327.66 16.0425 326.21 16.0425C324.76 16.0425 323.364 16.5915 322.302 17.5791C322.277 17.6028 322.258 17.6312 322.244 17.6626C322.23 17.694 322.223 17.7278 322.223 17.7621C322.222 17.7963 322.229 17.8303 322.242 17.8621C322.255 17.8939 322.274 17.9227 322.298 17.9471L323.223 18.8821C323.269 18.9272 323.332 18.9525 323.396 18.9525C323.461 18.9525 323.523 18.9272 323.57 18.8821C324.293 18.2274 325.233 17.8646 326.208 17.8641H326.21ZM327.989 20.0961C328.013 20.072 328.033 20.0432 328.046 20.0113C328.058 19.9795 328.065 19.9454 328.064 19.9111C328.063 19.8767 328.055 19.8428 328.041 19.8115C328.027 19.7802 328.006 19.7521 327.981 19.7291C327.486 19.3102 326.858 19.0804 326.21 19.0804C325.561 19.0804 324.934 19.3102 324.439 19.7291C324.413 19.752 324.393 19.7798 324.379 19.811C324.364 19.8421 324.357 19.8758 324.356 19.9101C324.355 19.9444 324.361 19.9785 324.374 20.0103C324.387 20.0422 324.406 20.071 324.431 20.0951L326.031 21.7111C326.054 21.7346 326.082 21.7532 326.112 21.7659C326.143 21.7786 326.176 21.7851 326.209 21.7851C326.242 21.7851 326.275 21.7786 326.305 21.7659C326.336 21.7532 326.364 21.7346 326.387 21.7111L327.989 20.0961Z" fill="#111111"/>
<path d="M22.0274 18.472C21.7034 18.472 21.3954 18.418 21.1034 18.31C20.8154 18.202 20.5614 18.044 20.3414 17.836C20.1214 17.624 19.9454 17.366 19.8134 17.062C19.6854 16.754 19.6214 16.402 19.6214 16.006C19.6214 15.63 19.6914 15.278 19.8314 14.95C19.9714 14.622 20.1674 14.336 20.4194 14.092C20.6714 13.848 20.9714 13.656 21.3194 13.516C21.6674 13.376 22.0494 13.306 22.4654 13.306C22.8774 13.306 23.2514 13.374 23.5874 13.51C23.9234 13.646 24.2114 13.836 24.4514 14.08C24.6914 14.324 24.8754 14.616 25.0034 14.956C25.1354 15.296 25.2014 15.672 25.2014 16.084C25.2014 16.332 25.1774 16.568 25.1294 16.792C25.0854 17.012 25.0194 17.228 24.9314 17.44C24.8434 17.652 24.7374 17.864 24.6134 18.076C24.4934 18.284 24.3554 18.5 24.1994 18.724L22.1054 21.748C22.0534 21.824 21.9794 21.886 21.8834 21.934C21.7874 21.978 21.6774 22 21.5534 22H20.5694L23.1854 18.574C23.2734 18.458 23.3554 18.348 23.4314 18.244C23.5074 18.14 23.5794 18.036 23.6474 17.932C23.4274 18.108 23.1794 18.242 22.9034 18.334C22.6274 18.426 22.3354 18.472 22.0274 18.472ZM24.1754 15.958C24.1754 15.69 24.1314 15.448 24.0434 15.232C23.9594 15.012 23.8414 14.826 23.6894 14.674C23.5374 14.522 23.3554 14.406 23.1434 14.326C22.9354 14.242 22.7054 14.2 22.4534 14.2C22.1894 14.2 21.9474 14.244 21.7274 14.332C21.5114 14.416 21.3254 14.534 21.1694 14.686C21.0174 14.838 20.8994 15.02 20.8154 15.232C20.7314 15.444 20.6894 15.676 20.6894 15.928C20.6894 16.2 20.7274 16.444 20.8034 16.66C20.8834 16.872 20.9954 17.052 21.1394 17.2C21.2874 17.348 21.4654 17.46 21.6734 17.536C21.8854 17.612 22.1214 17.65 22.3814 17.65C22.6694 17.65 22.9234 17.604 23.1434 17.512C23.3674 17.416 23.5554 17.29 23.7074 17.134C23.8594 16.978 23.9754 16.798 24.0554 16.594C24.1354 16.39 24.1754 16.178 24.1754 15.958ZM26.4623 21.34C26.4623 21.236 26.4803 21.138 26.5163 21.046C26.5563 20.954 26.6083 20.874 26.6723 20.806C26.7403 20.738 26.8203 20.684 26.9123 20.644C27.0043 20.604 27.1023 20.584 27.2063 20.584C27.3103 20.584 27.4083 20.604 27.5003 20.644C27.5923 20.684 27.6723 20.738 27.7403 20.806C27.8083 20.874 27.8603 20.954 27.8963 21.046C27.9363 21.138 27.9563 21.236 27.9563 21.34C27.9563 21.448 27.9363 21.548 27.8963 21.64C27.8603 21.728 27.8083 21.806 27.7403 21.874C27.6723 21.942 27.5923 21.994 27.5003 22.03C27.4083 22.07 27.3103 22.09 27.2063 22.09C27.1023 22.09 27.0043 22.07 26.9123 22.03C26.8203 21.994 26.7403 21.942 26.6723 21.874C26.6083 21.806 26.5563 21.728 26.5163 21.64C26.4803 21.548 26.4623 21.448 26.4623 21.34ZM26.4623 16.84C26.4623 16.736 26.4803 16.638 26.5163 16.546C26.5563 16.454 26.6083 16.374 26.6723 16.306C26.7403 16.238 26.8203 16.184 26.9123 16.144C27.0043 16.104 27.1023 16.084 27.2063 16.084C27.3103 16.084 27.4083 16.104 27.5003 16.144C27.5923 16.184 27.6723 16.238 27.7403 16.306C27.8083 16.374 27.8603 16.454 27.8963 16.546C27.9363 16.638 27.9563 16.736 27.9563 16.84C27.9563 16.948 27.9363 17.048 27.8963 17.14C27.8603 17.228 27.8083 17.306 27.7403 17.374C27.6723 17.442 27.5923 17.496 27.5003 17.536C27.4083 17.572 27.3103 17.59 27.2063 17.59C27.1023 17.59 27.0043 17.572 26.9123 17.536C26.8203 17.496 26.7403 17.442 26.6723 17.374C26.6083 17.306 26.5563 17.228 26.5163 17.14C26.4803 17.048 26.4623 16.948 26.4623 16.84ZM34.1358 18.898H35.4378V19.51C35.4378 19.574 35.4178 19.628 35.3778 19.672C35.3418 19.716 35.2838 19.738 35.2038 19.738H34.1358V22H33.1938V19.738H29.3838C29.3038 19.738 29.2338 19.716 29.1738 19.672C29.1178 19.624 29.0818 19.566 29.0658 19.498L28.9578 18.952L33.1398 13.402H34.1358V18.898ZM33.1938 15.352C33.1938 15.248 33.1958 15.136 33.1998 15.016C33.2078 14.896 33.2218 14.772 33.2418 14.644L30.1158 18.898H33.1938V15.352ZM37.4007 21.184H39.2487V15.322C39.2487 15.146 39.2547 14.968 39.2667 14.788L37.7307 16.102C37.6907 16.134 37.6507 16.158 37.6107 16.174C37.5707 16.186 37.5327 16.192 37.4967 16.192C37.4367 16.192 37.3827 16.18 37.3347 16.156C37.2867 16.128 37.2507 16.096 37.2267 16.06L36.8907 15.598L39.4467 13.384H40.3167V21.184H42.0087V22H37.4007V21.184Z" fill="#111111"/>
<path d="M303.236 18.34H304.036C304.248 18.34 304.451 18.4243 304.601 18.5743C304.751 18.7243 304.836 18.9278 304.836 19.14V20.74C304.836 20.9522 304.751 21.1557 304.601 21.3057C304.451 21.4557 304.248 21.54 304.036 21.54H303.236C303.023 21.54 302.82 21.4557 302.67 21.3057C302.52 21.1557 302.436 20.9522 302.436 20.74V19.14C302.436 18.9278 302.52 18.7243 302.67 18.5743C302.82 18.4243 303.023 18.34 303.236 18.34V18.34ZM306.976 16.74H307.776C307.988 16.74 308.191 16.8243 308.341 16.9743C308.491 17.1243 308.576 17.3278 308.576 17.54V20.746C308.576 20.8511 308.555 20.9551 308.515 21.0521C308.474 21.1492 308.416 21.2374 308.341 21.3117C308.267 21.386 308.179 21.4449 308.082 21.4851C307.985 21.5253 307.881 21.546 307.776 21.546H306.976C306.87 21.546 306.766 21.5253 306.669 21.4851C306.572 21.4449 306.484 21.386 306.41 21.3117C306.336 21.2374 306.277 21.1492 306.236 21.0521C306.196 20.9551 306.176 20.8511 306.176 20.746V17.54C306.175 17.4347 306.196 17.3303 306.236 17.2329C306.276 17.1355 306.334 17.047 306.409 16.9724C306.483 16.8978 306.571 16.8386 306.669 16.7982C306.766 16.7578 306.87 16.737 306.976 16.737V16.74ZM310.716 14.87H311.516C311.621 14.87 311.725 14.8907 311.822 14.9309C311.919 14.9711 312.007 15.03 312.081 15.1043C312.156 15.1786 312.214 15.2668 312.255 15.3639C312.295 15.4609 312.316 15.5649 312.316 15.67V20.746C312.316 20.8511 312.295 20.9551 312.255 21.0521C312.214 21.1492 312.156 21.2374 312.081 21.3117C312.007 21.386 311.919 21.4449 311.822 21.4851C311.725 21.5253 311.621 21.546 311.516 21.546H310.716C310.61 21.546 310.506 21.5253 310.409 21.4851C310.312 21.4449 310.224 21.386 310.15 21.3117C310.076 21.2374 310.017 21.1492 309.976 21.0521C309.936 20.9551 309.916 20.8511 309.916 20.746V15.67C309.915 15.5646 309.936 15.4602 309.976 15.3627C310.016 15.2652 310.075 15.1766 310.149 15.102C310.224 15.0274 310.312 14.9682 310.409 14.9279C310.507 14.8876 310.611 14.8669 310.717 14.867L310.716 14.87ZM314.456 13H315.256C315.468 13 315.671 13.0843 315.821 13.2343C315.971 13.3843 316.056 13.5878 316.056 13.8V20.746C316.056 20.9582 315.971 21.1617 315.821 21.3117C315.671 21.4617 315.468 21.546 315.256 21.546H314.456C314.35 21.546 314.246 21.5253 314.149 21.4851C314.052 21.4449 313.964 21.386 313.89 21.3117C313.816 21.2374 313.757 21.1492 313.716 21.0521C313.676 20.9551 313.656 20.8511 313.656 20.746V13.8C313.656 13.6949 313.676 13.5909 313.716 13.4939C313.757 13.3968 313.816 13.3086 313.89 13.2343C313.964 13.16 314.052 13.1011 314.149 13.0609C314.246 13.0207 314.35 13 314.456 13V13Z" fill="#111111"/>
<path d="M352.799 484.195H17.7881V484.396H352.799V484.195Z" fill="#EBEBEB"/>
<path d="M176.584 454.312H47.2029C45.1258 454.312 43.3838 452.57 43.3838 450.493V268.649C43.3838 266.572 45.1258 264.83 47.2029 264.83H176.584C178.661 264.83 180.403 266.572 180.403 268.649V450.493C180.403 452.637 178.728 454.312 176.584 454.312ZM47.2029 265.031C45.1928 265.031 43.5178 266.639 43.5178 268.716V450.56C43.5178 452.57 45.1258 454.245 47.2029 454.245H176.584C178.594 454.245 180.269 452.637 180.269 450.56V268.649C180.269 266.639 178.661 264.964 176.584 264.964H47.2029V265.031Z" fill="#EBEBEB"/>
<path d="M321.509 454.312H192.128C190.051 454.312 188.309 452.57 188.309 450.493V268.649C188.309 266.572 190.051 264.83 192.128 264.83H321.509C323.586 264.83 325.328 266.572 325.328 268.649V450.493C325.328 452.637 323.653 454.312 321.509 454.312ZM192.128 265.031C190.118 265.031 188.443 266.639 188.443 268.716V450.56C188.443 452.57 190.051 454.245 192.128 454.245H321.509C323.519 454.245 325.194 452.637 325.194 450.56V268.649C325.194 266.639 323.586 264.964 321.509 264.964H192.128V265.031Z" fill="#EBEBEB"/>
<path d="M319.231 494.983H301.811V495.184H319.231V494.983Z" fill="#EBEBEB"/>
<path d="M256.316 496.859H226.165V497.06H256.316V496.859Z" fill="#EBEBEB"/>
<path d="M301.14 488.818H260.402V489.019H301.14V488.818Z" fill="#EBEBEB"/>
<path d="M65.8283 489.89H52.9639V490.091H65.8283V489.89Z" fill="#EBEBEB"/>
<path d="M108.843 489.89H71.791V490.091H108.843V489.89Z" fill="#EBEBEB"/>
<path d="M181.407 492.771H131.49V492.972H181.407V492.771Z" fill="#EBEBEB"/>
<path d="M62.9476 435.083H48.7432V484.262H62.9476V435.083Z" fill="#FAFAFA"/>
<path d="M75.4095 445.87H61.2051V484.262H75.4095V445.87Z" fill="#FAFAFA"/>
<path d="M84.5228 414.245H70.3184V484.262H84.5228V414.245Z" fill="#FAFAFA"/>
<path d="M93.9701 357.494H79.7656V484.262H93.9701V357.494Z" fill="#FAFAFA"/>
<path d="M129.078 367.343H90.9541V484.262H129.078V367.343Z" fill="#FAFAFA"/>
<path d="M277.267 484.244H293.481V450.608H277.267V484.244Z" fill="#FAFAFA"/>
<path d="M263.045 484.254H279.26V457.989H263.045V484.254Z" fill="#FAFAFA"/>
<path d="M252.674 484.249H268.889V436.343H252.674V484.249Z" fill="#FAFAFA"/>
<path d="M241.89 484.197H258.104V397.429H241.89V484.197Z" fill="#FAFAFA"/>
<path d="M250.62 378.265H200.838V484.262H250.62V378.265Z" fill="#F0F0F0"/>
<path d="M245.863 382.687H243.518V395.618H245.863V382.687Z" fill="#F5F5F5"/>
<path d="M245.863 402.855H243.518V415.786H245.863V402.855Z" fill="#F5F5F5"/>
<path d="M245.863 423.022H243.518V435.954H245.863V423.022Z" fill="#F5F5F5"/>
<path d="M245.863 443.19H243.518V456.121H245.863V443.19Z" fill="#F5F5F5"/>
<path d="M245.863 463.358H243.518V476.289H245.863V463.358Z" fill="#F5F5F5"/>
<path d="M237.42 382.687H235.075V395.618H237.42V382.687Z" fill="#F5F5F5"/>
<path d="M237.42 402.855H235.075V415.786H237.42V402.855Z" fill="#F5F5F5"/>
<path d="M237.42 423.022H235.075V435.954H237.42V423.022Z" fill="#F5F5F5"/>
<path d="M237.42 443.19H235.075V456.121H237.42V443.19Z" fill="#F5F5F5"/>
<path d="M237.42 463.358H235.075V476.289H237.42V463.358Z" fill="#F5F5F5"/>
<path d="M229.044 382.687H226.699V395.618H229.044V382.687Z" fill="#F5F5F5"/>
<path d="M229.044 402.855H226.699V415.786H229.044V402.855Z" fill="#F5F5F5"/>
<path d="M229.044 423.022H226.699V435.954H229.044V423.022Z" fill="#F5F5F5"/>
<path d="M229.044 443.19H226.699V456.121H229.044V443.19Z" fill="#F5F5F5"/>
<path d="M229.044 463.358H226.699V476.289H229.044V463.358Z" fill="#F5F5F5"/>
<path d="M220.669 382.687H218.324V395.618H220.669V382.687Z" fill="#F5F5F5"/>
<path d="M220.669 402.855H218.324V415.786H220.669V402.855Z" fill="#F5F5F5"/>
<path d="M220.669 423.022H218.324V435.954H220.669V423.022Z" fill="#F5F5F5"/>
<path d="M220.669 443.19H218.324V456.121H220.669V443.19Z" fill="#F5F5F5"/>
<path d="M220.669 463.358H218.324V476.289H220.669V463.358Z" fill="#F5F5F5"/>
<path d="M212.227 382.687H209.882V395.618H212.227V382.687Z" fill="#F5F5F5"/>
<path d="M212.227 402.855H209.882V415.786H212.227V402.855Z" fill="#F5F5F5"/>
<path d="M212.227 423.022H209.882V435.954H212.227V423.022Z" fill="#F5F5F5"/>
<path d="M212.227 443.19H209.882V456.121H212.227V443.19Z" fill="#F5F5F5"/>
<path d="M212.227 463.358H209.882V476.289H212.227V463.358Z" fill="#F5F5F5"/>
<path opacity="0.5" d="M200.838 378.265H211.089L215.511 484.195H200.838V378.265Z" fill="#E0E0E0"/>
<path d="M176.313 337.26L205.861 342.888V484.195H176.313V337.26Z" fill="#F0F0F0"/>
<path d="M176.382 337.26H152.73V484.195H176.382V337.26Z" fill="#E6E6E6"/>
<path d="M152.711 350.219H205.844V349.482H152.711V350.219Z" fill="#E0E0E0"/>
<path d="M152.711 358.18H205.844V357.443H152.711V358.18Z" fill="#E0E0E0"/>
<path d="M152.711 366.209H205.844V365.472H152.711V366.209Z" fill="#E0E0E0"/>
<path d="M152.711 374.237H205.844V373.5H152.711V374.237Z" fill="#E0E0E0"/>
<path d="M152.711 382.199H205.844V381.462H152.711V382.199Z" fill="#E0E0E0"/>
<path d="M152.711 390.227H205.844V389.49H152.711V390.227Z" fill="#E0E0E0"/>
<path d="M152.711 398.189H205.844V397.452H152.711V398.189Z" fill="#E0E0E0"/>
<path d="M152.711 406.217H205.844V405.48H152.711V406.217Z" fill="#E0E0E0"/>
<path d="M152.711 414.246H205.844V413.509H152.711V414.246Z" fill="#E0E0E0"/>
<path d="M152.711 422.207H205.844V421.47H152.711V422.207Z" fill="#E0E0E0"/>
<path d="M152.711 430.236H205.844V429.499H152.711V430.236Z" fill="#E0E0E0"/>
<path d="M152.711 438.197H205.844V437.46H152.711V438.197Z" fill="#E0E0E0"/>
<path d="M152.711 446.226H205.844V445.489H152.711V446.226Z" fill="#E0E0E0"/>
<path d="M152.711 454.255H205.844V453.517H152.711V454.255Z" fill="#E0E0E0"/>
<path d="M152.711 462.216H205.844V461.479H152.711V462.216Z" fill="#E0E0E0"/>
<path d="M152.711 470.245H205.844V469.508H152.711V470.245Z" fill="#E0E0E0"/>
<path d="M152.711 478.206H205.844V477.469H152.711V478.206Z" fill="#E0E0E0"/>
<path d="M139.799 306.037H115.075V484.195H139.799V306.037Z" fill="#F0F0F0"/>
<path d="M139.799 306.037H115.075L124.187 290.291H159.565L139.799 306.037Z" fill="#FAFAFA"/>
<path d="M139.8 306.037L159.565 290.291V484.195H139.8V306.037Z" fill="#EBEBEB"/>
<path d="M159.565 314.345H115.075V315.283H159.565V314.345Z" fill="#E0E0E0"/>
<path d="M159.565 324.462H115.075V325.4H159.565V324.462Z" fill="#E0E0E0"/>
<path d="M159.565 334.512H115.075V335.45H159.565V334.512Z" fill="#E0E0E0"/>
<path d="M159.565 344.63H115.075V345.568H159.565V344.63Z" fill="#E0E0E0"/>
<path d="M159.565 354.68H115.075V355.618H159.565V354.68Z" fill="#E0E0E0"/>
<path d="M159.565 364.797H115.075V365.735H159.565V364.797Z" fill="#E0E0E0"/>
<path d="M159.565 374.848H115.075V375.786H159.565V374.848Z" fill="#E0E0E0"/>
<path d="M159.565 384.965H115.075V385.903H159.565V384.965Z" fill="#E0E0E0"/>
<path d="M159.565 395.015H115.075V395.953H159.565V395.015Z" fill="#E0E0E0"/>
<path d="M159.565 405.133H115.075V406.071H159.565V405.133Z" fill="#E0E0E0"/>
<path d="M159.565 415.183H115.075V416.121H159.565V415.183Z" fill="#E0E0E0"/>
<path d="M159.565 425.3H115.075V426.238H159.565V425.3Z" fill="#E0E0E0"/>
<path d="M159.565 435.351H115.075V436.289H159.565V435.351Z" fill="#E0E0E0"/>
<path d="M159.565 445.468H115.075V446.406H159.565V445.468Z" fill="#E0E0E0"/>
<path d="M159.565 455.518H115.075V456.456H159.565V455.518Z" fill="#E0E0E0"/>
<path d="M159.565 465.636H115.075V466.574H159.565V465.636Z" fill="#E0E0E0"/>
<path d="M159.565 475.686H115.075V476.624H159.565V475.686Z" fill="#E0E0E0"/>
<path d="M110.719 392.268H83.7842V484.195H110.719V392.268Z" fill="#F0F0F0"/>
<path d="M93.4987 397.025H89.1436V411.766H93.4987V397.025Z" fill="#E6E6E6"/>
<path d="M104.086 397.025H99.7305V411.766H104.086V397.025Z" fill="#E6E6E6"/>
<path d="M93.4987 416.121H89.1436V430.862H93.4987V416.121Z" fill="#E6E6E6"/>
<path d="M104.086 416.121H99.7305V430.862H104.086V416.121Z" fill="#E6E6E6"/>
<path d="M93.4987 435.217H89.1436V449.957H93.4987V435.217Z" fill="#E6E6E6"/>
<path d="M104.086 435.217H99.7305V449.957H104.086V435.217Z" fill="#E6E6E6"/>
<path d="M93.4987 454.379H89.1436V469.12H93.4987V454.379Z" fill="#E6E6E6"/>
<path d="M104.086 454.379H99.7305V469.12H104.086V454.379Z" fill="#E6E6E6"/>
<path d="M110.788 392.268H83.7861L90.1513 385.903H117.086L110.788 392.268Z" fill="white"/>
<path d="M110.786 392.268L117.084 385.903L123.45 392.268V484.195H110.786V392.268Z" fill="#E6E6E6"/>
<path d="M185.293 514.48C257.044 514.48 315.21 511.09 315.21 506.909C315.21 502.727 257.044 499.338 185.293 499.338C113.542 499.338 55.376 502.727 55.376 506.909C55.376 511.09 113.542 514.48 185.293 514.48Z" fill="#F5F5F5"/>
<path d="M211.693 304.763H297.121C300.538 304.763 303.352 307.578 303.352 310.995V500.678C303.352 504.095 300.538 506.909 297.121 506.909H211.693C208.276 506.909 205.462 504.095 205.462 500.678V310.995C205.462 307.578 208.276 304.763 211.693 304.763Z" fill="#D7DF23"/>
<path d="M207.806 304.763H293.234C296.651 304.763 299.465 307.578 299.465 310.995V500.678C299.465 504.095 296.651 506.909 293.234 506.909H207.806C204.389 506.909 201.575 504.095 201.575 500.678V310.995C201.642 307.578 204.389 304.763 207.806 304.763Z" fill="#C8C8C8"/>
<path opacity="0.7" d="M207.806 304.763H293.234C296.651 304.763 299.465 307.578 299.465 310.995V500.678C299.465 504.095 296.651 506.909 293.234 506.909H207.806C204.389 506.909 201.575 504.095 201.575 500.678V310.995C201.642 307.578 204.389 304.763 207.806 304.763Z" fill="white"/>
<g opacity="0.9">
<path opacity="0.9" d="M221.273 304.763H215.979V506.909H221.273V304.763Z" fill="white"/>
<path opacity="0.9" d="M277.354 304.763H274.071V506.909H277.354V304.763Z" fill="white"/>
<path opacity="0.9" d="M201.643 348.717V354.01L299.533 347.913V342.62L201.643 348.717Z" fill="white"/>
<path opacity="0.9" d="M201.601 473.863V479.156H299.491V473.863H201.601Z" fill="white"/>
<path opacity="0.9" d="M201.59 375.113V377.994H299.48V375.113H201.59Z" fill="white"/>
<path opacity="0.9" d="M201.643 443.458V449.555L299.533 416.389V410.359L201.643 443.458Z" fill="white"/>
<path opacity="0.9" d="M235.947 304.763H230.654L244.859 506.909H250.152L235.947 304.763Z" fill="white"/>
</g>
<path d="M282.448 486.138H165.864V449.823H268.579L278.16 457.595C280.84 459.739 282.381 463.023 282.381 466.44V486.138H282.448Z" fill="#D7DF23"/>
<path opacity="0.5" d="M282.448 486.138H165.864V449.823H268.579L278.16 457.595C280.84 459.739 282.381 463.023 282.381 466.44V486.138H282.448Z" fill="black"/>
<path d="M165.193 482.922C165.193 469.656 171.224 458.935 178.594 458.935H164.322C156.885 458.935 150.922 469.656 150.922 482.922C150.922 496.189 156.952 506.909 164.322 506.909H178.594C171.224 506.909 165.193 496.122 165.193 482.922Z" fill="#263238"/>
<path d="M178.662 506.909C186.063 506.909 192.063 496.17 192.063 482.922C192.063 469.675 186.063 458.935 178.662 458.935C171.261 458.935 165.262 469.675 165.262 482.922C165.262 496.17 171.261 506.909 178.662 506.909Z" fill="#263238"/>
<path d="M179.733 501.616C184.988 501.616 189.247 493.246 189.247 482.922C189.247 472.598 184.988 464.229 179.733 464.229C174.478 464.229 170.219 472.598 170.219 482.922C170.219 493.246 174.478 501.616 179.733 501.616Z" fill="white"/>
<path d="M87.8056 482.922C87.8056 469.656 93.8358 458.935 101.206 458.935H86.9346C79.4974 458.935 73.5342 469.656 73.5342 482.922C73.5342 496.189 79.5644 506.909 86.9346 506.909H101.206C93.8358 506.909 87.8056 496.122 87.8056 482.922Z" fill="#263238"/>
<path d="M101.273 506.909C108.674 506.909 114.674 496.17 114.674 482.922C114.674 469.675 108.674 458.935 101.273 458.935C93.8726 458.935 87.873 469.675 87.873 482.922C87.873 496.17 93.8726 506.909 101.273 506.909Z" fill="#263238"/>
<path d="M257.255 482.922C257.255 469.656 263.285 458.935 270.655 458.935H256.384C248.947 458.935 242.983 469.656 242.983 482.922C242.983 496.189 249.014 506.909 256.384 506.909H270.655C263.285 506.909 257.255 496.122 257.255 482.922Z" fill="#263238"/>
<path d="M270.655 506.909C278.056 506.909 284.056 496.17 284.056 482.922C284.056 469.675 278.056 458.935 270.655 458.935C263.254 458.935 257.255 469.675 257.255 482.922C257.255 496.17 263.254 506.909 270.655 506.909Z" fill="#263238"/>
<path d="M271.728 501.616C276.983 501.616 281.242 493.246 281.242 482.922C281.242 472.598 276.983 464.229 271.728 464.229C266.474 464.229 262.214 472.598 262.214 482.922C262.214 493.246 266.474 501.616 271.728 501.616Z" fill="white"/>
<path d="M149.382 489.622H132.162L131.224 488.684C130.219 487.679 128.879 487.143 127.472 487.143H84.3896C82.9825 487.143 81.6425 487.679 80.6374 488.684L80.0344 489.287H78.4934C73.4012 489.287 69.2471 485.133 69.2471 480.041V465.837H166.936L159.164 482.654C157.69 486.808 153.737 489.622 149.382 489.622Z" fill="#D7DF23"/>
<path opacity="0.2" d="M149.382 489.622H132.162L131.224 488.684C130.219 487.679 128.879 487.143 127.472 487.143H84.3896C82.9825 487.143 81.6425 487.679 80.6374 488.684L80.0344 489.287H78.4934C73.4012 489.287 69.2471 485.133 69.2471 480.041V465.837H166.936L159.164 482.654C157.69 486.808 153.737 489.622 149.382 489.622Z" fill="black"/>
<path d="M251.09 405.334C251.023 405.334 250.956 405.334 250.889 405.267C250.755 405.2 250.688 404.999 250.755 404.798L255.445 396.757C255.512 396.623 255.713 396.556 255.914 396.623C256.048 396.69 256.115 396.891 256.048 397.092L251.358 405.133C251.291 405.267 251.157 405.334 251.09 405.334Z" fill="#263238"/>
<path d="M275.814 445.334V436.222C275.814 431.398 268.846 408.751 259.197 404.53C249.616 400.309 226.366 398.365 211.76 399.169C197.153 399.974 177.589 430.526 177.589 430.526L179.733 456.858C182.681 456.858 192.195 455.987 193.535 481.984C193.736 485.803 196.885 488.751 200.705 488.751H251.961C255.512 488.751 258.527 486.138 259.063 482.587C260.404 473.341 263.888 456.791 272.33 456.791C278.226 456.791 282.514 461.884 282.514 467.646C282.514 461.28 280.973 454.982 278.025 449.354L275.814 445.334Z" fill="#D7DF23"/>
<path d="M158.16 399.17C131.493 399.17 101.342 430.527 101.342 430.527H177.657C177.657 430.527 197.155 399.907 211.828 399.17H158.16Z" fill="#D7DF23"/>
<path opacity="0.4" d="M159.768 399.169C137.322 399.169 113.804 421.414 106.903 428.449C106.166 429.253 106.702 430.527 107.774 430.527H169.349C174.374 430.527 179.064 428.181 182.08 424.094C188.713 415.049 201.443 399.706 211.761 399.102H159.768V399.169Z" fill="white"/>
<path d="M177.589 430.527L149.381 452.771L73.5348 452.503C73.5348 452.503 69.1797 458.801 69.1797 465.77C73.9368 465.77 161.375 465.77 166.869 465.77C168.477 461.548 174.105 456.858 179.666 456.858C179.733 448.952 177.589 430.527 177.589 430.527Z" fill="#D7DF23"/>
<path opacity="0.2" d="M159.163 446.205C159.029 446.205 158.828 446.071 158.828 445.937C158.828 445.736 158.895 445.602 159.096 445.535C167.404 444.262 173.636 440.242 177.388 437.026C179.532 435.217 179.934 432.135 178.393 429.856C178.259 429.722 178.326 429.521 178.46 429.387C178.594 429.253 178.795 429.32 178.929 429.454C180.671 432.068 180.202 435.485 177.857 437.562C174.038 440.778 167.672 444.932 159.163 446.205C159.163 446.205 159.23 446.205 159.163 446.205Z" fill="black"/>
<path d="M73.6016 452.503C73.6016 452.503 86.935 436.959 101.34 430.527H177.656L149.448 452.771L73.6016 452.503Z" fill="#D7DF23"/>
<path d="M132.631 452.503H82.5801V453.977H132.631V452.503Z" fill="#263238"/>
<path d="M131.559 449.622L134.24 446.942C134.843 446.339 135.58 445.937 136.451 445.736L156.685 441.314C157.422 441.18 158.159 441.18 158.829 441.381L159.901 441.716C163.05 442.587 164.19 446.473 162.045 448.952L157.69 453.91C156.953 454.781 155.881 455.317 154.742 455.384L135.111 457.193C133.771 457.327 132.498 456.858 131.559 455.92C129.817 454.178 129.817 451.364 131.559 449.622Z" fill="white"/>
<path d="M83.9876 451.029L81.7765 446.875C81.4415 446.272 80.9725 445.803 80.4365 445.468C79.3644 444.798 77.9574 444.798 76.8854 445.334L75.2103 446.205C74.4063 446.674 73.7363 447.411 73.4683 448.282L72.4632 451.297C71.7262 453.441 73.0662 455.719 75.2773 456.054L79.9005 456.858C81.4415 457.126 82.9826 456.389 83.7196 454.982L84.0546 454.379C84.5236 453.374 84.5236 452.101 83.9876 451.029Z" fill="white"/>
<path opacity="0.4" d="M193.201 431.398H263.754C266.3 431.398 268.176 428.918 267.439 426.439C265.831 421.079 262.749 412.704 258.126 408.416C257.59 407.947 256.987 407.612 256.317 407.478C248.008 405.736 234.608 404.53 224.692 403.86C215.579 403.257 206.668 406.607 200.303 413.106C196.953 416.523 193.335 420.744 190.119 425.501C188.443 428.047 190.186 431.398 193.201 431.398Z" fill="white"/>
<path d="M142.547 477.562C145.322 477.562 147.572 475.792 147.572 473.609C147.572 471.426 145.322 469.656 142.547 469.656C139.771 469.656 137.521 471.426 137.521 473.609C137.521 475.792 139.771 477.562 142.547 477.562Z" fill="#263238"/>
<path d="M107.102 449.488C108.777 449.488 109.581 451.163 108.911 453.24C108.241 455.317 106.365 456.992 104.757 456.992C103.149 456.992 102.278 455.317 102.948 453.24C103.551 451.163 105.427 449.488 107.102 449.488Z" fill="#263238"/>
<path d="M71.8602 477.562C72.6373 477.562 73.2672 475.792 73.2672 473.609C73.2672 471.426 72.6373 469.656 71.8602 469.656C71.0831 469.656 70.4531 471.426 70.4531 473.609C70.4531 475.792 71.0831 477.562 71.8602 477.562Z" fill="#263238"/>
<path d="M190.989 430.795V428.516C190.989 425.769 193.535 423.692 196.215 424.228L204.792 426.037C206.802 426.439 208.276 428.248 208.276 430.325V430.795C208.276 433.207 206.333 435.15 203.921 435.15H195.344C192.999 435.15 190.989 433.207 190.989 430.795Z" fill="#263238"/>
<path d="M236.216 404.865C236.216 404.865 235.076 404.731 233.066 404.597C241.911 422.687 239.633 431.465 239.633 431.465H246.4C246.467 420.409 236.216 404.865 236.216 404.865Z" fill="#263238"/>
<path opacity="0.2" d="M161.71 423.29C161.442 426.238 158.962 428.516 156.014 428.516H121.307C118.761 428.516 117.823 425.702 119.699 423.558C123.25 419.538 127.002 415.987 130.487 413.039C137.053 407.545 145.16 404.664 152.731 405.2C153.669 405.267 154.607 405.334 155.612 405.401C158.158 405.602 160.236 407.478 160.772 409.957C161.978 415.786 162.045 420.275 161.71 423.29Z" fill="#D7DF23"/>
<path opacity="0.2" d="M240.438 483.994C240.237 483.994 240.103 483.86 240.103 483.659C240.103 476.892 243.587 448.952 244.458 444.731C245.329 440.644 245.329 436.155 244.458 433.14C244.391 432.939 244.525 432.805 244.659 432.738C244.86 432.671 244.994 432.805 245.061 432.939C245.999 436.021 245.999 440.644 245.061 444.798C244.19 448.952 240.706 476.825 240.706 483.592C240.773 483.86 240.639 483.994 240.438 483.994Z" fill="black"/>
<path opacity="0.2" d="M239.566 445.066H231.391C230.721 445.066 230.252 444.53 230.386 443.86L230.587 442.922C230.721 442.252 231.391 441.716 232.061 441.716H240.236C240.906 441.716 241.375 442.252 241.241 442.922L241.04 443.86C240.906 444.53 240.236 445.066 239.566 445.066Z" fill="black"/>
<path d="M264.288 343.558H263.618C263.618 341.816 263.35 340.141 262.881 338.533L263.551 338.332C264.02 340.007 264.288 341.816 264.288 343.558ZM261.407 334.981C258.258 329.353 252.362 325.869 245.93 325.869V325.199C252.563 325.199 258.727 328.817 261.943 334.646L261.407 334.981Z" fill="#D7DF23"/>
<path d="M245.93 327.611C237.085 327.611 229.916 334.78 229.916 343.625C229.916 359.035 245.93 369.622 245.93 369.622C245.93 369.622 261.943 359.035 261.943 343.625C261.943 334.713 254.774 327.611 245.93 327.611ZM245.93 351.129C241.775 351.129 238.492 347.779 238.492 343.692C238.492 339.538 241.842 336.254 245.93 336.254C250.084 336.254 253.434 339.605 253.434 343.692C253.434 347.779 250.084 351.129 245.93 351.129Z" fill="#D7DF23"/>
<path d="M217.454 505.904L221.474 505.837L222.68 496.457L218.593 496.524L217.454 505.904Z" fill="#B55B52"/>
<path d="M236.751 505.569L240.704 504.363L238.225 495.519L234.339 496.725L236.751 505.569Z" fill="#B55B52"/>
<path d="M240.57 503.224L236.215 505.502C236.081 505.569 236.014 505.77 236.014 505.904L236.952 509.455C237.019 509.857 237.488 509.991 237.823 509.79C239.23 509.053 240.235 508.45 241.977 507.512C243.049 506.976 246.399 505.368 247.94 504.564C249.414 503.827 248.878 502.219 248.208 502.353C245.126 503.157 242.58 503.425 241.307 503.09C241.039 503.09 240.771 503.09 240.57 503.224Z" fill="#263238"/>
<path d="M221.542 505.368L217.119 505.435C216.985 505.435 216.784 505.569 216.784 505.703L216.047 509.321C215.98 509.723 216.248 510.058 216.65 510.058C218.258 509.991 220.537 509.857 222.547 509.857C224.892 509.79 225.562 509.924 228.309 509.857C229.984 509.857 230.386 508.115 229.716 507.981C226.567 507.311 225.294 507.311 222.547 505.636C222.212 505.502 221.944 505.368 221.542 505.368Z" fill="#263238"/>
<path d="M227.705 382.821C228.643 384.63 229.648 386.64 230.72 388.449C231.792 390.325 232.864 392.134 234.003 393.876C234.271 394.278 234.606 394.747 234.874 395.149L235.611 396.154C235.745 396.355 235.879 396.422 235.879 396.489C235.879 396.556 235.946 396.623 236.147 396.623C236.549 396.623 237.353 396.221 238.09 395.685C238.425 395.417 238.827 395.082 239.229 394.747C239.564 394.412 239.967 394.01 240.302 393.675L242.915 395.149C242.647 395.819 242.446 396.288 242.111 396.891C241.843 397.427 241.508 397.963 241.106 398.499C240.704 399.035 240.235 399.571 239.699 400.04C239.162 400.509 238.492 400.979 237.554 401.314C236.683 401.649 235.544 401.716 234.472 401.448C233.4 401.18 232.529 400.643 231.926 400.107C231.725 399.973 231.591 399.839 231.457 399.705L231.256 399.504L231.122 399.303L230.519 398.633C230.117 398.164 229.782 397.695 229.38 397.293C227.906 395.417 226.633 393.541 225.427 391.531C224.824 390.526 224.221 389.521 223.752 388.516C223.216 387.511 222.68 386.506 222.211 385.367L227.705 382.821Z" fill="#B55B52"/>
<path d="M220.468 382.821C219.396 386.506 227.035 396.623 227.035 396.623L234.807 391.665C234.807 391.665 232.529 386.506 229.447 382.553C226.231 378.533 221.674 378.801 220.468 382.821Z" fill="#D7DF23"/>
<g opacity="0.2">
<path opacity="0.2" d="M220.468 382.821C219.396 386.506 227.035 396.623 227.035 396.623L234.807 391.665C234.807 391.665 232.529 386.506 229.447 382.553C226.231 378.533 221.674 378.801 220.468 382.821Z" fill="black"/>
</g>
<path opacity="0.2" d="M225.159 387.176C226.767 387.846 229.112 391.665 230.318 394.546L227.035 396.69C227.035 396.69 224.087 392.804 222.077 388.985C223.149 387.779 224.355 386.841 225.159 387.176Z" fill="black"/>
<path d="M239.766 394.479L242.58 389.923L244.992 393.809C244.992 393.809 244.121 395.551 242.312 396.02L239.766 394.479Z" fill="#B55B52"/>
<path d="M246.466 389.99V391.397C246.466 391.866 246.332 392.268 246.064 392.603L245.059 393.876L242.646 389.99L245.193 389.052C245.796 388.784 246.466 389.32 246.466 389.99Z" fill="#B55B52"/>
<path d="M243.786 395.819L239.364 395.752L241.776 386.573L246.198 386.64L243.786 395.819Z" fill="#D7DF23"/>
<path d="M244.188 395.819L239.766 395.752L242.245 386.573L246.667 386.64L244.188 395.819Z" fill="#263238"/>
<path opacity="0.2" d="M222.679 496.457L222.076 501.281L217.989 501.348L218.592 496.524L222.679 496.457Z" fill="black"/>
<path opacity="0.2" d="M234.339 496.725L238.225 495.519L239.498 500.075L235.545 501.281L234.339 496.725Z" fill="black"/>
<path d="M203.383 384.831C206.666 399.035 205.996 413.173 206.331 416.188C209.48 415.987 221.407 415.049 227.906 414.58C229.983 391.464 225.092 379.739 225.092 379.739C225.092 379.739 223.685 379.471 221.809 379.27C221.206 379.203 220.603 379.136 219.933 379.136C219.598 379.136 219.196 379.069 218.794 379.069C216.381 379.002 212.361 379.404 209.614 379.739C209.011 379.806 208.475 379.873 207.872 380.007C207.336 380.074 206.8 380.208 206.331 380.275H206.264C204.187 380.744 202.847 382.754 203.383 384.831Z" fill="#D7DF23"/>
<g opacity="0.2">
<path opacity="0.2" d="M203.383 384.831C206.666 399.035 205.996 413.173 206.331 416.188C209.48 415.987 221.407 415.049 227.906 414.58C229.983 391.464 225.092 379.739 225.092 379.739C225.092 379.739 223.685 379.471 221.809 379.27C221.206 379.203 220.603 379.136 219.933 379.136C219.598 379.136 219.196 379.069 218.794 379.069C216.381 379.002 212.361 379.404 209.614 379.739C209.011 379.806 208.475 379.873 207.872 380.007C207.336 380.074 206.8 380.208 206.331 380.275H206.264C204.187 380.744 202.847 382.754 203.383 384.831Z" fill="black"/>
</g>
<path opacity="0.2" d="M207.002 387.779L204.522 390.995C204.522 391.062 204.522 391.062 204.522 391.129C204.857 393.273 205.125 395.417 205.326 397.427C207.739 394.479 207.404 389.186 207.002 387.779Z" fill="black"/>
<path d="M210.686 373.441C211.222 375.585 211.155 377.997 209.614 379.739C211.356 381.213 213.567 382.888 217.051 382.754C220.536 382.62 219.799 380.275 218.727 379.069C215.711 378.6 215.711 376.657 215.711 374.513C215.711 374.044 215.443 373.642 214.974 373.508L211.691 372.436C211.088 372.302 210.485 372.838 210.686 373.441Z" fill="#B55B52"/>
<path d="M220.134 396.623C218.325 396.623 216.65 394.479 216.315 391.665C216.114 389.923 216.516 388.382 217.32 387.444C217.789 386.908 218.392 386.64 219.062 386.64C220.871 386.64 222.546 388.784 222.881 391.598C223.082 393.34 222.68 394.881 221.876 395.819C221.407 396.355 220.804 396.623 220.134 396.623ZM219.062 387.31C218.593 387.31 218.191 387.511 217.856 387.913C217.186 388.717 216.851 390.124 217.052 391.598C217.32 393.943 218.794 395.953 220.201 395.953C220.67 395.953 221.072 395.752 221.407 395.35C222.077 394.546 222.412 393.139 222.211 391.665C221.943 389.32 220.469 387.31 219.062 387.31Z" fill="#D7DF23"/>
<path opacity="0.2" d="M215.712 374.647L212.429 375.049C212.496 375.183 212.563 375.317 212.697 375.451C213.3 376.456 214.707 377.126 216.114 377.327C215.779 376.59 215.712 375.652 215.712 374.647Z" fill="black"/>
<path d="M220 366.003C221.876 366.338 225.293 364.194 224.489 361.447C223.484 362.72 220 362.318 220 362.318V366.003Z" fill="#263238"/>
<path d="M212.831 369.018C213.032 370.895 210.754 374.178 208.007 373.24C209.347 372.302 209.146 368.817 209.146 368.817L212.831 369.018Z" fill="#263238"/>
<path d="M210.151 365.333C209.682 369.286 209.146 371.632 210.754 374.044C213.167 377.662 218.393 376.724 220.068 372.972C221.609 369.622 222.145 363.658 218.594 361.38C215.043 359.102 210.62 361.38 210.151 365.333Z" fill="#B55B52"/>
<path d="M209.547 369.354C210.552 370.359 213.165 366.204 212.696 364.73C213.701 365.199 215.644 364.328 215.51 362.653C218.525 364.261 222.88 365.534 222.947 362.653C223.014 359.772 220.267 357.628 217.587 357.36C217.922 358.231 217.051 358.566 215.309 358.231C213.567 357.829 206.8 354.747 207.537 360.978C205.058 361.112 204.723 364.261 209.547 369.354Z" fill="#263238"/>
<path d="M207.605 367.812C207.739 368.884 208.342 369.823 209.079 370.292C210.151 371.096 210.821 370.225 210.888 368.951C210.955 367.812 210.888 366.003 209.615 365.735C208.409 365.534 207.471 366.606 207.605 367.812Z" fill="#B55B52"/>
<path d="M213.702 415.652L227.907 414.58C227.907 414.58 229.716 443.659 229.582 455.987C229.448 468.852 223.551 500.276 223.551 500.276L216.717 500.41C216.717 500.41 217.253 469.857 217.253 457.26C217.253 440.309 213.702 415.652 213.702 415.652Z" fill="#263238"/>
<path opacity="0.2" d="M219.195 445.87C219.396 446.741 224.622 470.326 226.365 484.061C227.303 478.366 228.174 471.934 228.844 466.239L219.195 445.87Z" fill="black"/>
<path d="M220.201 415.116C220.201 415.116 230.988 441.582 233.401 453.173C236.081 465.904 240.302 497.998 240.302 497.998L232.999 499.137C232.999 499.137 227.437 475.15 224.355 462.888C220.804 448.885 206.868 426.774 206.265 416.188C220.201 415.116 220.201 415.116 220.201 415.116Z" fill="#263238"/>
<path d="M241.307 498.601L232.195 500.745L231.056 497.261L240.972 495.519L241.307 498.601Z" fill="#D7DF23"/>
<path d="M224.422 500.477L216.248 500.611L216.181 497.931L225.36 497.663L224.422 500.477Z" fill="#D7DF23"/>
<path d="M216.427 367.585C216.488 367.258 216.361 366.959 216.142 366.918C215.924 366.877 215.698 367.11 215.636 367.437C215.575 367.764 215.702 368.063 215.921 368.104C216.139 368.145 216.365 367.912 216.427 367.585Z" fill="#263238"/>
<path d="M220.425 368.45C220.486 368.123 220.359 367.824 220.14 367.783C219.922 367.743 219.696 367.975 219.634 368.302C219.573 368.63 219.7 368.928 219.919 368.969C220.137 369.01 220.363 368.777 220.425 368.45Z" fill="#263238"/>
<path d="M218.325 368.214C218.325 368.214 218.727 370.225 219.33 371.23C218.66 371.632 217.722 371.23 217.722 371.23L218.325 368.214Z" fill="#A02724"/>
<path d="M217.119 372.235C215.913 371.967 215.377 371.029 215.377 371.029C215.377 370.962 215.377 370.895 215.444 370.895C215.511 370.895 215.578 370.895 215.578 370.962C215.578 370.962 216.181 372.034 217.588 372.168C217.655 372.168 217.655 372.235 217.655 372.302C217.655 372.369 217.588 372.369 217.521 372.369C217.387 372.235 217.253 372.235 217.119 372.235Z" fill="#263238"/>
<path d="M215.31 366.003C215.31 366.003 215.243 366.003 215.243 365.936C215.176 365.869 215.176 365.735 215.243 365.668C216.047 364.931 216.918 365.199 216.918 365.199C217.052 365.199 217.052 365.333 217.052 365.4C217.052 365.534 216.918 365.534 216.851 365.534C216.851 365.534 216.181 365.4 215.511 365.936C215.444 366.003 215.377 366.003 215.31 366.003Z" fill="#263238"/>
<path d="M221.809 367.276C221.742 367.276 221.675 367.209 221.675 367.142C221.474 366.338 220.804 366.07 220.804 366.07C220.737 366.07 220.67 365.936 220.67 365.802C220.67 365.735 220.804 365.668 220.938 365.668C221.005 365.668 221.809 365.936 222.077 367.008C222.077 367.142 222.077 367.209 221.943 367.276C221.876 367.276 221.809 367.276 221.809 367.276Z" fill="#263238"/>
<path d="M242.044 503.224C241.709 503.425 241.307 503.492 241.039 503.559C240.972 503.559 240.972 503.559 240.972 503.492C240.972 503.492 240.972 503.425 240.972 503.358C241.039 503.224 241.843 501.884 242.379 501.884C242.446 501.884 242.58 501.884 242.647 502.018C242.781 502.219 242.781 502.353 242.714 502.554C242.58 502.889 242.312 503.09 242.044 503.224ZM241.24 503.358C241.91 503.157 242.379 502.889 242.513 502.621C242.58 502.487 242.58 502.353 242.446 502.286C242.379 502.219 242.379 502.219 242.312 502.219C242.111 502.152 241.575 502.822 241.24 503.358Z" fill="#D7DF23"/>
<path d="M241.105 503.559C241.038 503.559 241.038 503.559 241.105 503.559C241.038 503.559 240.971 503.559 240.971 503.492C240.971 503.425 240.502 502.353 240.77 501.817C240.837 501.683 240.904 501.549 241.105 501.549C241.306 501.482 241.44 501.549 241.507 501.616C241.708 501.951 241.373 503.157 241.105 503.559ZM241.038 501.75C240.971 501.817 240.904 501.817 240.904 501.951C240.77 502.286 240.971 502.956 241.038 503.291C241.239 502.822 241.44 502.018 241.239 501.75C241.239 501.75 241.239 501.683 241.038 501.75C241.038 501.75 241.105 501.75 241.038 501.75Z" fill="#D7DF23"/>
<path d="M221.943 505.904C221.876 505.904 221.876 505.837 221.876 505.837C221.876 505.77 221.876 505.77 221.943 505.77C222.144 505.703 223.752 504.832 224.221 505.1C224.288 505.167 224.355 505.234 224.355 505.368C224.355 505.569 224.288 505.703 224.154 505.837C223.819 506.172 222.613 506.038 221.943 505.904C221.943 505.904 222.01 505.904 221.943 505.904ZM224.087 505.167C223.752 505.033 222.881 505.435 222.278 505.703C223.149 505.837 223.819 505.77 224.087 505.569C224.154 505.502 224.221 505.368 224.221 505.234C224.221 505.234 224.221 505.234 224.087 505.167C224.154 505.234 224.154 505.234 224.087 505.167Z" fill="#D7DF23"/>
<path d="M221.943 505.904C221.876 505.904 221.876 505.837 221.876 505.837C221.876 505.77 221.943 504.698 222.479 504.296C222.613 504.162 222.814 504.095 223.015 504.095C223.283 504.095 223.35 504.229 223.35 504.363C223.417 504.832 222.479 505.703 222.01 505.904C222.01 505.904 222.01 505.904 221.943 505.904ZM223.149 504.296H223.082C222.948 504.296 222.814 504.296 222.68 504.43C222.345 504.698 222.211 505.368 222.144 505.703C222.613 505.368 223.283 504.698 223.216 504.43C223.216 504.363 223.216 504.296 223.149 504.296Z" fill="#D7DF23"/>
<path d="M209.815 386.037C208.475 388.449 207.135 390.928 205.929 393.474C204.723 395.953 203.584 398.499 202.78 401.046C202.713 401.381 202.579 401.649 202.512 401.984C202.445 402.118 202.445 402.319 202.378 402.386C202.378 402.453 202.311 402.52 202.311 402.654C202.244 402.989 202.244 403.458 202.378 403.927C202.579 404.932 203.048 406.071 203.651 407.21C204.924 409.488 206.666 411.699 208.475 413.776L206.532 416.121C203.986 414.379 201.708 412.436 199.698 409.823C198.76 408.55 197.822 407.076 197.219 405.267C196.951 404.329 196.75 403.324 196.817 402.252C196.817 401.984 196.884 401.716 196.884 401.381C196.951 401.113 196.951 400.979 197.018 400.778C197.085 400.375 197.152 399.973 197.286 399.571C198.023 396.489 199.095 393.675 200.301 390.928C201.507 388.181 202.847 385.568 204.455 382.955L209.815 386.037Z" fill="#B55B52"/>
<path d="M205.594 380.543C201.842 381.548 198.224 392.067 198.224 392.067L207.202 394.546C207.202 394.546 209.212 392.067 210.954 387.377C212.83 382.285 210.15 379.337 205.594 380.543Z" fill="#D7DF23"/>
<g opacity="0.2">
<path opacity="0.2" d="M205.594 380.543C201.842 381.548 198.224 392.067 198.224 392.067L207.202 394.546C207.202 394.546 209.212 392.067 210.954 387.377C212.83 382.285 210.15 379.337 205.594 380.543Z" fill="black"/>
</g>
<path d="M206.867 413.039L210.954 414.111L209.346 417.997C209.346 417.997 205.661 417.193 205.661 415.183L206.867 413.039Z" fill="#B55B52"/>
<path d="M212.495 416.724L211.289 419.739L209.279 417.997L210.954 414.111L212.495 416.724Z" fill="#B55B52"/>
<path d="M89.0525 185.101H106.064C107.391 185.101 108.568 184.78 109.597 184.139C110.626 183.497 111.415 182.593 111.964 181.425C112.535 180.234 112.821 178.871 112.821 177.336C112.821 175.802 112.535 174.45 111.964 173.282C111.415 172.091 110.626 171.175 109.597 170.534C108.591 169.893 107.414 169.572 106.064 169.572H89.0525V162.907H105.79C108.671 162.907 111.198 163.503 113.37 164.694C115.565 165.885 117.257 167.579 118.446 169.778C119.658 171.954 120.264 174.473 120.264 177.336C120.264 180.199 119.658 182.73 118.446 184.929C117.234 187.105 115.531 188.788 113.336 189.979C111.163 191.17 108.648 191.765 105.79 191.765H89.0525V185.101ZM86 162.907H92.9968V212.894H86V162.907ZM102.635 190.219L109.597 188.639L122.356 212.894H114.056L102.635 190.219Z" fill="black"/>
<path d="M130.451 162.941H137.447V169.95H130.451V162.941ZM130.451 177.233H137.447V212.894H130.451V177.233Z" fill="black"/>
<path d="M168.316 162.941H175.313V212.894H168.316V162.941ZM159.364 213.512C156.757 213.512 154.528 212.951 152.676 211.829C150.847 210.684 149.452 209.023 148.491 206.847C147.531 204.671 147.051 202.06 147.051 199.014V191.147C147.051 188.078 147.52 185.456 148.457 183.28C149.395 181.104 150.755 179.455 152.539 178.333C154.345 177.187 156.506 176.615 159.021 176.615C161.125 176.615 163.045 177.164 164.783 178.264C166.544 179.363 167.961 180.909 169.036 182.902L168.316 190.185C168.316 188.673 168.041 187.379 167.493 186.303C166.944 185.226 166.144 184.413 165.092 183.864C164.063 183.291 162.805 183.005 161.319 183.005C159.01 183.005 157.215 183.726 155.934 185.169C154.677 186.612 154.048 188.639 154.048 191.25V199.014C154.048 201.602 154.677 203.606 155.934 205.026C157.215 206.424 159.01 207.122 161.319 207.122C162.805 207.122 164.063 206.836 165.092 206.263C166.144 205.668 166.944 204.82 167.493 203.721C168.041 202.622 168.316 201.305 168.316 199.77L168.796 207.294C168.087 209.057 166.921 210.535 165.298 211.726C163.697 212.917 161.719 213.512 159.364 213.512Z" fill="black"/>
<path d="M200.522 213.409C197.229 213.409 194.417 212.791 192.085 211.554C189.752 210.317 187.969 208.508 186.734 206.126C185.522 203.721 184.916 200.824 184.916 197.434V193.414C184.916 189.887 185.499 186.876 186.665 184.379C187.854 181.883 189.569 179.982 191.81 178.676C194.051 177.371 196.749 176.718 199.905 176.718C202.877 176.718 205.415 177.462 207.519 178.951C209.622 180.44 211.223 182.593 212.321 185.41C213.441 188.227 214.001 191.605 214.001 195.544V197.881H189.992V192.246H207.347C207.141 189.338 206.387 187.082 205.084 185.478C203.803 183.852 202.077 183.039 199.905 183.039C197.252 183.039 195.194 183.91 193.731 185.65C192.29 187.391 191.57 189.853 191.57 193.037V197.571C191.57 200.526 192.348 202.793 193.902 204.374C195.457 205.954 197.664 206.744 200.522 206.744C201.94 206.744 203.346 206.458 204.741 205.885C206.135 205.313 207.382 204.511 208.479 203.481L213.075 208.084C211.314 209.779 209.337 211.096 207.141 212.035C204.946 212.951 202.74 213.409 200.522 213.409Z" fill="black"/>
<g clip-path="url(#clip0_218_41767)">
<path d="M219.954 213.176L287.017 151L224.402 213.176H219.954Z" fill="#D7DF23"/>
<path d="M245.273 213.176L288.043 152.008L249.037 213.512L245.273 213.176Z" fill="#D7DF23"/>
<path d="M225.429 168.477H242.537L254.17 179.903L245.787 187.802L225.429 168.477Z" fill="black"/>
<path d="M265.119 189.986L289.412 213.512H272.989L258.618 200.069L265.119 189.986Z" fill="black"/>
<path d="M233.982 211.832L237.746 206.79H241.852L238.43 211.832H233.982Z" fill="black"/>
<path d="M241.168 203.766L244.179 199.733H247.464L244.726 203.766H241.168Z" fill="black"/>
<path d="M246.643 197.38L249.424 193.011H252.459L249.931 197.38H246.643Z" fill="black"/>
<path d="M252.459 190.658L254.751 187.059H257.249L255.165 190.658H252.459Z" fill="black"/>
<path d="M257.592 184.945L259.518 181.92H261.619L259.867 184.945H257.592Z" fill="black"/>
<path d="M262.039 180.24L263.965 177.215H266.066L264.314 180.24H262.039Z" fill="black"/>
<path d="M266.487 175.534L267.798 173.478H269.225L268.034 175.534H266.487Z" fill="black"/>
<path d="M269.909 171.165L271.055 169.367H272.304L271.264 171.165H269.909Z" fill="black"/>
<path d="M273.331 167.468L274.477 165.67H275.726L274.686 167.468H273.331Z" fill="black"/>
<path d="M276.41 164.107L277.228 162.824H278.121L277.378 164.107H276.41Z" fill="black"/>
<path d="M278.463 161.755L279.281 160.471H280.174L279.431 161.755H278.463Z" fill="black"/>
</g>
<rect x="31" y="619" width="312" height="60" rx="30" fill="black"/>
<path d="M153.299 651.35V657H150.609V642.54H155.019C156.005 642.54 156.849 642.643 157.549 642.85C158.255 643.05 158.832 643.333 159.279 643.7C159.732 644.067 160.062 644.507 160.269 645.02C160.482 645.527 160.589 646.087 160.589 646.7C160.589 647.187 160.515 647.647 160.369 648.08C160.229 648.513 160.022 648.907 159.749 649.26C159.482 649.613 159.149 649.923 158.749 650.19C158.355 650.457 157.905 650.67 157.399 650.83C157.739 651.023 158.032 651.3 158.279 651.66L161.899 657H159.479C159.245 657 159.045 656.953 158.879 656.86C158.719 656.767 158.582 656.633 158.469 656.46L155.429 651.83C155.315 651.657 155.189 651.533 155.049 651.46C154.915 651.387 154.715 651.35 154.449 651.35H153.299ZM153.299 649.42H154.979C155.485 649.42 155.925 649.357 156.299 649.23C156.679 649.103 156.989 648.93 157.229 648.71C157.475 648.483 157.659 648.217 157.779 647.91C157.899 647.603 157.959 647.267 157.959 646.9C157.959 646.167 157.715 645.603 157.229 645.21C156.749 644.817 156.012 644.62 155.019 644.62H153.299V649.42ZM167.724 646.58C168.371 646.58 168.964 646.683 169.504 646.89C170.051 647.097 170.521 647.4 170.914 647.8C171.307 648.193 171.614 648.68 171.834 649.26C172.054 649.833 172.164 650.49 172.164 651.23C172.164 651.417 172.154 651.573 172.134 651.7C172.121 651.82 172.091 651.917 172.044 651.99C172.004 652.057 171.947 652.107 171.874 652.14C171.801 652.167 171.707 652.18 171.594 652.18H165.254C165.327 653.233 165.611 654.007 166.104 654.5C166.597 654.993 167.251 655.24 168.064 655.24C168.464 655.24 168.807 655.193 169.094 655.1C169.387 655.007 169.641 654.903 169.854 654.79C170.074 654.677 170.264 654.573 170.424 654.48C170.591 654.387 170.751 654.34 170.904 654.34C171.004 654.34 171.091 654.36 171.164 654.4C171.237 654.44 171.301 654.497 171.354 654.57L172.074 655.47C171.801 655.79 171.494 656.06 171.154 656.28C170.814 656.493 170.457 656.667 170.084 656.8C169.717 656.927 169.341 657.017 168.954 657.07C168.574 657.123 168.204 657.15 167.844 657.15C167.131 657.15 166.467 657.033 165.854 656.8C165.241 656.56 164.707 656.21 164.254 655.75C163.801 655.283 163.444 654.71 163.184 654.03C162.924 653.343 162.794 652.55 162.794 651.65C162.794 650.95 162.907 650.293 163.134 649.68C163.361 649.06 163.684 648.523 164.104 648.07C164.531 647.61 165.047 647.247 165.654 646.98C166.267 646.713 166.957 646.58 167.724 646.58ZM167.774 648.35C167.054 648.35 166.491 648.553 166.084 648.96C165.677 649.367 165.417 649.943 165.304 650.69H169.944C169.944 650.37 169.901 650.07 169.814 649.79C169.727 649.503 169.594 649.253 169.414 649.04C169.234 648.827 169.007 648.66 168.734 648.54C168.461 648.413 168.141 648.35 167.774 648.35ZM177.718 646.56C178.158 646.56 178.571 646.607 178.958 646.7C179.344 646.787 179.698 646.917 180.018 647.09H182.968V648.01C182.968 648.163 182.928 648.283 182.848 648.37C182.768 648.457 182.631 648.517 182.438 648.55L181.518 648.72C181.584 648.893 181.634 649.077 181.668 649.27C181.708 649.463 181.728 649.667 181.728 649.88C181.728 650.387 181.624 650.847 181.418 651.26C181.218 651.667 180.938 652.013 180.578 652.3C180.224 652.587 179.801 652.81 179.308 652.97C178.821 653.123 178.291 653.2 177.718 653.2C177.331 653.2 176.954 653.163 176.588 653.09C176.268 653.283 176.108 653.5 176.108 653.74C176.108 653.947 176.201 654.1 176.388 654.2C176.581 654.293 176.831 654.36 177.138 654.4C177.451 654.44 177.804 654.467 178.198 654.48C178.591 654.487 178.994 654.507 179.408 654.54C179.821 654.573 180.224 654.633 180.618 654.72C181.011 654.8 181.361 654.93 181.668 655.11C181.981 655.29 182.231 655.537 182.418 655.85C182.611 656.157 182.708 656.553 182.708 657.04C182.708 657.493 182.594 657.933 182.368 658.36C182.148 658.787 181.824 659.167 181.398 659.5C180.978 659.833 180.461 660.1 179.848 660.3C179.234 660.507 178.534 660.61 177.748 660.61C176.968 660.61 176.291 660.533 175.718 660.38C175.144 660.233 174.668 660.033 174.288 659.78C173.914 659.533 173.634 659.247 173.448 658.92C173.261 658.593 173.168 658.253 173.168 657.9C173.168 657.42 173.314 657.017 173.608 656.69C173.901 656.363 174.308 656.103 174.828 655.91C174.574 655.77 174.371 655.583 174.218 655.35C174.064 655.117 173.988 654.813 173.988 654.44C173.988 654.287 174.014 654.13 174.068 653.97C174.121 653.803 174.201 653.64 174.308 653.48C174.421 653.32 174.561 653.17 174.728 653.03C174.894 652.883 175.091 652.753 175.318 652.64C174.798 652.36 174.388 651.987 174.088 651.52C173.794 651.053 173.648 650.507 173.648 649.88C173.648 649.373 173.748 648.917 173.948 648.51C174.154 648.097 174.438 647.747 174.798 647.46C175.164 647.167 175.594 646.943 176.088 646.79C176.588 646.637 177.131 646.56 177.718 646.56ZM180.428 657.46C180.428 657.26 180.368 657.097 180.248 656.97C180.128 656.843 179.964 656.747 179.758 656.68C179.551 656.607 179.308 656.553 179.028 656.52C178.754 656.487 178.461 656.463 178.148 656.45C177.841 656.43 177.521 656.413 177.188 656.4C176.861 656.38 176.544 656.35 176.238 656.31C175.958 656.463 175.731 656.647 175.558 656.86C175.391 657.067 175.308 657.307 175.308 657.58C175.308 657.76 175.351 657.927 175.438 658.08C175.531 658.24 175.674 658.377 175.868 658.49C176.068 658.603 176.324 658.69 176.638 658.75C176.951 658.817 177.334 658.85 177.788 658.85C178.248 658.85 178.644 658.813 178.978 658.74C179.311 658.673 179.584 658.577 179.798 658.45C180.018 658.33 180.178 658.183 180.278 658.01C180.378 657.843 180.428 657.66 180.428 657.46ZM177.718 651.62C178.024 651.62 178.291 651.58 178.518 651.5C178.744 651.413 178.931 651.297 179.078 651.15C179.231 651.003 179.344 650.827 179.418 650.62C179.498 650.413 179.538 650.187 179.538 649.94C179.538 649.433 179.384 649.033 179.078 648.74C178.778 648.44 178.324 648.29 177.718 648.29C177.111 648.29 176.654 648.44 176.348 648.74C176.048 649.033 175.898 649.433 175.898 649.94C175.898 650.18 175.934 650.403 176.008 650.61C176.088 650.817 176.201 650.997 176.348 651.15C176.501 651.297 176.691 651.413 176.918 651.5C177.151 651.58 177.418 651.62 177.718 651.62ZM187.149 646.74V657H184.679V646.74H187.149ZM187.519 643.75C187.519 643.963 187.476 644.163 187.389 644.35C187.303 644.537 187.186 644.7 187.039 644.84C186.899 644.98 186.733 645.093 186.539 645.18C186.346 645.26 186.139 645.3 185.919 645.3C185.706 645.3 185.503 645.26 185.309 645.18C185.123 645.093 184.959 644.98 184.819 644.84C184.679 644.7 184.566 644.537 184.479 644.35C184.399 644.163 184.359 643.963 184.359 643.75C184.359 643.53 184.399 643.323 184.479 643.13C184.566 642.937 184.679 642.77 184.819 642.63C184.959 642.49 185.123 642.38 185.309 642.3C185.503 642.213 185.706 642.17 185.919 642.17C186.139 642.17 186.346 642.213 186.539 642.3C186.733 642.38 186.899 642.49 187.039 642.63C187.186 642.77 187.303 642.937 187.389 643.13C187.476 643.323 187.519 643.53 187.519 643.75ZM196.039 648.74C195.972 648.847 195.902 648.923 195.829 648.97C195.756 649.01 195.662 649.03 195.549 649.03C195.429 649.03 195.299 648.997 195.159 648.93C195.026 648.863 194.869 648.79 194.689 648.71C194.509 648.623 194.302 648.547 194.069 648.48C193.842 648.413 193.572 648.38 193.259 648.38C192.772 648.38 192.389 648.483 192.109 648.69C191.829 648.897 191.689 649.167 191.689 649.5C191.689 649.72 191.759 649.907 191.899 650.06C192.046 650.207 192.236 650.337 192.469 650.45C192.709 650.563 192.979 650.667 193.279 650.76C193.579 650.847 193.886 650.943 194.199 651.05C194.512 651.157 194.819 651.28 195.119 651.42C195.419 651.553 195.686 651.727 195.919 651.94C196.159 652.147 196.349 652.397 196.489 652.69C196.636 652.983 196.709 653.337 196.709 653.75C196.709 654.243 196.619 654.7 196.439 655.12C196.259 655.533 195.996 655.893 195.649 656.2C195.302 656.5 194.872 656.737 194.359 656.91C193.852 657.077 193.269 657.16 192.609 657.16C192.256 657.16 191.909 657.127 191.569 657.06C191.236 657 190.912 656.913 190.599 656.8C190.292 656.687 190.006 656.553 189.739 656.4C189.479 656.247 189.249 656.08 189.049 655.9L189.619 654.96C189.692 654.847 189.779 654.76 189.879 654.7C189.979 654.64 190.106 654.61 190.259 654.61C190.412 654.61 190.556 654.653 190.689 654.74C190.829 654.827 190.989 654.92 191.169 655.02C191.349 655.12 191.559 655.213 191.799 655.3C192.046 655.387 192.356 655.43 192.729 655.43C193.022 655.43 193.272 655.397 193.479 655.33C193.692 655.257 193.866 655.163 193.999 655.05C194.139 654.937 194.239 654.807 194.299 654.66C194.366 654.507 194.399 654.35 194.399 654.19C194.399 653.95 194.326 653.753 194.179 653.6C194.039 653.447 193.849 653.313 193.609 653.2C193.376 653.087 193.106 652.987 192.799 652.9C192.499 652.807 192.189 652.707 191.869 652.6C191.556 652.493 191.246 652.37 190.939 652.23C190.639 652.083 190.369 651.9 190.129 651.68C189.896 651.46 189.706 651.19 189.559 650.87C189.419 650.55 189.349 650.163 189.349 649.71C189.349 649.29 189.432 648.89 189.599 648.51C189.766 648.13 190.009 647.8 190.329 647.52C190.656 647.233 191.059 647.007 191.539 646.84C192.026 646.667 192.586 646.58 193.219 646.58C193.926 646.58 194.569 646.697 195.149 646.93C195.729 647.163 196.212 647.47 196.599 647.85L196.039 648.74ZM202.049 657.16C201.163 657.16 200.479 656.91 199.999 656.41C199.519 655.903 199.279 655.207 199.279 654.32V648.59H198.239C198.106 648.59 197.989 648.547 197.889 648.46C197.796 648.373 197.749 648.243 197.749 648.07V647.09L199.399 646.82L199.919 644.02C199.946 643.887 200.006 643.783 200.099 643.71C200.199 643.637 200.323 643.6 200.469 643.6H201.749V646.83H204.449V648.59H201.749V654.15C201.749 654.47 201.829 654.72 201.989 654.9C202.149 655.08 202.363 655.17 202.629 655.17C202.783 655.17 202.909 655.153 203.009 655.12C203.116 655.08 203.206 655.04 203.279 655C203.359 654.96 203.429 654.923 203.489 654.89C203.549 654.85 203.609 654.83 203.669 654.83C203.743 654.83 203.803 654.85 203.849 654.89C203.896 654.923 203.946 654.977 203.999 655.05L204.739 656.25C204.379 656.55 203.966 656.777 203.499 656.93C203.033 657.083 202.549 657.16 202.049 657.16ZM210.654 646.58C211.3 646.58 211.894 646.683 212.434 646.89C212.98 647.097 213.45 647.4 213.844 647.8C214.237 648.193 214.544 648.68 214.764 649.26C214.984 649.833 215.094 650.49 215.094 651.23C215.094 651.417 215.084 651.573 215.064 651.7C215.05 651.82 215.02 651.917 214.974 651.99C214.934 652.057 214.877 652.107 214.804 652.14C214.73 652.167 214.637 652.18 214.524 652.18H208.184C208.257 653.233 208.54 654.007 209.034 654.5C209.527 654.993 210.18 655.24 210.994 655.24C211.394 655.24 211.737 655.193 212.024 655.1C212.317 655.007 212.57 654.903 212.784 654.79C213.004 654.677 213.194 654.573 213.354 654.48C213.52 654.387 213.68 654.34 213.834 654.34C213.934 654.34 214.02 654.36 214.094 654.4C214.167 654.44 214.23 654.497 214.284 654.57L215.004 655.47C214.73 655.79 214.424 656.06 214.084 656.28C213.744 656.493 213.387 656.667 213.014 656.8C212.647 656.927 212.27 657.017 211.884 657.07C211.504 657.123 211.134 657.15 210.774 657.15C210.06 657.15 209.397 657.033 208.784 656.8C208.17 656.56 207.637 656.21 207.184 655.75C206.73 655.283 206.374 654.71 206.114 654.03C205.854 653.343 205.724 652.55 205.724 651.65C205.724 650.95 205.837 650.293 206.064 649.68C206.29 649.06 206.614 648.523 207.034 648.07C207.46 647.61 207.977 647.247 208.584 646.98C209.197 646.713 209.887 646.58 210.654 646.58ZM210.704 648.35C209.984 648.35 209.42 648.553 209.014 648.96C208.607 649.367 208.347 649.943 208.234 650.69H212.874C212.874 650.37 212.83 650.07 212.744 649.79C212.657 649.503 212.524 649.253 212.344 649.04C212.164 648.827 211.937 648.66 211.664 648.54C211.39 648.413 211.07 648.35 210.704 648.35ZM217.097 657V646.74H218.547C218.801 646.74 218.977 646.787 219.077 646.88C219.177 646.973 219.244 647.133 219.277 647.36L219.427 648.6C219.794 647.967 220.224 647.467 220.717 647.1C221.211 646.733 221.764 646.55 222.377 646.55C222.884 646.55 223.304 646.667 223.637 646.9L223.317 648.75C223.297 648.87 223.254 648.957 223.187 649.01C223.121 649.057 223.031 649.08 222.917 649.08C222.817 649.08 222.681 649.057 222.507 649.01C222.334 648.963 222.104 648.94 221.817 648.94C221.304 648.94 220.864 649.083 220.497 649.37C220.131 649.65 219.821 650.063 219.567 650.61V657H217.097Z" fill="white"/>
<circle opacity="0.1" cx="310.5" cy="649.5" r="22.5" fill="white"/>
<path d="M311.793 643.179C311.527 642.932 311.104 642.942 310.851 643.202C310.597 643.462 310.607 643.873 310.874 644.121L315.988 648.85H302.667C302.299 648.85 302 649.141 302 649.5C302 649.859 302.299 650.15 302.667 650.15H315.966L310.874 654.879C310.607 655.127 310.597 655.538 310.851 655.798C310.982 655.932 311.157 656 311.333 656C311.499 656 311.664 655.941 311.793 655.821L317.609 650.419C317.861 650.174 318 649.847 318 649.5C318 649.152 317.861 648.826 317.598 648.57L311.793 643.179Z" fill="white"/>
<defs>
<clipPath id="clip0_218_41767">
<rect width="69.458" height="62.5122" fill="white" transform="translate(219.954 151)"/>
</clipPath>
</defs>
</svg>
