<svg width="375" height="812" viewBox="0 0 375 812" fill="none" xmlns="http://www.w3.org/2000/svg">
<g clip-path="url(#clip0_218_23368)">
<rect width="375" height="812" fill="white"/>
<rect width="375" height="812" fill="#FEFFEE"/>
<rect x="140" y="788" width="95.674" height="6.30817" rx="3.15409" fill="#E7E7E7"/>
<rect x="31.5" y="694.5" width="311" height="59" rx="29.5" stroke="#5B5B5B"/>
<path d="M166.412 731.78H172.202V734H163.722V719.54H166.412V731.78ZM177.923 723.58C178.689 723.58 179.383 723.703 180.003 723.95C180.629 724.197 181.163 724.547 181.603 725C182.043 725.453 182.383 726.007 182.623 726.66C182.863 727.313 182.983 728.043 182.983 728.85C182.983 729.663 182.863 730.397 182.623 731.05C182.383 731.703 182.043 732.26 181.603 732.72C181.163 733.18 180.629 733.533 180.003 733.78C179.383 734.027 178.689 734.15 177.923 734.15C177.156 734.15 176.459 734.027 175.833 733.78C175.206 733.533 174.669 733.18 174.223 732.72C173.783 732.26 173.439 731.703 173.193 731.05C172.953 730.397 172.833 729.663 172.833 728.85C172.833 728.043 172.953 727.313 173.193 726.66C173.439 726.007 173.783 725.453 174.223 725C174.669 724.547 175.206 724.197 175.833 723.95C176.459 723.703 177.156 723.58 177.923 723.58ZM177.923 732.25C178.776 732.25 179.406 731.963 179.813 731.39C180.226 730.817 180.433 729.977 180.433 728.87C180.433 727.763 180.226 726.92 179.813 726.34C179.406 725.76 178.776 725.47 177.923 725.47C177.056 725.47 176.416 725.763 176.003 726.35C175.589 726.93 175.383 727.77 175.383 728.87C175.383 729.97 175.589 730.81 176.003 731.39C176.416 731.963 177.056 732.25 177.923 732.25ZM188.46 723.56C188.9 723.56 189.313 723.607 189.7 723.7C190.087 723.787 190.44 723.917 190.76 724.09H193.71V725.01C193.71 725.163 193.67 725.283 193.59 725.37C193.51 725.457 193.373 725.517 193.18 725.55L192.26 725.72C192.327 725.893 192.377 726.077 192.41 726.27C192.45 726.463 192.47 726.667 192.47 726.88C192.47 727.387 192.367 727.847 192.16 728.26C191.96 728.667 191.68 729.013 191.32 729.3C190.967 729.587 190.543 729.81 190.05 729.97C189.563 730.123 189.033 730.2 188.46 730.2C188.073 730.2 187.697 730.163 187.33 730.09C187.01 730.283 186.85 730.5 186.85 730.74C186.85 730.947 186.943 731.1 187.13 731.2C187.323 731.293 187.573 731.36 187.88 731.4C188.193 731.44 188.547 731.467 188.94 731.48C189.333 731.487 189.737 731.507 190.15 731.54C190.563 731.573 190.967 731.633 191.36 731.72C191.753 731.8 192.103 731.93 192.41 732.11C192.723 732.29 192.973 732.537 193.16 732.85C193.353 733.157 193.45 733.553 193.45 734.04C193.45 734.493 193.337 734.933 193.11 735.36C192.89 735.787 192.567 736.167 192.14 736.5C191.72 736.833 191.203 737.1 190.59 737.3C189.977 737.507 189.277 737.61 188.49 737.61C187.71 737.61 187.033 737.533 186.46 737.38C185.887 737.233 185.41 737.033 185.03 736.78C184.657 736.533 184.377 736.247 184.19 735.92C184.003 735.593 183.91 735.253 183.91 734.9C183.91 734.42 184.057 734.017 184.35 733.69C184.643 733.363 185.05 733.103 185.57 732.91C185.317 732.77 185.113 732.583 184.96 732.35C184.807 732.117 184.73 731.813 184.73 731.44C184.73 731.287 184.757 731.13 184.81 730.97C184.863 730.803 184.943 730.64 185.05 730.48C185.163 730.32 185.303 730.17 185.47 730.03C185.637 729.883 185.833 729.753 186.06 729.64C185.54 729.36 185.13 728.987 184.83 728.52C184.537 728.053 184.39 727.507 184.39 726.88C184.39 726.373 184.49 725.917 184.69 725.51C184.897 725.097 185.18 724.747 185.54 724.46C185.907 724.167 186.337 723.943 186.83 723.79C187.33 723.637 187.873 723.56 188.46 723.56ZM191.17 734.46C191.17 734.26 191.11 734.097 190.99 733.97C190.87 733.843 190.707 733.747 190.5 733.68C190.293 733.607 190.05 733.553 189.77 733.52C189.497 733.487 189.203 733.463 188.89 733.45C188.583 733.43 188.263 733.413 187.93 733.4C187.603 733.38 187.287 733.35 186.98 733.31C186.7 733.463 186.473 733.647 186.3 733.86C186.133 734.067 186.05 734.307 186.05 734.58C186.05 734.76 186.093 734.927 186.18 735.08C186.273 735.24 186.417 735.377 186.61 735.49C186.81 735.603 187.067 735.69 187.38 735.75C187.693 735.817 188.077 735.85 188.53 735.85C188.99 735.85 189.387 735.813 189.72 735.74C190.053 735.673 190.327 735.577 190.54 735.45C190.76 735.33 190.92 735.183 191.02 735.01C191.12 734.843 191.17 734.66 191.17 734.46ZM188.46 728.62C188.767 728.62 189.033 728.58 189.26 728.5C189.487 728.413 189.673 728.297 189.82 728.15C189.973 728.003 190.087 727.827 190.16 727.62C190.24 727.413 190.28 727.187 190.28 726.94C190.28 726.433 190.127 726.033 189.82 725.74C189.52 725.44 189.067 725.29 188.46 725.29C187.853 725.29 187.397 725.44 187.09 725.74C186.79 726.033 186.64 726.433 186.64 726.94C186.64 727.18 186.677 727.403 186.75 727.61C186.83 727.817 186.943 727.997 187.09 728.15C187.243 728.297 187.433 728.413 187.66 728.5C187.893 728.58 188.16 728.62 188.46 728.62ZM197.891 723.74V734H195.421V723.74H197.891ZM198.261 720.75C198.261 720.963 198.218 721.163 198.131 721.35C198.045 721.537 197.928 721.7 197.781 721.84C197.641 721.98 197.475 722.093 197.281 722.18C197.088 722.26 196.881 722.3 196.661 722.3C196.448 722.3 196.245 722.26 196.051 722.18C195.865 722.093 195.701 721.98 195.561 721.84C195.421 721.7 195.308 721.537 195.221 721.35C195.141 721.163 195.101 720.963 195.101 720.75C195.101 720.53 195.141 720.323 195.221 720.13C195.308 719.937 195.421 719.77 195.561 719.63C195.701 719.49 195.865 719.38 196.051 719.3C196.245 719.213 196.448 719.17 196.661 719.17C196.881 719.17 197.088 719.213 197.281 719.3C197.475 719.38 197.641 719.49 197.781 719.63C197.928 719.77 198.045 719.937 198.131 720.13C198.218 720.323 198.261 720.53 198.261 720.75ZM200.691 734V723.74H202.201C202.521 723.74 202.731 723.89 202.831 724.19L203.001 725C203.208 724.787 203.424 724.593 203.651 724.42C203.884 724.247 204.128 724.097 204.381 723.97C204.641 723.843 204.918 723.747 205.211 723.68C205.504 723.613 205.824 723.58 206.171 723.58C206.731 723.58 207.228 723.677 207.661 723.87C208.094 724.057 208.454 724.323 208.741 724.67C209.034 725.01 209.254 725.42 209.401 725.9C209.554 726.373 209.631 726.897 209.631 727.47V734H207.161V727.47C207.161 726.843 207.014 726.36 206.721 726.02C206.434 725.673 206.001 725.5 205.421 725.5C204.994 725.5 204.594 725.597 204.221 725.79C203.848 725.983 203.494 726.247 203.161 726.58V734H200.691Z" fill="#111111"/>
<rect x="31" y="622" width="312" height="60" rx="30" fill="black"/>
<path d="M153.299 654.35V660H150.609V645.54H155.019C156.005 645.54 156.849 645.643 157.549 645.85C158.255 646.05 158.832 646.333 159.279 646.7C159.732 647.067 160.062 647.507 160.269 648.02C160.482 648.527 160.589 649.087 160.589 649.7C160.589 650.187 160.515 650.647 160.369 651.08C160.229 651.513 160.022 651.907 159.749 652.26C159.482 652.613 159.149 652.923 158.749 653.19C158.355 653.457 157.905 653.67 157.399 653.83C157.739 654.023 158.032 654.3 158.279 654.66L161.899 660H159.479C159.245 660 159.045 659.953 158.879 659.86C158.719 659.767 158.582 659.633 158.469 659.46L155.429 654.83C155.315 654.657 155.189 654.533 155.049 654.46C154.915 654.387 154.715 654.35 154.449 654.35H153.299ZM153.299 652.42H154.979C155.485 652.42 155.925 652.357 156.299 652.23C156.679 652.103 156.989 651.93 157.229 651.71C157.475 651.483 157.659 651.217 157.779 650.91C157.899 650.603 157.959 650.267 157.959 649.9C157.959 649.167 157.715 648.603 157.229 648.21C156.749 647.817 156.012 647.62 155.019 647.62H153.299V652.42ZM167.724 649.58C168.371 649.58 168.964 649.683 169.504 649.89C170.051 650.097 170.521 650.4 170.914 650.8C171.307 651.193 171.614 651.68 171.834 652.26C172.054 652.833 172.164 653.49 172.164 654.23C172.164 654.417 172.154 654.573 172.134 654.7C172.121 654.82 172.091 654.917 172.044 654.99C172.004 655.057 171.947 655.107 171.874 655.14C171.801 655.167 171.707 655.18 171.594 655.18H165.254C165.327 656.233 165.611 657.007 166.104 657.5C166.597 657.993 167.251 658.24 168.064 658.24C168.464 658.24 168.807 658.193 169.094 658.1C169.387 658.007 169.641 657.903 169.854 657.79C170.074 657.677 170.264 657.573 170.424 657.48C170.591 657.387 170.751 657.34 170.904 657.34C171.004 657.34 171.091 657.36 171.164 657.4C171.237 657.44 171.301 657.497 171.354 657.57L172.074 658.47C171.801 658.79 171.494 659.06 171.154 659.28C170.814 659.493 170.457 659.667 170.084 659.8C169.717 659.927 169.341 660.017 168.954 660.07C168.574 660.123 168.204 660.15 167.844 660.15C167.131 660.15 166.467 660.033 165.854 659.8C165.241 659.56 164.707 659.21 164.254 658.75C163.801 658.283 163.444 657.71 163.184 657.03C162.924 656.343 162.794 655.55 162.794 654.65C162.794 653.95 162.907 653.293 163.134 652.68C163.361 652.06 163.684 651.523 164.104 651.07C164.531 650.61 165.047 650.247 165.654 649.98C166.267 649.713 166.957 649.58 167.724 649.58ZM167.774 651.35C167.054 651.35 166.491 651.553 166.084 651.96C165.677 652.367 165.417 652.943 165.304 653.69H169.944C169.944 653.37 169.901 653.07 169.814 652.79C169.727 652.503 169.594 652.253 169.414 652.04C169.234 651.827 169.007 651.66 168.734 651.54C168.461 651.413 168.141 651.35 167.774 651.35ZM177.718 649.56C178.158 649.56 178.571 649.607 178.958 649.7C179.344 649.787 179.698 649.917 180.018 650.09H182.968V651.01C182.968 651.163 182.928 651.283 182.848 651.37C182.768 651.457 182.631 651.517 182.438 651.55L181.518 651.72C181.584 651.893 181.634 652.077 181.668 652.27C181.708 652.463 181.728 652.667 181.728 652.88C181.728 653.387 181.624 653.847 181.418 654.26C181.218 654.667 180.938 655.013 180.578 655.3C180.224 655.587 179.801 655.81 179.308 655.97C178.821 656.123 178.291 656.2 177.718 656.2C177.331 656.2 176.954 656.163 176.588 656.09C176.268 656.283 176.108 656.5 176.108 656.74C176.108 656.947 176.201 657.1 176.388 657.2C176.581 657.293 176.831 657.36 177.138 657.4C177.451 657.44 177.804 657.467 178.198 657.48C178.591 657.487 178.994 657.507 179.408 657.54C179.821 657.573 180.224 657.633 180.618 657.72C181.011 657.8 181.361 657.93 181.668 658.11C181.981 658.29 182.231 658.537 182.418 658.85C182.611 659.157 182.708 659.553 182.708 660.04C182.708 660.493 182.594 660.933 182.368 661.36C182.148 661.787 181.824 662.167 181.398 662.5C180.978 662.833 180.461 663.1 179.848 663.3C179.234 663.507 178.534 663.61 177.748 663.61C176.968 663.61 176.291 663.533 175.718 663.38C175.144 663.233 174.668 663.033 174.288 662.78C173.914 662.533 173.634 662.247 173.448 661.92C173.261 661.593 173.168 661.253 173.168 660.9C173.168 660.42 173.314 660.017 173.608 659.69C173.901 659.363 174.308 659.103 174.828 658.91C174.574 658.77 174.371 658.583 174.218 658.35C174.064 658.117 173.988 657.813 173.988 657.44C173.988 657.287 174.014 657.13 174.068 656.97C174.121 656.803 174.201 656.64 174.308 656.48C174.421 656.32 174.561 656.17 174.728 656.03C174.894 655.883 175.091 655.753 175.318 655.64C174.798 655.36 174.388 654.987 174.088 654.52C173.794 654.053 173.648 653.507 173.648 652.88C173.648 652.373 173.748 651.917 173.948 651.51C174.154 651.097 174.438 650.747 174.798 650.46C175.164 650.167 175.594 649.943 176.088 649.79C176.588 649.637 177.131 649.56 177.718 649.56ZM180.428 660.46C180.428 660.26 180.368 660.097 180.248 659.97C180.128 659.843 179.964 659.747 179.758 659.68C179.551 659.607 179.308 659.553 179.028 659.52C178.754 659.487 178.461 659.463 178.148 659.45C177.841 659.43 177.521 659.413 177.188 659.4C176.861 659.38 176.544 659.35 176.238 659.31C175.958 659.463 175.731 659.647 175.558 659.86C175.391 660.067 175.308 660.307 175.308 660.58C175.308 660.76 175.351 660.927 175.438 661.08C175.531 661.24 175.674 661.377 175.868 661.49C176.068 661.603 176.324 661.69 176.638 661.75C176.951 661.817 177.334 661.85 177.788 661.85C178.248 661.85 178.644 661.813 178.978 661.74C179.311 661.673 179.584 661.577 179.798 661.45C180.018 661.33 180.178 661.183 180.278 661.01C180.378 660.843 180.428 660.66 180.428 660.46ZM177.718 654.62C178.024 654.62 178.291 654.58 178.518 654.5C178.744 654.413 178.931 654.297 179.078 654.15C179.231 654.003 179.344 653.827 179.418 653.62C179.498 653.413 179.538 653.187 179.538 652.94C179.538 652.433 179.384 652.033 179.078 651.74C178.778 651.44 178.324 651.29 177.718 651.29C177.111 651.29 176.654 651.44 176.348 651.74C176.048 652.033 175.898 652.433 175.898 652.94C175.898 653.18 175.934 653.403 176.008 653.61C176.088 653.817 176.201 653.997 176.348 654.15C176.501 654.297 176.691 654.413 176.918 654.5C177.151 654.58 177.418 654.62 177.718 654.62ZM187.149 649.74V660H184.679V649.74H187.149ZM187.519 646.75C187.519 646.963 187.476 647.163 187.389 647.35C187.303 647.537 187.186 647.7 187.039 647.84C186.899 647.98 186.733 648.093 186.539 648.18C186.346 648.26 186.139 648.3 185.919 648.3C185.706 648.3 185.503 648.26 185.309 648.18C185.123 648.093 184.959 647.98 184.819 647.84C184.679 647.7 184.566 647.537 184.479 647.35C184.399 647.163 184.359 646.963 184.359 646.75C184.359 646.53 184.399 646.323 184.479 646.13C184.566 645.937 184.679 645.77 184.819 645.63C184.959 645.49 185.123 645.38 185.309 645.3C185.503 645.213 185.706 645.17 185.919 645.17C186.139 645.17 186.346 645.213 186.539 645.3C186.733 645.38 186.899 645.49 187.039 645.63C187.186 645.77 187.303 645.937 187.389 646.13C187.476 646.323 187.519 646.53 187.519 646.75ZM196.039 651.74C195.972 651.847 195.902 651.923 195.829 651.97C195.756 652.01 195.662 652.03 195.549 652.03C195.429 652.03 195.299 651.997 195.159 651.93C195.026 651.863 194.869 651.79 194.689 651.71C194.509 651.623 194.302 651.547 194.069 651.48C193.842 651.413 193.572 651.38 193.259 651.38C192.772 651.38 192.389 651.483 192.109 651.69C191.829 651.897 191.689 652.167 191.689 652.5C191.689 652.72 191.759 652.907 191.899 653.06C192.046 653.207 192.236 653.337 192.469 653.45C192.709 653.563 192.979 653.667 193.279 653.76C193.579 653.847 193.886 653.943 194.199 654.05C194.512 654.157 194.819 654.28 195.119 654.42C195.419 654.553 195.686 654.727 195.919 654.94C196.159 655.147 196.349 655.397 196.489 655.69C196.636 655.983 196.709 656.337 196.709 656.75C196.709 657.243 196.619 657.7 196.439 658.12C196.259 658.533 195.996 658.893 195.649 659.2C195.302 659.5 194.872 659.737 194.359 659.91C193.852 660.077 193.269 660.16 192.609 660.16C192.256 660.16 191.909 660.127 191.569 660.06C191.236 660 190.912 659.913 190.599 659.8C190.292 659.687 190.006 659.553 189.739 659.4C189.479 659.247 189.249 659.08 189.049 658.9L189.619 657.96C189.692 657.847 189.779 657.76 189.879 657.7C189.979 657.64 190.106 657.61 190.259 657.61C190.412 657.61 190.556 657.653 190.689 657.74C190.829 657.827 190.989 657.92 191.169 658.02C191.349 658.12 191.559 658.213 191.799 658.3C192.046 658.387 192.356 658.43 192.729 658.43C193.022 658.43 193.272 658.397 193.479 658.33C193.692 658.257 193.866 658.163 193.999 658.05C194.139 657.937 194.239 657.807 194.299 657.66C194.366 657.507 194.399 657.35 194.399 657.19C194.399 656.95 194.326 656.753 194.179 656.6C194.039 656.447 193.849 656.313 193.609 656.2C193.376 656.087 193.106 655.987 192.799 655.9C192.499 655.807 192.189 655.707 191.869 655.6C191.556 655.493 191.246 655.37 190.939 655.23C190.639 655.083 190.369 654.9 190.129 654.68C189.896 654.46 189.706 654.19 189.559 653.87C189.419 653.55 189.349 653.163 189.349 652.71C189.349 652.29 189.432 651.89 189.599 651.51C189.766 651.13 190.009 650.8 190.329 650.52C190.656 650.233 191.059 650.007 191.539 649.84C192.026 649.667 192.586 649.58 193.219 649.58C193.926 649.58 194.569 649.697 195.149 649.93C195.729 650.163 196.212 650.47 196.599 650.85L196.039 651.74ZM202.049 660.16C201.163 660.16 200.479 659.91 199.999 659.41C199.519 658.903 199.279 658.207 199.279 657.32V651.59H198.239C198.106 651.59 197.989 651.547 197.889 651.46C197.796 651.373 197.749 651.243 197.749 651.07V650.09L199.399 649.82L199.919 647.02C199.946 646.887 200.006 646.783 200.099 646.71C200.199 646.637 200.323 646.6 200.469 646.6H201.749V649.83H204.449V651.59H201.749V657.15C201.749 657.47 201.829 657.72 201.989 657.9C202.149 658.08 202.363 658.17 202.629 658.17C202.783 658.17 202.909 658.153 203.009 658.12C203.116 658.08 203.206 658.04 203.279 658C203.359 657.96 203.429 657.923 203.489 657.89C203.549 657.85 203.609 657.83 203.669 657.83C203.743 657.83 203.803 657.85 203.849 657.89C203.896 657.923 203.946 657.977 203.999 658.05L204.739 659.25C204.379 659.55 203.966 659.777 203.499 659.93C203.033 660.083 202.549 660.16 202.049 660.16ZM210.654 649.58C211.3 649.58 211.894 649.683 212.434 649.89C212.98 650.097 213.45 650.4 213.844 650.8C214.237 651.193 214.544 651.68 214.764 652.26C214.984 652.833 215.094 653.49 215.094 654.23C215.094 654.417 215.084 654.573 215.064 654.7C215.05 654.82 215.02 654.917 214.974 654.99C214.934 655.057 214.877 655.107 214.804 655.14C214.73 655.167 214.637 655.18 214.524 655.18H208.184C208.257 656.233 208.54 657.007 209.034 657.5C209.527 657.993 210.18 658.24 210.994 658.24C211.394 658.24 211.737 658.193 212.024 658.1C212.317 658.007 212.57 657.903 212.784 657.79C213.004 657.677 213.194 657.573 213.354 657.48C213.52 657.387 213.68 657.34 213.834 657.34C213.934 657.34 214.02 657.36 214.094 657.4C214.167 657.44 214.23 657.497 214.284 657.57L215.004 658.47C214.73 658.79 214.424 659.06 214.084 659.28C213.744 659.493 213.387 659.667 213.014 659.8C212.647 659.927 212.27 660.017 211.884 660.07C211.504 660.123 211.134 660.15 210.774 660.15C210.06 660.15 209.397 660.033 208.784 659.8C208.17 659.56 207.637 659.21 207.184 658.75C206.73 658.283 206.374 657.71 206.114 657.03C205.854 656.343 205.724 655.55 205.724 654.65C205.724 653.95 205.837 653.293 206.064 652.68C206.29 652.06 206.614 651.523 207.034 651.07C207.46 650.61 207.977 650.247 208.584 649.98C209.197 649.713 209.887 649.58 210.654 649.58ZM210.704 651.35C209.984 651.35 209.42 651.553 209.014 651.96C208.607 652.367 208.347 652.943 208.234 653.69H212.874C212.874 653.37 212.83 653.07 212.744 652.79C212.657 652.503 212.524 652.253 212.344 652.04C212.164 651.827 211.937 651.66 211.664 651.54C211.39 651.413 211.07 651.35 210.704 651.35ZM217.097 660V649.74H218.547C218.801 649.74 218.977 649.787 219.077 649.88C219.177 649.973 219.244 650.133 219.277 650.36L219.427 651.6C219.794 650.967 220.224 650.467 220.717 650.1C221.211 649.733 221.764 649.55 222.377 649.55C222.884 649.55 223.304 649.667 223.637 649.9L223.317 651.75C223.297 651.87 223.254 651.957 223.187 652.01C223.121 652.057 223.031 652.08 222.917 652.08C222.817 652.08 222.681 652.057 222.507 652.01C222.334 651.963 222.104 651.94 221.817 651.94C221.304 651.94 220.864 652.083 220.497 652.37C220.131 652.65 219.821 653.063 219.567 653.61V660H217.097Z" fill="white"/>
<circle opacity="0.1" cx="310.5" cy="652.5" r="22.5" fill="white"/>
<path d="M311.793 646.179C311.527 645.932 311.104 645.942 310.851 646.202C310.597 646.462 310.607 646.873 310.874 647.121L315.988 651.85H302.667C302.299 651.85 302 652.141 302 652.5C302 652.859 302.299 653.15 302.667 653.15H315.966L310.874 657.879C310.607 658.127 310.597 658.538 310.851 658.798C310.982 658.932 311.157 659 311.333 659C311.499 659 311.664 658.941 311.793 658.821L317.609 653.419C317.861 653.174 318 652.847 318 652.5C318 652.152 317.861 651.826 317.598 651.57L311.793 646.179Z" fill="white"/>
<path d="M95.1363 583.54V585.75H90.7863V598H88.0963V585.75H83.7263V583.54H95.1363ZM99.6209 592.35V598H96.9309V583.54H101.341C102.328 583.54 103.171 583.643 103.871 583.85C104.578 584.05 105.154 584.333 105.601 584.7C106.054 585.067 106.384 585.507 106.591 586.02C106.804 586.527 106.911 587.087 106.911 587.7C106.911 588.187 106.838 588.647 106.691 589.08C106.551 589.513 106.344 589.907 106.071 590.26C105.804 590.613 105.471 590.923 105.071 591.19C104.678 591.457 104.228 591.67 103.721 591.83C104.061 592.023 104.354 592.3 104.601 592.66L108.221 598H105.801C105.568 598 105.368 597.953 105.201 597.86C105.041 597.767 104.904 597.633 104.791 597.46L101.751 592.83C101.638 592.657 101.511 592.533 101.371 592.46C101.238 592.387 101.038 592.35 100.771 592.35H99.6209ZM99.6209 590.42H101.301C101.808 590.42 102.248 590.357 102.621 590.23C103.001 590.103 103.311 589.93 103.551 589.71C103.798 589.483 103.981 589.217 104.101 588.91C104.221 588.603 104.281 588.267 104.281 587.9C104.281 587.167 104.038 586.603 103.551 586.21C103.071 585.817 102.334 585.62 101.341 585.62H99.6209V590.42ZM122.656 598H120.576C120.343 598 120.15 597.943 119.996 597.83C119.85 597.71 119.743 597.563 119.676 597.39L118.596 594.44H112.606L111.526 597.39C111.473 597.543 111.366 597.683 111.206 597.81C111.053 597.937 110.863 598 110.636 598H108.546L114.226 583.54H116.976L122.656 598ZM113.296 592.54H117.906L116.146 587.73C116.066 587.517 115.976 587.267 115.876 586.98C115.783 586.687 115.69 586.37 115.596 586.03C115.503 586.37 115.41 586.687 115.316 586.98C115.23 587.273 115.143 587.53 115.056 587.75L113.296 592.54ZM121.026 583.54H123.196C123.43 583.54 123.62 583.597 123.766 583.71C123.913 583.823 124.023 583.97 124.096 584.15L127.496 592.97C127.61 593.257 127.716 593.573 127.816 593.92C127.923 594.26 128.023 594.62 128.116 595C128.27 594.233 128.46 593.557 128.686 592.97L132.076 584.15C132.136 583.997 132.243 583.857 132.396 583.73C132.55 583.603 132.74 583.54 132.966 583.54H135.136L129.296 598H126.866L121.026 583.54ZM145.766 583.54V585.68H139.356V589.69H144.406V591.76H139.356V595.85H145.766V598H136.646V583.54H145.766ZM150.781 595.78H156.571V598H148.091V583.54H150.781V595.78ZM160.95 583.54H163.21C163.443 583.54 163.637 583.597 163.79 583.71C163.95 583.817 164.057 583.963 164.11 584.15L166.57 592.8C166.63 593.013 166.683 593.247 166.73 593.5C166.783 593.747 166.833 594.01 166.88 594.29C166.933 594.01 166.99 593.747 167.05 593.5C167.117 593.247 167.187 593.013 167.26 592.8L170.1 584.15C170.153 583.997 170.257 583.857 170.41 583.73C170.57 583.603 170.763 583.54 170.99 583.54H171.78C172.013 583.54 172.207 583.597 172.36 583.71C172.513 583.817 172.62 583.963 172.68 584.15L175.5 592.8C175.647 593.227 175.773 593.7 175.88 594.22C175.927 593.96 175.973 593.71 176.02 593.47C176.073 593.23 176.127 593.007 176.18 592.8L178.64 584.15C178.687 583.983 178.79 583.84 178.95 583.72C179.11 583.6 179.303 583.54 179.53 583.54H181.64L177.15 598H174.72L171.56 588.12C171.52 587.993 171.477 587.857 171.43 587.71C171.39 587.563 171.35 587.407 171.31 587.24C171.27 587.407 171.227 587.563 171.18 587.71C171.14 587.857 171.1 587.993 171.06 588.12L167.87 598H165.44L160.95 583.54ZM186.258 598H183.558V583.54H186.258V598ZM199.707 583.54V585.75H195.357V598H192.667V585.75H188.297V583.54H199.707ZM213.611 598H210.901V591.68H204.121V598H201.411V583.54H204.121V589.76H210.901V583.54H213.611V598ZM228.146 586.17C228.072 586.317 227.986 586.42 227.886 586.48C227.792 586.54 227.679 586.57 227.546 586.57C227.412 586.57 227.262 586.52 227.096 586.42C226.929 586.313 226.732 586.197 226.506 586.07C226.279 585.943 226.012 585.83 225.706 585.73C225.406 585.623 225.049 585.57 224.636 585.57C224.262 585.57 223.936 585.617 223.656 585.71C223.382 585.797 223.149 585.92 222.956 586.08C222.769 586.24 222.629 586.433 222.536 586.66C222.442 586.88 222.396 587.123 222.396 587.39C222.396 587.73 222.489 588.013 222.676 588.24C222.869 588.467 223.122 588.66 223.436 588.82C223.749 588.98 224.106 589.123 224.506 589.25C224.906 589.377 225.312 589.513 225.726 589.66C226.146 589.8 226.556 589.967 226.956 590.16C227.356 590.347 227.712 590.587 228.026 590.88C228.339 591.167 228.589 591.52 228.776 591.94C228.969 592.36 229.066 592.87 229.066 593.47C229.066 594.123 228.952 594.737 228.726 595.31C228.506 595.877 228.179 596.373 227.746 596.8C227.319 597.22 226.796 597.553 226.176 597.8C225.556 598.04 224.846 598.16 224.046 598.16C223.586 598.16 223.132 598.113 222.686 598.02C222.239 597.933 221.809 597.807 221.396 597.64C220.989 597.473 220.606 597.273 220.246 597.04C219.892 596.807 219.576 596.547 219.296 596.26L220.076 594.97C220.149 594.877 220.236 594.8 220.336 594.74C220.442 594.673 220.559 594.64 220.686 594.64C220.852 594.64 221.032 594.71 221.226 594.85C221.419 594.983 221.646 595.133 221.906 595.3C222.172 595.467 222.482 595.62 222.836 595.76C223.196 595.893 223.626 595.96 224.126 595.96C224.892 595.96 225.486 595.78 225.906 595.42C226.326 595.053 226.536 594.53 226.536 593.85C226.536 593.47 226.439 593.16 226.246 592.92C226.059 592.68 225.809 592.48 225.496 592.32C225.182 592.153 224.826 592.013 224.426 591.9C224.026 591.787 223.619 591.663 223.206 591.53C222.792 591.397 222.386 591.237 221.986 591.05C221.586 590.863 221.229 590.62 220.916 590.32C220.602 590.02 220.349 589.647 220.156 589.2C219.969 588.747 219.876 588.19 219.876 587.53C219.876 587.003 219.979 586.49 220.186 585.99C220.399 585.49 220.706 585.047 221.106 584.66C221.512 584.273 222.009 583.963 222.596 583.73C223.182 583.497 223.852 583.38 224.606 583.38C225.459 583.38 226.246 583.513 226.966 583.78C227.686 584.047 228.299 584.42 228.806 584.9L228.146 586.17ZM243.828 598H241.748C241.515 598 241.322 597.943 241.168 597.83C241.022 597.71 240.915 597.563 240.848 597.39L239.768 594.44H233.778L232.698 597.39C232.645 597.543 232.538 597.683 232.378 597.81C232.225 597.937 232.035 598 231.808 598H229.718L235.398 583.54H238.148L243.828 598ZM234.468 592.54H239.078L237.318 587.73C237.238 587.517 237.148 587.267 237.048 586.98C236.955 586.687 236.862 586.37 236.768 586.03C236.675 586.37 236.582 586.687 236.488 586.98C236.402 587.273 236.315 587.53 236.228 587.75L234.468 592.54ZM254.437 583.54V585.68H248.027V589.96H253.437V592.11H248.027V598H245.317V583.54H254.437ZM265.668 583.54V585.68H259.258V589.69H264.308V591.76H259.258V595.85H265.668V598H256.548V583.54H265.668ZM278.183 583.54V585.75H273.833V598H271.143V585.75H266.773V583.54H278.183ZM286.318 592.38V598H283.628V592.38L278.358 583.54H280.728C280.961 583.54 281.144 583.597 281.278 583.71C281.418 583.823 281.534 583.967 281.628 584.14L284.278 588.97C284.431 589.257 284.564 589.53 284.678 589.79C284.791 590.043 284.894 590.293 284.988 590.54C285.074 590.287 285.171 590.033 285.278 589.78C285.391 589.52 285.524 589.25 285.678 588.97L288.308 584.14C288.381 583.993 288.491 583.857 288.638 583.73C288.784 583.603 288.971 583.54 289.198 583.54H291.578L286.318 592.38Z" fill="#111111"/>
<path d="M92.5 0.0204082H292.5C292.5 0.0204082 290 -0.979591 289.773 11.0204C289.545 23.0204 284.075 28.0204 277.045 28.0204H107.955C100.925 28.0204 95.4545 23.0204 95.2273 11.0204C95 -0.979591 92.5 0.0204082 92.5 0.0204082Z" fill="#DDDDDD"/>
<g opacity="0.1">
<path fill-rule="evenodd" clip-rule="evenodd" d="M339.172 13H352.535C353.102 13 353.645 13.2251 354.046 13.6259C354.447 14.0267 354.672 14.5702 354.672 15.137V19.946C354.672 20.5128 354.447 21.0563 354.046 21.4571C353.645 21.8579 353.102 22.083 352.535 22.083H339.172C338.605 22.083 338.062 21.8579 337.661 21.4571C337.26 21.0563 337.035 20.5128 337.035 19.946V15.137C337.035 14.5702 337.26 14.0267 337.661 13.6259C338.062 13.2251 338.605 13 339.172 13Z" fill="black"/>
</g>
<path d="M355.469 15.939V19.145C355.784 19.0124 356.053 18.7899 356.242 18.5053C356.431 18.2208 356.532 17.8868 356.533 17.545C356.533 17.2023 356.433 16.867 356.243 16.5812C356.054 16.2955 355.785 16.0721 355.469 15.939" fill="#111111"/>
<path d="M339.707 14.603H351.997C352.28 14.603 352.552 14.7157 352.753 14.9161C352.953 15.1166 353.066 15.3885 353.066 15.672V19.412C353.066 19.6955 352.953 19.9674 352.753 20.1679C352.552 20.3684 352.28 20.481 351.997 20.481H339.707C339.423 20.481 339.151 20.3684 338.951 20.1679C338.75 19.9674 338.638 19.6955 338.638 19.412V15.67C338.638 15.3869 338.751 15.1155 338.952 14.9154C339.152 14.7154 339.424 14.603 339.707 14.603V14.603Z" fill="#111111"/>
<path d="M326.475 14.8221C328.251 14.8221 329.959 15.5045 331.246 16.7281C331.293 16.7737 331.355 16.7993 331.42 16.7993C331.485 16.7993 331.547 16.7737 331.593 16.7281L332.52 15.7931C332.544 15.769 332.563 15.7404 332.576 15.709C332.589 15.6776 332.596 15.644 332.595 15.6101C332.595 15.5761 332.588 15.5426 332.575 15.5114C332.562 15.4802 332.543 15.4518 332.518 15.4281C330.892 13.8699 328.728 13 326.475 13C324.223 13 322.058 13.8699 320.432 15.4281C320.408 15.4518 320.389 15.4802 320.376 15.5114C320.363 15.5426 320.356 15.5761 320.355 15.6101C320.355 15.644 320.362 15.6776 320.375 15.709C320.388 15.7404 320.407 15.769 320.43 15.7931L321.357 16.7281C321.404 16.7737 321.466 16.7993 321.531 16.7993C321.596 16.7993 321.658 16.7737 321.704 16.7281C322.992 15.5042 324.7 14.8219 326.476 14.8221H326.475ZM326.475 17.8641C327.451 17.8641 328.392 18.227 329.115 18.8821C329.162 18.9272 329.224 18.9525 329.289 18.9525C329.354 18.9525 329.416 18.9272 329.462 18.8821L330.387 17.9471C330.412 17.9227 330.431 17.8939 330.444 17.8621C330.456 17.8303 330.463 17.7963 330.462 17.7621C330.462 17.7278 330.455 17.694 330.441 17.6626C330.428 17.6312 330.408 17.6028 330.383 17.5791C329.322 16.5915 327.925 16.0425 326.475 16.0425C325.025 16.0425 323.629 16.5915 322.567 17.5791C322.543 17.6028 322.523 17.6312 322.51 17.6626C322.496 17.694 322.489 17.7278 322.488 17.7621C322.488 17.7963 322.494 17.8303 322.507 17.8621C322.52 17.8939 322.539 17.9227 322.563 17.9471L323.488 18.8821C323.535 18.9272 323.597 18.9525 323.662 18.9525C323.727 18.9525 323.789 18.9272 323.835 18.8821C324.558 18.2274 325.498 17.8646 326.473 17.8641H326.475ZM328.254 20.0961C328.279 20.072 328.298 20.0432 328.311 20.0113C328.324 19.9795 328.33 19.9454 328.329 19.9111C328.329 19.8767 328.321 19.8428 328.307 19.8115C328.293 19.7802 328.272 19.7521 328.246 19.7291C327.751 19.3102 327.124 19.0804 326.475 19.0804C325.827 19.0804 325.2 19.3102 324.704 19.7291C324.679 19.752 324.659 19.7798 324.644 19.811C324.63 19.8421 324.622 19.8758 324.621 19.9101C324.621 19.9444 324.627 19.9785 324.64 20.0103C324.653 20.0422 324.672 20.071 324.696 20.0951L326.296 21.7111C326.32 21.7346 326.347 21.7532 326.378 21.7659C326.409 21.7786 326.441 21.7851 326.474 21.7851C326.508 21.7851 326.54 21.7786 326.571 21.7659C326.601 21.7532 326.629 21.7346 326.652 21.7111L328.254 20.0961Z" fill="#111111"/>
<path d="M22.294 18.472C21.97 18.472 21.662 18.418 21.37 18.31C21.082 18.202 20.828 18.044 20.608 17.836C20.388 17.624 20.212 17.366 20.08 17.062C19.952 16.754 19.888 16.402 19.888 16.006C19.888 15.63 19.958 15.278 20.098 14.95C20.238 14.622 20.434 14.336 20.686 14.092C20.938 13.848 21.238 13.656 21.586 13.516C21.934 13.376 22.316 13.306 22.732 13.306C23.144 13.306 23.518 13.374 23.854 13.51C24.19 13.646 24.478 13.836 24.718 14.08C24.958 14.324 25.142 14.616 25.27 14.956C25.402 15.296 25.468 15.672 25.468 16.084C25.468 16.332 25.444 16.568 25.396 16.792C25.352 17.012 25.286 17.228 25.198 17.44C25.11 17.652 25.004 17.864 24.88 18.076C24.76 18.284 24.622 18.5 24.466 18.724L22.372 21.748C22.32 21.824 22.246 21.886 22.15 21.934C22.054 21.978 21.944 22 21.82 22H20.836L23.452 18.574C23.54 18.458 23.622 18.348 23.698 18.244C23.774 18.14 23.846 18.036 23.914 17.932C23.694 18.108 23.446 18.242 23.17 18.334C22.894 18.426 22.602 18.472 22.294 18.472ZM24.442 15.958C24.442 15.69 24.398 15.448 24.31 15.232C24.226 15.012 24.108 14.826 23.956 14.674C23.804 14.522 23.622 14.406 23.41 14.326C23.202 14.242 22.972 14.2 22.72 14.2C22.456 14.2 22.214 14.244 21.994 14.332C21.778 14.416 21.592 14.534 21.436 14.686C21.284 14.838 21.166 15.02 21.082 15.232C20.998 15.444 20.956 15.676 20.956 15.928C20.956 16.2 20.994 16.444 21.07 16.66C21.15 16.872 21.262 17.052 21.406 17.2C21.554 17.348 21.732 17.46 21.94 17.536C22.152 17.612 22.388 17.65 22.648 17.65C22.936 17.65 23.19 17.604 23.41 17.512C23.634 17.416 23.822 17.29 23.974 17.134C24.126 16.978 24.242 16.798 24.322 16.594C24.402 16.39 24.442 16.178 24.442 15.958ZM26.7289 21.34C26.7289 21.236 26.7469 21.138 26.7829 21.046C26.8229 20.954 26.8749 20.874 26.9389 20.806C27.0069 20.738 27.0869 20.684 27.1789 20.644C27.2709 20.604 27.3689 20.584 27.4729 20.584C27.5769 20.584 27.6749 20.604 27.7669 20.644C27.8589 20.684 27.9389 20.738 28.0069 20.806C28.0749 20.874 28.1269 20.954 28.1629 21.046C28.2029 21.138 28.2229 21.236 28.2229 21.34C28.2229 21.448 28.2029 21.548 28.1629 21.64C28.1269 21.728 28.0749 21.806 28.0069 21.874C27.9389 21.942 27.8589 21.994 27.7669 22.03C27.6749 22.07 27.5769 22.09 27.4729 22.09C27.3689 22.09 27.2709 22.07 27.1789 22.03C27.0869 21.994 27.0069 21.942 26.9389 21.874C26.8749 21.806 26.8229 21.728 26.7829 21.64C26.7469 21.548 26.7289 21.448 26.7289 21.34ZM26.7289 16.84C26.7289 16.736 26.7469 16.638 26.7829 16.546C26.8229 16.454 26.8749 16.374 26.9389 16.306C27.0069 16.238 27.0869 16.184 27.1789 16.144C27.2709 16.104 27.3689 16.084 27.4729 16.084C27.5769 16.084 27.6749 16.104 27.7669 16.144C27.8589 16.184 27.9389 16.238 28.0069 16.306C28.0749 16.374 28.1269 16.454 28.1629 16.546C28.2029 16.638 28.2229 16.736 28.2229 16.84C28.2229 16.948 28.2029 17.048 28.1629 17.14C28.1269 17.228 28.0749 17.306 28.0069 17.374C27.9389 17.442 27.8589 17.496 27.7669 17.536C27.6749 17.572 27.5769 17.59 27.4729 17.59C27.3689 17.59 27.2709 17.572 27.1789 17.536C27.0869 17.496 27.0069 17.442 26.9389 17.374C26.8749 17.306 26.8229 17.228 26.7829 17.14C26.7469 17.048 26.7289 16.948 26.7289 16.84ZM34.4024 18.898H35.7044V19.51C35.7044 19.574 35.6844 19.628 35.6444 19.672C35.6084 19.716 35.5504 19.738 35.4704 19.738H34.4024V22H33.4604V19.738H29.6504C29.5704 19.738 29.5004 19.716 29.4404 19.672C29.3844 19.624 29.3484 19.566 29.3324 19.498L29.2244 18.952L33.4064 13.402H34.4024V18.898ZM33.4604 15.352C33.4604 15.248 33.4624 15.136 33.4664 15.016C33.4744 14.896 33.4884 14.772 33.5084 14.644L30.3824 18.898H33.4604V15.352ZM37.6673 21.184H39.5153V15.322C39.5153 15.146 39.5213 14.968 39.5333 14.788L37.9973 16.102C37.9573 16.134 37.9173 16.158 37.8773 16.174C37.8373 16.186 37.7993 16.192 37.7633 16.192C37.7033 16.192 37.6493 16.18 37.6013 16.156C37.5533 16.128 37.5173 16.096 37.4933 16.06L37.1573 15.598L39.7133 13.384H40.5833V21.184H42.2753V22H37.6673V21.184Z" fill="#111111"/>
<path d="M303.502 18.34H304.302C304.514 18.34 304.718 18.4243 304.868 18.5743C305.018 18.7243 305.102 18.9278 305.102 19.14V20.74C305.102 20.9522 305.018 21.1557 304.868 21.3057C304.718 21.4557 304.514 21.54 304.302 21.54H303.502C303.29 21.54 303.086 21.4557 302.936 21.3057C302.786 21.1557 302.702 20.9522 302.702 20.74V19.14C302.702 18.9278 302.786 18.7243 302.936 18.5743C303.086 18.4243 303.29 18.34 303.502 18.34V18.34ZM307.242 16.74H308.042C308.254 16.74 308.458 16.8243 308.608 16.9743C308.758 17.1243 308.842 17.3278 308.842 17.54V20.746C308.842 20.8511 308.821 20.9551 308.781 21.0521C308.741 21.1492 308.682 21.2374 308.608 21.3117C308.534 21.386 308.445 21.4449 308.348 21.4851C308.251 21.5253 308.147 21.546 308.042 21.546H307.242C307.137 21.546 307.033 21.5253 306.936 21.4851C306.839 21.4449 306.751 21.386 306.676 21.3117C306.602 21.2374 306.543 21.1492 306.503 21.0521C306.463 20.9551 306.442 20.8511 306.442 20.746V17.54C306.442 17.4347 306.462 17.3303 306.502 17.2329C306.542 17.1355 306.601 17.047 306.675 16.9724C306.75 16.8978 306.838 16.8386 306.935 16.7982C307.033 16.7578 307.137 16.737 307.242 16.737V16.74ZM310.982 14.87H311.782C311.887 14.87 311.991 14.8907 312.088 14.9309C312.185 14.9711 312.274 15.03 312.348 15.1043C312.422 15.1786 312.481 15.2668 312.521 15.3639C312.561 15.4609 312.582 15.5649 312.582 15.67V20.746C312.582 20.8511 312.561 20.9551 312.521 21.0521C312.481 21.1492 312.422 21.2374 312.348 21.3117C312.274 21.386 312.185 21.4449 312.088 21.4851C311.991 21.5253 311.887 21.546 311.782 21.546H310.982C310.877 21.546 310.773 21.5253 310.676 21.4851C310.579 21.4449 310.491 21.386 310.416 21.3117C310.342 21.2374 310.283 21.1492 310.243 21.0521C310.203 20.9551 310.182 20.8511 310.182 20.746V15.67C310.182 15.5646 310.202 15.4602 310.242 15.3627C310.282 15.2652 310.341 15.1766 310.416 15.102C310.49 15.0274 310.579 14.9682 310.676 14.9279C310.773 14.8876 310.878 14.8669 310.983 14.867L310.982 14.87ZM314.722 13H315.522C315.734 13 315.938 13.0843 316.088 13.2343C316.238 13.3843 316.322 13.5878 316.322 13.8V20.746C316.322 20.9582 316.238 21.1617 316.088 21.3117C315.938 21.4617 315.734 21.546 315.522 21.546H314.722C314.617 21.546 314.513 21.5253 314.416 21.4851C314.319 21.4449 314.231 21.386 314.156 21.3117C314.082 21.2374 314.023 21.1492 313.983 21.0521C313.943 20.9551 313.922 20.8511 313.922 20.746V13.8C313.922 13.6949 313.943 13.5909 313.983 13.4939C314.023 13.3968 314.082 13.3086 314.156 13.2343C314.231 13.16 314.319 13.1011 314.416 13.0609C314.513 13.0207 314.617 13 314.722 13V13Z" fill="#111111"/>
<path d="M122.026 147.366H133.316C134.196 147.366 134.978 147.155 135.661 146.735C136.344 146.314 136.867 145.721 137.232 144.955C137.611 144.173 137.801 143.28 137.801 142.273C137.801 141.267 137.611 140.38 137.232 139.614C136.867 138.833 136.344 138.232 135.661 137.812C134.993 137.391 134.212 137.181 133.316 137.181H122.026V132.81H133.134C135.046 132.81 136.723 133.2 138.165 133.981C139.622 134.762 140.745 135.874 141.534 137.316C142.338 138.743 142.74 140.395 142.74 142.273C142.74 144.151 142.338 145.811 141.534 147.253C140.729 148.68 139.599 149.784 138.142 150.565C136.7 151.346 135.031 151.737 133.134 151.737H122.026V147.366ZM120 132.81H124.644V165.594H120V132.81ZM131.04 150.723L135.661 149.686L144.129 165.594H138.62L131.04 150.723Z" fill="black"/>
<path d="M149.501 132.832H154.144V137.429H149.501V132.832ZM149.501 142.206H154.144V165.594H149.501V142.206Z" fill="black"/>
<path d="M174.631 132.832H179.275V165.594H174.631V132.832ZM168.69 166C166.96 166 165.48 165.632 164.251 164.896C163.037 164.145 162.111 163.056 161.474 161.629C160.837 160.202 160.518 158.489 160.518 156.491V151.331C160.518 149.318 160.829 147.598 161.451 146.171C162.073 144.744 162.976 143.663 164.16 142.927C165.359 142.176 166.793 141.8 168.462 141.8C169.858 141.8 171.133 142.161 172.286 142.882C173.455 143.603 174.396 144.617 175.109 145.923L174.631 150.7C174.631 149.709 174.449 148.86 174.085 148.154C173.72 147.448 173.189 146.915 172.491 146.554C171.808 146.179 170.974 145.991 169.987 145.991C168.455 145.991 167.263 146.464 166.414 147.411C165.579 148.357 165.162 149.686 165.162 151.399V156.491C165.162 158.189 165.579 159.503 166.414 160.434C167.263 161.351 168.455 161.809 169.987 161.809C170.974 161.809 171.808 161.621 172.491 161.246C173.189 160.855 173.72 160.299 174.085 159.578C174.449 158.857 174.631 157.993 174.631 156.987L174.95 161.922C174.479 163.078 173.705 164.047 172.628 164.828C171.566 165.609 170.253 166 168.69 166Z" fill="black"/>
<path d="M196.005 165.932C193.82 165.932 191.954 165.527 190.406 164.716C188.858 163.904 187.674 162.718 186.855 161.155C186.05 159.578 185.648 157.678 185.648 155.455V152.818C185.648 150.505 186.035 148.53 186.809 146.892C187.598 145.255 188.736 144.008 190.224 143.152C191.711 142.296 193.501 141.868 195.596 141.868C197.568 141.868 199.253 142.356 200.649 143.332C202.045 144.309 203.107 145.721 203.836 147.568C204.579 149.416 204.951 151.632 204.951 154.215V155.748H189.017V152.052H200.535C200.399 150.145 199.898 148.665 199.033 147.613C198.183 146.547 197.037 146.014 195.596 146.014C193.835 146.014 192.47 146.584 191.498 147.726C190.542 148.868 190.064 150.483 190.064 152.571V155.545C190.064 157.483 190.58 158.97 191.612 160.006C192.644 161.043 194.108 161.561 196.005 161.561C196.946 161.561 197.88 161.373 198.805 160.998C199.731 160.622 200.558 160.096 201.286 159.42L204.337 162.44C203.168 163.551 201.855 164.415 200.399 165.031C198.942 165.632 197.477 165.932 196.005 165.932Z" fill="black"/>
<g clip-path="url(#clip1_218_23368)">
<path d="M208.902 165.78L253.41 125L211.854 165.78H208.902Z" fill="#D7DF23"/>
<path d="M225.706 165.78L254.091 125.661L228.204 166L225.706 165.78Z" fill="#D7DF23"/>
<path d="M212.536 136.462H223.89L231.611 143.957L226.047 149.137L212.536 136.462Z" fill="black"/>
<path d="M238.877 150.57L255 166H244.1L234.562 157.183L238.877 150.57Z" fill="black"/>
<path d="M218.213 164.898L220.711 161.591H223.436L221.165 164.898H218.213Z" fill="black"/>
<path d="M222.981 159.608L224.98 156.962H227.16L225.343 159.608H222.981Z" fill="black"/>
<path d="M226.614 155.419L228.46 152.554H230.475L228.797 155.419H226.614Z" fill="black"/>
<path d="M230.475 151.011L231.996 148.65H233.654L232.271 151.011H230.475Z" fill="black"/>
<path d="M233.881 147.263L235.159 145.28H236.554L235.391 147.263H233.881Z" fill="black"/>
<path d="M236.833 144.177L238.111 142.194H239.506L238.343 144.177H236.833Z" fill="black"/>
<path d="M239.785 141.091L240.655 139.742H241.602L240.812 141.091H239.785Z" fill="black"/>
<path d="M242.057 138.226L242.817 137.047H243.646L242.956 138.226H242.057Z" fill="black"/>
<path d="M244.327 135.801L245.088 134.622H245.917L245.226 135.801H244.327Z" fill="black"/>
<path d="M246.371 133.597L246.914 132.755H247.507L247.014 133.597H246.371Z" fill="black"/>
<path d="M247.733 132.054L248.276 131.212H248.869L248.376 132.054H247.733Z" fill="black"/>
</g>
<path d="M200.45 282.087L185.88 296.657L200.45 311.228L215.021 296.657L200.45 282.087Z" fill="#B8C1C9"/>
<path d="M155.77 237.408L141.199 251.978L181.789 292.568L196.359 277.997L155.77 237.408Z" fill="#B8C1C9"/>
<path d="M178.18 215L159.415 233.764L218.664 293.013L237.428 274.249L178.18 215Z" fill="#B8C1C9"/>
<path d="M174.589 366.517L162.846 378.261L204.103 419.518L215.847 407.775L174.589 366.517Z" fill="#B8C1C9"/>
<path d="M120.004 289.115L110.76 298.359L238.043 425.643L247.288 416.398L120.004 289.115Z" fill="#D7DF23"/>
<path d="M94.6877 314.428L85.4434 323.673L212.727 450.956L221.971 441.712L94.6877 314.428Z" fill="#D7DF23"/>
<path d="M137.787 255.391L128.543 264.636L196.879 332.972L206.123 323.727L137.787 255.391Z" fill="#D7DF23"/>
<path d="M237.927 293.581L224.924 294.936L232.057 363.375L245.06 362.02L237.927 293.581Z" fill="#D7DF23"/>
<path d="M313.001 349.82L298.679 364.456L193.627 375.406L192.271 362.4L313.001 349.82Z" fill="#D7DF23"/>
<path d="M249.875 286.691L240.631 277.447L121.105 396.972L130.35 406.217L249.875 286.691Z" fill="#D7DF23"/>
<path d="M145.756 272.604L136.512 263.359L61.9996 337.871L71.2439 347.116L145.756 272.604Z" fill="#D7DF23"/>
<path d="M237.191 409.436L227.946 400.192L195.835 432.303L205.08 441.547L237.191 409.436Z" fill="#D7DF23"/>
<path d="M188.08 352.972L194.355 359.594L228.322 356.054L224.191 315.965L188.08 352.972Z" fill="#657285"/>
<path d="M149.665 390.753L132.275 408.143L148.675 424.542L166.064 407.153L149.665 390.753Z" fill="#657285"/>
<path d="M168.261 409.356L150.872 426.745L193.631 469.505L211.021 452.115L168.261 409.356Z" fill="#B8C1C9"/>
<path d="M174.219 315.007L161.966 327.26L173.192 338.487L185.445 326.234L174.219 315.007Z" fill="#B8C1C9"/>
<path d="M159.791 300.58L147.538 312.833L158.765 324.06L171.018 311.807L159.791 300.58Z" fill="#B8C1C9"/>
<path d="M142.213 283.004L129.96 295.257L144.676 309.973L156.929 297.72L142.213 283.004Z" fill="#B8C1C9"/>
<path d="M119.533 362.859L103.26 379.132L117.976 393.848L134.249 377.575L119.533 362.859Z" fill="#B8C1C9"/>
<path d="M90.6547 333.98L74.3818 350.253L100.579 376.45L116.852 360.177L90.6547 333.98Z" fill="#B8C1C9"/>
<path d="M116.901 308.319L104.648 320.572L147.95 363.873L160.203 351.62L116.901 308.319Z" fill="#B8C1C9"/>
<path d="M250.676 412.457L216.626 378.407L291.627 371.506L250.676 412.457Z" fill="#B8C1C9"/>
<path d="M248.497 353.113L242.24 298.869L252.145 288.964L309.36 346.18L248.497 353.113Z" fill="#B8C1C9"/>
<path d="M142.712 244.706C137.621 244.706 132.739 246.729 129.14 250.328C125.54 253.928 123.518 258.81 123.518 263.901C123.509 274.501 142.712 293.542 142.712 293.542C142.712 293.542 161.907 274.491 161.907 263.89C161.904 258.801 159.88 253.922 156.281 250.324C152.681 246.727 147.801 244.706 142.712 244.706V244.706ZM142.712 275.265C140.136 275.265 137.618 274.501 135.476 273.07C133.334 271.639 131.665 269.605 130.679 267.225C129.693 264.845 129.435 262.226 129.938 259.7C130.44 257.173 131.681 254.852 133.502 253.031C135.324 251.209 137.645 249.969 140.171 249.466C142.698 248.963 145.316 249.221 147.696 250.207C150.076 251.193 152.111 252.862 153.542 255.004C154.973 257.146 155.737 259.664 155.737 262.241C155.737 263.951 155.4 265.645 154.745 267.225C154.091 268.805 153.131 270.241 151.922 271.45C150.713 272.66 149.277 273.619 147.696 274.274C146.116 274.928 144.423 275.265 142.712 275.265Z" fill="#131F2D"/>
<path d="M231.478 339.238C226.387 339.238 221.505 341.26 217.905 344.86C214.305 348.459 212.283 353.342 212.283 358.432C212.283 369.033 231.478 388.084 231.478 388.084C231.478 388.084 250.672 369.033 250.672 358.432C250.672 353.342 248.65 348.459 245.05 344.86C241.451 341.26 236.568 339.238 231.478 339.238ZM231.478 369.797C228.902 369.797 226.383 369.033 224.242 367.602C222.1 366.171 220.43 364.136 219.444 361.756C218.459 359.377 218.201 356.758 218.703 354.231C219.206 351.705 220.446 349.384 222.268 347.562C224.089 345.741 226.41 344.5 228.937 343.998C231.463 343.495 234.082 343.753 236.462 344.739C238.842 345.725 240.876 347.394 242.307 349.536C243.739 351.678 244.502 354.196 244.502 356.772C244.502 360.227 243.13 363.539 240.688 365.982C238.245 368.425 234.932 369.797 231.478 369.797V369.797Z" fill="#131F2D"/>
<path d="M159.173 287.748C159.043 287.749 158.915 287.723 158.795 287.673C158.675 287.624 158.566 287.551 158.474 287.459L157.638 286.622C157.546 286.53 157.473 286.421 157.424 286.302C157.374 286.182 157.349 286.054 157.349 285.924C157.349 285.795 157.374 285.666 157.424 285.547C157.473 285.427 157.546 285.318 157.638 285.227C157.729 285.135 157.838 285.063 157.957 285.013C158.077 284.963 158.205 284.938 158.335 284.938C158.464 284.938 158.593 284.963 158.712 285.013C158.832 285.063 158.941 285.135 159.032 285.227L159.869 286.064C160.008 286.202 160.102 286.378 160.141 286.569C160.179 286.761 160.159 286.96 160.084 287.14C160.01 287.321 159.883 287.475 159.72 287.583C159.557 287.692 159.366 287.749 159.17 287.748H159.173Z" fill="white"/>
<path d="M160.213 288.786C160.084 288.786 159.955 288.76 159.835 288.711C159.715 288.661 159.606 288.588 159.515 288.496L158.477 287.458C158.292 287.274 158.188 287.023 158.188 286.761C158.188 286.499 158.292 286.249 158.477 286.064C158.662 285.879 158.913 285.775 159.175 285.775C159.436 285.775 159.687 285.879 159.872 286.064L160.91 287.101C161.048 287.239 161.142 287.415 161.181 287.607C161.219 287.798 161.2 287.997 161.125 288.177C161.05 288.358 160.923 288.512 160.76 288.621C160.597 288.729 160.406 288.786 160.211 288.786H160.213Z" fill="white"/>
<path d="M195.256 323.824C195.126 323.825 194.997 323.799 194.877 323.749C194.757 323.7 194.648 323.627 194.557 323.535L191.962 320.94C191.777 320.755 191.673 320.503 191.673 320.241C191.673 319.979 191.777 319.728 191.962 319.542C192.148 319.357 192.399 319.253 192.661 319.253C192.923 319.253 193.174 319.357 193.36 319.542L195.954 322.137C196.093 322.275 196.187 322.451 196.226 322.643C196.264 322.834 196.244 323.033 196.17 323.213C196.095 323.394 195.968 323.548 195.805 323.657C195.642 323.765 195.451 323.822 195.256 323.822V323.824ZM189.416 317.985C189.286 317.985 189.158 317.96 189.038 317.91C188.918 317.86 188.809 317.787 188.718 317.695L186.123 315.101C185.938 314.916 185.834 314.665 185.834 314.403C185.834 314.142 185.938 313.891 186.123 313.706C186.308 313.521 186.559 313.417 186.82 313.417C187.082 313.417 187.333 313.521 187.518 313.706L190.11 316.292C190.248 316.43 190.343 316.606 190.381 316.798C190.419 316.989 190.4 317.188 190.325 317.369C190.25 317.549 190.123 317.704 189.96 317.812C189.798 317.92 189.606 317.978 189.411 317.977L189.416 317.985ZM183.577 312.146C183.447 312.146 183.319 312.12 183.199 312.071C183.079 312.021 182.97 311.948 182.878 311.856L180.278 309.25C180.093 309.065 179.989 308.815 179.989 308.553C179.989 308.291 180.093 308.041 180.278 307.856C180.463 307.671 180.714 307.567 180.976 307.567C181.237 307.567 181.488 307.671 181.673 307.856L184.268 310.45C184.406 310.588 184.501 310.764 184.539 310.956C184.577 311.147 184.558 311.346 184.483 311.527C184.408 311.707 184.281 311.861 184.118 311.97C183.956 312.078 183.764 312.135 183.569 312.135L183.577 312.146ZM177.732 306.306C177.602 306.307 177.474 306.281 177.354 306.231C177.234 306.182 177.125 306.109 177.033 306.017L174.439 303.422C174.347 303.33 174.275 303.222 174.225 303.102C174.175 302.982 174.15 302.854 174.15 302.724C174.15 302.595 174.175 302.467 174.225 302.347C174.275 302.227 174.347 302.119 174.439 302.027C174.53 301.935 174.639 301.863 174.759 301.813C174.878 301.764 175.007 301.738 175.136 301.738C175.266 301.738 175.394 301.764 175.514 301.813C175.633 301.863 175.742 301.935 175.834 302.027L178.428 304.622C178.567 304.76 178.661 304.936 178.7 305.127C178.738 305.319 178.718 305.518 178.643 305.698C178.569 305.879 178.442 306.033 178.279 306.141C178.116 306.25 177.925 306.307 177.729 306.306H177.732ZM171.893 300.467C171.763 300.467 171.634 300.442 171.514 300.392C171.395 300.342 171.286 300.269 171.194 300.177L168.599 297.583C168.414 297.398 168.311 297.147 168.311 296.885C168.311 296.624 168.414 296.373 168.599 296.188C168.784 296.003 169.035 295.899 169.297 295.899C169.558 295.899 169.809 296.003 169.994 296.188L172.589 298.782C172.727 298.92 172.822 299.096 172.86 299.288C172.899 299.48 172.879 299.678 172.804 299.859C172.729 300.039 172.602 300.194 172.44 300.302C172.277 300.41 172.086 300.468 171.89 300.467H171.893ZM166.054 294.625C165.924 294.625 165.795 294.599 165.675 294.55C165.555 294.5 165.446 294.427 165.355 294.335L162.755 291.743C162.57 291.558 162.466 291.307 162.466 291.046C162.466 290.784 162.57 290.533 162.755 290.348C162.94 290.163 163.191 290.06 163.452 290.06C163.714 290.06 163.965 290.163 164.15 290.348L166.744 292.943C166.883 293.081 166.977 293.257 167.015 293.449C167.054 293.64 167.034 293.839 166.959 294.02C166.884 294.2 166.758 294.354 166.595 294.463C166.432 294.571 166.241 294.628 166.045 294.628L166.054 294.625Z" fill="white"/>
<path d="M198.505 328.751C198.309 328.752 198.118 328.694 197.955 328.586C197.793 328.478 197.666 328.323 197.591 328.143C197.516 327.962 197.496 327.764 197.535 327.572C197.573 327.38 197.668 327.204 197.806 327.066L197.947 326.928L197.806 326.787C197.621 326.602 197.517 326.351 197.517 326.09C197.517 325.828 197.621 325.577 197.806 325.393C197.991 325.208 198.242 325.104 198.503 325.104C198.765 325.104 199.016 325.208 199.201 325.393L200.038 326.229C200.129 326.321 200.202 326.43 200.252 326.549C200.301 326.669 200.327 326.797 200.327 326.927C200.327 327.056 200.301 327.185 200.252 327.304C200.202 327.424 200.129 327.533 200.038 327.624L199.201 328.461C199.11 328.553 199.001 328.626 198.882 328.675C198.762 328.725 198.634 328.751 198.505 328.751V328.751Z" fill="white"/>
<path d="M197.405 329.834C197.21 329.835 197.018 329.778 196.856 329.669C196.693 329.561 196.566 329.407 196.491 329.226C196.416 329.046 196.397 328.847 196.435 328.655C196.473 328.464 196.568 328.288 196.706 328.15L197.79 327.066C197.975 326.881 198.226 326.777 198.487 326.777C198.749 326.777 199 326.881 199.185 327.066C199.37 327.251 199.474 327.502 199.474 327.764C199.474 328.025 199.37 328.276 199.185 328.461L198.101 329.545C198.01 329.636 197.902 329.709 197.782 329.759C197.663 329.809 197.535 329.834 197.405 329.834V329.834Z" fill="white"/>
<path d="M179.026 348.211C178.831 348.212 178.64 348.154 178.477 348.046C178.314 347.937 178.187 347.783 178.112 347.603C178.037 347.422 178.018 347.223 178.056 347.032C178.095 346.84 178.189 346.664 178.328 346.526L181.049 343.804C181.141 343.713 181.25 343.64 181.369 343.59C181.489 343.541 181.617 343.515 181.747 343.515C181.876 343.515 182.005 343.541 182.124 343.59C182.244 343.64 182.353 343.713 182.444 343.804C182.536 343.896 182.609 344.005 182.658 344.124C182.708 344.244 182.733 344.372 182.733 344.502C182.733 344.631 182.708 344.759 182.658 344.879C182.609 344.999 182.536 345.108 182.444 345.199L179.722 347.921C179.631 348.013 179.523 348.086 179.403 348.135C179.284 348.185 179.156 348.211 179.026 348.211V348.211ZM185.153 342.084C184.957 342.085 184.766 342.028 184.603 341.919C184.441 341.811 184.314 341.657 184.239 341.476C184.164 341.296 184.144 341.097 184.183 340.905C184.221 340.714 184.315 340.538 184.454 340.4L187.176 337.689C187.361 337.504 187.612 337.4 187.873 337.4C188.135 337.4 188.386 337.504 188.571 337.689C188.756 337.874 188.86 338.125 188.86 338.386C188.86 338.648 188.756 338.899 188.571 339.084L186.946 340.709L185.862 341.792C185.77 341.886 185.659 341.96 185.537 342.01C185.415 342.061 185.285 342.086 185.153 342.084V342.084ZM191.279 335.958C191.084 335.959 190.892 335.901 190.73 335.793C190.567 335.685 190.44 335.53 190.365 335.35C190.29 335.169 190.271 334.971 190.309 334.779C190.347 334.587 190.442 334.411 190.58 334.273L193.302 331.551C193.394 331.46 193.503 331.387 193.622 331.338C193.742 331.288 193.87 331.263 194 331.263C194.129 331.263 194.258 331.288 194.377 331.338C194.497 331.387 194.606 331.46 194.697 331.551C194.789 331.643 194.861 331.752 194.911 331.871C194.961 331.991 194.986 332.119 194.986 332.249C194.986 332.378 194.961 332.507 194.911 332.626C194.861 332.746 194.789 332.855 194.697 332.946L191.975 335.668C191.884 335.76 191.776 335.833 191.656 335.882C191.537 335.932 191.409 335.958 191.279 335.958V335.958Z" fill="white"/>
<path d="M175.622 353.289C175.492 353.289 175.363 353.264 175.243 353.214C175.123 353.164 175.014 353.091 174.923 352.999L174.086 352.162C173.994 352.071 173.922 351.962 173.872 351.842C173.822 351.723 173.797 351.595 173.797 351.465C173.797 351.335 173.822 351.207 173.872 351.088C173.922 350.968 173.994 350.859 174.086 350.768L174.923 349.931C175.014 349.839 175.123 349.766 175.243 349.717C175.362 349.667 175.491 349.642 175.62 349.642C175.75 349.642 175.878 349.667 175.998 349.717C176.117 349.766 176.226 349.839 176.318 349.931C176.409 350.022 176.482 350.131 176.531 350.251C176.581 350.37 176.607 350.499 176.607 350.628C176.607 350.758 176.581 350.886 176.531 351.006C176.482 351.125 176.409 351.234 176.318 351.326L176.18 351.466L176.318 351.607C176.456 351.745 176.551 351.921 176.589 352.113C176.627 352.304 176.608 352.503 176.533 352.684C176.458 352.864 176.331 353.018 176.168 353.127C176.006 353.235 175.814 353.292 175.619 353.292L175.622 353.289Z" fill="white"/>
<path d="M176.754 354.421C176.624 354.421 176.495 354.396 176.375 354.346C176.255 354.296 176.146 354.223 176.055 354.131L174.923 352.999C174.738 352.814 174.634 352.563 174.634 352.302C174.634 352.04 174.738 351.789 174.923 351.604C175.108 351.42 175.359 351.316 175.62 351.316C175.882 351.316 176.133 351.42 176.317 351.604L177.45 352.737C177.588 352.874 177.683 353.05 177.721 353.242C177.759 353.434 177.74 353.633 177.665 353.813C177.59 353.994 177.463 354.148 177.3 354.256C177.138 354.364 176.946 354.422 176.751 354.421H176.754Z" fill="white"/>
<path d="M221.353 399.021C221.223 399.021 221.095 398.995 220.975 398.946C220.855 398.896 220.746 398.823 220.654 398.731L217.824 395.901C217.639 395.716 217.535 395.465 217.535 395.203C217.535 394.942 217.639 394.691 217.824 394.506C218.009 394.321 218.26 394.217 218.521 394.217C218.783 394.217 219.034 394.321 219.219 394.506L222.049 397.336C222.188 397.474 222.282 397.65 222.32 397.842C222.359 398.033 222.339 398.232 222.264 398.412C222.189 398.593 222.063 398.747 221.9 398.856C221.737 398.964 221.546 399.021 221.35 399.021H221.353ZM214.983 392.65C214.853 392.651 214.724 392.625 214.604 392.575C214.485 392.526 214.376 392.453 214.284 392.361L211.451 389.528C211.266 389.343 211.162 389.092 211.162 388.83C211.162 388.569 211.266 388.318 211.451 388.133C211.636 387.948 211.887 387.844 212.148 387.844C212.41 387.844 212.661 387.948 212.846 388.133L215.676 390.963C215.815 391.101 215.909 391.277 215.947 391.468C215.986 391.659 215.966 391.858 215.892 392.038C215.817 392.219 215.691 392.373 215.529 392.482C215.366 392.59 215.175 392.648 214.98 392.648L214.983 392.65ZM208.61 386.278C208.48 386.278 208.352 386.252 208.232 386.203C208.112 386.153 208.003 386.08 207.911 385.988L205.078 383.155C204.893 382.97 204.789 382.719 204.789 382.457C204.789 382.196 204.893 381.945 205.078 381.76C205.263 381.575 205.514 381.471 205.776 381.471C206.037 381.471 206.288 381.575 206.473 381.76L209.306 384.593C209.445 384.731 209.539 384.907 209.577 385.098C209.616 385.29 209.596 385.489 209.521 385.669C209.446 385.85 209.319 386.004 209.157 386.112C208.994 386.221 208.803 386.278 208.607 386.278H208.61ZM202.24 379.907C202.11 379.908 201.981 379.882 201.861 379.832C201.741 379.783 201.633 379.71 201.541 379.618L198.708 376.785C198.523 376.6 198.419 376.349 198.419 376.087C198.419 375.826 198.523 375.575 198.708 375.39C198.893 375.205 199.144 375.101 199.405 375.101C199.667 375.101 199.918 375.205 200.103 375.39L202.936 378.223C203.074 378.361 203.169 378.537 203.207 378.728C203.245 378.92 203.226 379.119 203.151 379.299C203.076 379.48 202.949 379.634 202.787 379.742C202.624 379.851 202.433 379.908 202.237 379.907H202.24ZM195.87 373.537C195.74 373.537 195.611 373.512 195.491 373.462C195.371 373.412 195.262 373.339 195.171 373.247L192.341 370.417C192.156 370.232 192.052 369.981 192.052 369.72C192.052 369.458 192.156 369.207 192.341 369.022C192.526 368.837 192.776 368.733 193.038 368.733C193.3 368.733 193.55 368.837 193.735 369.022L196.566 371.853C196.704 371.99 196.799 372.166 196.837 372.358C196.875 372.55 196.856 372.749 196.781 372.929C196.706 373.11 196.579 373.264 196.416 373.372C196.254 373.48 196.062 373.538 195.867 373.537H195.87ZM189.499 367.167C189.37 367.167 189.241 367.142 189.121 367.092C189.001 367.042 188.892 366.969 188.801 366.877L185.97 364.047C185.879 363.955 185.806 363.847 185.757 363.727C185.707 363.607 185.681 363.479 185.681 363.35C185.681 363.22 185.707 363.092 185.757 362.972C185.806 362.852 185.879 362.744 185.97 362.652C186.062 362.561 186.171 362.488 186.29 362.438C186.41 362.389 186.538 362.363 186.668 362.363C186.797 362.363 186.926 362.389 187.045 362.438C187.165 362.488 187.274 362.561 187.365 362.652L190.198 365.482C190.337 365.62 190.431 365.796 190.469 365.988C190.508 366.18 190.488 366.378 190.413 366.559C190.338 366.739 190.212 366.894 190.049 367.002C189.886 367.11 189.695 367.168 189.499 367.167V367.167ZM183.129 360.797C182.999 360.797 182.871 360.772 182.751 360.722C182.631 360.672 182.522 360.599 182.43 360.507L179.597 357.674C179.413 357.489 179.309 357.238 179.309 356.977C179.309 356.715 179.413 356.464 179.597 356.279C179.782 356.094 180.033 355.99 180.295 355.99C180.556 355.99 180.807 356.094 180.992 356.279L183.825 359.112C183.964 359.25 184.058 359.426 184.097 359.618C184.135 359.809 184.115 360.008 184.04 360.189C183.966 360.369 183.839 360.523 183.676 360.632C183.513 360.74 183.322 360.798 183.127 360.797H183.129Z" fill="white"/>
<path d="M284.294 345.852C284.294 345.852 280.426 341.732 275.57 345.641C275.568 345.641 278.403 345.153 284.294 345.852Z" fill="#A8D29F"/>
</g>
<defs>
<clipPath id="clip0_218_23368">
<rect width="375" height="812" fill="white"/>
</clipPath>
<clipPath id="clip1_218_23368">
<rect width="46.0976" height="41" fill="white" transform="translate(208.902 125)"/>
</clipPath>
</defs>
</svg>
