<svg width="375" height="812" viewBox="0 0 375 812" fill="none" xmlns="http://www.w3.org/2000/svg">
<g clip-path="url(#clip0_218_23012)">
<rect width="375" height="812" fill="white"/>
<path d="M375 811.948V87C371.004 92.4267 345.293 105.745 333.795 112.379C329.948 115.168 292.551 128.637 273.476 134.37C259.818 139.018 243.924 140.184 237.684 140.187C229.064 139.574 216.597 139.931 211.441 140.187C182.765 139.892 149.416 174.196 136.325 191.386C85.6237 242.943 24.3161 235.9 0 225.934V811.948H375Z" fill="#FEFFEE"/>
<path d="M99.6523 59.54V61.68H93.2423V65.96H98.6523V68.11H93.2423V74H90.5323V59.54H99.6523ZM115.633 66.77C115.633 67.83 115.456 68.8133 115.103 69.72C114.749 70.62 114.253 71.4 113.613 72.06C112.973 72.72 112.203 73.2367 111.303 73.61C110.403 73.9767 109.406 74.16 108.313 74.16C107.219 74.16 106.219 73.9767 105.313 73.61C104.413 73.2367 103.639 72.72 102.993 72.06C102.353 71.4 101.856 70.62 101.503 69.72C101.149 68.8133 100.973 67.83 100.973 66.77C100.973 65.71 101.149 64.73 101.503 63.83C101.856 62.9233 102.353 62.14 102.993 61.48C103.639 60.82 104.413 60.3067 105.313 59.94C106.219 59.5667 107.219 59.38 108.313 59.38C109.406 59.38 110.403 59.5667 111.303 59.94C112.203 60.3133 112.973 60.83 113.613 61.49C114.253 62.1433 114.749 62.9233 115.103 63.83C115.456 64.73 115.633 65.71 115.633 66.77ZM112.873 66.77C112.873 65.9767 112.766 65.2667 112.553 64.64C112.346 64.0067 112.046 63.47 111.653 63.03C111.259 62.59 110.779 62.2533 110.213 62.02C109.653 61.7867 109.019 61.67 108.313 61.67C107.606 61.67 106.969 61.7867 106.403 62.02C105.836 62.2533 105.353 62.59 104.953 63.03C104.559 63.47 104.256 64.0067 104.043 64.64C103.829 65.2667 103.723 65.9767 103.723 66.77C103.723 67.5633 103.829 68.2767 104.043 68.91C104.256 69.5367 104.559 70.07 104.953 70.51C105.353 70.9433 105.836 71.2767 106.403 71.51C106.969 71.7433 107.606 71.86 108.313 71.86C109.019 71.86 109.653 71.7433 110.213 71.51C110.779 71.2767 111.259 70.9433 111.653 70.51C112.046 70.07 112.346 69.5367 112.553 68.91C112.766 68.2767 112.873 67.5633 112.873 66.77ZM120.539 68.35V74H117.849V59.54H122.259C123.245 59.54 124.089 59.6433 124.789 59.85C125.495 60.05 126.072 60.3333 126.519 60.7C126.972 61.0667 127.302 61.5067 127.509 62.02C127.722 62.5267 127.829 63.0867 127.829 63.7C127.829 64.1867 127.755 64.6467 127.609 65.08C127.469 65.5133 127.262 65.9067 126.989 66.26C126.722 66.6133 126.389 66.9233 125.989 67.19C125.595 67.4567 125.145 67.67 124.639 67.83C124.979 68.0233 125.272 68.3 125.519 68.66L129.139 74H126.719C126.485 74 126.285 73.9533 126.119 73.86C125.959 73.7667 125.822 73.6333 125.709 73.46L122.669 68.83C122.555 68.6567 122.429 68.5333 122.289 68.46C122.155 68.3867 121.955 68.35 121.689 68.35H120.539ZM120.539 66.42H122.219C122.725 66.42 123.165 66.3567 123.539 66.23C123.919 66.1033 124.229 65.93 124.469 65.71C124.715 65.4833 124.899 65.2167 125.019 64.91C125.139 64.6033 125.199 64.2667 125.199 63.9C125.199 63.1667 124.955 62.6033 124.469 62.21C123.989 61.8167 123.252 61.62 122.259 61.62H120.539V66.42ZM137.016 72.02C137.623 72.02 138.149 71.9667 138.596 71.86C139.049 71.7467 139.479 71.5933 139.886 71.4V68.77H138.076C137.903 68.77 137.766 68.7233 137.666 68.63C137.566 68.53 137.516 68.41 137.516 68.27V66.75H142.326V72.6C141.959 72.8667 141.576 73.1 141.176 73.3C140.783 73.4933 140.359 73.6533 139.906 73.78C139.459 73.9067 138.979 74 138.466 74.06C137.953 74.1267 137.399 74.16 136.806 74.16C135.753 74.16 134.783 73.9767 133.896 73.61C133.009 73.2433 132.243 72.7333 131.596 72.08C130.949 71.4267 130.443 70.6467 130.076 69.74C129.716 68.8333 129.536 67.8433 129.536 66.77C129.536 65.6833 129.713 64.6867 130.066 63.78C130.419 62.8733 130.919 62.0933 131.566 61.44C132.219 60.7867 133.009 60.28 133.936 59.92C134.863 59.56 135.903 59.38 137.056 59.38C138.236 59.38 139.256 59.5567 140.116 59.91C140.983 60.2567 141.716 60.71 142.316 61.27L141.536 62.49C141.383 62.7367 141.179 62.86 140.926 62.86C140.766 62.86 140.603 62.8067 140.436 62.7C140.223 62.5733 140.003 62.4467 139.776 62.32C139.556 62.1933 139.309 62.0833 139.036 61.99C138.769 61.8967 138.466 61.82 138.126 61.76C137.793 61.7 137.406 61.67 136.966 61.67C136.253 61.67 135.606 61.79 135.026 62.03C134.453 62.27 133.963 62.6133 133.556 63.06C133.149 63.5067 132.836 64.0433 132.616 64.67C132.396 65.2967 132.286 65.9967 132.286 66.77C132.286 67.6033 132.403 68.3467 132.636 69C132.869 69.6467 133.196 70.1933 133.616 70.64C134.036 71.0867 134.536 71.43 135.116 71.67C135.696 71.9033 136.329 72.02 137.016 72.02ZM158.699 66.77C158.699 67.83 158.522 68.8133 158.169 69.72C157.816 70.62 157.319 71.4 156.679 72.06C156.039 72.72 155.269 73.2367 154.369 73.61C153.469 73.9767 152.472 74.16 151.379 74.16C150.286 74.16 149.286 73.9767 148.379 73.61C147.479 73.2367 146.706 72.72 146.059 72.06C145.419 71.4 144.922 70.62 144.569 69.72C144.216 68.8133 144.039 67.83 144.039 66.77C144.039 65.71 144.216 64.73 144.569 63.83C144.922 62.9233 145.419 62.14 146.059 61.48C146.706 60.82 147.479 60.3067 148.379 59.94C149.286 59.5667 150.286 59.38 151.379 59.38C152.472 59.38 153.469 59.5667 154.369 59.94C155.269 60.3133 156.039 60.83 156.679 61.49C157.319 62.1433 157.816 62.9233 158.169 63.83C158.522 64.73 158.699 65.71 158.699 66.77ZM155.939 66.77C155.939 65.9767 155.832 65.2667 155.619 64.64C155.412 64.0067 155.112 63.47 154.719 63.03C154.326 62.59 153.846 62.2533 153.279 62.02C152.719 61.7867 152.086 61.67 151.379 61.67C150.672 61.67 150.036 61.7867 149.469 62.02C148.902 62.2533 148.419 62.59 148.019 63.03C147.626 63.47 147.322 64.0067 147.109 64.64C146.896 65.2667 146.789 65.9767 146.789 66.77C146.789 67.5633 146.896 68.2767 147.109 68.91C147.322 69.5367 147.626 70.07 148.019 70.51C148.419 70.9433 148.902 71.2767 149.469 71.51C150.036 71.7433 150.672 71.86 151.379 71.86C152.086 71.86 152.719 71.7433 153.279 71.51C153.846 71.2767 154.326 70.9433 154.719 70.51C155.112 70.07 155.412 69.5367 155.619 68.91C155.832 68.2767 155.939 67.5633 155.939 66.77ZM170.234 59.54V61.75H165.884V74H163.194V61.75H158.824V59.54H170.234ZM178.586 68.91V74H175.896V59.54H180.606C181.572 59.54 182.409 59.6533 183.116 59.88C183.822 60.1067 184.406 60.4233 184.866 60.83C185.326 61.2367 185.666 61.7233 185.886 62.29C186.106 62.8567 186.216 63.4767 186.216 64.15C186.216 64.85 186.099 65.4933 185.866 66.08C185.632 66.66 185.282 67.16 184.816 67.58C184.349 68 183.766 68.3267 183.066 68.56C182.366 68.7933 181.546 68.91 180.606 68.91H178.586ZM178.586 66.81H180.606C181.099 66.81 181.529 66.75 181.896 66.63C182.262 66.5033 182.566 66.3267 182.806 66.1C183.046 65.8667 183.226 65.5867 183.346 65.26C183.466 64.9267 183.526 64.5567 183.526 64.15C183.526 63.7633 183.466 63.4133 183.346 63.1C183.226 62.7867 183.046 62.52 182.806 62.3C182.566 62.08 182.262 61.9133 181.896 61.8C181.529 61.68 181.099 61.62 180.606 61.62H178.586V66.81ZM199.473 74H197.393C197.159 74 196.966 73.9433 196.813 73.83C196.666 73.71 196.559 73.5633 196.493 73.39L195.413 70.44H189.423L188.343 73.39C188.289 73.5433 188.183 73.6833 188.023 73.81C187.869 73.9367 187.679 74 187.453 74H185.363L191.043 59.54H193.793L199.473 74ZM190.113 68.54H194.723L192.963 63.73C192.883 63.5167 192.793 63.2667 192.693 62.98C192.599 62.6867 192.506 62.37 192.413 62.03C192.319 62.37 192.226 62.6867 192.133 62.98C192.046 63.2733 191.959 63.53 191.873 63.75L190.113 68.54ZM208.712 62.17C208.639 62.3167 208.552 62.42 208.452 62.48C208.359 62.54 208.245 62.57 208.112 62.57C207.979 62.57 207.829 62.52 207.662 62.42C207.495 62.3133 207.299 62.1967 207.072 62.07C206.845 61.9433 206.579 61.83 206.272 61.73C205.972 61.6233 205.615 61.57 205.202 61.57C204.829 61.57 204.502 61.6167 204.222 61.71C203.949 61.7967 203.715 61.92 203.522 62.08C203.335 62.24 203.195 62.4333 203.102 62.66C203.009 62.88 202.962 63.1233 202.962 63.39C202.962 63.73 203.055 64.0133 203.242 64.24C203.435 64.4667 203.689 64.66 204.002 64.82C204.315 64.98 204.672 65.1233 205.072 65.25C205.472 65.3767 205.879 65.5133 206.292 65.66C206.712 65.8 207.122 65.9667 207.522 66.16C207.922 66.3467 208.279 66.5867 208.592 66.88C208.905 67.1667 209.155 67.52 209.342 67.94C209.535 68.36 209.632 68.87 209.632 69.47C209.632 70.1233 209.519 70.7367 209.292 71.31C209.072 71.8767 208.745 72.3733 208.312 72.8C207.885 73.22 207.362 73.5533 206.742 73.8C206.122 74.04 205.412 74.16 204.612 74.16C204.152 74.16 203.699 74.1133 203.252 74.02C202.805 73.9333 202.375 73.8067 201.962 73.64C201.555 73.4733 201.172 73.2733 200.812 73.04C200.459 72.8067 200.142 72.5467 199.862 72.26L200.642 70.97C200.715 70.8767 200.802 70.8 200.902 70.74C201.009 70.6733 201.125 70.64 201.252 70.64C201.419 70.64 201.599 70.71 201.792 70.85C201.985 70.9833 202.212 71.1333 202.472 71.3C202.739 71.4667 203.049 71.62 203.402 71.76C203.762 71.8933 204.192 71.96 204.692 71.96C205.459 71.96 206.052 71.78 206.472 71.42C206.892 71.0533 207.102 70.53 207.102 69.85C207.102 69.47 207.005 69.16 206.812 68.92C206.625 68.68 206.375 68.48 206.062 68.32C205.749 68.1533 205.392 68.0133 204.992 67.9C204.592 67.7867 204.185 67.6633 203.772 67.53C203.359 67.3967 202.952 67.2367 202.552 67.05C202.152 66.8633 201.795 66.62 201.482 66.32C201.169 66.02 200.915 65.6467 200.722 65.2C200.535 64.7467 200.442 64.19 200.442 63.53C200.442 63.0033 200.545 62.49 200.752 61.99C200.965 61.49 201.272 61.0467 201.672 60.66C202.079 60.2733 202.575 59.9633 203.162 59.73C203.749 59.4967 204.419 59.38 205.172 59.38C206.025 59.38 206.812 59.5133 207.532 59.78C208.252 60.0467 208.865 60.42 209.372 60.9L208.712 62.17ZM219.435 62.17C219.361 62.3167 219.275 62.42 219.175 62.48C219.081 62.54 218.968 62.57 218.835 62.57C218.701 62.57 218.551 62.52 218.385 62.42C218.218 62.3133 218.021 62.1967 217.795 62.07C217.568 61.9433 217.301 61.83 216.995 61.73C216.695 61.6233 216.338 61.57 215.925 61.57C215.551 61.57 215.225 61.6167 214.945 61.71C214.671 61.7967 214.438 61.92 214.245 62.08C214.058 62.24 213.918 62.4333 213.825 62.66C213.731 62.88 213.685 63.1233 213.685 63.39C213.685 63.73 213.778 64.0133 213.965 64.24C214.158 64.4667 214.411 64.66 214.725 64.82C215.038 64.98 215.395 65.1233 215.795 65.25C216.195 65.3767 216.601 65.5133 217.015 65.66C217.435 65.8 217.845 65.9667 218.245 66.16C218.645 66.3467 219.001 66.5867 219.315 66.88C219.628 67.1667 219.878 67.52 220.065 67.94C220.258 68.36 220.355 68.87 220.355 69.47C220.355 70.1233 220.241 70.7367 220.015 71.31C219.795 71.8767 219.468 72.3733 219.035 72.8C218.608 73.22 218.085 73.5533 217.465 73.8C216.845 74.04 216.135 74.16 215.335 74.16C214.875 74.16 214.421 74.1133 213.975 74.02C213.528 73.9333 213.098 73.8067 212.685 73.64C212.278 73.4733 211.895 73.2733 211.535 73.04C211.181 72.8067 210.865 72.5467 210.585 72.26L211.365 70.97C211.438 70.8767 211.525 70.8 211.625 70.74C211.731 70.6733 211.848 70.64 211.975 70.64C212.141 70.64 212.321 70.71 212.515 70.85C212.708 70.9833 212.935 71.1333 213.195 71.3C213.461 71.4667 213.771 71.62 214.125 71.76C214.485 71.8933 214.915 71.96 215.415 71.96C216.181 71.96 216.775 71.78 217.195 71.42C217.615 71.0533 217.825 70.53 217.825 69.85C217.825 69.47 217.728 69.16 217.535 68.92C217.348 68.68 217.098 68.48 216.785 68.32C216.471 68.1533 216.115 68.0133 215.715 67.9C215.315 67.7867 214.908 67.6633 214.495 67.53C214.081 67.3967 213.675 67.2367 213.275 67.05C212.875 66.8633 212.518 66.62 212.205 66.32C211.891 66.02 211.638 65.6467 211.445 65.2C211.258 64.7467 211.165 64.19 211.165 63.53C211.165 63.0033 211.268 62.49 211.475 61.99C211.688 61.49 211.995 61.0467 212.395 60.66C212.801 60.2733 213.298 59.9633 213.885 59.73C214.471 59.4967 215.141 59.38 215.895 59.38C216.748 59.38 217.535 59.5133 218.255 59.78C218.975 60.0467 219.588 60.42 220.095 60.9L219.435 62.17ZM221.067 59.54H223.327C223.561 59.54 223.754 59.5967 223.907 59.71C224.067 59.8167 224.174 59.9633 224.227 60.15L226.687 68.8C226.747 69.0133 226.801 69.2467 226.847 69.5C226.901 69.7467 226.951 70.01 226.997 70.29C227.051 70.01 227.107 69.7467 227.167 69.5C227.234 69.2467 227.304 69.0133 227.377 68.8L230.217 60.15C230.271 59.9967 230.374 59.8567 230.527 59.73C230.687 59.6033 230.881 59.54 231.107 59.54H231.897C232.131 59.54 232.324 59.5967 232.477 59.71C232.631 59.8167 232.737 59.9633 232.797 60.15L235.617 68.8C235.764 69.2267 235.891 69.7 235.997 70.22C236.044 69.96 236.091 69.71 236.137 69.47C236.191 69.23 236.244 69.0067 236.297 68.8L238.757 60.15C238.804 59.9833 238.907 59.84 239.067 59.72C239.227 59.6 239.421 59.54 239.647 59.54H241.757L237.267 74H234.837L231.677 64.12C231.637 63.9933 231.594 63.8567 231.547 63.71C231.507 63.5633 231.467 63.4067 231.427 63.24C231.387 63.4067 231.344 63.5633 231.297 63.71C231.257 63.8567 231.217 63.9933 231.177 64.12L227.987 74H225.557L221.067 59.54ZM257.215 66.77C257.215 67.83 257.038 68.8133 256.685 69.72C256.331 70.62 255.835 71.4 255.195 72.06C254.555 72.72 253.785 73.2367 252.885 73.61C251.985 73.9767 250.988 74.16 249.895 74.16C248.801 74.16 247.801 73.9767 246.895 73.61C245.995 73.2367 245.221 72.72 244.575 72.06C243.935 71.4 243.438 70.62 243.085 69.72C242.731 68.8133 242.555 67.83 242.555 66.77C242.555 65.71 242.731 64.73 243.085 63.83C243.438 62.9233 243.935 62.14 244.575 61.48C245.221 60.82 245.995 60.3067 246.895 59.94C247.801 59.5667 248.801 59.38 249.895 59.38C250.988 59.38 251.985 59.5667 252.885 59.94C253.785 60.3133 254.555 60.83 255.195 61.49C255.835 62.1433 256.331 62.9233 256.685 63.83C257.038 64.73 257.215 65.71 257.215 66.77ZM254.455 66.77C254.455 65.9767 254.348 65.2667 254.135 64.64C253.928 64.0067 253.628 63.47 253.235 63.03C252.841 62.59 252.361 62.2533 251.795 62.02C251.235 61.7867 250.601 61.67 249.895 61.67C249.188 61.67 248.551 61.7867 247.985 62.02C247.418 62.2533 246.935 62.59 246.535 63.03C246.141 63.47 245.838 64.0067 245.625 64.64C245.411 65.2667 245.305 65.9767 245.305 66.77C245.305 67.5633 245.411 68.2767 245.625 68.91C245.838 69.5367 246.141 70.07 246.535 70.51C246.935 70.9433 247.418 71.2767 247.985 71.51C248.551 71.7433 249.188 71.86 249.895 71.86C250.601 71.86 251.235 71.7433 251.795 71.51C252.361 71.2767 252.841 70.9433 253.235 70.51C253.628 70.07 253.928 69.5367 254.135 68.91C254.348 68.2767 254.455 67.5633 254.455 66.77ZM262.121 68.35V74H259.431V59.54H263.841C264.828 59.54 265.671 59.6433 266.371 59.85C267.078 60.05 267.654 60.3333 268.101 60.7C268.554 61.0667 268.884 61.5067 269.091 62.02C269.304 62.5267 269.411 63.0867 269.411 63.7C269.411 64.1867 269.338 64.6467 269.191 65.08C269.051 65.5133 268.844 65.9067 268.571 66.26C268.304 66.6133 267.971 66.9233 267.571 67.19C267.178 67.4567 266.728 67.67 266.221 67.83C266.561 68.0233 266.854 68.3 267.101 68.66L270.721 74H268.301C268.068 74 267.868 73.9533 267.701 73.86C267.541 73.7667 267.404 73.6333 267.291 73.46L264.251 68.83C264.138 68.6567 264.011 68.5333 263.871 68.46C263.738 68.3867 263.538 68.35 263.271 68.35H262.121ZM262.121 66.42H263.801C264.308 66.42 264.748 66.3567 265.121 66.23C265.501 66.1033 265.811 65.93 266.051 65.71C266.298 65.4833 266.481 65.2167 266.601 64.91C266.721 64.6033 266.781 64.2667 266.781 63.9C266.781 63.1667 266.538 62.6033 266.051 62.21C265.571 61.8167 264.834 61.62 263.841 61.62H262.121V66.42ZM285.286 66.77C285.286 67.83 285.11 68.8033 284.756 69.69C284.403 70.5767 283.906 71.34 283.266 71.98C282.626 72.62 281.856 73.1167 280.956 73.47C280.056 73.8233 279.06 74 277.966 74H272.446V59.54H277.966C279.06 59.54 280.056 59.72 280.956 60.08C281.856 60.4333 282.626 60.93 283.266 61.57C283.906 62.2033 284.403 62.9633 284.756 63.85C285.11 64.7367 285.286 65.71 285.286 66.77ZM282.536 66.77C282.536 65.9767 282.43 65.2667 282.216 64.64C282.003 64.0067 281.7 63.4733 281.306 63.04C280.913 62.6 280.433 62.2633 279.866 62.03C279.306 61.7967 278.673 61.68 277.966 61.68H275.156V71.86H277.966C278.673 71.86 279.306 71.7433 279.866 71.51C280.433 71.2767 280.913 70.9433 281.306 70.51C281.7 70.07 282.003 69.5367 282.216 68.91C282.43 68.2767 282.536 67.5633 282.536 66.77Z" fill="#111111"/>
<path d="M19.991 67.0874L19.9911 67.0875L26.8425 74.0063L26.8426 74.0063C27.1651 74.3318 27.6884 74.3312 28.0102 74.0047L28.0103 74.0046C28.3303 73.6798 28.3294 73.1549 28.0087 72.831L28.0087 72.831L21.7393 66.5L28.0089 60.169L28.0089 60.1689C28.3296 59.845 28.3305 59.3204 28.0106 58.9955L28.0105 58.9954C27.8497 58.8323 27.6377 58.75 27.4257 58.75C27.2144 58.75 27.0032 58.8318 26.8426 58.9938L26.8426 58.9939L19.9914 65.9122L20.1688 66.0884L19.9911 65.9124L19.9913 65.9123C19.8363 66.0685 19.75 66.2802 19.75 66.5C19.75 66.72 19.8366 66.9313 19.991 67.0874Z" fill="#111111" stroke="#111111" stroke-width="0.5"/>
<rect x="139.663" y="788" width="95.674" height="6.30817" rx="3.15409" fill="#E7E7E7"/>
<path d="M92.5 0.0204082H292.5C292.5 0.0204082 290 -0.979591 289.773 11.0204C289.545 23.0204 284.075 28.0204 277.045 28.0204H107.955C100.925 28.0204 95.4545 23.0204 95.2273 11.0204C95 -0.979591 92.5 0.0204082 92.5 0.0204082Z" fill="#DDDDDD"/>
<g opacity="0.1">
<path fill-rule="evenodd" clip-rule="evenodd" d="M339.172 13H352.535C353.102 13 353.645 13.2251 354.046 13.6259C354.447 14.0267 354.672 14.5702 354.672 15.137V19.946C354.672 20.5128 354.447 21.0563 354.046 21.4571C353.645 21.8579 353.102 22.083 352.535 22.083H339.172C338.605 22.083 338.062 21.8579 337.661 21.4571C337.26 21.0563 337.035 20.5128 337.035 19.946V15.137C337.035 14.5702 337.26 14.0267 337.661 13.6259C338.062 13.2251 338.605 13 339.172 13Z" fill="black"/>
</g>
<path d="M355.469 15.939V19.145C355.784 19.0124 356.053 18.7899 356.242 18.5053C356.432 18.2208 356.533 17.8868 356.533 17.545C356.534 17.2023 356.433 16.867 356.244 16.5812C356.055 16.2955 355.785 16.0721 355.469 15.939" fill="#111111"/>
<path d="M339.707 14.603H351.997C352.281 14.603 352.553 14.7157 352.753 14.9161C352.954 15.1166 353.066 15.3885 353.066 15.672V19.412C353.066 19.6955 352.954 19.9674 352.753 20.1679C352.553 20.3684 352.281 20.481 351.997 20.481H339.707C339.424 20.481 339.152 20.3684 338.951 20.1679C338.751 19.9674 338.638 19.6955 338.638 19.412V15.67C338.639 15.3869 338.752 15.1155 338.952 14.9154C339.152 14.7154 339.424 14.603 339.707 14.603V14.603Z" fill="#111111"/>
<path d="M326.476 14.8221C328.252 14.8221 329.96 15.5045 331.247 16.7281C331.293 16.7737 331.356 16.7993 331.42 16.7993C331.485 16.7993 331.548 16.7737 331.594 16.7281L332.521 15.7931C332.545 15.769 332.564 15.7404 332.577 15.709C332.59 15.6776 332.596 15.644 332.596 15.6101C332.596 15.5761 332.589 15.5426 332.576 15.5114C332.562 15.4802 332.543 15.4518 332.519 15.4281C330.893 13.8699 328.728 13 326.476 13C324.224 13 322.059 13.8699 320.433 15.4281C320.409 15.4518 320.39 15.4802 320.376 15.5114C320.363 15.5426 320.356 15.5761 320.356 15.6101C320.356 15.644 320.362 15.6776 320.375 15.709C320.388 15.7404 320.407 15.769 320.431 15.7931L321.358 16.7281C321.404 16.7737 321.467 16.7993 321.531 16.7993C321.596 16.7993 321.659 16.7737 321.705 16.7281C322.992 15.5042 324.701 14.8219 326.477 14.8221H326.476ZM326.476 17.8641C327.452 17.8641 328.393 18.227 329.116 18.8821C329.162 18.9272 329.225 18.9525 329.289 18.9525C329.354 18.9525 329.416 18.9272 329.463 18.8821L330.388 17.9471C330.412 17.9227 330.431 17.8939 330.444 17.8621C330.457 17.8303 330.463 17.7963 330.463 17.7621C330.463 17.7278 330.455 17.694 330.442 17.6626C330.428 17.6312 330.409 17.6028 330.384 17.5791C329.322 16.5915 327.926 16.0425 326.476 16.0425C325.026 16.0425 323.63 16.5915 322.568 17.5791C322.543 17.6028 322.524 17.6312 322.51 17.6626C322.497 17.694 322.489 17.7278 322.489 17.7621C322.489 17.7963 322.495 17.8303 322.508 17.8621C322.521 17.8939 322.54 17.9227 322.564 17.9471L323.489 18.8821C323.535 18.9272 323.598 18.9525 323.662 18.9525C323.727 18.9525 323.789 18.9272 323.836 18.8821C324.559 18.2274 325.499 17.8646 326.474 17.8641H326.476ZM328.255 20.0961C328.279 20.072 328.299 20.0432 328.312 20.0113C328.325 19.9795 328.331 19.9454 328.33 19.9111C328.329 19.8767 328.322 19.8428 328.307 19.8115C328.293 19.7802 328.272 19.7521 328.247 19.7291C327.752 19.3102 327.124 19.0804 326.476 19.0804C325.827 19.0804 325.2 19.3102 324.705 19.7291C324.68 19.752 324.659 19.7798 324.645 19.811C324.63 19.8421 324.623 19.8758 324.622 19.9101C324.621 19.9444 324.627 19.9785 324.64 20.0103C324.653 20.0422 324.672 20.071 324.697 20.0951L326.297 21.7111C326.32 21.7346 326.348 21.7532 326.379 21.7659C326.409 21.7786 326.442 21.7851 326.475 21.7851C326.508 21.7851 326.541 21.7786 326.571 21.7659C326.602 21.7532 326.63 21.7346 326.653 21.7111L328.255 20.0961Z" fill="#111111"/>
<path d="M22.294 18.472C21.97 18.472 21.662 18.418 21.37 18.31C21.082 18.202 20.828 18.044 20.608 17.836C20.388 17.624 20.212 17.366 20.08 17.062C19.952 16.754 19.888 16.402 19.888 16.006C19.888 15.63 19.958 15.278 20.098 14.95C20.238 14.622 20.434 14.336 20.686 14.092C20.938 13.848 21.238 13.656 21.586 13.516C21.934 13.376 22.316 13.306 22.732 13.306C23.144 13.306 23.518 13.374 23.854 13.51C24.19 13.646 24.478 13.836 24.718 14.08C24.958 14.324 25.142 14.616 25.27 14.956C25.402 15.296 25.468 15.672 25.468 16.084C25.468 16.332 25.444 16.568 25.396 16.792C25.352 17.012 25.286 17.228 25.198 17.44C25.11 17.652 25.004 17.864 24.88 18.076C24.76 18.284 24.622 18.5 24.466 18.724L22.372 21.748C22.32 21.824 22.246 21.886 22.15 21.934C22.054 21.978 21.944 22 21.82 22H20.836L23.452 18.574C23.54 18.458 23.622 18.348 23.698 18.244C23.774 18.14 23.846 18.036 23.914 17.932C23.694 18.108 23.446 18.242 23.17 18.334C22.894 18.426 22.602 18.472 22.294 18.472ZM24.442 15.958C24.442 15.69 24.398 15.448 24.31 15.232C24.226 15.012 24.108 14.826 23.956 14.674C23.804 14.522 23.622 14.406 23.41 14.326C23.202 14.242 22.972 14.2 22.72 14.2C22.456 14.2 22.214 14.244 21.994 14.332C21.778 14.416 21.592 14.534 21.436 14.686C21.284 14.838 21.166 15.02 21.082 15.232C20.998 15.444 20.956 15.676 20.956 15.928C20.956 16.2 20.994 16.444 21.07 16.66C21.15 16.872 21.262 17.052 21.406 17.2C21.554 17.348 21.732 17.46 21.94 17.536C22.152 17.612 22.388 17.65 22.648 17.65C22.936 17.65 23.19 17.604 23.41 17.512C23.634 17.416 23.822 17.29 23.974 17.134C24.126 16.978 24.242 16.798 24.322 16.594C24.402 16.39 24.442 16.178 24.442 15.958ZM26.7289 21.34C26.7289 21.236 26.7469 21.138 26.7829 21.046C26.8229 20.954 26.8749 20.874 26.9389 20.806C27.0069 20.738 27.0869 20.684 27.1789 20.644C27.2709 20.604 27.3689 20.584 27.4729 20.584C27.5769 20.584 27.6749 20.604 27.7669 20.644C27.8589 20.684 27.9389 20.738 28.0069 20.806C28.0749 20.874 28.1269 20.954 28.1629 21.046C28.2029 21.138 28.2229 21.236 28.2229 21.34C28.2229 21.448 28.2029 21.548 28.1629 21.64C28.1269 21.728 28.0749 21.806 28.0069 21.874C27.9389 21.942 27.8589 21.994 27.7669 22.03C27.6749 22.07 27.5769 22.09 27.4729 22.09C27.3689 22.09 27.2709 22.07 27.1789 22.03C27.0869 21.994 27.0069 21.942 26.9389 21.874C26.8749 21.806 26.8229 21.728 26.7829 21.64C26.7469 21.548 26.7289 21.448 26.7289 21.34ZM26.7289 16.84C26.7289 16.736 26.7469 16.638 26.7829 16.546C26.8229 16.454 26.8749 16.374 26.9389 16.306C27.0069 16.238 27.0869 16.184 27.1789 16.144C27.2709 16.104 27.3689 16.084 27.4729 16.084C27.5769 16.084 27.6749 16.104 27.7669 16.144C27.8589 16.184 27.9389 16.238 28.0069 16.306C28.0749 16.374 28.1269 16.454 28.1629 16.546C28.2029 16.638 28.2229 16.736 28.2229 16.84C28.2229 16.948 28.2029 17.048 28.1629 17.14C28.1269 17.228 28.0749 17.306 28.0069 17.374C27.9389 17.442 27.8589 17.496 27.7669 17.536C27.6749 17.572 27.5769 17.59 27.4729 17.59C27.3689 17.59 27.2709 17.572 27.1789 17.536C27.0869 17.496 27.0069 17.442 26.9389 17.374C26.8749 17.306 26.8229 17.228 26.7829 17.14C26.7469 17.048 26.7289 16.948 26.7289 16.84ZM34.4024 18.898H35.7044V19.51C35.7044 19.574 35.6844 19.628 35.6444 19.672C35.6084 19.716 35.5504 19.738 35.4704 19.738H34.4024V22H33.4604V19.738H29.6504C29.5704 19.738 29.5004 19.716 29.4404 19.672C29.3844 19.624 29.3484 19.566 29.3324 19.498L29.2244 18.952L33.4064 13.402H34.4024V18.898ZM33.4604 15.352C33.4604 15.248 33.4624 15.136 33.4664 15.016C33.4744 14.896 33.4884 14.772 33.5084 14.644L30.3824 18.898H33.4604V15.352ZM37.6673 21.184H39.5153V15.322C39.5153 15.146 39.5213 14.968 39.5333 14.788L37.9973 16.102C37.9573 16.134 37.9173 16.158 37.8773 16.174C37.8373 16.186 37.7993 16.192 37.7633 16.192C37.7033 16.192 37.6493 16.18 37.6013 16.156C37.5533 16.128 37.5173 16.096 37.4933 16.06L37.1573 15.598L39.7133 13.384H40.5833V21.184H42.2753V22H37.6673V21.184Z" fill="#111111"/>
<path d="M303.502 18.34H304.302C304.514 18.34 304.718 18.4243 304.868 18.5743C305.018 18.7243 305.102 18.9278 305.102 19.14V20.74C305.102 20.9522 305.018 21.1557 304.868 21.3057C304.718 21.4557 304.514 21.54 304.302 21.54H303.502C303.29 21.54 303.086 21.4557 302.936 21.3057C302.786 21.1557 302.702 20.9522 302.702 20.74V19.14C302.702 18.9278 302.786 18.7243 302.936 18.5743C303.086 18.4243 303.29 18.34 303.502 18.34V18.34ZM307.242 16.74H308.042C308.254 16.74 308.458 16.8243 308.608 16.9743C308.758 17.1243 308.842 17.3278 308.842 17.54V20.746C308.842 20.8511 308.821 20.9551 308.781 21.0521C308.741 21.1492 308.682 21.2374 308.608 21.3117C308.534 21.386 308.445 21.4449 308.348 21.4851C308.251 21.5253 308.147 21.546 308.042 21.546H307.242C307.137 21.546 307.033 21.5253 306.936 21.4851C306.839 21.4449 306.751 21.386 306.676 21.3117C306.602 21.2374 306.543 21.1492 306.503 21.0521C306.463 20.9551 306.442 20.8511 306.442 20.746V17.54C306.442 17.4347 306.462 17.3303 306.502 17.2329C306.542 17.1355 306.601 17.047 306.675 16.9724C306.75 16.8978 306.838 16.8386 306.935 16.7982C307.033 16.7578 307.137 16.737 307.242 16.737V16.74ZM310.982 14.87H311.782C311.887 14.87 311.991 14.8907 312.088 14.9309C312.185 14.9711 312.274 15.03 312.348 15.1043C312.422 15.1786 312.481 15.2668 312.521 15.3639C312.561 15.4609 312.582 15.5649 312.582 15.67V20.746C312.582 20.8511 312.561 20.9551 312.521 21.0521C312.481 21.1492 312.422 21.2374 312.348 21.3117C312.274 21.386 312.185 21.4449 312.088 21.4851C311.991 21.5253 311.887 21.546 311.782 21.546H310.982C310.877 21.546 310.773 21.5253 310.676 21.4851C310.579 21.4449 310.491 21.386 310.416 21.3117C310.342 21.2374 310.283 21.1492 310.243 21.0521C310.203 20.9551 310.182 20.8511 310.182 20.746V15.67C310.182 15.5646 310.202 15.4602 310.242 15.3627C310.282 15.2652 310.341 15.1766 310.416 15.102C310.49 15.0274 310.579 14.9682 310.676 14.9279C310.773 14.8876 310.878 14.8669 310.983 14.867L310.982 14.87ZM314.722 13H315.522C315.734 13 315.938 13.0843 316.088 13.2343C316.238 13.3843 316.322 13.5878 316.322 13.8V20.746C316.322 20.9582 316.238 21.1617 316.088 21.3117C315.938 21.4617 315.734 21.546 315.522 21.546H314.722C314.617 21.546 314.513 21.5253 314.416 21.4851C314.319 21.4449 314.231 21.386 314.156 21.3117C314.082 21.2374 314.023 21.1492 313.983 21.0521C313.943 20.9551 313.922 20.8511 313.922 20.746V13.8C313.922 13.6949 313.943 13.5909 313.983 13.4939C314.023 13.3968 314.082 13.3086 314.156 13.2343C314.231 13.16 314.319 13.1011 314.416 13.0609C314.513 13.0207 314.617 13 314.722 13V13Z" fill="#111111"/>
<path d="M122.026 139.366H133.316C134.196 139.366 134.978 139.155 135.661 138.735C136.344 138.314 136.867 137.721 137.232 136.955C137.611 136.173 137.801 135.28 137.801 134.273C137.801 133.267 137.611 132.38 137.232 131.614C136.867 130.833 136.344 130.232 135.661 129.812C134.993 129.391 134.212 129.181 133.316 129.181H122.026V124.81H133.134C135.046 124.81 136.723 125.2 138.165 125.981C139.622 126.762 140.745 127.874 141.534 129.316C142.338 130.743 142.74 132.395 142.74 134.273C142.74 136.151 142.338 137.811 141.534 139.253C140.729 140.68 139.599 141.784 138.142 142.565C136.7 143.346 135.031 143.737 133.134 143.737H122.026V139.366ZM120 124.81H124.644V157.594H120V124.81ZM131.04 142.723L135.661 141.686L144.129 157.594H138.62L131.04 142.723Z" fill="black"/>
<path d="M149.501 124.832H154.144V129.429H149.501V124.832ZM149.501 134.206H154.144V157.594H149.501V134.206Z" fill="black"/>
<path d="M174.631 124.832H179.275V157.594H174.631V124.832ZM168.69 158C166.96 158 165.48 157.632 164.251 156.896C163.037 156.145 162.111 155.056 161.474 153.629C160.837 152.202 160.518 150.489 160.518 148.491V143.331C160.518 141.318 160.829 139.598 161.451 138.171C162.073 136.744 162.976 135.663 164.16 134.927C165.359 134.176 166.793 133.8 168.462 133.8C169.858 133.8 171.133 134.161 172.286 134.882C173.455 135.603 174.396 136.617 175.109 137.923L174.631 142.7C174.631 141.709 174.449 140.86 174.085 140.154C173.72 139.448 173.189 138.915 172.491 138.554C171.808 138.179 170.974 137.991 169.987 137.991C168.455 137.991 167.263 138.464 166.414 139.411C165.579 140.357 165.162 141.686 165.162 143.399V148.491C165.162 150.189 165.579 151.503 166.414 152.434C167.263 153.351 168.455 153.809 169.987 153.809C170.974 153.809 171.808 153.621 172.491 153.246C173.189 152.855 173.72 152.299 174.085 151.578C174.449 150.857 174.631 149.993 174.631 148.987L174.95 153.922C174.479 155.078 173.705 156.047 172.628 156.828C171.566 157.609 170.253 158 168.69 158Z" fill="black"/>
<path d="M196.005 157.932C193.82 157.932 191.954 157.527 190.406 156.716C188.858 155.904 187.674 154.718 186.855 153.155C186.05 151.578 185.648 149.678 185.648 147.455V144.818C185.648 142.505 186.035 140.53 186.809 138.892C187.598 137.255 188.736 136.008 190.224 135.152C191.711 134.296 193.501 133.868 195.596 133.868C197.568 133.868 199.253 134.356 200.649 135.332C202.045 136.309 203.107 137.721 203.836 139.568C204.579 141.416 204.951 143.632 204.951 146.215V147.748H189.017V144.052H200.535C200.399 142.145 199.898 140.665 199.033 139.613C198.183 138.547 197.037 138.014 195.596 138.014C193.835 138.014 192.47 138.584 191.498 139.726C190.542 140.868 190.064 142.483 190.064 144.571V147.545C190.064 149.483 190.58 150.97 191.612 152.006C192.644 153.043 194.108 153.561 196.005 153.561C196.946 153.561 197.88 153.373 198.805 152.998C199.731 152.622 200.558 152.096 201.286 151.42L204.337 154.44C203.168 155.551 201.855 156.415 200.399 157.031C198.942 157.632 197.477 157.932 196.005 157.932Z" fill="black"/>
<g clip-path="url(#clip1_218_23012)">
<path d="M208.902 157.78L253.41 117L211.854 157.78H208.902Z" fill="#D7DF23"/>
<path d="M225.707 157.78L254.092 117.661L228.204 158L225.707 157.78Z" fill="#D7DF23"/>
<path d="M212.536 128.462H223.89L231.61 135.957L226.047 141.137L212.536 128.462Z" fill="black"/>
<path d="M238.877 142.57L255 158H244.1L234.562 149.183L238.877 142.57Z" fill="black"/>
<path d="M218.213 156.898L220.711 153.591H223.436L221.165 156.898H218.213Z" fill="black"/>
<path d="M222.981 151.608L224.98 148.962H227.16L225.343 151.608H222.981Z" fill="black"/>
<path d="M226.615 147.419L228.461 144.554H230.475L228.797 147.419H226.615Z" fill="black"/>
<path d="M230.475 143.011L231.997 140.65H233.654L232.271 143.011H230.475Z" fill="black"/>
<path d="M233.881 139.263L235.16 137.28H236.554L235.391 139.263H233.881Z" fill="black"/>
<path d="M236.833 136.177L238.112 134.194H239.506L238.344 136.177H236.833Z" fill="black"/>
<path d="M239.786 133.091L240.655 131.742H241.602L240.812 133.091H239.786Z" fill="black"/>
<path d="M242.056 130.226L242.817 129.047H243.646L242.955 130.226H242.056Z" fill="black"/>
<path d="M244.327 127.801L245.088 126.622H245.917L245.226 127.801H244.327Z" fill="black"/>
<path d="M246.371 125.597L246.913 124.755H247.506L247.013 125.597H246.371Z" fill="black"/>
<path d="M247.733 124.054L248.276 123.212H248.869L248.376 124.054H247.733Z" fill="black"/>
</g>
<path d="M99.96 346.408C100.445 346.408 100.893 346.477 101.304 346.616C101.715 346.755 102.067 346.952 102.36 347.208C102.659 347.464 102.891 347.773 103.056 348.136C103.221 348.499 103.304 348.901 103.304 349.344C103.304 349.707 103.256 350.032 103.16 350.32C103.069 350.603 102.936 350.853 102.76 351.072C102.589 351.285 102.381 351.467 102.136 351.616C101.891 351.765 101.616 351.885 101.312 351.976C102.059 352.173 102.619 352.504 102.992 352.968C103.371 353.432 103.56 354.013 103.56 354.712C103.56 355.24 103.459 355.715 103.256 356.136C103.059 356.557 102.787 356.917 102.44 357.216C102.093 357.509 101.688 357.736 101.224 357.896C100.765 358.051 100.272 358.128 99.744 358.128C99.136 358.128 98.616 358.053 98.184 357.904C97.752 357.749 97.3867 357.539 97.088 357.272C96.7893 357.005 96.544 356.691 96.352 356.328C96.16 355.96 95.9973 355.563 95.864 355.136L96.472 354.88C96.584 354.832 96.696 354.808 96.808 354.808C96.9147 354.808 97.008 354.832 97.088 354.88C97.1733 354.923 97.2373 354.992 97.28 355.088C97.2907 355.109 97.3013 355.133 97.312 355.16C97.3227 355.181 97.3333 355.205 97.344 355.232C97.4187 355.387 97.5093 355.563 97.616 355.76C97.7227 355.952 97.8667 356.133 98.048 356.304C98.2293 356.475 98.4533 356.619 98.72 356.736C98.992 356.853 99.328 356.912 99.728 356.912C100.128 356.912 100.477 356.848 100.776 356.72C101.08 356.587 101.331 356.416 101.528 356.208C101.731 356 101.883 355.768 101.984 355.512C102.085 355.256 102.136 355.003 102.136 354.752C102.136 354.443 102.093 354.16 102.008 353.904C101.928 353.648 101.779 353.427 101.56 353.24C101.347 353.053 101.048 352.907 100.664 352.8C100.285 352.693 99.7973 352.64 99.2 352.64V351.608C99.6853 351.603 100.099 351.549 100.44 351.448C100.787 351.347 101.069 351.208 101.288 351.032C101.507 350.856 101.664 350.645 101.76 350.4C101.861 350.155 101.912 349.883 101.912 349.584C101.912 349.253 101.859 348.965 101.752 348.72C101.651 348.475 101.509 348.272 101.328 348.112C101.147 347.952 100.931 347.832 100.68 347.752C100.435 347.672 100.168 347.632 99.88 347.632C99.592 347.632 99.3253 347.675 99.08 347.76C98.8347 347.845 98.616 347.965 98.424 348.12C98.2373 348.269 98.08 348.451 97.952 348.664C97.824 348.872 97.728 349.099 97.664 349.344C97.6213 349.499 97.5573 349.611 97.472 349.68C97.3867 349.749 97.2773 349.784 97.144 349.784C97.1173 349.784 97.088 349.784 97.056 349.784C97.0293 349.779 96.9973 349.773 96.96 349.768L96.216 349.64C96.2907 349.117 96.4347 348.656 96.648 348.256C96.8613 347.851 97.1307 347.512 97.456 347.24C97.7867 346.968 98.1627 346.763 98.584 346.624C99.0107 346.48 99.4693 346.408 99.96 346.408ZM112.953 346.536V347.176C112.953 347.357 112.932 347.507 112.889 347.624C112.852 347.741 112.812 347.84 112.769 347.92L108.025 357.496C107.956 357.635 107.86 357.755 107.737 357.856C107.615 357.952 107.449 358 107.241 358H106.225L111.041 348.544C111.111 348.411 111.18 348.288 111.249 348.176C111.324 348.064 111.407 347.957 111.497 347.856H105.513C105.423 347.856 105.34 347.821 105.265 347.752C105.196 347.677 105.161 347.595 105.161 347.504V346.536H112.953ZM118.523 346.408C119.008 346.408 119.456 346.477 119.867 346.616C120.277 346.755 120.629 346.952 120.923 347.208C121.221 347.464 121.453 347.773 121.619 348.136C121.784 348.499 121.867 348.901 121.867 349.344C121.867 349.707 121.819 350.032 121.723 350.32C121.632 350.603 121.499 350.853 121.323 351.072C121.152 351.285 120.944 351.467 120.699 351.616C120.453 351.765 120.179 351.885 119.875 351.976C120.621 352.173 121.181 352.504 121.555 352.968C121.933 353.432 122.123 354.013 122.123 354.712C122.123 355.24 122.021 355.715 121.819 356.136C121.621 356.557 121.349 356.917 121.003 357.216C120.656 357.509 120.251 357.736 119.787 357.896C119.328 358.051 118.835 358.128 118.307 358.128C117.699 358.128 117.179 358.053 116.747 357.904C116.315 357.749 115.949 357.539 115.651 357.272C115.352 357.005 115.107 356.691 114.915 356.328C114.723 355.96 114.56 355.563 114.427 355.136L115.035 354.88C115.147 354.832 115.259 354.808 115.371 354.808C115.477 354.808 115.571 354.832 115.651 354.88C115.736 354.923 115.8 354.992 115.843 355.088C115.853 355.109 115.864 355.133 115.875 355.16C115.885 355.181 115.896 355.205 115.907 355.232C115.981 355.387 116.072 355.563 116.179 355.76C116.285 355.952 116.429 356.133 116.611 356.304C116.792 356.475 117.016 356.619 117.283 356.736C117.555 356.853 117.891 356.912 118.291 356.912C118.691 356.912 119.04 356.848 119.339 356.72C119.643 356.587 119.893 356.416 120.091 356.208C120.293 356 120.445 355.768 120.547 355.512C120.648 355.256 120.699 355.003 120.699 354.752C120.699 354.443 120.656 354.16 120.571 353.904C120.491 353.648 120.341 353.427 120.123 353.24C119.909 353.053 119.611 352.907 119.227 352.8C118.848 352.693 118.36 352.64 117.763 352.64V351.608C118.248 351.603 118.661 351.549 119.003 351.448C119.349 351.347 119.632 351.208 119.851 351.032C120.069 350.856 120.227 350.645 120.323 350.4C120.424 350.155 120.475 349.883 120.475 349.584C120.475 349.253 120.421 348.965 120.315 348.72C120.213 348.475 120.072 348.272 119.891 348.112C119.709 347.952 119.493 347.832 119.243 347.752C118.997 347.672 118.731 347.632 118.443 347.632C118.155 347.632 117.888 347.675 117.643 347.76C117.397 347.845 117.179 347.965 116.987 348.12C116.8 348.269 116.643 348.451 116.515 348.664C116.387 348.872 116.291 349.099 116.227 349.344C116.184 349.499 116.12 349.611 116.035 349.68C115.949 349.749 115.84 349.784 115.707 349.784C115.68 349.784 115.651 349.784 115.618 349.784C115.592 349.779 115.56 349.773 115.523 349.768L114.779 349.64C114.853 349.117 114.997 348.656 115.211 348.256C115.424 347.851 115.693 347.512 116.019 347.24C116.349 346.968 116.725 346.763 117.147 346.624C117.573 346.48 118.032 346.408 118.523 346.408ZM130.746 346.408C131.231 346.408 131.684 346.48 132.106 346.624C132.527 346.768 132.89 346.979 133.194 347.256C133.503 347.528 133.746 347.861 133.922 348.256C134.098 348.651 134.186 349.099 134.186 349.6C134.186 350.027 134.122 350.421 133.994 350.784C133.866 351.147 133.692 351.496 133.474 351.832C133.255 352.163 133.002 352.485 132.714 352.8C132.431 353.109 132.13 353.427 131.81 353.752L128.794 356.84C129.007 356.781 129.223 356.736 129.442 356.704C129.66 356.667 129.871 356.648 130.074 356.648H133.914C134.068 356.648 134.191 356.693 134.282 356.784C134.372 356.875 134.418 356.992 134.418 357.136V358H126.77V357.512C126.77 357.411 126.788 357.307 126.826 357.2C126.868 357.093 126.935 356.995 127.026 356.904L130.698 353.216C131.002 352.907 131.279 352.611 131.53 352.328C131.78 352.04 131.994 351.752 132.17 351.464C132.351 351.176 132.49 350.885 132.586 350.592C132.682 350.293 132.73 349.976 132.73 349.64C132.73 349.304 132.676 349.011 132.57 348.76C132.463 348.504 132.316 348.293 132.13 348.128C131.943 347.963 131.724 347.84 131.474 347.76C131.223 347.675 130.954 347.632 130.666 347.632C130.378 347.632 130.111 347.675 129.866 347.76C129.62 347.845 129.402 347.965 129.21 348.12C129.023 348.269 128.863 348.448 128.73 348.656C128.602 348.864 128.511 349.093 128.458 349.344C128.415 349.499 128.351 349.611 128.266 349.68C128.18 349.749 128.068 349.784 127.93 349.784C127.903 349.784 127.874 349.784 127.842 349.784C127.815 349.779 127.783 349.773 127.746 349.768L127.002 349.64C127.076 349.117 127.22 348.656 127.434 348.256C127.647 347.851 127.916 347.512 128.242 347.24C128.572 346.968 128.948 346.763 129.37 346.624C129.796 346.48 130.255 346.408 130.746 346.408ZM139.611 353.296C139.179 353.296 138.768 353.224 138.379 353.08C137.995 352.936 137.656 352.725 137.363 352.448C137.069 352.165 136.835 351.821 136.659 351.416C136.488 351.005 136.403 350.536 136.403 350.008C136.403 349.507 136.496 349.037 136.683 348.6C136.869 348.163 137.131 347.781 137.467 347.456C137.803 347.131 138.203 346.875 138.667 346.688C139.131 346.501 139.64 346.408 140.195 346.408C140.744 346.408 141.243 346.499 141.691 346.68C142.139 346.861 142.523 347.115 142.843 347.44C143.163 347.765 143.408 348.155 143.579 348.608C143.755 349.061 143.843 349.563 143.843 350.112C143.843 350.443 143.811 350.757 143.747 351.056C143.688 351.349 143.6 351.637 143.483 351.92C143.365 352.203 143.224 352.485 143.059 352.768C142.899 353.045 142.715 353.333 142.507 353.632L139.715 357.664C139.645 357.765 139.547 357.848 139.419 357.912C139.291 357.971 139.144 358 138.979 358H137.667L141.155 353.432C141.272 353.277 141.381 353.131 141.483 352.992C141.584 352.853 141.68 352.715 141.771 352.576C141.477 352.811 141.147 352.989 140.779 353.112C140.411 353.235 140.021 353.296 139.611 353.296ZM142.475 349.944C142.475 349.587 142.416 349.264 142.299 348.976C142.187 348.683 142.029 348.435 141.827 348.232C141.624 348.029 141.381 347.875 141.099 347.768C140.821 347.656 140.515 347.6 140.179 347.6C139.827 347.6 139.504 347.659 139.211 347.776C138.923 347.888 138.675 348.045 138.467 348.248C138.264 348.451 138.107 348.693 137.995 348.976C137.883 349.259 137.827 349.568 137.827 349.904C137.827 350.267 137.877 350.592 137.979 350.88C138.085 351.163 138.235 351.403 138.427 351.6C138.624 351.797 138.861 351.947 139.139 352.048C139.421 352.149 139.736 352.2 140.083 352.2C140.467 352.2 140.805 352.139 141.099 352.016C141.397 351.888 141.648 351.72 141.851 351.512C142.053 351.304 142.208 351.064 142.315 350.792C142.421 350.52 142.475 350.237 142.475 349.944ZM148.892 353.296C148.46 353.296 148.049 353.224 147.66 353.08C147.276 352.936 146.937 352.725 146.644 352.448C146.351 352.165 146.116 351.821 145.94 351.416C145.769 351.005 145.684 350.536 145.684 350.008C145.684 349.507 145.777 349.037 145.964 348.6C146.151 348.163 146.412 347.781 146.748 347.456C147.084 347.131 147.484 346.875 147.948 346.688C148.412 346.501 148.921 346.408 149.476 346.408C150.025 346.408 150.524 346.499 150.972 346.68C151.42 346.861 151.804 347.115 152.124 347.44C152.444 347.765 152.689 348.155 152.86 348.608C153.036 349.061 153.124 349.563 153.124 350.112C153.124 350.443 153.092 350.757 153.028 351.056C152.969 351.349 152.881 351.637 152.764 351.92C152.647 352.203 152.505 352.485 152.34 352.768C152.18 353.045 151.996 353.333 151.788 353.632L148.996 357.664C148.927 357.765 148.828 357.848 148.7 357.912C148.572 357.971 148.425 358 148.26 358H146.948L150.436 353.432C150.553 353.277 150.663 353.131 150.764 352.992C150.865 352.853 150.961 352.715 151.052 352.576C150.759 352.811 150.428 352.989 150.06 353.112C149.692 353.235 149.303 353.296 148.892 353.296ZM151.756 349.944C151.756 349.587 151.697 349.264 151.58 348.976C151.468 348.683 151.311 348.435 151.108 348.232C150.905 348.029 150.663 347.875 150.38 347.768C150.103 347.656 149.796 347.6 149.46 347.6C149.108 347.6 148.785 347.659 148.492 347.776C148.204 347.888 147.956 348.045 147.748 348.248C147.545 348.451 147.388 348.693 147.276 348.976C147.164 349.259 147.108 349.568 147.108 349.904C147.108 350.267 147.159 350.592 147.26 350.88C147.367 351.163 147.516 351.403 147.708 351.6C147.905 351.797 148.143 351.947 148.42 352.048C148.703 352.149 149.017 352.2 149.364 352.2C149.748 352.2 150.087 352.139 150.38 352.016C150.679 351.888 150.929 351.72 151.132 351.512C151.335 351.304 151.489 351.064 151.596 350.792C151.703 350.52 151.756 350.237 151.756 349.944ZM161.835 346.408C162.32 346.408 162.768 346.477 163.179 346.616C163.59 346.755 163.942 346.952 164.235 347.208C164.534 347.464 164.766 347.773 164.931 348.136C165.096 348.499 165.179 348.901 165.179 349.344C165.179 349.707 165.131 350.032 165.035 350.32C164.944 350.603 164.811 350.853 164.635 351.072C164.464 351.285 164.256 351.467 164.011 351.616C163.766 351.765 163.491 351.885 163.187 351.976C163.934 352.173 164.494 352.504 164.867 352.968C165.246 353.432 165.435 354.013 165.435 354.712C165.435 355.24 165.334 355.715 165.131 356.136C164.934 356.557 164.662 356.917 164.315 357.216C163.968 357.509 163.563 357.736 163.099 357.896C162.64 358.051 162.147 358.128 161.619 358.128C161.011 358.128 160.491 358.053 160.059 357.904C159.627 357.749 159.262 357.539 158.963 357.272C158.664 357.005 158.419 356.691 158.227 356.328C158.035 355.96 157.872 355.563 157.739 355.136L158.347 354.88C158.459 354.832 158.571 354.808 158.683 354.808C158.79 354.808 158.883 354.832 158.963 354.88C159.048 354.923 159.112 354.992 159.155 355.088C159.166 355.109 159.176 355.133 159.187 355.16C159.198 355.181 159.208 355.205 159.219 355.232C159.294 355.387 159.384 355.563 159.491 355.76C159.598 355.952 159.742 356.133 159.923 356.304C160.104 356.475 160.328 356.619 160.595 356.736C160.867 356.853 161.203 356.912 161.603 356.912C162.003 356.912 162.352 356.848 162.651 356.72C162.955 356.587 163.206 356.416 163.403 356.208C163.606 356 163.758 355.768 163.859 355.512C163.96 355.256 164.011 355.003 164.011 354.752C164.011 354.443 163.968 354.16 163.883 353.904C163.803 353.648 163.654 353.427 163.435 353.24C163.222 353.053 162.923 352.907 162.539 352.8C162.16 352.693 161.672 352.64 161.075 352.64V351.608C161.56 351.603 161.974 351.549 162.315 351.448C162.662 351.347 162.944 351.208 163.163 351.032C163.382 350.856 163.539 350.645 163.635 350.4C163.736 350.155 163.787 349.883 163.787 349.584C163.787 349.253 163.734 348.965 163.627 348.72C163.526 348.475 163.384 348.272 163.203 348.112C163.022 347.952 162.806 347.832 162.555 347.752C162.31 347.672 162.043 347.632 161.755 347.632C161.467 347.632 161.2 347.675 160.955 347.76C160.71 347.845 160.491 347.965 160.299 348.12C160.112 348.269 159.955 348.451 159.827 348.664C159.699 348.872 159.603 349.099 159.539 349.344C159.496 349.499 159.432 349.611 159.347 349.68C159.262 349.749 159.152 349.784 159.019 349.784C158.992 349.784 158.963 349.784 158.931 349.784C158.904 349.779 158.872 349.773 158.835 349.768L158.091 349.64C158.166 349.117 158.31 348.656 158.523 348.256C158.736 347.851 159.006 347.512 159.331 347.24C159.662 346.968 160.038 346.763 160.459 346.624C160.886 346.48 161.344 346.408 161.835 346.408ZM173.38 353.864H175.116V354.68C175.116 354.765 175.09 354.837 175.036 354.896C174.988 354.955 174.911 354.984 174.804 354.984H173.38V358H172.124V354.984H167.044C166.938 354.984 166.844 354.955 166.764 354.896C166.69 354.832 166.642 354.755 166.62 354.664L166.476 353.936L172.052 346.536H173.38V353.864ZM172.124 349.136C172.124 348.997 172.127 348.848 172.132 348.688C172.143 348.528 172.162 348.363 172.188 348.192L168.02 353.864H172.124V349.136ZM183.262 347.16C183.262 347.363 183.198 347.531 183.07 347.664C182.942 347.792 182.726 347.856 182.422 347.856H178.822L178.294 350.864C178.891 350.736 179.443 350.672 179.95 350.672C180.547 350.672 181.072 350.76 181.526 350.936C181.984 351.112 182.368 351.355 182.678 351.664C182.987 351.973 183.219 352.339 183.374 352.76C183.534 353.181 183.614 353.64 183.614 354.136C183.614 354.744 183.507 355.293 183.294 355.784C183.08 356.275 182.787 356.696 182.414 357.048C182.046 357.395 181.611 357.661 181.11 357.848C180.608 358.035 180.067 358.128 179.486 358.128C179.15 358.128 178.827 358.093 178.518 358.024C178.208 357.96 177.92 357.872 177.654 357.76C177.387 357.648 177.139 357.52 176.91 357.376C176.68 357.232 176.478 357.08 176.302 356.92L176.734 356.312C176.83 356.173 176.958 356.104 177.118 356.104C177.219 356.104 177.336 356.147 177.47 356.232C177.608 356.312 177.774 356.403 177.966 356.504C178.158 356.605 178.382 356.699 178.638 356.784C178.899 356.864 179.208 356.904 179.566 356.904C179.966 356.904 180.326 356.84 180.646 356.712C180.966 356.584 181.238 356.403 181.462 356.168C181.691 355.928 181.867 355.643 181.99 355.312C182.112 354.981 182.174 354.611 182.174 354.2C182.174 353.843 182.12 353.52 182.014 353.232C181.912 352.944 181.755 352.699 181.542 352.496C181.334 352.293 181.072 352.136 180.758 352.024C180.443 351.912 180.075 351.856 179.654 351.856C179.366 351.856 179.067 351.88 178.758 351.928C178.448 351.976 178.128 352.053 177.798 352.16L176.902 351.896L177.83 346.536H183.262V347.16ZM189.919 350.976C190.377 350.976 190.812 351.053 191.223 351.208C191.633 351.357 191.993 351.579 192.303 351.872C192.612 352.16 192.857 352.517 193.039 352.944C193.22 353.365 193.311 353.848 193.311 354.392C193.311 354.92 193.215 355.411 193.023 355.864C192.831 356.317 192.561 356.712 192.215 357.048C191.873 357.384 191.46 357.648 190.975 357.84C190.489 358.032 189.956 358.128 189.375 358.128C188.799 358.128 188.276 358.037 187.807 357.856C187.343 357.669 186.945 357.408 186.615 357.072C186.284 356.731 186.028 356.32 185.847 355.84C185.671 355.355 185.583 354.813 185.583 354.216C185.583 353.715 185.695 353.181 185.919 352.616C186.143 352.051 186.497 351.443 186.983 350.792L189.887 346.88C189.961 346.784 190.065 346.704 190.199 346.64C190.332 346.571 190.484 346.536 190.655 346.536H191.919L187.943 351.568C188.215 351.381 188.516 351.237 188.847 351.136C189.177 351.029 189.535 350.976 189.919 350.976ZM186.959 354.464C186.959 354.832 187.012 355.168 187.119 355.472C187.225 355.776 187.38 356.037 187.583 356.256C187.791 356.475 188.041 356.645 188.335 356.768C188.633 356.885 188.972 356.944 189.351 356.944C189.735 356.944 190.081 356.883 190.391 356.76C190.7 356.637 190.964 356.467 191.183 356.248C191.407 356.029 191.577 355.771 191.695 355.472C191.817 355.173 191.879 354.848 191.879 354.496C191.879 354.123 191.82 353.787 191.703 353.488C191.585 353.184 191.42 352.928 191.207 352.72C190.993 352.507 190.737 352.344 190.439 352.232C190.14 352.12 189.812 352.064 189.455 352.064C189.071 352.064 188.724 352.131 188.415 352.264C188.105 352.392 187.841 352.568 187.623 352.792C187.409 353.011 187.244 353.267 187.127 353.56C187.015 353.848 186.959 354.149 186.959 354.464Z" fill="#111111"/>
<path d="M33.208 348.672V352.088H36.464V353.168H33.208V356.608H32.04V353.168H28.8V352.088H32.04V348.672H33.208ZM39.5773 356.912H42.0413V349.096C42.0413 348.861 42.0493 348.624 42.0653 348.384L40.0173 350.136C39.9639 350.179 39.9106 350.211 39.8573 350.232C39.8039 350.248 39.7533 350.256 39.7053 350.256C39.6253 350.256 39.5533 350.24 39.4893 350.208C39.4253 350.171 39.3773 350.128 39.3453 350.08L38.8973 349.464L42.3053 346.512H43.4653V356.912H45.7213V358H39.5773V356.912Z" fill="#111111"/>
<path d="M60.747 356.455L64.8982 352.172C65.0342 352.032 65.0339 351.805 64.8975 351.665C64.7611 351.525 64.5402 351.525 64.4042 351.666L60.5 355.693L56.5958 351.666C56.4598 351.525 56.239 351.525 56.1026 351.665C56.0342 351.735 56 351.827 56 351.919C56 352.011 56.034 352.102 56.1019 352.172L60.253 356.455C60.3184 356.522 60.4073 356.56 60.5 356.56C60.5927 356.56 60.6815 356.522 60.747 356.455Z" fill="black"/>
<path d="M332.751 345.507C332.419 345.175 331.881 345.175 331.549 345.507L321.365 355.69L317.451 351.776C317.119 351.444 316.581 351.444 316.249 351.776C315.917 352.108 315.917 352.646 316.249 352.978L320.764 357.493C321.096 357.825 321.635 357.825 321.966 357.493L332.751 346.709C333.083 346.377 333.083 345.839 332.751 345.507Z" fill="#36D000"/>
<rect x="0.25" y="-0.25" width="250.5" height="0.5" transform="matrix(1 0 0 -1 95 372.5)" stroke="#5B5B5B" stroke-width="0.5"/>
<rect x="0.25" y="-0.25" width="52.5" height="0.5" transform="matrix(1 0 0 -1 28 372.5)" stroke="#5B5B5B" stroke-width="0.5"/>
<path d="M38.58 289.04V291.18H32.17V295.19H37.22V297.26H32.17V301.35H38.58V303.5H29.46V289.04H38.58ZM40.7653 303.5V293.24H42.2753C42.5953 293.24 42.8053 293.39 42.9053 293.69L43.0753 294.5C43.282 294.287 43.4986 294.093 43.7253 293.92C43.9586 293.747 44.202 293.597 44.4553 293.47C44.7153 293.343 44.992 293.247 45.2853 293.18C45.5786 293.113 45.8986 293.08 46.2453 293.08C46.8053 293.08 47.302 293.177 47.7353 293.37C48.1686 293.557 48.5286 293.823 48.8153 294.17C49.1086 294.51 49.3286 294.92 49.4753 295.4C49.6286 295.873 49.7053 296.397 49.7053 296.97V303.5H47.2353V296.97C47.2353 296.343 47.0886 295.86 46.7953 295.52C46.5086 295.173 46.0753 295 45.4953 295C45.0686 295 44.6686 295.097 44.2953 295.29C43.922 295.483 43.5686 295.747 43.2353 296.08V303.5H40.7653ZM55.5025 303.66C54.6158 303.66 53.9325 303.41 53.4525 302.91C52.9725 302.403 52.7325 301.707 52.7325 300.82V295.09H51.6925C51.5592 295.09 51.4425 295.047 51.3425 294.96C51.2492 294.873 51.2025 294.743 51.2025 294.57V293.59L52.8525 293.32L53.3725 290.52C53.3992 290.387 53.4592 290.283 53.5525 290.21C53.6525 290.137 53.7758 290.1 53.9225 290.1H55.2025V293.33H57.9025V295.09H55.2025V300.65C55.2025 300.97 55.2825 301.22 55.4425 301.4C55.6025 301.58 55.8158 301.67 56.0825 301.67C56.2358 301.67 56.3625 301.653 56.4625 301.62C56.5692 301.58 56.6592 301.54 56.7325 301.5C56.8125 301.46 56.8825 301.423 56.9425 301.39C57.0025 301.35 57.0625 301.33 57.1225 301.33C57.1958 301.33 57.2558 301.35 57.3025 301.39C57.3492 301.423 57.3992 301.477 57.4525 301.55L58.1925 302.75C57.8325 303.05 57.4192 303.277 56.9525 303.43C56.4858 303.583 56.0025 303.66 55.5025 303.66ZM64.1069 293.08C64.7535 293.08 65.3469 293.183 65.8869 293.39C66.4335 293.597 66.9035 293.9 67.2969 294.3C67.6902 294.693 67.9969 295.18 68.2169 295.76C68.4369 296.333 68.5469 296.99 68.5469 297.73C68.5469 297.917 68.5369 298.073 68.5169 298.2C68.5035 298.32 68.4735 298.417 68.4269 298.49C68.3869 298.557 68.3302 298.607 68.2569 298.64C68.1835 298.667 68.0902 298.68 67.9769 298.68H61.6369C61.7102 299.733 61.9935 300.507 62.4869 301C62.9802 301.493 63.6335 301.74 64.4469 301.74C64.8469 301.74 65.1902 301.693 65.4769 301.6C65.7702 301.507 66.0235 301.403 66.2369 301.29C66.4569 301.177 66.6469 301.073 66.8069 300.98C66.9735 300.887 67.1335 300.84 67.2869 300.84C67.3869 300.84 67.4735 300.86 67.5469 300.9C67.6202 300.94 67.6835 300.997 67.7369 301.07L68.4569 301.97C68.1835 302.29 67.8769 302.56 67.5369 302.78C67.1969 302.993 66.8402 303.167 66.4669 303.3C66.1002 303.427 65.7235 303.517 65.3369 303.57C64.9569 303.623 64.5869 303.65 64.2269 303.65C63.5135 303.65 62.8502 303.533 62.2369 303.3C61.6235 303.06 61.0902 302.71 60.6369 302.25C60.1835 301.783 59.8269 301.21 59.5669 300.53C59.3069 299.843 59.1769 299.05 59.1769 298.15C59.1769 297.45 59.2902 296.793 59.5169 296.18C59.7435 295.56 60.0669 295.023 60.4869 294.57C60.9135 294.11 61.4302 293.747 62.0369 293.48C62.6502 293.213 63.3402 293.08 64.1069 293.08ZM64.1569 294.85C63.4369 294.85 62.8735 295.053 62.4669 295.46C62.0602 295.867 61.8002 296.443 61.6869 297.19H66.3269C66.3269 296.87 66.2835 296.57 66.1969 296.29C66.1102 296.003 65.9769 295.753 65.7969 295.54C65.6169 295.327 65.3902 295.16 65.1169 295.04C64.8435 294.913 64.5235 294.85 64.1569 294.85ZM70.5505 303.5V293.24H72.0005C72.2538 293.24 72.4305 293.287 72.5305 293.38C72.6305 293.473 72.6971 293.633 72.7305 293.86L72.8805 295.1C73.2471 294.467 73.6771 293.967 74.1705 293.6C74.6638 293.233 75.2171 293.05 75.8305 293.05C76.3371 293.05 76.7571 293.167 77.0905 293.4L76.7705 295.25C76.7505 295.37 76.7071 295.457 76.6405 295.51C76.5738 295.557 76.4838 295.58 76.3705 295.58C76.2705 295.58 76.1338 295.557 75.9605 295.51C75.7871 295.463 75.5571 295.44 75.2705 295.44C74.7571 295.44 74.3171 295.583 73.9505 295.87C73.5838 296.15 73.2738 296.563 73.0205 297.11V303.5H70.5505ZM82.5817 303.5V293.24H84.0917C84.4117 293.24 84.6217 293.39 84.7217 293.69L84.8817 294.45C85.0617 294.25 85.2484 294.067 85.4417 293.9C85.6417 293.733 85.8517 293.59 86.0717 293.47C86.2984 293.35 86.5384 293.257 86.7917 293.19C87.0517 293.117 87.3351 293.08 87.6417 293.08C88.2884 293.08 88.8184 293.257 89.2317 293.61C89.6517 293.957 89.9651 294.42 90.1717 295C90.3317 294.66 90.5317 294.37 90.7717 294.13C91.0117 293.883 91.2751 293.683 91.5617 293.53C91.8484 293.377 92.1517 293.263 92.4717 293.19C92.7984 293.117 93.1251 293.08 93.4517 293.08C94.0184 293.08 94.5217 293.167 94.9617 293.34C95.4017 293.513 95.7717 293.767 96.0717 294.1C96.3717 294.433 96.5984 294.84 96.7517 295.32C96.9117 295.8 96.9917 296.35 96.9917 296.97V303.5H94.5217V296.97C94.5217 296.317 94.3784 295.827 94.0917 295.5C93.8051 295.167 93.3851 295 92.8317 295C92.5784 295 92.3417 295.043 92.1217 295.13C91.9084 295.217 91.7184 295.343 91.5517 295.51C91.3917 295.67 91.2651 295.873 91.1717 296.12C91.0784 296.367 91.0317 296.65 91.0317 296.97V303.5H88.5517V296.97C88.5517 296.283 88.4117 295.783 88.1317 295.47C87.8584 295.157 87.4517 295 86.9117 295C86.5584 295 86.2251 295.09 85.9117 295.27C85.6051 295.443 85.3184 295.683 85.0517 295.99V303.5H82.5817ZM103.798 293.08C104.564 293.08 105.258 293.203 105.878 293.45C106.504 293.697 107.038 294.047 107.478 294.5C107.918 294.953 108.258 295.507 108.498 296.16C108.738 296.813 108.858 297.543 108.858 298.35C108.858 299.163 108.738 299.897 108.498 300.55C108.258 301.203 107.918 301.76 107.478 302.22C107.038 302.68 106.504 303.033 105.878 303.28C105.258 303.527 104.564 303.65 103.798 303.65C103.031 303.65 102.334 303.527 101.708 303.28C101.081 303.033 100.544 302.68 100.098 302.22C99.6577 301.76 99.3143 301.203 99.0677 300.55C98.8277 299.897 98.7077 299.163 98.7077 298.35C98.7077 297.543 98.8277 296.813 99.0677 296.16C99.3143 295.507 99.6577 294.953 100.098 294.5C100.544 294.047 101.081 293.697 101.708 293.45C102.334 293.203 103.031 293.08 103.798 293.08ZM103.798 301.75C104.651 301.75 105.281 301.463 105.688 300.89C106.101 300.317 106.308 299.477 106.308 298.37C106.308 297.263 106.101 296.42 105.688 295.84C105.281 295.26 104.651 294.97 103.798 294.97C102.931 294.97 102.291 295.263 101.878 295.85C101.464 296.43 101.258 297.27 101.258 298.37C101.258 299.47 101.464 300.31 101.878 300.89C102.291 301.463 102.931 301.75 103.798 301.75ZM110.815 303.5V288.64H113.285V294.5C113.692 294.067 114.152 293.723 114.665 293.47C115.178 293.21 115.778 293.08 116.465 293.08C117.025 293.08 117.535 293.197 117.995 293.43C118.462 293.657 118.862 293.99 119.195 294.43C119.535 294.87 119.795 295.413 119.975 296.06C120.162 296.707 120.255 297.45 120.255 298.29C120.255 299.057 120.152 299.767 119.945 300.42C119.738 301.073 119.442 301.64 119.055 302.12C118.675 302.6 118.212 302.977 117.665 303.25C117.125 303.517 116.518 303.65 115.845 303.65C115.532 303.65 115.245 303.617 114.985 303.55C114.725 303.49 114.488 303.403 114.275 303.29C114.062 303.177 113.862 303.04 113.675 302.88C113.495 302.713 113.322 302.53 113.155 302.33L113.045 303.02C113.005 303.193 112.935 303.317 112.835 303.39C112.742 303.463 112.612 303.5 112.445 303.5H110.815ZM115.615 295C115.102 295 114.662 295.11 114.295 295.33C113.935 295.543 113.598 295.847 113.285 296.24V300.84C113.565 301.187 113.868 301.43 114.195 301.57C114.528 301.703 114.888 301.77 115.275 301.77C115.648 301.77 115.985 301.7 116.285 301.56C116.585 301.42 116.838 301.207 117.045 300.92C117.258 300.633 117.422 300.273 117.535 299.84C117.648 299.4 117.705 298.883 117.705 298.29C117.705 297.69 117.655 297.183 117.555 296.77C117.462 296.35 117.325 296.01 117.145 295.75C116.965 295.49 116.745 295.3 116.485 295.18C116.232 295.06 115.942 295 115.615 295ZM124.821 293.24V303.5H122.351V293.24H124.821ZM125.191 290.25C125.191 290.463 125.148 290.663 125.061 290.85C124.974 291.037 124.858 291.2 124.711 291.34C124.571 291.48 124.404 291.593 124.211 291.68C124.018 291.76 123.811 291.8 123.591 291.8C123.378 291.8 123.174 291.76 122.981 291.68C122.794 291.593 122.631 291.48 122.491 291.34C122.351 291.2 122.238 291.037 122.151 290.85C122.071 290.663 122.031 290.463 122.031 290.25C122.031 290.03 122.071 289.823 122.151 289.63C122.238 289.437 122.351 289.27 122.491 289.13C122.631 288.99 122.794 288.88 122.981 288.8C123.174 288.713 123.378 288.67 123.591 288.67C123.811 288.67 124.018 288.713 124.211 288.8C124.404 288.88 124.571 288.99 124.711 289.13C124.858 289.27 124.974 289.437 125.061 289.63C125.148 289.823 125.191 290.03 125.191 290.25ZM130.251 288.64V303.5H127.781V288.64H130.251ZM137.29 293.08C137.937 293.08 138.53 293.183 139.07 293.39C139.617 293.597 140.087 293.9 140.48 294.3C140.874 294.693 141.18 295.18 141.4 295.76C141.62 296.333 141.73 296.99 141.73 297.73C141.73 297.917 141.72 298.073 141.7 298.2C141.687 298.32 141.657 298.417 141.61 298.49C141.57 298.557 141.514 298.607 141.44 298.64C141.367 298.667 141.274 298.68 141.16 298.68H134.82C134.894 299.733 135.177 300.507 135.67 301C136.164 301.493 136.817 301.74 137.63 301.74C138.03 301.74 138.374 301.693 138.66 301.6C138.954 301.507 139.207 301.403 139.42 301.29C139.64 301.177 139.83 301.073 139.99 300.98C140.157 300.887 140.317 300.84 140.47 300.84C140.57 300.84 140.657 300.86 140.73 300.9C140.804 300.94 140.867 300.997 140.92 301.07L141.64 301.97C141.367 302.29 141.06 302.56 140.72 302.78C140.38 302.993 140.024 303.167 139.65 303.3C139.284 303.427 138.907 303.517 138.52 303.57C138.14 303.623 137.77 303.65 137.41 303.65C136.697 303.65 136.034 303.533 135.42 303.3C134.807 303.06 134.274 302.71 133.82 302.25C133.367 301.783 133.01 301.21 132.75 300.53C132.49 299.843 132.36 299.05 132.36 298.15C132.36 297.45 132.474 296.793 132.7 296.18C132.927 295.56 133.25 295.023 133.67 294.57C134.097 294.11 134.614 293.747 135.22 293.48C135.834 293.213 136.524 293.08 137.29 293.08ZM137.34 294.85C136.62 294.85 136.057 295.053 135.65 295.46C135.244 295.867 134.984 296.443 134.87 297.19H139.51C139.51 296.87 139.467 296.57 139.38 296.29C139.294 296.003 139.16 295.753 138.98 295.54C138.8 295.327 138.574 295.16 138.3 295.04C138.027 294.913 137.707 294.85 137.34 294.85ZM147.601 303.5V293.24H149.111C149.431 293.24 149.641 293.39 149.741 293.69L149.911 294.5C150.118 294.287 150.335 294.093 150.561 293.92C150.795 293.747 151.038 293.597 151.291 293.47C151.551 293.343 151.828 293.247 152.121 293.18C152.415 293.113 152.735 293.08 153.081 293.08C153.641 293.08 154.138 293.177 154.571 293.37C155.005 293.557 155.365 293.823 155.651 294.17C155.945 294.51 156.165 294.92 156.311 295.4C156.465 295.873 156.541 296.397 156.541 296.97V303.5H154.071V296.97C154.071 296.343 153.925 295.86 153.631 295.52C153.345 295.173 152.911 295 152.331 295C151.905 295 151.505 295.097 151.131 295.29C150.758 295.483 150.405 295.747 150.071 296.08V303.5H147.601ZM161.228 293.24V299.76C161.228 300.387 161.372 300.873 161.658 301.22C161.952 301.56 162.388 301.73 162.968 301.73C163.395 301.73 163.795 301.637 164.168 301.45C164.542 301.257 164.895 300.993 165.228 300.66V293.24H167.698V303.5H166.188C165.868 303.5 165.658 303.35 165.558 303.05L165.388 302.23C165.175 302.443 164.955 302.64 164.728 302.82C164.502 302.993 164.258 303.143 163.998 303.27C163.745 303.39 163.468 303.483 163.168 303.55C162.875 303.623 162.558 303.66 162.218 303.66C161.658 303.66 161.162 303.567 160.728 303.38C160.302 303.187 159.942 302.917 159.648 302.57C159.355 302.223 159.132 301.813 158.978 301.34C158.832 300.86 158.758 300.333 158.758 299.76V293.24H161.228ZM170.336 303.5V293.24H171.846C172.166 293.24 172.376 293.39 172.476 293.69L172.636 294.45C172.816 294.25 173.002 294.067 173.196 293.9C173.396 293.733 173.606 293.59 173.826 293.47C174.052 293.35 174.292 293.257 174.546 293.19C174.806 293.117 175.089 293.08 175.396 293.08C176.042 293.08 176.572 293.257 176.986 293.61C177.406 293.957 177.719 294.42 177.926 295C178.086 294.66 178.286 294.37 178.526 294.13C178.766 293.883 179.029 293.683 179.316 293.53C179.602 293.377 179.906 293.263 180.226 293.19C180.552 293.117 180.879 293.08 181.206 293.08C181.772 293.08 182.276 293.167 182.716 293.34C183.156 293.513 183.526 293.767 183.826 294.1C184.126 294.433 184.352 294.84 184.506 295.32C184.666 295.8 184.746 296.35 184.746 296.97V303.5H182.276V296.97C182.276 296.317 182.132 295.827 181.846 295.5C181.559 295.167 181.139 295 180.586 295C180.332 295 180.096 295.043 179.876 295.13C179.662 295.217 179.472 295.343 179.306 295.51C179.146 295.67 179.019 295.873 178.926 296.12C178.832 296.367 178.786 296.65 178.786 296.97V303.5H176.306V296.97C176.306 296.283 176.166 295.783 175.886 295.47C175.612 295.157 175.206 295 174.666 295C174.312 295 173.979 295.09 173.666 295.27C173.359 295.443 173.072 295.683 172.806 295.99V303.5H170.336ZM187.202 303.5V288.64H189.672V294.5C190.078 294.067 190.538 293.723 191.052 293.47C191.565 293.21 192.165 293.08 192.852 293.08C193.412 293.08 193.922 293.197 194.382 293.43C194.848 293.657 195.248 293.99 195.582 294.43C195.922 294.87 196.182 295.413 196.362 296.06C196.548 296.707 196.642 297.45 196.642 298.29C196.642 299.057 196.538 299.767 196.332 300.42C196.125 301.073 195.828 301.64 195.442 302.12C195.062 302.6 194.598 302.977 194.052 303.25C193.512 303.517 192.905 303.65 192.232 303.65C191.918 303.65 191.632 303.617 191.372 303.55C191.112 303.49 190.875 303.403 190.662 303.29C190.448 303.177 190.248 303.04 190.062 302.88C189.882 302.713 189.708 302.53 189.542 302.33L189.432 303.02C189.392 303.193 189.322 303.317 189.222 303.39C189.128 303.463 188.998 303.5 188.832 303.5H187.202ZM192.002 295C191.488 295 191.048 295.11 190.682 295.33C190.322 295.543 189.985 295.847 189.672 296.24V300.84C189.952 301.187 190.255 301.43 190.582 301.57C190.915 301.703 191.275 301.77 191.662 301.77C192.035 301.77 192.372 301.7 192.672 301.56C192.972 301.42 193.225 301.207 193.432 300.92C193.645 300.633 193.808 300.273 193.922 299.84C194.035 299.4 194.092 298.883 194.092 298.29C194.092 297.69 194.042 297.183 193.942 296.77C193.848 296.35 193.712 296.01 193.532 295.75C193.352 295.49 193.132 295.3 192.872 295.18C192.618 295.06 192.328 295 192.002 295ZM202.818 293.08C203.464 293.08 204.058 293.183 204.598 293.39C205.144 293.597 205.614 293.9 206.008 294.3C206.401 294.693 206.708 295.18 206.928 295.76C207.148 296.333 207.258 296.99 207.258 297.73C207.258 297.917 207.248 298.073 207.228 298.2C207.214 298.32 207.184 298.417 207.138 298.49C207.098 298.557 207.041 298.607 206.968 298.64C206.894 298.667 206.801 298.68 206.688 298.68H200.348C200.421 299.733 200.704 300.507 201.198 301C201.691 301.493 202.344 301.74 203.158 301.74C203.558 301.74 203.901 301.693 204.188 301.6C204.481 301.507 204.734 301.403 204.948 301.29C205.168 301.177 205.358 301.073 205.518 300.98C205.684 300.887 205.844 300.84 205.998 300.84C206.098 300.84 206.184 300.86 206.258 300.9C206.331 300.94 206.394 300.997 206.448 301.07L207.168 301.97C206.894 302.29 206.588 302.56 206.248 302.78C205.908 302.993 205.551 303.167 205.178 303.3C204.811 303.427 204.434 303.517 204.048 303.57C203.668 303.623 203.298 303.65 202.938 303.65C202.224 303.65 201.561 303.533 200.948 303.3C200.334 303.06 199.801 302.71 199.348 302.25C198.894 301.783 198.538 301.21 198.278 300.53C198.018 299.843 197.888 299.05 197.888 298.15C197.888 297.45 198.001 296.793 198.228 296.18C198.454 295.56 198.778 295.023 199.198 294.57C199.624 294.11 200.141 293.747 200.748 293.48C201.361 293.213 202.051 293.08 202.818 293.08ZM202.868 294.85C202.148 294.85 201.584 295.053 201.178 295.46C200.771 295.867 200.511 296.443 200.398 297.19H205.038C205.038 296.87 204.994 296.57 204.908 296.29C204.821 296.003 204.688 295.753 204.508 295.54C204.328 295.327 204.101 295.16 203.828 295.04C203.554 294.913 203.234 294.85 202.868 294.85ZM209.261 303.5V293.24H210.711C210.965 293.24 211.141 293.287 211.241 293.38C211.341 293.473 211.408 293.633 211.441 293.86L211.591 295.1C211.958 294.467 212.388 293.967 212.881 293.6C213.375 293.233 213.928 293.05 214.541 293.05C215.048 293.05 215.468 293.167 215.801 293.4L215.481 295.25C215.461 295.37 215.418 295.457 215.351 295.51C215.285 295.557 215.195 295.58 215.081 295.58C214.981 295.58 214.845 295.557 214.671 295.51C214.498 295.463 214.268 295.44 213.981 295.44C213.468 295.44 213.028 295.583 212.661 295.87C212.295 296.15 211.985 296.563 211.731 297.11V303.5H209.261Z" fill="#111111"/>
<rect x="30" y="692" width="312" height="60" rx="30" fill="black"/>
<path d="M172.62 718.17C172.547 718.317 172.46 718.42 172.36 718.48C172.267 718.54 172.153 718.57 172.02 718.57C171.887 718.57 171.737 718.52 171.57 718.42C171.403 718.313 171.207 718.197 170.98 718.07C170.753 717.943 170.487 717.83 170.18 717.73C169.88 717.623 169.523 717.57 169.11 717.57C168.737 717.57 168.41 717.617 168.13 717.71C167.857 717.797 167.623 717.92 167.43 718.08C167.243 718.24 167.103 718.433 167.01 718.66C166.917 718.88 166.87 719.123 166.87 719.39C166.87 719.73 166.963 720.013 167.15 720.24C167.343 720.467 167.597 720.66 167.91 720.82C168.223 720.98 168.58 721.123 168.98 721.25C169.38 721.377 169.787 721.513 170.2 721.66C170.62 721.8 171.03 721.967 171.43 722.16C171.83 722.347 172.187 722.587 172.5 722.88C172.813 723.167 173.063 723.52 173.25 723.94C173.443 724.36 173.54 724.87 173.54 725.47C173.54 726.123 173.427 726.737 173.2 727.31C172.98 727.877 172.653 728.373 172.22 728.8C171.793 729.22 171.27 729.553 170.65 729.8C170.03 730.04 169.32 730.16 168.52 730.16C168.06 730.16 167.607 730.113 167.16 730.02C166.713 729.933 166.283 729.807 165.87 729.64C165.463 729.473 165.08 729.273 164.72 729.04C164.367 728.807 164.05 728.547 163.77 728.26L164.55 726.97C164.623 726.877 164.71 726.8 164.81 726.74C164.917 726.673 165.033 726.64 165.16 726.64C165.327 726.64 165.507 726.71 165.7 726.85C165.893 726.983 166.12 727.133 166.38 727.3C166.647 727.467 166.957 727.62 167.31 727.76C167.67 727.893 168.1 727.96 168.6 727.96C169.367 727.96 169.96 727.78 170.38 727.42C170.8 727.053 171.01 726.53 171.01 725.85C171.01 725.47 170.913 725.16 170.72 724.92C170.533 724.68 170.283 724.48 169.97 724.32C169.657 724.153 169.3 724.013 168.9 723.9C168.5 723.787 168.093 723.663 167.68 723.53C167.267 723.397 166.86 723.237 166.46 723.05C166.06 722.863 165.703 722.62 165.39 722.32C165.077 722.02 164.823 721.647 164.63 721.2C164.443 720.747 164.35 720.19 164.35 719.53C164.35 719.003 164.453 718.49 164.66 717.99C164.873 717.49 165.18 717.047 165.58 716.66C165.987 716.273 166.483 715.963 167.07 715.73C167.657 715.497 168.327 715.38 169.08 715.38C169.933 715.38 170.72 715.513 171.44 715.78C172.16 716.047 172.773 716.42 173.28 716.9L172.62 718.17ZM179.693 719.58C180.339 719.58 180.933 719.683 181.473 719.89C182.019 720.097 182.489 720.4 182.883 720.8C183.276 721.193 183.583 721.68 183.803 722.26C184.023 722.833 184.133 723.49 184.133 724.23C184.133 724.417 184.123 724.573 184.103 724.7C184.089 724.82 184.059 724.917 184.013 724.99C183.973 725.057 183.916 725.107 183.843 725.14C183.769 725.167 183.676 725.18 183.563 725.18H177.223C177.296 726.233 177.579 727.007 178.073 727.5C178.566 727.993 179.219 728.24 180.033 728.24C180.433 728.24 180.776 728.193 181.063 728.1C181.356 728.007 181.609 727.903 181.823 727.79C182.043 727.677 182.233 727.573 182.393 727.48C182.559 727.387 182.719 727.34 182.873 727.34C182.973 727.34 183.059 727.36 183.133 727.4C183.206 727.44 183.269 727.497 183.323 727.57L184.043 728.47C183.769 728.79 183.463 729.06 183.123 729.28C182.783 729.493 182.426 729.667 182.053 729.8C181.686 729.927 181.309 730.017 180.923 730.07C180.543 730.123 180.173 730.15 179.813 730.15C179.099 730.15 178.436 730.033 177.823 729.8C177.209 729.56 176.676 729.21 176.223 728.75C175.769 728.283 175.413 727.71 175.153 727.03C174.893 726.343 174.763 725.55 174.763 724.65C174.763 723.95 174.876 723.293 175.103 722.68C175.329 722.06 175.653 721.523 176.073 721.07C176.499 720.61 177.016 720.247 177.623 719.98C178.236 719.713 178.926 719.58 179.693 719.58ZM179.743 721.35C179.023 721.35 178.459 721.553 178.053 721.96C177.646 722.367 177.386 722.943 177.273 723.69H181.913C181.913 723.37 181.869 723.07 181.783 722.79C181.696 722.503 181.563 722.253 181.383 722.04C181.203 721.827 180.976 721.66 180.703 721.54C180.429 721.413 180.109 721.35 179.743 721.35ZM186.136 730V719.74H187.646C187.966 719.74 188.176 719.89 188.276 720.19L188.446 721C188.653 720.787 188.87 720.593 189.096 720.42C189.33 720.247 189.573 720.097 189.826 719.97C190.086 719.843 190.363 719.747 190.656 719.68C190.95 719.613 191.27 719.58 191.616 719.58C192.176 719.58 192.673 719.677 193.106 719.87C193.54 720.057 193.9 720.323 194.186 720.67C194.48 721.01 194.7 721.42 194.846 721.9C195 722.373 195.076 722.897 195.076 723.47V730H192.606V723.47C192.606 722.843 192.46 722.36 192.166 722.02C191.88 721.673 191.446 721.5 190.866 721.5C190.44 721.5 190.04 721.597 189.666 721.79C189.293 721.983 188.94 722.247 188.606 722.58V730H186.136ZM204.724 730C204.404 730 204.194 729.85 204.094 729.55L203.894 728.56C203.68 728.8 203.457 729.017 203.224 729.21C202.99 729.403 202.737 729.57 202.464 729.71C202.197 729.85 201.907 729.957 201.594 730.03C201.287 730.11 200.954 730.15 200.594 730.15C200.034 730.15 199.52 730.033 199.054 729.8C198.587 729.567 198.184 729.23 197.844 728.79C197.51 728.343 197.25 727.793 197.064 727.14C196.884 726.487 196.794 725.74 196.794 724.9C196.794 724.14 196.897 723.433 197.104 722.78C197.31 722.127 197.607 721.56 197.994 721.08C198.38 720.6 198.844 720.227 199.384 719.96C199.924 719.687 200.53 719.55 201.204 719.55C201.777 719.55 202.267 719.643 202.674 719.83C203.08 720.01 203.444 720.253 203.764 720.56V715.14H206.234V730H204.724ZM201.434 728.19C201.947 728.19 202.384 728.083 202.744 727.87C203.104 727.657 203.444 727.353 203.764 726.96V722.36C203.484 722.02 203.177 721.78 202.844 721.64C202.517 721.5 202.164 721.43 201.784 721.43C201.41 721.43 201.07 721.5 200.764 721.64C200.464 721.78 200.207 721.993 199.994 722.28C199.787 722.56 199.627 722.92 199.514 723.36C199.4 723.793 199.344 724.307 199.344 724.9C199.344 725.5 199.39 726.01 199.484 726.43C199.584 726.843 199.724 727.183 199.904 727.45C200.084 727.71 200.304 727.9 200.564 728.02C200.824 728.133 201.114 728.19 201.434 728.19Z" fill="white"/>
<circle opacity="0.1" cx="309.5" cy="722.5" r="22.5" fill="white"/>
<path d="M310.793 716.179C310.527 715.932 310.104 715.942 309.851 716.202C309.597 716.462 309.607 716.873 309.874 717.121L314.988 721.85H301.667C301.299 721.85 301 722.141 301 722.5C301 722.859 301.299 723.15 301.667 723.15H314.966L309.874 727.879C309.607 728.127 309.597 728.538 309.851 728.798C309.982 728.932 310.157 729 310.333 729C310.499 729 310.664 728.941 310.793 728.821L316.609 723.419C316.861 723.174 317 722.847 317 722.5C317 722.152 316.861 721.826 316.598 721.57L310.793 716.179Z" fill="white"/>
</g>
<defs>
<clipPath id="clip0_218_23012">
<rect width="375" height="812" fill="white"/>
</clipPath>
<clipPath id="clip1_218_23012">
<rect width="46.0976" height="41" fill="white" transform="translate(208.902 117)"/>
</clipPath>
</defs>
</svg>
