<svg width="375" height="812" viewBox="0 0 375 812" fill="none" xmlns="http://www.w3.org/2000/svg">
<g clip-path="url(#clip0_218_40893)">
<rect width="375" height="812" fill="white"/>
<path d="M136.726 59.54V61.75H132.376V74H129.686V61.75H125.316V59.54H136.726ZM149.676 74H147.596C147.363 74 147.169 73.9433 147.016 73.83C146.869 73.71 146.763 73.5633 146.696 73.39L145.616 70.44H139.626L138.546 73.39C138.493 73.5433 138.386 73.6833 138.226 73.81C138.073 73.9367 137.883 74 137.656 74H135.566L141.246 59.54H143.996L149.676 74ZM140.316 68.54H144.926L143.166 63.73C143.086 63.5167 142.996 63.2667 142.896 62.98C142.803 62.6867 142.709 62.37 142.616 62.03C142.523 62.37 142.429 62.6867 142.336 62.98C142.249 63.2733 142.163 63.53 142.076 63.75L140.316 68.54ZM153.945 65.6H154.575C154.828 65.6 155.038 65.5667 155.205 65.5C155.372 65.4267 155.515 65.3133 155.635 65.16L159.625 60.11C159.792 59.8967 159.965 59.75 160.145 59.67C160.332 59.5833 160.565 59.54 160.845 59.54H163.165L158.295 65.55C158.142 65.7367 157.995 65.8933 157.855 66.02C157.715 66.1467 157.565 66.25 157.405 66.33C157.625 66.41 157.822 66.5233 157.995 66.67C158.175 66.8167 158.348 67.0033 158.515 67.23L163.535 74H161.155C160.835 74 160.595 73.9567 160.435 73.87C160.282 73.7767 160.152 73.6433 160.045 73.47L155.955 68.13C155.822 67.9567 155.672 67.8333 155.505 67.76C155.338 67.68 155.102 67.64 154.795 67.64H153.945V74H151.255V59.53H153.945V65.6ZM174.25 59.54V61.68H167.84V65.69H172.89V67.76H167.84V71.85H174.25V74H165.13V59.54H174.25ZM183.222 68.91V74H180.532V59.54H185.242C186.209 59.54 187.046 59.6533 187.752 59.88C188.459 60.1067 189.042 60.4233 189.502 60.83C189.962 61.2367 190.302 61.7233 190.522 62.29C190.742 62.8567 190.852 63.4767 190.852 64.15C190.852 64.85 190.736 65.4933 190.502 66.08C190.269 66.66 189.919 67.16 189.452 67.58C188.986 68 188.402 68.3267 187.702 68.56C187.002 68.7933 186.182 68.91 185.242 68.91H183.222ZM183.222 66.81H185.242C185.736 66.81 186.166 66.75 186.532 66.63C186.899 66.5033 187.202 66.3267 187.442 66.1C187.682 65.8667 187.862 65.5867 187.982 65.26C188.102 64.9267 188.162 64.5567 188.162 64.15C188.162 63.7633 188.102 63.4133 187.982 63.1C187.862 62.7867 187.682 62.52 187.442 62.3C187.202 62.08 186.899 61.9133 186.532 61.8C186.166 61.68 185.736 61.62 185.242 61.62H183.222V66.81ZM205.142 74H202.432V67.68H195.652V74H192.942V59.54H195.652V65.76H202.432V59.54H205.142V74ZM221.93 66.77C221.93 67.83 221.753 68.8133 221.4 69.72C221.046 70.62 220.55 71.4 219.91 72.06C219.27 72.72 218.5 73.2367 217.6 73.61C216.7 73.9767 215.703 74.16 214.61 74.16C213.516 74.16 212.516 73.9767 211.61 73.61C210.71 73.2367 209.936 72.72 209.29 72.06C208.65 71.4 208.153 70.62 207.8 69.72C207.446 68.8133 207.27 67.83 207.27 66.77C207.27 65.71 207.446 64.73 207.8 63.83C208.153 62.9233 208.65 62.14 209.29 61.48C209.936 60.82 210.71 60.3067 211.61 59.94C212.516 59.5667 213.516 59.38 214.61 59.38C215.703 59.38 216.7 59.5667 217.6 59.94C218.5 60.3133 219.27 60.83 219.91 61.49C220.55 62.1433 221.046 62.9233 221.4 63.83C221.753 64.73 221.93 65.71 221.93 66.77ZM219.17 66.77C219.17 65.9767 219.063 65.2667 218.85 64.64C218.643 64.0067 218.343 63.47 217.95 63.03C217.556 62.59 217.076 62.2533 216.51 62.02C215.95 61.7867 215.316 61.67 214.61 61.67C213.903 61.67 213.266 61.7867 212.7 62.02C212.133 62.2533 211.65 62.59 211.25 63.03C210.856 63.47 210.553 64.0067 210.34 64.64C210.126 65.2667 210.02 65.9767 210.02 66.77C210.02 67.5633 210.126 68.2767 210.34 68.91C210.553 69.5367 210.856 70.07 211.25 70.51C211.65 70.9433 212.133 71.2767 212.7 71.51C213.266 71.7433 213.903 71.86 214.61 71.86C215.316 71.86 215.95 71.7433 216.51 71.51C217.076 71.2767 217.556 70.9433 217.95 70.51C218.343 70.07 218.643 69.5367 218.85 68.91C219.063 68.2767 219.17 67.5633 219.17 66.77ZM233.464 59.54V61.75H229.114V74H226.424V61.75H222.054V59.54H233.464ZM248.258 66.77C248.258 67.83 248.081 68.8133 247.728 69.72C247.374 70.62 246.878 71.4 246.238 72.06C245.598 72.72 244.828 73.2367 243.928 73.61C243.028 73.9767 242.031 74.16 240.938 74.16C239.844 74.16 238.844 73.9767 237.938 73.61C237.038 73.2367 236.264 72.72 235.618 72.06C234.978 71.4 234.481 70.62 234.128 69.72C233.774 68.8133 233.598 67.83 233.598 66.77C233.598 65.71 233.774 64.73 234.128 63.83C234.481 62.9233 234.978 62.14 235.618 61.48C236.264 60.82 237.038 60.3067 237.938 59.94C238.844 59.5667 239.844 59.38 240.938 59.38C242.031 59.38 243.028 59.5667 243.928 59.94C244.828 60.3133 245.598 60.83 246.238 61.49C246.878 62.1433 247.374 62.9233 247.728 63.83C248.081 64.73 248.258 65.71 248.258 66.77ZM245.498 66.77C245.498 65.9767 245.391 65.2667 245.178 64.64C244.971 64.0067 244.671 63.47 244.278 63.03C243.884 62.59 243.404 62.2533 242.838 62.02C242.278 61.7867 241.644 61.67 240.938 61.67C240.231 61.67 239.594 61.7867 239.028 62.02C238.461 62.2533 237.978 62.59 237.578 63.03C237.184 63.47 236.881 64.0067 236.668 64.64C236.454 65.2667 236.348 65.9767 236.348 66.77C236.348 67.5633 236.454 68.2767 236.668 68.91C236.881 69.5367 237.184 70.07 237.578 70.51C237.978 70.9433 238.461 71.2767 239.028 71.51C239.594 71.7433 240.231 71.86 240.938 71.86C241.644 71.86 242.278 71.7433 242.838 71.51C243.404 71.2767 243.884 70.9433 244.278 70.51C244.671 70.07 244.971 69.5367 245.178 68.91C245.391 68.2767 245.498 67.5633 245.498 66.77Z" fill="#111111"/>
<g filter="url(#filter0_d_218_40893)">
<path d="M0 130C0 118.954 8.95431 110 20 110H355C366.046 110 375 118.954 375 130V812H0V130Z" fill="white"/>
</g>
<rect x="140" y="790.104" width="95.674" height="6.30817" rx="3.15409" fill="#E7E7E7"/>
<g filter="url(#filter1_d_218_40893)">
<rect x="80" y="642" width="215" height="34" rx="17" fill="#111111"/>
</g>
<path d="M109.663 662.076C110.019 662.076 110.337 662.016 110.617 661.896C110.897 661.776 111.133 661.608 111.325 661.392C111.521 661.176 111.669 660.918 111.769 660.618C111.873 660.318 111.925 659.988 111.925 659.628V654.402H113.083V659.628C113.083 660.124 113.003 660.584 112.843 661.008C112.687 661.432 112.461 661.8 112.165 662.112C111.873 662.42 111.515 662.662 111.091 662.838C110.667 663.014 110.191 663.102 109.663 663.102C109.135 663.102 108.659 663.014 108.235 662.838C107.811 662.662 107.451 662.42 107.155 662.112C106.859 661.8 106.631 661.432 106.471 661.008C106.315 660.584 106.237 660.124 106.237 659.628V654.402H107.395V659.622C107.395 659.982 107.445 660.312 107.545 660.612C107.649 660.912 107.797 661.17 107.989 661.386C108.185 661.602 108.423 661.772 108.703 661.896C108.987 662.016 109.307 662.076 109.663 662.076ZM118.399 657.924C118.351 658.012 118.277 658.056 118.177 658.056C118.117 658.056 118.049 658.034 117.973 657.99C117.897 657.946 117.803 657.898 117.691 657.846C117.583 657.79 117.453 657.74 117.301 657.696C117.149 657.648 116.969 657.624 116.761 657.624C116.581 657.624 116.419 657.648 116.275 657.696C116.131 657.74 116.007 657.802 115.903 657.882C115.803 657.962 115.725 658.056 115.669 658.164C115.617 658.268 115.591 658.382 115.591 658.506C115.591 658.662 115.635 658.792 115.723 658.896C115.815 659 115.935 659.09 116.083 659.166C116.231 659.242 116.399 659.31 116.587 659.37C116.775 659.426 116.967 659.488 117.163 659.556C117.363 659.62 117.557 659.692 117.745 659.772C117.933 659.852 118.101 659.952 118.249 660.072C118.397 660.192 118.515 660.34 118.603 660.516C118.695 660.688 118.741 660.896 118.741 661.14C118.741 661.42 118.691 661.68 118.591 661.92C118.491 662.156 118.343 662.362 118.147 662.538C117.951 662.71 117.711 662.846 117.427 662.946C117.143 663.046 116.815 663.096 116.443 663.096C116.019 663.096 115.635 663.028 115.291 662.892C114.947 662.752 114.655 662.574 114.415 662.358L114.667 661.95C114.699 661.898 114.737 661.858 114.781 661.83C114.825 661.802 114.883 661.788 114.955 661.788C115.027 661.788 115.103 661.816 115.183 661.872C115.263 661.928 115.359 661.99 115.471 662.058C115.587 662.126 115.725 662.188 115.885 662.244C116.049 662.3 116.253 662.328 116.497 662.328C116.705 662.328 116.887 662.302 117.043 662.25C117.199 662.194 117.329 662.12 117.433 662.028C117.537 661.936 117.613 661.83 117.661 661.71C117.713 661.59 117.739 661.462 117.739 661.326C117.739 661.158 117.693 661.02 117.601 660.912C117.513 660.8 117.395 660.706 117.247 660.63C117.099 660.55 116.929 660.482 116.737 660.426C116.549 660.366 116.355 660.304 116.155 660.24C115.959 660.176 115.765 660.104 115.573 660.024C115.385 659.94 115.217 659.836 115.069 659.712C114.921 659.588 114.801 659.436 114.709 659.256C114.621 659.072 114.577 658.85 114.577 658.59C114.577 658.358 114.625 658.136 114.721 657.924C114.817 657.708 114.957 657.52 115.141 657.36C115.325 657.196 115.551 657.066 115.819 656.97C116.087 656.874 116.393 656.826 116.737 656.826C117.137 656.826 117.495 656.89 117.811 657.018C118.131 657.142 118.407 657.314 118.639 657.534L118.399 657.924ZM122.528 656.826C122.892 656.826 123.228 656.888 123.536 657.012C123.844 657.132 124.11 657.308 124.334 657.54C124.558 657.768 124.732 658.052 124.856 658.392C124.984 658.728 125.048 659.112 125.048 659.544C125.048 659.712 125.03 659.824 124.994 659.88C124.958 659.936 124.89 659.964 124.79 659.964H120.746C120.754 660.348 120.806 660.682 120.902 660.966C120.998 661.25 121.13 661.488 121.298 661.68C121.466 661.868 121.666 662.01 121.898 662.106C122.13 662.198 122.39 662.244 122.678 662.244C122.946 662.244 123.176 662.214 123.368 662.154C123.564 662.09 123.732 662.022 123.872 661.95C124.012 661.878 124.128 661.812 124.22 661.752C124.316 661.688 124.398 661.656 124.466 661.656C124.554 661.656 124.622 661.69 124.67 661.758L124.97 662.148C124.838 662.308 124.68 662.448 124.496 662.568C124.312 662.684 124.114 662.78 123.902 662.856C123.694 662.932 123.478 662.988 123.254 663.024C123.03 663.064 122.808 663.084 122.588 663.084C122.168 663.084 121.78 663.014 121.424 662.874C121.072 662.73 120.766 662.522 120.506 662.25C120.25 661.974 120.05 661.634 119.906 661.23C119.762 660.826 119.69 660.362 119.69 659.838C119.69 659.414 119.754 659.018 119.882 658.65C120.014 658.282 120.202 657.964 120.446 657.696C120.69 657.424 120.988 657.212 121.34 657.06C121.692 656.904 122.088 656.826 122.528 656.826ZM122.552 657.612C122.036 657.612 121.63 657.762 121.334 658.062C121.038 658.358 120.854 658.77 120.782 659.298H124.088C124.088 659.05 124.054 658.824 123.986 658.62C123.918 658.412 123.818 658.234 123.686 658.086C123.554 657.934 123.392 657.818 123.2 657.738C123.012 657.654 122.796 657.612 122.552 657.612ZM130.577 663.096C130.097 663.096 129.727 662.962 129.467 662.694C129.211 662.426 129.083 662.04 129.083 661.536V657.816H128.351C128.287 657.816 128.233 657.798 128.189 657.762C128.145 657.722 128.123 657.662 128.123 657.582V657.156L129.119 657.03L129.365 655.152C129.373 655.092 129.399 655.044 129.443 655.008C129.487 654.968 129.543 654.948 129.611 654.948H130.151V657.042H131.891V657.816H130.151V661.464C130.151 661.72 130.213 661.91 130.337 662.034C130.461 662.158 130.621 662.22 130.817 662.22C130.929 662.22 131.025 662.206 131.105 662.178C131.189 662.146 131.261 662.112 131.321 662.076C131.381 662.04 131.431 662.008 131.471 661.98C131.515 661.948 131.553 661.932 131.585 661.932C131.641 661.932 131.691 661.966 131.735 662.034L132.047 662.544C131.863 662.716 131.641 662.852 131.381 662.952C131.121 663.048 130.853 663.096 130.577 663.096ZM133.212 663V654.162H134.28V657.738C134.54 657.462 134.828 657.242 135.144 657.078C135.46 656.91 135.824 656.826 136.236 656.826C136.568 656.826 136.86 656.882 137.112 656.994C137.368 657.102 137.58 657.258 137.748 657.462C137.92 657.662 138.05 657.904 138.138 658.188C138.226 658.472 138.27 658.786 138.27 659.13V663H137.202V659.13C137.202 658.67 137.096 658.314 136.884 658.062C136.676 657.806 136.356 657.678 135.924 657.678C135.608 657.678 135.312 657.754 135.036 657.906C134.764 658.058 134.512 658.264 134.28 658.524V663H133.212ZM142.286 656.826C142.65 656.826 142.986 656.888 143.294 657.012C143.602 657.132 143.868 657.308 144.092 657.54C144.316 657.768 144.49 658.052 144.614 658.392C144.742 658.728 144.806 659.112 144.806 659.544C144.806 659.712 144.788 659.824 144.752 659.88C144.716 659.936 144.648 659.964 144.548 659.964H140.504C140.512 660.348 140.564 660.682 140.66 660.966C140.756 661.25 140.888 661.488 141.056 661.68C141.224 661.868 141.424 662.01 141.656 662.106C141.888 662.198 142.148 662.244 142.436 662.244C142.704 662.244 142.934 662.214 143.126 662.154C143.322 662.09 143.49 662.022 143.63 661.95C143.77 661.878 143.886 661.812 143.978 661.752C144.074 661.688 144.156 661.656 144.224 661.656C144.312 661.656 144.38 661.69 144.428 661.758L144.728 662.148C144.596 662.308 144.438 662.448 144.254 662.568C144.07 662.684 143.872 662.78 143.66 662.856C143.452 662.932 143.236 662.988 143.012 663.024C142.788 663.064 142.566 663.084 142.346 663.084C141.926 663.084 141.538 663.014 141.182 662.874C140.83 662.73 140.524 662.522 140.264 662.25C140.008 661.974 139.808 661.634 139.664 661.23C139.52 660.826 139.448 660.362 139.448 659.838C139.448 659.414 139.512 659.018 139.64 658.65C139.772 658.282 139.96 657.964 140.204 657.696C140.448 657.424 140.746 657.212 141.098 657.06C141.45 656.904 141.846 656.826 142.286 656.826ZM142.31 657.612C141.794 657.612 141.388 657.762 141.092 658.062C140.796 658.358 140.612 658.77 140.54 659.298H143.846C143.846 659.05 143.812 658.824 143.744 658.62C143.676 658.412 143.576 658.234 143.444 658.086C143.312 657.934 143.15 657.818 142.958 657.738C142.77 657.654 142.554 657.612 142.31 657.612ZM150.953 656.826C151.397 656.826 151.797 656.9 152.153 657.048C152.513 657.196 152.817 657.406 153.065 657.678C153.317 657.95 153.509 658.28 153.641 658.668C153.777 659.052 153.845 659.482 153.845 659.958C153.845 660.438 153.777 660.87 153.641 661.254C153.509 661.638 153.317 661.966 153.065 662.238C152.817 662.51 152.513 662.72 152.153 662.868C151.797 663.012 151.397 663.084 150.953 663.084C150.509 663.084 150.107 663.012 149.747 662.868C149.391 662.72 149.087 662.51 148.835 662.238C148.583 661.966 148.389 661.638 148.253 661.254C148.117 660.87 148.049 660.438 148.049 659.958C148.049 659.482 148.117 659.052 148.253 658.668C148.389 658.28 148.583 657.95 148.835 657.678C149.087 657.406 149.391 657.196 149.747 657.048C150.107 656.9 150.509 656.826 150.953 656.826ZM150.953 662.25C151.553 662.25 152.001 662.05 152.297 661.65C152.593 661.246 152.741 660.684 152.741 659.964C152.741 659.24 152.593 658.676 152.297 658.272C152.001 657.868 151.553 657.666 150.953 657.666C150.649 657.666 150.385 657.718 150.161 657.822C149.937 657.926 149.749 658.076 149.597 658.272C149.449 658.468 149.337 658.71 149.261 658.998C149.189 659.282 149.153 659.604 149.153 659.964C149.153 660.324 149.189 660.646 149.261 660.93C149.337 661.214 149.449 661.454 149.597 661.65C149.749 661.842 149.937 661.99 150.161 662.094C150.385 662.198 150.649 662.25 150.953 662.25ZM156.085 656.922V660.798C156.085 661.258 156.191 661.614 156.403 661.866C156.615 662.118 156.935 662.244 157.363 662.244C157.675 662.244 157.969 662.17 158.245 662.022C158.521 661.874 158.775 661.668 159.007 661.404V656.922H160.075V663H159.439C159.287 663 159.191 662.926 159.151 662.778L159.067 662.124C158.803 662.416 158.507 662.652 158.179 662.832C157.851 663.008 157.475 663.096 157.051 663.096C156.719 663.096 156.425 663.042 156.169 662.934C155.917 662.822 155.705 662.666 155.533 662.466C155.361 662.266 155.231 662.024 155.143 661.74C155.059 661.456 155.017 661.142 155.017 660.798V656.922H156.085ZM163.671 663.096C163.191 663.096 162.821 662.962 162.561 662.694C162.305 662.426 162.177 662.04 162.177 661.536V657.816H161.445C161.381 657.816 161.327 657.798 161.283 657.762C161.239 657.722 161.217 657.662 161.217 657.582V657.156L162.213 657.03L162.459 655.152C162.467 655.092 162.493 655.044 162.537 655.008C162.581 654.968 162.637 654.948 162.705 654.948H163.245V657.042H164.985V657.816H163.245V661.464C163.245 661.72 163.307 661.91 163.431 662.034C163.555 662.158 163.715 662.22 163.911 662.22C164.023 662.22 164.119 662.206 164.199 662.178C164.283 662.146 164.355 662.112 164.415 662.076C164.475 662.04 164.525 662.008 164.565 661.98C164.609 661.948 164.647 661.932 164.679 661.932C164.735 661.932 164.785 661.966 164.829 662.034L165.141 662.544C164.957 662.716 164.735 662.852 164.475 662.952C164.215 663.048 163.947 663.096 163.671 663.096ZM167.494 654.162V663H166.426V654.162H167.494ZM170.564 656.922V663H169.496V656.922H170.564ZM170.804 655.014C170.804 655.118 170.782 655.216 170.738 655.308C170.698 655.396 170.642 655.476 170.57 655.548C170.502 655.616 170.422 655.67 170.33 655.71C170.238 655.75 170.14 655.77 170.036 655.77C169.932 655.77 169.834 655.75 169.742 655.71C169.654 655.67 169.574 655.616 169.502 655.548C169.434 655.476 169.38 655.396 169.34 655.308C169.3 655.216 169.28 655.118 169.28 655.014C169.28 654.91 169.3 654.812 169.34 654.72C169.38 654.624 169.434 654.542 169.502 654.474C169.574 654.402 169.654 654.346 169.742 654.306C169.834 654.266 169.932 654.246 170.036 654.246C170.14 654.246 170.238 654.266 170.33 654.306C170.422 654.346 170.502 654.402 170.57 654.474C170.642 654.542 170.698 654.624 170.738 654.72C170.782 654.812 170.804 654.91 170.804 655.014ZM172.446 663V656.922H173.082C173.234 656.922 173.33 656.996 173.37 657.144L173.454 657.804C173.718 657.512 174.012 657.276 174.336 657.096C174.664 656.916 175.042 656.826 175.47 656.826C175.802 656.826 176.094 656.882 176.346 656.994C176.602 657.102 176.814 657.258 176.982 657.462C177.154 657.662 177.284 657.904 177.372 658.188C177.46 658.472 177.504 658.786 177.504 659.13V663H176.436V659.13C176.436 658.67 176.33 658.314 176.118 658.062C175.91 657.806 175.59 657.678 175.158 657.678C174.842 657.678 174.546 657.754 174.27 657.906C173.998 658.058 173.746 658.264 173.514 658.524V663H172.446ZM181.52 656.826C181.884 656.826 182.22 656.888 182.528 657.012C182.836 657.132 183.102 657.308 183.326 657.54C183.55 657.768 183.724 658.052 183.848 658.392C183.976 658.728 184.04 659.112 184.04 659.544C184.04 659.712 184.022 659.824 183.986 659.88C183.95 659.936 183.882 659.964 183.782 659.964H179.738C179.746 660.348 179.798 660.682 179.894 660.966C179.99 661.25 180.122 661.488 180.29 661.68C180.458 661.868 180.658 662.01 180.89 662.106C181.122 662.198 181.382 662.244 181.67 662.244C181.938 662.244 182.168 662.214 182.36 662.154C182.556 662.09 182.724 662.022 182.864 661.95C183.004 661.878 183.12 661.812 183.212 661.752C183.308 661.688 183.39 661.656 183.458 661.656C183.546 661.656 183.614 661.69 183.662 661.758L183.962 662.148C183.83 662.308 183.672 662.448 183.488 662.568C183.304 662.684 183.106 662.78 182.894 662.856C182.686 662.932 182.47 662.988 182.246 663.024C182.022 663.064 181.8 663.084 181.58 663.084C181.16 663.084 180.772 663.014 180.416 662.874C180.064 662.73 179.758 662.522 179.498 662.25C179.242 661.974 179.042 661.634 178.898 661.23C178.754 660.826 178.682 660.362 178.682 659.838C178.682 659.414 178.746 659.018 178.874 658.65C179.006 658.282 179.194 657.964 179.438 657.696C179.682 657.424 179.98 657.212 180.332 657.06C180.684 656.904 181.08 656.826 181.52 656.826ZM181.544 657.612C181.028 657.612 180.622 657.762 180.326 658.062C180.03 658.358 179.846 658.77 179.774 659.298H183.08C183.08 659.05 183.046 658.824 182.978 658.62C182.91 658.412 182.81 658.234 182.678 658.086C182.546 657.934 182.384 657.818 182.192 657.738C182.004 657.654 181.788 657.612 181.544 657.612ZM192.192 663H191.718C191.614 663 191.53 662.984 191.466 662.952C191.402 662.92 191.36 662.852 191.34 662.748L191.22 662.184C191.06 662.328 190.904 662.458 190.752 662.574C190.6 662.686 190.44 662.782 190.272 662.862C190.104 662.938 189.924 662.996 189.732 663.036C189.544 663.076 189.334 663.096 189.102 663.096C188.866 663.096 188.644 663.064 188.436 663C188.232 662.932 188.054 662.832 187.902 662.7C187.75 662.568 187.628 662.402 187.536 662.202C187.448 661.998 187.404 661.758 187.404 661.482C187.404 661.242 187.47 661.012 187.602 660.792C187.734 660.568 187.946 660.37 188.238 660.198C188.534 660.026 188.92 659.886 189.396 659.778C189.872 659.666 190.454 659.602 191.142 659.586V659.112C191.142 658.64 191.04 658.284 190.836 658.044C190.636 657.8 190.338 657.678 189.942 657.678C189.682 657.678 189.462 657.712 189.282 657.78C189.106 657.844 188.952 657.918 188.82 658.002C188.692 658.082 188.58 658.156 188.484 658.224C188.392 658.288 188.3 658.32 188.208 658.32C188.136 658.32 188.072 658.302 188.016 658.266C187.964 658.226 187.922 658.178 187.89 658.122L187.698 657.78C188.034 657.456 188.396 657.214 188.784 657.054C189.172 656.894 189.602 656.814 190.074 656.814C190.414 656.814 190.716 656.87 190.98 656.982C191.244 657.094 191.466 657.25 191.646 657.45C191.826 657.65 191.962 657.892 192.054 658.176C192.146 658.46 192.192 658.772 192.192 659.112V663ZM189.42 662.346C189.608 662.346 189.78 662.328 189.936 662.292C190.092 662.252 190.238 662.198 190.374 662.13C190.514 662.058 190.646 661.972 190.77 661.872C190.898 661.772 191.022 661.658 191.142 661.53V660.264C190.65 660.28 190.232 660.32 189.888 660.384C189.544 660.444 189.264 660.524 189.048 660.624C188.832 660.724 188.674 660.842 188.574 660.978C188.478 661.114 188.43 661.266 188.43 661.434C188.43 661.594 188.456 661.732 188.508 661.848C188.56 661.964 188.63 662.06 188.718 662.136C188.806 662.208 188.91 662.262 189.03 662.298C189.15 662.33 189.28 662.346 189.42 662.346ZM197.29 657.924C197.242 658.012 197.168 658.056 197.068 658.056C197.008 658.056 196.94 658.034 196.864 657.99C196.788 657.946 196.694 657.898 196.582 657.846C196.474 657.79 196.344 657.74 196.192 657.696C196.04 657.648 195.86 657.624 195.652 657.624C195.472 657.624 195.31 657.648 195.166 657.696C195.022 657.74 194.898 657.802 194.794 657.882C194.694 657.962 194.616 658.056 194.56 658.164C194.508 658.268 194.482 658.382 194.482 658.506C194.482 658.662 194.526 658.792 194.614 658.896C194.706 659 194.826 659.09 194.974 659.166C195.122 659.242 195.29 659.31 195.478 659.37C195.666 659.426 195.858 659.488 196.054 659.556C196.254 659.62 196.448 659.692 196.636 659.772C196.824 659.852 196.992 659.952 197.14 660.072C197.288 660.192 197.406 660.34 197.494 660.516C197.586 660.688 197.632 660.896 197.632 661.14C197.632 661.42 197.582 661.68 197.482 661.92C197.382 662.156 197.234 662.362 197.038 662.538C196.842 662.71 196.602 662.846 196.318 662.946C196.034 663.046 195.706 663.096 195.334 663.096C194.91 663.096 194.526 663.028 194.182 662.892C193.838 662.752 193.546 662.574 193.306 662.358L193.558 661.95C193.59 661.898 193.628 661.858 193.672 661.83C193.716 661.802 193.774 661.788 193.846 661.788C193.918 661.788 193.994 661.816 194.074 661.872C194.154 661.928 194.25 661.99 194.362 662.058C194.478 662.126 194.616 662.188 194.776 662.244C194.94 662.3 195.144 662.328 195.388 662.328C195.596 662.328 195.778 662.302 195.934 662.25C196.09 662.194 196.22 662.12 196.324 662.028C196.428 661.936 196.504 661.83 196.552 661.71C196.604 661.59 196.63 661.462 196.63 661.326C196.63 661.158 196.584 661.02 196.492 660.912C196.404 660.8 196.286 660.706 196.138 660.63C195.99 660.55 195.82 660.482 195.628 660.426C195.44 660.366 195.246 660.304 195.046 660.24C194.85 660.176 194.656 660.104 194.464 660.024C194.276 659.94 194.108 659.836 193.96 659.712C193.812 659.588 193.692 659.436 193.6 659.256C193.512 659.072 193.468 658.85 193.468 658.59C193.468 658.358 193.516 658.136 193.612 657.924C193.708 657.708 193.848 657.52 194.032 657.36C194.216 657.196 194.442 657.066 194.71 656.97C194.978 656.874 195.284 656.826 195.628 656.826C196.028 656.826 196.386 656.89 196.702 657.018C197.022 657.142 197.298 657.314 197.53 657.534L197.29 657.924ZM205.797 663H205.323C205.219 663 205.135 662.984 205.071 662.952C205.007 662.92 204.965 662.852 204.945 662.748L204.825 662.184C204.665 662.328 204.509 662.458 204.357 662.574C204.205 662.686 204.045 662.782 203.877 662.862C203.709 662.938 203.529 662.996 203.337 663.036C203.149 663.076 202.939 663.096 202.707 663.096C202.471 663.096 202.249 663.064 202.041 663C201.837 662.932 201.659 662.832 201.507 662.7C201.355 662.568 201.233 662.402 201.141 662.202C201.053 661.998 201.009 661.758 201.009 661.482C201.009 661.242 201.075 661.012 201.207 660.792C201.339 660.568 201.551 660.37 201.843 660.198C202.139 660.026 202.525 659.886 203.001 659.778C203.477 659.666 204.059 659.602 204.747 659.586V659.112C204.747 658.64 204.645 658.284 204.441 658.044C204.241 657.8 203.943 657.678 203.547 657.678C203.287 657.678 203.067 657.712 202.887 657.78C202.711 657.844 202.557 657.918 202.425 658.002C202.297 658.082 202.185 658.156 202.089 658.224C201.997 658.288 201.905 658.32 201.813 658.32C201.741 658.32 201.677 658.302 201.621 658.266C201.569 658.226 201.527 658.178 201.495 658.122L201.303 657.78C201.639 657.456 202.001 657.214 202.389 657.054C202.777 656.894 203.207 656.814 203.679 656.814C204.019 656.814 204.321 656.87 204.585 656.982C204.849 657.094 205.071 657.25 205.251 657.45C205.431 657.65 205.567 657.892 205.659 658.176C205.751 658.46 205.797 658.772 205.797 659.112V663ZM203.025 662.346C203.213 662.346 203.385 662.328 203.541 662.292C203.697 662.252 203.843 662.198 203.979 662.13C204.119 662.058 204.251 661.972 204.375 661.872C204.503 661.772 204.627 661.658 204.747 661.53V660.264C204.255 660.28 203.837 660.32 203.493 660.384C203.149 660.444 202.869 660.524 202.653 660.624C202.437 660.724 202.279 660.842 202.179 660.978C202.083 661.114 202.035 661.266 202.035 661.434C202.035 661.594 202.061 661.732 202.113 661.848C202.165 661.964 202.235 662.06 202.323 662.136C202.411 662.208 202.515 662.262 202.635 662.298C202.755 662.33 202.885 662.346 203.025 662.346ZM211.781 656.82C212.045 656.82 212.291 656.85 212.519 656.91C212.751 656.966 212.961 657.05 213.149 657.162H214.799V657.558C214.799 657.69 214.715 657.774 214.547 657.81L213.857 657.906C213.993 658.166 214.061 658.456 214.061 658.776C214.061 659.072 214.003 659.342 213.887 659.586C213.775 659.826 213.617 660.032 213.413 660.204C213.213 660.376 212.973 660.508 212.693 660.6C212.417 660.692 212.113 660.738 211.781 660.738C211.497 660.738 211.229 660.704 210.977 660.636C210.849 660.716 210.751 660.802 210.683 660.894C210.619 660.986 210.587 661.076 210.587 661.164C210.587 661.308 210.645 661.418 210.761 661.494C210.877 661.566 211.031 661.618 211.223 661.65C211.415 661.682 211.633 661.702 211.877 661.71C212.121 661.718 212.369 661.732 212.621 661.752C212.877 661.768 213.127 661.798 213.371 661.842C213.615 661.886 213.833 661.958 214.025 662.058C214.217 662.158 214.371 662.296 214.487 662.472C214.603 662.648 214.661 662.876 214.661 663.156C214.661 663.416 214.595 663.668 214.463 663.912C214.335 664.156 214.149 664.372 213.905 664.56C213.661 664.752 213.363 664.904 213.011 665.016C212.659 665.132 212.261 665.19 211.817 665.19C211.373 665.19 210.983 665.146 210.647 665.058C210.315 664.97 210.039 664.852 209.819 664.704C209.599 664.556 209.433 664.384 209.321 664.188C209.213 663.996 209.159 663.794 209.159 663.582C209.159 663.282 209.253 663.028 209.441 662.82C209.633 662.608 209.895 662.44 210.227 662.316C210.055 662.236 209.917 662.13 209.813 661.998C209.713 661.862 209.663 661.682 209.663 661.458C209.663 661.37 209.679 661.28 209.711 661.188C209.743 661.092 209.791 660.998 209.855 660.906C209.923 660.814 210.005 660.726 210.101 660.642C210.197 660.558 210.309 660.484 210.437 660.42C210.137 660.252 209.901 660.03 209.729 659.754C209.561 659.474 209.477 659.148 209.477 658.776C209.477 658.48 209.533 658.212 209.645 657.972C209.761 657.728 209.921 657.522 210.125 657.354C210.329 657.182 210.571 657.05 210.851 656.958C211.135 656.866 211.445 656.82 211.781 656.82ZM213.677 663.33C213.677 663.178 213.635 663.056 213.551 662.964C213.467 662.872 213.353 662.802 213.209 662.754C213.065 662.702 212.899 662.664 212.711 662.64C212.523 662.616 212.325 662.6 212.117 662.592C211.909 662.58 211.697 662.568 211.481 662.556C211.265 662.544 211.059 662.522 210.863 662.49C210.635 662.598 210.449 662.73 210.305 662.886C210.165 663.042 210.095 663.228 210.095 663.444C210.095 663.58 210.129 663.706 210.197 663.822C210.269 663.942 210.377 664.044 210.521 664.128C210.665 664.216 210.845 664.284 211.061 664.332C211.281 664.384 211.539 664.41 211.835 664.41C212.123 664.41 212.381 664.384 212.609 664.332C212.837 664.28 213.029 664.206 213.185 664.11C213.345 664.014 213.467 663.9 213.551 663.768C213.635 663.636 213.677 663.49 213.677 663.33ZM211.781 660.03C211.997 660.03 212.187 660 212.351 659.94C212.519 659.88 212.659 659.796 212.771 659.688C212.883 659.58 212.967 659.452 213.023 659.304C213.079 659.152 213.107 658.986 213.107 658.806C213.107 658.434 212.993 658.138 212.765 657.918C212.541 657.698 212.213 657.588 211.781 657.588C211.353 657.588 211.025 657.698 210.797 657.918C210.573 658.138 210.461 658.434 210.461 658.806C210.461 658.986 210.489 659.152 210.545 659.304C210.605 659.452 210.691 659.58 210.803 659.688C210.915 659.796 211.053 659.88 211.217 659.94C211.381 660 211.569 660.03 211.781 660.03ZM216.788 656.922V660.798C216.788 661.258 216.894 661.614 217.106 661.866C217.318 662.118 217.638 662.244 218.066 662.244C218.378 662.244 218.672 662.17 218.948 662.022C219.224 661.874 219.478 661.668 219.71 661.404V656.922H220.778V663H220.142C219.99 663 219.894 662.926 219.854 662.778L219.77 662.124C219.506 662.416 219.21 662.652 218.882 662.832C218.554 663.008 218.178 663.096 217.754 663.096C217.422 663.096 217.128 663.042 216.872 662.934C216.62 662.822 216.408 662.666 216.236 662.466C216.064 662.266 215.934 662.024 215.846 661.74C215.762 661.456 215.72 661.142 215.72 660.798V656.922H216.788ZM223.72 656.922V663H222.652V656.922H223.72ZM223.96 655.014C223.96 655.118 223.938 655.216 223.894 655.308C223.854 655.396 223.798 655.476 223.726 655.548C223.658 655.616 223.578 655.67 223.486 655.71C223.394 655.75 223.296 655.77 223.192 655.77C223.088 655.77 222.99 655.75 222.898 655.71C222.81 655.67 222.73 655.616 222.658 655.548C222.59 655.476 222.536 655.396 222.496 655.308C222.456 655.216 222.436 655.118 222.436 655.014C222.436 654.91 222.456 654.812 222.496 654.72C222.536 654.624 222.59 654.542 222.658 654.474C222.73 654.402 222.81 654.346 222.898 654.306C222.99 654.266 223.088 654.246 223.192 654.246C223.296 654.246 223.394 654.266 223.486 654.306C223.578 654.346 223.658 654.402 223.726 654.474C223.798 654.542 223.854 654.624 223.894 654.72C223.938 654.812 223.96 654.91 223.96 655.014ZM229.881 663C229.729 663 229.633 662.926 229.593 662.778L229.497 662.04C229.237 662.356 228.939 662.61 228.603 662.802C228.271 662.99 227.889 663.084 227.457 663.084C227.109 663.084 226.793 663.018 226.509 662.886C226.225 662.75 225.983 662.552 225.783 662.292C225.583 662.032 225.429 661.708 225.321 661.32C225.213 660.932 225.159 660.486 225.159 659.982C225.159 659.534 225.219 659.118 225.339 658.734C225.459 658.346 225.631 658.01 225.855 657.726C226.083 657.442 226.359 657.22 226.683 657.06C227.007 656.896 227.375 656.814 227.787 656.814C228.159 656.814 228.477 656.878 228.741 657.006C229.005 657.13 229.241 657.306 229.449 657.534V654.162H230.517V663H229.881ZM227.811 662.22C228.159 662.22 228.463 662.14 228.723 661.98C228.987 661.82 229.229 661.594 229.449 661.302V658.362C229.253 658.098 229.037 657.914 228.801 657.81C228.569 657.702 228.311 657.648 228.027 657.648C227.459 657.648 227.023 657.85 226.719 658.254C226.415 658.658 226.263 659.234 226.263 659.982C226.263 660.378 226.297 660.718 226.365 661.002C226.433 661.282 226.533 661.514 226.665 661.698C226.797 661.878 226.959 662.01 227.151 662.094C227.343 662.178 227.563 662.22 227.811 662.22ZM234.712 656.826C235.076 656.826 235.412 656.888 235.72 657.012C236.028 657.132 236.294 657.308 236.518 657.54C236.742 657.768 236.916 658.052 237.04 658.392C237.168 658.728 237.232 659.112 237.232 659.544C237.232 659.712 237.214 659.824 237.178 659.88C237.142 659.936 237.074 659.964 236.974 659.964H232.93C232.938 660.348 232.99 660.682 233.086 660.966C233.182 661.25 233.314 661.488 233.482 661.68C233.65 661.868 233.85 662.01 234.082 662.106C234.314 662.198 234.574 662.244 234.862 662.244C235.13 662.244 235.36 662.214 235.552 662.154C235.748 662.09 235.916 662.022 236.056 661.95C236.196 661.878 236.312 661.812 236.404 661.752C236.5 661.688 236.582 661.656 236.65 661.656C236.738 661.656 236.806 661.69 236.854 661.758L237.154 662.148C237.022 662.308 236.864 662.448 236.68 662.568C236.496 662.684 236.298 662.78 236.086 662.856C235.878 662.932 235.662 662.988 235.438 663.024C235.214 663.064 234.992 663.084 234.772 663.084C234.352 663.084 233.964 663.014 233.608 662.874C233.256 662.73 232.95 662.522 232.69 662.25C232.434 661.974 232.234 661.634 232.09 661.23C231.946 660.826 231.874 660.362 231.874 659.838C231.874 659.414 231.938 659.018 232.066 658.65C232.198 658.282 232.386 657.964 232.63 657.696C232.874 657.424 233.172 657.212 233.524 657.06C233.876 656.904 234.272 656.826 234.712 656.826ZM234.736 657.612C234.22 657.612 233.814 657.762 233.518 658.062C233.222 658.358 233.038 658.77 232.966 659.298H236.272C236.272 659.05 236.238 658.824 236.17 658.62C236.102 658.412 236.002 658.234 235.87 658.086C235.738 657.934 235.576 657.818 235.384 657.738C235.196 657.654 234.98 657.612 234.736 657.612Z" fill="white"/>
<circle cx="278" cy="659" r="13" fill="white"/>
<path d="M282.102 655.848C282.102 656.184 282.056 656.485 281.966 656.752C281.875 657.019 281.755 657.261 281.606 657.48C281.462 657.699 281.294 657.901 281.102 658.088C280.915 658.275 280.72 658.459 280.518 658.64C280.32 658.816 280.126 658.997 279.934 659.184C279.747 659.371 279.579 659.573 279.43 659.792C279.286 660.005 279.168 660.245 279.078 660.512C278.987 660.773 278.942 661.069 278.942 661.4L277.262 661.568C277.262 661.093 277.307 660.675 277.398 660.312C277.488 659.949 277.606 659.629 277.75 659.352C277.899 659.069 278.067 658.821 278.254 658.608C278.446 658.389 278.64 658.192 278.838 658.016C279.04 657.835 279.235 657.664 279.422 657.504C279.614 657.344 279.782 657.179 279.926 657.008C280.075 656.837 280.195 656.653 280.286 656.456C280.376 656.259 280.422 656.035 280.422 655.784C280.422 655.507 280.368 655.267 280.262 655.064C280.155 654.861 280.008 654.696 279.822 654.568C279.64 654.44 279.424 654.347 279.174 654.288C278.928 654.224 278.664 654.192 278.382 654.192C278.179 654.192 277.968 654.221 277.75 654.28C277.536 654.339 277.326 654.424 277.118 654.536C276.915 654.648 276.718 654.784 276.526 654.944C276.339 655.104 276.171 655.283 276.022 655.48L274.958 654.6C275.219 654.248 275.502 653.96 275.806 653.736C276.115 653.507 276.427 653.328 276.742 653.2C277.062 653.072 277.376 652.984 277.686 652.936C278 652.888 278.299 652.864 278.582 652.864C279.035 652.864 279.472 652.925 279.894 653.048C280.315 653.165 280.688 653.347 281.014 653.592C281.344 653.832 281.608 654.141 281.806 654.52C282.003 654.893 282.102 655.336 282.102 655.848ZM277.054 664.04C277.054 663.896 277.08 663.76 277.134 663.632C277.192 663.504 277.27 663.392 277.366 663.296C277.462 663.2 277.571 663.125 277.694 663.072C277.822 663.013 277.958 662.984 278.102 662.984C278.246 662.984 278.382 663.013 278.51 663.072C278.638 663.125 278.75 663.2 278.846 663.296C278.942 663.392 279.016 663.504 279.07 663.632C279.128 663.76 279.158 663.896 279.158 664.04C279.158 664.184 279.128 664.323 279.07 664.456C279.016 664.584 278.942 664.696 278.846 664.792C278.755 664.888 278.646 664.965 278.518 665.024C278.395 665.083 278.262 665.112 278.118 665.112C277.968 665.112 277.83 665.083 277.702 665.024C277.574 664.965 277.462 664.888 277.366 664.792C277.27 664.696 277.192 664.584 277.134 664.456C277.08 664.323 277.054 664.184 277.054 664.04Z" fill="#111111"/>
<path d="M255 721.688C256.448 721.688 257.621 720.514 257.621 719.067C257.621 717.62 256.448 716.446 255 716.446C253.553 716.446 252.379 717.62 252.379 719.067C252.379 720.514 253.553 721.688 255 721.688Z" fill="#D7DF23"/>
<path d="M255 721.708C253.544 721.708 252.359 720.523 252.359 719.067C252.359 717.611 253.544 716.426 255 716.426C256.457 716.426 257.641 717.611 257.641 719.067C257.641 720.523 256.457 721.708 255 721.708ZM255 716.467C253.566 716.467 252.4 717.633 252.4 719.067C252.4 720.501 253.566 721.667 255 721.667C256.434 721.667 257.6 720.501 257.6 719.067C257.6 717.633 256.434 716.467 255 716.467Z" fill="#D7DF23"/>
<path d="M260.242 714.702H257.183L256.552 713.437C256.405 713.142 256.101 712.953 255.77 712.953H254.23C253.898 712.953 253.595 713.142 253.448 713.437L252.817 714.702H249.758C248.792 714.702 248.01 715.484 248.01 716.45V721.692C248.01 722.659 248.792 723.441 249.758 723.441H255C252.588 723.441 250.631 721.483 250.631 719.071C250.631 716.659 252.588 714.702 255 714.702C257.412 714.702 259.369 716.659 259.369 719.071C259.369 721.483 257.412 723.437 255 723.437H260.242C261.208 723.437 261.99 722.654 261.99 721.688V716.446C261.99 715.484 261.208 714.702 260.242 714.702Z" fill="#D7DF23"/>
<path d="M260.242 714.677H257.195L256.568 713.424C256.417 713.117 256.11 712.929 255.77 712.929H254.23C253.89 712.929 253.583 713.121 253.432 713.424L252.805 714.677H249.758C248.784 714.677 247.989 715.472 247.989 716.446V721.688C247.989 722.663 248.784 723.457 249.758 723.457H260.242C261.216 723.457 262.011 722.663 262.011 721.688V716.446C262.011 715.472 261.216 714.677 260.242 714.677ZM261.97 721.688C261.97 722.642 261.196 723.416 260.242 723.416H255.602C257.735 723.121 259.39 721.287 259.39 719.071C259.39 716.651 257.42 714.681 255 714.681C252.58 714.681 250.61 716.651 250.61 719.071C250.61 721.291 252.26 723.125 254.398 723.42H249.758C248.804 723.42 248.03 722.646 248.03 721.692V716.45C248.03 715.496 248.804 714.722 249.758 714.722H252.821C252.825 714.722 252.834 714.718 252.838 714.71L253.468 713.445C253.612 713.154 253.907 712.974 254.23 712.974H255.77C256.093 712.974 256.388 713.154 256.531 713.445L257.166 714.706C257.166 714.714 257.174 714.718 257.183 714.718H260.242C261.196 714.718 261.97 715.492 261.97 716.446V721.688ZM255 723.416C252.604 723.416 250.651 721.471 250.651 719.071C250.651 716.672 252.604 714.722 255 714.722C257.395 714.722 259.349 716.667 259.349 719.067C259.349 721.467 257.395 723.416 255 723.416Z" fill="#D7DF23"/>
<path d="M263.948 721.668C263.78 721.532 263.534 721.565 263.403 721.733C263.268 721.901 263.301 722.147 263.469 722.278C263.968 722.667 264.222 723.056 264.222 723.437C264.222 724.043 263.6 724.673 262.469 725.21C261.257 725.787 259.525 726.213 257.6 726.414C257.387 726.434 257.232 726.627 257.252 726.84C257.273 727.04 257.441 727.188 257.637 727.188C257.65 727.188 257.666 727.188 257.678 727.188C259.722 726.975 261.491 726.537 262.801 725.914C264.238 725.234 265 724.378 265 723.441C265 722.81 264.644 722.212 263.948 721.668Z" fill="#D7DF23"/>
<path d="M255.385 726.848C255.385 726.844 255.385 726.84 255.381 726.84C255.381 726.831 255.377 726.823 255.377 726.819C255.377 726.815 255.373 726.811 255.373 726.807C255.373 726.799 255.369 726.795 255.364 726.79C255.364 726.786 255.36 726.782 255.36 726.778C255.356 726.77 255.352 726.766 255.352 726.758C255.348 726.754 255.348 726.749 255.344 726.745C255.34 726.737 255.336 726.729 255.328 726.721C255.324 726.717 255.324 726.713 255.319 726.709C255.315 726.7 255.311 726.696 255.307 726.688C255.303 726.684 255.303 726.68 255.299 726.68C255.291 726.672 255.287 726.663 255.278 726.659C255.278 726.659 255.278 726.655 255.274 726.655C255.266 726.647 255.258 726.639 255.25 726.635L253.178 724.886C253.014 724.747 252.768 724.768 252.629 724.931C252.49 725.095 252.51 725.341 252.674 725.48L253.907 726.52C251.798 726.434 249.853 726.094 248.337 725.541C246.712 724.952 245.778 724.182 245.778 723.437C245.778 723.056 246.032 722.667 246.532 722.278C246.699 722.147 246.732 721.901 246.597 721.733C246.466 721.565 246.22 721.532 246.052 721.668C245.356 722.212 245 722.81 245 723.441C245 724.55 246.089 725.558 248.071 726.279C249.709 726.872 251.814 727.233 254.075 727.311L252.977 728.408C252.826 728.559 252.826 728.805 252.977 728.957C253.055 729.034 253.153 729.071 253.251 729.071C253.35 729.071 253.452 729.034 253.526 728.957L255.274 727.208L255.278 727.204C255.283 727.196 255.291 727.192 255.295 727.184C255.299 727.179 255.303 727.175 255.303 727.171C255.307 727.163 255.315 727.155 255.319 727.147C255.324 727.143 255.324 727.139 255.328 727.134C255.332 727.126 255.336 727.118 255.34 727.11C255.344 727.106 255.344 727.102 255.348 727.098C255.352 727.093 255.352 727.085 255.356 727.081C255.36 727.077 255.36 727.069 255.364 727.065C255.364 727.065 255.364 727.061 255.369 727.061C255.369 727.057 255.373 727.053 255.373 727.048C255.373 727.044 255.377 727.04 255.377 727.032C255.381 727.02 255.381 727.012 255.385 726.999C255.385 726.999 255.385 726.995 255.385 726.991C255.385 726.983 255.389 726.971 255.389 726.962C255.389 726.958 255.389 726.954 255.389 726.95C255.389 726.942 255.389 726.934 255.389 726.926C255.389 726.921 255.389 726.917 255.389 726.913C255.389 726.905 255.389 726.897 255.389 726.889C255.389 726.885 255.389 726.881 255.389 726.881C255.389 726.868 255.385 726.86 255.385 726.848Z" fill="#D7DF23"/>
<g filter="url(#filter2_d_218_40893)">
<circle cx="188" cy="721" r="25" fill="#D7DF23"/>
</g>
<circle cx="188" cy="721" r="18" fill="white"/>
<rect x="98" y="190" width="180" height="180" rx="20" fill="#EDEDED"/>
<path d="M236.5 260C236.5 290.717 214.725 315.5 188 315.5C161.275 315.5 139.5 290.717 139.5 260C139.5 229.283 161.275 204.5 188 204.5C214.725 204.5 236.5 229.283 236.5 260Z" stroke="#757575"/>
<path d="M164.672 315.687C166.348 327.228 164.96 354.249 146 370" stroke="#757575"/>
<path d="M211.159 315.687C209.483 327.228 210.872 354.249 229.832 370" stroke="#757575"/>
<path d="M22.991 67.0874L22.9911 67.0875L29.8425 74.0063L29.8426 74.0063C30.1651 74.3318 30.6884 74.3312 31.0102 74.0047L31.0103 74.0046C31.3303 73.6798 31.3294 73.1549 31.0087 72.831L31.0087 72.831L24.7393 66.5L31.0089 60.169L31.0089 60.1689C31.3296 59.845 31.3305 59.3204 31.0106 58.9955L31.0105 58.9954C30.8497 58.8323 30.6377 58.75 30.4257 58.75C30.2144 58.75 30.0032 58.8318 29.8426 58.9938L29.8426 58.9939L22.9914 65.9122L23.1688 66.0884L22.9911 65.9124L22.9913 65.9123C22.8363 66.0685 22.75 66.2802 22.75 66.5C22.75 66.72 22.8366 66.9313 22.991 67.0874Z" fill="#111111" stroke="black" stroke-width="0.5"/>
<path d="M92.5 0.00357724H292.5C292.5 0.00357724 290 -0.516816 289.773 10.9956C289.545 22.9868 284.075 27.9832 277.045 27.9832H107.955C100.925 27.9832 95.4545 22.9868 95.2273 10.9956C95 -0.516815 92.5 0.00357724 92.5 0.00357724Z" fill="#F0F0F0"/>
<g opacity="0.1">
<path fill-rule="evenodd" clip-rule="evenodd" d="M337.47 13H350.833C351.4 13 351.943 13.2251 352.344 13.6259C352.745 14.0267 352.97 14.5702 352.97 15.137V19.946C352.97 20.5128 352.745 21.0563 352.344 21.4571C351.943 21.8579 351.4 22.083 350.833 22.083H337.47C336.903 22.083 336.36 21.8579 335.959 21.4571C335.558 21.0563 335.333 20.5128 335.333 19.946V15.137C335.333 14.5702 335.558 14.0267 335.959 13.6259C336.36 13.2251 336.903 13 337.47 13Z" fill="black"/>
</g>
<path d="M354 16V19C354.296 18.8759 354.549 18.6677 354.727 18.4014C354.904 18.1351 355 17.8226 355 17.5028C355.001 17.1821 354.906 16.8683 354.728 16.6009C354.55 16.3336 354.297 16.1245 354 16" fill="#111111"/>
<path d="M338.005 14.603H350.295C350.579 14.603 350.85 14.7157 351.051 14.9161C351.251 15.1166 351.364 15.3885 351.364 15.672V19.412C351.364 19.6955 351.251 19.9674 351.051 20.1679C350.85 20.3684 350.579 20.481 350.295 20.481H338.005C337.722 20.481 337.45 20.3684 337.249 20.1679C337.049 19.9674 336.936 19.6955 336.936 19.412V15.67C336.937 15.3869 337.049 15.1155 337.25 14.9154C337.45 14.7154 337.722 14.603 338.005 14.603V14.603Z" fill="#111111"/>
<path d="M324.774 14.8221C326.55 14.8221 328.258 15.5045 329.545 16.7281C329.592 16.7737 329.654 16.7993 329.719 16.7993C329.784 16.7993 329.846 16.7737 329.892 16.7281L330.819 15.7931C330.843 15.769 330.862 15.7404 330.875 15.709C330.888 15.6776 330.894 15.644 330.894 15.6101C330.894 15.5761 330.887 15.5426 330.874 15.5114C330.861 15.4802 330.841 15.4518 330.817 15.4281C329.191 13.8699 327.026 13 324.774 13C322.522 13 320.357 13.8699 318.731 15.4281C318.707 15.4518 318.688 15.4802 318.675 15.5114C318.661 15.5426 318.655 15.5761 318.654 15.6101C318.654 15.644 318.661 15.6776 318.674 15.709C318.686 15.7404 318.705 15.769 318.729 15.7931L319.656 16.7281C319.703 16.7737 319.765 16.7993 319.83 16.7993C319.895 16.7993 319.957 16.7737 320.003 16.7281C321.291 15.5042 322.999 14.8219 324.775 14.8221H324.774ZM324.774 17.8641C325.75 17.8641 326.691 18.227 327.414 18.8821C327.461 18.9272 327.523 18.9525 327.588 18.9525C327.653 18.9525 327.715 18.9272 327.761 18.8821L328.686 17.9471C328.71 17.9227 328.73 17.8939 328.742 17.8621C328.755 17.8303 328.762 17.7963 328.761 17.7621C328.761 17.7278 328.754 17.694 328.74 17.6626C328.727 17.6312 328.707 17.6028 328.682 17.5791C327.621 16.5915 326.224 16.0425 324.774 16.0425C323.324 16.0425 321.928 16.5915 320.866 17.5791C320.842 17.6028 320.822 17.6312 320.808 17.6626C320.795 17.694 320.788 17.7278 320.787 17.7621C320.787 17.7963 320.793 17.8303 320.806 17.8621C320.819 17.8939 320.838 17.9227 320.862 17.9471L321.787 18.8821C321.834 18.9272 321.896 18.9525 321.961 18.9525C322.026 18.9525 322.088 18.9272 322.134 18.8821C322.857 18.2274 323.797 17.8646 324.772 17.8641H324.774ZM326.553 20.0961C326.578 20.072 326.597 20.0432 326.61 20.0113C326.623 19.9795 326.629 19.9454 326.628 19.9111C326.628 19.8767 326.62 19.8428 326.606 19.8115C326.591 19.7802 326.571 19.7521 326.545 19.7291C326.05 19.3102 325.423 19.0804 324.774 19.0804C324.126 19.0804 323.498 19.3102 323.003 19.7291C322.978 19.752 322.957 19.7798 322.943 19.811C322.929 19.8421 322.921 19.8758 322.92 19.9101C322.919 19.9444 322.926 19.9785 322.939 20.0103C322.952 20.0422 322.971 20.071 322.995 20.0951L324.595 21.7111C324.619 21.7346 324.646 21.7532 324.677 21.7659C324.707 21.7786 324.74 21.7851 324.773 21.7851C324.806 21.7851 324.839 21.7786 324.87 21.7659C324.9 21.7532 324.928 21.7346 324.951 21.7111L326.553 20.0961Z" fill="#111111"/>
<path d="M23.294 18.472C22.97 18.472 22.662 18.418 22.37 18.31C22.082 18.202 21.828 18.044 21.608 17.836C21.388 17.624 21.212 17.366 21.08 17.062C20.952 16.754 20.888 16.402 20.888 16.006C20.888 15.63 20.958 15.278 21.098 14.95C21.238 14.622 21.434 14.336 21.686 14.092C21.938 13.848 22.238 13.656 22.586 13.516C22.934 13.376 23.316 13.306 23.732 13.306C24.144 13.306 24.518 13.374 24.854 13.51C25.19 13.646 25.478 13.836 25.718 14.08C25.958 14.324 26.142 14.616 26.27 14.956C26.402 15.296 26.468 15.672 26.468 16.084C26.468 16.332 26.444 16.568 26.396 16.792C26.352 17.012 26.286 17.228 26.198 17.44C26.11 17.652 26.004 17.864 25.88 18.076C25.76 18.284 25.622 18.5 25.466 18.724L23.372 21.748C23.32 21.824 23.246 21.886 23.15 21.934C23.054 21.978 22.944 22 22.82 22H21.836L24.452 18.574C24.54 18.458 24.622 18.348 24.698 18.244C24.774 18.14 24.846 18.036 24.914 17.932C24.694 18.108 24.446 18.242 24.17 18.334C23.894 18.426 23.602 18.472 23.294 18.472ZM25.442 15.958C25.442 15.69 25.398 15.448 25.31 15.232C25.226 15.012 25.108 14.826 24.956 14.674C24.804 14.522 24.622 14.406 24.41 14.326C24.202 14.242 23.972 14.2 23.72 14.2C23.456 14.2 23.214 14.244 22.994 14.332C22.778 14.416 22.592 14.534 22.436 14.686C22.284 14.838 22.166 15.02 22.082 15.232C21.998 15.444 21.956 15.676 21.956 15.928C21.956 16.2 21.994 16.444 22.07 16.66C22.15 16.872 22.262 17.052 22.406 17.2C22.554 17.348 22.732 17.46 22.94 17.536C23.152 17.612 23.388 17.65 23.648 17.65C23.936 17.65 24.19 17.604 24.41 17.512C24.634 17.416 24.822 17.29 24.974 17.134C25.126 16.978 25.242 16.798 25.322 16.594C25.402 16.39 25.442 16.178 25.442 15.958ZM27.7289 21.34C27.7289 21.236 27.7469 21.138 27.7829 21.046C27.8229 20.954 27.8749 20.874 27.9389 20.806C28.0069 20.738 28.0869 20.684 28.1789 20.644C28.2709 20.604 28.3689 20.584 28.4729 20.584C28.5769 20.584 28.6749 20.604 28.7669 20.644C28.8589 20.684 28.9389 20.738 29.0069 20.806C29.0749 20.874 29.1269 20.954 29.1629 21.046C29.2029 21.138 29.2229 21.236 29.2229 21.34C29.2229 21.448 29.2029 21.548 29.1629 21.64C29.1269 21.728 29.0749 21.806 29.0069 21.874C28.9389 21.942 28.8589 21.994 28.7669 22.03C28.6749 22.07 28.5769 22.09 28.4729 22.09C28.3689 22.09 28.2709 22.07 28.1789 22.03C28.0869 21.994 28.0069 21.942 27.9389 21.874C27.8749 21.806 27.8229 21.728 27.7829 21.64C27.7469 21.548 27.7289 21.448 27.7289 21.34ZM27.7289 16.84C27.7289 16.736 27.7469 16.638 27.7829 16.546C27.8229 16.454 27.8749 16.374 27.9389 16.306C28.0069 16.238 28.0869 16.184 28.1789 16.144C28.2709 16.104 28.3689 16.084 28.4729 16.084C28.5769 16.084 28.6749 16.104 28.7669 16.144C28.8589 16.184 28.9389 16.238 29.0069 16.306C29.0749 16.374 29.1269 16.454 29.1629 16.546C29.2029 16.638 29.2229 16.736 29.2229 16.84C29.2229 16.948 29.2029 17.048 29.1629 17.14C29.1269 17.228 29.0749 17.306 29.0069 17.374C28.9389 17.442 28.8589 17.496 28.7669 17.536C28.6749 17.572 28.5769 17.59 28.4729 17.59C28.3689 17.59 28.2709 17.572 28.1789 17.536C28.0869 17.496 28.0069 17.442 27.9389 17.374C27.8749 17.306 27.8229 17.228 27.7829 17.14C27.7469 17.048 27.7289 16.948 27.7289 16.84ZM35.4024 18.898H36.7044V19.51C36.7044 19.574 36.6844 19.628 36.6444 19.672C36.6084 19.716 36.5504 19.738 36.4704 19.738H35.4024V22H34.4604V19.738H30.6504C30.5704 19.738 30.5004 19.716 30.4404 19.672C30.3844 19.624 30.3484 19.566 30.3324 19.498L30.2244 18.952L34.4064 13.402H35.4024V18.898ZM34.4604 15.352C34.4604 15.248 34.4624 15.136 34.4664 15.016C34.4744 14.896 34.4884 14.772 34.5084 14.644L31.3824 18.898H34.4604V15.352ZM38.6673 21.184H40.5153V15.322C40.5153 15.146 40.5213 14.968 40.5333 14.788L38.9973 16.102C38.9573 16.134 38.9173 16.158 38.8773 16.174C38.8373 16.186 38.7993 16.192 38.7633 16.192C38.7033 16.192 38.6493 16.18 38.6013 16.156C38.5533 16.128 38.5173 16.096 38.4933 16.06L38.1573 15.598L40.7133 13.384H41.5833V21.184H43.2753V22H38.6673V21.184Z" fill="#111111"/>
<path d="M301.8 18.34H302.6C302.812 18.34 303.016 18.4243 303.166 18.5743C303.316 18.7243 303.4 18.9278 303.4 19.14V20.74C303.4 20.9522 303.316 21.1557 303.166 21.3057C303.016 21.4557 302.812 21.54 302.6 21.54H301.8C301.588 21.54 301.384 21.4557 301.234 21.3057C301.084 21.1557 301 20.9522 301 20.74V19.14C301 18.9278 301.084 18.7243 301.234 18.5743C301.384 18.4243 301.588 18.34 301.8 18.34V18.34ZM305.54 16.74H306.34C306.552 16.74 306.756 16.8243 306.906 16.9743C307.056 17.1243 307.14 17.3278 307.14 17.54V20.746C307.14 20.8511 307.119 20.9551 307.079 21.0521C307.039 21.1492 306.98 21.2374 306.906 21.3117C306.831 21.386 306.743 21.4449 306.646 21.4851C306.549 21.5253 306.445 21.546 306.34 21.546H305.54C305.435 21.546 305.331 21.5253 305.234 21.4851C305.137 21.4449 305.049 21.386 304.974 21.3117C304.9 21.2374 304.841 21.1492 304.801 21.0521C304.761 20.9551 304.74 20.8511 304.74 20.746V17.54C304.74 17.4347 304.76 17.3303 304.8 17.2329C304.84 17.1355 304.899 17.047 304.973 16.9724C305.048 16.8978 305.136 16.8386 305.233 16.7982C305.33 16.7578 305.435 16.737 305.54 16.737V16.74ZM309.28 14.87H310.08C310.185 14.87 310.289 14.8907 310.386 14.9309C310.483 14.9711 310.571 15.03 310.646 15.1043C310.72 15.1786 310.779 15.2668 310.819 15.3639C310.859 15.4609 310.88 15.5649 310.88 15.67V20.746C310.88 20.8511 310.859 20.9551 310.819 21.0521C310.779 21.1492 310.72 21.2374 310.646 21.3117C310.571 21.386 310.483 21.4449 310.386 21.4851C310.289 21.5253 310.185 21.546 310.08 21.546H309.28C309.175 21.546 309.071 21.5253 308.974 21.4851C308.877 21.4449 308.789 21.386 308.714 21.3117C308.64 21.2374 308.581 21.1492 308.541 21.0521C308.501 20.9551 308.48 20.8511 308.48 20.746V15.67C308.48 15.5646 308.5 15.4602 308.54 15.3627C308.58 15.2652 308.639 15.1766 308.714 15.102C308.788 15.0274 308.876 14.9682 308.974 14.9279C309.071 14.8876 309.176 14.8669 309.281 14.867L309.28 14.87ZM313.02 13H313.82C314.032 13 314.236 13.0843 314.386 13.2343C314.536 13.3843 314.62 13.5878 314.62 13.8V20.746C314.62 20.9582 314.536 21.1617 314.386 21.3117C314.236 21.4617 314.032 21.546 313.82 21.546H313.02C312.915 21.546 312.811 21.5253 312.714 21.4851C312.617 21.4449 312.529 21.386 312.454 21.3117C312.38 21.2374 312.321 21.1492 312.281 21.0521C312.241 20.9551 312.22 20.8511 312.22 20.746V13.8C312.22 13.6949 312.241 13.5909 312.281 13.4939C312.321 13.3968 312.38 13.3086 312.454 13.2343C312.529 13.16 312.617 13.1011 312.714 13.0609C312.811 13.0207 312.915 13 313.02 13V13Z" fill="#111111"/>
</g>
<defs>
<filter id="filter0_d_218_40893" x="-30" y="75" width="435" height="762" filterUnits="userSpaceOnUse" color-interpolation-filters="sRGB">
<feFlood flood-opacity="0" result="BackgroundImageFix"/>
<feColorMatrix in="SourceAlpha" type="matrix" values="0 0 0 0 0 0 0 0 0 0 0 0 0 0 0 0 0 0 127 0" result="hardAlpha"/>
<feOffset dy="-5"/>
<feGaussianBlur stdDeviation="15"/>
<feColorMatrix type="matrix" values="0 0 0 0 0 0 0 0 0 0 0 0 0 0 0 0 0 0 0.1 0"/>
<feBlend mode="normal" in2="BackgroundImageFix" result="effect1_dropShadow_218_40893"/>
<feBlend mode="normal" in="SourceGraphic" in2="effect1_dropShadow_218_40893" result="shape"/>
</filter>
<filter id="filter1_d_218_40893" x="76" y="642" width="223" height="42" filterUnits="userSpaceOnUse" color-interpolation-filters="sRGB">
<feFlood flood-opacity="0" result="BackgroundImageFix"/>
<feColorMatrix in="SourceAlpha" type="matrix" values="0 0 0 0 0 0 0 0 0 0 0 0 0 0 0 0 0 0 127 0" result="hardAlpha"/>
<feOffset dy="4"/>
<feGaussianBlur stdDeviation="2"/>
<feColorMatrix type="matrix" values="0 0 0 0 0 0 0 0 0 0 0 0 0 0 0 0 0 0 0.2 0"/>
<feBlend mode="normal" in2="BackgroundImageFix" result="effect1_dropShadow_218_40893"/>
<feBlend mode="normal" in="SourceGraphic" in2="effect1_dropShadow_218_40893" result="shape"/>
</filter>
<filter id="filter2_d_218_40893" x="159" y="693" width="58" height="58" filterUnits="userSpaceOnUse" color-interpolation-filters="sRGB">
<feFlood flood-opacity="0" result="BackgroundImageFix"/>
<feColorMatrix in="SourceAlpha" type="matrix" values="0 0 0 0 0 0 0 0 0 0 0 0 0 0 0 0 0 0 127 0" result="hardAlpha"/>
<feOffset dy="1"/>
<feGaussianBlur stdDeviation="2"/>
<feColorMatrix type="matrix" values="0 0 0 0 0 0 0 0 0 0 0 0 0 0 0 0 0 0 0.25 0"/>
<feBlend mode="normal" in2="BackgroundImageFix" result="effect1_dropShadow_218_40893"/>
<feBlend mode="normal" in="SourceGraphic" in2="effect1_dropShadow_218_40893" result="shape"/>
</filter>
<clipPath id="clip0_218_40893">
<rect width="375" height="812" fill="white"/>
</clipPath>
</defs>
</svg>
