<svg width="375" height="812" viewBox="0 0 375 812" fill="none" xmlns="http://www.w3.org/2000/svg">
<g clip-path="url(#clip0_218_40716)">
<rect width="375" height="812" fill="white"/>
<path d="M375 811.948V190.948C371.004 195.596 345.293 207.005 333.795 212.688C329.948 215.077 292.551 226.614 273.476 231.525C259.818 235.507 243.924 236.506 237.684 236.508C229.064 235.983 216.597 236.289 211.441 236.508C182.765 236.256 149.416 265.641 136.325 280.366C85.6237 324.531 24.3161 318.497 0 309.96V811.948H375Z" fill="#FEFFEE"/>
<rect x="140" y="783.104" width="95.674" height="6.30817" rx="3.15409" fill="#E7E7E7"/>
<rect x="31.5" y="615.5" width="311" height="59" rx="29.5" stroke="#5B5B5B"/>
<path d="M100.411 651.02C101.017 651.02 101.544 650.967 101.991 650.86C102.444 650.747 102.874 650.593 103.281 650.4V647.77H101.471C101.297 647.77 101.161 647.723 101.061 647.63C100.961 647.53 100.911 647.41 100.911 647.27V645.75H105.721V651.6C105.354 651.867 104.971 652.1 104.571 652.3C104.177 652.493 103.754 652.653 103.301 652.78C102.854 652.907 102.374 653 101.861 653.06C101.347 653.127 100.794 653.16 100.201 653.16C99.1472 653.16 98.1772 652.977 97.2905 652.61C96.4039 652.243 95.6372 651.733 94.9905 651.08C94.3439 650.427 93.8372 649.647 93.4705 648.74C93.1105 647.833 92.9305 646.843 92.9305 645.77C92.9305 644.683 93.1072 643.687 93.4605 642.78C93.8139 641.873 94.3139 641.093 94.9605 640.44C95.6139 639.787 96.4039 639.28 97.3305 638.92C98.2572 638.56 99.2972 638.38 100.451 638.38C101.631 638.38 102.651 638.557 103.511 638.91C104.377 639.257 105.111 639.71 105.711 640.27L104.931 641.49C104.777 641.737 104.574 641.86 104.321 641.86C104.161 641.86 103.997 641.807 103.831 641.7C103.617 641.573 103.397 641.447 103.171 641.32C102.951 641.193 102.704 641.083 102.431 640.99C102.164 640.897 101.861 640.82 101.521 640.76C101.187 640.7 100.801 640.67 100.361 640.67C99.6472 640.67 99.0005 640.79 98.4205 641.03C97.8472 641.27 97.3572 641.613 96.9505 642.06C96.5439 642.507 96.2305 643.043 96.0105 643.67C95.7905 644.297 95.6805 644.997 95.6805 645.77C95.6805 646.603 95.7972 647.347 96.0305 648C96.2639 648.647 96.5905 649.193 97.0105 649.64C97.4305 650.087 97.9305 650.43 98.5105 650.67C99.0905 650.903 99.7239 651.02 100.411 651.02ZM112.464 642.58C113.23 642.58 113.924 642.703 114.544 642.95C115.17 643.197 115.704 643.547 116.144 644C116.584 644.453 116.924 645.007 117.164 645.66C117.404 646.313 117.524 647.043 117.524 647.85C117.524 648.663 117.404 649.397 117.164 650.05C116.924 650.703 116.584 651.26 116.144 651.72C115.704 652.18 115.17 652.533 114.544 652.78C113.924 653.027 113.23 653.15 112.464 653.15C111.697 653.15 111 653.027 110.374 652.78C109.747 652.533 109.21 652.18 108.764 651.72C108.324 651.26 107.98 650.703 107.734 650.05C107.494 649.397 107.374 648.663 107.374 647.85C107.374 647.043 107.494 646.313 107.734 645.66C107.98 645.007 108.324 644.453 108.764 644C109.21 643.547 109.747 643.197 110.374 642.95C111 642.703 111.697 642.58 112.464 642.58ZM112.464 651.25C113.317 651.25 113.947 650.963 114.354 650.39C114.767 649.817 114.974 648.977 114.974 647.87C114.974 646.763 114.767 645.92 114.354 645.34C113.947 644.76 113.317 644.47 112.464 644.47C111.597 644.47 110.957 644.763 110.544 645.35C110.13 645.93 109.924 646.77 109.924 647.87C109.924 648.97 110.13 649.81 110.544 650.39C110.957 650.963 111.597 651.25 112.464 651.25ZM126.688 653.16C125.801 653.16 125.118 652.91 124.638 652.41C124.158 651.903 123.918 651.207 123.918 650.32V644.59H122.878C122.745 644.59 122.628 644.547 122.528 644.46C122.435 644.373 122.388 644.243 122.388 644.07V643.09L124.038 642.82L124.558 640.02C124.585 639.887 124.645 639.783 124.738 639.71C124.838 639.637 124.961 639.6 125.108 639.6H126.388V642.83H129.088V644.59H126.388V650.15C126.388 650.47 126.468 650.72 126.628 650.9C126.788 651.08 127.001 651.17 127.268 651.17C127.421 651.17 127.548 651.153 127.648 651.12C127.755 651.08 127.845 651.04 127.918 651C127.998 650.96 128.068 650.923 128.128 650.89C128.188 650.85 128.248 650.83 128.308 650.83C128.381 650.83 128.441 650.85 128.488 650.89C128.535 650.923 128.585 650.977 128.638 651.05L129.378 652.25C129.018 652.55 128.605 652.777 128.138 652.93C127.671 653.083 127.188 653.16 126.688 653.16ZM135.432 642.58C136.199 642.58 136.892 642.703 137.512 642.95C138.139 643.197 138.672 643.547 139.112 644C139.552 644.453 139.892 645.007 140.132 645.66C140.372 646.313 140.492 647.043 140.492 647.85C140.492 648.663 140.372 649.397 140.132 650.05C139.892 650.703 139.552 651.26 139.112 651.72C138.672 652.18 138.139 652.533 137.512 652.78C136.892 653.027 136.199 653.15 135.432 653.15C134.666 653.15 133.969 653.027 133.342 652.78C132.716 652.533 132.179 652.18 131.732 651.72C131.292 651.26 130.949 650.703 130.702 650.05C130.462 649.397 130.342 648.663 130.342 647.85C130.342 647.043 130.462 646.313 130.702 645.66C130.949 645.007 131.292 644.453 131.732 644C132.179 643.547 132.716 643.197 133.342 642.95C133.969 642.703 134.666 642.58 135.432 642.58ZM135.432 651.25C136.286 651.25 136.916 650.963 137.322 650.39C137.736 649.817 137.942 648.977 137.942 647.87C137.942 646.763 137.736 645.92 137.322 645.34C136.916 644.76 136.286 644.47 135.432 644.47C134.566 644.47 133.926 644.763 133.512 645.35C133.099 645.93 132.892 646.77 132.892 647.87C132.892 648.97 133.099 649.81 133.512 650.39C133.926 650.963 134.566 651.25 135.432 651.25ZM159.137 653H157.057C156.823 653 156.63 652.943 156.477 652.83C156.33 652.71 156.223 652.563 156.157 652.39L155.077 649.44H149.087L148.007 652.39C147.953 652.543 147.847 652.683 147.687 652.81C147.533 652.937 147.343 653 147.117 653H145.027L150.707 638.54H153.457L159.137 653ZM149.777 647.54H154.387L152.627 642.73C152.547 642.517 152.457 642.267 152.357 641.98C152.263 641.687 152.17 641.37 152.077 641.03C151.983 641.37 151.89 641.687 151.797 641.98C151.71 642.273 151.623 642.53 151.537 642.75L149.777 647.54ZM167.696 644.91C167.623 645.003 167.549 645.077 167.476 645.13C167.409 645.183 167.309 645.21 167.176 645.21C167.049 645.21 166.926 645.173 166.806 645.1C166.686 645.02 166.543 644.933 166.376 644.84C166.209 644.74 166.009 644.653 165.776 644.58C165.549 644.5 165.266 644.46 164.926 644.46C164.493 644.46 164.113 644.54 163.786 644.7C163.459 644.853 163.186 645.077 162.966 645.37C162.753 645.663 162.593 646.02 162.486 646.44C162.379 646.853 162.326 647.323 162.326 647.85C162.326 648.397 162.383 648.883 162.496 649.31C162.616 649.737 162.786 650.097 163.006 650.39C163.226 650.677 163.493 650.897 163.806 651.05C164.119 651.197 164.473 651.27 164.866 651.27C165.259 651.27 165.576 651.223 165.816 651.13C166.063 651.03 166.269 650.923 166.436 650.81C166.603 650.69 166.746 650.583 166.866 650.49C166.993 650.39 167.133 650.34 167.286 650.34C167.486 650.34 167.636 650.417 167.736 650.57L168.446 651.47C168.173 651.79 167.876 652.06 167.556 652.28C167.236 652.493 166.903 652.667 166.556 652.8C166.216 652.927 165.863 653.017 165.496 653.07C165.129 653.123 164.766 653.15 164.406 653.15C163.773 653.15 163.176 653.033 162.616 652.8C162.056 652.56 161.566 652.213 161.146 651.76C160.733 651.307 160.403 650.753 160.156 650.1C159.916 649.44 159.796 648.69 159.796 647.85C159.796 647.097 159.903 646.4 160.116 645.76C160.336 645.113 160.656 644.557 161.076 644.09C161.496 643.617 162.016 643.247 162.636 642.98C163.256 642.713 163.969 642.58 164.776 642.58C165.543 642.58 166.213 642.703 166.786 642.95C167.366 643.197 167.886 643.55 168.346 644.01L167.696 644.91ZM177.227 644.91C177.154 645.003 177.081 645.077 177.007 645.13C176.941 645.183 176.841 645.21 176.707 645.21C176.581 645.21 176.457 645.173 176.337 645.1C176.217 645.02 176.074 644.933 175.907 644.84C175.741 644.74 175.541 644.653 175.307 644.58C175.081 644.5 174.797 644.46 174.457 644.46C174.024 644.46 173.644 644.54 173.317 644.7C172.991 644.853 172.717 645.077 172.497 645.37C172.284 645.663 172.124 646.02 172.017 646.44C171.911 646.853 171.857 647.323 171.857 647.85C171.857 648.397 171.914 648.883 172.027 649.31C172.147 649.737 172.317 650.097 172.537 650.39C172.757 650.677 173.024 650.897 173.337 651.05C173.651 651.197 174.004 651.27 174.397 651.27C174.791 651.27 175.107 651.223 175.347 651.13C175.594 651.03 175.801 650.923 175.967 650.81C176.134 650.69 176.277 650.583 176.397 650.49C176.524 650.39 176.664 650.34 176.817 650.34C177.017 650.34 177.167 650.417 177.267 650.57L177.977 651.47C177.704 651.79 177.407 652.06 177.087 652.28C176.767 652.493 176.434 652.667 176.087 652.8C175.747 652.927 175.394 653.017 175.027 653.07C174.661 653.123 174.297 653.15 173.937 653.15C173.304 653.15 172.707 653.033 172.147 652.8C171.587 652.56 171.097 652.213 170.677 651.76C170.264 651.307 169.934 650.753 169.687 650.1C169.447 649.44 169.327 648.69 169.327 647.85C169.327 647.097 169.434 646.4 169.647 645.76C169.867 645.113 170.187 644.557 170.607 644.09C171.027 643.617 171.547 643.247 172.167 642.98C172.787 642.713 173.501 642.58 174.307 642.58C175.074 642.58 175.744 642.703 176.317 642.95C176.897 643.197 177.417 643.55 177.877 644.01L177.227 644.91ZM183.929 642.58C184.695 642.58 185.389 642.703 186.009 642.95C186.635 643.197 187.169 643.547 187.609 644C188.049 644.453 188.389 645.007 188.629 645.66C188.869 646.313 188.989 647.043 188.989 647.85C188.989 648.663 188.869 649.397 188.629 650.05C188.389 650.703 188.049 651.26 187.609 651.72C187.169 652.18 186.635 652.533 186.009 652.78C185.389 653.027 184.695 653.15 183.929 653.15C183.162 653.15 182.465 653.027 181.839 652.78C181.212 652.533 180.675 652.18 180.229 651.72C179.789 651.26 179.445 650.703 179.199 650.05C178.959 649.397 178.839 648.663 178.839 647.85C178.839 647.043 178.959 646.313 179.199 645.66C179.445 645.007 179.789 644.453 180.229 644C180.675 643.547 181.212 643.197 181.839 642.95C182.465 642.703 183.162 642.58 183.929 642.58ZM183.929 651.25C184.782 651.25 185.412 650.963 185.819 650.39C186.232 649.817 186.439 648.977 186.439 647.87C186.439 646.763 186.232 645.92 185.819 645.34C185.412 644.76 184.782 644.47 183.929 644.47C183.062 644.47 182.422 644.763 182.009 645.35C181.595 645.93 181.389 646.77 181.389 647.87C181.389 648.97 181.595 649.81 182.009 650.39C182.422 650.963 183.062 651.25 183.929 651.25ZM193.176 642.74V649.26C193.176 649.887 193.319 650.373 193.606 650.72C193.899 651.06 194.336 651.23 194.916 651.23C195.342 651.23 195.742 651.137 196.116 650.95C196.489 650.757 196.842 650.493 197.176 650.16V642.74H199.646V653H198.136C197.816 653 197.606 652.85 197.506 652.55L197.336 651.73C197.122 651.943 196.902 652.14 196.676 652.32C196.449 652.493 196.206 652.643 195.946 652.77C195.692 652.89 195.416 652.983 195.116 653.05C194.822 653.123 194.506 653.16 194.166 653.16C193.606 653.16 193.109 653.067 192.676 652.88C192.249 652.687 191.889 652.417 191.596 652.07C191.302 651.723 191.079 651.313 190.926 650.84C190.779 650.36 190.706 649.833 190.706 649.26V642.74H193.176ZM202.283 653V642.74H203.793C204.113 642.74 204.323 642.89 204.423 643.19L204.593 644C204.8 643.787 205.016 643.593 205.243 643.42C205.476 643.247 205.72 643.097 205.973 642.97C206.233 642.843 206.51 642.747 206.803 642.68C207.096 642.613 207.416 642.58 207.763 642.58C208.323 642.58 208.82 642.677 209.253 642.87C209.686 643.057 210.046 643.323 210.333 643.67C210.626 644.01 210.846 644.42 210.993 644.9C211.146 645.373 211.223 645.897 211.223 646.47V653H208.753V646.47C208.753 645.843 208.606 645.36 208.313 645.02C208.026 644.673 207.593 644.5 207.013 644.5C206.586 644.5 206.186 644.597 205.813 644.79C205.44 644.983 205.086 645.247 204.753 645.58V653H202.283ZM217.02 653.16C216.133 653.16 215.45 652.91 214.97 652.41C214.49 651.903 214.25 651.207 214.25 650.32V644.59H213.21C213.077 644.59 212.96 644.547 212.86 644.46C212.767 644.373 212.72 644.243 212.72 644.07V643.09L214.37 642.82L214.89 640.02C214.917 639.887 214.977 639.783 215.07 639.71C215.17 639.637 215.293 639.6 215.44 639.6H216.72V642.83H219.42V644.59H216.72V650.15C216.72 650.47 216.8 650.72 216.96 650.9C217.12 651.08 217.333 651.17 217.6 651.17C217.753 651.17 217.88 651.153 217.98 651.12C218.087 651.08 218.177 651.04 218.25 651C218.33 650.96 218.4 650.923 218.46 650.89C218.52 650.85 218.58 650.83 218.64 650.83C218.713 650.83 218.773 650.85 218.82 650.89C218.867 650.923 218.917 650.977 218.97 651.05L219.71 652.25C219.35 652.55 218.937 652.777 218.47 652.93C218.003 653.083 217.52 653.16 217.02 653.16ZM233.142 641.17C233.068 641.317 232.982 641.42 232.882 641.48C232.788 641.54 232.675 641.57 232.542 641.57C232.408 641.57 232.258 641.52 232.092 641.42C231.925 641.313 231.728 641.197 231.502 641.07C231.275 640.943 231.008 640.83 230.702 640.73C230.402 640.623 230.045 640.57 229.632 640.57C229.258 640.57 228.932 640.617 228.652 640.71C228.378 640.797 228.145 640.92 227.952 641.08C227.765 641.24 227.625 641.433 227.532 641.66C227.438 641.88 227.392 642.123 227.392 642.39C227.392 642.73 227.485 643.013 227.672 643.24C227.865 643.467 228.118 643.66 228.432 643.82C228.745 643.98 229.102 644.123 229.502 644.25C229.902 644.377 230.308 644.513 230.722 644.66C231.142 644.8 231.552 644.967 231.952 645.16C232.352 645.347 232.708 645.587 233.022 645.88C233.335 646.167 233.585 646.52 233.772 646.94C233.965 647.36 234.062 647.87 234.062 648.47C234.062 649.123 233.948 649.737 233.722 650.31C233.502 650.877 233.175 651.373 232.742 651.8C232.315 652.22 231.792 652.553 231.172 652.8C230.552 653.04 229.842 653.16 229.042 653.16C228.582 653.16 228.128 653.113 227.682 653.02C227.235 652.933 226.805 652.807 226.392 652.64C225.985 652.473 225.602 652.273 225.242 652.04C224.888 651.807 224.572 651.547 224.292 651.26L225.072 649.97C225.145 649.877 225.232 649.8 225.332 649.74C225.438 649.673 225.555 649.64 225.682 649.64C225.848 649.64 226.028 649.71 226.222 649.85C226.415 649.983 226.642 650.133 226.902 650.3C227.168 650.467 227.478 650.62 227.832 650.76C228.192 650.893 228.622 650.96 229.122 650.96C229.888 650.96 230.482 650.78 230.902 650.42C231.322 650.053 231.532 649.53 231.532 648.85C231.532 648.47 231.435 648.16 231.242 647.92C231.055 647.68 230.805 647.48 230.492 647.32C230.178 647.153 229.822 647.013 229.422 646.9C229.022 646.787 228.615 646.663 228.202 646.53C227.788 646.397 227.382 646.237 226.982 646.05C226.582 645.863 226.225 645.62 225.912 645.32C225.598 645.02 225.345 644.647 225.152 644.2C224.965 643.747 224.872 643.19 224.872 642.53C224.872 642.003 224.975 641.49 225.182 640.99C225.395 640.49 225.702 640.047 226.102 639.66C226.508 639.273 227.005 638.963 227.592 638.73C228.178 638.497 228.848 638.38 229.602 638.38C230.455 638.38 231.242 638.513 231.962 638.78C232.682 639.047 233.295 639.42 233.802 639.9L233.142 641.17ZM239.344 653.16C238.458 653.16 237.774 652.91 237.294 652.41C236.814 651.903 236.574 651.207 236.574 650.32V644.59H235.534C235.401 644.59 235.284 644.547 235.184 644.46C235.091 644.373 235.044 644.243 235.044 644.07V643.09L236.694 642.82L237.214 640.02C237.241 639.887 237.301 639.783 237.394 639.71C237.494 639.637 237.618 639.6 237.764 639.6H239.044V642.83H241.744V644.59H239.044V650.15C239.044 650.47 239.124 650.72 239.284 650.9C239.444 651.08 239.658 651.17 239.924 651.17C240.078 651.17 240.204 651.153 240.304 651.12C240.411 651.08 240.501 651.04 240.574 651C240.654 650.96 240.724 650.923 240.784 650.89C240.844 650.85 240.904 650.83 240.964 650.83C241.038 650.83 241.098 650.85 241.144 650.89C241.191 650.923 241.241 650.977 241.294 651.05L242.034 652.25C241.674 652.55 241.261 652.777 240.794 652.93C240.328 653.083 239.844 653.16 239.344 653.16ZM251.749 653H250.639C250.405 653 250.222 652.967 250.089 652.9C249.955 652.827 249.855 652.683 249.789 652.47L249.569 651.74C249.309 651.973 249.052 652.18 248.799 652.36C248.552 652.533 248.295 652.68 248.029 652.8C247.762 652.92 247.479 653.01 247.179 653.07C246.879 653.13 246.545 653.16 246.179 653.16C245.745 653.16 245.345 653.103 244.979 652.99C244.612 652.87 244.295 652.693 244.029 652.46C243.769 652.227 243.565 651.937 243.419 651.59C243.272 651.243 243.199 650.84 243.199 650.38C243.199 649.993 243.299 649.613 243.499 649.24C243.705 648.86 244.045 648.52 244.519 648.22C244.992 647.913 245.622 647.66 246.409 647.46C247.195 647.26 248.172 647.147 249.339 647.12V646.52C249.339 645.833 249.192 645.327 248.899 645C248.612 644.667 248.192 644.5 247.639 644.5C247.239 644.5 246.905 644.547 246.639 644.64C246.372 644.733 246.139 644.84 245.939 644.96C245.745 645.073 245.565 645.177 245.399 645.27C245.232 645.363 245.049 645.41 244.849 645.41C244.682 645.41 244.539 645.367 244.419 645.28C244.299 645.193 244.202 645.087 244.129 644.96L243.679 644.17C244.859 643.09 246.282 642.55 247.949 642.55C248.549 642.55 249.082 642.65 249.549 642.85C250.022 643.043 250.422 643.317 250.749 643.67C251.075 644.017 251.322 644.433 251.489 644.92C251.662 645.407 251.749 645.94 251.749 646.52V653ZM246.949 651.46C247.202 651.46 247.435 651.437 247.649 651.39C247.862 651.343 248.062 651.273 248.249 651.18C248.442 651.087 248.625 650.973 248.799 650.84C248.979 650.7 249.159 650.537 249.339 650.35V648.62C248.619 648.653 248.015 648.717 247.529 648.81C247.049 648.897 246.662 649.01 246.369 649.15C246.075 649.29 245.865 649.453 245.739 649.64C245.619 649.827 245.559 650.03 245.559 650.25C245.559 650.683 245.685 650.993 245.939 651.18C246.199 651.367 246.535 651.46 246.949 651.46ZM257.547 653.16C256.661 653.16 255.977 652.91 255.497 652.41C255.017 651.903 254.777 651.207 254.777 650.32V644.59H253.737C253.604 644.59 253.487 644.547 253.387 644.46C253.294 644.373 253.247 644.243 253.247 644.07V643.09L254.897 642.82L255.417 640.02C255.444 639.887 255.504 639.783 255.597 639.71C255.697 639.637 255.821 639.6 255.967 639.6H257.247V642.83H259.947V644.59H257.247V650.15C257.247 650.47 257.327 650.72 257.487 650.9C257.647 651.08 257.861 651.17 258.127 651.17C258.281 651.17 258.407 651.153 258.507 651.12C258.614 651.08 258.704 651.04 258.777 651C258.857 650.96 258.927 650.923 258.987 650.89C259.047 650.85 259.107 650.83 259.167 650.83C259.241 650.83 259.301 650.85 259.347 650.89C259.394 650.923 259.444 650.977 259.497 651.05L260.237 652.25C259.877 652.55 259.464 652.777 258.997 652.93C258.531 653.083 258.047 653.16 257.547 653.16ZM264.172 642.74V649.26C264.172 649.887 264.315 650.373 264.602 650.72C264.895 651.06 265.332 651.23 265.912 651.23C266.338 651.23 266.738 651.137 267.112 650.95C267.485 650.757 267.838 650.493 268.172 650.16V642.74H270.642V653H269.132C268.812 653 268.602 652.85 268.502 652.55L268.332 651.73C268.118 651.943 267.898 652.14 267.672 652.32C267.445 652.493 267.202 652.643 266.942 652.77C266.688 652.89 266.412 652.983 266.112 653.05C265.818 653.123 265.502 653.16 265.162 653.16C264.602 653.16 264.105 653.067 263.672 652.88C263.245 652.687 262.885 652.417 262.592 652.07C262.298 651.723 262.075 651.313 261.922 650.84C261.775 650.36 261.702 649.833 261.702 649.26V642.74H264.172ZM279.369 644.74C279.302 644.847 279.232 644.923 279.159 644.97C279.086 645.01 278.992 645.03 278.879 645.03C278.759 645.03 278.629 644.997 278.489 644.93C278.356 644.863 278.199 644.79 278.019 644.71C277.839 644.623 277.632 644.547 277.399 644.48C277.172 644.413 276.902 644.38 276.589 644.38C276.102 644.38 275.719 644.483 275.439 644.69C275.159 644.897 275.019 645.167 275.019 645.5C275.019 645.72 275.089 645.907 275.229 646.06C275.376 646.207 275.566 646.337 275.799 646.45C276.039 646.563 276.309 646.667 276.609 646.76C276.909 646.847 277.216 646.943 277.529 647.05C277.842 647.157 278.149 647.28 278.449 647.42C278.749 647.553 279.016 647.727 279.249 647.94C279.489 648.147 279.679 648.397 279.819 648.69C279.966 648.983 280.039 649.337 280.039 649.75C280.039 650.243 279.949 650.7 279.769 651.12C279.589 651.533 279.326 651.893 278.979 652.2C278.632 652.5 278.202 652.737 277.689 652.91C277.182 653.077 276.599 653.16 275.939 653.16C275.586 653.16 275.239 653.127 274.899 653.06C274.566 653 274.242 652.913 273.929 652.8C273.622 652.687 273.336 652.553 273.069 652.4C272.809 652.247 272.579 652.08 272.379 651.9L272.949 650.96C273.022 650.847 273.109 650.76 273.209 650.7C273.309 650.64 273.436 650.61 273.589 650.61C273.742 650.61 273.886 650.653 274.019 650.74C274.159 650.827 274.319 650.92 274.499 651.02C274.679 651.12 274.889 651.213 275.129 651.3C275.376 651.387 275.686 651.43 276.059 651.43C276.352 651.43 276.602 651.397 276.809 651.33C277.022 651.257 277.196 651.163 277.329 651.05C277.469 650.937 277.569 650.807 277.629 650.66C277.696 650.507 277.729 650.35 277.729 650.19C277.729 649.95 277.656 649.753 277.509 649.6C277.369 649.447 277.179 649.313 276.939 649.2C276.706 649.087 276.436 648.987 276.129 648.9C275.829 648.807 275.519 648.707 275.199 648.6C274.886 648.493 274.576 648.37 274.269 648.23C273.969 648.083 273.699 647.9 273.459 647.68C273.226 647.46 273.036 647.19 272.889 646.87C272.749 646.55 272.679 646.163 272.679 645.71C272.679 645.29 272.762 644.89 272.929 644.51C273.096 644.13 273.339 643.8 273.659 643.52C273.986 643.233 274.389 643.007 274.869 642.84C275.356 642.667 275.916 642.58 276.549 642.58C277.256 642.58 277.899 642.697 278.479 642.93C279.059 643.163 279.542 643.47 279.929 643.85L279.369 644.74Z" fill="#111111"/>
<path d="M97.9996 439.54V441.75H93.6496V454H90.9596V441.75H86.5896V439.54H97.9996ZM99.5641 454V439.14H102.034V444.85C102.434 444.47 102.874 444.163 103.354 443.93C103.834 443.697 104.397 443.58 105.044 443.58C105.604 443.58 106.101 443.677 106.534 443.87C106.967 444.057 107.327 444.323 107.614 444.67C107.907 445.01 108.127 445.42 108.274 445.9C108.427 446.373 108.504 446.897 108.504 447.47V454H106.034V447.47C106.034 446.843 105.887 446.36 105.594 446.02C105.307 445.673 104.874 445.5 104.294 445.5C103.867 445.5 103.467 445.597 103.094 445.79C102.721 445.983 102.367 446.247 102.034 446.58V454H99.5641ZM118.971 454H117.861C117.628 454 117.445 453.967 117.311 453.9C117.178 453.827 117.078 453.683 117.011 453.47L116.791 452.74C116.531 452.973 116.275 453.18 116.021 453.36C115.775 453.533 115.518 453.68 115.251 453.8C114.985 453.92 114.701 454.01 114.401 454.07C114.101 454.13 113.768 454.16 113.401 454.16C112.968 454.16 112.568 454.103 112.201 453.99C111.835 453.87 111.518 453.693 111.251 453.46C110.991 453.227 110.788 452.937 110.641 452.59C110.495 452.243 110.421 451.84 110.421 451.38C110.421 450.993 110.521 450.613 110.721 450.24C110.928 449.86 111.268 449.52 111.741 449.22C112.215 448.913 112.845 448.66 113.631 448.46C114.418 448.26 115.395 448.147 116.561 448.12V447.52C116.561 446.833 116.415 446.327 116.121 446C115.835 445.667 115.415 445.5 114.861 445.5C114.461 445.5 114.128 445.547 113.861 445.64C113.595 445.733 113.361 445.84 113.161 445.96C112.968 446.073 112.788 446.177 112.621 446.27C112.455 446.363 112.271 446.41 112.071 446.41C111.905 446.41 111.761 446.367 111.641 446.28C111.521 446.193 111.425 446.087 111.351 445.96L110.901 445.17C112.081 444.09 113.505 443.55 115.171 443.55C115.771 443.55 116.305 443.65 116.771 443.85C117.245 444.043 117.645 444.317 117.971 444.67C118.298 445.017 118.545 445.433 118.711 445.92C118.885 446.407 118.971 446.94 118.971 447.52V454ZM114.171 452.46C114.425 452.46 114.658 452.437 114.871 452.39C115.085 452.343 115.285 452.273 115.471 452.18C115.665 452.087 115.848 451.973 116.021 451.84C116.201 451.7 116.381 451.537 116.561 451.35V449.62C115.841 449.653 115.238 449.717 114.751 449.81C114.271 449.897 113.885 450.01 113.591 450.15C113.298 450.29 113.088 450.453 112.961 450.64C112.841 450.827 112.781 451.03 112.781 451.25C112.781 451.683 112.908 451.993 113.161 452.18C113.421 452.367 113.758 452.46 114.171 452.46ZM121.4 454V443.74H122.91C123.23 443.74 123.44 443.89 123.54 444.19L123.71 445C123.917 444.787 124.133 444.593 124.36 444.42C124.593 444.247 124.837 444.097 125.09 443.97C125.35 443.843 125.627 443.747 125.92 443.68C126.213 443.613 126.533 443.58 126.88 443.58C127.44 443.58 127.937 443.677 128.37 443.87C128.803 444.057 129.163 444.323 129.45 444.67C129.743 445.01 129.963 445.42 130.11 445.9C130.263 446.373 130.34 446.897 130.34 447.47V454H127.87V447.47C127.87 446.843 127.723 446.36 127.43 446.02C127.143 445.673 126.71 445.5 126.13 445.5C125.703 445.5 125.303 445.597 124.93 445.79C124.557 445.983 124.203 446.247 123.87 446.58V454H121.4ZM135.267 439.14V447.65H135.727C135.894 447.65 136.024 447.627 136.117 447.58C136.211 447.533 136.311 447.447 136.417 447.32L138.967 444.17C139.081 444.037 139.201 443.933 139.327 443.86C139.454 443.78 139.621 443.74 139.827 443.74H142.087L138.897 447.55C138.784 447.69 138.667 447.82 138.547 447.94C138.427 448.053 138.297 448.153 138.157 448.24C138.297 448.34 138.421 448.457 138.527 448.59C138.634 448.723 138.741 448.867 138.847 449.02L142.267 454H140.037C139.844 454 139.681 453.967 139.547 453.9C139.414 453.833 139.294 453.72 139.187 453.56L136.577 449.67C136.477 449.517 136.377 449.417 136.277 449.37C136.177 449.323 136.027 449.3 135.827 449.3H135.267V454H132.797V439.14H135.267ZM149.892 445.74C149.826 445.847 149.756 445.923 149.682 445.97C149.609 446.01 149.516 446.03 149.402 446.03C149.282 446.03 149.152 445.997 149.012 445.93C148.879 445.863 148.722 445.79 148.542 445.71C148.362 445.623 148.156 445.547 147.922 445.48C147.696 445.413 147.426 445.38 147.112 445.38C146.626 445.38 146.242 445.483 145.962 445.69C145.682 445.897 145.542 446.167 145.542 446.5C145.542 446.72 145.612 446.907 145.752 447.06C145.899 447.207 146.089 447.337 146.322 447.45C146.562 447.563 146.832 447.667 147.132 447.76C147.432 447.847 147.739 447.943 148.052 448.05C148.366 448.157 148.672 448.28 148.972 448.42C149.272 448.553 149.539 448.727 149.772 448.94C150.012 449.147 150.202 449.397 150.342 449.69C150.489 449.983 150.562 450.337 150.562 450.75C150.562 451.243 150.472 451.7 150.292 452.12C150.112 452.533 149.849 452.893 149.502 453.2C149.156 453.5 148.726 453.737 148.212 453.91C147.706 454.077 147.122 454.16 146.462 454.16C146.109 454.16 145.762 454.127 145.422 454.06C145.089 454 144.766 453.913 144.452 453.8C144.146 453.687 143.859 453.553 143.592 453.4C143.332 453.247 143.102 453.08 142.902 452.9L143.472 451.96C143.546 451.847 143.632 451.76 143.732 451.7C143.832 451.64 143.959 451.61 144.112 451.61C144.266 451.61 144.409 451.653 144.542 451.74C144.682 451.827 144.842 451.92 145.022 452.02C145.202 452.12 145.412 452.213 145.652 452.3C145.899 452.387 146.209 452.43 146.582 452.43C146.876 452.43 147.126 452.397 147.332 452.33C147.546 452.257 147.719 452.163 147.852 452.05C147.992 451.937 148.092 451.807 148.152 451.66C148.219 451.507 148.252 451.35 148.252 451.19C148.252 450.95 148.179 450.753 148.032 450.6C147.892 450.447 147.702 450.313 147.462 450.2C147.229 450.087 146.959 449.987 146.652 449.9C146.352 449.807 146.042 449.707 145.722 449.6C145.409 449.493 145.099 449.37 144.792 449.23C144.492 449.083 144.222 448.9 143.982 448.68C143.749 448.46 143.559 448.19 143.412 447.87C143.272 447.55 143.202 447.163 143.202 446.71C143.202 446.29 143.286 445.89 143.452 445.51C143.619 445.13 143.862 444.8 144.182 444.52C144.509 444.233 144.912 444.007 145.392 443.84C145.879 443.667 146.439 443.58 147.072 443.58C147.779 443.58 148.422 443.697 149.002 443.93C149.582 444.163 150.066 444.47 150.452 444.85L149.892 445.74ZM165.66 439.54V441.68H159.25V445.96H164.66V448.11H159.25V454H156.54V439.54H165.66ZM171.366 443.58C172.133 443.58 172.826 443.703 173.446 443.95C174.073 444.197 174.606 444.547 175.046 445C175.486 445.453 175.826 446.007 176.066 446.66C176.306 447.313 176.426 448.043 176.426 448.85C176.426 449.663 176.306 450.397 176.066 451.05C175.826 451.703 175.486 452.26 175.046 452.72C174.606 453.18 174.073 453.533 173.446 453.78C172.826 454.027 172.133 454.15 171.366 454.15C170.599 454.15 169.903 454.027 169.276 453.78C168.649 453.533 168.113 453.18 167.666 452.72C167.226 452.26 166.883 451.703 166.636 451.05C166.396 450.397 166.276 449.663 166.276 448.85C166.276 448.043 166.396 447.313 166.636 446.66C166.883 446.007 167.226 445.453 167.666 445C168.113 444.547 168.649 444.197 169.276 443.95C169.903 443.703 170.599 443.58 171.366 443.58ZM171.366 452.25C172.219 452.25 172.849 451.963 173.256 451.39C173.669 450.817 173.876 449.977 173.876 448.87C173.876 447.763 173.669 446.92 173.256 446.34C172.849 445.76 172.219 445.47 171.366 445.47C170.499 445.47 169.859 445.763 169.446 446.35C169.033 446.93 168.826 447.77 168.826 448.87C168.826 449.97 169.033 450.81 169.446 451.39C169.859 451.963 170.499 452.25 171.366 452.25ZM178.353 454V443.74H179.803C180.057 443.74 180.233 443.787 180.333 443.88C180.433 443.973 180.5 444.133 180.533 444.36L180.683 445.6C181.05 444.967 181.48 444.467 181.973 444.1C182.467 443.733 183.02 443.55 183.633 443.55C184.14 443.55 184.56 443.667 184.893 443.9L184.573 445.75C184.553 445.87 184.51 445.957 184.443 446.01C184.377 446.057 184.287 446.08 184.173 446.08C184.073 446.08 183.937 446.057 183.763 446.01C183.59 445.963 183.36 445.94 183.073 445.94C182.56 445.94 182.12 446.083 181.753 446.37C181.387 446.65 181.077 447.063 180.823 447.61V454H178.353ZM196.954 448.38V454H194.264V448.38L188.994 439.54H191.364C191.598 439.54 191.781 439.597 191.914 439.71C192.054 439.823 192.171 439.967 192.264 440.14L194.914 444.97C195.068 445.257 195.201 445.53 195.314 445.79C195.428 446.043 195.531 446.293 195.624 446.54C195.711 446.287 195.808 446.033 195.914 445.78C196.028 445.52 196.161 445.25 196.314 444.97L198.944 440.14C199.018 439.993 199.128 439.857 199.274 439.73C199.421 439.603 199.608 439.54 199.834 439.54H202.214L196.954 448.38ZM206.249 443.58C207.015 443.58 207.709 443.703 208.329 443.95C208.955 444.197 209.489 444.547 209.929 445C210.369 445.453 210.709 446.007 210.949 446.66C211.189 447.313 211.309 448.043 211.309 448.85C211.309 449.663 211.189 450.397 210.949 451.05C210.709 451.703 210.369 452.26 209.929 452.72C209.489 453.18 208.955 453.533 208.329 453.78C207.709 454.027 207.015 454.15 206.249 454.15C205.482 454.15 204.785 454.027 204.159 453.78C203.532 453.533 202.995 453.18 202.549 452.72C202.109 452.26 201.765 451.703 201.519 451.05C201.279 450.397 201.159 449.663 201.159 448.85C201.159 448.043 201.279 447.313 201.519 446.66C201.765 446.007 202.109 445.453 202.549 445C202.995 444.547 203.532 444.197 204.159 443.95C204.785 443.703 205.482 443.58 206.249 443.58ZM206.249 452.25C207.102 452.25 207.732 451.963 208.139 451.39C208.552 450.817 208.759 449.977 208.759 448.87C208.759 447.763 208.552 446.92 208.139 446.34C207.732 445.76 207.102 445.47 206.249 445.47C205.382 445.47 204.742 445.763 204.329 446.35C203.915 446.93 203.709 447.77 203.709 448.87C203.709 449.97 203.915 450.81 204.329 451.39C204.742 451.963 205.382 452.25 206.249 452.25ZM215.496 443.74V450.26C215.496 450.887 215.639 451.373 215.926 451.72C216.219 452.06 216.656 452.23 217.236 452.23C217.663 452.23 218.063 452.137 218.436 451.95C218.809 451.757 219.163 451.493 219.496 451.16V443.74H221.966V454H220.456C220.136 454 219.926 453.85 219.826 453.55L219.656 452.73C219.443 452.943 219.223 453.14 218.996 453.32C218.769 453.493 218.526 453.643 218.266 453.77C218.013 453.89 217.736 453.983 217.436 454.05C217.143 454.123 216.826 454.16 216.486 454.16C215.926 454.16 215.429 454.067 214.996 453.88C214.569 453.687 214.209 453.417 213.916 453.07C213.623 452.723 213.399 452.313 213.246 451.84C213.099 451.36 213.026 450.833 213.026 450.26V443.74H215.496ZM224.603 454V443.74H226.053C226.307 443.74 226.483 443.787 226.583 443.88C226.683 443.973 226.75 444.133 226.783 444.36L226.933 445.6C227.3 444.967 227.73 444.467 228.223 444.1C228.717 443.733 229.27 443.55 229.883 443.55C230.39 443.55 230.81 443.667 231.143 443.9L230.823 445.75C230.803 445.87 230.76 445.957 230.693 446.01C230.627 446.057 230.537 446.08 230.423 446.08C230.323 446.08 230.187 446.057 230.013 446.01C229.84 445.963 229.61 445.94 229.323 445.94C228.81 445.94 228.37 446.083 228.003 446.37C227.637 446.65 227.327 447.063 227.073 447.61V454H224.603ZM239.554 448.91V454H236.864V439.54H241.574C242.541 439.54 243.378 439.653 244.084 439.88C244.791 440.107 245.374 440.423 245.834 440.83C246.294 441.237 246.634 441.723 246.854 442.29C247.074 442.857 247.184 443.477 247.184 444.15C247.184 444.85 247.068 445.493 246.834 446.08C246.601 446.66 246.251 447.16 245.784 447.58C245.318 448 244.734 448.327 244.034 448.56C243.334 448.793 242.514 448.91 241.574 448.91H239.554ZM239.554 446.81H241.574C242.068 446.81 242.498 446.75 242.864 446.63C243.231 446.503 243.534 446.327 243.774 446.1C244.014 445.867 244.194 445.587 244.314 445.26C244.434 444.927 244.494 444.557 244.494 444.15C244.494 443.763 244.434 443.413 244.314 443.1C244.194 442.787 244.014 442.52 243.774 442.3C243.534 442.08 243.231 441.913 242.864 441.8C242.498 441.68 242.068 441.62 241.574 441.62H239.554V446.81ZM249.134 454V439.14H251.604V444.85C252.004 444.47 252.444 444.163 252.924 443.93C253.404 443.697 253.968 443.58 254.614 443.58C255.174 443.58 255.671 443.677 256.104 443.87C256.538 444.057 256.898 444.323 257.184 444.67C257.478 445.01 257.698 445.42 257.844 445.9C257.998 446.373 258.074 446.897 258.074 447.47V454H255.604V447.47C255.604 446.843 255.458 446.36 255.164 446.02C254.878 445.673 254.444 445.5 253.864 445.5C253.438 445.5 253.038 445.597 252.664 445.79C252.291 445.983 251.938 446.247 251.604 446.58V454H249.134ZM264.882 443.58C265.648 443.58 266.342 443.703 266.962 443.95C267.588 444.197 268.122 444.547 268.562 445C269.002 445.453 269.342 446.007 269.582 446.66C269.822 447.313 269.942 448.043 269.942 448.85C269.942 449.663 269.822 450.397 269.582 451.05C269.342 451.703 269.002 452.26 268.562 452.72C268.122 453.18 267.588 453.533 266.962 453.78C266.342 454.027 265.648 454.15 264.882 454.15C264.115 454.15 263.418 454.027 262.792 453.78C262.165 453.533 261.628 453.18 261.182 452.72C260.742 452.26 260.398 451.703 260.152 451.05C259.912 450.397 259.792 449.663 259.792 448.85C259.792 448.043 259.912 447.313 260.152 446.66C260.398 446.007 260.742 445.453 261.182 445C261.628 444.547 262.165 444.197 262.792 443.95C263.418 443.703 264.115 443.58 264.882 443.58ZM264.882 452.25C265.735 452.25 266.365 451.963 266.772 451.39C267.185 450.817 267.392 449.977 267.392 448.87C267.392 447.763 267.185 446.92 266.772 446.34C266.365 445.76 265.735 445.47 264.882 445.47C264.015 445.47 263.375 445.763 262.962 446.35C262.548 446.93 262.342 447.77 262.342 448.87C262.342 449.97 262.548 450.81 262.962 451.39C263.375 451.963 264.015 452.25 264.882 452.25ZM275.239 454.16C274.352 454.16 273.669 453.91 273.189 453.41C272.709 452.903 272.469 452.207 272.469 451.32V445.59H271.429C271.295 445.59 271.179 445.547 271.079 445.46C270.985 445.373 270.939 445.243 270.939 445.07V444.09L272.589 443.82L273.109 441.02C273.135 440.887 273.195 440.783 273.289 440.71C273.389 440.637 273.512 440.6 273.659 440.6H274.939V443.83H277.639V445.59H274.939V451.15C274.939 451.47 275.019 451.72 275.179 451.9C275.339 452.08 275.552 452.17 275.819 452.17C275.972 452.17 276.099 452.153 276.199 452.12C276.305 452.08 276.395 452.04 276.469 452C276.549 451.96 276.619 451.923 276.679 451.89C276.739 451.85 276.799 451.83 276.859 451.83C276.932 451.83 276.992 451.85 277.039 451.89C277.085 451.923 277.135 451.977 277.189 452.05L277.929 453.25C277.569 453.55 277.155 453.777 276.689 453.93C276.222 454.083 275.739 454.16 275.239 454.16ZM283.983 443.58C284.75 443.58 285.443 443.703 286.063 443.95C286.69 444.197 287.223 444.547 287.663 445C288.103 445.453 288.443 446.007 288.683 446.66C288.923 447.313 289.043 448.043 289.043 448.85C289.043 449.663 288.923 450.397 288.683 451.05C288.443 451.703 288.103 452.26 287.663 452.72C287.223 453.18 286.69 453.533 286.063 453.78C285.443 454.027 284.75 454.15 283.983 454.15C283.217 454.15 282.52 454.027 281.893 453.78C281.267 453.533 280.73 453.18 280.283 452.72C279.843 452.26 279.5 451.703 279.253 451.05C279.013 450.397 278.893 449.663 278.893 448.85C278.893 448.043 279.013 447.313 279.253 446.66C279.5 446.007 279.843 445.453 280.283 445C280.73 444.547 281.267 444.197 281.893 443.95C282.52 443.703 283.217 443.58 283.983 443.58ZM283.983 452.25C284.837 452.25 285.467 451.963 285.873 451.39C286.287 450.817 286.493 449.977 286.493 448.87C286.493 447.763 286.287 446.92 285.873 446.34C285.467 445.76 284.837 445.47 283.983 445.47C283.117 445.47 282.477 445.763 282.063 446.35C281.65 446.93 281.443 447.77 281.443 448.87C281.443 449.97 281.65 450.81 282.063 451.39C282.477 451.963 283.117 452.25 283.983 452.25Z" fill="#111111"/>
<g clip-path="url(#clip1_218_40716)">
<path d="M218 384L211.208 376.459L212.271 366.363L202.339 364.26L197.273 355.459L188 359.603L178.727 355.459L173.661 364.26L163.729 366.363L164.792 376.459L158 384L164.792 391.541L163.729 401.637L173.661 403.74L178.727 412.541L188 408.396L197.273 412.541L202.339 403.74L212.271 401.637L211.208 391.541L218 384ZM200.577 377.431L185.518 394.302L175.054 383.838L177.543 381.349L185.373 389.179L197.951 375.087L200.577 377.431Z" fill="#36D000"/>
</g>
<g opacity="0.7">
<path d="M91.5 0.00357724H291.5C291.5 0.00357724 289 -0.516816 288.773 10.9956C288.545 22.9868 283.075 27.9832 276.045 27.9832H106.955C99.9255 27.9832 94.4545 22.9868 94.2273 10.9956C94 -0.516815 91.5 0.00357724 91.5 0.00357724Z" fill="#F0F0F0"/>
<g opacity="0.1">
<path fill-rule="evenodd" clip-rule="evenodd" d="M336.47 13H349.833C350.4 13 350.943 13.2251 351.344 13.6259C351.745 14.0267 351.97 14.5702 351.97 15.137V19.946C351.97 20.5128 351.745 21.0563 351.344 21.4571C350.943 21.8579 350.4 22.083 349.833 22.083H336.47C335.903 22.083 335.36 21.8579 334.959 21.4571C334.558 21.0563 334.333 20.5128 334.333 19.946V15.137C334.333 14.5702 334.558 14.0267 334.959 13.6259C335.36 13.2251 335.903 13 336.47 13Z" fill="black"/>
</g>
<path d="M353 16V19C353.296 18.8759 353.549 18.6677 353.727 18.4014C353.904 18.1351 354 17.8226 354 17.5028C354.001 17.1821 353.906 16.8683 353.728 16.6009C353.55 16.3336 353.297 16.1245 353 16" fill="#111111"/>
<path d="M337.005 14.603H349.295C349.579 14.603 349.85 14.7157 350.051 14.9161C350.251 15.1166 350.364 15.3885 350.364 15.672V19.412C350.364 19.6955 350.251 19.9674 350.051 20.1679C349.85 20.3684 349.579 20.481 349.295 20.481H337.005C336.722 20.481 336.45 20.3684 336.249 20.1679C336.049 19.9674 335.936 19.6955 335.936 19.412V15.67C335.937 15.3869 336.049 15.1155 336.25 14.9154C336.45 14.7154 336.722 14.603 337.005 14.603V14.603Z" fill="#111111"/>
<path d="M323.774 14.8221C325.55 14.8221 327.258 15.5045 328.545 16.7281C328.592 16.7737 328.654 16.7993 328.719 16.7993C328.784 16.7993 328.846 16.7737 328.892 16.7281L329.819 15.7931C329.843 15.769 329.862 15.7404 329.875 15.709C329.888 15.6776 329.894 15.644 329.894 15.6101C329.894 15.5761 329.887 15.5426 329.874 15.5114C329.861 15.4802 329.841 15.4518 329.817 15.4281C328.191 13.8699 326.026 13 323.774 13C321.522 13 319.357 13.8699 317.731 15.4281C317.707 15.4518 317.688 15.4802 317.675 15.5114C317.661 15.5426 317.655 15.5761 317.654 15.6101C317.654 15.644 317.661 15.6776 317.674 15.709C317.686 15.7404 317.705 15.769 317.729 15.7931L318.656 16.7281C318.703 16.7737 318.765 16.7993 318.83 16.7993C318.895 16.7993 318.957 16.7737 319.003 16.7281C320.291 15.5042 321.999 14.8219 323.775 14.8221H323.774ZM323.774 17.8641C324.75 17.8641 325.691 18.227 326.414 18.8821C326.461 18.9272 326.523 18.9525 326.588 18.9525C326.653 18.9525 326.715 18.9272 326.761 18.8821L327.686 17.9471C327.71 17.9227 327.73 17.8939 327.742 17.8621C327.755 17.8303 327.762 17.7963 327.761 17.7621C327.761 17.7278 327.754 17.694 327.74 17.6626C327.727 17.6312 327.707 17.6028 327.682 17.5791C326.621 16.5915 325.224 16.0425 323.774 16.0425C322.324 16.0425 320.928 16.5915 319.866 17.5791C319.842 17.6028 319.822 17.6312 319.808 17.6626C319.795 17.694 319.788 17.7278 319.787 17.7621C319.787 17.7963 319.793 17.8303 319.806 17.8621C319.819 17.8939 319.838 17.9227 319.862 17.9471L320.787 18.8821C320.834 18.9272 320.896 18.9525 320.961 18.9525C321.026 18.9525 321.088 18.9272 321.134 18.8821C321.857 18.2274 322.797 17.8646 323.772 17.8641H323.774ZM325.553 20.0961C325.578 20.072 325.597 20.0432 325.61 20.0113C325.623 19.9795 325.629 19.9454 325.628 19.9111C325.628 19.8767 325.62 19.8428 325.606 19.8115C325.591 19.7802 325.571 19.7521 325.545 19.7291C325.05 19.3102 324.423 19.0804 323.774 19.0804C323.126 19.0804 322.498 19.3102 322.003 19.7291C321.978 19.752 321.957 19.7798 321.943 19.811C321.929 19.8421 321.921 19.8758 321.92 19.9101C321.919 19.9444 321.926 19.9785 321.939 20.0103C321.952 20.0422 321.971 20.071 321.995 20.0951L323.595 21.7111C323.619 21.7346 323.646 21.7532 323.677 21.7659C323.707 21.7786 323.74 21.7851 323.773 21.7851C323.806 21.7851 323.839 21.7786 323.87 21.7659C323.9 21.7532 323.928 21.7346 323.951 21.7111L325.553 20.0961Z" fill="#111111"/>
<path d="M22.294 18.472C21.97 18.472 21.662 18.418 21.37 18.31C21.082 18.202 20.828 18.044 20.608 17.836C20.388 17.624 20.212 17.366 20.08 17.062C19.952 16.754 19.888 16.402 19.888 16.006C19.888 15.63 19.958 15.278 20.098 14.95C20.238 14.622 20.434 14.336 20.686 14.092C20.938 13.848 21.238 13.656 21.586 13.516C21.934 13.376 22.316 13.306 22.732 13.306C23.144 13.306 23.518 13.374 23.854 13.51C24.19 13.646 24.478 13.836 24.718 14.08C24.958 14.324 25.142 14.616 25.27 14.956C25.402 15.296 25.468 15.672 25.468 16.084C25.468 16.332 25.444 16.568 25.396 16.792C25.352 17.012 25.286 17.228 25.198 17.44C25.11 17.652 25.004 17.864 24.88 18.076C24.76 18.284 24.622 18.5 24.466 18.724L22.372 21.748C22.32 21.824 22.246 21.886 22.15 21.934C22.054 21.978 21.944 22 21.82 22H20.836L23.452 18.574C23.54 18.458 23.622 18.348 23.698 18.244C23.774 18.14 23.846 18.036 23.914 17.932C23.694 18.108 23.446 18.242 23.17 18.334C22.894 18.426 22.602 18.472 22.294 18.472ZM24.442 15.958C24.442 15.69 24.398 15.448 24.31 15.232C24.226 15.012 24.108 14.826 23.956 14.674C23.804 14.522 23.622 14.406 23.41 14.326C23.202 14.242 22.972 14.2 22.72 14.2C22.456 14.2 22.214 14.244 21.994 14.332C21.778 14.416 21.592 14.534 21.436 14.686C21.284 14.838 21.166 15.02 21.082 15.232C20.998 15.444 20.956 15.676 20.956 15.928C20.956 16.2 20.994 16.444 21.07 16.66C21.15 16.872 21.262 17.052 21.406 17.2C21.554 17.348 21.732 17.46 21.94 17.536C22.152 17.612 22.388 17.65 22.648 17.65C22.936 17.65 23.19 17.604 23.41 17.512C23.634 17.416 23.822 17.29 23.974 17.134C24.126 16.978 24.242 16.798 24.322 16.594C24.402 16.39 24.442 16.178 24.442 15.958ZM26.7289 21.34C26.7289 21.236 26.7469 21.138 26.7829 21.046C26.8229 20.954 26.8749 20.874 26.9389 20.806C27.0069 20.738 27.0869 20.684 27.1789 20.644C27.2709 20.604 27.3689 20.584 27.4729 20.584C27.5769 20.584 27.6749 20.604 27.7669 20.644C27.8589 20.684 27.9389 20.738 28.0069 20.806C28.0749 20.874 28.1269 20.954 28.1629 21.046C28.2029 21.138 28.2229 21.236 28.2229 21.34C28.2229 21.448 28.2029 21.548 28.1629 21.64C28.1269 21.728 28.0749 21.806 28.0069 21.874C27.9389 21.942 27.8589 21.994 27.7669 22.03C27.6749 22.07 27.5769 22.09 27.4729 22.09C27.3689 22.09 27.2709 22.07 27.1789 22.03C27.0869 21.994 27.0069 21.942 26.9389 21.874C26.8749 21.806 26.8229 21.728 26.7829 21.64C26.7469 21.548 26.7289 21.448 26.7289 21.34ZM26.7289 16.84C26.7289 16.736 26.7469 16.638 26.7829 16.546C26.8229 16.454 26.8749 16.374 26.9389 16.306C27.0069 16.238 27.0869 16.184 27.1789 16.144C27.2709 16.104 27.3689 16.084 27.4729 16.084C27.5769 16.084 27.6749 16.104 27.7669 16.144C27.8589 16.184 27.9389 16.238 28.0069 16.306C28.0749 16.374 28.1269 16.454 28.1629 16.546C28.2029 16.638 28.2229 16.736 28.2229 16.84C28.2229 16.948 28.2029 17.048 28.1629 17.14C28.1269 17.228 28.0749 17.306 28.0069 17.374C27.9389 17.442 27.8589 17.496 27.7669 17.536C27.6749 17.572 27.5769 17.59 27.4729 17.59C27.3689 17.59 27.2709 17.572 27.1789 17.536C27.0869 17.496 27.0069 17.442 26.9389 17.374C26.8749 17.306 26.8229 17.228 26.7829 17.14C26.7469 17.048 26.7289 16.948 26.7289 16.84ZM34.4024 18.898H35.7044V19.51C35.7044 19.574 35.6844 19.628 35.6444 19.672C35.6084 19.716 35.5504 19.738 35.4704 19.738H34.4024V22H33.4604V19.738H29.6504C29.5704 19.738 29.5004 19.716 29.4404 19.672C29.3844 19.624 29.3484 19.566 29.3324 19.498L29.2244 18.952L33.4064 13.402H34.4024V18.898ZM33.4604 15.352C33.4604 15.248 33.4624 15.136 33.4664 15.016C33.4744 14.896 33.4884 14.772 33.5084 14.644L30.3824 18.898H33.4604V15.352ZM37.6673 21.184H39.5153V15.322C39.5153 15.146 39.5213 14.968 39.5333 14.788L37.9973 16.102C37.9573 16.134 37.9173 16.158 37.8773 16.174C37.8373 16.186 37.7993 16.192 37.7633 16.192C37.7033 16.192 37.6493 16.18 37.6013 16.156C37.5533 16.128 37.5173 16.096 37.4933 16.06L37.1573 15.598L39.7133 13.384H40.5833V21.184H42.2753V22H37.6673V21.184Z" fill="#111111"/>
<path d="M300.8 18.34H301.6C301.812 18.34 302.016 18.4243 302.166 18.5743C302.316 18.7243 302.4 18.9278 302.4 19.14V20.74C302.4 20.9522 302.316 21.1557 302.166 21.3057C302.016 21.4557 301.812 21.54 301.6 21.54H300.8C300.588 21.54 300.384 21.4557 300.234 21.3057C300.084 21.1557 300 20.9522 300 20.74V19.14C300 18.9278 300.084 18.7243 300.234 18.5743C300.384 18.4243 300.588 18.34 300.8 18.34V18.34ZM304.54 16.74H305.34C305.552 16.74 305.756 16.8243 305.906 16.9743C306.056 17.1243 306.14 17.3278 306.14 17.54V20.746C306.14 20.8511 306.119 20.9551 306.079 21.0521C306.039 21.1492 305.98 21.2374 305.906 21.3117C305.831 21.386 305.743 21.4449 305.646 21.4851C305.549 21.5253 305.445 21.546 305.34 21.546H304.54C304.435 21.546 304.331 21.5253 304.234 21.4851C304.137 21.4449 304.049 21.386 303.974 21.3117C303.9 21.2374 303.841 21.1492 303.801 21.0521C303.761 20.9551 303.74 20.8511 303.74 20.746V17.54C303.74 17.4347 303.76 17.3303 303.8 17.2329C303.84 17.1355 303.899 17.047 303.973 16.9724C304.048 16.8978 304.136 16.8386 304.233 16.7982C304.33 16.7578 304.435 16.737 304.54 16.737V16.74ZM308.28 14.87H309.08C309.185 14.87 309.289 14.8907 309.386 14.9309C309.483 14.9711 309.571 15.03 309.646 15.1043C309.72 15.1786 309.779 15.2668 309.819 15.3639C309.859 15.4609 309.88 15.5649 309.88 15.67V20.746C309.88 20.8511 309.859 20.9551 309.819 21.0521C309.779 21.1492 309.72 21.2374 309.646 21.3117C309.571 21.386 309.483 21.4449 309.386 21.4851C309.289 21.5253 309.185 21.546 309.08 21.546H308.28C308.175 21.546 308.071 21.5253 307.974 21.4851C307.877 21.4449 307.789 21.386 307.714 21.3117C307.64 21.2374 307.581 21.1492 307.541 21.0521C307.501 20.9551 307.48 20.8511 307.48 20.746V15.67C307.48 15.5646 307.5 15.4602 307.54 15.3627C307.58 15.2652 307.639 15.1766 307.714 15.102C307.788 15.0274 307.876 14.9682 307.974 14.9279C308.071 14.8876 308.176 14.8669 308.281 14.867L308.28 14.87ZM312.02 13H312.82C313.032 13 313.236 13.0843 313.386 13.2343C313.536 13.3843 313.62 13.5878 313.62 13.8V20.746C313.62 20.9582 313.536 21.1617 313.386 21.3117C313.236 21.4617 313.032 21.546 312.82 21.546H312.02C311.915 21.546 311.811 21.5253 311.714 21.4851C311.617 21.4449 311.529 21.386 311.454 21.3117C311.38 21.2374 311.321 21.1492 311.281 21.0521C311.241 20.9551 311.22 20.8511 311.22 20.746V13.8C311.22 13.6949 311.241 13.5909 311.281 13.4939C311.321 13.3968 311.38 13.3086 311.454 13.2343C311.529 13.16 311.617 13.1011 311.714 13.0609C311.811 13.0207 311.915 13 312.02 13V13Z" fill="#111111"/>
</g>
<rect x="31" y="689" width="312" height="60" rx="30" fill="black"/>
<path d="M123.184 725.02C123.791 725.02 124.317 724.967 124.764 724.86C125.217 724.747 125.647 724.593 126.054 724.4V721.77H124.244C124.071 721.77 123.934 721.723 123.834 721.63C123.734 721.53 123.684 721.41 123.684 721.27V719.75H128.494V725.6C128.127 725.867 127.744 726.1 127.344 726.3C126.951 726.493 126.527 726.653 126.074 726.78C125.627 726.907 125.147 727 124.634 727.06C124.121 727.127 123.567 727.16 122.974 727.16C121.921 727.16 120.951 726.977 120.064 726.61C119.177 726.243 118.411 725.733 117.764 725.08C117.117 724.427 116.611 723.647 116.244 722.74C115.884 721.833 115.704 720.843 115.704 719.77C115.704 718.683 115.881 717.687 116.234 716.78C116.587 715.873 117.087 715.093 117.734 714.44C118.387 713.787 119.177 713.28 120.104 712.92C121.031 712.56 122.071 712.38 123.224 712.38C124.404 712.38 125.424 712.557 126.284 712.91C127.151 713.257 127.884 713.71 128.484 714.27L127.704 715.49C127.551 715.737 127.347 715.86 127.094 715.86C126.934 715.86 126.771 715.807 126.604 715.7C126.391 715.573 126.171 715.447 125.944 715.32C125.724 715.193 125.477 715.083 125.204 714.99C124.937 714.897 124.634 714.82 124.294 714.76C123.961 714.7 123.574 714.67 123.134 714.67C122.421 714.67 121.774 714.79 121.194 715.03C120.621 715.27 120.131 715.613 119.724 716.06C119.317 716.507 119.004 717.043 118.784 717.67C118.564 718.297 118.454 718.997 118.454 719.77C118.454 720.603 118.571 721.347 118.804 722C119.037 722.647 119.364 723.193 119.784 723.64C120.204 724.087 120.704 724.43 121.284 724.67C121.864 724.903 122.497 725.02 123.184 725.02ZM135.237 716.58C136.004 716.58 136.697 716.703 137.317 716.95C137.944 717.197 138.477 717.547 138.917 718C139.357 718.453 139.697 719.007 139.937 719.66C140.177 720.313 140.297 721.043 140.297 721.85C140.297 722.663 140.177 723.397 139.937 724.05C139.697 724.703 139.357 725.26 138.917 725.72C138.477 726.18 137.944 726.533 137.317 726.78C136.697 727.027 136.004 727.15 135.237 727.15C134.47 727.15 133.774 727.027 133.147 726.78C132.52 726.533 131.984 726.18 131.537 725.72C131.097 725.26 130.754 724.703 130.507 724.05C130.267 723.397 130.147 722.663 130.147 721.85C130.147 721.043 130.267 720.313 130.507 719.66C130.754 719.007 131.097 718.453 131.537 718C131.984 717.547 132.52 717.197 133.147 716.95C133.774 716.703 134.47 716.58 135.237 716.58ZM135.237 725.25C136.09 725.25 136.72 724.963 137.127 724.39C137.54 723.817 137.747 722.977 137.747 721.87C137.747 720.763 137.54 719.92 137.127 719.34C136.72 718.76 136.09 718.47 135.237 718.47C134.37 718.47 133.73 718.763 133.317 719.35C132.904 719.93 132.697 720.77 132.697 721.87C132.697 722.97 132.904 723.81 133.317 724.39C133.73 724.963 134.37 725.25 135.237 725.25ZM156.421 712.54V714.75H152.071V727H149.381V714.75H145.011V712.54H156.421ZM160.335 716.58C161.101 716.58 161.795 716.703 162.415 716.95C163.041 717.197 163.575 717.547 164.015 718C164.455 718.453 164.795 719.007 165.035 719.66C165.275 720.313 165.395 721.043 165.395 721.85C165.395 722.663 165.275 723.397 165.035 724.05C164.795 724.703 164.455 725.26 164.015 725.72C163.575 726.18 163.041 726.533 162.415 726.78C161.795 727.027 161.101 727.15 160.335 727.15C159.568 727.15 158.871 727.027 158.245 726.78C157.618 726.533 157.081 726.18 156.635 725.72C156.195 725.26 155.851 724.703 155.605 724.05C155.365 723.397 155.245 722.663 155.245 721.85C155.245 721.043 155.365 720.313 155.605 719.66C155.851 719.007 156.195 718.453 156.635 718C157.081 717.547 157.618 717.197 158.245 716.95C158.871 716.703 159.568 716.58 160.335 716.58ZM160.335 725.25C161.188 725.25 161.818 724.963 162.225 724.39C162.638 723.817 162.845 722.977 162.845 721.87C162.845 720.763 162.638 719.92 162.225 719.34C161.818 718.76 161.188 718.47 160.335 718.47C159.468 718.47 158.828 718.763 158.415 719.35C158.001 719.93 157.795 720.77 157.795 721.87C157.795 722.97 158.001 723.81 158.415 724.39C158.828 724.963 159.468 725.25 160.335 725.25ZM172.739 712.54C172.859 712.54 172.959 712.547 173.039 712.56C173.119 712.567 173.189 712.587 173.249 712.62C173.316 712.647 173.379 712.69 173.439 712.75C173.499 712.803 173.566 712.877 173.639 712.97L181.229 722.64C181.202 722.407 181.182 722.18 181.169 721.96C181.162 721.733 181.159 721.523 181.159 721.33V712.54H183.529V727H182.139C181.926 727 181.749 726.967 181.609 726.9C181.469 726.833 181.332 726.713 181.199 726.54L173.639 716.91C173.659 717.123 173.672 717.337 173.679 717.55C173.692 717.757 173.699 717.947 173.699 718.12V727H171.329V712.54H172.739ZM190.546 716.58C191.193 716.58 191.786 716.683 192.326 716.89C192.873 717.097 193.343 717.4 193.736 717.8C194.13 718.193 194.436 718.68 194.656 719.26C194.876 719.833 194.986 720.49 194.986 721.23C194.986 721.417 194.976 721.573 194.956 721.7C194.943 721.82 194.913 721.917 194.866 721.99C194.826 722.057 194.77 722.107 194.696 722.14C194.623 722.167 194.53 722.18 194.416 722.18H188.076C188.15 723.233 188.433 724.007 188.926 724.5C189.42 724.993 190.073 725.24 190.886 725.24C191.286 725.24 191.63 725.193 191.916 725.1C192.21 725.007 192.463 724.903 192.676 724.79C192.896 724.677 193.086 724.573 193.246 724.48C193.413 724.387 193.573 724.34 193.726 724.34C193.826 724.34 193.913 724.36 193.986 724.4C194.06 724.44 194.123 724.497 194.176 724.57L194.896 725.47C194.623 725.79 194.316 726.06 193.976 726.28C193.636 726.493 193.28 726.667 192.906 726.8C192.54 726.927 192.163 727.017 191.776 727.07C191.396 727.123 191.026 727.15 190.666 727.15C189.953 727.15 189.29 727.033 188.676 726.8C188.063 726.56 187.53 726.21 187.076 725.75C186.623 725.283 186.266 724.71 186.006 724.03C185.746 723.343 185.616 722.55 185.616 721.65C185.616 720.95 185.73 720.293 185.956 719.68C186.183 719.06 186.506 718.523 186.926 718.07C187.353 717.61 187.87 717.247 188.476 716.98C189.09 716.713 189.78 716.58 190.546 716.58ZM190.596 718.35C189.876 718.35 189.313 718.553 188.906 718.96C188.5 719.367 188.24 719.943 188.126 720.69H192.766C192.766 720.37 192.723 720.07 192.636 719.79C192.55 719.503 192.416 719.253 192.236 719.04C192.056 718.827 191.83 718.66 191.556 718.54C191.283 718.413 190.963 718.35 190.596 718.35ZM198.814 721.71L195.444 716.74H197.824C198.004 716.74 198.138 716.767 198.224 716.82C198.311 716.867 198.388 716.947 198.454 717.06L200.604 720.49C200.638 720.377 200.678 720.263 200.724 720.15C200.778 720.037 200.841 719.923 200.914 719.81L202.644 717.11C202.724 716.983 202.808 716.89 202.894 716.83C202.981 716.77 203.088 716.74 203.214 716.74H205.484L202.104 721.6L205.624 727H203.244C203.064 727 202.918 726.953 202.804 726.86C202.698 726.767 202.608 726.66 202.534 726.54L200.354 722.97C200.294 723.21 200.211 723.41 200.104 723.57L198.184 726.54C198.111 726.653 198.021 726.76 197.914 726.86C197.808 726.953 197.674 727 197.514 727H195.304L198.814 721.71ZM210.555 727.16C209.669 727.16 208.985 726.91 208.505 726.41C208.025 725.903 207.785 725.207 207.785 724.32V718.59H206.745C206.612 718.59 206.495 718.547 206.395 718.46C206.302 718.373 206.255 718.243 206.255 718.07V717.09L207.905 716.82L208.425 714.02C208.452 713.887 208.512 713.783 208.605 713.71C208.705 713.637 208.829 713.6 208.975 713.6H210.255V716.83H212.955V718.59H210.255V724.15C210.255 724.47 210.335 724.72 210.495 724.9C210.655 725.08 210.869 725.17 211.135 725.17C211.289 725.17 211.415 725.153 211.515 725.12C211.622 725.08 211.712 725.04 211.785 725C211.865 724.96 211.935 724.923 211.995 724.89C212.055 724.85 212.115 724.83 212.175 724.83C212.249 724.83 212.309 724.85 212.355 724.89C212.402 724.923 212.452 724.977 212.505 725.05L213.245 726.25C212.885 726.55 212.472 726.777 212.005 726.93C211.539 727.083 211.055 727.16 210.555 727.16ZM226.677 715.17C226.603 715.317 226.517 715.42 226.417 715.48C226.323 715.54 226.21 715.57 226.077 715.57C225.943 715.57 225.793 715.52 225.627 715.42C225.46 715.313 225.263 715.197 225.037 715.07C224.81 714.943 224.543 714.83 224.237 714.73C223.937 714.623 223.58 714.57 223.167 714.57C222.793 714.57 222.467 714.617 222.187 714.71C221.913 714.797 221.68 714.92 221.487 715.08C221.3 715.24 221.16 715.433 221.067 715.66C220.973 715.88 220.927 716.123 220.927 716.39C220.927 716.73 221.02 717.013 221.207 717.24C221.4 717.467 221.653 717.66 221.967 717.82C222.28 717.98 222.637 718.123 223.037 718.25C223.437 718.377 223.843 718.513 224.257 718.66C224.677 718.8 225.087 718.967 225.487 719.16C225.887 719.347 226.243 719.587 226.557 719.88C226.87 720.167 227.12 720.52 227.307 720.94C227.5 721.36 227.597 721.87 227.597 722.47C227.597 723.123 227.483 723.737 227.257 724.31C227.037 724.877 226.71 725.373 226.277 725.8C225.85 726.22 225.327 726.553 224.707 726.8C224.087 727.04 223.377 727.16 222.577 727.16C222.117 727.16 221.663 727.113 221.217 727.02C220.77 726.933 220.34 726.807 219.927 726.64C219.52 726.473 219.137 726.273 218.777 726.04C218.423 725.807 218.107 725.547 217.827 725.26L218.607 723.97C218.68 723.877 218.767 723.8 218.867 723.74C218.973 723.673 219.09 723.64 219.217 723.64C219.383 723.64 219.563 723.71 219.757 723.85C219.95 723.983 220.177 724.133 220.437 724.3C220.703 724.467 221.013 724.62 221.367 724.76C221.727 724.893 222.157 724.96 222.657 724.96C223.423 724.96 224.017 724.78 224.437 724.42C224.857 724.053 225.067 723.53 225.067 722.85C225.067 722.47 224.97 722.16 224.777 721.92C224.59 721.68 224.34 721.48 224.027 721.32C223.713 721.153 223.357 721.013 222.957 720.9C222.557 720.787 222.15 720.663 221.737 720.53C221.323 720.397 220.917 720.237 220.517 720.05C220.117 719.863 219.76 719.62 219.447 719.32C219.133 719.02 218.88 718.647 218.687 718.2C218.5 717.747 218.407 717.19 218.407 716.53C218.407 716.003 218.51 715.49 218.717 714.99C218.93 714.49 219.237 714.047 219.637 713.66C220.043 713.273 220.54 712.963 221.127 712.73C221.713 712.497 222.383 712.38 223.137 712.38C223.99 712.38 224.777 712.513 225.497 712.78C226.217 713.047 226.83 713.42 227.337 713.9L226.677 715.17ZM232.879 727.16C231.993 727.16 231.309 726.91 230.829 726.41C230.349 725.903 230.109 725.207 230.109 724.32V718.59H229.069C228.936 718.59 228.819 718.547 228.719 718.46C228.626 718.373 228.579 718.243 228.579 718.07V717.09L230.229 716.82L230.749 714.02C230.776 713.887 230.836 713.783 230.929 713.71C231.029 713.637 231.153 713.6 231.299 713.6H232.579V716.83H235.279V718.59H232.579V724.15C232.579 724.47 232.659 724.72 232.819 724.9C232.979 725.08 233.193 725.17 233.459 725.17C233.613 725.17 233.739 725.153 233.839 725.12C233.946 725.08 234.036 725.04 234.109 725C234.189 724.96 234.259 724.923 234.319 724.89C234.379 724.85 234.439 724.83 234.499 724.83C234.573 724.83 234.633 724.85 234.679 724.89C234.726 724.923 234.776 724.977 234.829 725.05L235.569 726.25C235.209 726.55 234.796 726.777 234.329 726.93C233.863 727.083 233.379 727.16 232.879 727.16ZM241.484 716.58C242.13 716.58 242.724 716.683 243.264 716.89C243.81 717.097 244.28 717.4 244.674 717.8C245.067 718.193 245.374 718.68 245.594 719.26C245.814 719.833 245.924 720.49 245.924 721.23C245.924 721.417 245.914 721.573 245.894 721.7C245.88 721.82 245.85 721.917 245.804 721.99C245.764 722.057 245.707 722.107 245.634 722.14C245.56 722.167 245.467 722.18 245.354 722.18H239.014C239.087 723.233 239.37 724.007 239.864 724.5C240.357 724.993 241.01 725.24 241.824 725.24C242.224 725.24 242.567 725.193 242.854 725.1C243.147 725.007 243.4 724.903 243.614 724.79C243.834 724.677 244.024 724.573 244.184 724.48C244.35 724.387 244.51 724.34 244.664 724.34C244.764 724.34 244.85 724.36 244.924 724.4C244.997 724.44 245.06 724.497 245.114 724.57L245.834 725.47C245.56 725.79 245.254 726.06 244.914 726.28C244.574 726.493 244.217 726.667 243.844 726.8C243.477 726.927 243.1 727.017 242.714 727.07C242.334 727.123 241.964 727.15 241.604 727.15C240.89 727.15 240.227 727.033 239.614 726.8C239 726.56 238.467 726.21 238.014 725.75C237.56 725.283 237.204 724.71 236.944 724.03C236.684 723.343 236.554 722.55 236.554 721.65C236.554 720.95 236.667 720.293 236.894 719.68C237.12 719.06 237.444 718.523 237.864 718.07C238.29 717.61 238.807 717.247 239.414 716.98C240.027 716.713 240.717 716.58 241.484 716.58ZM241.534 718.35C240.814 718.35 240.25 718.553 239.844 718.96C239.437 719.367 239.177 719.943 239.064 720.69H243.704C243.704 720.37 243.66 720.07 243.574 719.79C243.487 719.503 243.354 719.253 243.174 719.04C242.994 718.827 242.767 718.66 242.494 718.54C242.22 718.413 241.9 718.35 241.534 718.35ZM247.927 730.35V716.74H249.437C249.597 716.74 249.734 716.777 249.847 716.85C249.961 716.923 250.034 717.037 250.067 717.19L250.267 718.14C250.681 717.667 251.154 717.283 251.687 716.99C252.227 716.697 252.857 716.55 253.577 716.55C254.137 716.55 254.647 716.667 255.107 716.9C255.574 717.133 255.974 717.473 256.307 717.92C256.647 718.36 256.907 718.907 257.087 719.56C257.274 720.207 257.367 720.95 257.367 721.79C257.367 722.557 257.264 723.267 257.057 723.92C256.851 724.573 256.554 725.14 256.167 725.62C255.787 726.1 255.324 726.477 254.777 726.75C254.237 727.017 253.631 727.15 252.957 727.15C252.377 727.15 251.884 727.063 251.477 726.89C251.077 726.71 250.717 726.463 250.397 726.15V730.35H247.927ZM252.727 718.5C252.214 718.5 251.774 718.61 251.407 718.83C251.047 719.043 250.711 719.347 250.397 719.74V724.34C250.677 724.687 250.981 724.93 251.307 725.07C251.641 725.203 251.997 725.27 252.377 725.27C252.751 725.27 253.087 725.2 253.387 725.06C253.694 724.92 253.951 724.707 254.157 724.42C254.371 724.133 254.534 723.773 254.647 723.34C254.761 722.9 254.817 722.383 254.817 721.79C254.817 721.19 254.767 720.683 254.667 720.27C254.574 719.85 254.437 719.51 254.257 719.25C254.077 718.99 253.857 718.8 253.597 718.68C253.344 718.56 253.054 718.5 252.727 718.5Z" fill="white"/>
<circle opacity="0.1" cx="310.5" cy="719.5" r="22.5" fill="white"/>
<path d="M311.793 713.179C311.527 712.932 311.104 712.942 310.851 713.202C310.597 713.462 310.607 713.873 310.874 714.121L315.988 718.85H302.667C302.299 718.85 302 719.141 302 719.5C302 719.859 302.299 720.15 302.667 720.15H315.966L310.874 724.879C310.607 725.127 310.597 725.538 310.851 725.798C310.982 725.932 311.157 726 311.333 726C311.499 726 311.664 725.941 311.793 725.821L317.609 720.419C317.861 720.174 318 719.847 318 719.5C318 719.152 317.861 718.826 317.598 718.57L311.793 713.179Z" fill="white"/>
</g>
<defs>
<clipPath id="clip0_218_40716">
<rect width="375" height="812" fill="white"/>
</clipPath>
<clipPath id="clip1_218_40716">
<rect width="60" height="60" fill="white" transform="translate(158 354)"/>
</clipPath>
</defs>
</svg>
