<svg width="375" height="812" viewBox="0 0 375 812" fill="none" xmlns="http://www.w3.org/2000/svg">
<g clip-path="url(#clip0_218_40555)">
<rect width="375" height="812" fill="white"/>
<path d="M375 811.948V190.948C371.004 195.596 345.293 207.005 333.795 212.688C329.948 215.077 292.551 226.614 273.476 231.525C259.818 235.507 243.924 236.506 237.684 236.508C229.064 235.983 216.597 236.289 211.441 236.508C182.765 236.256 149.416 265.641 136.325 280.366C85.6237 324.531 24.3161 318.497 0 309.96V811.948H375Z" fill="#FEFFEE"/>
<rect x="140" y="793.105" width="95.674" height="6.30817" rx="3.15409" fill="#E7E7E7"/>
<path d="M84.9527 421.54V423.75H80.6027V436H77.9127V423.75H73.5427V421.54H84.9527ZM86.5173 436V421.14H88.9873V426.85C89.3873 426.47 89.8273 426.163 90.3073 425.93C90.7873 425.697 91.3506 425.58 91.9973 425.58C92.5573 425.58 93.0539 425.677 93.4873 425.87C93.9206 426.057 94.2806 426.323 94.5673 426.67C94.8606 427.01 95.0806 427.42 95.2273 427.9C95.3806 428.373 95.4573 428.897 95.4573 429.47V436H92.9873V429.47C92.9873 428.843 92.8406 428.36 92.5473 428.02C92.2606 427.673 91.8273 427.5 91.2473 427.5C90.8206 427.5 90.4206 427.597 90.0473 427.79C89.6739 427.983 89.3206 428.247 88.9873 428.58V436H86.5173ZM105.924 436H104.814C104.581 436 104.398 435.967 104.264 435.9C104.131 435.827 104.031 435.683 103.964 435.47L103.744 434.74C103.484 434.973 103.228 435.18 102.974 435.36C102.728 435.533 102.471 435.68 102.204 435.8C101.938 435.92 101.654 436.01 101.354 436.07C101.054 436.13 100.721 436.16 100.354 436.16C99.9211 436.16 99.5211 436.103 99.1545 435.99C98.7878 435.87 98.4711 435.693 98.2045 435.46C97.9445 435.227 97.7411 434.937 97.5945 434.59C97.4478 434.243 97.3745 433.84 97.3745 433.38C97.3745 432.993 97.4745 432.613 97.6745 432.24C97.8811 431.86 98.2211 431.52 98.6945 431.22C99.1678 430.913 99.7978 430.66 100.584 430.46C101.371 430.26 102.348 430.147 103.514 430.12V429.52C103.514 428.833 103.368 428.327 103.074 428C102.788 427.667 102.368 427.5 101.814 427.5C101.414 427.5 101.081 427.547 100.814 427.64C100.548 427.733 100.314 427.84 100.114 427.96C99.9211 428.073 99.7411 428.177 99.5745 428.27C99.4078 428.363 99.2245 428.41 99.0245 428.41C98.8578 428.41 98.7145 428.367 98.5945 428.28C98.4745 428.193 98.3778 428.087 98.3045 427.96L97.8545 427.17C99.0345 426.09 100.458 425.55 102.124 425.55C102.724 425.55 103.258 425.65 103.724 425.85C104.198 426.043 104.598 426.317 104.924 426.67C105.251 427.017 105.498 427.433 105.664 427.92C105.838 428.407 105.924 428.94 105.924 429.52V436ZM101.124 434.46C101.378 434.46 101.611 434.437 101.824 434.39C102.038 434.343 102.238 434.273 102.424 434.18C102.618 434.087 102.801 433.973 102.974 433.84C103.154 433.7 103.334 433.537 103.514 433.35V431.62C102.794 431.653 102.191 431.717 101.704 431.81C101.224 431.897 100.838 432.01 100.544 432.15C100.251 432.29 100.041 432.453 99.9145 432.64C99.7945 432.827 99.7345 433.03 99.7345 433.25C99.7345 433.683 99.8611 433.993 100.114 434.18C100.374 434.367 100.711 434.46 101.124 434.46ZM108.353 436V425.74H109.863C110.183 425.74 110.393 425.89 110.493 426.19L110.663 427C110.87 426.787 111.087 426.593 111.313 426.42C111.547 426.247 111.79 426.097 112.043 425.97C112.303 425.843 112.58 425.747 112.873 425.68C113.167 425.613 113.487 425.58 113.833 425.58C114.393 425.58 114.89 425.677 115.323 425.87C115.757 426.057 116.117 426.323 116.403 426.67C116.697 427.01 116.917 427.42 117.063 427.9C117.217 428.373 117.293 428.897 117.293 429.47V436H114.823V429.47C114.823 428.843 114.677 428.36 114.383 428.02C114.097 427.673 113.663 427.5 113.083 427.5C112.657 427.5 112.257 427.597 111.883 427.79C111.51 427.983 111.157 428.247 110.823 428.58V436H108.353ZM122.22 421.14V429.65H122.68C122.847 429.65 122.977 429.627 123.07 429.58C123.164 429.533 123.264 429.447 123.37 429.32L125.92 426.17C126.034 426.037 126.154 425.933 126.28 425.86C126.407 425.78 126.574 425.74 126.78 425.74H129.04L125.85 429.55C125.737 429.69 125.62 429.82 125.5 429.94C125.38 430.053 125.25 430.153 125.11 430.24C125.25 430.34 125.374 430.457 125.48 430.59C125.587 430.723 125.694 430.867 125.8 431.02L129.22 436H126.99C126.797 436 126.634 435.967 126.5 435.9C126.367 435.833 126.247 435.72 126.14 435.56L123.53 431.67C123.43 431.517 123.33 431.417 123.23 431.37C123.13 431.323 122.98 431.3 122.78 431.3H122.22V436H119.75V421.14H122.22ZM136.846 427.74C136.779 427.847 136.709 427.923 136.636 427.97C136.562 428.01 136.469 428.03 136.356 428.03C136.236 428.03 136.106 427.997 135.966 427.93C135.832 427.863 135.676 427.79 135.496 427.71C135.316 427.623 135.109 427.547 134.876 427.48C134.649 427.413 134.379 427.38 134.066 427.38C133.579 427.38 133.196 427.483 132.916 427.69C132.636 427.897 132.496 428.167 132.496 428.5C132.496 428.72 132.566 428.907 132.706 429.06C132.852 429.207 133.042 429.337 133.276 429.45C133.516 429.563 133.786 429.667 134.086 429.76C134.386 429.847 134.692 429.943 135.006 430.05C135.319 430.157 135.626 430.28 135.926 430.42C136.226 430.553 136.492 430.727 136.726 430.94C136.966 431.147 137.156 431.397 137.296 431.69C137.442 431.983 137.516 432.337 137.516 432.75C137.516 433.243 137.426 433.7 137.246 434.12C137.066 434.533 136.802 434.893 136.456 435.2C136.109 435.5 135.679 435.737 135.166 435.91C134.659 436.077 134.076 436.16 133.416 436.16C133.062 436.16 132.716 436.127 132.376 436.06C132.042 436 131.719 435.913 131.406 435.8C131.099 435.687 130.812 435.553 130.546 435.4C130.286 435.247 130.056 435.08 129.856 434.9L130.426 433.96C130.499 433.847 130.586 433.76 130.686 433.7C130.786 433.64 130.912 433.61 131.066 433.61C131.219 433.61 131.362 433.653 131.496 433.74C131.636 433.827 131.796 433.92 131.976 434.02C132.156 434.12 132.366 434.213 132.606 434.3C132.852 434.387 133.162 434.43 133.536 434.43C133.829 434.43 134.079 434.397 134.286 434.33C134.499 434.257 134.672 434.163 134.806 434.05C134.946 433.937 135.046 433.807 135.106 433.66C135.172 433.507 135.206 433.35 135.206 433.19C135.206 432.95 135.132 432.753 134.986 432.6C134.846 432.447 134.656 432.313 134.416 432.2C134.182 432.087 133.912 431.987 133.606 431.9C133.306 431.807 132.996 431.707 132.676 431.6C132.362 431.493 132.052 431.37 131.746 431.23C131.446 431.083 131.176 430.9 130.936 430.68C130.702 430.46 130.512 430.19 130.366 429.87C130.226 429.55 130.156 429.163 130.156 428.71C130.156 428.29 130.239 427.89 130.406 427.51C130.572 427.13 130.816 426.8 131.136 426.52C131.462 426.233 131.866 426.007 132.346 425.84C132.832 425.667 133.392 425.58 134.026 425.58C134.732 425.58 135.376 425.697 135.956 425.93C136.536 426.163 137.019 426.47 137.406 426.85L136.846 427.74ZM143.793 436V427.6L142.903 427.46C142.71 427.427 142.553 427.36 142.433 427.26C142.32 427.16 142.263 427.02 142.263 426.84V425.83H143.793V425.07C143.793 424.483 143.88 423.957 144.053 423.49C144.233 423.023 144.487 422.627 144.813 422.3C145.147 421.973 145.55 421.723 146.023 421.55C146.497 421.377 147.03 421.29 147.623 421.29C148.097 421.29 148.537 421.353 148.943 421.48L148.893 422.72C148.88 422.913 148.79 423.033 148.623 423.08C148.457 423.127 148.263 423.15 148.043 423.15C147.75 423.15 147.487 423.183 147.253 423.25C147.027 423.31 146.833 423.42 146.673 423.58C146.513 423.733 146.39 423.94 146.303 424.2C146.223 424.453 146.183 424.77 146.183 425.15V425.83H148.853V427.59H146.263V436H143.793ZM154.745 425.58C155.512 425.58 156.205 425.703 156.825 425.95C157.452 426.197 157.985 426.547 158.425 427C158.865 427.453 159.205 428.007 159.445 428.66C159.685 429.313 159.805 430.043 159.805 430.85C159.805 431.663 159.685 432.397 159.445 433.05C159.205 433.703 158.865 434.26 158.425 434.72C157.985 435.18 157.452 435.533 156.825 435.78C156.205 436.027 155.512 436.15 154.745 436.15C153.978 436.15 153.282 436.027 152.655 435.78C152.028 435.533 151.492 435.18 151.045 434.72C150.605 434.26 150.262 433.703 150.015 433.05C149.775 432.397 149.655 431.663 149.655 430.85C149.655 430.043 149.775 429.313 150.015 428.66C150.262 428.007 150.605 427.453 151.045 427C151.492 426.547 152.028 426.197 152.655 425.95C153.282 425.703 153.978 425.58 154.745 425.58ZM154.745 434.25C155.598 434.25 156.228 433.963 156.635 433.39C157.048 432.817 157.255 431.977 157.255 430.87C157.255 429.763 157.048 428.92 156.635 428.34C156.228 427.76 155.598 427.47 154.745 427.47C153.878 427.47 153.238 427.763 152.825 428.35C152.412 428.93 152.205 429.77 152.205 430.87C152.205 431.97 152.412 432.81 152.825 433.39C153.238 433.963 153.878 434.25 154.745 434.25ZM161.732 436V425.74H163.182C163.435 425.74 163.612 425.787 163.712 425.88C163.812 425.973 163.879 426.133 163.912 426.36L164.062 427.6C164.429 426.967 164.859 426.467 165.352 426.1C165.845 425.733 166.399 425.55 167.012 425.55C167.519 425.55 167.939 425.667 168.272 425.9L167.952 427.75C167.932 427.87 167.889 427.957 167.822 428.01C167.755 428.057 167.665 428.08 167.552 428.08C167.452 428.08 167.315 428.057 167.142 428.01C166.969 427.963 166.739 427.94 166.452 427.94C165.939 427.94 165.499 428.083 165.132 428.37C164.765 428.65 164.455 429.063 164.202 429.61V436H161.732ZM173.763 439.35V425.74H175.273C175.433 425.74 175.57 425.777 175.683 425.85C175.797 425.923 175.87 426.037 175.903 426.19L176.103 427.14C176.517 426.667 176.99 426.283 177.523 425.99C178.063 425.697 178.693 425.55 179.413 425.55C179.973 425.55 180.483 425.667 180.943 425.9C181.41 426.133 181.81 426.473 182.143 426.92C182.483 427.36 182.743 427.907 182.923 428.56C183.11 429.207 183.203 429.95 183.203 430.79C183.203 431.557 183.1 432.267 182.893 432.92C182.687 433.573 182.39 434.14 182.003 434.62C181.623 435.1 181.16 435.477 180.613 435.75C180.073 436.017 179.467 436.15 178.793 436.15C178.213 436.15 177.72 436.063 177.313 435.89C176.913 435.71 176.553 435.463 176.233 435.15V439.35H173.763ZM178.563 427.5C178.05 427.5 177.61 427.61 177.243 427.83C176.883 428.043 176.547 428.347 176.233 428.74V433.34C176.513 433.687 176.817 433.93 177.143 434.07C177.477 434.203 177.833 434.27 178.213 434.27C178.587 434.27 178.923 434.2 179.223 434.06C179.53 433.92 179.787 433.707 179.993 433.42C180.207 433.133 180.37 432.773 180.483 432.34C180.597 431.9 180.653 431.383 180.653 430.79C180.653 430.19 180.603 429.683 180.503 429.27C180.41 428.85 180.273 428.51 180.093 428.25C179.913 427.99 179.693 427.8 179.433 427.68C179.18 427.56 178.89 427.5 178.563 427.5ZM185.072 436V425.74H186.522C186.775 425.74 186.952 425.787 187.052 425.88C187.152 425.973 187.219 426.133 187.252 426.36L187.402 427.6C187.769 426.967 188.199 426.467 188.692 426.1C189.185 425.733 189.739 425.55 190.352 425.55C190.859 425.55 191.279 425.667 191.612 425.9L191.292 427.75C191.272 427.87 191.229 427.957 191.162 428.01C191.095 428.057 191.005 428.08 190.892 428.08C190.792 428.08 190.655 428.057 190.482 428.01C190.309 427.963 190.079 427.94 189.792 427.94C189.279 427.94 188.839 428.083 188.472 428.37C188.105 428.65 187.795 429.063 187.542 429.61V436H185.072ZM197.616 425.58C198.383 425.58 199.076 425.703 199.696 425.95C200.323 426.197 200.856 426.547 201.296 427C201.736 427.453 202.076 428.007 202.316 428.66C202.556 429.313 202.676 430.043 202.676 430.85C202.676 431.663 202.556 432.397 202.316 433.05C202.076 433.703 201.736 434.26 201.296 434.72C200.856 435.18 200.323 435.533 199.696 435.78C199.076 436.027 198.383 436.15 197.616 436.15C196.849 436.15 196.153 436.027 195.526 435.78C194.899 435.533 194.363 435.18 193.916 434.72C193.476 434.26 193.133 433.703 192.886 433.05C192.646 432.397 192.526 431.663 192.526 430.85C192.526 430.043 192.646 429.313 192.886 428.66C193.133 428.007 193.476 427.453 193.916 427C194.363 426.547 194.899 426.197 195.526 425.95C196.153 425.703 196.849 425.58 197.616 425.58ZM197.616 434.25C198.469 434.25 199.099 433.963 199.506 433.39C199.919 432.817 200.126 431.977 200.126 430.87C200.126 429.763 199.919 428.92 199.506 428.34C199.099 427.76 198.469 427.47 197.616 427.47C196.749 427.47 196.109 427.763 195.696 428.35C195.283 428.93 195.076 429.77 195.076 430.87C195.076 431.97 195.283 432.81 195.696 433.39C196.109 433.963 196.749 434.25 197.616 434.25ZM209.411 436H207.171L203.091 425.74H205.141C205.321 425.74 205.471 425.783 205.591 425.87C205.718 425.957 205.805 426.067 205.851 426.2L207.831 431.68C207.945 432 208.038 432.313 208.111 432.62C208.191 432.927 208.261 433.233 208.321 433.54C208.381 433.233 208.448 432.927 208.521 432.62C208.601 432.313 208.701 432 208.821 431.68L210.851 426.2C210.898 426.067 210.981 425.957 211.101 425.87C211.221 425.783 211.365 425.74 211.531 425.74H213.481L209.411 436ZM217.565 425.74V436H215.095V425.74H217.565ZM217.935 422.75C217.935 422.963 217.892 423.163 217.805 423.35C217.719 423.537 217.602 423.7 217.455 423.84C217.315 423.98 217.149 424.093 216.955 424.18C216.762 424.26 216.555 424.3 216.335 424.3C216.122 424.3 215.919 424.26 215.725 424.18C215.539 424.093 215.375 423.98 215.235 423.84C215.095 423.7 214.982 423.537 214.895 423.35C214.815 423.163 214.775 422.963 214.775 422.75C214.775 422.53 214.815 422.323 214.895 422.13C214.982 421.937 215.095 421.77 215.235 421.63C215.375 421.49 215.539 421.38 215.725 421.3C215.919 421.213 216.122 421.17 216.335 421.17C216.555 421.17 216.762 421.213 216.955 421.3C217.149 421.38 217.315 421.49 217.455 421.63C217.602 421.77 217.719 421.937 217.805 422.13C217.892 422.323 217.935 422.53 217.935 422.75ZM227.585 436C227.265 436 227.055 435.85 226.955 435.55L226.755 434.56C226.542 434.8 226.318 435.017 226.085 435.21C225.852 435.403 225.598 435.57 225.325 435.71C225.058 435.85 224.768 435.957 224.455 436.03C224.148 436.11 223.815 436.15 223.455 436.15C222.895 436.15 222.382 436.033 221.915 435.8C221.448 435.567 221.045 435.23 220.705 434.79C220.372 434.343 220.112 433.793 219.925 433.14C219.745 432.487 219.655 431.74 219.655 430.9C219.655 430.14 219.758 429.433 219.965 428.78C220.172 428.127 220.468 427.56 220.855 427.08C221.242 426.6 221.705 426.227 222.245 425.96C222.785 425.687 223.392 425.55 224.065 425.55C224.638 425.55 225.128 425.643 225.535 425.83C225.942 426.01 226.305 426.253 226.625 426.56V421.14H229.095V436H227.585ZM224.295 434.19C224.808 434.19 225.245 434.083 225.605 433.87C225.965 433.657 226.305 433.353 226.625 432.96V428.36C226.345 428.02 226.038 427.78 225.705 427.64C225.378 427.5 225.025 427.43 224.645 427.43C224.272 427.43 223.932 427.5 223.625 427.64C223.325 427.78 223.068 427.993 222.855 428.28C222.648 428.56 222.488 428.92 222.375 429.36C222.262 429.793 222.205 430.307 222.205 430.9C222.205 431.5 222.252 432.01 222.345 432.43C222.445 432.843 222.585 433.183 222.765 433.45C222.945 433.71 223.165 433.9 223.425 434.02C223.685 434.133 223.975 434.19 224.295 434.19ZM234.401 425.74V436H231.931V425.74H234.401ZM234.771 422.75C234.771 422.963 234.728 423.163 234.641 423.35C234.555 423.537 234.438 423.7 234.291 423.84C234.151 423.98 233.985 424.093 233.791 424.18C233.598 424.26 233.391 424.3 233.171 424.3C232.958 424.3 232.755 424.26 232.561 424.18C232.375 424.093 232.211 423.98 232.071 423.84C231.931 423.7 231.818 423.537 231.731 423.35C231.651 423.163 231.611 422.963 231.611 422.75C231.611 422.53 231.651 422.323 231.731 422.13C231.818 421.937 231.931 421.77 232.071 421.63C232.211 421.49 232.375 421.38 232.561 421.3C232.755 421.213 232.958 421.17 233.171 421.17C233.391 421.17 233.598 421.213 233.791 421.3C233.985 421.38 234.151 421.49 234.291 421.63C234.438 421.77 234.555 421.937 234.641 422.13C234.728 422.323 234.771 422.53 234.771 422.75ZM237.201 436V425.74H238.711C239.031 425.74 239.241 425.89 239.341 426.19L239.511 427C239.718 426.787 239.934 426.593 240.161 426.42C240.394 426.247 240.638 426.097 240.891 425.97C241.151 425.843 241.428 425.747 241.721 425.68C242.014 425.613 242.334 425.58 242.681 425.58C243.241 425.58 243.738 425.677 244.171 425.87C244.604 426.057 244.964 426.323 245.251 426.67C245.544 427.01 245.764 427.42 245.911 427.9C246.064 428.373 246.141 428.897 246.141 429.47V436H243.671V429.47C243.671 428.843 243.524 428.36 243.231 428.02C242.944 427.673 242.511 427.5 241.931 427.5C241.504 427.5 241.104 427.597 240.731 427.79C240.358 427.983 240.004 428.247 239.671 428.58V436H237.201ZM252.118 425.56C252.558 425.56 252.971 425.607 253.358 425.7C253.745 425.787 254.098 425.917 254.418 426.09H257.368V427.01C257.368 427.163 257.328 427.283 257.248 427.37C257.168 427.457 257.031 427.517 256.838 427.55L255.918 427.72C255.985 427.893 256.035 428.077 256.068 428.27C256.108 428.463 256.128 428.667 256.128 428.88C256.128 429.387 256.025 429.847 255.818 430.26C255.618 430.667 255.338 431.013 254.978 431.3C254.625 431.587 254.201 431.81 253.708 431.97C253.221 432.123 252.691 432.2 252.118 432.2C251.731 432.2 251.355 432.163 250.988 432.09C250.668 432.283 250.508 432.5 250.508 432.74C250.508 432.947 250.601 433.1 250.788 433.2C250.981 433.293 251.231 433.36 251.538 433.4C251.851 433.44 252.205 433.467 252.598 433.48C252.991 433.487 253.395 433.507 253.808 433.54C254.221 433.573 254.625 433.633 255.018 433.72C255.411 433.8 255.761 433.93 256.068 434.11C256.381 434.29 256.631 434.537 256.818 434.85C257.011 435.157 257.108 435.553 257.108 436.04C257.108 436.493 256.995 436.933 256.768 437.36C256.548 437.787 256.225 438.167 255.798 438.5C255.378 438.833 254.861 439.1 254.248 439.3C253.635 439.507 252.935 439.61 252.148 439.61C251.368 439.61 250.691 439.533 250.118 439.38C249.545 439.233 249.068 439.033 248.688 438.78C248.315 438.533 248.035 438.247 247.848 437.92C247.661 437.593 247.568 437.253 247.568 436.9C247.568 436.42 247.715 436.017 248.008 435.69C248.301 435.363 248.708 435.103 249.228 434.91C248.975 434.77 248.771 434.583 248.618 434.35C248.465 434.117 248.388 433.813 248.388 433.44C248.388 433.287 248.415 433.13 248.468 432.97C248.521 432.803 248.601 432.64 248.708 432.48C248.821 432.32 248.961 432.17 249.128 432.03C249.295 431.883 249.491 431.753 249.718 431.64C249.198 431.36 248.788 430.987 248.488 430.52C248.195 430.053 248.048 429.507 248.048 428.88C248.048 428.373 248.148 427.917 248.348 427.51C248.555 427.097 248.838 426.747 249.198 426.46C249.565 426.167 249.995 425.943 250.488 425.79C250.988 425.637 251.531 425.56 252.118 425.56ZM254.828 436.46C254.828 436.26 254.768 436.097 254.648 435.97C254.528 435.843 254.365 435.747 254.158 435.68C253.951 435.607 253.708 435.553 253.428 435.52C253.155 435.487 252.861 435.463 252.548 435.45C252.241 435.43 251.921 435.413 251.588 435.4C251.261 435.38 250.945 435.35 250.638 435.31C250.358 435.463 250.131 435.647 249.958 435.86C249.791 436.067 249.708 436.307 249.708 436.58C249.708 436.76 249.751 436.927 249.838 437.08C249.931 437.24 250.075 437.377 250.268 437.49C250.468 437.603 250.725 437.69 251.038 437.75C251.351 437.817 251.735 437.85 252.188 437.85C252.648 437.85 253.045 437.813 253.378 437.74C253.711 437.673 253.985 437.577 254.198 437.45C254.418 437.33 254.578 437.183 254.678 437.01C254.778 436.843 254.828 436.66 254.828 436.46ZM252.118 430.62C252.425 430.62 252.691 430.58 252.918 430.5C253.145 430.413 253.331 430.297 253.478 430.15C253.631 430.003 253.745 429.827 253.818 429.62C253.898 429.413 253.938 429.187 253.938 428.94C253.938 428.433 253.785 428.033 253.478 427.74C253.178 427.44 252.725 427.29 252.118 427.29C251.511 427.29 251.055 427.44 250.748 427.74C250.448 428.033 250.298 428.433 250.298 428.94C250.298 429.18 250.335 429.403 250.408 429.61C250.488 429.817 250.601 429.997 250.748 430.15C250.901 430.297 251.091 430.413 251.318 430.5C251.551 430.58 251.818 430.62 252.118 430.62ZM266.427 438.82C266.353 438.993 266.257 439.123 266.137 439.21C266.023 439.303 265.847 439.35 265.607 439.35H263.767L265.687 435.24L261.537 425.74H263.697C263.897 425.74 264.05 425.787 264.157 425.88C264.263 425.973 264.343 426.08 264.397 426.2L266.587 431.52C266.66 431.693 266.723 431.873 266.777 432.06C266.83 432.247 266.877 432.433 266.917 432.62C266.97 432.427 267.027 432.24 267.087 432.06C267.153 431.88 267.223 431.697 267.297 431.51L269.357 426.2C269.41 426.067 269.497 425.957 269.617 425.87C269.743 425.783 269.883 425.74 270.037 425.74H272.017L266.427 438.82ZM277.499 425.58C278.265 425.58 278.959 425.703 279.579 425.95C280.205 426.197 280.739 426.547 281.179 427C281.619 427.453 281.959 428.007 282.199 428.66C282.439 429.313 282.559 430.043 282.559 430.85C282.559 431.663 282.439 432.397 282.199 433.05C281.959 433.703 281.619 434.26 281.179 434.72C280.739 435.18 280.205 435.533 279.579 435.78C278.959 436.027 278.265 436.15 277.499 436.15C276.732 436.15 276.035 436.027 275.409 435.78C274.782 435.533 274.245 435.18 273.799 434.72C273.359 434.26 273.015 433.703 272.769 433.05C272.529 432.397 272.409 431.663 272.409 430.85C272.409 430.043 272.529 429.313 272.769 428.66C273.015 428.007 273.359 427.453 273.799 427C274.245 426.547 274.782 426.197 275.409 425.95C276.035 425.703 276.732 425.58 277.499 425.58ZM277.499 434.25C278.352 434.25 278.982 433.963 279.389 433.39C279.802 432.817 280.009 431.977 280.009 430.87C280.009 429.763 279.802 428.92 279.389 428.34C278.982 427.76 278.352 427.47 277.499 427.47C276.632 427.47 275.992 427.763 275.579 428.35C275.165 428.93 274.959 429.77 274.959 430.87C274.959 431.97 275.165 432.81 275.579 433.39C275.992 433.963 276.632 434.25 277.499 434.25ZM286.746 425.74V432.26C286.746 432.887 286.889 433.373 287.176 433.72C287.469 434.06 287.906 434.23 288.486 434.23C288.913 434.23 289.313 434.137 289.686 433.95C290.059 433.757 290.413 433.493 290.746 433.16V425.74H293.216V436H291.706C291.386 436 291.176 435.85 291.076 435.55L290.906 434.73C290.693 434.943 290.473 435.14 290.246 435.32C290.019 435.493 289.776 435.643 289.516 435.77C289.263 435.89 288.986 435.983 288.686 436.05C288.393 436.123 288.076 436.16 287.736 436.16C287.176 436.16 286.679 436.067 286.246 435.88C285.819 435.687 285.459 435.417 285.166 435.07C284.873 434.723 284.649 434.313 284.496 433.84C284.349 433.36 284.276 432.833 284.276 432.26V425.74H286.746ZM295.853 436V425.74H297.303C297.557 425.74 297.733 425.787 297.833 425.88C297.933 425.973 298 426.133 298.033 426.36L298.183 427.6C298.55 426.967 298.98 426.467 299.473 426.1C299.967 425.733 300.52 425.55 301.133 425.55C301.64 425.55 302.06 425.667 302.393 425.9L302.073 427.75C302.053 427.87 302.01 427.957 301.943 428.01C301.877 428.057 301.787 428.08 301.673 428.08C301.573 428.08 301.437 428.057 301.263 428.01C301.09 427.963 300.86 427.94 300.573 427.94C300.06 427.94 299.62 428.083 299.253 428.37C298.887 428.65 298.577 429.063 298.323 429.61V436H295.853ZM68.6867 452.77C68.6867 453.83 68.5101 454.803 68.1567 455.69C67.8034 456.577 67.3067 457.34 66.6667 457.98C66.0267 458.62 65.2567 459.117 64.3567 459.47C63.4567 459.823 62.4601 460 61.3667 460H55.8467V445.54H61.3667C62.4601 445.54 63.4567 445.72 64.3567 446.08C65.2567 446.433 66.0267 446.93 66.6667 447.57C67.3067 448.203 67.8034 448.963 68.1567 449.85C68.5101 450.737 68.6867 451.71 68.6867 452.77ZM65.9367 452.77C65.9367 451.977 65.8301 451.267 65.6167 450.64C65.4034 450.007 65.1001 449.473 64.7067 449.04C64.3134 448.6 63.8334 448.263 63.2667 448.03C62.7067 447.797 62.0734 447.68 61.3667 447.68H58.5567V457.86H61.3667C62.0734 457.86 62.7067 457.743 63.2667 457.51C63.8334 457.277 64.3134 456.943 64.7067 456.51C65.1001 456.07 65.4034 455.537 65.6167 454.91C65.8301 454.277 65.9367 453.563 65.9367 452.77ZM70.6481 460V449.74H72.0981C72.3515 449.74 72.5281 449.787 72.6281 449.88C72.7281 449.973 72.7948 450.133 72.8281 450.36L72.9781 451.6C73.3448 450.967 73.7748 450.467 74.2681 450.1C74.7615 449.733 75.3148 449.55 75.9281 449.55C76.4348 449.55 76.8548 449.667 77.1881 449.9L76.8681 451.75C76.8481 451.87 76.8048 451.957 76.7381 452.01C76.6715 452.057 76.5815 452.08 76.4681 452.08C76.3681 452.08 76.2315 452.057 76.0581 452.01C75.8848 451.963 75.6548 451.94 75.3681 451.94C74.8548 451.94 74.4148 452.083 74.0481 452.37C73.6815 452.65 73.3715 453.063 73.1181 453.61V460H70.6481ZM81.4422 449.74V460H78.9722V449.74H81.4422ZM81.8122 446.75C81.8122 446.963 81.7689 447.163 81.6822 447.35C81.5955 447.537 81.4789 447.7 81.3322 447.84C81.1922 447.98 81.0255 448.093 80.8322 448.18C80.6389 448.26 80.4322 448.3 80.2122 448.3C79.9989 448.3 79.7955 448.26 79.6022 448.18C79.4155 448.093 79.2522 447.98 79.1122 447.84C78.9722 447.7 78.8589 447.537 78.7722 447.35C78.6922 447.163 78.6522 446.963 78.6522 446.75C78.6522 446.53 78.6922 446.323 78.7722 446.13C78.8589 445.937 78.9722 445.77 79.1122 445.63C79.2522 445.49 79.4155 445.38 79.6022 445.3C79.7955 445.213 79.9989 445.17 80.2122 445.17C80.4322 445.17 80.6389 445.213 80.8322 445.3C81.0255 445.38 81.1922 445.49 81.3322 445.63C81.4789 445.77 81.5955 445.937 81.6822 446.13C81.7689 446.323 81.8122 446.53 81.8122 446.75ZM89.3819 460H87.1419L83.0619 449.74H85.1119C85.2919 449.74 85.4419 449.783 85.5619 449.87C85.6885 449.957 85.7752 450.067 85.8219 450.2L87.8019 455.68C87.9152 456 88.0085 456.313 88.0819 456.62C88.1619 456.927 88.2319 457.233 88.2919 457.54C88.3519 457.233 88.4185 456.927 88.4919 456.62C88.5719 456.313 88.6719 456 88.7919 455.68L90.8219 450.2C90.8685 450.067 90.9519 449.957 91.0719 449.87C91.1919 449.783 91.3352 449.74 91.5019 449.74H93.4519L89.3819 460ZM97.5359 449.74V460H95.0659V449.74H97.5359ZM97.9059 446.75C97.9059 446.963 97.8626 447.163 97.7759 447.35C97.6893 447.537 97.5726 447.7 97.4259 447.84C97.2859 447.98 97.1193 448.093 96.9259 448.18C96.7326 448.26 96.5259 448.3 96.3059 448.3C96.0926 448.3 95.8893 448.26 95.6959 448.18C95.5093 448.093 95.3459 447.98 95.2059 447.84C95.0659 447.7 94.9526 447.537 94.8659 447.35C94.7859 447.163 94.7459 446.963 94.7459 446.75C94.7459 446.53 94.7859 446.323 94.8659 446.13C94.9526 445.937 95.0659 445.77 95.2059 445.63C95.3459 445.49 95.5093 445.38 95.6959 445.3C95.8893 445.213 96.0926 445.17 96.3059 445.17C96.5259 445.17 96.7326 445.213 96.9259 445.3C97.1193 445.38 97.2859 445.49 97.4259 445.63C97.5726 445.77 97.6893 445.937 97.7759 446.13C97.8626 446.323 97.9059 446.53 97.9059 446.75ZM100.336 460V449.74H101.846C102.166 449.74 102.376 449.89 102.476 450.19L102.646 451C102.852 450.787 103.069 450.593 103.296 450.42C103.529 450.247 103.772 450.097 104.026 449.97C104.286 449.843 104.562 449.747 104.856 449.68C105.149 449.613 105.469 449.58 105.816 449.58C106.376 449.58 106.872 449.677 107.306 449.87C107.739 450.057 108.099 450.323 108.386 450.67C108.679 451.01 108.899 451.42 109.046 451.9C109.199 452.373 109.276 452.897 109.276 453.47V460H106.806V453.47C106.806 452.843 106.659 452.36 106.366 452.02C106.079 451.673 105.646 451.5 105.066 451.5C104.639 451.5 104.239 451.597 103.866 451.79C103.492 451.983 103.139 452.247 102.806 452.58V460H100.336ZM115.253 449.56C115.693 449.56 116.106 449.607 116.493 449.7C116.879 449.787 117.233 449.917 117.553 450.09H120.503V451.01C120.503 451.163 120.463 451.283 120.383 451.37C120.303 451.457 120.166 451.517 119.973 451.55L119.053 451.72C119.119 451.893 119.169 452.077 119.203 452.27C119.243 452.463 119.263 452.667 119.263 452.88C119.263 453.387 119.159 453.847 118.953 454.26C118.753 454.667 118.473 455.013 118.113 455.3C117.759 455.587 117.336 455.81 116.843 455.97C116.356 456.123 115.826 456.2 115.253 456.2C114.866 456.2 114.489 456.163 114.123 456.09C113.803 456.283 113.643 456.5 113.643 456.74C113.643 456.947 113.736 457.1 113.923 457.2C114.116 457.293 114.366 457.36 114.673 457.4C114.986 457.44 115.339 457.467 115.733 457.48C116.126 457.487 116.529 457.507 116.943 457.54C117.356 457.573 117.759 457.633 118.153 457.72C118.546 457.8 118.896 457.93 119.203 458.11C119.516 458.29 119.766 458.537 119.953 458.85C120.146 459.157 120.243 459.553 120.243 460.04C120.243 460.493 120.129 460.933 119.903 461.36C119.683 461.787 119.359 462.167 118.933 462.5C118.513 462.833 117.996 463.1 117.383 463.3C116.769 463.507 116.069 463.61 115.283 463.61C114.503 463.61 113.826 463.533 113.253 463.38C112.679 463.233 112.203 463.033 111.823 462.78C111.449 462.533 111.169 462.247 110.983 461.92C110.796 461.593 110.703 461.253 110.703 460.9C110.703 460.42 110.849 460.017 111.143 459.69C111.436 459.363 111.843 459.103 112.363 458.91C112.109 458.77 111.906 458.583 111.753 458.35C111.599 458.117 111.523 457.813 111.523 457.44C111.523 457.287 111.549 457.13 111.603 456.97C111.656 456.803 111.736 456.64 111.843 456.48C111.956 456.32 112.096 456.17 112.263 456.03C112.429 455.883 112.626 455.753 112.853 455.64C112.333 455.36 111.923 454.987 111.623 454.52C111.329 454.053 111.183 453.507 111.183 452.88C111.183 452.373 111.283 451.917 111.483 451.51C111.689 451.097 111.973 450.747 112.333 450.46C112.699 450.167 113.129 449.943 113.623 449.79C114.123 449.637 114.666 449.56 115.253 449.56ZM117.963 460.46C117.963 460.26 117.903 460.097 117.783 459.97C117.663 459.843 117.499 459.747 117.293 459.68C117.086 459.607 116.843 459.553 116.563 459.52C116.289 459.487 115.996 459.463 115.683 459.45C115.376 459.43 115.056 459.413 114.723 459.4C114.396 459.38 114.079 459.35 113.773 459.31C113.493 459.463 113.266 459.647 113.093 459.86C112.926 460.067 112.843 460.307 112.843 460.58C112.843 460.76 112.886 460.927 112.973 461.08C113.066 461.24 113.209 461.377 113.403 461.49C113.603 461.603 113.859 461.69 114.173 461.75C114.486 461.817 114.869 461.85 115.323 461.85C115.783 461.85 116.179 461.813 116.513 461.74C116.846 461.673 117.119 461.577 117.333 461.45C117.553 461.33 117.713 461.183 117.813 461.01C117.913 460.843 117.963 460.66 117.963 460.46ZM115.253 454.62C115.559 454.62 115.826 454.58 116.053 454.5C116.279 454.413 116.466 454.297 116.613 454.15C116.766 454.003 116.879 453.827 116.953 453.62C117.033 453.413 117.073 453.187 117.073 452.94C117.073 452.433 116.919 452.033 116.613 451.74C116.313 451.44 115.859 451.29 115.253 451.29C114.646 451.29 114.189 451.44 113.883 451.74C113.583 452.033 113.433 452.433 113.433 452.94C113.433 453.18 113.469 453.403 113.543 453.61C113.623 453.817 113.736 453.997 113.883 454.15C114.036 454.297 114.226 454.413 114.453 454.5C114.686 454.58 114.953 454.62 115.253 454.62ZM128.752 457.78H134.542V460H126.062V445.54H128.752V457.78ZM138.884 449.74V460H136.414V449.74H138.884ZM139.254 446.75C139.254 446.963 139.21 447.163 139.124 447.35C139.037 447.537 138.92 447.7 138.774 447.84C138.634 447.98 138.467 448.093 138.274 448.18C138.08 448.26 137.874 448.3 137.654 448.3C137.44 448.3 137.237 448.26 137.044 448.18C136.857 448.093 136.694 447.98 136.554 447.84C136.414 447.7 136.3 447.537 136.214 447.35C136.134 447.163 136.094 446.963 136.094 446.75C136.094 446.53 136.134 446.323 136.214 446.13C136.3 445.937 136.414 445.77 136.554 445.63C136.694 445.49 136.857 445.38 137.044 445.3C137.237 445.213 137.44 445.17 137.654 445.17C137.874 445.17 138.08 445.213 138.274 445.3C138.467 445.38 138.634 445.49 138.774 445.63C138.92 445.77 139.037 445.937 139.124 446.13C139.21 446.323 139.254 446.53 139.254 446.75ZM148.893 451.91C148.82 452.003 148.747 452.077 148.673 452.13C148.607 452.183 148.507 452.21 148.373 452.21C148.247 452.21 148.123 452.173 148.003 452.1C147.883 452.02 147.74 451.933 147.573 451.84C147.407 451.74 147.207 451.653 146.973 451.58C146.747 451.5 146.463 451.46 146.123 451.46C145.69 451.46 145.31 451.54 144.983 451.7C144.657 451.853 144.383 452.077 144.163 452.37C143.95 452.663 143.79 453.02 143.683 453.44C143.577 453.853 143.523 454.323 143.523 454.85C143.523 455.397 143.58 455.883 143.693 456.31C143.813 456.737 143.983 457.097 144.203 457.39C144.423 457.677 144.69 457.897 145.003 458.05C145.317 458.197 145.67 458.27 146.063 458.27C146.457 458.27 146.773 458.223 147.013 458.13C147.26 458.03 147.467 457.923 147.633 457.81C147.8 457.69 147.943 457.583 148.063 457.49C148.19 457.39 148.33 457.34 148.483 457.34C148.683 457.34 148.833 457.417 148.933 457.57L149.643 458.47C149.37 458.79 149.073 459.06 148.753 459.28C148.433 459.493 148.1 459.667 147.753 459.8C147.413 459.927 147.06 460.017 146.693 460.07C146.327 460.123 145.963 460.15 145.603 460.15C144.97 460.15 144.373 460.033 143.813 459.8C143.253 459.56 142.763 459.213 142.343 458.76C141.93 458.307 141.6 457.753 141.353 457.1C141.113 456.44 140.993 455.69 140.993 454.85C140.993 454.097 141.1 453.4 141.313 452.76C141.533 452.113 141.853 451.557 142.273 451.09C142.693 450.617 143.213 450.247 143.833 449.98C144.453 449.713 145.167 449.58 145.973 449.58C146.74 449.58 147.41 449.703 147.983 449.95C148.563 450.197 149.083 450.55 149.543 451.01L148.893 451.91ZM155.455 449.58C156.101 449.58 156.695 449.683 157.235 449.89C157.781 450.097 158.251 450.4 158.645 450.8C159.038 451.193 159.345 451.68 159.565 452.26C159.785 452.833 159.895 453.49 159.895 454.23C159.895 454.417 159.885 454.573 159.865 454.7C159.851 454.82 159.821 454.917 159.775 454.99C159.735 455.057 159.678 455.107 159.605 455.14C159.531 455.167 159.438 455.18 159.325 455.18H152.985C153.058 456.233 153.341 457.007 153.835 457.5C154.328 457.993 154.981 458.24 155.795 458.24C156.195 458.24 156.538 458.193 156.825 458.1C157.118 458.007 157.371 457.903 157.585 457.79C157.805 457.677 157.995 457.573 158.155 457.48C158.321 457.387 158.481 457.34 158.635 457.34C158.735 457.34 158.821 457.36 158.895 457.4C158.968 457.44 159.031 457.497 159.085 457.57L159.805 458.47C159.531 458.79 159.225 459.06 158.885 459.28C158.545 459.493 158.188 459.667 157.815 459.8C157.448 459.927 157.071 460.017 156.685 460.07C156.305 460.123 155.935 460.15 155.575 460.15C154.861 460.15 154.198 460.033 153.585 459.8C152.971 459.56 152.438 459.21 151.985 458.75C151.531 458.283 151.175 457.71 150.915 457.03C150.655 456.343 150.525 455.55 150.525 454.65C150.525 453.95 150.638 453.293 150.865 452.68C151.091 452.06 151.415 451.523 151.835 451.07C152.261 450.61 152.778 450.247 153.385 449.98C153.998 449.713 154.688 449.58 155.455 449.58ZM155.505 451.35C154.785 451.35 154.221 451.553 153.815 451.96C153.408 452.367 153.148 452.943 153.035 453.69H157.675C157.675 453.37 157.631 453.07 157.545 452.79C157.458 452.503 157.325 452.253 157.145 452.04C156.965 451.827 156.738 451.66 156.465 451.54C156.191 451.413 155.871 451.35 155.505 451.35ZM161.898 460V449.74H163.408C163.728 449.74 163.938 449.89 164.038 450.19L164.208 451C164.415 450.787 164.631 450.593 164.858 450.42C165.091 450.247 165.335 450.097 165.588 449.97C165.848 449.843 166.125 449.747 166.418 449.68C166.711 449.613 167.031 449.58 167.378 449.58C167.938 449.58 168.435 449.677 168.868 449.87C169.301 450.057 169.661 450.323 169.948 450.67C170.241 451.01 170.461 451.42 170.608 451.9C170.761 452.373 170.838 452.897 170.838 453.47V460H168.368V453.47C168.368 452.843 168.221 452.36 167.928 452.02C167.641 451.673 167.208 451.5 166.628 451.5C166.201 451.5 165.801 451.597 165.428 451.79C165.055 451.983 164.701 452.247 164.368 452.58V460H161.898ZM179.355 451.74C179.289 451.847 179.219 451.923 179.145 451.97C179.072 452.01 178.979 452.03 178.865 452.03C178.745 452.03 178.615 451.997 178.475 451.93C178.342 451.863 178.185 451.79 178.005 451.71C177.825 451.623 177.619 451.547 177.385 451.48C177.159 451.413 176.889 451.38 176.575 451.38C176.089 451.38 175.705 451.483 175.425 451.69C175.145 451.897 175.005 452.167 175.005 452.5C175.005 452.72 175.075 452.907 175.215 453.06C175.362 453.207 175.552 453.337 175.785 453.45C176.025 453.563 176.295 453.667 176.595 453.76C176.895 453.847 177.202 453.943 177.515 454.05C177.829 454.157 178.135 454.28 178.435 454.42C178.735 454.553 179.002 454.727 179.235 454.94C179.475 455.147 179.665 455.397 179.805 455.69C179.952 455.983 180.025 456.337 180.025 456.75C180.025 457.243 179.935 457.7 179.755 458.12C179.575 458.533 179.312 458.893 178.965 459.2C178.619 459.5 178.189 459.737 177.675 459.91C177.169 460.077 176.585 460.16 175.925 460.16C175.572 460.16 175.225 460.127 174.885 460.06C174.552 460 174.229 459.913 173.915 459.8C173.609 459.687 173.322 459.553 173.055 459.4C172.795 459.247 172.565 459.08 172.365 458.9L172.935 457.96C173.009 457.847 173.095 457.76 173.195 457.7C173.295 457.64 173.422 457.61 173.575 457.61C173.729 457.61 173.872 457.653 174.005 457.74C174.145 457.827 174.305 457.92 174.485 458.02C174.665 458.12 174.875 458.213 175.115 458.3C175.362 458.387 175.672 458.43 176.045 458.43C176.339 458.43 176.589 458.397 176.795 458.33C177.009 458.257 177.182 458.163 177.315 458.05C177.455 457.937 177.555 457.807 177.615 457.66C177.682 457.507 177.715 457.35 177.715 457.19C177.715 456.95 177.642 456.753 177.495 456.6C177.355 456.447 177.165 456.313 176.925 456.2C176.692 456.087 176.422 455.987 176.115 455.9C175.815 455.807 175.505 455.707 175.185 455.6C174.872 455.493 174.562 455.37 174.255 455.23C173.955 455.083 173.685 454.9 173.445 454.68C173.212 454.46 173.022 454.19 172.875 453.87C172.735 453.55 172.665 453.163 172.665 452.71C172.665 452.29 172.749 451.89 172.915 451.51C173.082 451.13 173.325 450.8 173.645 450.52C173.972 450.233 174.375 450.007 174.855 449.84C175.342 449.667 175.902 449.58 176.535 449.58C177.242 449.58 177.885 449.697 178.465 449.93C179.045 450.163 179.529 450.47 179.915 450.85L179.355 451.74ZM186.236 449.58C186.882 449.58 187.476 449.683 188.016 449.89C188.562 450.097 189.032 450.4 189.426 450.8C189.819 451.193 190.126 451.68 190.346 452.26C190.566 452.833 190.676 453.49 190.676 454.23C190.676 454.417 190.666 454.573 190.646 454.7C190.632 454.82 190.602 454.917 190.556 454.99C190.516 455.057 190.459 455.107 190.386 455.14C190.312 455.167 190.219 455.18 190.106 455.18H183.766C183.839 456.233 184.122 457.007 184.616 457.5C185.109 457.993 185.762 458.24 186.576 458.24C186.976 458.24 187.319 458.193 187.606 458.1C187.899 458.007 188.152 457.903 188.366 457.79C188.586 457.677 188.776 457.573 188.936 457.48C189.102 457.387 189.262 457.34 189.416 457.34C189.516 457.34 189.602 457.36 189.676 457.4C189.749 457.44 189.812 457.497 189.866 457.57L190.586 458.47C190.312 458.79 190.006 459.06 189.666 459.28C189.326 459.493 188.969 459.667 188.596 459.8C188.229 459.927 187.852 460.017 187.466 460.07C187.086 460.123 186.716 460.15 186.356 460.15C185.642 460.15 184.979 460.033 184.366 459.8C183.752 459.56 183.219 459.21 182.766 458.75C182.312 458.283 181.956 457.71 181.696 457.03C181.436 456.343 181.306 455.55 181.306 454.65C181.306 453.95 181.419 453.293 181.646 452.68C181.872 452.06 182.196 451.523 182.616 451.07C183.042 450.61 183.559 450.247 184.166 449.98C184.779 449.713 185.469 449.58 186.236 449.58ZM186.286 451.35C185.566 451.35 185.002 451.553 184.596 451.96C184.189 452.367 183.929 452.943 183.816 453.69H188.456C188.456 453.37 188.412 453.07 188.326 452.79C188.239 452.503 188.106 452.253 187.926 452.04C187.746 451.827 187.519 451.66 187.246 451.54C186.972 451.413 186.652 451.35 186.286 451.35ZM196.227 452.93H201.407V454.99H196.227V452.93ZM216.861 445.54V447.68H210.451V451.96H215.861V454.11H210.451V460H207.741V445.54H216.861ZM218.226 460V449.74H219.676C219.93 449.74 220.106 449.787 220.206 449.88C220.306 449.973 220.373 450.133 220.406 450.36L220.556 451.6C220.923 450.967 221.353 450.467 221.846 450.1C222.34 449.733 222.893 449.55 223.506 449.55C224.013 449.55 224.433 449.667 224.766 449.9L224.446 451.75C224.426 451.87 224.383 451.957 224.316 452.01C224.25 452.057 224.16 452.08 224.046 452.08C223.946 452.08 223.81 452.057 223.636 452.01C223.463 451.963 223.233 451.94 222.946 451.94C222.433 451.94 221.993 452.083 221.626 452.37C221.26 452.65 220.95 453.063 220.696 453.61V460H218.226ZM230.77 449.58C231.537 449.58 232.23 449.703 232.85 449.95C233.477 450.197 234.01 450.547 234.45 451C234.89 451.453 235.23 452.007 235.47 452.66C235.71 453.313 235.83 454.043 235.83 454.85C235.83 455.663 235.71 456.397 235.47 457.05C235.23 457.703 234.89 458.26 234.45 458.72C234.01 459.18 233.477 459.533 232.85 459.78C232.23 460.027 231.537 460.15 230.77 460.15C230.004 460.15 229.307 460.027 228.68 459.78C228.054 459.533 227.517 459.18 227.07 458.72C226.63 458.26 226.287 457.703 226.04 457.05C225.8 456.397 225.68 455.663 225.68 454.85C225.68 454.043 225.8 453.313 226.04 452.66C226.287 452.007 226.63 451.453 227.07 451C227.517 450.547 228.054 450.197 228.68 449.95C229.307 449.703 230.004 449.58 230.77 449.58ZM230.77 458.25C231.624 458.25 232.254 457.963 232.66 457.39C233.074 456.817 233.28 455.977 233.28 454.87C233.28 453.763 233.074 452.92 232.66 452.34C232.254 451.76 231.624 451.47 230.77 451.47C229.904 451.47 229.264 451.763 228.85 452.35C228.437 452.93 228.23 453.77 228.23 454.87C228.23 455.97 228.437 456.81 228.85 457.39C229.264 457.963 229.904 458.25 230.77 458.25ZM237.757 460V449.74H239.268C239.588 449.74 239.798 449.89 239.898 450.19L240.068 451C240.274 450.787 240.491 450.593 240.718 450.42C240.951 450.247 241.194 450.097 241.448 449.97C241.708 449.843 241.984 449.747 242.278 449.68C242.571 449.613 242.891 449.58 243.238 449.58C243.798 449.58 244.294 449.677 244.728 449.87C245.161 450.057 245.521 450.323 245.808 450.67C246.101 451.01 246.321 451.42 246.468 451.9C246.621 452.373 246.698 452.897 246.698 453.47V460H244.228V453.47C244.228 452.843 244.081 452.36 243.788 452.02C243.501 451.673 243.068 451.5 242.488 451.5C242.061 451.5 241.661 451.597 241.288 451.79C240.914 451.983 240.561 452.247 240.228 452.58V460H237.757ZM252.495 460.16C251.608 460.16 250.925 459.91 250.445 459.41C249.965 458.903 249.725 458.207 249.725 457.32V451.59H248.685C248.551 451.59 248.435 451.547 248.335 451.46C248.241 451.373 248.195 451.243 248.195 451.07V450.09L249.845 449.82L250.365 447.02C250.391 446.887 250.451 446.783 250.545 446.71C250.645 446.637 250.768 446.6 250.915 446.6H252.195V449.83H254.895V451.59H252.195V457.15C252.195 457.47 252.275 457.72 252.435 457.9C252.595 458.08 252.808 458.17 253.075 458.17C253.228 458.17 253.355 458.153 253.455 458.12C253.561 458.08 253.651 458.04 253.725 458C253.805 457.96 253.875 457.923 253.935 457.89C253.995 457.85 254.055 457.83 254.115 457.83C254.188 457.83 254.248 457.85 254.295 457.89C254.341 457.923 254.391 457.977 254.445 458.05L255.185 459.25C254.825 459.55 254.411 459.777 253.945 459.93C253.478 460.083 252.995 460.16 252.495 460.16ZM266.036 445.38C266.623 445.38 267.146 445.47 267.606 445.65C268.073 445.83 268.47 446.07 268.796 446.37C269.13 446.67 269.39 447.013 269.576 447.4C269.77 447.787 269.883 448.187 269.916 448.6L268.346 448.93C268.326 448.937 268.303 448.94 268.276 448.94C268.256 448.94 268.236 448.94 268.216 448.94C268.103 448.94 268 448.91 267.906 448.85C267.82 448.783 267.75 448.683 267.696 448.55C267.636 448.377 267.56 448.213 267.466 448.06C267.373 447.9 267.26 447.763 267.126 447.65C266.993 447.53 266.836 447.437 266.656 447.37C266.476 447.297 266.27 447.26 266.036 447.26C265.756 447.26 265.506 447.31 265.286 447.41C265.066 447.503 264.88 447.633 264.726 447.8C264.573 447.96 264.456 448.15 264.376 448.37C264.296 448.583 264.256 448.81 264.256 449.05C264.256 449.25 264.276 449.443 264.316 449.63C264.363 449.817 264.433 450.003 264.526 450.19C264.62 450.377 264.74 450.57 264.886 450.77C265.04 450.963 265.226 451.173 265.446 451.4L269.286 455.39C269.506 454.97 269.683 454.527 269.816 454.06C269.95 453.593 270.036 453.12 270.076 452.64C270.09 452.487 270.14 452.363 270.226 452.27C270.313 452.177 270.433 452.13 270.586 452.13H272.136C272.13 453.01 272.003 453.85 271.756 454.65C271.51 455.45 271.156 456.187 270.696 456.86L273.726 460H271.306C271.18 460 271.066 459.993 270.966 459.98C270.873 459.967 270.783 459.943 270.696 459.91C270.61 459.87 270.526 459.82 270.446 459.76C270.366 459.7 270.283 459.623 270.196 459.53L269.196 458.5C268.556 459.02 267.843 459.427 267.056 459.72C266.276 460.013 265.43 460.16 264.516 460.16C263.956 460.16 263.41 460.067 262.876 459.88C262.343 459.687 261.866 459.41 261.446 459.05C261.026 458.69 260.686 458.257 260.426 457.75C260.173 457.237 260.046 456.66 260.046 456.02C260.046 455.573 260.12 455.15 260.266 454.75C260.413 454.343 260.616 453.967 260.876 453.62C261.136 453.273 261.443 452.96 261.796 452.68C262.156 452.4 262.55 452.16 262.976 451.96C262.623 451.46 262.363 450.973 262.196 450.5C262.036 450.02 261.956 449.543 261.956 449.07C261.956 448.57 262.046 448.097 262.226 447.65C262.413 447.197 262.68 446.803 263.026 446.47C263.38 446.137 263.81 445.873 264.316 445.68C264.823 445.48 265.396 445.38 266.036 445.38ZM262.556 455.82C262.556 456.187 262.62 456.517 262.746 456.81C262.873 457.103 263.046 457.353 263.266 457.56C263.486 457.76 263.74 457.917 264.026 458.03C264.32 458.137 264.63 458.19 264.956 458.19C265.543 458.19 266.076 458.1 266.556 457.92C267.043 457.733 267.486 457.477 267.886 457.15L264.086 453.25C263.553 453.597 263.163 453.987 262.916 454.42C262.676 454.853 262.556 455.32 262.556 455.82ZM279.011 460V445.54H284.001C284.947 445.54 285.754 445.63 286.421 445.81C287.094 445.99 287.644 446.247 288.071 446.58C288.504 446.913 288.821 447.317 289.021 447.79C289.221 448.263 289.321 448.797 289.321 449.39C289.321 449.73 289.271 450.057 289.171 450.37C289.071 450.677 288.914 450.967 288.701 451.24C288.494 451.507 288.227 451.75 287.901 451.97C287.581 452.19 287.197 452.377 286.751 452.53C288.737 452.977 289.731 454.05 289.731 455.75C289.731 456.363 289.614 456.93 289.381 457.45C289.147 457.97 288.807 458.42 288.361 458.8C287.914 459.173 287.364 459.467 286.711 459.68C286.057 459.893 285.311 460 284.471 460H279.011ZM281.701 453.66V457.9H284.431C284.931 457.9 285.347 457.84 285.681 457.72C286.021 457.6 286.291 457.44 286.491 457.24C286.697 457.04 286.844 456.807 286.931 456.54C287.024 456.273 287.071 455.99 287.071 455.69C287.071 455.377 287.021 455.097 286.921 454.85C286.821 454.597 286.664 454.383 286.451 454.21C286.237 454.03 285.964 453.893 285.631 453.8C285.297 453.707 284.894 453.66 284.421 453.66H281.701ZM281.701 451.8H283.851C284.764 451.8 285.457 451.633 285.931 451.3C286.404 450.967 286.641 450.437 286.641 449.71C286.641 448.957 286.427 448.42 286.001 448.1C285.574 447.78 284.907 447.62 284.001 447.62H281.701V451.8ZM299.938 460H298.828C298.595 460 298.411 459.967 298.278 459.9C298.145 459.827 298.045 459.683 297.978 459.47L297.758 458.74C297.498 458.973 297.241 459.18 296.988 459.36C296.741 459.533 296.485 459.68 296.218 459.8C295.951 459.92 295.668 460.01 295.368 460.07C295.068 460.13 294.735 460.16 294.368 460.16C293.935 460.16 293.535 460.103 293.168 459.99C292.801 459.87 292.485 459.693 292.218 459.46C291.958 459.227 291.755 458.937 291.608 458.59C291.461 458.243 291.388 457.84 291.388 457.38C291.388 456.993 291.488 456.613 291.688 456.24C291.895 455.86 292.235 455.52 292.708 455.22C293.181 454.913 293.811 454.66 294.598 454.46C295.385 454.26 296.361 454.147 297.528 454.12V453.52C297.528 452.833 297.381 452.327 297.088 452C296.801 451.667 296.381 451.5 295.828 451.5C295.428 451.5 295.095 451.547 294.828 451.64C294.561 451.733 294.328 451.84 294.128 451.96C293.935 452.073 293.755 452.177 293.588 452.27C293.421 452.363 293.238 452.41 293.038 452.41C292.871 452.41 292.728 452.367 292.608 452.28C292.488 452.193 292.391 452.087 292.318 451.96L291.868 451.17C293.048 450.09 294.471 449.55 296.138 449.55C296.738 449.55 297.271 449.65 297.738 449.85C298.211 450.043 298.611 450.317 298.938 450.67C299.265 451.017 299.511 451.433 299.678 451.92C299.851 452.407 299.938 452.94 299.938 453.52V460ZM295.138 458.46C295.391 458.46 295.625 458.437 295.838 458.39C296.051 458.343 296.251 458.273 296.438 458.18C296.631 458.087 296.815 457.973 296.988 457.84C297.168 457.7 297.348 457.537 297.528 457.35V455.62C296.808 455.653 296.205 455.717 295.718 455.81C295.238 455.897 294.851 456.01 294.558 456.15C294.265 456.29 294.055 456.453 293.928 456.64C293.808 456.827 293.748 457.03 293.748 457.25C293.748 457.683 293.875 457.993 294.128 458.18C294.388 458.367 294.725 458.46 295.138 458.46ZM309.577 451.91C309.504 452.003 309.43 452.077 309.357 452.13C309.29 452.183 309.19 452.21 309.057 452.21C308.93 452.21 308.807 452.173 308.687 452.1C308.567 452.02 308.424 451.933 308.257 451.84C308.09 451.74 307.89 451.653 307.657 451.58C307.43 451.5 307.147 451.46 306.807 451.46C306.374 451.46 305.994 451.54 305.667 451.7C305.34 451.853 305.067 452.077 304.847 452.37C304.634 452.663 304.474 453.02 304.367 453.44C304.26 453.853 304.207 454.323 304.207 454.85C304.207 455.397 304.264 455.883 304.377 456.31C304.497 456.737 304.667 457.097 304.887 457.39C305.107 457.677 305.374 457.897 305.687 458.05C306 458.197 306.354 458.27 306.747 458.27C307.14 458.27 307.457 458.223 307.697 458.13C307.944 458.03 308.15 457.923 308.317 457.81C308.484 457.69 308.627 457.583 308.747 457.49C308.874 457.39 309.014 457.34 309.167 457.34C309.367 457.34 309.517 457.417 309.617 457.57L310.327 458.47C310.054 458.79 309.757 459.06 309.437 459.28C309.117 459.493 308.784 459.667 308.437 459.8C308.097 459.927 307.744 460.017 307.377 460.07C307.01 460.123 306.647 460.15 306.287 460.15C305.654 460.15 305.057 460.033 304.497 459.8C303.937 459.56 303.447 459.213 303.027 458.76C302.614 458.307 302.284 457.753 302.037 457.1C301.797 456.44 301.677 455.69 301.677 454.85C301.677 454.097 301.784 453.4 301.997 452.76C302.217 452.113 302.537 451.557 302.957 451.09C303.377 450.617 303.897 450.247 304.517 449.98C305.137 449.713 305.85 449.58 306.657 449.58C307.424 449.58 308.094 449.703 308.667 449.95C309.247 450.197 309.767 450.55 310.227 451.01L309.577 451.91ZM314.398 445.14V453.65H314.858C315.025 453.65 315.155 453.627 315.248 453.58C315.341 453.533 315.441 453.447 315.548 453.32L318.098 450.17C318.211 450.037 318.331 449.933 318.458 449.86C318.585 449.78 318.751 449.74 318.958 449.74H321.218L318.028 453.55C317.915 453.69 317.798 453.82 317.678 453.94C317.558 454.053 317.428 454.153 317.288 454.24C317.428 454.34 317.551 454.457 317.658 454.59C317.765 454.723 317.871 454.867 317.978 455.02L321.398 460H319.168C318.975 460 318.811 459.967 318.678 459.9C318.545 459.833 318.425 459.72 318.318 459.56L315.708 455.67C315.608 455.517 315.508 455.417 315.408 455.37C315.308 455.323 315.158 455.3 314.958 455.3H314.398V460H311.928V445.14H314.398Z" fill="#111111"/>
<g clip-path="url(#clip1_218_40555)">
<path d="M218 366L211.208 358.459L212.271 348.363L202.339 346.26L197.273 337.459L188 341.603L178.727 337.459L173.661 346.26L163.729 348.363L164.792 358.459L158 366L164.792 373.541L163.729 383.637L173.661 385.74L178.727 394.541L188 390.396L197.273 394.541L202.339 385.74L212.271 383.637L211.208 373.541L218 366ZM200.577 359.431L185.518 376.302L175.054 365.838L177.543 363.349L185.373 371.179L197.951 357.087L200.577 359.431Z" fill="#36D000"/>
</g>
<path d="M92.5 0.00357724H292.5C292.5 0.00357724 290 -0.516816 289.773 10.9956C289.545 22.9868 284.075 27.9832 277.045 27.9832H107.955C100.925 27.9832 95.4545 22.9868 95.2273 10.9956C95 -0.516815 92.5 0.00357724 92.5 0.00357724Z" fill="#F0F0F0"/>
<g opacity="0.1">
<path fill-rule="evenodd" clip-rule="evenodd" d="M337.47 13H350.833C351.4 13 351.943 13.2251 352.344 13.6259C352.745 14.0267 352.97 14.5702 352.97 15.137V19.946C352.97 20.5128 352.745 21.0563 352.344 21.4571C351.943 21.8579 351.4 22.083 350.833 22.083H337.47C336.903 22.083 336.36 21.8579 335.959 21.4571C335.558 21.0563 335.333 20.5128 335.333 19.946V15.137C335.333 14.5702 335.558 14.0267 335.959 13.6259C336.36 13.2251 336.903 13 337.47 13Z" fill="black"/>
</g>
<path d="M354 16V19C354.296 18.8759 354.549 18.6677 354.727 18.4014C354.904 18.1351 355 17.8226 355 17.5028C355.001 17.1821 354.906 16.8683 354.728 16.6009C354.55 16.3336 354.297 16.1245 354 16" fill="#111111"/>
<path d="M338.005 14.603H350.295C350.579 14.603 350.85 14.7157 351.051 14.9161C351.251 15.1166 351.364 15.3885 351.364 15.672V19.412C351.364 19.6955 351.251 19.9674 351.051 20.1679C350.85 20.3684 350.579 20.481 350.295 20.481H338.005C337.722 20.481 337.45 20.3684 337.249 20.1679C337.049 19.9674 336.936 19.6955 336.936 19.412V15.67C336.937 15.3869 337.049 15.1155 337.25 14.9154C337.45 14.7154 337.722 14.603 338.005 14.603V14.603Z" fill="#111111"/>
<path d="M324.774 14.8221C326.55 14.8221 328.258 15.5045 329.545 16.7281C329.592 16.7737 329.654 16.7993 329.719 16.7993C329.784 16.7993 329.846 16.7737 329.892 16.7281L330.819 15.7931C330.843 15.769 330.862 15.7404 330.875 15.709C330.888 15.6776 330.894 15.644 330.894 15.6101C330.894 15.5761 330.887 15.5426 330.874 15.5114C330.861 15.4802 330.841 15.4518 330.817 15.4281C329.191 13.8699 327.026 13 324.774 13C322.522 13 320.357 13.8699 318.731 15.4281C318.707 15.4518 318.688 15.4802 318.675 15.5114C318.661 15.5426 318.655 15.5761 318.654 15.6101C318.654 15.644 318.661 15.6776 318.674 15.709C318.686 15.7404 318.705 15.769 318.729 15.7931L319.656 16.7281C319.703 16.7737 319.765 16.7993 319.83 16.7993C319.895 16.7993 319.957 16.7737 320.003 16.7281C321.291 15.5042 322.999 14.8219 324.775 14.8221H324.774ZM324.774 17.8641C325.75 17.8641 326.691 18.227 327.414 18.8821C327.461 18.9272 327.523 18.9525 327.588 18.9525C327.653 18.9525 327.715 18.9272 327.761 18.8821L328.686 17.9471C328.71 17.9227 328.73 17.8939 328.742 17.8621C328.755 17.8303 328.762 17.7963 328.761 17.7621C328.761 17.7278 328.754 17.694 328.74 17.6626C328.727 17.6312 328.707 17.6028 328.682 17.5791C327.621 16.5915 326.224 16.0425 324.774 16.0425C323.324 16.0425 321.928 16.5915 320.866 17.5791C320.842 17.6028 320.822 17.6312 320.808 17.6626C320.795 17.694 320.788 17.7278 320.787 17.7621C320.787 17.7963 320.793 17.8303 320.806 17.8621C320.819 17.8939 320.838 17.9227 320.862 17.9471L321.787 18.8821C321.834 18.9272 321.896 18.9525 321.961 18.9525C322.026 18.9525 322.088 18.9272 322.134 18.8821C322.857 18.2274 323.797 17.8646 324.772 17.8641H324.774ZM326.553 20.0961C326.578 20.072 326.597 20.0432 326.61 20.0113C326.623 19.9795 326.629 19.9454 326.628 19.9111C326.628 19.8767 326.62 19.8428 326.606 19.8115C326.591 19.7802 326.571 19.7521 326.545 19.7291C326.05 19.3102 325.423 19.0804 324.774 19.0804C324.126 19.0804 323.498 19.3102 323.003 19.7291C322.978 19.752 322.957 19.7798 322.943 19.811C322.929 19.8421 322.921 19.8758 322.92 19.9101C322.919 19.9444 322.926 19.9785 322.939 20.0103C322.952 20.0422 322.971 20.071 322.995 20.0951L324.595 21.7111C324.619 21.7346 324.646 21.7532 324.677 21.7659C324.707 21.7786 324.74 21.7851 324.773 21.7851C324.806 21.7851 324.839 21.7786 324.87 21.7659C324.9 21.7532 324.928 21.7346 324.951 21.7111L326.553 20.0961Z" fill="#111111"/>
<path d="M23.294 18.472C22.97 18.472 22.662 18.418 22.37 18.31C22.082 18.202 21.828 18.044 21.608 17.836C21.388 17.624 21.212 17.366 21.08 17.062C20.952 16.754 20.888 16.402 20.888 16.006C20.888 15.63 20.958 15.278 21.098 14.95C21.238 14.622 21.434 14.336 21.686 14.092C21.938 13.848 22.238 13.656 22.586 13.516C22.934 13.376 23.316 13.306 23.732 13.306C24.144 13.306 24.518 13.374 24.854 13.51C25.19 13.646 25.478 13.836 25.718 14.08C25.958 14.324 26.142 14.616 26.27 14.956C26.402 15.296 26.468 15.672 26.468 16.084C26.468 16.332 26.444 16.568 26.396 16.792C26.352 17.012 26.286 17.228 26.198 17.44C26.11 17.652 26.004 17.864 25.88 18.076C25.76 18.284 25.622 18.5 25.466 18.724L23.372 21.748C23.32 21.824 23.246 21.886 23.15 21.934C23.054 21.978 22.944 22 22.82 22H21.836L24.452 18.574C24.54 18.458 24.622 18.348 24.698 18.244C24.774 18.14 24.846 18.036 24.914 17.932C24.694 18.108 24.446 18.242 24.17 18.334C23.894 18.426 23.602 18.472 23.294 18.472ZM25.442 15.958C25.442 15.69 25.398 15.448 25.31 15.232C25.226 15.012 25.108 14.826 24.956 14.674C24.804 14.522 24.622 14.406 24.41 14.326C24.202 14.242 23.972 14.2 23.72 14.2C23.456 14.2 23.214 14.244 22.994 14.332C22.778 14.416 22.592 14.534 22.436 14.686C22.284 14.838 22.166 15.02 22.082 15.232C21.998 15.444 21.956 15.676 21.956 15.928C21.956 16.2 21.994 16.444 22.07 16.66C22.15 16.872 22.262 17.052 22.406 17.2C22.554 17.348 22.732 17.46 22.94 17.536C23.152 17.612 23.388 17.65 23.648 17.65C23.936 17.65 24.19 17.604 24.41 17.512C24.634 17.416 24.822 17.29 24.974 17.134C25.126 16.978 25.242 16.798 25.322 16.594C25.402 16.39 25.442 16.178 25.442 15.958ZM27.7289 21.34C27.7289 21.236 27.7469 21.138 27.7829 21.046C27.8229 20.954 27.8749 20.874 27.9389 20.806C28.0069 20.738 28.0869 20.684 28.1789 20.644C28.2709 20.604 28.3689 20.584 28.4729 20.584C28.5769 20.584 28.6749 20.604 28.7669 20.644C28.8589 20.684 28.9389 20.738 29.0069 20.806C29.0749 20.874 29.1269 20.954 29.1629 21.046C29.2029 21.138 29.2229 21.236 29.2229 21.34C29.2229 21.448 29.2029 21.548 29.1629 21.64C29.1269 21.728 29.0749 21.806 29.0069 21.874C28.9389 21.942 28.8589 21.994 28.7669 22.03C28.6749 22.07 28.5769 22.09 28.4729 22.09C28.3689 22.09 28.2709 22.07 28.1789 22.03C28.0869 21.994 28.0069 21.942 27.9389 21.874C27.8749 21.806 27.8229 21.728 27.7829 21.64C27.7469 21.548 27.7289 21.448 27.7289 21.34ZM27.7289 16.84C27.7289 16.736 27.7469 16.638 27.7829 16.546C27.8229 16.454 27.8749 16.374 27.9389 16.306C28.0069 16.238 28.0869 16.184 28.1789 16.144C28.2709 16.104 28.3689 16.084 28.4729 16.084C28.5769 16.084 28.6749 16.104 28.7669 16.144C28.8589 16.184 28.9389 16.238 29.0069 16.306C29.0749 16.374 29.1269 16.454 29.1629 16.546C29.2029 16.638 29.2229 16.736 29.2229 16.84C29.2229 16.948 29.2029 17.048 29.1629 17.14C29.1269 17.228 29.0749 17.306 29.0069 17.374C28.9389 17.442 28.8589 17.496 28.7669 17.536C28.6749 17.572 28.5769 17.59 28.4729 17.59C28.3689 17.59 28.2709 17.572 28.1789 17.536C28.0869 17.496 28.0069 17.442 27.9389 17.374C27.8749 17.306 27.8229 17.228 27.7829 17.14C27.7469 17.048 27.7289 16.948 27.7289 16.84ZM35.4024 18.898H36.7044V19.51C36.7044 19.574 36.6844 19.628 36.6444 19.672C36.6084 19.716 36.5504 19.738 36.4704 19.738H35.4024V22H34.4604V19.738H30.6504C30.5704 19.738 30.5004 19.716 30.4404 19.672C30.3844 19.624 30.3484 19.566 30.3324 19.498L30.2244 18.952L34.4064 13.402H35.4024V18.898ZM34.4604 15.352C34.4604 15.248 34.4624 15.136 34.4664 15.016C34.4744 14.896 34.4884 14.772 34.5084 14.644L31.3824 18.898H34.4604V15.352ZM38.6673 21.184H40.5153V15.322C40.5153 15.146 40.5213 14.968 40.5333 14.788L38.9973 16.102C38.9573 16.134 38.9173 16.158 38.8773 16.174C38.8373 16.186 38.7993 16.192 38.7633 16.192C38.7033 16.192 38.6493 16.18 38.6013 16.156C38.5533 16.128 38.5173 16.096 38.4933 16.06L38.1573 15.598L40.7133 13.384H41.5833V21.184H43.2753V22H38.6673V21.184Z" fill="#111111"/>
<path d="M301.8 18.34H302.6C302.812 18.34 303.016 18.4243 303.166 18.5743C303.316 18.7243 303.4 18.9278 303.4 19.14V20.74C303.4 20.9522 303.316 21.1557 303.166 21.3057C303.016 21.4557 302.812 21.54 302.6 21.54H301.8C301.588 21.54 301.384 21.4557 301.234 21.3057C301.084 21.1557 301 20.9522 301 20.74V19.14C301 18.9278 301.084 18.7243 301.234 18.5743C301.384 18.4243 301.588 18.34 301.8 18.34V18.34ZM305.54 16.74H306.34C306.552 16.74 306.756 16.8243 306.906 16.9743C307.056 17.1243 307.14 17.3278 307.14 17.54V20.746C307.14 20.8511 307.119 20.9551 307.079 21.0521C307.039 21.1492 306.98 21.2374 306.906 21.3117C306.831 21.386 306.743 21.4449 306.646 21.4851C306.549 21.5253 306.445 21.546 306.34 21.546H305.54C305.435 21.546 305.331 21.5253 305.234 21.4851C305.137 21.4449 305.049 21.386 304.974 21.3117C304.9 21.2374 304.841 21.1492 304.801 21.0521C304.761 20.9551 304.74 20.8511 304.74 20.746V17.54C304.74 17.4347 304.76 17.3303 304.8 17.2329C304.84 17.1355 304.899 17.047 304.973 16.9724C305.048 16.8978 305.136 16.8386 305.233 16.7982C305.33 16.7578 305.435 16.737 305.54 16.737V16.74ZM309.28 14.87H310.08C310.185 14.87 310.289 14.8907 310.386 14.9309C310.483 14.9711 310.571 15.03 310.646 15.1043C310.72 15.1786 310.779 15.2668 310.819 15.3639C310.859 15.4609 310.88 15.5649 310.88 15.67V20.746C310.88 20.8511 310.859 20.9551 310.819 21.0521C310.779 21.1492 310.72 21.2374 310.646 21.3117C310.571 21.386 310.483 21.4449 310.386 21.4851C310.289 21.5253 310.185 21.546 310.08 21.546H309.28C309.175 21.546 309.071 21.5253 308.974 21.4851C308.877 21.4449 308.789 21.386 308.714 21.3117C308.64 21.2374 308.581 21.1492 308.541 21.0521C308.501 20.9551 308.48 20.8511 308.48 20.746V15.67C308.48 15.5646 308.5 15.4602 308.54 15.3627C308.58 15.2652 308.639 15.1766 308.714 15.102C308.788 15.0274 308.876 14.9682 308.974 14.9279C309.071 14.8876 309.176 14.8669 309.281 14.867L309.28 14.87ZM313.02 13H313.82C314.032 13 314.236 13.0843 314.386 13.2343C314.536 13.3843 314.62 13.5878 314.62 13.8V20.746C314.62 20.9582 314.536 21.1617 314.386 21.3117C314.236 21.4617 314.032 21.546 313.82 21.546H313.02C312.915 21.546 312.811 21.5253 312.714 21.4851C312.617 21.4449 312.529 21.386 312.454 21.3117C312.38 21.2374 312.321 21.1492 312.281 21.0521C312.241 20.9551 312.22 20.8511 312.22 20.746V13.8C312.22 13.6949 312.241 13.5909 312.281 13.4939C312.321 13.3968 312.38 13.3086 312.454 13.2343C312.529 13.16 312.617 13.1011 312.714 13.0609C312.811 13.0207 312.915 13 313.02 13V13Z" fill="#111111"/>
<rect x="32.5" y="615.5" width="311" height="62" rx="31" stroke="#5B5B5B"/>
<path d="M101.411 653.02C102.017 653.02 102.544 652.967 102.991 652.86C103.444 652.747 103.874 652.593 104.281 652.4V649.77H102.471C102.297 649.77 102.161 649.723 102.061 649.63C101.961 649.53 101.911 649.41 101.911 649.27V647.75H106.721V653.6C106.354 653.867 105.971 654.1 105.571 654.3C105.177 654.493 104.754 654.653 104.301 654.78C103.854 654.907 103.374 655 102.861 655.06C102.347 655.127 101.794 655.16 101.201 655.16C100.147 655.16 99.1772 654.977 98.2905 654.61C97.4039 654.243 96.6372 653.733 95.9905 653.08C95.3439 652.427 94.8372 651.647 94.4705 650.74C94.1105 649.833 93.9305 648.843 93.9305 647.77C93.9305 646.683 94.1072 645.687 94.4605 644.78C94.8139 643.873 95.3139 643.093 95.9605 642.44C96.6139 641.787 97.4039 641.28 98.3305 640.92C99.2572 640.56 100.297 640.38 101.451 640.38C102.631 640.38 103.651 640.557 104.511 640.91C105.377 641.257 106.111 641.71 106.711 642.27L105.931 643.49C105.777 643.737 105.574 643.86 105.321 643.86C105.161 643.86 104.997 643.807 104.831 643.7C104.617 643.573 104.397 643.447 104.171 643.32C103.951 643.193 103.704 643.083 103.431 642.99C103.164 642.897 102.861 642.82 102.521 642.76C102.187 642.7 101.801 642.67 101.361 642.67C100.647 642.67 100.001 642.79 99.4205 643.03C98.8472 643.27 98.3572 643.613 97.9505 644.06C97.5439 644.507 97.2305 645.043 97.0105 645.67C96.7905 646.297 96.6805 646.997 96.6805 647.77C96.6805 648.603 96.7972 649.347 97.0305 650C97.2639 650.647 97.5905 651.193 98.0105 651.64C98.4305 652.087 98.9305 652.43 99.5105 652.67C100.091 652.903 100.724 653.02 101.411 653.02ZM113.464 644.58C114.23 644.58 114.924 644.703 115.544 644.95C116.17 645.197 116.704 645.547 117.144 646C117.584 646.453 117.924 647.007 118.164 647.66C118.404 648.313 118.524 649.043 118.524 649.85C118.524 650.663 118.404 651.397 118.164 652.05C117.924 652.703 117.584 653.26 117.144 653.72C116.704 654.18 116.17 654.533 115.544 654.78C114.924 655.027 114.23 655.15 113.464 655.15C112.697 655.15 112 655.027 111.374 654.78C110.747 654.533 110.21 654.18 109.764 653.72C109.324 653.26 108.98 652.703 108.734 652.05C108.494 651.397 108.374 650.663 108.374 649.85C108.374 649.043 108.494 648.313 108.734 647.66C108.98 647.007 109.324 646.453 109.764 646C110.21 645.547 110.747 645.197 111.374 644.95C112 644.703 112.697 644.58 113.464 644.58ZM113.464 653.25C114.317 653.25 114.947 652.963 115.354 652.39C115.767 651.817 115.974 650.977 115.974 649.87C115.974 648.763 115.767 647.92 115.354 647.34C114.947 646.76 114.317 646.47 113.464 646.47C112.597 646.47 111.957 646.763 111.544 647.35C111.13 647.93 110.924 648.77 110.924 649.87C110.924 650.97 111.13 651.81 111.544 652.39C111.957 652.963 112.597 653.25 113.464 653.25ZM127.688 655.16C126.801 655.16 126.118 654.91 125.638 654.41C125.158 653.903 124.918 653.207 124.918 652.32V646.59H123.878C123.745 646.59 123.628 646.547 123.528 646.46C123.435 646.373 123.388 646.243 123.388 646.07V645.09L125.038 644.82L125.558 642.02C125.585 641.887 125.645 641.783 125.738 641.71C125.838 641.637 125.961 641.6 126.108 641.6H127.388V644.83H130.088V646.59H127.388V652.15C127.388 652.47 127.468 652.72 127.628 652.9C127.788 653.08 128.001 653.17 128.268 653.17C128.421 653.17 128.548 653.153 128.648 653.12C128.755 653.08 128.845 653.04 128.918 653C128.998 652.96 129.068 652.923 129.128 652.89C129.188 652.85 129.248 652.83 129.308 652.83C129.381 652.83 129.441 652.85 129.488 652.89C129.535 652.923 129.585 652.977 129.638 653.05L130.378 654.25C130.018 654.55 129.605 654.777 129.138 654.93C128.671 655.083 128.188 655.16 127.688 655.16ZM136.432 644.58C137.199 644.58 137.892 644.703 138.512 644.95C139.139 645.197 139.672 645.547 140.112 646C140.552 646.453 140.892 647.007 141.132 647.66C141.372 648.313 141.492 649.043 141.492 649.85C141.492 650.663 141.372 651.397 141.132 652.05C140.892 652.703 140.552 653.26 140.112 653.72C139.672 654.18 139.139 654.533 138.512 654.78C137.892 655.027 137.199 655.15 136.432 655.15C135.666 655.15 134.969 655.027 134.342 654.78C133.716 654.533 133.179 654.18 132.732 653.72C132.292 653.26 131.949 652.703 131.702 652.05C131.462 651.397 131.342 650.663 131.342 649.85C131.342 649.043 131.462 648.313 131.702 647.66C131.949 647.007 132.292 646.453 132.732 646C133.179 645.547 133.716 645.197 134.342 644.95C134.969 644.703 135.666 644.58 136.432 644.58ZM136.432 653.25C137.286 653.25 137.916 652.963 138.322 652.39C138.736 651.817 138.942 650.977 138.942 649.87C138.942 648.763 138.736 647.92 138.322 647.34C137.916 646.76 137.286 646.47 136.432 646.47C135.566 646.47 134.926 646.763 134.512 647.35C134.099 647.93 133.892 648.77 133.892 649.87C133.892 650.97 134.099 651.81 134.512 652.39C134.926 652.963 135.566 653.25 136.432 653.25ZM160.137 655H158.057C157.823 655 157.63 654.943 157.477 654.83C157.33 654.71 157.223 654.563 157.157 654.39L156.077 651.44H150.087L149.007 654.39C148.953 654.543 148.847 654.683 148.687 654.81C148.533 654.937 148.343 655 148.117 655H146.027L151.707 640.54H154.457L160.137 655ZM150.777 649.54H155.387L153.627 644.73C153.547 644.517 153.457 644.267 153.357 643.98C153.263 643.687 153.17 643.37 153.077 643.03C152.983 643.37 152.89 643.687 152.797 643.98C152.71 644.273 152.623 644.53 152.537 644.75L150.777 649.54ZM168.696 646.91C168.623 647.003 168.549 647.077 168.476 647.13C168.409 647.183 168.309 647.21 168.176 647.21C168.049 647.21 167.926 647.173 167.806 647.1C167.686 647.02 167.543 646.933 167.376 646.84C167.209 646.74 167.009 646.653 166.776 646.58C166.549 646.5 166.266 646.46 165.926 646.46C165.493 646.46 165.113 646.54 164.786 646.7C164.459 646.853 164.186 647.077 163.966 647.37C163.753 647.663 163.593 648.02 163.486 648.44C163.379 648.853 163.326 649.323 163.326 649.85C163.326 650.397 163.383 650.883 163.496 651.31C163.616 651.737 163.786 652.097 164.006 652.39C164.226 652.677 164.493 652.897 164.806 653.05C165.119 653.197 165.473 653.27 165.866 653.27C166.259 653.27 166.576 653.223 166.816 653.13C167.063 653.03 167.269 652.923 167.436 652.81C167.603 652.69 167.746 652.583 167.866 652.49C167.993 652.39 168.133 652.34 168.286 652.34C168.486 652.34 168.636 652.417 168.736 652.57L169.446 653.47C169.173 653.79 168.876 654.06 168.556 654.28C168.236 654.493 167.903 654.667 167.556 654.8C167.216 654.927 166.863 655.017 166.496 655.07C166.129 655.123 165.766 655.15 165.406 655.15C164.773 655.15 164.176 655.033 163.616 654.8C163.056 654.56 162.566 654.213 162.146 653.76C161.733 653.307 161.403 652.753 161.156 652.1C160.916 651.44 160.796 650.69 160.796 649.85C160.796 649.097 160.903 648.4 161.116 647.76C161.336 647.113 161.656 646.557 162.076 646.09C162.496 645.617 163.016 645.247 163.636 644.98C164.256 644.713 164.969 644.58 165.776 644.58C166.543 644.58 167.213 644.703 167.786 644.95C168.366 645.197 168.886 645.55 169.346 646.01L168.696 646.91ZM178.227 646.91C178.154 647.003 178.081 647.077 178.007 647.13C177.941 647.183 177.841 647.21 177.707 647.21C177.581 647.21 177.457 647.173 177.337 647.1C177.217 647.02 177.074 646.933 176.907 646.84C176.741 646.74 176.541 646.653 176.307 646.58C176.081 646.5 175.797 646.46 175.457 646.46C175.024 646.46 174.644 646.54 174.317 646.7C173.991 646.853 173.717 647.077 173.497 647.37C173.284 647.663 173.124 648.02 173.017 648.44C172.911 648.853 172.857 649.323 172.857 649.85C172.857 650.397 172.914 650.883 173.027 651.31C173.147 651.737 173.317 652.097 173.537 652.39C173.757 652.677 174.024 652.897 174.337 653.05C174.651 653.197 175.004 653.27 175.397 653.27C175.791 653.27 176.107 653.223 176.347 653.13C176.594 653.03 176.801 652.923 176.967 652.81C177.134 652.69 177.277 652.583 177.397 652.49C177.524 652.39 177.664 652.34 177.817 652.34C178.017 652.34 178.167 652.417 178.267 652.57L178.977 653.47C178.704 653.79 178.407 654.06 178.087 654.28C177.767 654.493 177.434 654.667 177.087 654.8C176.747 654.927 176.394 655.017 176.027 655.07C175.661 655.123 175.297 655.15 174.937 655.15C174.304 655.15 173.707 655.033 173.147 654.8C172.587 654.56 172.097 654.213 171.677 653.76C171.264 653.307 170.934 652.753 170.687 652.1C170.447 651.44 170.327 650.69 170.327 649.85C170.327 649.097 170.434 648.4 170.647 647.76C170.867 647.113 171.187 646.557 171.607 646.09C172.027 645.617 172.547 645.247 173.167 644.98C173.787 644.713 174.501 644.58 175.307 644.58C176.074 644.58 176.744 644.703 177.317 644.95C177.897 645.197 178.417 645.55 178.877 646.01L178.227 646.91ZM184.929 644.58C185.695 644.58 186.389 644.703 187.009 644.95C187.635 645.197 188.169 645.547 188.609 646C189.049 646.453 189.389 647.007 189.629 647.66C189.869 648.313 189.989 649.043 189.989 649.85C189.989 650.663 189.869 651.397 189.629 652.05C189.389 652.703 189.049 653.26 188.609 653.72C188.169 654.18 187.635 654.533 187.009 654.78C186.389 655.027 185.695 655.15 184.929 655.15C184.162 655.15 183.465 655.027 182.839 654.78C182.212 654.533 181.675 654.18 181.229 653.72C180.789 653.26 180.445 652.703 180.199 652.05C179.959 651.397 179.839 650.663 179.839 649.85C179.839 649.043 179.959 648.313 180.199 647.66C180.445 647.007 180.789 646.453 181.229 646C181.675 645.547 182.212 645.197 182.839 644.95C183.465 644.703 184.162 644.58 184.929 644.58ZM184.929 653.25C185.782 653.25 186.412 652.963 186.819 652.39C187.232 651.817 187.439 650.977 187.439 649.87C187.439 648.763 187.232 647.92 186.819 647.34C186.412 646.76 185.782 646.47 184.929 646.47C184.062 646.47 183.422 646.763 183.009 647.35C182.595 647.93 182.389 648.77 182.389 649.87C182.389 650.97 182.595 651.81 183.009 652.39C183.422 652.963 184.062 653.25 184.929 653.25ZM194.176 644.74V651.26C194.176 651.887 194.319 652.373 194.606 652.72C194.899 653.06 195.336 653.23 195.916 653.23C196.342 653.23 196.742 653.137 197.116 652.95C197.489 652.757 197.842 652.493 198.176 652.16V644.74H200.646V655H199.136C198.816 655 198.606 654.85 198.506 654.55L198.336 653.73C198.122 653.943 197.902 654.14 197.676 654.32C197.449 654.493 197.206 654.643 196.946 654.77C196.692 654.89 196.416 654.983 196.116 655.05C195.822 655.123 195.506 655.16 195.166 655.16C194.606 655.16 194.109 655.067 193.676 654.88C193.249 654.687 192.889 654.417 192.596 654.07C192.302 653.723 192.079 653.313 191.926 652.84C191.779 652.36 191.706 651.833 191.706 651.26V644.74H194.176ZM203.283 655V644.74H204.793C205.113 644.74 205.323 644.89 205.423 645.19L205.593 646C205.8 645.787 206.016 645.593 206.243 645.42C206.476 645.247 206.72 645.097 206.973 644.97C207.233 644.843 207.51 644.747 207.803 644.68C208.096 644.613 208.416 644.58 208.763 644.58C209.323 644.58 209.82 644.677 210.253 644.87C210.686 645.057 211.046 645.323 211.333 645.67C211.626 646.01 211.846 646.42 211.993 646.9C212.146 647.373 212.223 647.897 212.223 648.47V655H209.753V648.47C209.753 647.843 209.606 647.36 209.313 647.02C209.026 646.673 208.593 646.5 208.013 646.5C207.586 646.5 207.186 646.597 206.813 646.79C206.44 646.983 206.086 647.247 205.753 647.58V655H203.283ZM218.02 655.16C217.133 655.16 216.45 654.91 215.97 654.41C215.49 653.903 215.25 653.207 215.25 652.32V646.59H214.21C214.077 646.59 213.96 646.547 213.86 646.46C213.767 646.373 213.72 646.243 213.72 646.07V645.09L215.37 644.82L215.89 642.02C215.917 641.887 215.977 641.783 216.07 641.71C216.17 641.637 216.293 641.6 216.44 641.6H217.72V644.83H220.42V646.59H217.72V652.15C217.72 652.47 217.8 652.72 217.96 652.9C218.12 653.08 218.333 653.17 218.6 653.17C218.753 653.17 218.88 653.153 218.98 653.12C219.087 653.08 219.177 653.04 219.25 653C219.33 652.96 219.4 652.923 219.46 652.89C219.52 652.85 219.58 652.83 219.64 652.83C219.713 652.83 219.773 652.85 219.82 652.89C219.867 652.923 219.917 652.977 219.97 653.05L220.71 654.25C220.35 654.55 219.937 654.777 219.47 654.93C219.003 655.083 218.52 655.16 218.02 655.16ZM234.142 643.17C234.068 643.317 233.982 643.42 233.882 643.48C233.788 643.54 233.675 643.57 233.542 643.57C233.408 643.57 233.258 643.52 233.092 643.42C232.925 643.313 232.728 643.197 232.502 643.07C232.275 642.943 232.008 642.83 231.702 642.73C231.402 642.623 231.045 642.57 230.632 642.57C230.258 642.57 229.932 642.617 229.652 642.71C229.378 642.797 229.145 642.92 228.952 643.08C228.765 643.24 228.625 643.433 228.532 643.66C228.438 643.88 228.392 644.123 228.392 644.39C228.392 644.73 228.485 645.013 228.672 645.24C228.865 645.467 229.118 645.66 229.432 645.82C229.745 645.98 230.102 646.123 230.502 646.25C230.902 646.377 231.308 646.513 231.722 646.66C232.142 646.8 232.552 646.967 232.952 647.16C233.352 647.347 233.708 647.587 234.022 647.88C234.335 648.167 234.585 648.52 234.772 648.94C234.965 649.36 235.062 649.87 235.062 650.47C235.062 651.123 234.948 651.737 234.722 652.31C234.502 652.877 234.175 653.373 233.742 653.8C233.315 654.22 232.792 654.553 232.172 654.8C231.552 655.04 230.842 655.16 230.042 655.16C229.582 655.16 229.128 655.113 228.682 655.02C228.235 654.933 227.805 654.807 227.392 654.64C226.985 654.473 226.602 654.273 226.242 654.04C225.888 653.807 225.572 653.547 225.292 653.26L226.072 651.97C226.145 651.877 226.232 651.8 226.332 651.74C226.438 651.673 226.555 651.64 226.682 651.64C226.848 651.64 227.028 651.71 227.222 651.85C227.415 651.983 227.642 652.133 227.902 652.3C228.168 652.467 228.478 652.62 228.832 652.76C229.192 652.893 229.622 652.96 230.122 652.96C230.888 652.96 231.482 652.78 231.902 652.42C232.322 652.053 232.532 651.53 232.532 650.85C232.532 650.47 232.435 650.16 232.242 649.92C232.055 649.68 231.805 649.48 231.492 649.32C231.178 649.153 230.822 649.013 230.422 648.9C230.022 648.787 229.615 648.663 229.202 648.53C228.788 648.397 228.382 648.237 227.982 648.05C227.582 647.863 227.225 647.62 226.912 647.32C226.598 647.02 226.345 646.647 226.152 646.2C225.965 645.747 225.872 645.19 225.872 644.53C225.872 644.003 225.975 643.49 226.182 642.99C226.395 642.49 226.702 642.047 227.102 641.66C227.508 641.273 228.005 640.963 228.592 640.73C229.178 640.497 229.848 640.38 230.602 640.38C231.455 640.38 232.242 640.513 232.962 640.78C233.682 641.047 234.295 641.42 234.802 641.9L234.142 643.17ZM240.344 655.16C239.458 655.16 238.774 654.91 238.294 654.41C237.814 653.903 237.574 653.207 237.574 652.32V646.59H236.534C236.401 646.59 236.284 646.547 236.184 646.46C236.091 646.373 236.044 646.243 236.044 646.07V645.09L237.694 644.82L238.214 642.02C238.241 641.887 238.301 641.783 238.394 641.71C238.494 641.637 238.618 641.6 238.764 641.6H240.044V644.83H242.744V646.59H240.044V652.15C240.044 652.47 240.124 652.72 240.284 652.9C240.444 653.08 240.658 653.17 240.924 653.17C241.078 653.17 241.204 653.153 241.304 653.12C241.411 653.08 241.501 653.04 241.574 653C241.654 652.96 241.724 652.923 241.784 652.89C241.844 652.85 241.904 652.83 241.964 652.83C242.038 652.83 242.098 652.85 242.144 652.89C242.191 652.923 242.241 652.977 242.294 653.05L243.034 654.25C242.674 654.55 242.261 654.777 241.794 654.93C241.328 655.083 240.844 655.16 240.344 655.16ZM252.749 655H251.639C251.405 655 251.222 654.967 251.089 654.9C250.955 654.827 250.855 654.683 250.789 654.47L250.569 653.74C250.309 653.973 250.052 654.18 249.799 654.36C249.552 654.533 249.295 654.68 249.029 654.8C248.762 654.92 248.479 655.01 248.179 655.07C247.879 655.13 247.545 655.16 247.179 655.16C246.745 655.16 246.345 655.103 245.979 654.99C245.612 654.87 245.295 654.693 245.029 654.46C244.769 654.227 244.565 653.937 244.419 653.59C244.272 653.243 244.199 652.84 244.199 652.38C244.199 651.993 244.299 651.613 244.499 651.24C244.705 650.86 245.045 650.52 245.519 650.22C245.992 649.913 246.622 649.66 247.409 649.46C248.195 649.26 249.172 649.147 250.339 649.12V648.52C250.339 647.833 250.192 647.327 249.899 647C249.612 646.667 249.192 646.5 248.639 646.5C248.239 646.5 247.905 646.547 247.639 646.64C247.372 646.733 247.139 646.84 246.939 646.96C246.745 647.073 246.565 647.177 246.399 647.27C246.232 647.363 246.049 647.41 245.849 647.41C245.682 647.41 245.539 647.367 245.419 647.28C245.299 647.193 245.202 647.087 245.129 646.96L244.679 646.17C245.859 645.09 247.282 644.55 248.949 644.55C249.549 644.55 250.082 644.65 250.549 644.85C251.022 645.043 251.422 645.317 251.749 645.67C252.075 646.017 252.322 646.433 252.489 646.92C252.662 647.407 252.749 647.94 252.749 648.52V655ZM247.949 653.46C248.202 653.46 248.435 653.437 248.649 653.39C248.862 653.343 249.062 653.273 249.249 653.18C249.442 653.087 249.625 652.973 249.799 652.84C249.979 652.7 250.159 652.537 250.339 652.35V650.62C249.619 650.653 249.015 650.717 248.529 650.81C248.049 650.897 247.662 651.01 247.369 651.15C247.075 651.29 246.865 651.453 246.739 651.64C246.619 651.827 246.559 652.03 246.559 652.25C246.559 652.683 246.685 652.993 246.939 653.18C247.199 653.367 247.535 653.46 247.949 653.46ZM258.547 655.16C257.661 655.16 256.977 654.91 256.497 654.41C256.017 653.903 255.777 653.207 255.777 652.32V646.59H254.737C254.604 646.59 254.487 646.547 254.387 646.46C254.294 646.373 254.247 646.243 254.247 646.07V645.09L255.897 644.82L256.417 642.02C256.444 641.887 256.504 641.783 256.597 641.71C256.697 641.637 256.821 641.6 256.967 641.6H258.247V644.83H260.947V646.59H258.247V652.15C258.247 652.47 258.327 652.72 258.487 652.9C258.647 653.08 258.861 653.17 259.127 653.17C259.281 653.17 259.407 653.153 259.507 653.12C259.614 653.08 259.704 653.04 259.777 653C259.857 652.96 259.927 652.923 259.987 652.89C260.047 652.85 260.107 652.83 260.167 652.83C260.241 652.83 260.301 652.85 260.347 652.89C260.394 652.923 260.444 652.977 260.497 653.05L261.237 654.25C260.877 654.55 260.464 654.777 259.997 654.93C259.531 655.083 259.047 655.16 258.547 655.16ZM265.172 644.74V651.26C265.172 651.887 265.315 652.373 265.602 652.72C265.895 653.06 266.332 653.23 266.912 653.23C267.338 653.23 267.738 653.137 268.112 652.95C268.485 652.757 268.838 652.493 269.172 652.16V644.74H271.642V655H270.132C269.812 655 269.602 654.85 269.502 654.55L269.332 653.73C269.118 653.943 268.898 654.14 268.672 654.32C268.445 654.493 268.202 654.643 267.942 654.77C267.688 654.89 267.412 654.983 267.112 655.05C266.818 655.123 266.502 655.16 266.162 655.16C265.602 655.16 265.105 655.067 264.672 654.88C264.245 654.687 263.885 654.417 263.592 654.07C263.298 653.723 263.075 653.313 262.922 652.84C262.775 652.36 262.702 651.833 262.702 651.26V644.74H265.172ZM280.369 646.74C280.302 646.847 280.232 646.923 280.159 646.97C280.086 647.01 279.992 647.03 279.879 647.03C279.759 647.03 279.629 646.997 279.489 646.93C279.356 646.863 279.199 646.79 279.019 646.71C278.839 646.623 278.632 646.547 278.399 646.48C278.172 646.413 277.902 646.38 277.589 646.38C277.102 646.38 276.719 646.483 276.439 646.69C276.159 646.897 276.019 647.167 276.019 647.5C276.019 647.72 276.089 647.907 276.229 648.06C276.376 648.207 276.566 648.337 276.799 648.45C277.039 648.563 277.309 648.667 277.609 648.76C277.909 648.847 278.216 648.943 278.529 649.05C278.842 649.157 279.149 649.28 279.449 649.42C279.749 649.553 280.016 649.727 280.249 649.94C280.489 650.147 280.679 650.397 280.819 650.69C280.966 650.983 281.039 651.337 281.039 651.75C281.039 652.243 280.949 652.7 280.769 653.12C280.589 653.533 280.326 653.893 279.979 654.2C279.632 654.5 279.202 654.737 278.689 654.91C278.182 655.077 277.599 655.16 276.939 655.16C276.586 655.16 276.239 655.127 275.899 655.06C275.566 655 275.242 654.913 274.929 654.8C274.622 654.687 274.336 654.553 274.069 654.4C273.809 654.247 273.579 654.08 273.379 653.9L273.949 652.96C274.022 652.847 274.109 652.76 274.209 652.7C274.309 652.64 274.436 652.61 274.589 652.61C274.742 652.61 274.886 652.653 275.019 652.74C275.159 652.827 275.319 652.92 275.499 653.02C275.679 653.12 275.889 653.213 276.129 653.3C276.376 653.387 276.686 653.43 277.059 653.43C277.352 653.43 277.602 653.397 277.809 653.33C278.022 653.257 278.196 653.163 278.329 653.05C278.469 652.937 278.569 652.807 278.629 652.66C278.696 652.507 278.729 652.35 278.729 652.19C278.729 651.95 278.656 651.753 278.509 651.6C278.369 651.447 278.179 651.313 277.939 651.2C277.706 651.087 277.436 650.987 277.129 650.9C276.829 650.807 276.519 650.707 276.199 650.6C275.886 650.493 275.576 650.37 275.269 650.23C274.969 650.083 274.699 649.9 274.459 649.68C274.226 649.46 274.036 649.19 273.889 648.87C273.749 648.55 273.679 648.163 273.679 647.71C273.679 647.29 273.762 646.89 273.929 646.51C274.096 646.13 274.339 645.8 274.659 645.52C274.986 645.233 275.389 645.007 275.869 644.84C276.356 644.667 276.916 644.58 277.549 644.58C278.256 644.58 278.899 644.697 279.479 644.93C280.059 645.163 280.542 645.47 280.929 645.85L280.369 646.74Z" fill="#111111"/>
<rect x="32" y="689" width="312" height="60" rx="30" fill="black"/>
<path d="M125.248 725.02C125.855 725.02 126.382 724.967 126.828 724.86C127.282 724.747 127.712 724.593 128.118 724.4V721.77H126.308C126.135 721.77 125.998 721.723 125.898 721.63C125.798 721.53 125.748 721.41 125.748 721.27V719.75H130.558V725.6C130.192 725.867 129.808 726.1 129.408 726.3C129.015 726.493 128.592 726.653 128.138 726.78C127.692 726.907 127.212 727 126.698 727.06C126.185 727.127 125.632 727.16 125.038 727.16C123.985 727.16 123.015 726.977 122.128 726.61C121.242 726.243 120.475 725.733 119.828 725.08C119.182 724.427 118.675 723.647 118.308 722.74C117.948 721.833 117.768 720.843 117.768 719.77C117.768 718.683 117.945 717.687 118.298 716.78C118.652 715.873 119.152 715.093 119.798 714.44C120.452 713.787 121.242 713.28 122.168 712.92C123.095 712.56 124.135 712.38 125.288 712.38C126.468 712.38 127.488 712.557 128.348 712.91C129.215 713.257 129.948 713.71 130.548 714.27L129.768 715.49C129.615 715.737 129.412 715.86 129.158 715.86C128.998 715.86 128.835 715.807 128.668 715.7C128.455 715.573 128.235 715.447 128.008 715.32C127.788 715.193 127.542 715.083 127.268 714.99C127.002 714.897 126.698 714.82 126.358 714.76C126.025 714.7 125.638 714.67 125.198 714.67C124.485 714.67 123.838 714.79 123.258 715.03C122.685 715.27 122.195 715.613 121.788 716.06C121.382 716.507 121.068 717.043 120.848 717.67C120.628 718.297 120.518 718.997 120.518 719.77C120.518 720.603 120.635 721.347 120.868 722C121.102 722.647 121.428 723.193 121.848 723.64C122.268 724.087 122.768 724.43 123.348 724.67C123.928 724.903 124.562 725.02 125.248 725.02ZM137.302 716.58C138.068 716.58 138.762 716.703 139.382 716.95C140.008 717.197 140.542 717.547 140.982 718C141.422 718.453 141.762 719.007 142.002 719.66C142.242 720.313 142.362 721.043 142.362 721.85C142.362 722.663 142.242 723.397 142.002 724.05C141.762 724.703 141.422 725.26 140.982 725.72C140.542 726.18 140.008 726.533 139.382 726.78C138.762 727.027 138.068 727.15 137.302 727.15C136.535 727.15 135.838 727.027 135.212 726.78C134.585 726.533 134.048 726.18 133.602 725.72C133.162 725.26 132.818 724.703 132.572 724.05C132.332 723.397 132.212 722.663 132.212 721.85C132.212 721.043 132.332 720.313 132.572 719.66C132.818 719.007 133.162 718.453 133.602 718C134.048 717.547 134.585 717.197 135.212 716.95C135.838 716.703 136.535 716.58 137.302 716.58ZM137.302 725.25C138.155 725.25 138.785 724.963 139.192 724.39C139.605 723.817 139.812 722.977 139.812 721.87C139.812 720.763 139.605 719.92 139.192 719.34C138.785 718.76 138.155 718.47 137.302 718.47C136.435 718.47 135.795 718.763 135.382 719.35C134.968 719.93 134.762 720.77 134.762 721.87C134.762 722.97 134.968 723.81 135.382 724.39C135.795 724.963 136.435 725.25 137.302 725.25ZM151.526 727.16C150.639 727.16 149.956 726.91 149.476 726.41C148.996 725.903 148.756 725.207 148.756 724.32V718.59H147.716C147.583 718.59 147.466 718.547 147.366 718.46C147.273 718.373 147.226 718.243 147.226 718.07V717.09L148.876 716.82L149.396 714.02C149.423 713.887 149.483 713.783 149.576 713.71C149.676 713.637 149.799 713.6 149.946 713.6H151.226V716.83H153.926V718.59H151.226V724.15C151.226 724.47 151.306 724.72 151.466 724.9C151.626 725.08 151.839 725.17 152.106 725.17C152.259 725.17 152.386 725.153 152.486 725.12C152.593 725.08 152.683 725.04 152.756 725C152.836 724.96 152.906 724.923 152.966 724.89C153.026 724.85 153.086 724.83 153.146 724.83C153.219 724.83 153.279 724.85 153.326 724.89C153.373 724.923 153.423 724.977 153.476 725.05L154.216 726.25C153.856 726.55 153.443 726.777 152.976 726.93C152.509 727.083 152.026 727.16 151.526 727.16ZM160.27 716.58C161.037 716.58 161.73 716.703 162.35 716.95C162.977 717.197 163.51 717.547 163.95 718C164.39 718.453 164.73 719.007 164.97 719.66C165.21 720.313 165.33 721.043 165.33 721.85C165.33 722.663 165.21 723.397 164.97 724.05C164.73 724.703 164.39 725.26 163.95 725.72C163.51 726.18 162.977 726.533 162.35 726.78C161.73 727.027 161.037 727.15 160.27 727.15C159.504 727.15 158.807 727.027 158.18 726.78C157.554 726.533 157.017 726.18 156.57 725.72C156.13 725.26 155.787 724.703 155.54 724.05C155.3 723.397 155.18 722.663 155.18 721.85C155.18 721.043 155.3 720.313 155.54 719.66C155.787 719.007 156.13 718.453 156.57 718C157.017 717.547 157.554 717.197 158.18 716.95C158.807 716.703 159.504 716.58 160.27 716.58ZM160.27 725.25C161.124 725.25 161.754 724.963 162.16 724.39C162.574 723.817 162.78 722.977 162.78 721.87C162.78 720.763 162.574 719.92 162.16 719.34C161.754 718.76 161.124 718.47 160.27 718.47C159.404 718.47 158.764 718.763 158.35 719.35C157.937 719.93 157.73 720.77 157.73 721.87C157.73 722.97 157.937 723.81 158.35 724.39C158.764 724.963 159.404 725.25 160.27 725.25ZM172.675 712.54C172.795 712.54 172.895 712.547 172.975 712.56C173.055 712.567 173.125 712.587 173.185 712.62C173.251 712.647 173.315 712.69 173.375 712.75C173.435 712.803 173.501 712.877 173.575 712.97L181.165 722.64C181.138 722.407 181.118 722.18 181.105 721.96C181.098 721.733 181.095 721.523 181.095 721.33V712.54H183.465V727H182.075C181.861 727 181.685 726.967 181.545 726.9C181.405 726.833 181.268 726.713 181.135 726.54L173.575 716.91C173.595 717.123 173.608 717.337 173.615 717.55C173.628 717.757 173.635 717.947 173.635 718.12V727H171.265V712.54H172.675ZM190.482 716.58C191.129 716.58 191.722 716.683 192.262 716.89C192.809 717.097 193.279 717.4 193.672 717.8C194.065 718.193 194.372 718.68 194.592 719.26C194.812 719.833 194.922 720.49 194.922 721.23C194.922 721.417 194.912 721.573 194.892 721.7C194.879 721.82 194.849 721.917 194.802 721.99C194.762 722.057 194.705 722.107 194.632 722.14C194.559 722.167 194.465 722.18 194.352 722.18H188.012C188.085 723.233 188.369 724.007 188.862 724.5C189.355 724.993 190.009 725.24 190.822 725.24C191.222 725.24 191.565 725.193 191.852 725.1C192.145 725.007 192.399 724.903 192.612 724.79C192.832 724.677 193.022 724.573 193.182 724.48C193.349 724.387 193.509 724.34 193.662 724.34C193.762 724.34 193.849 724.36 193.922 724.4C193.995 724.44 194.059 724.497 194.112 724.57L194.832 725.47C194.559 725.79 194.252 726.06 193.912 726.28C193.572 726.493 193.215 726.667 192.842 726.8C192.475 726.927 192.099 727.017 191.712 727.07C191.332 727.123 190.962 727.15 190.602 727.15C189.889 727.15 189.225 727.033 188.612 726.8C187.999 726.56 187.465 726.21 187.012 725.75C186.559 725.283 186.202 724.71 185.942 724.03C185.682 723.343 185.552 722.55 185.552 721.65C185.552 720.95 185.665 720.293 185.892 719.68C186.119 719.06 186.442 718.523 186.862 718.07C187.289 717.61 187.805 717.247 188.412 716.98C189.025 716.713 189.715 716.58 190.482 716.58ZM190.532 718.35C189.812 718.35 189.249 718.553 188.842 718.96C188.435 719.367 188.175 719.943 188.062 720.69H192.702C192.702 720.37 192.659 720.07 192.572 719.79C192.485 719.503 192.352 719.253 192.172 719.04C191.992 718.827 191.765 718.66 191.492 718.54C191.219 718.413 190.899 718.35 190.532 718.35ZM198.75 721.71L195.38 716.74H197.76C197.94 716.74 198.073 716.767 198.16 716.82C198.247 716.867 198.323 716.947 198.39 717.06L200.54 720.49C200.573 720.377 200.613 720.263 200.66 720.15C200.713 720.037 200.777 719.923 200.85 719.81L202.58 717.11C202.66 716.983 202.743 716.89 202.83 716.83C202.917 716.77 203.023 716.74 203.15 716.74H205.42L202.04 721.6L205.56 727H203.18C203 727 202.853 726.953 202.74 726.86C202.633 726.767 202.543 726.66 202.47 726.54L200.29 722.97C200.23 723.21 200.147 723.41 200.04 723.57L198.12 726.54C198.047 726.653 197.957 726.76 197.85 726.86C197.743 726.953 197.61 727 197.45 727H195.24L198.75 721.71ZM210.491 727.16C209.604 727.16 208.921 726.91 208.441 726.41C207.961 725.903 207.721 725.207 207.721 724.32V718.59H206.681C206.547 718.59 206.431 718.547 206.331 718.46C206.237 718.373 206.191 718.243 206.191 718.07V717.09L207.841 716.82L208.361 714.02C208.387 713.887 208.447 713.783 208.541 713.71C208.641 713.637 208.764 713.6 208.911 713.6H210.191V716.83H212.891V718.59H210.191V724.15C210.191 724.47 210.271 724.72 210.431 724.9C210.591 725.08 210.804 725.17 211.071 725.17C211.224 725.17 211.351 725.153 211.451 725.12C211.557 725.08 211.647 725.04 211.721 725C211.801 724.96 211.871 724.923 211.931 724.89C211.991 724.85 212.051 724.83 212.111 724.83C212.184 724.83 212.244 724.85 212.291 724.89C212.337 724.923 212.387 724.977 212.441 725.05L213.181 726.25C212.821 726.55 212.407 726.777 211.941 726.93C211.474 727.083 210.991 727.16 210.491 727.16ZM226.612 715.17C226.539 715.317 226.452 715.42 226.352 715.48C226.259 715.54 226.146 715.57 226.012 715.57C225.879 715.57 225.729 715.52 225.562 715.42C225.396 715.313 225.199 715.197 224.972 715.07C224.746 714.943 224.479 714.83 224.172 714.73C223.872 714.623 223.516 714.57 223.102 714.57C222.729 714.57 222.402 714.617 222.122 714.71C221.849 714.797 221.616 714.92 221.422 715.08C221.236 715.24 221.096 715.433 221.002 715.66C220.909 715.88 220.862 716.123 220.862 716.39C220.862 716.73 220.956 717.013 221.142 717.24C221.336 717.467 221.589 717.66 221.902 717.82C222.216 717.98 222.572 718.123 222.972 718.25C223.372 718.377 223.779 718.513 224.192 718.66C224.612 718.8 225.022 718.967 225.422 719.16C225.822 719.347 226.179 719.587 226.492 719.88C226.806 720.167 227.056 720.52 227.242 720.94C227.436 721.36 227.532 721.87 227.532 722.47C227.532 723.123 227.419 723.737 227.192 724.31C226.972 724.877 226.646 725.373 226.212 725.8C225.786 726.22 225.262 726.553 224.642 726.8C224.022 727.04 223.312 727.16 222.512 727.16C222.052 727.16 221.599 727.113 221.152 727.02C220.706 726.933 220.276 726.807 219.862 726.64C219.456 726.473 219.072 726.273 218.712 726.04C218.359 725.807 218.042 725.547 217.762 725.26L218.542 723.97C218.616 723.877 218.702 723.8 218.802 723.74C218.909 723.673 219.026 723.64 219.152 723.64C219.319 723.64 219.499 723.71 219.692 723.85C219.886 723.983 220.112 724.133 220.372 724.3C220.639 724.467 220.949 724.62 221.302 724.76C221.662 724.893 222.092 724.96 222.592 724.96C223.359 724.96 223.952 724.78 224.372 724.42C224.792 724.053 225.002 723.53 225.002 722.85C225.002 722.47 224.906 722.16 224.712 721.92C224.526 721.68 224.276 721.48 223.962 721.32C223.649 721.153 223.292 721.013 222.892 720.9C222.492 720.787 222.086 720.663 221.672 720.53C221.259 720.397 220.852 720.237 220.452 720.05C220.052 719.863 219.696 719.62 219.382 719.32C219.069 719.02 218.816 718.647 218.622 718.2C218.436 717.747 218.342 717.19 218.342 716.53C218.342 716.003 218.446 715.49 218.652 714.99C218.866 714.49 219.172 714.047 219.572 713.66C219.979 713.273 220.476 712.963 221.062 712.73C221.649 712.497 222.319 712.38 223.072 712.38C223.926 712.38 224.712 712.513 225.432 712.78C226.152 713.047 226.766 713.42 227.272 713.9L226.612 715.17ZM232.815 727.16C231.928 727.16 231.245 726.91 230.765 726.41C230.285 725.903 230.045 725.207 230.045 724.32V718.59H229.005C228.872 718.59 228.755 718.547 228.655 718.46C228.562 718.373 228.515 718.243 228.515 718.07V717.09L230.165 716.82L230.685 714.02C230.712 713.887 230.772 713.783 230.865 713.71C230.965 713.637 231.088 713.6 231.235 713.6H232.515V716.83H235.215V718.59H232.515V724.15C232.515 724.47 232.595 724.72 232.755 724.9C232.915 725.08 233.128 725.17 233.395 725.17C233.548 725.17 233.675 725.153 233.775 725.12C233.882 725.08 233.972 725.04 234.045 725C234.125 724.96 234.195 724.923 234.255 724.89C234.315 724.85 234.375 724.83 234.435 724.83C234.508 724.83 234.568 724.85 234.615 724.89C234.662 724.923 234.712 724.977 234.765 725.05L235.505 726.25C235.145 726.55 234.732 726.777 234.265 726.93C233.798 727.083 233.315 727.16 232.815 727.16ZM241.419 716.58C242.066 716.58 242.659 716.683 243.199 716.89C243.746 717.097 244.216 717.4 244.609 717.8C245.003 718.193 245.309 718.68 245.529 719.26C245.749 719.833 245.859 720.49 245.859 721.23C245.859 721.417 245.849 721.573 245.829 721.7C245.816 721.82 245.786 721.917 245.739 721.99C245.699 722.057 245.643 722.107 245.569 722.14C245.496 722.167 245.403 722.18 245.289 722.18H238.949C239.023 723.233 239.306 724.007 239.799 724.5C240.293 724.993 240.946 725.24 241.759 725.24C242.159 725.24 242.503 725.193 242.789 725.1C243.083 725.007 243.336 724.903 243.549 724.79C243.769 724.677 243.959 724.573 244.119 724.48C244.286 724.387 244.446 724.34 244.599 724.34C244.699 724.34 244.786 724.36 244.859 724.4C244.933 724.44 244.996 724.497 245.049 724.57L245.769 725.47C245.496 725.79 245.189 726.06 244.849 726.28C244.509 726.493 244.153 726.667 243.779 726.8C243.413 726.927 243.036 727.017 242.649 727.07C242.269 727.123 241.899 727.15 241.539 727.15C240.826 727.15 240.163 727.033 239.549 726.8C238.936 726.56 238.403 726.21 237.949 725.75C237.496 725.283 237.139 724.71 236.879 724.03C236.619 723.343 236.489 722.55 236.489 721.65C236.489 720.95 236.603 720.293 236.829 719.68C237.056 719.06 237.379 718.523 237.799 718.07C238.226 717.61 238.743 717.247 239.349 716.98C239.963 716.713 240.653 716.58 241.419 716.58ZM241.469 718.35C240.749 718.35 240.186 718.553 239.779 718.96C239.373 719.367 239.113 719.943 238.999 720.69H243.639C243.639 720.37 243.596 720.07 243.509 719.79C243.423 719.503 243.289 719.253 243.109 719.04C242.929 718.827 242.703 718.66 242.429 718.54C242.156 718.413 241.836 718.35 241.469 718.35ZM247.863 730.35V716.74H249.373C249.533 716.74 249.67 716.777 249.783 716.85C249.896 716.923 249.97 717.037 250.003 717.19L250.203 718.14C250.616 717.667 251.09 717.283 251.623 716.99C252.163 716.697 252.793 716.55 253.513 716.55C254.073 716.55 254.583 716.667 255.043 716.9C255.51 717.133 255.91 717.473 256.243 717.92C256.583 718.36 256.843 718.907 257.023 719.56C257.21 720.207 257.303 720.95 257.303 721.79C257.303 722.557 257.2 723.267 256.993 723.92C256.786 724.573 256.49 725.14 256.103 725.62C255.723 726.1 255.26 726.477 254.713 726.75C254.173 727.017 253.566 727.15 252.893 727.15C252.313 727.15 251.82 727.063 251.413 726.89C251.013 726.71 250.653 726.463 250.333 726.15V730.35H247.863ZM252.663 718.5C252.15 718.5 251.71 718.61 251.343 718.83C250.983 719.043 250.646 719.347 250.333 719.74V724.34C250.613 724.687 250.916 724.93 251.243 725.07C251.576 725.203 251.933 725.27 252.313 725.27C252.686 725.27 253.023 725.2 253.323 725.06C253.63 724.92 253.886 724.707 254.093 724.42C254.306 724.133 254.47 723.773 254.583 723.34C254.696 722.9 254.753 722.383 254.753 721.79C254.753 721.19 254.703 720.683 254.603 720.27C254.51 719.85 254.373 719.51 254.193 719.25C254.013 718.99 253.793 718.8 253.533 718.68C253.28 718.56 252.99 718.5 252.663 718.5Z" fill="white"/>
<circle opacity="0.1" cx="311.5" cy="719.5" r="22.5" fill="white"/>
<path d="M312.793 713.179C312.527 712.932 312.104 712.942 311.851 713.202C311.597 713.462 311.607 713.873 311.874 714.121L316.988 718.85H303.667C303.299 718.85 303 719.141 303 719.5C303 719.859 303.299 720.15 303.667 720.15H316.966L311.874 724.879C311.607 725.127 311.597 725.538 311.851 725.798C311.982 725.932 312.157 726 312.333 726C312.499 726 312.664 725.941 312.793 725.821L318.609 720.419C318.861 720.174 319 719.847 319 719.5C319 719.152 318.861 718.826 318.598 718.57L312.793 713.179Z" fill="white"/>
</g>
<defs>
<clipPath id="clip0_218_40555">
<rect width="375" height="812" fill="white"/>
</clipPath>
<clipPath id="clip1_218_40555">
<rect width="60" height="60" fill="white" transform="translate(158 336)"/>
</clipPath>
</defs>
</svg>
