<svg width="375" height="812" viewBox="0 0 375 812" fill="none" xmlns="http://www.w3.org/2000/svg">
<g clip-path="url(#clip0_218_40436)">
<rect width="375" height="812" fill="white"/>
<path d="M375 811.948V190.948C371.004 195.596 345.293 207.005 333.795 212.688C329.948 215.077 292.551 226.614 273.476 231.525C259.818 235.507 243.924 236.506 237.684 236.508C229.064 235.983 216.597 236.289 211.441 236.508C182.765 236.256 149.416 265.641 136.325 280.366C85.6237 324.531 24.3161 318.497 0 309.96V811.948H375Z" fill="#FEFFEE"/>
<rect x="140" y="793.104" width="95.674" height="6.30817" rx="3.15409" fill="#E7E7E7"/>
<path d="M92.5 0.00357724H292.5C292.5 0.00357724 290 -0.516816 289.773 10.9956C289.545 22.9868 284.075 27.9832 277.045 27.9832H107.955C100.925 27.9832 95.4545 22.9868 95.2273 10.9956C95 -0.516815 92.5 0.00357724 92.5 0.00357724Z" fill="#F0F0F0"/>
<g opacity="0.1">
<path fill-rule="evenodd" clip-rule="evenodd" d="M337.47 13H350.833C351.4 13 351.943 13.2251 352.344 13.6259C352.745 14.0267 352.97 14.5702 352.97 15.137V19.946C352.97 20.5128 352.745 21.0563 352.344 21.4571C351.943 21.8579 351.4 22.083 350.833 22.083H337.47C336.903 22.083 336.36 21.8579 335.959 21.4571C335.558 21.0563 335.333 20.5128 335.333 19.946V15.137C335.333 14.5702 335.558 14.0267 335.959 13.6259C336.36 13.2251 336.903 13 337.47 13Z" fill="black"/>
</g>
<path d="M354 16V19C354.296 18.8759 354.549 18.6677 354.727 18.4014C354.904 18.1351 355 17.8226 355 17.5028C355.001 17.1821 354.906 16.8683 354.728 16.6009C354.55 16.3336 354.297 16.1245 354 16" fill="#111111"/>
<path d="M338.005 14.603H350.295C350.579 14.603 350.85 14.7157 351.051 14.9161C351.251 15.1166 351.364 15.3885 351.364 15.672V19.412C351.364 19.6955 351.251 19.9674 351.051 20.1679C350.85 20.3684 350.579 20.481 350.295 20.481H338.005C337.722 20.481 337.45 20.3684 337.249 20.1679C337.049 19.9674 336.936 19.6955 336.936 19.412V15.67C336.937 15.3869 337.049 15.1155 337.25 14.9154C337.45 14.7154 337.722 14.603 338.005 14.603V14.603Z" fill="#111111"/>
<path d="M324.774 14.8221C326.55 14.8221 328.258 15.5045 329.545 16.7281C329.591 16.7737 329.654 16.7993 329.719 16.7993C329.784 16.7993 329.846 16.7737 329.892 16.7281L330.819 15.7931C330.843 15.769 330.862 15.7404 330.875 15.709C330.888 15.6776 330.894 15.644 330.894 15.6101C330.894 15.5761 330.887 15.5426 330.874 15.5114C330.86 15.4802 330.841 15.4518 330.817 15.4281C329.191 13.8699 327.026 13 324.774 13C322.522 13 320.357 13.8699 318.731 15.4281C318.707 15.4518 318.688 15.4802 318.674 15.5114C318.661 15.5426 318.654 15.5761 318.654 15.6101C318.654 15.644 318.66 15.6776 318.673 15.709C318.686 15.7404 318.705 15.769 318.729 15.7931L319.656 16.7281C319.702 16.7737 319.765 16.7993 319.83 16.7993C319.895 16.7993 319.957 16.7737 320.003 16.7281C321.29 15.5042 322.999 14.8219 324.775 14.8221H324.774ZM324.774 17.8641C325.75 17.8641 326.691 18.227 327.414 18.8821C327.461 18.9272 327.523 18.9525 327.588 18.9525C327.652 18.9525 327.715 18.9272 327.761 18.8821L328.686 17.9471C328.71 17.9227 328.729 17.8939 328.742 17.8621C328.755 17.8303 328.761 17.7963 328.761 17.7621C328.761 17.7278 328.753 17.694 328.74 17.6626C328.726 17.6312 328.707 17.6028 328.682 17.5791C327.62 16.5915 326.224 16.0425 324.774 16.0425C323.324 16.0425 321.928 16.5915 320.866 17.5791C320.841 17.6028 320.822 17.6312 320.808 17.6626C320.795 17.694 320.787 17.7278 320.787 17.7621C320.787 17.7963 320.793 17.8303 320.806 17.8621C320.819 17.8939 320.838 17.9227 320.862 17.9471L321.787 18.8821C321.834 18.9272 321.896 18.9525 321.961 18.9525C322.025 18.9525 322.088 18.9272 322.134 18.8821C322.857 18.2274 323.797 17.8646 324.772 17.8641H324.774ZM326.553 20.0961C326.578 20.072 326.597 20.0432 326.61 20.0113C326.623 19.9795 326.629 19.9454 326.628 19.9111C326.627 19.8767 326.62 19.8428 326.605 19.8115C326.591 19.7802 326.571 19.7521 326.545 19.7291C326.05 19.3102 325.423 19.0804 324.774 19.0804C324.126 19.0804 323.498 19.3102 323.003 19.7291C322.978 19.752 322.957 19.7798 322.943 19.811C322.929 19.8421 322.921 19.8758 322.92 19.9101C322.919 19.9444 322.925 19.9785 322.938 20.0103C322.951 20.0422 322.971 20.071 322.995 20.0951L324.595 21.7111C324.618 21.7346 324.646 21.7532 324.677 21.7659C324.707 21.7786 324.74 21.7851 324.773 21.7851C324.806 21.7851 324.839 21.7786 324.869 21.7659C324.9 21.7532 324.928 21.7346 324.951 21.7111L326.553 20.0961Z" fill="#111111"/>
<path d="M23.294 18.472C22.97 18.472 22.662 18.418 22.37 18.31C22.082 18.202 21.828 18.044 21.608 17.836C21.388 17.624 21.212 17.366 21.08 17.062C20.952 16.754 20.888 16.402 20.888 16.006C20.888 15.63 20.958 15.278 21.098 14.95C21.238 14.622 21.434 14.336 21.686 14.092C21.938 13.848 22.238 13.656 22.586 13.516C22.934 13.376 23.316 13.306 23.732 13.306C24.144 13.306 24.518 13.374 24.854 13.51C25.19 13.646 25.478 13.836 25.718 14.08C25.958 14.324 26.142 14.616 26.27 14.956C26.402 15.296 26.468 15.672 26.468 16.084C26.468 16.332 26.444 16.568 26.396 16.792C26.352 17.012 26.286 17.228 26.198 17.44C26.11 17.652 26.004 17.864 25.88 18.076C25.76 18.284 25.622 18.5 25.466 18.724L23.372 21.748C23.32 21.824 23.246 21.886 23.15 21.934C23.054 21.978 22.944 22 22.82 22H21.836L24.452 18.574C24.54 18.458 24.622 18.348 24.698 18.244C24.774 18.14 24.846 18.036 24.914 17.932C24.694 18.108 24.446 18.242 24.17 18.334C23.894 18.426 23.602 18.472 23.294 18.472ZM25.442 15.958C25.442 15.69 25.398 15.448 25.31 15.232C25.226 15.012 25.108 14.826 24.956 14.674C24.804 14.522 24.622 14.406 24.41 14.326C24.202 14.242 23.972 14.2 23.72 14.2C23.456 14.2 23.214 14.244 22.994 14.332C22.778 14.416 22.592 14.534 22.436 14.686C22.284 14.838 22.166 15.02 22.082 15.232C21.998 15.444 21.956 15.676 21.956 15.928C21.956 16.2 21.994 16.444 22.07 16.66C22.15 16.872 22.262 17.052 22.406 17.2C22.554 17.348 22.732 17.46 22.94 17.536C23.152 17.612 23.388 17.65 23.648 17.65C23.936 17.65 24.19 17.604 24.41 17.512C24.634 17.416 24.822 17.29 24.974 17.134C25.126 16.978 25.242 16.798 25.322 16.594C25.402 16.39 25.442 16.178 25.442 15.958ZM27.7289 21.34C27.7289 21.236 27.7469 21.138 27.7829 21.046C27.8229 20.954 27.8749 20.874 27.9389 20.806C28.0069 20.738 28.0869 20.684 28.1789 20.644C28.2709 20.604 28.3689 20.584 28.4729 20.584C28.5769 20.584 28.6749 20.604 28.7669 20.644C28.8589 20.684 28.9389 20.738 29.0069 20.806C29.0749 20.874 29.1269 20.954 29.1629 21.046C29.2029 21.138 29.2229 21.236 29.2229 21.34C29.2229 21.448 29.2029 21.548 29.1629 21.64C29.1269 21.728 29.0749 21.806 29.0069 21.874C28.9389 21.942 28.8589 21.994 28.7669 22.03C28.6749 22.07 28.5769 22.09 28.4729 22.09C28.3689 22.09 28.2709 22.07 28.1789 22.03C28.0869 21.994 28.0069 21.942 27.9389 21.874C27.8749 21.806 27.8229 21.728 27.7829 21.64C27.7469 21.548 27.7289 21.448 27.7289 21.34ZM27.7289 16.84C27.7289 16.736 27.7469 16.638 27.7829 16.546C27.8229 16.454 27.8749 16.374 27.9389 16.306C28.0069 16.238 28.0869 16.184 28.1789 16.144C28.2709 16.104 28.3689 16.084 28.4729 16.084C28.5769 16.084 28.6749 16.104 28.7669 16.144C28.8589 16.184 28.9389 16.238 29.0069 16.306C29.0749 16.374 29.1269 16.454 29.1629 16.546C29.2029 16.638 29.2229 16.736 29.2229 16.84C29.2229 16.948 29.2029 17.048 29.1629 17.14C29.1269 17.228 29.0749 17.306 29.0069 17.374C28.9389 17.442 28.8589 17.496 28.7669 17.536C28.6749 17.572 28.5769 17.59 28.4729 17.59C28.3689 17.59 28.2709 17.572 28.1789 17.536C28.0869 17.496 28.0069 17.442 27.9389 17.374C27.8749 17.306 27.8229 17.228 27.7829 17.14C27.7469 17.048 27.7289 16.948 27.7289 16.84ZM35.4024 18.898H36.7044V19.51C36.7044 19.574 36.6844 19.628 36.6444 19.672C36.6084 19.716 36.5504 19.738 36.4704 19.738H35.4024V22H34.4604V19.738H30.6504C30.5704 19.738 30.5004 19.716 30.4404 19.672C30.3844 19.624 30.3484 19.566 30.3324 19.498L30.2244 18.952L34.4064 13.402H35.4024V18.898ZM34.4604 15.352C34.4604 15.248 34.4624 15.136 34.4664 15.016C34.4744 14.896 34.4884 14.772 34.5084 14.644L31.3824 18.898H34.4604V15.352ZM38.6673 21.184H40.5153V15.322C40.5153 15.146 40.5213 14.968 40.5333 14.788L38.9973 16.102C38.9573 16.134 38.9173 16.158 38.8773 16.174C38.8373 16.186 38.7993 16.192 38.7633 16.192C38.7033 16.192 38.6493 16.18 38.6013 16.156C38.5533 16.128 38.5173 16.096 38.4933 16.06L38.1573 15.598L40.7133 13.384H41.5833V21.184H43.2753V22H38.6673V21.184Z" fill="#111111"/>
<path d="M301.8 18.34H302.6C302.812 18.34 303.016 18.4243 303.166 18.5743C303.316 18.7243 303.4 18.9278 303.4 19.14V20.74C303.4 20.9522 303.316 21.1557 303.166 21.3057C303.016 21.4557 302.812 21.54 302.6 21.54H301.8C301.588 21.54 301.384 21.4557 301.234 21.3057C301.084 21.1557 301 20.9522 301 20.74V19.14C301 18.9278 301.084 18.7243 301.234 18.5743C301.384 18.4243 301.588 18.34 301.8 18.34V18.34ZM305.54 16.74H306.34C306.552 16.74 306.756 16.8243 306.906 16.9743C307.056 17.1243 307.14 17.3278 307.14 17.54V20.746C307.14 20.8511 307.119 20.9551 307.079 21.0521C307.039 21.1492 306.98 21.2374 306.906 21.3117C306.831 21.386 306.743 21.4449 306.646 21.4851C306.549 21.5253 306.445 21.546 306.34 21.546H305.54C305.435 21.546 305.331 21.5253 305.234 21.4851C305.137 21.4449 305.049 21.386 304.974 21.3117C304.9 21.2374 304.841 21.1492 304.801 21.0521C304.761 20.9551 304.74 20.8511 304.74 20.746V17.54C304.74 17.4347 304.76 17.3303 304.8 17.2329C304.84 17.1355 304.899 17.047 304.973 16.9724C305.048 16.8978 305.136 16.8386 305.233 16.7982C305.33 16.7578 305.435 16.737 305.54 16.737V16.74ZM309.28 14.87H310.08C310.185 14.87 310.289 14.8907 310.386 14.9309C310.483 14.9711 310.571 15.03 310.646 15.1043C310.72 15.1786 310.779 15.2668 310.819 15.3639C310.859 15.4609 310.88 15.5649 310.88 15.67V20.746C310.88 20.8511 310.859 20.9551 310.819 21.0521C310.779 21.1492 310.72 21.2374 310.646 21.3117C310.571 21.386 310.483 21.4449 310.386 21.4851C310.289 21.5253 310.185 21.546 310.08 21.546H309.28C309.175 21.546 309.071 21.5253 308.974 21.4851C308.877 21.4449 308.789 21.386 308.714 21.3117C308.64 21.2374 308.581 21.1492 308.541 21.0521C308.501 20.9551 308.48 20.8511 308.48 20.746V15.67C308.48 15.5646 308.5 15.4602 308.54 15.3627C308.58 15.2652 308.639 15.1766 308.714 15.102C308.788 15.0274 308.876 14.9682 308.974 14.9279C309.071 14.8876 309.176 14.8669 309.281 14.867L309.28 14.87ZM313.02 13H313.82C314.032 13 314.236 13.0843 314.386 13.2343C314.536 13.3843 314.62 13.5878 314.62 13.8V20.746C314.62 20.9582 314.536 21.1617 314.386 21.3117C314.236 21.4617 314.032 21.546 313.82 21.546H313.02C312.915 21.546 312.811 21.5253 312.714 21.4851C312.617 21.4449 312.529 21.386 312.454 21.3117C312.38 21.2374 312.321 21.1492 312.281 21.0521C312.241 20.9551 312.22 20.8511 312.22 20.746V13.8C312.22 13.6949 312.241 13.5909 312.281 13.4939C312.321 13.3968 312.38 13.3086 312.454 13.2343C312.529 13.16 312.617 13.1011 312.714 13.0609C312.811 13.0207 312.915 13 313.02 13V13Z" fill="#111111"/>
<rect x="32.5" y="615.5" width="311" height="59" rx="29.5" stroke="#5B5B5B"/>
<path d="M102.411 651.02C103.017 651.02 103.544 650.967 103.991 650.86C104.444 650.747 104.874 650.593 105.281 650.4V647.77H103.471C103.297 647.77 103.161 647.723 103.061 647.63C102.961 647.53 102.911 647.41 102.911 647.27V645.75H107.721V651.6C107.354 651.867 106.971 652.1 106.571 652.3C106.177 652.493 105.754 652.653 105.301 652.78C104.854 652.907 104.374 653 103.861 653.06C103.347 653.127 102.794 653.16 102.201 653.16C101.147 653.16 100.177 652.977 99.2905 652.61C98.4039 652.243 97.6372 651.733 96.9905 651.08C96.3439 650.427 95.8372 649.647 95.4705 648.74C95.1105 647.833 94.9305 646.843 94.9305 645.77C94.9305 644.683 95.1072 643.687 95.4605 642.78C95.8139 641.873 96.3139 641.093 96.9605 640.44C97.6139 639.787 98.4039 639.28 99.3305 638.92C100.257 638.56 101.297 638.38 102.451 638.38C103.631 638.38 104.651 638.557 105.511 638.91C106.377 639.257 107.111 639.71 107.711 640.27L106.931 641.49C106.777 641.737 106.574 641.86 106.321 641.86C106.161 641.86 105.997 641.807 105.831 641.7C105.617 641.573 105.397 641.447 105.171 641.32C104.951 641.193 104.704 641.083 104.431 640.99C104.164 640.897 103.861 640.82 103.521 640.76C103.187 640.7 102.801 640.67 102.361 640.67C101.647 640.67 101.001 640.79 100.421 641.03C99.8472 641.27 99.3572 641.613 98.9505 642.06C98.5439 642.507 98.2305 643.043 98.0105 643.67C97.7905 644.297 97.6805 644.997 97.6805 645.77C97.6805 646.603 97.7972 647.347 98.0305 648C98.2639 648.647 98.5905 649.193 99.0105 649.64C99.4305 650.087 99.9305 650.43 100.511 650.67C101.091 650.903 101.724 651.02 102.411 651.02ZM114.464 642.58C115.23 642.58 115.924 642.703 116.544 642.95C117.17 643.197 117.704 643.547 118.144 644C118.584 644.453 118.924 645.007 119.164 645.66C119.404 646.313 119.524 647.043 119.524 647.85C119.524 648.663 119.404 649.397 119.164 650.05C118.924 650.703 118.584 651.26 118.144 651.72C117.704 652.18 117.17 652.533 116.544 652.78C115.924 653.027 115.23 653.15 114.464 653.15C113.697 653.15 113 653.027 112.374 652.78C111.747 652.533 111.21 652.18 110.764 651.72C110.324 651.26 109.98 650.703 109.734 650.05C109.494 649.397 109.374 648.663 109.374 647.85C109.374 647.043 109.494 646.313 109.734 645.66C109.98 645.007 110.324 644.453 110.764 644C111.21 643.547 111.747 643.197 112.374 642.95C113 642.703 113.697 642.58 114.464 642.58ZM114.464 651.25C115.317 651.25 115.947 650.963 116.354 650.39C116.767 649.817 116.974 648.977 116.974 647.87C116.974 646.763 116.767 645.92 116.354 645.34C115.947 644.76 115.317 644.47 114.464 644.47C113.597 644.47 112.957 644.763 112.544 645.35C112.13 645.93 111.924 646.77 111.924 647.87C111.924 648.97 112.13 649.81 112.544 650.39C112.957 650.963 113.597 651.25 114.464 651.25ZM128.688 653.16C127.801 653.16 127.118 652.91 126.638 652.41C126.158 651.903 125.918 651.207 125.918 650.32V644.59H124.878C124.745 644.59 124.628 644.547 124.528 644.46C124.435 644.373 124.388 644.243 124.388 644.07V643.09L126.038 642.82L126.558 640.02C126.585 639.887 126.645 639.783 126.738 639.71C126.838 639.637 126.961 639.6 127.108 639.6H128.388V642.83H131.088V644.59H128.388V650.15C128.388 650.47 128.468 650.72 128.628 650.9C128.788 651.08 129.001 651.17 129.268 651.17C129.421 651.17 129.548 651.153 129.648 651.12C129.755 651.08 129.845 651.04 129.918 651C129.998 650.96 130.068 650.923 130.128 650.89C130.188 650.85 130.248 650.83 130.308 650.83C130.381 650.83 130.441 650.85 130.488 650.89C130.535 650.923 130.585 650.977 130.638 651.05L131.378 652.25C131.018 652.55 130.605 652.777 130.138 652.93C129.671 653.083 129.188 653.16 128.688 653.16ZM137.432 642.58C138.199 642.58 138.892 642.703 139.512 642.95C140.139 643.197 140.672 643.547 141.112 644C141.552 644.453 141.892 645.007 142.132 645.66C142.372 646.313 142.492 647.043 142.492 647.85C142.492 648.663 142.372 649.397 142.132 650.05C141.892 650.703 141.552 651.26 141.112 651.72C140.672 652.18 140.139 652.533 139.512 652.78C138.892 653.027 138.199 653.15 137.432 653.15C136.666 653.15 135.969 653.027 135.342 652.78C134.716 652.533 134.179 652.18 133.732 651.72C133.292 651.26 132.949 650.703 132.702 650.05C132.462 649.397 132.342 648.663 132.342 647.85C132.342 647.043 132.462 646.313 132.702 645.66C132.949 645.007 133.292 644.453 133.732 644C134.179 643.547 134.716 643.197 135.342 642.95C135.969 642.703 136.666 642.58 137.432 642.58ZM137.432 651.25C138.286 651.25 138.916 650.963 139.322 650.39C139.736 649.817 139.942 648.977 139.942 647.87C139.942 646.763 139.736 645.92 139.322 645.34C138.916 644.76 138.286 644.47 137.432 644.47C136.566 644.47 135.926 644.763 135.512 645.35C135.099 645.93 134.892 646.77 134.892 647.87C134.892 648.97 135.099 649.81 135.512 650.39C135.926 650.963 136.566 651.25 137.432 651.25ZM161.137 653H159.057C158.823 653 158.63 652.943 158.477 652.83C158.33 652.71 158.223 652.563 158.157 652.39L157.077 649.44H151.087L150.007 652.39C149.953 652.543 149.847 652.683 149.687 652.81C149.533 652.937 149.343 653 149.117 653H147.027L152.707 638.54H155.457L161.137 653ZM151.777 647.54H156.387L154.627 642.73C154.547 642.517 154.457 642.267 154.357 641.98C154.263 641.687 154.17 641.37 154.077 641.03C153.983 641.37 153.89 641.687 153.797 641.98C153.71 642.273 153.623 642.53 153.537 642.75L151.777 647.54ZM169.696 644.91C169.623 645.003 169.549 645.077 169.476 645.13C169.409 645.183 169.309 645.21 169.176 645.21C169.049 645.21 168.926 645.173 168.806 645.1C168.686 645.02 168.543 644.933 168.376 644.84C168.209 644.74 168.009 644.653 167.776 644.58C167.549 644.5 167.266 644.46 166.926 644.46C166.493 644.46 166.113 644.54 165.786 644.7C165.459 644.853 165.186 645.077 164.966 645.37C164.753 645.663 164.593 646.02 164.486 646.44C164.379 646.853 164.326 647.323 164.326 647.85C164.326 648.397 164.383 648.883 164.496 649.31C164.616 649.737 164.786 650.097 165.006 650.39C165.226 650.677 165.493 650.897 165.806 651.05C166.119 651.197 166.473 651.27 166.866 651.27C167.259 651.27 167.576 651.223 167.816 651.13C168.063 651.03 168.269 650.923 168.436 650.81C168.603 650.69 168.746 650.583 168.866 650.49C168.993 650.39 169.133 650.34 169.286 650.34C169.486 650.34 169.636 650.417 169.736 650.57L170.446 651.47C170.173 651.79 169.876 652.06 169.556 652.28C169.236 652.493 168.903 652.667 168.556 652.8C168.216 652.927 167.863 653.017 167.496 653.07C167.129 653.123 166.766 653.15 166.406 653.15C165.773 653.15 165.176 653.033 164.616 652.8C164.056 652.56 163.566 652.213 163.146 651.76C162.733 651.307 162.403 650.753 162.156 650.1C161.916 649.44 161.796 648.69 161.796 647.85C161.796 647.097 161.903 646.4 162.116 645.76C162.336 645.113 162.656 644.557 163.076 644.09C163.496 643.617 164.016 643.247 164.636 642.98C165.256 642.713 165.969 642.58 166.776 642.58C167.543 642.58 168.213 642.703 168.786 642.95C169.366 643.197 169.886 643.55 170.346 644.01L169.696 644.91ZM179.227 644.91C179.154 645.003 179.081 645.077 179.007 645.13C178.941 645.183 178.841 645.21 178.707 645.21C178.581 645.21 178.457 645.173 178.337 645.1C178.217 645.02 178.074 644.933 177.907 644.84C177.741 644.74 177.541 644.653 177.307 644.58C177.081 644.5 176.797 644.46 176.457 644.46C176.024 644.46 175.644 644.54 175.317 644.7C174.991 644.853 174.717 645.077 174.497 645.37C174.284 645.663 174.124 646.02 174.017 646.44C173.911 646.853 173.857 647.323 173.857 647.85C173.857 648.397 173.914 648.883 174.027 649.31C174.147 649.737 174.317 650.097 174.537 650.39C174.757 650.677 175.024 650.897 175.337 651.05C175.651 651.197 176.004 651.27 176.397 651.27C176.791 651.27 177.107 651.223 177.347 651.13C177.594 651.03 177.801 650.923 177.967 650.81C178.134 650.69 178.277 650.583 178.397 650.49C178.524 650.39 178.664 650.34 178.817 650.34C179.017 650.34 179.167 650.417 179.267 650.57L179.977 651.47C179.704 651.79 179.407 652.06 179.087 652.28C178.767 652.493 178.434 652.667 178.087 652.8C177.747 652.927 177.394 653.017 177.027 653.07C176.661 653.123 176.297 653.15 175.937 653.15C175.304 653.15 174.707 653.033 174.147 652.8C173.587 652.56 173.097 652.213 172.677 651.76C172.264 651.307 171.934 650.753 171.687 650.1C171.447 649.44 171.327 648.69 171.327 647.85C171.327 647.097 171.434 646.4 171.647 645.76C171.867 645.113 172.187 644.557 172.607 644.09C173.027 643.617 173.547 643.247 174.167 642.98C174.787 642.713 175.501 642.58 176.307 642.58C177.074 642.58 177.744 642.703 178.317 642.95C178.897 643.197 179.417 643.55 179.877 644.01L179.227 644.91ZM185.929 642.58C186.695 642.58 187.389 642.703 188.009 642.95C188.635 643.197 189.169 643.547 189.609 644C190.049 644.453 190.389 645.007 190.629 645.66C190.869 646.313 190.989 647.043 190.989 647.85C190.989 648.663 190.869 649.397 190.629 650.05C190.389 650.703 190.049 651.26 189.609 651.72C189.169 652.18 188.635 652.533 188.009 652.78C187.389 653.027 186.695 653.15 185.929 653.15C185.162 653.15 184.465 653.027 183.839 652.78C183.212 652.533 182.675 652.18 182.229 651.72C181.789 651.26 181.445 650.703 181.199 650.05C180.959 649.397 180.839 648.663 180.839 647.85C180.839 647.043 180.959 646.313 181.199 645.66C181.445 645.007 181.789 644.453 182.229 644C182.675 643.547 183.212 643.197 183.839 642.95C184.465 642.703 185.162 642.58 185.929 642.58ZM185.929 651.25C186.782 651.25 187.412 650.963 187.819 650.39C188.232 649.817 188.439 648.977 188.439 647.87C188.439 646.763 188.232 645.92 187.819 645.34C187.412 644.76 186.782 644.47 185.929 644.47C185.062 644.47 184.422 644.763 184.009 645.35C183.595 645.93 183.389 646.77 183.389 647.87C183.389 648.97 183.595 649.81 184.009 650.39C184.422 650.963 185.062 651.25 185.929 651.25ZM195.176 642.74V649.26C195.176 649.887 195.319 650.373 195.606 650.72C195.899 651.06 196.336 651.23 196.916 651.23C197.342 651.23 197.742 651.137 198.116 650.95C198.489 650.757 198.842 650.493 199.176 650.16V642.74H201.646V653H200.136C199.816 653 199.606 652.85 199.506 652.55L199.336 651.73C199.122 651.943 198.902 652.14 198.676 652.32C198.449 652.493 198.206 652.643 197.946 652.77C197.692 652.89 197.416 652.983 197.116 653.05C196.822 653.123 196.506 653.16 196.166 653.16C195.606 653.16 195.109 653.067 194.676 652.88C194.249 652.687 193.889 652.417 193.596 652.07C193.302 651.723 193.079 651.313 192.926 650.84C192.779 650.36 192.706 649.833 192.706 649.26V642.74H195.176ZM204.283 653V642.74H205.793C206.113 642.74 206.323 642.89 206.423 643.19L206.593 644C206.8 643.787 207.016 643.593 207.243 643.42C207.476 643.247 207.72 643.097 207.973 642.97C208.233 642.843 208.51 642.747 208.803 642.68C209.096 642.613 209.416 642.58 209.763 642.58C210.323 642.58 210.82 642.677 211.253 642.87C211.686 643.057 212.046 643.323 212.333 643.67C212.626 644.01 212.846 644.42 212.993 644.9C213.146 645.373 213.223 645.897 213.223 646.47V653H210.753V646.47C210.753 645.843 210.606 645.36 210.313 645.02C210.026 644.673 209.593 644.5 209.013 644.5C208.586 644.5 208.186 644.597 207.813 644.79C207.44 644.983 207.086 645.247 206.753 645.58V653H204.283ZM219.02 653.16C218.133 653.16 217.45 652.91 216.97 652.41C216.49 651.903 216.25 651.207 216.25 650.32V644.59H215.21C215.077 644.59 214.96 644.547 214.86 644.46C214.767 644.373 214.72 644.243 214.72 644.07V643.09L216.37 642.82L216.89 640.02C216.917 639.887 216.977 639.783 217.07 639.71C217.17 639.637 217.293 639.6 217.44 639.6H218.72V642.83H221.42V644.59H218.72V650.15C218.72 650.47 218.8 650.72 218.96 650.9C219.12 651.08 219.333 651.17 219.6 651.17C219.753 651.17 219.88 651.153 219.98 651.12C220.087 651.08 220.177 651.04 220.25 651C220.33 650.96 220.4 650.923 220.46 650.89C220.52 650.85 220.58 650.83 220.64 650.83C220.713 650.83 220.773 650.85 220.82 650.89C220.867 650.923 220.917 650.977 220.97 651.05L221.71 652.25C221.35 652.55 220.937 652.777 220.47 652.93C220.003 653.083 219.52 653.16 219.02 653.16ZM235.142 641.17C235.068 641.317 234.982 641.42 234.882 641.48C234.788 641.54 234.675 641.57 234.542 641.57C234.408 641.57 234.258 641.52 234.092 641.42C233.925 641.313 233.728 641.197 233.502 641.07C233.275 640.943 233.008 640.83 232.702 640.73C232.402 640.623 232.045 640.57 231.632 640.57C231.258 640.57 230.932 640.617 230.652 640.71C230.378 640.797 230.145 640.92 229.952 641.08C229.765 641.24 229.625 641.433 229.532 641.66C229.438 641.88 229.392 642.123 229.392 642.39C229.392 642.73 229.485 643.013 229.672 643.24C229.865 643.467 230.118 643.66 230.432 643.82C230.745 643.98 231.102 644.123 231.502 644.25C231.902 644.377 232.308 644.513 232.722 644.66C233.142 644.8 233.552 644.967 233.952 645.16C234.352 645.347 234.708 645.587 235.022 645.88C235.335 646.167 235.585 646.52 235.772 646.94C235.965 647.36 236.062 647.87 236.062 648.47C236.062 649.123 235.948 649.737 235.722 650.31C235.502 650.877 235.175 651.373 234.742 651.8C234.315 652.22 233.792 652.553 233.172 652.8C232.552 653.04 231.842 653.16 231.042 653.16C230.582 653.16 230.128 653.113 229.682 653.02C229.235 652.933 228.805 652.807 228.392 652.64C227.985 652.473 227.602 652.273 227.242 652.04C226.888 651.807 226.572 651.547 226.292 651.26L227.072 649.97C227.145 649.877 227.232 649.8 227.332 649.74C227.438 649.673 227.555 649.64 227.682 649.64C227.848 649.64 228.028 649.71 228.222 649.85C228.415 649.983 228.642 650.133 228.902 650.3C229.168 650.467 229.478 650.62 229.832 650.76C230.192 650.893 230.622 650.96 231.122 650.96C231.888 650.96 232.482 650.78 232.902 650.42C233.322 650.053 233.532 649.53 233.532 648.85C233.532 648.47 233.435 648.16 233.242 647.92C233.055 647.68 232.805 647.48 232.492 647.32C232.178 647.153 231.822 647.013 231.422 646.9C231.022 646.787 230.615 646.663 230.202 646.53C229.788 646.397 229.382 646.237 228.982 646.05C228.582 645.863 228.225 645.62 227.912 645.32C227.598 645.02 227.345 644.647 227.152 644.2C226.965 643.747 226.872 643.19 226.872 642.53C226.872 642.003 226.975 641.49 227.182 640.99C227.395 640.49 227.702 640.047 228.102 639.66C228.508 639.273 229.005 638.963 229.592 638.73C230.178 638.497 230.848 638.38 231.602 638.38C232.455 638.38 233.242 638.513 233.962 638.78C234.682 639.047 235.295 639.42 235.802 639.9L235.142 641.17ZM241.344 653.16C240.458 653.16 239.774 652.91 239.294 652.41C238.814 651.903 238.574 651.207 238.574 650.32V644.59H237.534C237.401 644.59 237.284 644.547 237.184 644.46C237.091 644.373 237.044 644.243 237.044 644.07V643.09L238.694 642.82L239.214 640.02C239.241 639.887 239.301 639.783 239.394 639.71C239.494 639.637 239.618 639.6 239.764 639.6H241.044V642.83H243.744V644.59H241.044V650.15C241.044 650.47 241.124 650.72 241.284 650.9C241.444 651.08 241.658 651.17 241.924 651.17C242.078 651.17 242.204 651.153 242.304 651.12C242.411 651.08 242.501 651.04 242.574 651C242.654 650.96 242.724 650.923 242.784 650.89C242.844 650.85 242.904 650.83 242.964 650.83C243.038 650.83 243.098 650.85 243.144 650.89C243.191 650.923 243.241 650.977 243.294 651.05L244.034 652.25C243.674 652.55 243.261 652.777 242.794 652.93C242.328 653.083 241.844 653.16 241.344 653.16ZM253.749 653H252.639C252.405 653 252.222 652.967 252.089 652.9C251.955 652.827 251.855 652.683 251.789 652.47L251.569 651.74C251.309 651.973 251.052 652.18 250.799 652.36C250.552 652.533 250.295 652.68 250.029 652.8C249.762 652.92 249.479 653.01 249.179 653.07C248.879 653.13 248.545 653.16 248.179 653.16C247.745 653.16 247.345 653.103 246.979 652.99C246.612 652.87 246.295 652.693 246.029 652.46C245.769 652.227 245.565 651.937 245.419 651.59C245.272 651.243 245.199 650.84 245.199 650.38C245.199 649.993 245.299 649.613 245.499 649.24C245.705 648.86 246.045 648.52 246.519 648.22C246.992 647.913 247.622 647.66 248.409 647.46C249.195 647.26 250.172 647.147 251.339 647.12V646.52C251.339 645.833 251.192 645.327 250.899 645C250.612 644.667 250.192 644.5 249.639 644.5C249.239 644.5 248.905 644.547 248.639 644.64C248.372 644.733 248.139 644.84 247.939 644.96C247.745 645.073 247.565 645.177 247.399 645.27C247.232 645.363 247.049 645.41 246.849 645.41C246.682 645.41 246.539 645.367 246.419 645.28C246.299 645.193 246.202 645.087 246.129 644.96L245.679 644.17C246.859 643.09 248.282 642.55 249.949 642.55C250.549 642.55 251.082 642.65 251.549 642.85C252.022 643.043 252.422 643.317 252.749 643.67C253.075 644.017 253.322 644.433 253.489 644.92C253.662 645.407 253.749 645.94 253.749 646.52V653ZM248.949 651.46C249.202 651.46 249.435 651.437 249.649 651.39C249.862 651.343 250.062 651.273 250.249 651.18C250.442 651.087 250.625 650.973 250.799 650.84C250.979 650.7 251.159 650.537 251.339 650.35V648.62C250.619 648.653 250.015 648.717 249.529 648.81C249.049 648.897 248.662 649.01 248.369 649.15C248.075 649.29 247.865 649.453 247.739 649.64C247.619 649.827 247.559 650.03 247.559 650.25C247.559 650.683 247.685 650.993 247.939 651.18C248.199 651.367 248.535 651.46 248.949 651.46ZM259.547 653.16C258.661 653.16 257.977 652.91 257.497 652.41C257.017 651.903 256.777 651.207 256.777 650.32V644.59H255.737C255.604 644.59 255.487 644.547 255.387 644.46C255.294 644.373 255.247 644.243 255.247 644.07V643.09L256.897 642.82L257.417 640.02C257.444 639.887 257.504 639.783 257.597 639.71C257.697 639.637 257.821 639.6 257.967 639.6H259.247V642.83H261.947V644.59H259.247V650.15C259.247 650.47 259.327 650.72 259.487 650.9C259.647 651.08 259.861 651.17 260.127 651.17C260.281 651.17 260.407 651.153 260.507 651.12C260.614 651.08 260.704 651.04 260.777 651C260.857 650.96 260.927 650.923 260.987 650.89C261.047 650.85 261.107 650.83 261.167 650.83C261.241 650.83 261.301 650.85 261.347 650.89C261.394 650.923 261.444 650.977 261.497 651.05L262.237 652.25C261.877 652.55 261.464 652.777 260.997 652.93C260.531 653.083 260.047 653.16 259.547 653.16ZM266.172 642.74V649.26C266.172 649.887 266.315 650.373 266.602 650.72C266.895 651.06 267.332 651.23 267.912 651.23C268.338 651.23 268.738 651.137 269.112 650.95C269.485 650.757 269.838 650.493 270.172 650.16V642.74H272.642V653H271.132C270.812 653 270.602 652.85 270.502 652.55L270.332 651.73C270.118 651.943 269.898 652.14 269.672 652.32C269.445 652.493 269.202 652.643 268.942 652.77C268.688 652.89 268.412 652.983 268.112 653.05C267.818 653.123 267.502 653.16 267.162 653.16C266.602 653.16 266.105 653.067 265.672 652.88C265.245 652.687 264.885 652.417 264.592 652.07C264.298 651.723 264.075 651.313 263.922 650.84C263.775 650.36 263.702 649.833 263.702 649.26V642.74H266.172ZM281.369 644.74C281.302 644.847 281.232 644.923 281.159 644.97C281.086 645.01 280.992 645.03 280.879 645.03C280.759 645.03 280.629 644.997 280.489 644.93C280.356 644.863 280.199 644.79 280.019 644.71C279.839 644.623 279.632 644.547 279.399 644.48C279.172 644.413 278.902 644.38 278.589 644.38C278.102 644.38 277.719 644.483 277.439 644.69C277.159 644.897 277.019 645.167 277.019 645.5C277.019 645.72 277.089 645.907 277.229 646.06C277.376 646.207 277.566 646.337 277.799 646.45C278.039 646.563 278.309 646.667 278.609 646.76C278.909 646.847 279.216 646.943 279.529 647.05C279.842 647.157 280.149 647.28 280.449 647.42C280.749 647.553 281.016 647.727 281.249 647.94C281.489 648.147 281.679 648.397 281.819 648.69C281.966 648.983 282.039 649.337 282.039 649.75C282.039 650.243 281.949 650.7 281.769 651.12C281.589 651.533 281.326 651.893 280.979 652.2C280.632 652.5 280.202 652.737 279.689 652.91C279.182 653.077 278.599 653.16 277.939 653.16C277.586 653.16 277.239 653.127 276.899 653.06C276.566 653 276.242 652.913 275.929 652.8C275.622 652.687 275.336 652.553 275.069 652.4C274.809 652.247 274.579 652.08 274.379 651.9L274.949 650.96C275.022 650.847 275.109 650.76 275.209 650.7C275.309 650.64 275.436 650.61 275.589 650.61C275.742 650.61 275.886 650.653 276.019 650.74C276.159 650.827 276.319 650.92 276.499 651.02C276.679 651.12 276.889 651.213 277.129 651.3C277.376 651.387 277.686 651.43 278.059 651.43C278.352 651.43 278.602 651.397 278.809 651.33C279.022 651.257 279.196 651.163 279.329 651.05C279.469 650.937 279.569 650.807 279.629 650.66C279.696 650.507 279.729 650.35 279.729 650.19C279.729 649.95 279.656 649.753 279.509 649.6C279.369 649.447 279.179 649.313 278.939 649.2C278.706 649.087 278.436 648.987 278.129 648.9C277.829 648.807 277.519 648.707 277.199 648.6C276.886 648.493 276.576 648.37 276.269 648.23C275.969 648.083 275.699 647.9 275.459 647.68C275.226 647.46 275.036 647.19 274.889 646.87C274.749 646.55 274.679 646.163 274.679 645.71C274.679 645.29 274.762 644.89 274.929 644.51C275.096 644.13 275.339 643.8 275.659 643.52C275.986 643.233 276.389 643.007 276.869 642.84C277.356 642.667 277.916 642.58 278.549 642.58C279.256 642.58 279.899 642.697 280.479 642.93C281.059 643.163 281.542 643.47 281.929 643.85L281.369 644.74Z" fill="#111111"/>
<rect x="32" y="689" width="312" height="60" rx="30" fill="black"/>
<path d="M125.248 725.02C125.855 725.02 126.382 724.967 126.828 724.86C127.282 724.747 127.712 724.593 128.118 724.4V721.77H126.308C126.135 721.77 125.998 721.723 125.898 721.63C125.798 721.53 125.748 721.41 125.748 721.27V719.75H130.558V725.6C130.192 725.867 129.808 726.1 129.408 726.3C129.015 726.493 128.592 726.653 128.138 726.78C127.692 726.907 127.212 727 126.698 727.06C126.185 727.127 125.632 727.16 125.038 727.16C123.985 727.16 123.015 726.977 122.128 726.61C121.242 726.243 120.475 725.733 119.828 725.08C119.182 724.427 118.675 723.647 118.308 722.74C117.948 721.833 117.768 720.843 117.768 719.77C117.768 718.683 117.945 717.687 118.298 716.78C118.652 715.873 119.152 715.093 119.798 714.44C120.452 713.787 121.242 713.28 122.168 712.92C123.095 712.56 124.135 712.38 125.288 712.38C126.468 712.38 127.488 712.557 128.348 712.91C129.215 713.257 129.948 713.71 130.548 714.27L129.768 715.49C129.615 715.737 129.412 715.86 129.158 715.86C128.998 715.86 128.835 715.807 128.668 715.7C128.455 715.573 128.235 715.447 128.008 715.32C127.788 715.193 127.542 715.083 127.268 714.99C127.002 714.897 126.698 714.82 126.358 714.76C126.025 714.7 125.638 714.67 125.198 714.67C124.485 714.67 123.838 714.79 123.258 715.03C122.685 715.27 122.195 715.613 121.788 716.06C121.382 716.507 121.068 717.043 120.848 717.67C120.628 718.297 120.518 718.997 120.518 719.77C120.518 720.603 120.635 721.347 120.868 722C121.102 722.647 121.428 723.193 121.848 723.64C122.268 724.087 122.768 724.43 123.348 724.67C123.928 724.903 124.562 725.02 125.248 725.02ZM137.302 716.58C138.068 716.58 138.762 716.703 139.382 716.95C140.008 717.197 140.542 717.547 140.982 718C141.422 718.453 141.762 719.007 142.002 719.66C142.242 720.313 142.362 721.043 142.362 721.85C142.362 722.663 142.242 723.397 142.002 724.05C141.762 724.703 141.422 725.26 140.982 725.72C140.542 726.18 140.008 726.533 139.382 726.78C138.762 727.027 138.068 727.15 137.302 727.15C136.535 727.15 135.838 727.027 135.212 726.78C134.585 726.533 134.048 726.18 133.602 725.72C133.162 725.26 132.818 724.703 132.572 724.05C132.332 723.397 132.212 722.663 132.212 721.85C132.212 721.043 132.332 720.313 132.572 719.66C132.818 719.007 133.162 718.453 133.602 718C134.048 717.547 134.585 717.197 135.212 716.95C135.838 716.703 136.535 716.58 137.302 716.58ZM137.302 725.25C138.155 725.25 138.785 724.963 139.192 724.39C139.605 723.817 139.812 722.977 139.812 721.87C139.812 720.763 139.605 719.92 139.192 719.34C138.785 718.76 138.155 718.47 137.302 718.47C136.435 718.47 135.795 718.763 135.382 719.35C134.968 719.93 134.762 720.77 134.762 721.87C134.762 722.97 134.968 723.81 135.382 724.39C135.795 724.963 136.435 725.25 137.302 725.25ZM151.526 727.16C150.639 727.16 149.956 726.91 149.476 726.41C148.996 725.903 148.756 725.207 148.756 724.32V718.59H147.716C147.583 718.59 147.466 718.547 147.366 718.46C147.273 718.373 147.226 718.243 147.226 718.07V717.09L148.876 716.82L149.396 714.02C149.423 713.887 149.483 713.783 149.576 713.71C149.676 713.637 149.799 713.6 149.946 713.6H151.226V716.83H153.926V718.59H151.226V724.15C151.226 724.47 151.306 724.72 151.466 724.9C151.626 725.08 151.839 725.17 152.106 725.17C152.259 725.17 152.386 725.153 152.486 725.12C152.593 725.08 152.683 725.04 152.756 725C152.836 724.96 152.906 724.923 152.966 724.89C153.026 724.85 153.086 724.83 153.146 724.83C153.219 724.83 153.279 724.85 153.326 724.89C153.373 724.923 153.423 724.977 153.476 725.05L154.216 726.25C153.856 726.55 153.443 726.777 152.976 726.93C152.509 727.083 152.026 727.16 151.526 727.16ZM160.27 716.58C161.037 716.58 161.73 716.703 162.35 716.95C162.977 717.197 163.51 717.547 163.95 718C164.39 718.453 164.73 719.007 164.97 719.66C165.21 720.313 165.33 721.043 165.33 721.85C165.33 722.663 165.21 723.397 164.97 724.05C164.73 724.703 164.39 725.26 163.95 725.72C163.51 726.18 162.977 726.533 162.35 726.78C161.73 727.027 161.037 727.15 160.27 727.15C159.504 727.15 158.807 727.027 158.18 726.78C157.554 726.533 157.017 726.18 156.57 725.72C156.13 725.26 155.787 724.703 155.54 724.05C155.3 723.397 155.18 722.663 155.18 721.85C155.18 721.043 155.3 720.313 155.54 719.66C155.787 719.007 156.13 718.453 156.57 718C157.017 717.547 157.554 717.197 158.18 716.95C158.807 716.703 159.504 716.58 160.27 716.58ZM160.27 725.25C161.124 725.25 161.754 724.963 162.16 724.39C162.574 723.817 162.78 722.977 162.78 721.87C162.78 720.763 162.574 719.92 162.16 719.34C161.754 718.76 161.124 718.47 160.27 718.47C159.404 718.47 158.764 718.763 158.35 719.35C157.937 719.93 157.73 720.77 157.73 721.87C157.73 722.97 157.937 723.81 158.35 724.39C158.764 724.963 159.404 725.25 160.27 725.25ZM172.675 712.54C172.795 712.54 172.895 712.547 172.975 712.56C173.055 712.567 173.125 712.587 173.185 712.62C173.251 712.647 173.315 712.69 173.375 712.75C173.435 712.803 173.501 712.877 173.575 712.97L181.165 722.64C181.138 722.407 181.118 722.18 181.105 721.96C181.098 721.733 181.095 721.523 181.095 721.33V712.54H183.465V727H182.075C181.861 727 181.685 726.967 181.545 726.9C181.405 726.833 181.268 726.713 181.135 726.54L173.575 716.91C173.595 717.123 173.608 717.337 173.615 717.55C173.628 717.757 173.635 717.947 173.635 718.12V727H171.265V712.54H172.675ZM190.482 716.58C191.129 716.58 191.722 716.683 192.262 716.89C192.809 717.097 193.279 717.4 193.672 717.8C194.065 718.193 194.372 718.68 194.592 719.26C194.812 719.833 194.922 720.49 194.922 721.23C194.922 721.417 194.912 721.573 194.892 721.7C194.879 721.82 194.849 721.917 194.802 721.99C194.762 722.057 194.705 722.107 194.632 722.14C194.559 722.167 194.465 722.18 194.352 722.18H188.012C188.085 723.233 188.369 724.007 188.862 724.5C189.355 724.993 190.009 725.24 190.822 725.24C191.222 725.24 191.565 725.193 191.852 725.1C192.145 725.007 192.399 724.903 192.612 724.79C192.832 724.677 193.022 724.573 193.182 724.48C193.349 724.387 193.509 724.34 193.662 724.34C193.762 724.34 193.849 724.36 193.922 724.4C193.995 724.44 194.059 724.497 194.112 724.57L194.832 725.47C194.559 725.79 194.252 726.06 193.912 726.28C193.572 726.493 193.215 726.667 192.842 726.8C192.475 726.927 192.099 727.017 191.712 727.07C191.332 727.123 190.962 727.15 190.602 727.15C189.889 727.15 189.225 727.033 188.612 726.8C187.999 726.56 187.465 726.21 187.012 725.75C186.559 725.283 186.202 724.71 185.942 724.03C185.682 723.343 185.552 722.55 185.552 721.65C185.552 720.95 185.665 720.293 185.892 719.68C186.119 719.06 186.442 718.523 186.862 718.07C187.289 717.61 187.805 717.247 188.412 716.98C189.025 716.713 189.715 716.58 190.482 716.58ZM190.532 718.35C189.812 718.35 189.249 718.553 188.842 718.96C188.435 719.367 188.175 719.943 188.062 720.69H192.702C192.702 720.37 192.659 720.07 192.572 719.79C192.485 719.503 192.352 719.253 192.172 719.04C191.992 718.827 191.765 718.66 191.492 718.54C191.219 718.413 190.899 718.35 190.532 718.35ZM198.75 721.71L195.38 716.74H197.76C197.94 716.74 198.073 716.767 198.16 716.82C198.247 716.867 198.323 716.947 198.39 717.06L200.54 720.49C200.573 720.377 200.613 720.263 200.66 720.15C200.713 720.037 200.777 719.923 200.85 719.81L202.58 717.11C202.66 716.983 202.743 716.89 202.83 716.83C202.917 716.77 203.023 716.74 203.15 716.74H205.42L202.04 721.6L205.56 727H203.18C203 727 202.853 726.953 202.74 726.86C202.633 726.767 202.543 726.66 202.47 726.54L200.29 722.97C200.23 723.21 200.147 723.41 200.04 723.57L198.12 726.54C198.047 726.653 197.957 726.76 197.85 726.86C197.743 726.953 197.61 727 197.45 727H195.24L198.75 721.71ZM210.491 727.16C209.604 727.16 208.921 726.91 208.441 726.41C207.961 725.903 207.721 725.207 207.721 724.32V718.59H206.681C206.547 718.59 206.431 718.547 206.331 718.46C206.237 718.373 206.191 718.243 206.191 718.07V717.09L207.841 716.82L208.361 714.02C208.387 713.887 208.447 713.783 208.541 713.71C208.641 713.637 208.764 713.6 208.911 713.6H210.191V716.83H212.891V718.59H210.191V724.15C210.191 724.47 210.271 724.72 210.431 724.9C210.591 725.08 210.804 725.17 211.071 725.17C211.224 725.17 211.351 725.153 211.451 725.12C211.557 725.08 211.647 725.04 211.721 725C211.801 724.96 211.871 724.923 211.931 724.89C211.991 724.85 212.051 724.83 212.111 724.83C212.184 724.83 212.244 724.85 212.291 724.89C212.337 724.923 212.387 724.977 212.441 725.05L213.181 726.25C212.821 726.55 212.407 726.777 211.941 726.93C211.474 727.083 210.991 727.16 210.491 727.16ZM226.612 715.17C226.539 715.317 226.452 715.42 226.352 715.48C226.259 715.54 226.146 715.57 226.012 715.57C225.879 715.57 225.729 715.52 225.562 715.42C225.396 715.313 225.199 715.197 224.972 715.07C224.746 714.943 224.479 714.83 224.172 714.73C223.872 714.623 223.516 714.57 223.102 714.57C222.729 714.57 222.402 714.617 222.122 714.71C221.849 714.797 221.616 714.92 221.422 715.08C221.236 715.24 221.096 715.433 221.002 715.66C220.909 715.88 220.862 716.123 220.862 716.39C220.862 716.73 220.956 717.013 221.142 717.24C221.336 717.467 221.589 717.66 221.902 717.82C222.216 717.98 222.572 718.123 222.972 718.25C223.372 718.377 223.779 718.513 224.192 718.66C224.612 718.8 225.022 718.967 225.422 719.16C225.822 719.347 226.179 719.587 226.492 719.88C226.806 720.167 227.056 720.52 227.242 720.94C227.436 721.36 227.532 721.87 227.532 722.47C227.532 723.123 227.419 723.737 227.192 724.31C226.972 724.877 226.646 725.373 226.212 725.8C225.786 726.22 225.262 726.553 224.642 726.8C224.022 727.04 223.312 727.16 222.512 727.16C222.052 727.16 221.599 727.113 221.152 727.02C220.706 726.933 220.276 726.807 219.862 726.64C219.456 726.473 219.072 726.273 218.712 726.04C218.359 725.807 218.042 725.547 217.762 725.26L218.542 723.97C218.616 723.877 218.702 723.8 218.802 723.74C218.909 723.673 219.026 723.64 219.152 723.64C219.319 723.64 219.499 723.71 219.692 723.85C219.886 723.983 220.112 724.133 220.372 724.3C220.639 724.467 220.949 724.62 221.302 724.76C221.662 724.893 222.092 724.96 222.592 724.96C223.359 724.96 223.952 724.78 224.372 724.42C224.792 724.053 225.002 723.53 225.002 722.85C225.002 722.47 224.906 722.16 224.712 721.92C224.526 721.68 224.276 721.48 223.962 721.32C223.649 721.153 223.292 721.013 222.892 720.9C222.492 720.787 222.086 720.663 221.672 720.53C221.259 720.397 220.852 720.237 220.452 720.05C220.052 719.863 219.696 719.62 219.382 719.32C219.069 719.02 218.816 718.647 218.622 718.2C218.436 717.747 218.342 717.19 218.342 716.53C218.342 716.003 218.446 715.49 218.652 714.99C218.866 714.49 219.172 714.047 219.572 713.66C219.979 713.273 220.476 712.963 221.062 712.73C221.649 712.497 222.319 712.38 223.072 712.38C223.926 712.38 224.712 712.513 225.432 712.78C226.152 713.047 226.766 713.42 227.272 713.9L226.612 715.17ZM232.815 727.16C231.928 727.16 231.245 726.91 230.765 726.41C230.285 725.903 230.045 725.207 230.045 724.32V718.59H229.005C228.872 718.59 228.755 718.547 228.655 718.46C228.562 718.373 228.515 718.243 228.515 718.07V717.09L230.165 716.82L230.685 714.02C230.712 713.887 230.772 713.783 230.865 713.71C230.965 713.637 231.088 713.6 231.235 713.6H232.515V716.83H235.215V718.59H232.515V724.15C232.515 724.47 232.595 724.72 232.755 724.9C232.915 725.08 233.128 725.17 233.395 725.17C233.548 725.17 233.675 725.153 233.775 725.12C233.882 725.08 233.972 725.04 234.045 725C234.125 724.96 234.195 724.923 234.255 724.89C234.315 724.85 234.375 724.83 234.435 724.83C234.508 724.83 234.568 724.85 234.615 724.89C234.662 724.923 234.712 724.977 234.765 725.05L235.505 726.25C235.145 726.55 234.732 726.777 234.265 726.93C233.798 727.083 233.315 727.16 232.815 727.16ZM241.419 716.58C242.066 716.58 242.659 716.683 243.199 716.89C243.746 717.097 244.216 717.4 244.609 717.8C245.003 718.193 245.309 718.68 245.529 719.26C245.749 719.833 245.859 720.49 245.859 721.23C245.859 721.417 245.849 721.573 245.829 721.7C245.816 721.82 245.786 721.917 245.739 721.99C245.699 722.057 245.643 722.107 245.569 722.14C245.496 722.167 245.403 722.18 245.289 722.18H238.949C239.023 723.233 239.306 724.007 239.799 724.5C240.293 724.993 240.946 725.24 241.759 725.24C242.159 725.24 242.503 725.193 242.789 725.1C243.083 725.007 243.336 724.903 243.549 724.79C243.769 724.677 243.959 724.573 244.119 724.48C244.286 724.387 244.446 724.34 244.599 724.34C244.699 724.34 244.786 724.36 244.859 724.4C244.933 724.44 244.996 724.497 245.049 724.57L245.769 725.47C245.496 725.79 245.189 726.06 244.849 726.28C244.509 726.493 244.153 726.667 243.779 726.8C243.413 726.927 243.036 727.017 242.649 727.07C242.269 727.123 241.899 727.15 241.539 727.15C240.826 727.15 240.163 727.033 239.549 726.8C238.936 726.56 238.403 726.21 237.949 725.75C237.496 725.283 237.139 724.71 236.879 724.03C236.619 723.343 236.489 722.55 236.489 721.65C236.489 720.95 236.603 720.293 236.829 719.68C237.056 719.06 237.379 718.523 237.799 718.07C238.226 717.61 238.743 717.247 239.349 716.98C239.963 716.713 240.653 716.58 241.419 716.58ZM241.469 718.35C240.749 718.35 240.186 718.553 239.779 718.96C239.373 719.367 239.113 719.943 238.999 720.69H243.639C243.639 720.37 243.596 720.07 243.509 719.79C243.423 719.503 243.289 719.253 243.109 719.04C242.929 718.827 242.703 718.66 242.429 718.54C242.156 718.413 241.836 718.35 241.469 718.35ZM247.863 730.35V716.74H249.373C249.533 716.74 249.67 716.777 249.783 716.85C249.896 716.923 249.97 717.037 250.003 717.19L250.203 718.14C250.616 717.667 251.09 717.283 251.623 716.99C252.163 716.697 252.793 716.55 253.513 716.55C254.073 716.55 254.583 716.667 255.043 716.9C255.51 717.133 255.91 717.473 256.243 717.92C256.583 718.36 256.843 718.907 257.023 719.56C257.21 720.207 257.303 720.95 257.303 721.79C257.303 722.557 257.2 723.267 256.993 723.92C256.786 724.573 256.49 725.14 256.103 725.62C255.723 726.1 255.26 726.477 254.713 726.75C254.173 727.017 253.566 727.15 252.893 727.15C252.313 727.15 251.82 727.063 251.413 726.89C251.013 726.71 250.653 726.463 250.333 726.15V730.35H247.863ZM252.663 718.5C252.15 718.5 251.71 718.61 251.343 718.83C250.983 719.043 250.646 719.347 250.333 719.74V724.34C250.613 724.687 250.916 724.93 251.243 725.07C251.576 725.203 251.933 725.27 252.313 725.27C252.686 725.27 253.023 725.2 253.323 725.06C253.63 724.92 253.886 724.707 254.093 724.42C254.306 724.133 254.47 723.773 254.583 723.34C254.696 722.9 254.753 722.383 254.753 721.79C254.753 721.19 254.703 720.683 254.603 720.27C254.51 719.85 254.373 719.51 254.193 719.25C254.013 718.99 253.793 718.8 253.533 718.68C253.28 718.56 252.99 718.5 252.663 718.5Z" fill="white"/>
<circle opacity="0.1" cx="311.5" cy="719.5" r="22.5" fill="white"/>
<path d="M312.793 713.179C312.527 712.932 312.104 712.942 311.851 713.202C311.597 713.462 311.607 713.873 311.874 714.121L316.988 718.85H303.667C303.299 718.85 303 719.141 303 719.5C303 719.859 303.299 720.15 303.667 720.15H316.966L311.874 724.879C311.607 725.127 311.597 725.538 311.851 725.798C311.982 725.932 312.157 726 312.333 726C312.499 726 312.664 725.941 312.793 725.821L318.609 720.419C318.861 720.174 319 719.847 319 719.5C319 719.152 318.861 718.826 318.598 718.57L312.793 713.179Z" fill="white"/>
<path d="M84.9527 445.54V447.75H80.6027V460H77.9127V447.75H73.5427V445.54H84.9527ZM86.5173 460V445.14H88.9873V450.85C89.3873 450.47 89.8273 450.163 90.3073 449.93C90.7873 449.697 91.3506 449.58 91.9973 449.58C92.5573 449.58 93.0539 449.677 93.4873 449.87C93.9206 450.057 94.2806 450.323 94.5673 450.67C94.8606 451.01 95.0806 451.42 95.2273 451.9C95.3806 452.373 95.4573 452.897 95.4573 453.47V460H92.9873V453.47C92.9873 452.843 92.8406 452.36 92.5473 452.02C92.2606 451.673 91.8273 451.5 91.2473 451.5C90.8206 451.5 90.4206 451.597 90.0473 451.79C89.6739 451.983 89.3206 452.247 88.9873 452.58V460H86.5173ZM105.924 460H104.814C104.581 460 104.398 459.967 104.264 459.9C104.131 459.827 104.031 459.683 103.964 459.47L103.744 458.74C103.484 458.973 103.228 459.18 102.974 459.36C102.728 459.533 102.471 459.68 102.204 459.8C101.938 459.92 101.654 460.01 101.354 460.07C101.054 460.13 100.721 460.16 100.354 460.16C99.9211 460.16 99.5211 460.103 99.1545 459.99C98.7878 459.87 98.4711 459.693 98.2045 459.46C97.9445 459.227 97.7411 458.937 97.5945 458.59C97.4478 458.243 97.3745 457.84 97.3745 457.38C97.3745 456.993 97.4745 456.613 97.6745 456.24C97.8811 455.86 98.2211 455.52 98.6945 455.22C99.1678 454.913 99.7978 454.66 100.584 454.46C101.371 454.26 102.348 454.147 103.514 454.12V453.52C103.514 452.833 103.368 452.327 103.074 452C102.788 451.667 102.368 451.5 101.814 451.5C101.414 451.5 101.081 451.547 100.814 451.64C100.548 451.733 100.314 451.84 100.114 451.96C99.9211 452.073 99.7411 452.177 99.5745 452.27C99.4078 452.363 99.2245 452.41 99.0245 452.41C98.8578 452.41 98.7145 452.367 98.5945 452.28C98.4745 452.193 98.3778 452.087 98.3045 451.96L97.8545 451.17C99.0345 450.09 100.458 449.55 102.124 449.55C102.724 449.55 103.258 449.65 103.724 449.85C104.198 450.043 104.598 450.317 104.924 450.67C105.251 451.017 105.498 451.433 105.664 451.92C105.838 452.407 105.924 452.94 105.924 453.52V460ZM101.124 458.46C101.378 458.46 101.611 458.437 101.824 458.39C102.038 458.343 102.238 458.273 102.424 458.18C102.618 458.087 102.801 457.973 102.974 457.84C103.154 457.7 103.334 457.537 103.514 457.35V455.62C102.794 455.653 102.191 455.717 101.704 455.81C101.224 455.897 100.838 456.01 100.544 456.15C100.251 456.29 100.041 456.453 99.9145 456.64C99.7945 456.827 99.7345 457.03 99.7345 457.25C99.7345 457.683 99.8611 457.993 100.114 458.18C100.374 458.367 100.711 458.46 101.124 458.46ZM108.353 460V449.74H109.863C110.183 449.74 110.393 449.89 110.493 450.19L110.663 451C110.87 450.787 111.087 450.593 111.313 450.42C111.547 450.247 111.79 450.097 112.043 449.97C112.303 449.843 112.58 449.747 112.873 449.68C113.167 449.613 113.487 449.58 113.833 449.58C114.393 449.58 114.89 449.677 115.323 449.87C115.757 450.057 116.117 450.323 116.403 450.67C116.697 451.01 116.917 451.42 117.063 451.9C117.217 452.373 117.293 452.897 117.293 453.47V460H114.823V453.47C114.823 452.843 114.677 452.36 114.383 452.02C114.097 451.673 113.663 451.5 113.083 451.5C112.657 451.5 112.257 451.597 111.883 451.79C111.51 451.983 111.157 452.247 110.823 452.58V460H108.353ZM122.22 445.14V453.65H122.68C122.847 453.65 122.977 453.627 123.07 453.58C123.164 453.533 123.264 453.447 123.37 453.32L125.92 450.17C126.034 450.037 126.154 449.933 126.28 449.86C126.407 449.78 126.574 449.74 126.78 449.74H129.04L125.85 453.55C125.737 453.69 125.62 453.82 125.5 453.94C125.38 454.053 125.25 454.153 125.11 454.24C125.25 454.34 125.374 454.457 125.48 454.59C125.587 454.723 125.694 454.867 125.8 455.02L129.22 460H126.99C126.797 460 126.634 459.967 126.5 459.9C126.367 459.833 126.247 459.72 126.14 459.56L123.53 455.67C123.43 455.517 123.33 455.417 123.23 455.37C123.13 455.323 122.98 455.3 122.78 455.3H122.22V460H119.75V445.14H122.22ZM136.846 451.74C136.779 451.847 136.709 451.923 136.636 451.97C136.562 452.01 136.469 452.03 136.356 452.03C136.236 452.03 136.106 451.997 135.966 451.93C135.832 451.863 135.676 451.79 135.496 451.71C135.316 451.623 135.109 451.547 134.876 451.48C134.649 451.413 134.379 451.38 134.066 451.38C133.579 451.38 133.196 451.483 132.916 451.69C132.636 451.897 132.496 452.167 132.496 452.5C132.496 452.72 132.566 452.907 132.706 453.06C132.852 453.207 133.042 453.337 133.276 453.45C133.516 453.563 133.786 453.667 134.086 453.76C134.386 453.847 134.692 453.943 135.006 454.05C135.319 454.157 135.626 454.28 135.926 454.42C136.226 454.553 136.492 454.727 136.726 454.94C136.966 455.147 137.156 455.397 137.296 455.69C137.442 455.983 137.516 456.337 137.516 456.75C137.516 457.243 137.426 457.7 137.246 458.12C137.066 458.533 136.802 458.893 136.456 459.2C136.109 459.5 135.679 459.737 135.166 459.91C134.659 460.077 134.076 460.16 133.416 460.16C133.062 460.16 132.716 460.127 132.376 460.06C132.042 460 131.719 459.913 131.406 459.8C131.099 459.687 130.812 459.553 130.546 459.4C130.286 459.247 130.056 459.08 129.856 458.9L130.426 457.96C130.499 457.847 130.586 457.76 130.686 457.7C130.786 457.64 130.912 457.61 131.066 457.61C131.219 457.61 131.362 457.653 131.496 457.74C131.636 457.827 131.796 457.92 131.976 458.02C132.156 458.12 132.366 458.213 132.606 458.3C132.852 458.387 133.162 458.43 133.536 458.43C133.829 458.43 134.079 458.397 134.286 458.33C134.499 458.257 134.672 458.163 134.806 458.05C134.946 457.937 135.046 457.807 135.106 457.66C135.172 457.507 135.206 457.35 135.206 457.19C135.206 456.95 135.132 456.753 134.986 456.6C134.846 456.447 134.656 456.313 134.416 456.2C134.182 456.087 133.912 455.987 133.606 455.9C133.306 455.807 132.996 455.707 132.676 455.6C132.362 455.493 132.052 455.37 131.746 455.23C131.446 455.083 131.176 454.9 130.936 454.68C130.702 454.46 130.512 454.19 130.366 453.87C130.226 453.55 130.156 453.163 130.156 452.71C130.156 452.29 130.239 451.89 130.406 451.51C130.572 451.13 130.816 450.8 131.136 450.52C131.462 450.233 131.866 450.007 132.346 449.84C132.832 449.667 133.392 449.58 134.026 449.58C134.732 449.58 135.376 449.697 135.956 449.93C136.536 450.163 137.019 450.47 137.406 450.85L136.846 451.74ZM143.793 460V451.6L142.903 451.46C142.71 451.427 142.553 451.36 142.433 451.26C142.32 451.16 142.263 451.02 142.263 450.84V449.83H143.793V449.07C143.793 448.483 143.88 447.957 144.053 447.49C144.233 447.023 144.487 446.627 144.813 446.3C145.147 445.973 145.55 445.723 146.023 445.55C146.497 445.377 147.03 445.29 147.623 445.29C148.097 445.29 148.537 445.353 148.943 445.48L148.893 446.72C148.88 446.913 148.79 447.033 148.623 447.08C148.457 447.127 148.263 447.15 148.043 447.15C147.75 447.15 147.487 447.183 147.253 447.25C147.027 447.31 146.833 447.42 146.673 447.58C146.513 447.733 146.39 447.94 146.303 448.2C146.223 448.453 146.183 448.77 146.183 449.15V449.83H148.853V451.59H146.263V460H143.793ZM154.745 449.58C155.512 449.58 156.205 449.703 156.825 449.95C157.452 450.197 157.985 450.547 158.425 451C158.865 451.453 159.205 452.007 159.445 452.66C159.685 453.313 159.805 454.043 159.805 454.85C159.805 455.663 159.685 456.397 159.445 457.05C159.205 457.703 158.865 458.26 158.425 458.72C157.985 459.18 157.452 459.533 156.825 459.78C156.205 460.027 155.512 460.15 154.745 460.15C153.978 460.15 153.282 460.027 152.655 459.78C152.028 459.533 151.492 459.18 151.045 458.72C150.605 458.26 150.262 457.703 150.015 457.05C149.775 456.397 149.655 455.663 149.655 454.85C149.655 454.043 149.775 453.313 150.015 452.66C150.262 452.007 150.605 451.453 151.045 451C151.492 450.547 152.028 450.197 152.655 449.95C153.282 449.703 153.978 449.58 154.745 449.58ZM154.745 458.25C155.598 458.25 156.228 457.963 156.635 457.39C157.048 456.817 157.255 455.977 157.255 454.87C157.255 453.763 157.048 452.92 156.635 452.34C156.228 451.76 155.598 451.47 154.745 451.47C153.878 451.47 153.238 451.763 152.825 452.35C152.412 452.93 152.205 453.77 152.205 454.87C152.205 455.97 152.412 456.81 152.825 457.39C153.238 457.963 153.878 458.25 154.745 458.25ZM161.732 460V449.74H163.182C163.435 449.74 163.612 449.787 163.712 449.88C163.812 449.973 163.879 450.133 163.912 450.36L164.062 451.6C164.429 450.967 164.859 450.467 165.352 450.1C165.845 449.733 166.399 449.55 167.012 449.55C167.519 449.55 167.939 449.667 168.272 449.9L167.952 451.75C167.932 451.87 167.889 451.957 167.822 452.01C167.755 452.057 167.665 452.08 167.552 452.08C167.452 452.08 167.315 452.057 167.142 452.01C166.969 451.963 166.739 451.94 166.452 451.94C165.939 451.94 165.499 452.083 165.132 452.37C164.765 452.65 164.455 453.063 164.202 453.61V460H161.732ZM173.763 463.35V449.74H175.273C175.433 449.74 175.57 449.777 175.683 449.85C175.797 449.923 175.87 450.037 175.903 450.19L176.103 451.14C176.517 450.667 176.99 450.283 177.523 449.99C178.063 449.697 178.693 449.55 179.413 449.55C179.973 449.55 180.483 449.667 180.943 449.9C181.41 450.133 181.81 450.473 182.143 450.92C182.483 451.36 182.743 451.907 182.923 452.56C183.11 453.207 183.203 453.95 183.203 454.79C183.203 455.557 183.1 456.267 182.893 456.92C182.687 457.573 182.39 458.14 182.003 458.62C181.623 459.1 181.16 459.477 180.613 459.75C180.073 460.017 179.467 460.15 178.793 460.15C178.213 460.15 177.72 460.063 177.313 459.89C176.913 459.71 176.553 459.463 176.233 459.15V463.35H173.763ZM178.563 451.5C178.05 451.5 177.61 451.61 177.243 451.83C176.883 452.043 176.547 452.347 176.233 452.74V457.34C176.513 457.687 176.817 457.93 177.143 458.07C177.477 458.203 177.833 458.27 178.213 458.27C178.587 458.27 178.923 458.2 179.223 458.06C179.53 457.92 179.787 457.707 179.993 457.42C180.207 457.133 180.37 456.773 180.483 456.34C180.597 455.9 180.653 455.383 180.653 454.79C180.653 454.19 180.603 453.683 180.503 453.27C180.41 452.85 180.273 452.51 180.093 452.25C179.913 451.99 179.693 451.8 179.433 451.68C179.18 451.56 178.89 451.5 178.563 451.5ZM185.072 460V449.74H186.522C186.775 449.74 186.952 449.787 187.052 449.88C187.152 449.973 187.219 450.133 187.252 450.36L187.402 451.6C187.769 450.967 188.199 450.467 188.692 450.1C189.185 449.733 189.739 449.55 190.352 449.55C190.859 449.55 191.279 449.667 191.612 449.9L191.292 451.75C191.272 451.87 191.229 451.957 191.162 452.01C191.095 452.057 191.005 452.08 190.892 452.08C190.792 452.08 190.655 452.057 190.482 452.01C190.309 451.963 190.079 451.94 189.792 451.94C189.279 451.94 188.839 452.083 188.472 452.37C188.105 452.65 187.795 453.063 187.542 453.61V460H185.072ZM197.616 449.58C198.383 449.58 199.076 449.703 199.696 449.95C200.323 450.197 200.856 450.547 201.296 451C201.736 451.453 202.076 452.007 202.316 452.66C202.556 453.313 202.676 454.043 202.676 454.85C202.676 455.663 202.556 456.397 202.316 457.05C202.076 457.703 201.736 458.26 201.296 458.72C200.856 459.18 200.323 459.533 199.696 459.78C199.076 460.027 198.383 460.15 197.616 460.15C196.849 460.15 196.153 460.027 195.526 459.78C194.899 459.533 194.363 459.18 193.916 458.72C193.476 458.26 193.133 457.703 192.886 457.05C192.646 456.397 192.526 455.663 192.526 454.85C192.526 454.043 192.646 453.313 192.886 452.66C193.133 452.007 193.476 451.453 193.916 451C194.363 450.547 194.899 450.197 195.526 449.95C196.153 449.703 196.849 449.58 197.616 449.58ZM197.616 458.25C198.469 458.25 199.099 457.963 199.506 457.39C199.919 456.817 200.126 455.977 200.126 454.87C200.126 453.763 199.919 452.92 199.506 452.34C199.099 451.76 198.469 451.47 197.616 451.47C196.749 451.47 196.109 451.763 195.696 452.35C195.283 452.93 195.076 453.77 195.076 454.87C195.076 455.97 195.283 456.81 195.696 457.39C196.109 457.963 196.749 458.25 197.616 458.25ZM209.411 460H207.171L203.091 449.74H205.141C205.321 449.74 205.471 449.783 205.591 449.87C205.718 449.957 205.805 450.067 205.851 450.2L207.831 455.68C207.945 456 208.038 456.313 208.111 456.62C208.191 456.927 208.261 457.233 208.321 457.54C208.381 457.233 208.448 456.927 208.521 456.62C208.601 456.313 208.701 456 208.821 455.68L210.851 450.2C210.898 450.067 210.981 449.957 211.101 449.87C211.221 449.783 211.365 449.74 211.531 449.74H213.481L209.411 460ZM217.565 449.74V460H215.095V449.74H217.565ZM217.935 446.75C217.935 446.963 217.892 447.163 217.805 447.35C217.719 447.537 217.602 447.7 217.455 447.84C217.315 447.98 217.149 448.093 216.955 448.18C216.762 448.26 216.555 448.3 216.335 448.3C216.122 448.3 215.919 448.26 215.725 448.18C215.539 448.093 215.375 447.98 215.235 447.84C215.095 447.7 214.982 447.537 214.895 447.35C214.815 447.163 214.775 446.963 214.775 446.75C214.775 446.53 214.815 446.323 214.895 446.13C214.982 445.937 215.095 445.77 215.235 445.63C215.375 445.49 215.539 445.38 215.725 445.3C215.919 445.213 216.122 445.17 216.335 445.17C216.555 445.17 216.762 445.213 216.955 445.3C217.149 445.38 217.315 445.49 217.455 445.63C217.602 445.77 217.719 445.937 217.805 446.13C217.892 446.323 217.935 446.53 217.935 446.75ZM227.585 460C227.265 460 227.055 459.85 226.955 459.55L226.755 458.56C226.542 458.8 226.318 459.017 226.085 459.21C225.852 459.403 225.598 459.57 225.325 459.71C225.058 459.85 224.768 459.957 224.455 460.03C224.148 460.11 223.815 460.15 223.455 460.15C222.895 460.15 222.382 460.033 221.915 459.8C221.448 459.567 221.045 459.23 220.705 458.79C220.372 458.343 220.112 457.793 219.925 457.14C219.745 456.487 219.655 455.74 219.655 454.9C219.655 454.14 219.758 453.433 219.965 452.78C220.172 452.127 220.468 451.56 220.855 451.08C221.242 450.6 221.705 450.227 222.245 449.96C222.785 449.687 223.392 449.55 224.065 449.55C224.638 449.55 225.128 449.643 225.535 449.83C225.942 450.01 226.305 450.253 226.625 450.56V445.14H229.095V460H227.585ZM224.295 458.19C224.808 458.19 225.245 458.083 225.605 457.87C225.965 457.657 226.305 457.353 226.625 456.96V452.36C226.345 452.02 226.038 451.78 225.705 451.64C225.378 451.5 225.025 451.43 224.645 451.43C224.272 451.43 223.932 451.5 223.625 451.64C223.325 451.78 223.068 451.993 222.855 452.28C222.648 452.56 222.488 452.92 222.375 453.36C222.262 453.793 222.205 454.307 222.205 454.9C222.205 455.5 222.252 456.01 222.345 456.43C222.445 456.843 222.585 457.183 222.765 457.45C222.945 457.71 223.165 457.9 223.425 458.02C223.685 458.133 223.975 458.19 224.295 458.19ZM234.401 449.74V460H231.931V449.74H234.401ZM234.771 446.75C234.771 446.963 234.728 447.163 234.641 447.35C234.555 447.537 234.438 447.7 234.291 447.84C234.151 447.98 233.985 448.093 233.791 448.18C233.598 448.26 233.391 448.3 233.171 448.3C232.958 448.3 232.755 448.26 232.561 448.18C232.375 448.093 232.211 447.98 232.071 447.84C231.931 447.7 231.818 447.537 231.731 447.35C231.651 447.163 231.611 446.963 231.611 446.75C231.611 446.53 231.651 446.323 231.731 446.13C231.818 445.937 231.931 445.77 232.071 445.63C232.211 445.49 232.375 445.38 232.561 445.3C232.755 445.213 232.958 445.17 233.171 445.17C233.391 445.17 233.598 445.213 233.791 445.3C233.985 445.38 234.151 445.49 234.291 445.63C234.438 445.77 234.555 445.937 234.641 446.13C234.728 446.323 234.771 446.53 234.771 446.75ZM237.201 460V449.74H238.711C239.031 449.74 239.241 449.89 239.341 450.19L239.511 451C239.718 450.787 239.934 450.593 240.161 450.42C240.394 450.247 240.638 450.097 240.891 449.97C241.151 449.843 241.428 449.747 241.721 449.68C242.014 449.613 242.334 449.58 242.681 449.58C243.241 449.58 243.738 449.677 244.171 449.87C244.604 450.057 244.964 450.323 245.251 450.67C245.544 451.01 245.764 451.42 245.911 451.9C246.064 452.373 246.141 452.897 246.141 453.47V460H243.671V453.47C243.671 452.843 243.524 452.36 243.231 452.02C242.944 451.673 242.511 451.5 241.931 451.5C241.504 451.5 241.104 451.597 240.731 451.79C240.358 451.983 240.004 452.247 239.671 452.58V460H237.201ZM252.118 449.56C252.558 449.56 252.971 449.607 253.358 449.7C253.745 449.787 254.098 449.917 254.418 450.09H257.368V451.01C257.368 451.163 257.328 451.283 257.248 451.37C257.168 451.457 257.031 451.517 256.838 451.55L255.918 451.72C255.985 451.893 256.035 452.077 256.068 452.27C256.108 452.463 256.128 452.667 256.128 452.88C256.128 453.387 256.025 453.847 255.818 454.26C255.618 454.667 255.338 455.013 254.978 455.3C254.625 455.587 254.201 455.81 253.708 455.97C253.221 456.123 252.691 456.2 252.118 456.2C251.731 456.2 251.355 456.163 250.988 456.09C250.668 456.283 250.508 456.5 250.508 456.74C250.508 456.947 250.601 457.1 250.788 457.2C250.981 457.293 251.231 457.36 251.538 457.4C251.851 457.44 252.205 457.467 252.598 457.48C252.991 457.487 253.395 457.507 253.808 457.54C254.221 457.573 254.625 457.633 255.018 457.72C255.411 457.8 255.761 457.93 256.068 458.11C256.381 458.29 256.631 458.537 256.818 458.85C257.011 459.157 257.108 459.553 257.108 460.04C257.108 460.493 256.995 460.933 256.768 461.36C256.548 461.787 256.225 462.167 255.798 462.5C255.378 462.833 254.861 463.1 254.248 463.3C253.635 463.507 252.935 463.61 252.148 463.61C251.368 463.61 250.691 463.533 250.118 463.38C249.545 463.233 249.068 463.033 248.688 462.78C248.315 462.533 248.035 462.247 247.848 461.92C247.661 461.593 247.568 461.253 247.568 460.9C247.568 460.42 247.715 460.017 248.008 459.69C248.301 459.363 248.708 459.103 249.228 458.91C248.975 458.77 248.771 458.583 248.618 458.35C248.465 458.117 248.388 457.813 248.388 457.44C248.388 457.287 248.415 457.13 248.468 456.97C248.521 456.803 248.601 456.64 248.708 456.48C248.821 456.32 248.961 456.17 249.128 456.03C249.295 455.883 249.491 455.753 249.718 455.64C249.198 455.36 248.788 454.987 248.488 454.52C248.195 454.053 248.048 453.507 248.048 452.88C248.048 452.373 248.148 451.917 248.348 451.51C248.555 451.097 248.838 450.747 249.198 450.46C249.565 450.167 249.995 449.943 250.488 449.79C250.988 449.637 251.531 449.56 252.118 449.56ZM254.828 460.46C254.828 460.26 254.768 460.097 254.648 459.97C254.528 459.843 254.365 459.747 254.158 459.68C253.951 459.607 253.708 459.553 253.428 459.52C253.155 459.487 252.861 459.463 252.548 459.45C252.241 459.43 251.921 459.413 251.588 459.4C251.261 459.38 250.945 459.35 250.638 459.31C250.358 459.463 250.131 459.647 249.958 459.86C249.791 460.067 249.708 460.307 249.708 460.58C249.708 460.76 249.751 460.927 249.838 461.08C249.931 461.24 250.075 461.377 250.268 461.49C250.468 461.603 250.725 461.69 251.038 461.75C251.351 461.817 251.735 461.85 252.188 461.85C252.648 461.85 253.045 461.813 253.378 461.74C253.711 461.673 253.985 461.577 254.198 461.45C254.418 461.33 254.578 461.183 254.678 461.01C254.778 460.843 254.828 460.66 254.828 460.46ZM252.118 454.62C252.425 454.62 252.691 454.58 252.918 454.5C253.145 454.413 253.331 454.297 253.478 454.15C253.631 454.003 253.745 453.827 253.818 453.62C253.898 453.413 253.938 453.187 253.938 452.94C253.938 452.433 253.785 452.033 253.478 451.74C253.178 451.44 252.725 451.29 252.118 451.29C251.511 451.29 251.055 451.44 250.748 451.74C250.448 452.033 250.298 452.433 250.298 452.94C250.298 453.18 250.335 453.403 250.408 453.61C250.488 453.817 250.601 453.997 250.748 454.15C250.901 454.297 251.091 454.413 251.318 454.5C251.551 454.58 251.818 454.62 252.118 454.62ZM266.427 462.82C266.353 462.993 266.257 463.123 266.137 463.21C266.023 463.303 265.847 463.35 265.607 463.35H263.767L265.687 459.24L261.537 449.74H263.697C263.897 449.74 264.05 449.787 264.157 449.88C264.263 449.973 264.343 450.08 264.397 450.2L266.587 455.52C266.66 455.693 266.723 455.873 266.777 456.06C266.83 456.247 266.877 456.433 266.917 456.62C266.97 456.427 267.027 456.24 267.087 456.06C267.153 455.88 267.223 455.697 267.297 455.51L269.357 450.2C269.41 450.067 269.497 449.957 269.617 449.87C269.743 449.783 269.883 449.74 270.037 449.74H272.017L266.427 462.82ZM277.499 449.58C278.265 449.58 278.959 449.703 279.579 449.95C280.205 450.197 280.739 450.547 281.179 451C281.619 451.453 281.959 452.007 282.199 452.66C282.439 453.313 282.559 454.043 282.559 454.85C282.559 455.663 282.439 456.397 282.199 457.05C281.959 457.703 281.619 458.26 281.179 458.72C280.739 459.18 280.205 459.533 279.579 459.78C278.959 460.027 278.265 460.15 277.499 460.15C276.732 460.15 276.035 460.027 275.409 459.78C274.782 459.533 274.245 459.18 273.799 458.72C273.359 458.26 273.015 457.703 272.769 457.05C272.529 456.397 272.409 455.663 272.409 454.85C272.409 454.043 272.529 453.313 272.769 452.66C273.015 452.007 273.359 451.453 273.799 451C274.245 450.547 274.782 450.197 275.409 449.95C276.035 449.703 276.732 449.58 277.499 449.58ZM277.499 458.25C278.352 458.25 278.982 457.963 279.389 457.39C279.802 456.817 280.009 455.977 280.009 454.87C280.009 453.763 279.802 452.92 279.389 452.34C278.982 451.76 278.352 451.47 277.499 451.47C276.632 451.47 275.992 451.763 275.579 452.35C275.165 452.93 274.959 453.77 274.959 454.87C274.959 455.97 275.165 456.81 275.579 457.39C275.992 457.963 276.632 458.25 277.499 458.25ZM286.746 449.74V456.26C286.746 456.887 286.889 457.373 287.176 457.72C287.469 458.06 287.906 458.23 288.486 458.23C288.913 458.23 289.313 458.137 289.686 457.95C290.059 457.757 290.413 457.493 290.746 457.16V449.74H293.216V460H291.706C291.386 460 291.176 459.85 291.076 459.55L290.906 458.73C290.693 458.943 290.473 459.14 290.246 459.32C290.019 459.493 289.776 459.643 289.516 459.77C289.263 459.89 288.986 459.983 288.686 460.05C288.393 460.123 288.076 460.16 287.736 460.16C287.176 460.16 286.679 460.067 286.246 459.88C285.819 459.687 285.459 459.417 285.166 459.07C284.873 458.723 284.649 458.313 284.496 457.84C284.349 457.36 284.276 456.833 284.276 456.26V449.74H286.746ZM295.853 460V449.74H297.303C297.557 449.74 297.733 449.787 297.833 449.88C297.933 449.973 298 450.133 298.033 450.36L298.183 451.6C298.55 450.967 298.98 450.467 299.473 450.1C299.967 449.733 300.52 449.55 301.133 449.55C301.64 449.55 302.06 449.667 302.393 449.9L302.073 451.75C302.053 451.87 302.01 451.957 301.943 452.01C301.877 452.057 301.787 452.08 301.673 452.08C301.573 452.08 301.437 452.057 301.263 452.01C301.09 451.963 300.86 451.94 300.573 451.94C300.06 451.94 299.62 452.083 299.253 452.37C298.887 452.65 298.577 453.063 298.323 453.61V460H295.853ZM109.222 469.54H111.392C111.625 469.54 111.815 469.597 111.962 469.71C112.108 469.823 112.218 469.97 112.292 470.15L115.692 478.97C115.805 479.257 115.912 479.573 116.012 479.92C116.118 480.26 116.218 480.62 116.312 481C116.465 480.233 116.655 479.557 116.882 478.97L120.272 470.15C120.332 469.997 120.438 469.857 120.592 469.73C120.745 469.603 120.935 469.54 121.162 469.54H123.332L117.492 484H115.062L109.222 469.54ZM127.71 473.58C128.357 473.58 128.95 473.683 129.49 473.89C130.037 474.097 130.507 474.4 130.9 474.8C131.294 475.193 131.6 475.68 131.82 476.26C132.04 476.833 132.15 477.49 132.15 478.23C132.15 478.417 132.14 478.573 132.12 478.7C132.107 478.82 132.077 478.917 132.03 478.99C131.99 479.057 131.934 479.107 131.86 479.14C131.787 479.167 131.694 479.18 131.58 479.18H125.24C125.314 480.233 125.597 481.007 126.09 481.5C126.584 481.993 127.237 482.24 128.05 482.24C128.45 482.24 128.794 482.193 129.08 482.1C129.374 482.007 129.627 481.903 129.84 481.79C130.06 481.677 130.25 481.573 130.41 481.48C130.577 481.387 130.737 481.34 130.89 481.34C130.99 481.34 131.077 481.36 131.15 481.4C131.224 481.44 131.287 481.497 131.34 481.57L132.06 482.47C131.787 482.79 131.48 483.06 131.14 483.28C130.8 483.493 130.444 483.667 130.07 483.8C129.704 483.927 129.327 484.017 128.94 484.07C128.56 484.123 128.19 484.15 127.83 484.15C127.117 484.15 126.454 484.033 125.84 483.8C125.227 483.56 124.694 483.21 124.24 482.75C123.787 482.283 123.43 481.71 123.17 481.03C122.91 480.343 122.78 479.55 122.78 478.65C122.78 477.95 122.894 477.293 123.12 476.68C123.347 476.06 123.67 475.523 124.09 475.07C124.517 474.61 125.034 474.247 125.64 473.98C126.254 473.713 126.944 473.58 127.71 473.58ZM127.76 475.35C127.04 475.35 126.477 475.553 126.07 475.96C125.664 476.367 125.404 476.943 125.29 477.69H129.93C129.93 477.37 129.887 477.07 129.8 476.79C129.714 476.503 129.58 476.253 129.4 476.04C129.22 475.827 128.994 475.66 128.72 475.54C128.447 475.413 128.127 475.35 127.76 475.35ZM134.154 484V469.14H136.624V474.85C137.024 474.47 137.464 474.163 137.944 473.93C138.424 473.697 138.987 473.58 139.634 473.58C140.194 473.58 140.691 473.677 141.124 473.87C141.557 474.057 141.917 474.323 142.204 474.67C142.497 475.01 142.717 475.42 142.864 475.9C143.017 476.373 143.094 476.897 143.094 477.47V484H140.624V477.47C140.624 476.843 140.477 476.36 140.184 476.02C139.897 475.673 139.464 475.5 138.884 475.5C138.457 475.5 138.057 475.597 137.684 475.79C137.311 475.983 136.957 476.247 136.624 476.58V484H134.154ZM148.151 473.74V484H145.681V473.74H148.151ZM148.521 470.75C148.521 470.963 148.478 471.163 148.391 471.35C148.305 471.537 148.188 471.7 148.041 471.84C147.901 471.98 147.735 472.093 147.541 472.18C147.348 472.26 147.141 472.3 146.921 472.3C146.708 472.3 146.505 472.26 146.311 472.18C146.125 472.093 145.961 471.98 145.821 471.84C145.681 471.7 145.568 471.537 145.481 471.35C145.401 471.163 145.361 470.963 145.361 470.75C145.361 470.53 145.401 470.323 145.481 470.13C145.568 469.937 145.681 469.77 145.821 469.63C145.961 469.49 146.125 469.38 146.311 469.3C146.505 469.213 146.708 469.17 146.921 469.17C147.141 469.17 147.348 469.213 147.541 469.3C147.735 469.38 147.901 469.49 148.041 469.63C148.188 469.77 148.305 469.937 148.391 470.13C148.478 470.323 148.521 470.53 148.521 470.75ZM158.161 475.91C158.088 476.003 158.014 476.077 157.941 476.13C157.874 476.183 157.774 476.21 157.641 476.21C157.514 476.21 157.391 476.173 157.271 476.1C157.151 476.02 157.008 475.933 156.841 475.84C156.674 475.74 156.474 475.653 156.241 475.58C156.014 475.5 155.731 475.46 155.391 475.46C154.958 475.46 154.578 475.54 154.251 475.7C153.924 475.853 153.651 476.077 153.431 476.37C153.218 476.663 153.058 477.02 152.951 477.44C152.844 477.853 152.791 478.323 152.791 478.85C152.791 479.397 152.848 479.883 152.961 480.31C153.081 480.737 153.251 481.097 153.471 481.39C153.691 481.677 153.958 481.897 154.271 482.05C154.584 482.197 154.938 482.27 155.331 482.27C155.724 482.27 156.041 482.223 156.281 482.13C156.528 482.03 156.734 481.923 156.901 481.81C157.068 481.69 157.211 481.583 157.331 481.49C157.458 481.39 157.598 481.34 157.751 481.34C157.951 481.34 158.101 481.417 158.201 481.57L158.911 482.47C158.638 482.79 158.341 483.06 158.021 483.28C157.701 483.493 157.368 483.667 157.021 483.8C156.681 483.927 156.328 484.017 155.961 484.07C155.594 484.123 155.231 484.15 154.871 484.15C154.238 484.15 153.641 484.033 153.081 483.8C152.521 483.56 152.031 483.213 151.611 482.76C151.198 482.307 150.868 481.753 150.621 481.1C150.381 480.44 150.261 479.69 150.261 478.85C150.261 478.097 150.368 477.4 150.581 476.76C150.801 476.113 151.121 475.557 151.541 475.09C151.961 474.617 152.481 474.247 153.101 473.98C153.721 473.713 154.434 473.58 155.241 473.58C156.008 473.58 156.678 473.703 157.251 473.95C157.831 474.197 158.351 474.55 158.811 475.01L158.161 475.91ZM163.112 469.14V484H160.642V469.14H163.112ZM170.152 473.58C170.798 473.58 171.392 473.683 171.932 473.89C172.478 474.097 172.948 474.4 173.342 474.8C173.735 475.193 174.042 475.68 174.262 476.26C174.482 476.833 174.592 477.49 174.592 478.23C174.592 478.417 174.582 478.573 174.562 478.7C174.548 478.82 174.518 478.917 174.472 478.99C174.432 479.057 174.375 479.107 174.302 479.14C174.228 479.167 174.135 479.18 174.022 479.18H167.682C167.755 480.233 168.038 481.007 168.532 481.5C169.025 481.993 169.678 482.24 170.492 482.24C170.892 482.24 171.235 482.193 171.522 482.1C171.815 482.007 172.068 481.903 172.282 481.79C172.502 481.677 172.692 481.573 172.852 481.48C173.018 481.387 173.178 481.34 173.332 481.34C173.432 481.34 173.518 481.36 173.592 481.4C173.665 481.44 173.728 481.497 173.782 481.57L174.502 482.47C174.228 482.79 173.922 483.06 173.582 483.28C173.242 483.493 172.885 483.667 172.512 483.8C172.145 483.927 171.768 484.017 171.382 484.07C171.002 484.123 170.632 484.15 170.272 484.15C169.558 484.15 168.895 484.033 168.282 483.8C167.668 483.56 167.135 483.21 166.682 482.75C166.228 482.283 165.872 481.71 165.612 481.03C165.352 480.343 165.222 479.55 165.222 478.65C165.222 477.95 165.335 477.293 165.562 476.68C165.788 476.06 166.112 475.523 166.532 475.07C166.958 474.61 167.475 474.247 168.082 473.98C168.695 473.713 169.385 473.58 170.152 473.58ZM170.202 475.35C169.482 475.35 168.918 475.553 168.512 475.96C168.105 476.367 167.845 476.943 167.732 477.69H172.372C172.372 477.37 172.328 477.07 172.242 476.79C172.155 476.503 172.022 476.253 171.842 476.04C171.662 475.827 171.435 475.66 171.162 475.54C170.888 475.413 170.568 475.35 170.202 475.35ZM183.633 484H180.933V469.54H183.633V484ZM186.752 484V473.74H188.262C188.582 473.74 188.792 473.89 188.892 474.19L189.062 475C189.268 474.787 189.485 474.593 189.712 474.42C189.945 474.247 190.188 474.097 190.442 473.97C190.702 473.843 190.978 473.747 191.272 473.68C191.565 473.613 191.885 473.58 192.232 473.58C192.792 473.58 193.288 473.677 193.722 473.87C194.155 474.057 194.515 474.323 194.802 474.67C195.095 475.01 195.315 475.42 195.462 475.9C195.615 476.373 195.692 476.897 195.692 477.47V484H193.222V477.47C193.222 476.843 193.075 476.36 192.782 476.02C192.495 475.673 192.062 475.5 191.482 475.5C191.055 475.5 190.655 475.597 190.282 475.79C189.908 475.983 189.555 476.247 189.222 476.58V484H186.752ZM204.209 475.74C204.142 475.847 204.072 475.923 203.999 475.97C203.925 476.01 203.832 476.03 203.719 476.03C203.599 476.03 203.469 475.997 203.329 475.93C203.195 475.863 203.039 475.79 202.859 475.71C202.679 475.623 202.472 475.547 202.239 475.48C202.012 475.413 201.742 475.38 201.429 475.38C200.942 475.38 200.559 475.483 200.279 475.69C199.999 475.897 199.859 476.167 199.859 476.5C199.859 476.72 199.929 476.907 200.069 477.06C200.215 477.207 200.405 477.337 200.639 477.45C200.879 477.563 201.149 477.667 201.449 477.76C201.749 477.847 202.055 477.943 202.369 478.05C202.682 478.157 202.989 478.28 203.289 478.42C203.589 478.553 203.855 478.727 204.089 478.94C204.329 479.147 204.519 479.397 204.659 479.69C204.805 479.983 204.879 480.337 204.879 480.75C204.879 481.243 204.789 481.7 204.609 482.12C204.429 482.533 204.165 482.893 203.819 483.2C203.472 483.5 203.042 483.737 202.529 483.91C202.022 484.077 201.439 484.16 200.779 484.16C200.425 484.16 200.079 484.127 199.739 484.06C199.405 484 199.082 483.913 198.769 483.8C198.462 483.687 198.175 483.553 197.909 483.4C197.649 483.247 197.419 483.08 197.219 482.9L197.789 481.96C197.862 481.847 197.949 481.76 198.049 481.7C198.149 481.64 198.275 481.61 198.429 481.61C198.582 481.61 198.725 481.653 198.859 481.74C198.999 481.827 199.159 481.92 199.339 482.02C199.519 482.12 199.729 482.213 199.969 482.3C200.215 482.387 200.525 482.43 200.899 482.43C201.192 482.43 201.442 482.397 201.649 482.33C201.862 482.257 202.035 482.163 202.169 482.05C202.309 481.937 202.409 481.807 202.469 481.66C202.535 481.507 202.569 481.35 202.569 481.19C202.569 480.95 202.495 480.753 202.349 480.6C202.209 480.447 202.019 480.313 201.779 480.2C201.545 480.087 201.275 479.987 200.969 479.9C200.669 479.807 200.359 479.707 200.039 479.6C199.725 479.493 199.415 479.37 199.109 479.23C198.809 479.083 198.539 478.9 198.299 478.68C198.065 478.46 197.875 478.19 197.729 477.87C197.589 477.55 197.519 477.163 197.519 476.71C197.519 476.29 197.602 475.89 197.769 475.51C197.935 475.13 198.179 474.8 198.499 474.52C198.825 474.233 199.229 474.007 199.709 473.84C200.195 473.667 200.755 473.58 201.389 473.58C202.095 473.58 202.739 473.697 203.319 473.93C203.899 474.163 204.382 474.47 204.769 474.85L204.209 475.74ZM209.109 473.74V480.26C209.109 480.887 209.253 481.373 209.539 481.72C209.833 482.06 210.269 482.23 210.849 482.23C211.276 482.23 211.676 482.137 212.049 481.95C212.423 481.757 212.776 481.493 213.109 481.16V473.74H215.579V484H214.069C213.749 484 213.539 483.85 213.439 483.55L213.269 482.73C213.056 482.943 212.836 483.14 212.609 483.32C212.383 483.493 212.139 483.643 211.879 483.77C211.626 483.89 211.349 483.983 211.049 484.05C210.756 484.123 210.439 484.16 210.099 484.16C209.539 484.16 209.043 484.067 208.609 483.88C208.183 483.687 207.823 483.417 207.529 483.07C207.236 482.723 207.013 482.313 206.859 481.84C206.713 481.36 206.639 480.833 206.639 480.26V473.74H209.109ZM218.216 484V473.74H219.666C219.92 473.74 220.096 473.787 220.196 473.88C220.296 473.973 220.363 474.133 220.396 474.36L220.546 475.6C220.913 474.967 221.343 474.467 221.836 474.1C222.33 473.733 222.883 473.55 223.496 473.55C224.003 473.55 224.423 473.667 224.756 473.9L224.436 475.75C224.416 475.87 224.373 475.957 224.306 476.01C224.24 476.057 224.15 476.08 224.036 476.08C223.936 476.08 223.8 476.057 223.626 476.01C223.453 475.963 223.223 475.94 222.936 475.94C222.423 475.94 221.983 476.083 221.616 476.37C221.25 476.65 220.94 477.063 220.686 477.61V484H218.216ZM234.128 484H233.018C232.784 484 232.601 483.967 232.468 483.9C232.334 483.827 232.234 483.683 232.168 483.47L231.948 482.74C231.688 482.973 231.431 483.18 231.178 483.36C230.931 483.533 230.674 483.68 230.408 483.8C230.141 483.92 229.858 484.01 229.558 484.07C229.258 484.13 228.924 484.16 228.558 484.16C228.124 484.16 227.724 484.103 227.358 483.99C226.991 483.87 226.674 483.693 226.408 483.46C226.148 483.227 225.944 482.937 225.798 482.59C225.651 482.243 225.578 481.84 225.578 481.38C225.578 480.993 225.678 480.613 225.878 480.24C226.084 479.86 226.424 479.52 226.898 479.22C227.371 478.913 228.001 478.66 228.788 478.46C229.574 478.26 230.551 478.147 231.718 478.12V477.52C231.718 476.833 231.571 476.327 231.278 476C230.991 475.667 230.571 475.5 230.018 475.5C229.618 475.5 229.284 475.547 229.018 475.64C228.751 475.733 228.518 475.84 228.318 475.96C228.124 476.073 227.944 476.177 227.778 476.27C227.611 476.363 227.428 476.41 227.228 476.41C227.061 476.41 226.918 476.367 226.798 476.28C226.678 476.193 226.581 476.087 226.508 475.96L226.058 475.17C227.238 474.09 228.661 473.55 230.328 473.55C230.928 473.55 231.461 473.65 231.928 473.85C232.401 474.043 232.801 474.317 233.128 474.67C233.454 475.017 233.701 475.433 233.868 475.92C234.041 476.407 234.128 476.94 234.128 477.52V484ZM229.328 482.46C229.581 482.46 229.814 482.437 230.028 482.39C230.241 482.343 230.441 482.273 230.628 482.18C230.821 482.087 231.004 481.973 231.178 481.84C231.358 481.7 231.538 481.537 231.718 481.35V479.62C230.998 479.653 230.394 479.717 229.908 479.81C229.428 479.897 229.041 480.01 228.748 480.15C228.454 480.29 228.244 480.453 228.118 480.64C227.998 480.827 227.938 481.03 227.938 481.25C227.938 481.683 228.064 481.993 228.318 482.18C228.578 482.367 228.914 482.46 229.328 482.46ZM236.556 484V473.74H238.066C238.386 473.74 238.596 473.89 238.696 474.19L238.866 475C239.073 474.787 239.29 474.593 239.516 474.42C239.75 474.247 239.993 474.097 240.246 473.97C240.506 473.843 240.783 473.747 241.076 473.68C241.37 473.613 241.69 473.58 242.036 473.58C242.596 473.58 243.093 473.677 243.526 473.87C243.96 474.057 244.32 474.323 244.606 474.67C244.9 475.01 245.12 475.42 245.266 475.9C245.42 476.373 245.496 476.897 245.496 477.47V484H243.026V477.47C243.026 476.843 242.88 476.36 242.586 476.02C242.3 475.673 241.866 475.5 241.286 475.5C240.86 475.5 240.46 475.597 240.086 475.79C239.713 475.983 239.36 476.247 239.026 476.58V484H236.556ZM255.134 475.91C255.06 476.003 254.987 476.077 254.914 476.13C254.847 476.183 254.747 476.21 254.614 476.21C254.487 476.21 254.364 476.173 254.244 476.1C254.124 476.02 253.98 475.933 253.814 475.84C253.647 475.74 253.447 475.653 253.214 475.58C252.987 475.5 252.704 475.46 252.364 475.46C251.93 475.46 251.55 475.54 251.224 475.7C250.897 475.853 250.624 476.077 250.404 476.37C250.19 476.663 250.03 477.02 249.924 477.44C249.817 477.853 249.764 478.323 249.764 478.85C249.764 479.397 249.82 479.883 249.934 480.31C250.054 480.737 250.224 481.097 250.444 481.39C250.664 481.677 250.93 481.897 251.244 482.05C251.557 482.197 251.91 482.27 252.304 482.27C252.697 482.27 253.014 482.223 253.254 482.13C253.5 482.03 253.707 481.923 253.874 481.81C254.04 481.69 254.184 481.583 254.304 481.49C254.43 481.39 254.57 481.34 254.724 481.34C254.924 481.34 255.074 481.417 255.174 481.57L255.884 482.47C255.61 482.79 255.314 483.06 254.994 483.28C254.674 483.493 254.34 483.667 253.994 483.8C253.654 483.927 253.3 484.017 252.934 484.07C252.567 484.123 252.204 484.15 251.844 484.15C251.21 484.15 250.614 484.033 250.054 483.8C249.494 483.56 249.004 483.213 248.584 482.76C248.17 482.307 247.84 481.753 247.594 481.1C247.354 480.44 247.234 479.69 247.234 478.85C247.234 478.097 247.34 477.4 247.554 476.76C247.774 476.113 248.094 475.557 248.514 475.09C248.934 474.617 249.454 474.247 250.074 473.98C250.694 473.713 251.407 473.58 252.214 473.58C252.98 473.58 253.65 473.703 254.224 473.95C254.804 474.197 255.324 474.55 255.784 475.01L255.134 475.91ZM261.695 473.58C262.341 473.58 262.935 473.683 263.475 473.89C264.021 474.097 264.491 474.4 264.885 474.8C265.278 475.193 265.585 475.68 265.805 476.26C266.025 476.833 266.135 477.49 266.135 478.23C266.135 478.417 266.125 478.573 266.105 478.7C266.091 478.82 266.061 478.917 266.015 478.99C265.975 479.057 265.918 479.107 265.845 479.14C265.771 479.167 265.678 479.18 265.565 479.18H259.225C259.298 480.233 259.581 481.007 260.075 481.5C260.568 481.993 261.221 482.24 262.035 482.24C262.435 482.24 262.778 482.193 263.065 482.1C263.358 482.007 263.611 481.903 263.825 481.79C264.045 481.677 264.235 481.573 264.395 481.48C264.561 481.387 264.721 481.34 264.875 481.34C264.975 481.34 265.061 481.36 265.135 481.4C265.208 481.44 265.271 481.497 265.325 481.57L266.045 482.47C265.771 482.79 265.465 483.06 265.125 483.28C264.785 483.493 264.428 483.667 264.055 483.8C263.688 483.927 263.311 484.017 262.925 484.07C262.545 484.123 262.175 484.15 261.815 484.15C261.101 484.15 260.438 484.033 259.825 483.8C259.211 483.56 258.678 483.21 258.225 482.75C257.771 482.283 257.415 481.71 257.155 481.03C256.895 480.343 256.765 479.55 256.765 478.65C256.765 477.95 256.878 477.293 257.105 476.68C257.331 476.06 257.655 475.523 258.075 475.07C258.501 474.61 259.018 474.247 259.625 473.98C260.238 473.713 260.928 473.58 261.695 473.58ZM261.745 475.35C261.025 475.35 260.461 475.553 260.055 475.96C259.648 476.367 259.388 476.943 259.275 477.69H263.915C263.915 477.37 263.871 477.07 263.785 476.79C263.698 476.503 263.565 476.253 263.385 476.04C263.205 475.827 262.978 475.66 262.705 475.54C262.431 475.413 262.111 475.35 261.745 475.35Z" fill="#111111"/>
<path d="M218 390L211.208 382.459L212.271 372.363L202.339 370.26L197.273 361.459L188 365.603L178.727 361.459L173.661 370.26L163.729 372.363L164.792 382.459L158 390L164.792 397.541L163.729 407.637L173.661 409.74L178.727 418.541L188 414.396L197.273 418.541L202.339 409.74L212.271 407.637L211.208 397.541L218 390ZM200.577 383.431L185.518 400.302L175.054 389.838L177.543 387.349L185.373 395.179L197.951 381.087L200.577 383.431Z" fill="#36D000"/>
</g>
<defs>
<clipPath id="clip0_218_40436">
<rect width="375" height="812" fill="white"/>
</clipPath>
</defs>
</svg>
