<svg width="375" height="812" viewBox="0 0 375 812" fill="none" xmlns="http://www.w3.org/2000/svg">
<g clip-path="url(#clip0_218_40178)">
<rect width="375" height="812" fill="white"/>
<path d="M375 811.948V190.948C371.004 195.596 345.293 207.005 333.795 212.688C329.948 215.077 292.551 226.614 273.476 231.525C259.818 235.507 243.924 236.506 237.684 236.508C229.064 235.983 216.597 236.289 211.441 236.508C182.765 236.256 149.416 265.641 136.325 280.366C85.6237 324.531 24.3161 318.497 0 309.96V811.948H375Z" fill="#FEFFEE"/>
<rect x="140" y="793.104" width="95.674" height="6.30817" rx="3.15409" fill="#E7E7E7"/>
<path d="M92.5 0.00357724H292.5C292.5 0.00357724 290 -0.516816 289.773 10.9956C289.545 22.9868 284.075 27.9832 277.045 27.9832H107.955C100.925 27.9832 95.4545 22.9868 95.2273 10.9956C95 -0.516815 92.5 0.00357724 92.5 0.00357724Z" fill="#F0F0F0"/>
<g opacity="0.1">
<path fill-rule="evenodd" clip-rule="evenodd" d="M337.47 13H350.833C351.4 13 351.943 13.2251 352.344 13.6259C352.745 14.0267 352.97 14.5702 352.97 15.137V19.946C352.97 20.5128 352.745 21.0563 352.344 21.4571C351.943 21.8579 351.4 22.083 350.833 22.083H337.47C336.903 22.083 336.36 21.8579 335.959 21.4571C335.558 21.0563 335.333 20.5128 335.333 19.946V15.137C335.333 14.5702 335.558 14.0267 335.959 13.6259C336.36 13.2251 336.903 13 337.47 13Z" fill="black"/>
</g>
<path d="M354 16V19C354.296 18.8759 354.549 18.6677 354.727 18.4014C354.904 18.1351 355 17.8226 355 17.5028C355.001 17.1821 354.906 16.8683 354.728 16.6009C354.55 16.3336 354.297 16.1245 354 16" fill="#111111"/>
<path d="M338.005 14.603H350.295C350.579 14.603 350.851 14.7157 351.051 14.9161C351.252 15.1166 351.364 15.3885 351.364 15.672V19.412C351.364 19.6955 351.252 19.9674 351.051 20.1679C350.851 20.3684 350.579 20.481 350.295 20.481H338.005C337.722 20.481 337.45 20.3684 337.249 20.1679C337.049 19.9674 336.936 19.6955 336.936 19.412V15.67C336.937 15.3869 337.05 15.1155 337.25 14.9154C337.45 14.7154 337.722 14.603 338.005 14.603V14.603Z" fill="#111111"/>
<path d="M324.774 14.8221C326.55 14.8221 328.258 15.5045 329.545 16.7281C329.591 16.7737 329.654 16.7993 329.719 16.7993C329.784 16.7993 329.846 16.7737 329.892 16.7281L330.819 15.7931C330.843 15.769 330.862 15.7404 330.875 15.709C330.888 15.6776 330.894 15.644 330.894 15.6101C330.894 15.5761 330.887 15.5426 330.874 15.5114C330.86 15.4802 330.841 15.4518 330.817 15.4281C329.191 13.8699 327.026 13 324.774 13C322.522 13 320.357 13.8699 318.731 15.4281C318.707 15.4518 318.688 15.4802 318.674 15.5114C318.661 15.5426 318.654 15.5761 318.654 15.6101C318.654 15.644 318.66 15.6776 318.673 15.709C318.686 15.7404 318.705 15.769 318.729 15.7931L319.656 16.7281C319.702 16.7737 319.765 16.7993 319.83 16.7993C319.895 16.7993 319.957 16.7737 320.003 16.7281C321.29 15.5042 322.999 14.8219 324.775 14.8221H324.774ZM324.774 17.8641C325.75 17.8641 326.691 18.227 327.414 18.8821C327.461 18.9272 327.523 18.9525 327.588 18.9525C327.652 18.9525 327.715 18.9272 327.761 18.8821L328.686 17.9471C328.71 17.9227 328.729 17.8939 328.742 17.8621C328.755 17.8303 328.761 17.7963 328.761 17.7621C328.761 17.7278 328.753 17.694 328.74 17.6626C328.726 17.6312 328.707 17.6028 328.682 17.5791C327.62 16.5915 326.224 16.0425 324.774 16.0425C323.324 16.0425 321.928 16.5915 320.866 17.5791C320.841 17.6028 320.822 17.6312 320.808 17.6626C320.795 17.694 320.787 17.7278 320.787 17.7621C320.787 17.7963 320.793 17.8303 320.806 17.8621C320.819 17.8939 320.838 17.9227 320.862 17.9471L321.787 18.8821C321.834 18.9272 321.896 18.9525 321.961 18.9525C322.025 18.9525 322.088 18.9272 322.134 18.8821C322.857 18.2274 323.797 17.8646 324.772 17.8641H324.774ZM326.553 20.0961C326.578 20.072 326.597 20.0432 326.61 20.0113C326.623 19.9795 326.629 19.9454 326.628 19.9111C326.627 19.8767 326.62 19.8428 326.605 19.8115C326.591 19.7802 326.571 19.7521 326.545 19.7291C326.05 19.3102 325.423 19.0804 324.774 19.0804C324.126 19.0804 323.498 19.3102 323.003 19.7291C322.978 19.752 322.957 19.7798 322.943 19.811C322.929 19.8421 322.921 19.8758 322.92 19.9101C322.919 19.9444 322.925 19.9785 322.938 20.0103C322.951 20.0422 322.971 20.071 322.995 20.0951L324.595 21.7111C324.618 21.7346 324.646 21.7532 324.677 21.7659C324.707 21.7786 324.74 21.7851 324.773 21.7851C324.806 21.7851 324.839 21.7786 324.869 21.7659C324.9 21.7532 324.928 21.7346 324.951 21.7111L326.553 20.0961Z" fill="#111111"/>
<path d="M23.294 18.472C22.97 18.472 22.662 18.418 22.37 18.31C22.082 18.202 21.828 18.044 21.608 17.836C21.388 17.624 21.212 17.366 21.08 17.062C20.952 16.754 20.888 16.402 20.888 16.006C20.888 15.63 20.958 15.278 21.098 14.95C21.238 14.622 21.434 14.336 21.686 14.092C21.938 13.848 22.238 13.656 22.586 13.516C22.934 13.376 23.316 13.306 23.732 13.306C24.144 13.306 24.518 13.374 24.854 13.51C25.19 13.646 25.478 13.836 25.718 14.08C25.958 14.324 26.142 14.616 26.27 14.956C26.402 15.296 26.468 15.672 26.468 16.084C26.468 16.332 26.444 16.568 26.396 16.792C26.352 17.012 26.286 17.228 26.198 17.44C26.11 17.652 26.004 17.864 25.88 18.076C25.76 18.284 25.622 18.5 25.466 18.724L23.372 21.748C23.32 21.824 23.246 21.886 23.15 21.934C23.054 21.978 22.944 22 22.82 22H21.836L24.452 18.574C24.54 18.458 24.622 18.348 24.698 18.244C24.774 18.14 24.846 18.036 24.914 17.932C24.694 18.108 24.446 18.242 24.17 18.334C23.894 18.426 23.602 18.472 23.294 18.472ZM25.442 15.958C25.442 15.69 25.398 15.448 25.31 15.232C25.226 15.012 25.108 14.826 24.956 14.674C24.804 14.522 24.622 14.406 24.41 14.326C24.202 14.242 23.972 14.2 23.72 14.2C23.456 14.2 23.214 14.244 22.994 14.332C22.778 14.416 22.592 14.534 22.436 14.686C22.284 14.838 22.166 15.02 22.082 15.232C21.998 15.444 21.956 15.676 21.956 15.928C21.956 16.2 21.994 16.444 22.07 16.66C22.15 16.872 22.262 17.052 22.406 17.2C22.554 17.348 22.732 17.46 22.94 17.536C23.152 17.612 23.388 17.65 23.648 17.65C23.936 17.65 24.19 17.604 24.41 17.512C24.634 17.416 24.822 17.29 24.974 17.134C25.126 16.978 25.242 16.798 25.322 16.594C25.402 16.39 25.442 16.178 25.442 15.958ZM27.7289 21.34C27.7289 21.236 27.7469 21.138 27.7829 21.046C27.8229 20.954 27.8749 20.874 27.9389 20.806C28.0069 20.738 28.0869 20.684 28.1789 20.644C28.2709 20.604 28.3689 20.584 28.4729 20.584C28.5769 20.584 28.6749 20.604 28.7669 20.644C28.8589 20.684 28.9389 20.738 29.0069 20.806C29.0749 20.874 29.1269 20.954 29.1629 21.046C29.2029 21.138 29.2229 21.236 29.2229 21.34C29.2229 21.448 29.2029 21.548 29.1629 21.64C29.1269 21.728 29.0749 21.806 29.0069 21.874C28.9389 21.942 28.8589 21.994 28.7669 22.03C28.6749 22.07 28.5769 22.09 28.4729 22.09C28.3689 22.09 28.2709 22.07 28.1789 22.03C28.0869 21.994 28.0069 21.942 27.9389 21.874C27.8749 21.806 27.8229 21.728 27.7829 21.64C27.7469 21.548 27.7289 21.448 27.7289 21.34ZM27.7289 16.84C27.7289 16.736 27.7469 16.638 27.7829 16.546C27.8229 16.454 27.8749 16.374 27.9389 16.306C28.0069 16.238 28.0869 16.184 28.1789 16.144C28.2709 16.104 28.3689 16.084 28.4729 16.084C28.5769 16.084 28.6749 16.104 28.7669 16.144C28.8589 16.184 28.9389 16.238 29.0069 16.306C29.0749 16.374 29.1269 16.454 29.1629 16.546C29.2029 16.638 29.2229 16.736 29.2229 16.84C29.2229 16.948 29.2029 17.048 29.1629 17.14C29.1269 17.228 29.0749 17.306 29.0069 17.374C28.9389 17.442 28.8589 17.496 28.7669 17.536C28.6749 17.572 28.5769 17.59 28.4729 17.59C28.3689 17.59 28.2709 17.572 28.1789 17.536C28.0869 17.496 28.0069 17.442 27.9389 17.374C27.8749 17.306 27.8229 17.228 27.7829 17.14C27.7469 17.048 27.7289 16.948 27.7289 16.84ZM35.4024 18.898H36.7044V19.51C36.7044 19.574 36.6844 19.628 36.6444 19.672C36.6084 19.716 36.5504 19.738 36.4704 19.738H35.4024V22H34.4604V19.738H30.6504C30.5704 19.738 30.5004 19.716 30.4404 19.672C30.3844 19.624 30.3484 19.566 30.3324 19.498L30.2244 18.952L34.4064 13.402H35.4024V18.898ZM34.4604 15.352C34.4604 15.248 34.4624 15.136 34.4664 15.016C34.4744 14.896 34.4884 14.772 34.5084 14.644L31.3824 18.898H34.4604V15.352ZM38.6673 21.184H40.5153V15.322C40.5153 15.146 40.5213 14.968 40.5333 14.788L38.9973 16.102C38.9573 16.134 38.9173 16.158 38.8773 16.174C38.8373 16.186 38.7993 16.192 38.7633 16.192C38.7033 16.192 38.6493 16.18 38.6013 16.156C38.5533 16.128 38.5173 16.096 38.4933 16.06L38.1573 15.598L40.7133 13.384H41.5833V21.184H43.2753V22H38.6673V21.184Z" fill="#111111"/>
<path d="M301.8 18.34H302.6C302.812 18.34 303.016 18.4243 303.166 18.5743C303.316 18.7243 303.4 18.9278 303.4 19.14V20.74C303.4 20.9522 303.316 21.1557 303.166 21.3057C303.016 21.4557 302.812 21.54 302.6 21.54H301.8C301.588 21.54 301.384 21.4557 301.234 21.3057C301.084 21.1557 301 20.9522 301 20.74V19.14C301 18.9278 301.084 18.7243 301.234 18.5743C301.384 18.4243 301.588 18.34 301.8 18.34V18.34ZM305.54 16.74H306.34C306.552 16.74 306.756 16.8243 306.906 16.9743C307.056 17.1243 307.14 17.3278 307.14 17.54V20.746C307.14 20.8511 307.119 20.9551 307.079 21.0521C307.039 21.1492 306.98 21.2374 306.906 21.3117C306.831 21.386 306.743 21.4449 306.646 21.4851C306.549 21.5253 306.445 21.546 306.34 21.546H305.54C305.435 21.546 305.331 21.5253 305.234 21.4851C305.137 21.4449 305.049 21.386 304.974 21.3117C304.9 21.2374 304.841 21.1492 304.801 21.0521C304.761 20.9551 304.74 20.8511 304.74 20.746V17.54C304.74 17.4347 304.76 17.3303 304.8 17.2329C304.84 17.1355 304.899 17.047 304.973 16.9724C305.048 16.8978 305.136 16.8386 305.233 16.7982C305.33 16.7578 305.435 16.737 305.54 16.737V16.74ZM309.28 14.87H310.08C310.185 14.87 310.289 14.8907 310.386 14.9309C310.483 14.9711 310.571 15.03 310.646 15.1043C310.72 15.1786 310.779 15.2668 310.819 15.3639C310.859 15.4609 310.88 15.5649 310.88 15.67V20.746C310.88 20.8511 310.859 20.9551 310.819 21.0521C310.779 21.1492 310.72 21.2374 310.646 21.3117C310.571 21.386 310.483 21.4449 310.386 21.4851C310.289 21.5253 310.185 21.546 310.08 21.546H309.28C309.175 21.546 309.071 21.5253 308.974 21.4851C308.877 21.4449 308.789 21.386 308.714 21.3117C308.64 21.2374 308.581 21.1492 308.541 21.0521C308.501 20.9551 308.48 20.8511 308.48 20.746V15.67C308.48 15.5646 308.5 15.4602 308.54 15.3627C308.58 15.2652 308.639 15.1766 308.714 15.102C308.788 15.0274 308.876 14.9682 308.974 14.9279C309.071 14.8876 309.176 14.8669 309.281 14.867L309.28 14.87ZM313.02 13H313.82C314.032 13 314.236 13.0843 314.386 13.2343C314.536 13.3843 314.62 13.5878 314.62 13.8V20.746C314.62 20.9582 314.536 21.1617 314.386 21.3117C314.236 21.4617 314.032 21.546 313.82 21.546H313.02C312.915 21.546 312.811 21.5253 312.714 21.4851C312.617 21.4449 312.529 21.386 312.454 21.3117C312.38 21.2374 312.321 21.1492 312.281 21.0521C312.241 20.9551 312.22 20.8511 312.22 20.746V13.8C312.22 13.6949 312.241 13.5909 312.281 13.4939C312.321 13.3968 312.38 13.3086 312.454 13.2343C312.529 13.16 312.617 13.1011 312.714 13.0609C312.811 13.0207 312.915 13 313.02 13V13Z" fill="#111111"/>
<rect x="32.5" y="672.5" width="311" height="59" rx="29.5" stroke="#5B5B5B"/>
<path d="M102.411 708.02C103.017 708.02 103.544 707.967 103.991 707.86C104.444 707.747 104.874 707.593 105.281 707.4V704.77H103.471C103.297 704.77 103.161 704.723 103.061 704.63C102.961 704.53 102.911 704.41 102.911 704.27V702.75H107.721V708.6C107.354 708.867 106.971 709.1 106.571 709.3C106.177 709.493 105.754 709.653 105.301 709.78C104.854 709.907 104.374 710 103.861 710.06C103.347 710.127 102.794 710.16 102.201 710.16C101.147 710.16 100.177 709.977 99.2905 709.61C98.4039 709.243 97.6372 708.733 96.9905 708.08C96.3439 707.427 95.8372 706.647 95.4705 705.74C95.1105 704.833 94.9305 703.843 94.9305 702.77C94.9305 701.683 95.1072 700.687 95.4605 699.78C95.8139 698.873 96.3139 698.093 96.9605 697.44C97.6139 696.787 98.4039 696.28 99.3305 695.92C100.257 695.56 101.297 695.38 102.451 695.38C103.631 695.38 104.651 695.557 105.511 695.91C106.377 696.257 107.111 696.71 107.711 697.27L106.931 698.49C106.777 698.737 106.574 698.86 106.321 698.86C106.161 698.86 105.997 698.807 105.831 698.7C105.617 698.573 105.397 698.447 105.171 698.32C104.951 698.193 104.704 698.083 104.431 697.99C104.164 697.897 103.861 697.82 103.521 697.76C103.187 697.7 102.801 697.67 102.361 697.67C101.647 697.67 101.001 697.79 100.421 698.03C99.8472 698.27 99.3572 698.613 98.9505 699.06C98.5439 699.507 98.2305 700.043 98.0105 700.67C97.7905 701.297 97.6805 701.997 97.6805 702.77C97.6805 703.603 97.7972 704.347 98.0305 705C98.2639 705.647 98.5905 706.193 99.0105 706.64C99.4305 707.087 99.9305 707.43 100.511 707.67C101.091 707.903 101.724 708.02 102.411 708.02ZM114.464 699.58C115.23 699.58 115.924 699.703 116.544 699.95C117.17 700.197 117.704 700.547 118.144 701C118.584 701.453 118.924 702.007 119.164 702.66C119.404 703.313 119.524 704.043 119.524 704.85C119.524 705.663 119.404 706.397 119.164 707.05C118.924 707.703 118.584 708.26 118.144 708.72C117.704 709.18 117.17 709.533 116.544 709.78C115.924 710.027 115.23 710.15 114.464 710.15C113.697 710.15 113 710.027 112.374 709.78C111.747 709.533 111.21 709.18 110.764 708.72C110.324 708.26 109.98 707.703 109.734 707.05C109.494 706.397 109.374 705.663 109.374 704.85C109.374 704.043 109.494 703.313 109.734 702.66C109.98 702.007 110.324 701.453 110.764 701C111.21 700.547 111.747 700.197 112.374 699.95C113 699.703 113.697 699.58 114.464 699.58ZM114.464 708.25C115.317 708.25 115.947 707.963 116.354 707.39C116.767 706.817 116.974 705.977 116.974 704.87C116.974 703.763 116.767 702.92 116.354 702.34C115.947 701.76 115.317 701.47 114.464 701.47C113.597 701.47 112.957 701.763 112.544 702.35C112.13 702.93 111.924 703.77 111.924 704.87C111.924 705.97 112.13 706.81 112.544 707.39C112.957 707.963 113.597 708.25 114.464 708.25ZM128.688 710.16C127.801 710.16 127.118 709.91 126.638 709.41C126.158 708.903 125.918 708.207 125.918 707.32V701.59H124.878C124.745 701.59 124.628 701.547 124.528 701.46C124.435 701.373 124.388 701.243 124.388 701.07V700.09L126.038 699.82L126.558 697.02C126.585 696.887 126.645 696.783 126.738 696.71C126.838 696.637 126.961 696.6 127.108 696.6H128.388V699.83H131.088V701.59H128.388V707.15C128.388 707.47 128.468 707.72 128.628 707.9C128.788 708.08 129.001 708.17 129.268 708.17C129.421 708.17 129.548 708.153 129.648 708.12C129.755 708.08 129.845 708.04 129.918 708C129.998 707.96 130.068 707.923 130.128 707.89C130.188 707.85 130.248 707.83 130.308 707.83C130.381 707.83 130.441 707.85 130.488 707.89C130.535 707.923 130.585 707.977 130.638 708.05L131.378 709.25C131.018 709.55 130.605 709.777 130.138 709.93C129.671 710.083 129.188 710.16 128.688 710.16ZM137.432 699.58C138.199 699.58 138.892 699.703 139.512 699.95C140.139 700.197 140.672 700.547 141.112 701C141.552 701.453 141.892 702.007 142.132 702.66C142.372 703.313 142.492 704.043 142.492 704.85C142.492 705.663 142.372 706.397 142.132 707.05C141.892 707.703 141.552 708.26 141.112 708.72C140.672 709.18 140.139 709.533 139.512 709.78C138.892 710.027 138.199 710.15 137.432 710.15C136.666 710.15 135.969 710.027 135.342 709.78C134.716 709.533 134.179 709.18 133.732 708.72C133.292 708.26 132.949 707.703 132.702 707.05C132.462 706.397 132.342 705.663 132.342 704.85C132.342 704.043 132.462 703.313 132.702 702.66C132.949 702.007 133.292 701.453 133.732 701C134.179 700.547 134.716 700.197 135.342 699.95C135.969 699.703 136.666 699.58 137.432 699.58ZM137.432 708.25C138.286 708.25 138.916 707.963 139.322 707.39C139.736 706.817 139.942 705.977 139.942 704.87C139.942 703.763 139.736 702.92 139.322 702.34C138.916 701.76 138.286 701.47 137.432 701.47C136.566 701.47 135.926 701.763 135.512 702.35C135.099 702.93 134.892 703.77 134.892 704.87C134.892 705.97 135.099 706.81 135.512 707.39C135.926 707.963 136.566 708.25 137.432 708.25ZM161.137 710H159.057C158.823 710 158.63 709.943 158.477 709.83C158.33 709.71 158.223 709.563 158.157 709.39L157.077 706.44H151.087L150.007 709.39C149.953 709.543 149.847 709.683 149.687 709.81C149.533 709.937 149.343 710 149.117 710H147.027L152.707 695.54H155.457L161.137 710ZM151.777 704.54H156.387L154.627 699.73C154.547 699.517 154.457 699.267 154.357 698.98C154.263 698.687 154.17 698.37 154.077 698.03C153.983 698.37 153.89 698.687 153.797 698.98C153.71 699.273 153.623 699.53 153.537 699.75L151.777 704.54ZM169.696 701.91C169.623 702.003 169.549 702.077 169.476 702.13C169.409 702.183 169.309 702.21 169.176 702.21C169.049 702.21 168.926 702.173 168.806 702.1C168.686 702.02 168.543 701.933 168.376 701.84C168.209 701.74 168.009 701.653 167.776 701.58C167.549 701.5 167.266 701.46 166.926 701.46C166.493 701.46 166.113 701.54 165.786 701.7C165.459 701.853 165.186 702.077 164.966 702.37C164.753 702.663 164.593 703.02 164.486 703.44C164.379 703.853 164.326 704.323 164.326 704.85C164.326 705.397 164.383 705.883 164.496 706.31C164.616 706.737 164.786 707.097 165.006 707.39C165.226 707.677 165.493 707.897 165.806 708.05C166.119 708.197 166.473 708.27 166.866 708.27C167.259 708.27 167.576 708.223 167.816 708.13C168.063 708.03 168.269 707.923 168.436 707.81C168.603 707.69 168.746 707.583 168.866 707.49C168.993 707.39 169.133 707.34 169.286 707.34C169.486 707.34 169.636 707.417 169.736 707.57L170.446 708.47C170.173 708.79 169.876 709.06 169.556 709.28C169.236 709.493 168.903 709.667 168.556 709.8C168.216 709.927 167.863 710.017 167.496 710.07C167.129 710.123 166.766 710.15 166.406 710.15C165.773 710.15 165.176 710.033 164.616 709.8C164.056 709.56 163.566 709.213 163.146 708.76C162.733 708.307 162.403 707.753 162.156 707.1C161.916 706.44 161.796 705.69 161.796 704.85C161.796 704.097 161.903 703.4 162.116 702.76C162.336 702.113 162.656 701.557 163.076 701.09C163.496 700.617 164.016 700.247 164.636 699.98C165.256 699.713 165.969 699.58 166.776 699.58C167.543 699.58 168.213 699.703 168.786 699.95C169.366 700.197 169.886 700.55 170.346 701.01L169.696 701.91ZM179.227 701.91C179.154 702.003 179.081 702.077 179.007 702.13C178.941 702.183 178.841 702.21 178.707 702.21C178.581 702.21 178.457 702.173 178.337 702.1C178.217 702.02 178.074 701.933 177.907 701.84C177.741 701.74 177.541 701.653 177.307 701.58C177.081 701.5 176.797 701.46 176.457 701.46C176.024 701.46 175.644 701.54 175.317 701.7C174.991 701.853 174.717 702.077 174.497 702.37C174.284 702.663 174.124 703.02 174.017 703.44C173.911 703.853 173.857 704.323 173.857 704.85C173.857 705.397 173.914 705.883 174.027 706.31C174.147 706.737 174.317 707.097 174.537 707.39C174.757 707.677 175.024 707.897 175.337 708.05C175.651 708.197 176.004 708.27 176.397 708.27C176.791 708.27 177.107 708.223 177.347 708.13C177.594 708.03 177.801 707.923 177.967 707.81C178.134 707.69 178.277 707.583 178.397 707.49C178.524 707.39 178.664 707.34 178.817 707.34C179.017 707.34 179.167 707.417 179.267 707.57L179.977 708.47C179.704 708.79 179.407 709.06 179.087 709.28C178.767 709.493 178.434 709.667 178.087 709.8C177.747 709.927 177.394 710.017 177.027 710.07C176.661 710.123 176.297 710.15 175.937 710.15C175.304 710.15 174.707 710.033 174.147 709.8C173.587 709.56 173.097 709.213 172.677 708.76C172.264 708.307 171.934 707.753 171.687 707.1C171.447 706.44 171.327 705.69 171.327 704.85C171.327 704.097 171.434 703.4 171.647 702.76C171.867 702.113 172.187 701.557 172.607 701.09C173.027 700.617 173.547 700.247 174.167 699.98C174.787 699.713 175.501 699.58 176.307 699.58C177.074 699.58 177.744 699.703 178.317 699.95C178.897 700.197 179.417 700.55 179.877 701.01L179.227 701.91ZM185.929 699.58C186.695 699.58 187.389 699.703 188.009 699.95C188.635 700.197 189.169 700.547 189.609 701C190.049 701.453 190.389 702.007 190.629 702.66C190.869 703.313 190.989 704.043 190.989 704.85C190.989 705.663 190.869 706.397 190.629 707.05C190.389 707.703 190.049 708.26 189.609 708.72C189.169 709.18 188.635 709.533 188.009 709.78C187.389 710.027 186.695 710.15 185.929 710.15C185.162 710.15 184.465 710.027 183.839 709.78C183.212 709.533 182.675 709.18 182.229 708.72C181.789 708.26 181.445 707.703 181.199 707.05C180.959 706.397 180.839 705.663 180.839 704.85C180.839 704.043 180.959 703.313 181.199 702.66C181.445 702.007 181.789 701.453 182.229 701C182.675 700.547 183.212 700.197 183.839 699.95C184.465 699.703 185.162 699.58 185.929 699.58ZM185.929 708.25C186.782 708.25 187.412 707.963 187.819 707.39C188.232 706.817 188.439 705.977 188.439 704.87C188.439 703.763 188.232 702.92 187.819 702.34C187.412 701.76 186.782 701.47 185.929 701.47C185.062 701.47 184.422 701.763 184.009 702.35C183.595 702.93 183.389 703.77 183.389 704.87C183.389 705.97 183.595 706.81 184.009 707.39C184.422 707.963 185.062 708.25 185.929 708.25ZM195.176 699.74V706.26C195.176 706.887 195.319 707.373 195.606 707.72C195.899 708.06 196.336 708.23 196.916 708.23C197.342 708.23 197.742 708.137 198.116 707.95C198.489 707.757 198.842 707.493 199.176 707.16V699.74H201.646V710H200.136C199.816 710 199.606 709.85 199.506 709.55L199.336 708.73C199.122 708.943 198.902 709.14 198.676 709.32C198.449 709.493 198.206 709.643 197.946 709.77C197.692 709.89 197.416 709.983 197.116 710.05C196.822 710.123 196.506 710.16 196.166 710.16C195.606 710.16 195.109 710.067 194.676 709.88C194.249 709.687 193.889 709.417 193.596 709.07C193.302 708.723 193.079 708.313 192.926 707.84C192.779 707.36 192.706 706.833 192.706 706.26V699.74H195.176ZM204.283 710V699.74H205.793C206.113 699.74 206.323 699.89 206.423 700.19L206.593 701C206.8 700.787 207.016 700.593 207.243 700.42C207.476 700.247 207.72 700.097 207.973 699.97C208.233 699.843 208.51 699.747 208.803 699.68C209.096 699.613 209.416 699.58 209.763 699.58C210.323 699.58 210.82 699.677 211.253 699.87C211.686 700.057 212.046 700.323 212.333 700.67C212.626 701.01 212.846 701.42 212.993 701.9C213.146 702.373 213.223 702.897 213.223 703.47V710H210.753V703.47C210.753 702.843 210.606 702.36 210.313 702.02C210.026 701.673 209.593 701.5 209.013 701.5C208.586 701.5 208.186 701.597 207.813 701.79C207.44 701.983 207.086 702.247 206.753 702.58V710H204.283ZM219.02 710.16C218.133 710.16 217.45 709.91 216.97 709.41C216.49 708.903 216.25 708.207 216.25 707.32V701.59H215.21C215.077 701.59 214.96 701.547 214.86 701.46C214.767 701.373 214.72 701.243 214.72 701.07V700.09L216.37 699.82L216.89 697.02C216.917 696.887 216.977 696.783 217.07 696.71C217.17 696.637 217.293 696.6 217.44 696.6H218.72V699.83H221.42V701.59H218.72V707.15C218.72 707.47 218.8 707.72 218.96 707.9C219.12 708.08 219.333 708.17 219.6 708.17C219.753 708.17 219.88 708.153 219.98 708.12C220.087 708.08 220.177 708.04 220.25 708C220.33 707.96 220.4 707.923 220.46 707.89C220.52 707.85 220.58 707.83 220.64 707.83C220.713 707.83 220.773 707.85 220.82 707.89C220.867 707.923 220.917 707.977 220.97 708.05L221.71 709.25C221.35 709.55 220.937 709.777 220.47 709.93C220.003 710.083 219.52 710.16 219.02 710.16ZM235.142 698.17C235.068 698.317 234.982 698.42 234.882 698.48C234.788 698.54 234.675 698.57 234.542 698.57C234.408 698.57 234.258 698.52 234.092 698.42C233.925 698.313 233.728 698.197 233.502 698.07C233.275 697.943 233.008 697.83 232.702 697.73C232.402 697.623 232.045 697.57 231.632 697.57C231.258 697.57 230.932 697.617 230.652 697.71C230.378 697.797 230.145 697.92 229.952 698.08C229.765 698.24 229.625 698.433 229.532 698.66C229.438 698.88 229.392 699.123 229.392 699.39C229.392 699.73 229.485 700.013 229.672 700.24C229.865 700.467 230.118 700.66 230.432 700.82C230.745 700.98 231.102 701.123 231.502 701.25C231.902 701.377 232.308 701.513 232.722 701.66C233.142 701.8 233.552 701.967 233.952 702.16C234.352 702.347 234.708 702.587 235.022 702.88C235.335 703.167 235.585 703.52 235.772 703.94C235.965 704.36 236.062 704.87 236.062 705.47C236.062 706.123 235.948 706.737 235.722 707.31C235.502 707.877 235.175 708.373 234.742 708.8C234.315 709.22 233.792 709.553 233.172 709.8C232.552 710.04 231.842 710.16 231.042 710.16C230.582 710.16 230.128 710.113 229.682 710.02C229.235 709.933 228.805 709.807 228.392 709.64C227.985 709.473 227.602 709.273 227.242 709.04C226.888 708.807 226.572 708.547 226.292 708.26L227.072 706.97C227.145 706.877 227.232 706.8 227.332 706.74C227.438 706.673 227.555 706.64 227.682 706.64C227.848 706.64 228.028 706.71 228.222 706.85C228.415 706.983 228.642 707.133 228.902 707.3C229.168 707.467 229.478 707.62 229.832 707.76C230.192 707.893 230.622 707.96 231.122 707.96C231.888 707.96 232.482 707.78 232.902 707.42C233.322 707.053 233.532 706.53 233.532 705.85C233.532 705.47 233.435 705.16 233.242 704.92C233.055 704.68 232.805 704.48 232.492 704.32C232.178 704.153 231.822 704.013 231.422 703.9C231.022 703.787 230.615 703.663 230.202 703.53C229.788 703.397 229.382 703.237 228.982 703.05C228.582 702.863 228.225 702.62 227.912 702.32C227.598 702.02 227.345 701.647 227.152 701.2C226.965 700.747 226.872 700.19 226.872 699.53C226.872 699.003 226.975 698.49 227.182 697.99C227.395 697.49 227.702 697.047 228.102 696.66C228.508 696.273 229.005 695.963 229.592 695.73C230.178 695.497 230.848 695.38 231.602 695.38C232.455 695.38 233.242 695.513 233.962 695.78C234.682 696.047 235.295 696.42 235.802 696.9L235.142 698.17ZM241.344 710.16C240.458 710.16 239.774 709.91 239.294 709.41C238.814 708.903 238.574 708.207 238.574 707.32V701.59H237.534C237.401 701.59 237.284 701.547 237.184 701.46C237.091 701.373 237.044 701.243 237.044 701.07V700.09L238.694 699.82L239.214 697.02C239.241 696.887 239.301 696.783 239.394 696.71C239.494 696.637 239.618 696.6 239.764 696.6H241.044V699.83H243.744V701.59H241.044V707.15C241.044 707.47 241.124 707.72 241.284 707.9C241.444 708.08 241.658 708.17 241.924 708.17C242.078 708.17 242.204 708.153 242.304 708.12C242.411 708.08 242.501 708.04 242.574 708C242.654 707.96 242.724 707.923 242.784 707.89C242.844 707.85 242.904 707.83 242.964 707.83C243.038 707.83 243.098 707.85 243.144 707.89C243.191 707.923 243.241 707.977 243.294 708.05L244.034 709.25C243.674 709.55 243.261 709.777 242.794 709.93C242.328 710.083 241.844 710.16 241.344 710.16ZM253.749 710H252.639C252.405 710 252.222 709.967 252.089 709.9C251.955 709.827 251.855 709.683 251.789 709.47L251.569 708.74C251.309 708.973 251.052 709.18 250.799 709.36C250.552 709.533 250.295 709.68 250.029 709.8C249.762 709.92 249.479 710.01 249.179 710.07C248.879 710.13 248.545 710.16 248.179 710.16C247.745 710.16 247.345 710.103 246.979 709.99C246.612 709.87 246.295 709.693 246.029 709.46C245.769 709.227 245.565 708.937 245.419 708.59C245.272 708.243 245.199 707.84 245.199 707.38C245.199 706.993 245.299 706.613 245.499 706.24C245.705 705.86 246.045 705.52 246.519 705.22C246.992 704.913 247.622 704.66 248.409 704.46C249.195 704.26 250.172 704.147 251.339 704.12V703.52C251.339 702.833 251.192 702.327 250.899 702C250.612 701.667 250.192 701.5 249.639 701.5C249.239 701.5 248.905 701.547 248.639 701.64C248.372 701.733 248.139 701.84 247.939 701.96C247.745 702.073 247.565 702.177 247.399 702.27C247.232 702.363 247.049 702.41 246.849 702.41C246.682 702.41 246.539 702.367 246.419 702.28C246.299 702.193 246.202 702.087 246.129 701.96L245.679 701.17C246.859 700.09 248.282 699.55 249.949 699.55C250.549 699.55 251.082 699.65 251.549 699.85C252.022 700.043 252.422 700.317 252.749 700.67C253.075 701.017 253.322 701.433 253.489 701.92C253.662 702.407 253.749 702.94 253.749 703.52V710ZM248.949 708.46C249.202 708.46 249.435 708.437 249.649 708.39C249.862 708.343 250.062 708.273 250.249 708.18C250.442 708.087 250.625 707.973 250.799 707.84C250.979 707.7 251.159 707.537 251.339 707.35V705.62C250.619 705.653 250.015 705.717 249.529 705.81C249.049 705.897 248.662 706.01 248.369 706.15C248.075 706.29 247.865 706.453 247.739 706.64C247.619 706.827 247.559 707.03 247.559 707.25C247.559 707.683 247.685 707.993 247.939 708.18C248.199 708.367 248.535 708.46 248.949 708.46ZM259.547 710.16C258.661 710.16 257.977 709.91 257.497 709.41C257.017 708.903 256.777 708.207 256.777 707.32V701.59H255.737C255.604 701.59 255.487 701.547 255.387 701.46C255.294 701.373 255.247 701.243 255.247 701.07V700.09L256.897 699.82L257.417 697.02C257.444 696.887 257.504 696.783 257.597 696.71C257.697 696.637 257.821 696.6 257.967 696.6H259.247V699.83H261.947V701.59H259.247V707.15C259.247 707.47 259.327 707.72 259.487 707.9C259.647 708.08 259.861 708.17 260.127 708.17C260.281 708.17 260.407 708.153 260.507 708.12C260.614 708.08 260.704 708.04 260.777 708C260.857 707.96 260.927 707.923 260.987 707.89C261.047 707.85 261.107 707.83 261.167 707.83C261.241 707.83 261.301 707.85 261.347 707.89C261.394 707.923 261.444 707.977 261.497 708.05L262.237 709.25C261.877 709.55 261.464 709.777 260.997 709.93C260.531 710.083 260.047 710.16 259.547 710.16ZM266.172 699.74V706.26C266.172 706.887 266.315 707.373 266.602 707.72C266.895 708.06 267.332 708.23 267.912 708.23C268.338 708.23 268.738 708.137 269.112 707.95C269.485 707.757 269.838 707.493 270.172 707.16V699.74H272.642V710H271.132C270.812 710 270.602 709.85 270.502 709.55L270.332 708.73C270.118 708.943 269.898 709.14 269.672 709.32C269.445 709.493 269.202 709.643 268.942 709.77C268.688 709.89 268.412 709.983 268.112 710.05C267.818 710.123 267.502 710.16 267.162 710.16C266.602 710.16 266.105 710.067 265.672 709.88C265.245 709.687 264.885 709.417 264.592 709.07C264.298 708.723 264.075 708.313 263.922 707.84C263.775 707.36 263.702 706.833 263.702 706.26V699.74H266.172ZM281.369 701.74C281.302 701.847 281.232 701.923 281.159 701.97C281.086 702.01 280.992 702.03 280.879 702.03C280.759 702.03 280.629 701.997 280.489 701.93C280.356 701.863 280.199 701.79 280.019 701.71C279.839 701.623 279.632 701.547 279.399 701.48C279.172 701.413 278.902 701.38 278.589 701.38C278.102 701.38 277.719 701.483 277.439 701.69C277.159 701.897 277.019 702.167 277.019 702.5C277.019 702.72 277.089 702.907 277.229 703.06C277.376 703.207 277.566 703.337 277.799 703.45C278.039 703.563 278.309 703.667 278.609 703.76C278.909 703.847 279.216 703.943 279.529 704.05C279.842 704.157 280.149 704.28 280.449 704.42C280.749 704.553 281.016 704.727 281.249 704.94C281.489 705.147 281.679 705.397 281.819 705.69C281.966 705.983 282.039 706.337 282.039 706.75C282.039 707.243 281.949 707.7 281.769 708.12C281.589 708.533 281.326 708.893 280.979 709.2C280.632 709.5 280.202 709.737 279.689 709.91C279.182 710.077 278.599 710.16 277.939 710.16C277.586 710.16 277.239 710.127 276.899 710.06C276.566 710 276.242 709.913 275.929 709.8C275.622 709.687 275.336 709.553 275.069 709.4C274.809 709.247 274.579 709.08 274.379 708.9L274.949 707.96C275.022 707.847 275.109 707.76 275.209 707.7C275.309 707.64 275.436 707.61 275.589 707.61C275.742 707.61 275.886 707.653 276.019 707.74C276.159 707.827 276.319 707.92 276.499 708.02C276.679 708.12 276.889 708.213 277.129 708.3C277.376 708.387 277.686 708.43 278.059 708.43C278.352 708.43 278.602 708.397 278.809 708.33C279.022 708.257 279.196 708.163 279.329 708.05C279.469 707.937 279.569 707.807 279.629 707.66C279.696 707.507 279.729 707.35 279.729 707.19C279.729 706.95 279.656 706.753 279.509 706.6C279.369 706.447 279.179 706.313 278.939 706.2C278.706 706.087 278.436 705.987 278.129 705.9C277.829 705.807 277.519 705.707 277.199 705.6C276.886 705.493 276.576 705.37 276.269 705.23C275.969 705.083 275.699 704.9 275.459 704.68C275.226 704.46 275.036 704.19 274.889 703.87C274.749 703.55 274.679 703.163 274.679 702.71C274.679 702.29 274.762 701.89 274.929 701.51C275.096 701.13 275.339 700.8 275.659 700.52C275.986 700.233 276.389 700.007 276.869 699.84C277.356 699.667 277.916 699.58 278.549 699.58C279.256 699.58 279.899 699.697 280.479 699.93C281.059 700.163 281.542 700.47 281.929 700.85L281.369 701.74Z" fill="#111111"/>
<path d="M84.9527 424.54V426.75H80.6027V439H77.9127V426.75H73.5427V424.54H84.9527ZM86.5173 439V424.14H88.9873V429.85C89.3873 429.47 89.8273 429.163 90.3073 428.93C90.7873 428.697 91.3506 428.58 91.9973 428.58C92.5573 428.58 93.0539 428.677 93.4873 428.87C93.9206 429.057 94.2806 429.323 94.5673 429.67C94.8606 430.01 95.0806 430.42 95.2273 430.9C95.3806 431.373 95.4573 431.897 95.4573 432.47V439H92.9873V432.47C92.9873 431.843 92.8406 431.36 92.5473 431.02C92.2606 430.673 91.8273 430.5 91.2473 430.5C90.8206 430.5 90.4206 430.597 90.0473 430.79C89.6739 430.983 89.3206 431.247 88.9873 431.58V439H86.5173ZM105.924 439H104.814C104.581 439 104.398 438.967 104.264 438.9C104.131 438.827 104.031 438.683 103.964 438.47L103.744 437.74C103.484 437.973 103.228 438.18 102.974 438.36C102.728 438.533 102.471 438.68 102.204 438.8C101.938 438.92 101.654 439.01 101.354 439.07C101.054 439.13 100.721 439.16 100.354 439.16C99.9211 439.16 99.5211 439.103 99.1545 438.99C98.7878 438.87 98.4711 438.693 98.2045 438.46C97.9445 438.227 97.7411 437.937 97.5945 437.59C97.4478 437.243 97.3745 436.84 97.3745 436.38C97.3745 435.993 97.4745 435.613 97.6745 435.24C97.8811 434.86 98.2211 434.52 98.6945 434.22C99.1678 433.913 99.7978 433.66 100.584 433.46C101.371 433.26 102.348 433.147 103.514 433.12V432.52C103.514 431.833 103.368 431.327 103.074 431C102.788 430.667 102.368 430.5 101.814 430.5C101.414 430.5 101.081 430.547 100.814 430.64C100.548 430.733 100.314 430.84 100.114 430.96C99.9211 431.073 99.7411 431.177 99.5745 431.27C99.4078 431.363 99.2245 431.41 99.0245 431.41C98.8578 431.41 98.7145 431.367 98.5945 431.28C98.4745 431.193 98.3778 431.087 98.3045 430.96L97.8545 430.17C99.0345 429.09 100.458 428.55 102.124 428.55C102.724 428.55 103.258 428.65 103.724 428.85C104.198 429.043 104.598 429.317 104.924 429.67C105.251 430.017 105.498 430.433 105.664 430.92C105.838 431.407 105.924 431.94 105.924 432.52V439ZM101.124 437.46C101.378 437.46 101.611 437.437 101.824 437.39C102.038 437.343 102.238 437.273 102.424 437.18C102.618 437.087 102.801 436.973 102.974 436.84C103.154 436.7 103.334 436.537 103.514 436.35V434.62C102.794 434.653 102.191 434.717 101.704 434.81C101.224 434.897 100.838 435.01 100.544 435.15C100.251 435.29 100.041 435.453 99.9145 435.64C99.7945 435.827 99.7345 436.03 99.7345 436.25C99.7345 436.683 99.8611 436.993 100.114 437.18C100.374 437.367 100.711 437.46 101.124 437.46ZM108.353 439V428.74H109.863C110.183 428.74 110.393 428.89 110.493 429.19L110.663 430C110.87 429.787 111.087 429.593 111.313 429.42C111.547 429.247 111.79 429.097 112.043 428.97C112.303 428.843 112.58 428.747 112.873 428.68C113.167 428.613 113.487 428.58 113.833 428.58C114.393 428.58 114.89 428.677 115.323 428.87C115.757 429.057 116.117 429.323 116.403 429.67C116.697 430.01 116.917 430.42 117.063 430.9C117.217 431.373 117.293 431.897 117.293 432.47V439H114.823V432.47C114.823 431.843 114.677 431.36 114.383 431.02C114.097 430.673 113.663 430.5 113.083 430.5C112.657 430.5 112.257 430.597 111.883 430.79C111.51 430.983 111.157 431.247 110.823 431.58V439H108.353ZM122.22 424.14V432.65H122.68C122.847 432.65 122.977 432.627 123.07 432.58C123.164 432.533 123.264 432.447 123.37 432.32L125.92 429.17C126.034 429.037 126.154 428.933 126.28 428.86C126.407 428.78 126.574 428.74 126.78 428.74H129.04L125.85 432.55C125.737 432.69 125.62 432.82 125.5 432.94C125.38 433.053 125.25 433.153 125.11 433.24C125.25 433.34 125.374 433.457 125.48 433.59C125.587 433.723 125.694 433.867 125.8 434.02L129.22 439H126.99C126.797 439 126.634 438.967 126.5 438.9C126.367 438.833 126.247 438.72 126.14 438.56L123.53 434.67C123.43 434.517 123.33 434.417 123.23 434.37C123.13 434.323 122.98 434.3 122.78 434.3H122.22V439H119.75V424.14H122.22ZM136.846 430.74C136.779 430.847 136.709 430.923 136.636 430.97C136.562 431.01 136.469 431.03 136.356 431.03C136.236 431.03 136.106 430.997 135.966 430.93C135.832 430.863 135.676 430.79 135.496 430.71C135.316 430.623 135.109 430.547 134.876 430.48C134.649 430.413 134.379 430.38 134.066 430.38C133.579 430.38 133.196 430.483 132.916 430.69C132.636 430.897 132.496 431.167 132.496 431.5C132.496 431.72 132.566 431.907 132.706 432.06C132.852 432.207 133.042 432.337 133.276 432.45C133.516 432.563 133.786 432.667 134.086 432.76C134.386 432.847 134.692 432.943 135.006 433.05C135.319 433.157 135.626 433.28 135.926 433.42C136.226 433.553 136.492 433.727 136.726 433.94C136.966 434.147 137.156 434.397 137.296 434.69C137.442 434.983 137.516 435.337 137.516 435.75C137.516 436.243 137.426 436.7 137.246 437.12C137.066 437.533 136.802 437.893 136.456 438.2C136.109 438.5 135.679 438.737 135.166 438.91C134.659 439.077 134.076 439.16 133.416 439.16C133.062 439.16 132.716 439.127 132.376 439.06C132.042 439 131.719 438.913 131.406 438.8C131.099 438.687 130.812 438.553 130.546 438.4C130.286 438.247 130.056 438.08 129.856 437.9L130.426 436.96C130.499 436.847 130.586 436.76 130.686 436.7C130.786 436.64 130.912 436.61 131.066 436.61C131.219 436.61 131.362 436.653 131.496 436.74C131.636 436.827 131.796 436.92 131.976 437.02C132.156 437.12 132.366 437.213 132.606 437.3C132.852 437.387 133.162 437.43 133.536 437.43C133.829 437.43 134.079 437.397 134.286 437.33C134.499 437.257 134.672 437.163 134.806 437.05C134.946 436.937 135.046 436.807 135.106 436.66C135.172 436.507 135.206 436.35 135.206 436.19C135.206 435.95 135.132 435.753 134.986 435.6C134.846 435.447 134.656 435.313 134.416 435.2C134.182 435.087 133.912 434.987 133.606 434.9C133.306 434.807 132.996 434.707 132.676 434.6C132.362 434.493 132.052 434.37 131.746 434.23C131.446 434.083 131.176 433.9 130.936 433.68C130.702 433.46 130.512 433.19 130.366 432.87C130.226 432.55 130.156 432.163 130.156 431.71C130.156 431.29 130.239 430.89 130.406 430.51C130.572 430.13 130.816 429.8 131.136 429.52C131.462 429.233 131.866 429.007 132.346 428.84C132.832 428.667 133.392 428.58 134.026 428.58C134.732 428.58 135.376 428.697 135.956 428.93C136.536 429.163 137.019 429.47 137.406 429.85L136.846 430.74ZM143.793 439V430.6L142.903 430.46C142.71 430.427 142.553 430.36 142.433 430.26C142.32 430.16 142.263 430.02 142.263 429.84V428.83H143.793V428.07C143.793 427.483 143.88 426.957 144.053 426.49C144.233 426.023 144.487 425.627 144.813 425.3C145.147 424.973 145.55 424.723 146.023 424.55C146.497 424.377 147.03 424.29 147.623 424.29C148.097 424.29 148.537 424.353 148.943 424.48L148.893 425.72C148.88 425.913 148.79 426.033 148.623 426.08C148.457 426.127 148.263 426.15 148.043 426.15C147.75 426.15 147.487 426.183 147.253 426.25C147.027 426.31 146.833 426.42 146.673 426.58C146.513 426.733 146.39 426.94 146.303 427.2C146.223 427.453 146.183 427.77 146.183 428.15V428.83H148.853V430.59H146.263V439H143.793ZM154.745 428.58C155.512 428.58 156.205 428.703 156.825 428.95C157.452 429.197 157.985 429.547 158.425 430C158.865 430.453 159.205 431.007 159.445 431.66C159.685 432.313 159.805 433.043 159.805 433.85C159.805 434.663 159.685 435.397 159.445 436.05C159.205 436.703 158.865 437.26 158.425 437.72C157.985 438.18 157.452 438.533 156.825 438.78C156.205 439.027 155.512 439.15 154.745 439.15C153.978 439.15 153.282 439.027 152.655 438.78C152.028 438.533 151.492 438.18 151.045 437.72C150.605 437.26 150.262 436.703 150.015 436.05C149.775 435.397 149.655 434.663 149.655 433.85C149.655 433.043 149.775 432.313 150.015 431.66C150.262 431.007 150.605 430.453 151.045 430C151.492 429.547 152.028 429.197 152.655 428.95C153.282 428.703 153.978 428.58 154.745 428.58ZM154.745 437.25C155.598 437.25 156.228 436.963 156.635 436.39C157.048 435.817 157.255 434.977 157.255 433.87C157.255 432.763 157.048 431.92 156.635 431.34C156.228 430.76 155.598 430.47 154.745 430.47C153.878 430.47 153.238 430.763 152.825 431.35C152.412 431.93 152.205 432.77 152.205 433.87C152.205 434.97 152.412 435.81 152.825 436.39C153.238 436.963 153.878 437.25 154.745 437.25ZM161.732 439V428.74H163.182C163.435 428.74 163.612 428.787 163.712 428.88C163.812 428.973 163.879 429.133 163.912 429.36L164.062 430.6C164.429 429.967 164.859 429.467 165.352 429.1C165.845 428.733 166.399 428.55 167.012 428.55C167.519 428.55 167.939 428.667 168.272 428.9L167.952 430.75C167.932 430.87 167.889 430.957 167.822 431.01C167.755 431.057 167.665 431.08 167.552 431.08C167.452 431.08 167.315 431.057 167.142 431.01C166.969 430.963 166.739 430.94 166.452 430.94C165.939 430.94 165.499 431.083 165.132 431.37C164.765 431.65 164.455 432.063 164.202 432.61V439H161.732ZM173.763 442.35V428.74H175.273C175.433 428.74 175.57 428.777 175.683 428.85C175.797 428.923 175.87 429.037 175.903 429.19L176.103 430.14C176.517 429.667 176.99 429.283 177.523 428.99C178.063 428.697 178.693 428.55 179.413 428.55C179.973 428.55 180.483 428.667 180.943 428.9C181.41 429.133 181.81 429.473 182.143 429.92C182.483 430.36 182.743 430.907 182.923 431.56C183.11 432.207 183.203 432.95 183.203 433.79C183.203 434.557 183.1 435.267 182.893 435.92C182.687 436.573 182.39 437.14 182.003 437.62C181.623 438.1 181.16 438.477 180.613 438.75C180.073 439.017 179.467 439.15 178.793 439.15C178.213 439.15 177.72 439.063 177.313 438.89C176.913 438.71 176.553 438.463 176.233 438.15V442.35H173.763ZM178.563 430.5C178.05 430.5 177.61 430.61 177.243 430.83C176.883 431.043 176.547 431.347 176.233 431.74V436.34C176.513 436.687 176.817 436.93 177.143 437.07C177.477 437.203 177.833 437.27 178.213 437.27C178.587 437.27 178.923 437.2 179.223 437.06C179.53 436.92 179.787 436.707 179.993 436.42C180.207 436.133 180.37 435.773 180.483 435.34C180.597 434.9 180.653 434.383 180.653 433.79C180.653 433.19 180.603 432.683 180.503 432.27C180.41 431.85 180.273 431.51 180.093 431.25C179.913 430.99 179.693 430.8 179.433 430.68C179.18 430.56 178.89 430.5 178.563 430.5ZM185.072 439V428.74H186.522C186.775 428.74 186.952 428.787 187.052 428.88C187.152 428.973 187.219 429.133 187.252 429.36L187.402 430.6C187.769 429.967 188.199 429.467 188.692 429.1C189.185 428.733 189.739 428.55 190.352 428.55C190.859 428.55 191.279 428.667 191.612 428.9L191.292 430.75C191.272 430.87 191.229 430.957 191.162 431.01C191.095 431.057 191.005 431.08 190.892 431.08C190.792 431.08 190.655 431.057 190.482 431.01C190.309 430.963 190.079 430.94 189.792 430.94C189.279 430.94 188.839 431.083 188.472 431.37C188.105 431.65 187.795 432.063 187.542 432.61V439H185.072ZM197.616 428.58C198.383 428.58 199.076 428.703 199.696 428.95C200.323 429.197 200.856 429.547 201.296 430C201.736 430.453 202.076 431.007 202.316 431.66C202.556 432.313 202.676 433.043 202.676 433.85C202.676 434.663 202.556 435.397 202.316 436.05C202.076 436.703 201.736 437.26 201.296 437.72C200.856 438.18 200.323 438.533 199.696 438.78C199.076 439.027 198.383 439.15 197.616 439.15C196.849 439.15 196.153 439.027 195.526 438.78C194.899 438.533 194.363 438.18 193.916 437.72C193.476 437.26 193.133 436.703 192.886 436.05C192.646 435.397 192.526 434.663 192.526 433.85C192.526 433.043 192.646 432.313 192.886 431.66C193.133 431.007 193.476 430.453 193.916 430C194.363 429.547 194.899 429.197 195.526 428.95C196.153 428.703 196.849 428.58 197.616 428.58ZM197.616 437.25C198.469 437.25 199.099 436.963 199.506 436.39C199.919 435.817 200.126 434.977 200.126 433.87C200.126 432.763 199.919 431.92 199.506 431.34C199.099 430.76 198.469 430.47 197.616 430.47C196.749 430.47 196.109 430.763 195.696 431.35C195.283 431.93 195.076 432.77 195.076 433.87C195.076 434.97 195.283 435.81 195.696 436.39C196.109 436.963 196.749 437.25 197.616 437.25ZM209.411 439H207.171L203.091 428.74H205.141C205.321 428.74 205.471 428.783 205.591 428.87C205.718 428.957 205.805 429.067 205.851 429.2L207.831 434.68C207.945 435 208.038 435.313 208.111 435.62C208.191 435.927 208.261 436.233 208.321 436.54C208.381 436.233 208.448 435.927 208.521 435.62C208.601 435.313 208.701 435 208.821 434.68L210.851 429.2C210.898 429.067 210.981 428.957 211.101 428.87C211.221 428.783 211.365 428.74 211.531 428.74H213.481L209.411 439ZM217.565 428.74V439H215.095V428.74H217.565ZM217.935 425.75C217.935 425.963 217.892 426.163 217.805 426.35C217.719 426.537 217.602 426.7 217.455 426.84C217.315 426.98 217.149 427.093 216.955 427.18C216.762 427.26 216.555 427.3 216.335 427.3C216.122 427.3 215.919 427.26 215.725 427.18C215.539 427.093 215.375 426.98 215.235 426.84C215.095 426.7 214.982 426.537 214.895 426.35C214.815 426.163 214.775 425.963 214.775 425.75C214.775 425.53 214.815 425.323 214.895 425.13C214.982 424.937 215.095 424.77 215.235 424.63C215.375 424.49 215.539 424.38 215.725 424.3C215.919 424.213 216.122 424.17 216.335 424.17C216.555 424.17 216.762 424.213 216.955 424.3C217.149 424.38 217.315 424.49 217.455 424.63C217.602 424.77 217.719 424.937 217.805 425.13C217.892 425.323 217.935 425.53 217.935 425.75ZM227.585 439C227.265 439 227.055 438.85 226.955 438.55L226.755 437.56C226.542 437.8 226.318 438.017 226.085 438.21C225.852 438.403 225.598 438.57 225.325 438.71C225.058 438.85 224.768 438.957 224.455 439.03C224.148 439.11 223.815 439.15 223.455 439.15C222.895 439.15 222.382 439.033 221.915 438.8C221.448 438.567 221.045 438.23 220.705 437.79C220.372 437.343 220.112 436.793 219.925 436.14C219.745 435.487 219.655 434.74 219.655 433.9C219.655 433.14 219.758 432.433 219.965 431.78C220.172 431.127 220.468 430.56 220.855 430.08C221.242 429.6 221.705 429.227 222.245 428.96C222.785 428.687 223.392 428.55 224.065 428.55C224.638 428.55 225.128 428.643 225.535 428.83C225.942 429.01 226.305 429.253 226.625 429.56V424.14H229.095V439H227.585ZM224.295 437.19C224.808 437.19 225.245 437.083 225.605 436.87C225.965 436.657 226.305 436.353 226.625 435.96V431.36C226.345 431.02 226.038 430.78 225.705 430.64C225.378 430.5 225.025 430.43 224.645 430.43C224.272 430.43 223.932 430.5 223.625 430.64C223.325 430.78 223.068 430.993 222.855 431.28C222.648 431.56 222.488 431.92 222.375 432.36C222.262 432.793 222.205 433.307 222.205 433.9C222.205 434.5 222.252 435.01 222.345 435.43C222.445 435.843 222.585 436.183 222.765 436.45C222.945 436.71 223.165 436.9 223.425 437.02C223.685 437.133 223.975 437.19 224.295 437.19ZM234.401 428.74V439H231.931V428.74H234.401ZM234.771 425.75C234.771 425.963 234.728 426.163 234.641 426.35C234.555 426.537 234.438 426.7 234.291 426.84C234.151 426.98 233.985 427.093 233.791 427.18C233.598 427.26 233.391 427.3 233.171 427.3C232.958 427.3 232.755 427.26 232.561 427.18C232.375 427.093 232.211 426.98 232.071 426.84C231.931 426.7 231.818 426.537 231.731 426.35C231.651 426.163 231.611 425.963 231.611 425.75C231.611 425.53 231.651 425.323 231.731 425.13C231.818 424.937 231.931 424.77 232.071 424.63C232.211 424.49 232.375 424.38 232.561 424.3C232.755 424.213 232.958 424.17 233.171 424.17C233.391 424.17 233.598 424.213 233.791 424.3C233.985 424.38 234.151 424.49 234.291 424.63C234.438 424.77 234.555 424.937 234.641 425.13C234.728 425.323 234.771 425.53 234.771 425.75ZM237.201 439V428.74H238.711C239.031 428.74 239.241 428.89 239.341 429.19L239.511 430C239.718 429.787 239.934 429.593 240.161 429.42C240.394 429.247 240.638 429.097 240.891 428.97C241.151 428.843 241.428 428.747 241.721 428.68C242.014 428.613 242.334 428.58 242.681 428.58C243.241 428.58 243.738 428.677 244.171 428.87C244.604 429.057 244.964 429.323 245.251 429.67C245.544 430.01 245.764 430.42 245.911 430.9C246.064 431.373 246.141 431.897 246.141 432.47V439H243.671V432.47C243.671 431.843 243.524 431.36 243.231 431.02C242.944 430.673 242.511 430.5 241.931 430.5C241.504 430.5 241.104 430.597 240.731 430.79C240.358 430.983 240.004 431.247 239.671 431.58V439H237.201ZM252.118 428.56C252.558 428.56 252.971 428.607 253.358 428.7C253.745 428.787 254.098 428.917 254.418 429.09H257.368V430.01C257.368 430.163 257.328 430.283 257.248 430.37C257.168 430.457 257.031 430.517 256.838 430.55L255.918 430.72C255.985 430.893 256.035 431.077 256.068 431.27C256.108 431.463 256.128 431.667 256.128 431.88C256.128 432.387 256.025 432.847 255.818 433.26C255.618 433.667 255.338 434.013 254.978 434.3C254.625 434.587 254.201 434.81 253.708 434.97C253.221 435.123 252.691 435.2 252.118 435.2C251.731 435.2 251.355 435.163 250.988 435.09C250.668 435.283 250.508 435.5 250.508 435.74C250.508 435.947 250.601 436.1 250.788 436.2C250.981 436.293 251.231 436.36 251.538 436.4C251.851 436.44 252.205 436.467 252.598 436.48C252.991 436.487 253.395 436.507 253.808 436.54C254.221 436.573 254.625 436.633 255.018 436.72C255.411 436.8 255.761 436.93 256.068 437.11C256.381 437.29 256.631 437.537 256.818 437.85C257.011 438.157 257.108 438.553 257.108 439.04C257.108 439.493 256.995 439.933 256.768 440.36C256.548 440.787 256.225 441.167 255.798 441.5C255.378 441.833 254.861 442.1 254.248 442.3C253.635 442.507 252.935 442.61 252.148 442.61C251.368 442.61 250.691 442.533 250.118 442.38C249.545 442.233 249.068 442.033 248.688 441.78C248.315 441.533 248.035 441.247 247.848 440.92C247.661 440.593 247.568 440.253 247.568 439.9C247.568 439.42 247.715 439.017 248.008 438.69C248.301 438.363 248.708 438.103 249.228 437.91C248.975 437.77 248.771 437.583 248.618 437.35C248.465 437.117 248.388 436.813 248.388 436.44C248.388 436.287 248.415 436.13 248.468 435.97C248.521 435.803 248.601 435.64 248.708 435.48C248.821 435.32 248.961 435.17 249.128 435.03C249.295 434.883 249.491 434.753 249.718 434.64C249.198 434.36 248.788 433.987 248.488 433.52C248.195 433.053 248.048 432.507 248.048 431.88C248.048 431.373 248.148 430.917 248.348 430.51C248.555 430.097 248.838 429.747 249.198 429.46C249.565 429.167 249.995 428.943 250.488 428.79C250.988 428.637 251.531 428.56 252.118 428.56ZM254.828 439.46C254.828 439.26 254.768 439.097 254.648 438.97C254.528 438.843 254.365 438.747 254.158 438.68C253.951 438.607 253.708 438.553 253.428 438.52C253.155 438.487 252.861 438.463 252.548 438.45C252.241 438.43 251.921 438.413 251.588 438.4C251.261 438.38 250.945 438.35 250.638 438.31C250.358 438.463 250.131 438.647 249.958 438.86C249.791 439.067 249.708 439.307 249.708 439.58C249.708 439.76 249.751 439.927 249.838 440.08C249.931 440.24 250.075 440.377 250.268 440.49C250.468 440.603 250.725 440.69 251.038 440.75C251.351 440.817 251.735 440.85 252.188 440.85C252.648 440.85 253.045 440.813 253.378 440.74C253.711 440.673 253.985 440.577 254.198 440.45C254.418 440.33 254.578 440.183 254.678 440.01C254.778 439.843 254.828 439.66 254.828 439.46ZM252.118 433.62C252.425 433.62 252.691 433.58 252.918 433.5C253.145 433.413 253.331 433.297 253.478 433.15C253.631 433.003 253.745 432.827 253.818 432.62C253.898 432.413 253.938 432.187 253.938 431.94C253.938 431.433 253.785 431.033 253.478 430.74C253.178 430.44 252.725 430.29 252.118 430.29C251.511 430.29 251.055 430.44 250.748 430.74C250.448 431.033 250.298 431.433 250.298 431.94C250.298 432.18 250.335 432.403 250.408 432.61C250.488 432.817 250.601 432.997 250.748 433.15C250.901 433.297 251.091 433.413 251.318 433.5C251.551 433.58 251.818 433.62 252.118 433.62ZM266.427 441.82C266.353 441.993 266.257 442.123 266.137 442.21C266.023 442.303 265.847 442.35 265.607 442.35H263.767L265.687 438.24L261.537 428.74H263.697C263.897 428.74 264.05 428.787 264.157 428.88C264.263 428.973 264.343 429.08 264.397 429.2L266.587 434.52C266.66 434.693 266.723 434.873 266.777 435.06C266.83 435.247 266.877 435.433 266.917 435.62C266.97 435.427 267.027 435.24 267.087 435.06C267.153 434.88 267.223 434.697 267.297 434.51L269.357 429.2C269.41 429.067 269.497 428.957 269.617 428.87C269.743 428.783 269.883 428.74 270.037 428.74H272.017L266.427 441.82ZM277.499 428.58C278.265 428.58 278.959 428.703 279.579 428.95C280.205 429.197 280.739 429.547 281.179 430C281.619 430.453 281.959 431.007 282.199 431.66C282.439 432.313 282.559 433.043 282.559 433.85C282.559 434.663 282.439 435.397 282.199 436.05C281.959 436.703 281.619 437.26 281.179 437.72C280.739 438.18 280.205 438.533 279.579 438.78C278.959 439.027 278.265 439.15 277.499 439.15C276.732 439.15 276.035 439.027 275.409 438.78C274.782 438.533 274.245 438.18 273.799 437.72C273.359 437.26 273.015 436.703 272.769 436.05C272.529 435.397 272.409 434.663 272.409 433.85C272.409 433.043 272.529 432.313 272.769 431.66C273.015 431.007 273.359 430.453 273.799 430C274.245 429.547 274.782 429.197 275.409 428.95C276.035 428.703 276.732 428.58 277.499 428.58ZM277.499 437.25C278.352 437.25 278.982 436.963 279.389 436.39C279.802 435.817 280.009 434.977 280.009 433.87C280.009 432.763 279.802 431.92 279.389 431.34C278.982 430.76 278.352 430.47 277.499 430.47C276.632 430.47 275.992 430.763 275.579 431.35C275.165 431.93 274.959 432.77 274.959 433.87C274.959 434.97 275.165 435.81 275.579 436.39C275.992 436.963 276.632 437.25 277.499 437.25ZM286.746 428.74V435.26C286.746 435.887 286.889 436.373 287.176 436.72C287.469 437.06 287.906 437.23 288.486 437.23C288.913 437.23 289.313 437.137 289.686 436.95C290.059 436.757 290.413 436.493 290.746 436.16V428.74H293.216V439H291.706C291.386 439 291.176 438.85 291.076 438.55L290.906 437.73C290.693 437.943 290.473 438.14 290.246 438.32C290.019 438.493 289.776 438.643 289.516 438.77C289.263 438.89 288.986 438.983 288.686 439.05C288.393 439.123 288.076 439.16 287.736 439.16C287.176 439.16 286.679 439.067 286.246 438.88C285.819 438.687 285.459 438.417 285.166 438.07C284.873 437.723 284.649 437.313 284.496 436.84C284.349 436.36 284.276 435.833 284.276 435.26V428.74H286.746ZM295.853 439V428.74H297.303C297.557 428.74 297.733 428.787 297.833 428.88C297.933 428.973 298 429.133 298.033 429.36L298.183 430.6C298.55 429.967 298.98 429.467 299.473 429.1C299.967 428.733 300.52 428.55 301.133 428.55C301.64 428.55 302.06 428.667 302.393 428.9L302.073 430.75C302.053 430.87 302.01 430.957 301.943 431.01C301.877 431.057 301.787 431.08 301.673 431.08C301.573 431.08 301.437 431.057 301.263 431.01C301.09 430.963 300.86 430.94 300.573 430.94C300.06 430.94 299.62 431.083 299.253 431.37C298.887 431.65 298.577 432.063 298.323 432.61V439H295.853ZM56.292 454.54H58.462C58.6953 454.54 58.8853 454.597 59.032 454.71C59.1786 454.823 59.2886 454.97 59.362 455.15L62.762 463.97C62.8753 464.257 62.982 464.573 63.082 464.92C63.1886 465.26 63.2886 465.62 63.382 466C63.5353 465.233 63.7253 464.557 63.952 463.97L67.342 455.15C67.402 454.997 67.5086 454.857 67.662 454.73C67.8153 454.603 68.0053 454.54 68.232 454.54H70.402L64.562 469H62.132L56.292 454.54ZM74.7807 458.58C75.4274 458.58 76.0207 458.683 76.5607 458.89C77.1074 459.097 77.5774 459.4 77.9707 459.8C78.364 460.193 78.6707 460.68 78.8907 461.26C79.1107 461.833 79.2207 462.49 79.2207 463.23C79.2207 463.417 79.2107 463.573 79.1907 463.7C79.1774 463.82 79.1474 463.917 79.1007 463.99C79.0607 464.057 79.004 464.107 78.9307 464.14C78.8574 464.167 78.764 464.18 78.6507 464.18H72.3107C72.384 465.233 72.6674 466.007 73.1607 466.5C73.654 466.993 74.3074 467.24 75.1207 467.24C75.5207 467.24 75.864 467.193 76.1507 467.1C76.444 467.007 76.6974 466.903 76.9107 466.79C77.1307 466.677 77.3207 466.573 77.4807 466.48C77.6474 466.387 77.8074 466.34 77.9607 466.34C78.0607 466.34 78.1474 466.36 78.2207 466.4C78.294 466.44 78.3574 466.497 78.4107 466.57L79.1307 467.47C78.8574 467.79 78.5507 468.06 78.2107 468.28C77.8707 468.493 77.514 468.667 77.1407 468.8C76.774 468.927 76.3974 469.017 76.0107 469.07C75.6307 469.123 75.2607 469.15 74.9007 469.15C74.1874 469.15 73.524 469.033 72.9107 468.8C72.2974 468.56 71.764 468.21 71.3107 467.75C70.8574 467.283 70.5007 466.71 70.2407 466.03C69.9807 465.343 69.8507 464.55 69.8507 463.65C69.8507 462.95 69.964 462.293 70.1907 461.68C70.4174 461.06 70.7407 460.523 71.1607 460.07C71.5874 459.61 72.104 459.247 72.7107 458.98C73.324 458.713 74.014 458.58 74.7807 458.58ZM74.8307 460.35C74.1107 460.35 73.5474 460.553 73.1407 460.96C72.734 461.367 72.474 461.943 72.3607 462.69H77.0007C77.0007 462.37 76.9574 462.07 76.8707 461.79C76.784 461.503 76.6507 461.253 76.4707 461.04C76.2907 460.827 76.064 460.66 75.7907 460.54C75.5174 460.413 75.1974 460.35 74.8307 460.35ZM81.2243 469V454.14H83.6943V459.85C84.0943 459.47 84.5343 459.163 85.0143 458.93C85.4943 458.697 86.0576 458.58 86.7043 458.58C87.2643 458.58 87.761 458.677 88.1943 458.87C88.6276 459.057 88.9876 459.323 89.2743 459.67C89.5676 460.01 89.7876 460.42 89.9343 460.9C90.0876 461.373 90.1643 461.897 90.1643 462.47V469H87.6943V462.47C87.6943 461.843 87.5476 461.36 87.2543 461.02C86.9676 460.673 86.5343 460.5 85.9543 460.5C85.5276 460.5 85.1276 460.597 84.7543 460.79C84.381 460.983 84.0276 461.247 83.6943 461.58V469H81.2243ZM95.2215 458.74V469H92.7515V458.74H95.2215ZM95.5915 455.75C95.5915 455.963 95.5482 456.163 95.4615 456.35C95.3748 456.537 95.2582 456.7 95.1115 456.84C94.9715 456.98 94.8048 457.093 94.6115 457.18C94.4182 457.26 94.2115 457.3 93.9915 457.3C93.7782 457.3 93.5748 457.26 93.3815 457.18C93.1948 457.093 93.0315 456.98 92.8915 456.84C92.7515 456.7 92.6382 456.537 92.5515 456.35C92.4715 456.163 92.4315 455.963 92.4315 455.75C92.4315 455.53 92.4715 455.323 92.5515 455.13C92.6382 454.937 92.7515 454.77 92.8915 454.63C93.0315 454.49 93.1948 454.38 93.3815 454.3C93.5748 454.213 93.7782 454.17 93.9915 454.17C94.2115 454.17 94.4182 454.213 94.6115 454.3C94.8048 454.38 94.9715 454.49 95.1115 454.63C95.2582 454.77 95.3748 454.937 95.4615 455.13C95.5482 455.323 95.5915 455.53 95.5915 455.75ZM105.231 460.91C105.158 461.003 105.085 461.077 105.011 461.13C104.945 461.183 104.845 461.21 104.711 461.21C104.585 461.21 104.461 461.173 104.341 461.1C104.221 461.02 104.078 460.933 103.911 460.84C103.745 460.74 103.545 460.653 103.311 460.58C103.085 460.5 102.801 460.46 102.461 460.46C102.028 460.46 101.648 460.54 101.321 460.7C100.995 460.853 100.721 461.077 100.501 461.37C100.288 461.663 100.128 462.02 100.021 462.44C99.9145 462.853 99.8612 463.323 99.8612 463.85C99.8612 464.397 99.9178 464.883 100.031 465.31C100.151 465.737 100.321 466.097 100.541 466.39C100.761 466.677 101.028 466.897 101.341 467.05C101.655 467.197 102.008 467.27 102.401 467.27C102.795 467.27 103.111 467.223 103.351 467.13C103.598 467.03 103.805 466.923 103.971 466.81C104.138 466.69 104.281 466.583 104.401 466.49C104.528 466.39 104.668 466.34 104.821 466.34C105.021 466.34 105.171 466.417 105.271 466.57L105.981 467.47C105.708 467.79 105.411 468.06 105.091 468.28C104.771 468.493 104.438 468.667 104.091 468.8C103.751 468.927 103.398 469.017 103.031 469.07C102.665 469.123 102.301 469.15 101.941 469.15C101.308 469.15 100.711 469.033 100.151 468.8C99.5912 468.56 99.1012 468.213 98.6812 467.76C98.2678 467.307 97.9378 466.753 97.6912 466.1C97.4512 465.44 97.3312 464.69 97.3312 463.85C97.3312 463.097 97.4378 462.4 97.6512 461.76C97.8712 461.113 98.1912 460.557 98.6112 460.09C99.0312 459.617 99.5512 459.247 100.171 458.98C100.791 458.713 101.505 458.58 102.311 458.58C103.078 458.58 103.748 458.703 104.321 458.95C104.901 459.197 105.421 459.55 105.881 460.01L105.231 460.91ZM110.182 454.14V469H107.712V454.14H110.182ZM117.222 458.58C117.869 458.58 118.462 458.683 119.002 458.89C119.549 459.097 120.019 459.4 120.412 459.8C120.805 460.193 121.112 460.68 121.332 461.26C121.552 461.833 121.662 462.49 121.662 463.23C121.662 463.417 121.652 463.573 121.632 463.7C121.619 463.82 121.589 463.917 121.542 463.99C121.502 464.057 121.445 464.107 121.372 464.14C121.299 464.167 121.205 464.18 121.092 464.18H114.752C114.825 465.233 115.109 466.007 115.602 466.5C116.095 466.993 116.749 467.24 117.562 467.24C117.962 467.24 118.305 467.193 118.592 467.1C118.885 467.007 119.139 466.903 119.352 466.79C119.572 466.677 119.762 466.573 119.922 466.48C120.089 466.387 120.249 466.34 120.402 466.34C120.502 466.34 120.589 466.36 120.662 466.4C120.735 466.44 120.799 466.497 120.852 466.57L121.572 467.47C121.299 467.79 120.992 468.06 120.652 468.28C120.312 468.493 119.955 468.667 119.582 468.8C119.215 468.927 118.839 469.017 118.452 469.07C118.072 469.123 117.702 469.15 117.342 469.15C116.629 469.15 115.965 469.033 115.352 468.8C114.739 468.56 114.205 468.21 113.752 467.75C113.299 467.283 112.942 466.71 112.682 466.03C112.422 465.343 112.292 464.55 112.292 463.65C112.292 462.95 112.405 462.293 112.632 461.68C112.859 461.06 113.182 460.523 113.602 460.07C114.029 459.61 114.545 459.247 115.152 458.98C115.765 458.713 116.455 458.58 117.222 458.58ZM117.272 460.35C116.552 460.35 115.989 460.553 115.582 460.96C115.175 461.367 114.915 461.943 114.802 462.69H119.442C119.442 462.37 119.399 462.07 119.312 461.79C119.225 461.503 119.092 461.253 118.912 461.04C118.732 460.827 118.505 460.66 118.232 460.54C117.959 460.413 117.639 460.35 117.272 460.35ZM130.703 469H128.003V454.54H130.703V469ZM133.822 469V458.74H135.332C135.652 458.74 135.862 458.89 135.962 459.19L136.132 460C136.339 459.787 136.555 459.593 136.782 459.42C137.015 459.247 137.259 459.097 137.512 458.97C137.772 458.843 138.049 458.747 138.342 458.68C138.635 458.613 138.955 458.58 139.302 458.58C139.862 458.58 140.359 458.677 140.792 458.87C141.225 459.057 141.585 459.323 141.872 459.67C142.165 460.01 142.385 460.42 142.532 460.9C142.685 461.373 142.762 461.897 142.762 462.47V469H140.292V462.47C140.292 461.843 140.145 461.36 139.852 461.02C139.565 460.673 139.132 460.5 138.552 460.5C138.125 460.5 137.725 460.597 137.352 460.79C136.979 460.983 136.625 461.247 136.292 461.58V469H133.822ZM151.279 460.74C151.212 460.847 151.142 460.923 151.069 460.97C150.996 461.01 150.902 461.03 150.789 461.03C150.669 461.03 150.539 460.997 150.399 460.93C150.266 460.863 150.109 460.79 149.929 460.71C149.749 460.623 149.542 460.547 149.309 460.48C149.082 460.413 148.812 460.38 148.499 460.38C148.012 460.38 147.629 460.483 147.349 460.69C147.069 460.897 146.929 461.167 146.929 461.5C146.929 461.72 146.999 461.907 147.139 462.06C147.286 462.207 147.476 462.337 147.709 462.45C147.949 462.563 148.219 462.667 148.519 462.76C148.819 462.847 149.126 462.943 149.439 463.05C149.752 463.157 150.059 463.28 150.359 463.42C150.659 463.553 150.926 463.727 151.159 463.94C151.399 464.147 151.589 464.397 151.729 464.69C151.876 464.983 151.949 465.337 151.949 465.75C151.949 466.243 151.859 466.7 151.679 467.12C151.499 467.533 151.236 467.893 150.889 468.2C150.542 468.5 150.112 468.737 149.599 468.91C149.092 469.077 148.509 469.16 147.849 469.16C147.496 469.16 147.149 469.127 146.809 469.06C146.476 469 146.152 468.913 145.839 468.8C145.532 468.687 145.246 468.553 144.979 468.4C144.719 468.247 144.489 468.08 144.289 467.9L144.859 466.96C144.932 466.847 145.019 466.76 145.119 466.7C145.219 466.64 145.346 466.61 145.499 466.61C145.652 466.61 145.796 466.653 145.929 466.74C146.069 466.827 146.229 466.92 146.409 467.02C146.589 467.12 146.799 467.213 147.039 467.3C147.286 467.387 147.596 467.43 147.969 467.43C148.262 467.43 148.512 467.397 148.719 467.33C148.932 467.257 149.106 467.163 149.239 467.05C149.379 466.937 149.479 466.807 149.539 466.66C149.606 466.507 149.639 466.35 149.639 466.19C149.639 465.95 149.566 465.753 149.419 465.6C149.279 465.447 149.089 465.313 148.849 465.2C148.616 465.087 148.346 464.987 148.039 464.9C147.739 464.807 147.429 464.707 147.109 464.6C146.796 464.493 146.486 464.37 146.179 464.23C145.879 464.083 145.609 463.9 145.369 463.68C145.136 463.46 144.946 463.19 144.799 462.87C144.659 462.55 144.589 462.163 144.589 461.71C144.589 461.29 144.672 460.89 144.839 460.51C145.006 460.13 145.249 459.8 145.569 459.52C145.896 459.233 146.299 459.007 146.779 458.84C147.266 458.667 147.826 458.58 148.459 458.58C149.166 458.58 149.809 458.697 150.389 458.93C150.969 459.163 151.452 459.47 151.839 459.85L151.279 460.74ZM153.92 472.35V458.74H155.43C155.59 458.74 155.726 458.777 155.84 458.85C155.953 458.923 156.026 459.037 156.06 459.19L156.26 460.14C156.673 459.667 157.146 459.283 157.68 458.99C158.22 458.697 158.85 458.55 159.57 458.55C160.13 458.55 160.64 458.667 161.1 458.9C161.566 459.133 161.966 459.473 162.3 459.92C162.64 460.36 162.9 460.907 163.08 461.56C163.266 462.207 163.36 462.95 163.36 463.79C163.36 464.557 163.256 465.267 163.05 465.92C162.843 466.573 162.546 467.14 162.16 467.62C161.78 468.1 161.316 468.477 160.77 468.75C160.23 469.017 159.623 469.15 158.95 469.15C158.37 469.15 157.876 469.063 157.47 468.89C157.07 468.71 156.71 468.463 156.39 468.15V472.35H153.92ZM158.72 460.5C158.206 460.5 157.766 460.61 157.4 460.83C157.04 461.043 156.703 461.347 156.39 461.74V466.34C156.67 466.687 156.973 466.93 157.3 467.07C157.633 467.203 157.99 467.27 158.37 467.27C158.743 467.27 159.08 467.2 159.38 467.06C159.686 466.92 159.943 466.707 160.15 466.42C160.363 466.133 160.526 465.773 160.64 465.34C160.753 464.9 160.81 464.383 160.81 463.79C160.81 463.19 160.76 462.683 160.66 462.27C160.566 461.85 160.43 461.51 160.25 461.25C160.07 460.99 159.85 460.8 159.59 460.68C159.336 460.56 159.046 460.5 158.72 460.5ZM169.468 458.58C170.115 458.58 170.708 458.683 171.248 458.89C171.795 459.097 172.265 459.4 172.658 459.8C173.052 460.193 173.358 460.68 173.578 461.26C173.798 461.833 173.908 462.49 173.908 463.23C173.908 463.417 173.898 463.573 173.878 463.7C173.865 463.82 173.835 463.917 173.788 463.99C173.748 464.057 173.692 464.107 173.618 464.14C173.545 464.167 173.452 464.18 173.338 464.18H166.998C167.072 465.233 167.355 466.007 167.848 466.5C168.342 466.993 168.995 467.24 169.808 467.24C170.208 467.24 170.552 467.193 170.838 467.1C171.132 467.007 171.385 466.903 171.598 466.79C171.818 466.677 172.008 466.573 172.168 466.48C172.335 466.387 172.495 466.34 172.648 466.34C172.748 466.34 172.835 466.36 172.908 466.4C172.982 466.44 173.045 466.497 173.098 466.57L173.818 467.47C173.545 467.79 173.238 468.06 172.898 468.28C172.558 468.493 172.202 468.667 171.828 468.8C171.462 468.927 171.085 469.017 170.698 469.07C170.318 469.123 169.948 469.15 169.588 469.15C168.875 469.15 168.212 469.033 167.598 468.8C166.985 468.56 166.452 468.21 165.998 467.75C165.545 467.283 165.188 466.71 164.928 466.03C164.668 465.343 164.538 464.55 164.538 463.65C164.538 462.95 164.652 462.293 164.878 461.68C165.105 461.06 165.428 460.523 165.848 460.07C166.275 459.61 166.792 459.247 167.398 458.98C168.012 458.713 168.702 458.58 169.468 458.58ZM169.518 460.35C168.798 460.35 168.235 460.553 167.828 460.96C167.422 461.367 167.162 461.943 167.048 462.69H171.688C171.688 462.37 171.645 462.07 171.558 461.79C171.472 461.503 171.338 461.253 171.158 461.04C170.978 460.827 170.752 460.66 170.478 460.54C170.205 460.413 169.885 460.35 169.518 460.35ZM183.122 460.91C183.048 461.003 182.975 461.077 182.902 461.13C182.835 461.183 182.735 461.21 182.602 461.21C182.475 461.21 182.352 461.173 182.232 461.1C182.112 461.02 181.968 460.933 181.802 460.84C181.635 460.74 181.435 460.653 181.202 460.58C180.975 460.5 180.692 460.46 180.352 460.46C179.918 460.46 179.538 460.54 179.212 460.7C178.885 460.853 178.612 461.077 178.392 461.37C178.178 461.663 178.018 462.02 177.912 462.44C177.805 462.853 177.752 463.323 177.752 463.85C177.752 464.397 177.808 464.883 177.922 465.31C178.042 465.737 178.212 466.097 178.432 466.39C178.652 466.677 178.918 466.897 179.232 467.05C179.545 467.197 179.898 467.27 180.292 467.27C180.685 467.27 181.002 467.223 181.242 467.13C181.488 467.03 181.695 466.923 181.862 466.81C182.028 466.69 182.172 466.583 182.292 466.49C182.418 466.39 182.558 466.34 182.712 466.34C182.912 466.34 183.062 466.417 183.162 466.57L183.872 467.47C183.598 467.79 183.302 468.06 182.982 468.28C182.662 468.493 182.328 468.667 181.982 468.8C181.642 468.927 181.288 469.017 180.922 469.07C180.555 469.123 180.192 469.15 179.832 469.15C179.198 469.15 178.602 469.033 178.042 468.8C177.482 468.56 176.992 468.213 176.572 467.76C176.158 467.307 175.828 466.753 175.582 466.1C175.342 465.44 175.222 464.69 175.222 463.85C175.222 463.097 175.328 462.4 175.542 461.76C175.762 461.113 176.082 460.557 176.502 460.09C176.922 459.617 177.442 459.247 178.062 458.98C178.682 458.713 179.395 458.58 180.202 458.58C180.968 458.58 181.638 458.703 182.212 458.95C182.792 459.197 183.312 459.55 183.772 460.01L183.122 460.91ZM188.813 469.16C187.926 469.16 187.243 468.91 186.763 468.41C186.283 467.903 186.043 467.207 186.043 466.32V460.59H185.003C184.87 460.59 184.753 460.547 184.653 460.46C184.56 460.373 184.513 460.243 184.513 460.07V459.09L186.163 458.82L186.683 456.02C186.71 455.887 186.77 455.783 186.863 455.71C186.963 455.637 187.086 455.6 187.233 455.6H188.513V458.83H191.213V460.59H188.513V466.15C188.513 466.47 188.593 466.72 188.753 466.9C188.913 467.08 189.126 467.17 189.393 467.17C189.546 467.17 189.673 467.153 189.773 467.12C189.88 467.08 189.97 467.04 190.043 467C190.123 466.96 190.193 466.923 190.253 466.89C190.313 466.85 190.373 466.83 190.433 466.83C190.506 466.83 190.566 466.85 190.613 466.89C190.66 466.923 190.71 466.977 190.763 467.05L191.503 468.25C191.143 468.55 190.73 468.777 190.263 468.93C189.796 469.083 189.313 469.16 188.813 469.16ZM195.807 458.74V469H193.337V458.74H195.807ZM196.177 455.75C196.177 455.963 196.134 456.163 196.047 456.35C195.961 456.537 195.844 456.7 195.697 456.84C195.557 456.98 195.391 457.093 195.197 457.18C195.004 457.26 194.797 457.3 194.577 457.3C194.364 457.3 194.161 457.26 193.967 457.18C193.781 457.093 193.617 456.98 193.477 456.84C193.337 456.7 193.224 456.537 193.137 456.35C193.057 456.163 193.017 455.963 193.017 455.75C193.017 455.53 193.057 455.323 193.137 455.13C193.224 454.937 193.337 454.77 193.477 454.63C193.617 454.49 193.781 454.38 193.967 454.3C194.161 454.213 194.364 454.17 194.577 454.17C194.797 454.17 195.004 454.213 195.197 454.3C195.391 454.38 195.557 454.49 195.697 454.63C195.844 454.77 195.961 454.937 196.047 455.13C196.134 455.323 196.177 455.53 196.177 455.75ZM202.987 458.58C203.754 458.58 204.447 458.703 205.067 458.95C205.694 459.197 206.227 459.547 206.667 460C207.107 460.453 207.447 461.007 207.687 461.66C207.927 462.313 208.047 463.043 208.047 463.85C208.047 464.663 207.927 465.397 207.687 466.05C207.447 466.703 207.107 467.26 206.667 467.72C206.227 468.18 205.694 468.533 205.067 468.78C204.447 469.027 203.754 469.15 202.987 469.15C202.22 469.15 201.524 469.027 200.897 468.78C200.27 468.533 199.734 468.18 199.287 467.72C198.847 467.26 198.504 466.703 198.257 466.05C198.017 465.397 197.897 464.663 197.897 463.85C197.897 463.043 198.017 462.313 198.257 461.66C198.504 461.007 198.847 460.453 199.287 460C199.734 459.547 200.27 459.197 200.897 458.95C201.524 458.703 202.22 458.58 202.987 458.58ZM202.987 467.25C203.84 467.25 204.47 466.963 204.877 466.39C205.29 465.817 205.497 464.977 205.497 463.87C205.497 462.763 205.29 461.92 204.877 461.34C204.47 460.76 203.84 460.47 202.987 460.47C202.12 460.47 201.48 460.763 201.067 461.35C200.654 461.93 200.447 462.77 200.447 463.87C200.447 464.97 200.654 465.81 201.067 466.39C201.48 466.963 202.12 467.25 202.987 467.25ZM209.974 469V458.74H211.484C211.804 458.74 212.014 458.89 212.114 459.19L212.284 460C212.491 459.787 212.708 459.593 212.934 459.42C213.168 459.247 213.411 459.097 213.664 458.97C213.924 458.843 214.201 458.747 214.494 458.68C214.788 458.613 215.108 458.58 215.454 458.58C216.014 458.58 216.511 458.677 216.944 458.87C217.378 459.057 217.738 459.323 218.024 459.67C218.318 460.01 218.538 460.42 218.684 460.9C218.838 461.373 218.914 461.897 218.914 462.47V469H216.444V462.47C216.444 461.843 216.298 461.36 216.004 461.02C215.718 460.673 215.284 460.5 214.704 460.5C214.278 460.5 213.878 460.597 213.504 460.79C213.131 460.983 212.778 461.247 212.444 461.58V469H209.974ZM235.289 465.59C235.435 465.59 235.562 465.647 235.669 465.76L236.729 466.91C236.142 467.637 235.419 468.193 234.559 468.58C233.705 468.967 232.679 469.16 231.479 469.16C230.405 469.16 229.439 468.977 228.579 468.61C227.725 468.243 226.995 467.733 226.389 467.08C225.782 466.427 225.315 465.647 224.989 464.74C224.669 463.833 224.509 462.843 224.509 461.77C224.509 460.683 224.689 459.69 225.049 458.79C225.409 457.883 225.915 457.103 226.569 456.45C227.222 455.797 228.002 455.29 228.909 454.93C229.822 454.563 230.829 454.38 231.929 454.38C233.002 454.38 233.939 454.553 234.739 454.9C235.545 455.24 236.235 455.693 236.809 456.26L235.909 457.51C235.855 457.59 235.785 457.66 235.699 457.72C235.619 457.78 235.505 457.81 235.359 457.81C235.205 457.81 235.049 457.75 234.889 457.63C234.729 457.51 234.525 457.38 234.279 457.24C234.032 457.1 233.719 456.97 233.339 456.85C232.965 456.73 232.489 456.67 231.909 456.67C231.229 456.67 230.602 456.79 230.029 457.03C229.462 457.263 228.972 457.6 228.559 458.04C228.152 458.48 227.832 459.017 227.599 459.65C227.372 460.277 227.259 460.983 227.259 461.77C227.259 462.583 227.372 463.307 227.599 463.94C227.832 464.573 228.145 465.107 228.539 465.54C228.932 465.973 229.395 466.307 229.929 466.54C230.462 466.767 231.035 466.88 231.649 466.88C232.015 466.88 232.345 466.86 232.639 466.82C232.939 466.78 233.212 466.717 233.459 466.63C233.712 466.543 233.949 466.433 234.169 466.3C234.395 466.16 234.619 465.99 234.839 465.79C234.905 465.73 234.975 465.683 235.049 465.65C235.122 465.61 235.202 465.59 235.289 465.59ZM242.867 458.58C243.513 458.58 244.107 458.683 244.647 458.89C245.193 459.097 245.663 459.4 246.057 459.8C246.45 460.193 246.757 460.68 246.977 461.26C247.197 461.833 247.307 462.49 247.307 463.23C247.307 463.417 247.297 463.573 247.277 463.7C247.263 463.82 247.233 463.917 247.187 463.99C247.147 464.057 247.09 464.107 247.017 464.14C246.943 464.167 246.85 464.18 246.737 464.18H240.397C240.47 465.233 240.753 466.007 241.247 466.5C241.74 466.993 242.393 467.24 243.207 467.24C243.607 467.24 243.95 467.193 244.237 467.1C244.53 467.007 244.783 466.903 244.997 466.79C245.217 466.677 245.407 466.573 245.567 466.48C245.733 466.387 245.893 466.34 246.047 466.34C246.147 466.34 246.233 466.36 246.307 466.4C246.38 466.44 246.443 466.497 246.497 466.57L247.217 467.47C246.943 467.79 246.637 468.06 246.297 468.28C245.957 468.493 245.6 468.667 245.227 468.8C244.86 468.927 244.483 469.017 244.097 469.07C243.717 469.123 243.347 469.15 242.987 469.15C242.273 469.15 241.61 469.033 240.997 468.8C240.383 468.56 239.85 468.21 239.397 467.75C238.943 467.283 238.587 466.71 238.327 466.03C238.067 465.343 237.937 464.55 237.937 463.65C237.937 462.95 238.05 462.293 238.277 461.68C238.503 461.06 238.827 460.523 239.247 460.07C239.673 459.61 240.19 459.247 240.797 458.98C241.41 458.713 242.1 458.58 242.867 458.58ZM242.917 460.35C242.197 460.35 241.633 460.553 241.227 460.96C240.82 461.367 240.56 461.943 240.447 462.69H245.087C245.087 462.37 245.043 462.07 244.957 461.79C244.87 461.503 244.737 461.253 244.557 461.04C244.377 460.827 244.15 460.66 243.877 460.54C243.603 460.413 243.283 460.35 242.917 460.35ZM249.31 469V458.74H250.76C251.014 458.74 251.19 458.787 251.29 458.88C251.39 458.973 251.457 459.133 251.49 459.36L251.64 460.6C252.007 459.967 252.437 459.467 252.93 459.1C253.424 458.733 253.977 458.55 254.59 458.55C255.097 458.55 255.517 458.667 255.85 458.9L255.53 460.75C255.51 460.87 255.467 460.957 255.4 461.01C255.334 461.057 255.244 461.08 255.13 461.08C255.03 461.08 254.894 461.057 254.72 461.01C254.547 460.963 254.317 460.94 254.03 460.94C253.517 460.94 253.077 461.083 252.71 461.37C252.344 461.65 252.034 462.063 251.78 462.61V469H249.31ZM260.844 469.16C259.958 469.16 259.274 468.91 258.794 468.41C258.314 467.903 258.074 467.207 258.074 466.32V460.59H257.034C256.901 460.59 256.784 460.547 256.684 460.46C256.591 460.373 256.544 460.243 256.544 460.07V459.09L258.194 458.82L258.714 456.02C258.741 455.887 258.801 455.783 258.894 455.71C258.994 455.637 259.118 455.6 259.264 455.6H260.544V458.83H263.244V460.59H260.544V466.15C260.544 466.47 260.624 466.72 260.784 466.9C260.944 467.08 261.158 467.17 261.424 467.17C261.578 467.17 261.704 467.153 261.804 467.12C261.911 467.08 262.001 467.04 262.074 467C262.154 466.96 262.224 466.923 262.284 466.89C262.344 466.85 262.404 466.83 262.464 466.83C262.538 466.83 262.598 466.85 262.644 466.89C262.691 466.923 262.741 466.977 262.794 467.05L263.534 468.25C263.174 468.55 262.761 468.777 262.294 468.93C261.828 469.083 261.344 469.16 260.844 469.16ZM267.839 458.74V469H265.369V458.74H267.839ZM268.209 455.75C268.209 455.963 268.165 456.163 268.079 456.35C267.992 456.537 267.875 456.7 267.729 456.84C267.589 456.98 267.422 457.093 267.229 457.18C267.035 457.26 266.829 457.3 266.609 457.3C266.395 457.3 266.192 457.26 265.999 457.18C265.812 457.093 265.649 456.98 265.509 456.84C265.369 456.7 265.255 456.537 265.169 456.35C265.089 456.163 265.049 455.963 265.049 455.75C265.049 455.53 265.089 455.323 265.169 455.13C265.255 454.937 265.369 454.77 265.509 454.63C265.649 454.49 265.812 454.38 265.999 454.3C266.192 454.213 266.395 454.17 266.609 454.17C266.829 454.17 267.035 454.213 267.229 454.3C267.422 454.38 267.589 454.49 267.729 454.63C267.875 454.77 267.992 454.937 268.079 455.13C268.165 455.323 268.209 455.53 268.209 455.75ZM271.078 469V460.6L270.188 460.46C269.995 460.427 269.838 460.36 269.718 460.26C269.605 460.16 269.548 460.02 269.548 459.84V458.83H271.078V458.5C271.078 457.873 271.182 457.293 271.388 456.76C271.595 456.22 271.908 455.753 272.328 455.36C272.748 454.967 273.278 454.66 273.918 454.44C274.558 454.213 275.315 454.1 276.188 454.1C276.468 454.1 276.755 454.117 277.048 454.15C277.342 454.177 277.595 454.223 277.808 454.29L277.728 455.57C277.715 455.723 277.632 455.817 277.478 455.85C277.325 455.877 277.135 455.89 276.908 455.89C276.262 455.89 275.718 455.947 275.278 456.06C274.845 456.173 274.492 456.343 274.218 456.57C273.952 456.79 273.758 457.07 273.638 457.41C273.525 457.743 273.468 458.133 273.468 458.58V458.83H279.828V469H277.358V460.59H273.548V469H271.078ZM289.86 460.91C289.787 461.003 289.713 461.077 289.64 461.13C289.573 461.183 289.473 461.21 289.34 461.21C289.213 461.21 289.09 461.173 288.97 461.1C288.85 461.02 288.707 460.933 288.54 460.84C288.373 460.74 288.173 460.653 287.94 460.58C287.713 460.5 287.43 460.46 287.09 460.46C286.657 460.46 286.277 460.54 285.95 460.7C285.623 460.853 285.35 461.077 285.13 461.37C284.917 461.663 284.757 462.02 284.65 462.44C284.543 462.853 284.49 463.323 284.49 463.85C284.49 464.397 284.547 464.883 284.66 465.31C284.78 465.737 284.95 466.097 285.17 466.39C285.39 466.677 285.657 466.897 285.97 467.05C286.283 467.197 286.637 467.27 287.03 467.27C287.423 467.27 287.74 467.223 287.98 467.13C288.227 467.03 288.433 466.923 288.6 466.81C288.767 466.69 288.91 466.583 289.03 466.49C289.157 466.39 289.297 466.34 289.45 466.34C289.65 466.34 289.8 466.417 289.9 466.57L290.61 467.47C290.337 467.79 290.04 468.06 289.72 468.28C289.4 468.493 289.067 468.667 288.72 468.8C288.38 468.927 288.027 469.017 287.66 469.07C287.293 469.123 286.93 469.15 286.57 469.15C285.937 469.15 285.34 469.033 284.78 468.8C284.22 468.56 283.73 468.213 283.31 467.76C282.897 467.307 282.567 466.753 282.32 466.1C282.08 465.44 281.96 464.69 281.96 463.85C281.96 463.097 282.067 462.4 282.28 461.76C282.5 461.113 282.82 460.557 283.24 460.09C283.66 459.617 284.18 459.247 284.8 458.98C285.42 458.713 286.133 458.58 286.94 458.58C287.707 458.58 288.377 458.703 288.95 458.95C289.53 459.197 290.05 459.55 290.51 460.01L289.86 460.91ZM300.221 469H299.111C298.878 469 298.695 468.967 298.561 468.9C298.428 468.827 298.328 468.683 298.261 468.47L298.041 467.74C297.781 467.973 297.525 468.18 297.271 468.36C297.025 468.533 296.768 468.68 296.501 468.8C296.235 468.92 295.951 469.01 295.651 469.07C295.351 469.13 295.018 469.16 294.651 469.16C294.218 469.16 293.818 469.103 293.451 468.99C293.085 468.87 292.768 468.693 292.501 468.46C292.241 468.227 292.038 467.937 291.891 467.59C291.745 467.243 291.671 466.84 291.671 466.38C291.671 465.993 291.771 465.613 291.971 465.24C292.178 464.86 292.518 464.52 292.991 464.22C293.465 463.913 294.095 463.66 294.881 463.46C295.668 463.26 296.645 463.147 297.811 463.12V462.52C297.811 461.833 297.665 461.327 297.371 461C297.085 460.667 296.665 460.5 296.111 460.5C295.711 460.5 295.378 460.547 295.111 460.64C294.845 460.733 294.611 460.84 294.411 460.96C294.218 461.073 294.038 461.177 293.871 461.27C293.705 461.363 293.521 461.41 293.321 461.41C293.155 461.41 293.011 461.367 292.891 461.28C292.771 461.193 292.675 461.087 292.601 460.96L292.151 460.17C293.331 459.09 294.755 458.55 296.421 458.55C297.021 458.55 297.555 458.65 298.021 458.85C298.495 459.043 298.895 459.317 299.221 459.67C299.548 460.017 299.795 460.433 299.961 460.92C300.135 461.407 300.221 461.94 300.221 462.52V469ZM295.421 467.46C295.675 467.46 295.908 467.437 296.121 467.39C296.335 467.343 296.535 467.273 296.721 467.18C296.915 467.087 297.098 466.973 297.271 466.84C297.451 466.7 297.631 466.537 297.811 466.35V464.62C297.091 464.653 296.488 464.717 296.001 464.81C295.521 464.897 295.135 465.01 294.841 465.15C294.548 465.29 294.338 465.453 294.211 465.64C294.091 465.827 294.031 466.03 294.031 466.25C294.031 466.683 294.158 466.993 294.411 467.18C294.671 467.367 295.008 467.46 295.421 467.46ZM306.02 469.16C305.133 469.16 304.45 468.91 303.97 468.41C303.49 467.903 303.25 467.207 303.25 466.32V460.59H302.21C302.077 460.59 301.96 460.547 301.86 460.46C301.767 460.373 301.72 460.243 301.72 460.07V459.09L303.37 458.82L303.89 456.02C303.917 455.887 303.977 455.783 304.07 455.71C304.17 455.637 304.293 455.6 304.44 455.6H305.72V458.83H308.42V460.59H305.72V466.15C305.72 466.47 305.8 466.72 305.96 466.9C306.12 467.08 306.333 467.17 306.6 467.17C306.753 467.17 306.88 467.153 306.98 467.12C307.087 467.08 307.177 467.04 307.25 467C307.33 466.96 307.4 466.923 307.46 466.89C307.52 466.85 307.58 466.83 307.64 466.83C307.713 466.83 307.773 466.85 307.82 466.89C307.867 466.923 307.917 466.977 307.97 467.05L308.71 468.25C308.35 468.55 307.937 468.777 307.47 468.93C307.003 469.083 306.52 469.16 306.02 469.16ZM314.624 458.58C315.271 458.58 315.864 458.683 316.404 458.89C316.951 459.097 317.421 459.4 317.814 459.8C318.208 460.193 318.514 460.68 318.734 461.26C318.954 461.833 319.064 462.49 319.064 463.23C319.064 463.417 319.054 463.573 319.034 463.7C319.021 463.82 318.991 463.917 318.944 463.99C318.904 464.057 318.848 464.107 318.774 464.14C318.701 464.167 318.608 464.18 318.494 464.18H312.154C312.228 465.233 312.511 466.007 313.004 466.5C313.498 466.993 314.151 467.24 314.964 467.24C315.364 467.24 315.708 467.193 315.994 467.1C316.288 467.007 316.541 466.903 316.754 466.79C316.974 466.677 317.164 466.573 317.324 466.48C317.491 466.387 317.651 466.34 317.804 466.34C317.904 466.34 317.991 466.36 318.064 466.4C318.138 466.44 318.201 466.497 318.254 466.57L318.974 467.47C318.701 467.79 318.394 468.06 318.054 468.28C317.714 468.493 317.358 468.667 316.984 468.8C316.618 468.927 316.241 469.017 315.854 469.07C315.474 469.123 315.104 469.15 314.744 469.15C314.031 469.15 313.368 469.033 312.754 468.8C312.141 468.56 311.608 468.21 311.154 467.75C310.701 467.283 310.344 466.71 310.084 466.03C309.824 465.343 309.694 464.55 309.694 463.65C309.694 462.95 309.808 462.293 310.034 461.68C310.261 461.06 310.584 460.523 311.004 460.07C311.431 459.61 311.948 459.247 312.554 458.98C313.168 458.713 313.858 458.58 314.624 458.58ZM314.674 460.35C313.954 460.35 313.391 460.553 312.984 460.96C312.578 461.367 312.318 461.943 312.204 462.69H316.844C316.844 462.37 316.801 462.07 316.714 461.79C316.628 461.503 316.494 461.253 316.314 461.04C316.134 460.827 315.908 460.66 315.634 460.54C315.361 460.413 315.041 460.35 314.674 460.35Z" fill="#111111"/>
<path d="M218 366L211.208 358.459L212.271 348.363L202.339 346.26L197.273 337.459L188 341.603L178.727 337.459L173.661 346.26L163.729 348.363L164.792 358.459L158 366L164.792 373.541L163.729 383.637L173.661 385.74L178.727 394.541L188 390.396L197.273 394.541L202.339 385.74L212.271 383.637L211.208 373.541L218 366ZM200.577 359.431L185.518 376.302L175.054 365.838L177.543 363.349L185.373 371.179L197.951 357.087L200.577 359.431Z" fill="#36D000"/>
</g>
<defs>
<clipPath id="clip0_218_40178">
<rect width="375" height="812" fill="white"/>
</clipPath>
</defs>
</svg>
