<svg width="375" height="812" viewBox="0 0 375 812" fill="none" xmlns="http://www.w3.org/2000/svg">
<g clip-path="url(#clip0_218_40017)">
<rect width="375" height="812" fill="white"/>
<path d="M112.542 62.17C112.469 62.3167 112.382 62.42 112.282 62.48C112.189 62.54 112.075 62.57 111.942 62.57C111.809 62.57 111.659 62.52 111.492 62.42C111.325 62.3133 111.129 62.1967 110.902 62.07C110.675 61.9433 110.409 61.83 110.102 61.73C109.802 61.6233 109.445 61.57 109.032 61.57C108.659 61.57 108.332 61.6167 108.052 61.71C107.779 61.7967 107.545 61.92 107.352 62.08C107.165 62.24 107.025 62.4333 106.932 62.66C106.839 62.88 106.792 63.1233 106.792 63.39C106.792 63.73 106.885 64.0133 107.072 64.24C107.265 64.4667 107.519 64.66 107.832 64.82C108.145 64.98 108.502 65.1233 108.902 65.25C109.302 65.3767 109.709 65.5133 110.122 65.66C110.542 65.8 110.952 65.9667 111.352 66.16C111.752 66.3467 112.109 66.5867 112.422 66.88C112.735 67.1667 112.985 67.52 113.172 67.94C113.365 68.36 113.462 68.87 113.462 69.47C113.462 70.1233 113.349 70.7367 113.122 71.31C112.902 71.8767 112.575 72.3733 112.142 72.8C111.715 73.22 111.192 73.5533 110.572 73.8C109.952 74.04 109.242 74.16 108.442 74.16C107.982 74.16 107.529 74.1133 107.082 74.02C106.635 73.9333 106.205 73.8067 105.792 73.64C105.385 73.4733 105.002 73.2733 104.642 73.04C104.289 72.8067 103.972 72.5467 103.692 72.26L104.472 70.97C104.545 70.8767 104.632 70.8 104.732 70.74C104.839 70.6733 104.955 70.64 105.082 70.64C105.249 70.64 105.429 70.71 105.622 70.85C105.815 70.9833 106.042 71.1333 106.302 71.3C106.569 71.4667 106.879 71.62 107.232 71.76C107.592 71.8933 108.022 71.96 108.522 71.96C109.289 71.96 109.882 71.78 110.302 71.42C110.722 71.0533 110.932 70.53 110.932 69.85C110.932 69.47 110.835 69.16 110.642 68.92C110.455 68.68 110.205 68.48 109.892 68.32C109.579 68.1533 109.222 68.0133 108.822 67.9C108.422 67.7867 108.015 67.6633 107.602 67.53C107.189 67.3967 106.782 67.2367 106.382 67.05C105.982 66.8633 105.625 66.62 105.312 66.32C104.999 66.02 104.745 65.6467 104.552 65.2C104.365 64.7467 104.272 64.19 104.272 63.53C104.272 63.0033 104.375 62.49 104.582 61.99C104.795 61.49 105.102 61.0467 105.502 60.66C105.909 60.2733 106.405 59.9633 106.992 59.73C107.579 59.4967 108.249 59.38 109.002 59.38C109.855 59.38 110.642 59.5133 111.362 59.78C112.082 60.0467 112.695 60.42 113.202 60.9L112.542 62.17ZM129.385 66.77C129.385 67.83 129.208 68.8133 128.855 69.72C128.501 70.62 128.005 71.4 127.365 72.06C126.725 72.72 125.955 73.2367 125.055 73.61C124.155 73.9767 123.158 74.16 122.065 74.16C120.971 74.16 119.971 73.9767 119.065 73.61C118.165 73.2367 117.391 72.72 116.745 72.06C116.105 71.4 115.608 70.62 115.255 69.72C114.901 68.8133 114.725 67.83 114.725 66.77C114.725 65.71 114.901 64.73 115.255 63.83C115.608 62.9233 116.105 62.14 116.745 61.48C117.391 60.82 118.165 60.3067 119.065 59.94C119.971 59.5667 120.971 59.38 122.065 59.38C123.158 59.38 124.155 59.5667 125.055 59.94C125.955 60.3133 126.725 60.83 127.365 61.49C128.005 62.1433 128.501 62.9233 128.855 63.83C129.208 64.73 129.385 65.71 129.385 66.77ZM126.625 66.77C126.625 65.9767 126.518 65.2667 126.305 64.64C126.098 64.0067 125.798 63.47 125.405 63.03C125.011 62.59 124.531 62.2533 123.965 62.02C123.405 61.7867 122.771 61.67 122.065 61.67C121.358 61.67 120.721 61.7867 120.155 62.02C119.588 62.2533 119.105 62.59 118.705 63.03C118.311 63.47 118.008 64.0067 117.795 64.64C117.581 65.2667 117.475 65.9767 117.475 66.77C117.475 67.5633 117.581 68.2767 117.795 68.91C118.008 69.5367 118.311 70.07 118.705 70.51C119.105 70.9433 119.588 71.2767 120.155 71.51C120.721 71.7433 121.358 71.86 122.065 71.86C122.771 71.86 123.405 71.7433 123.965 71.51C124.531 71.2767 125.011 70.9433 125.405 70.51C125.798 70.07 126.098 69.5367 126.305 68.91C126.518 68.2767 126.625 67.5633 126.625 66.77ZM141.451 70.59C141.597 70.59 141.724 70.6467 141.831 70.76L142.891 71.91C142.304 72.6367 141.581 73.1933 140.721 73.58C139.867 73.9667 138.841 74.16 137.641 74.16C136.567 74.16 135.601 73.9767 134.741 73.61C133.887 73.2433 133.157 72.7333 132.551 72.08C131.944 71.4267 131.477 70.6467 131.151 69.74C130.831 68.8333 130.671 67.8433 130.671 66.77C130.671 65.6833 130.851 64.69 131.211 63.79C131.571 62.8833 132.077 62.1033 132.731 61.45C133.384 60.7967 134.164 60.29 135.071 59.93C135.984 59.5633 136.991 59.38 138.091 59.38C139.164 59.38 140.101 59.5533 140.901 59.9C141.707 60.24 142.397 60.6933 142.971 61.26L142.071 62.51C142.017 62.59 141.947 62.66 141.861 62.72C141.781 62.78 141.667 62.81 141.521 62.81C141.367 62.81 141.211 62.75 141.051 62.63C140.891 62.51 140.687 62.38 140.441 62.24C140.194 62.1 139.881 61.97 139.501 61.85C139.127 61.73 138.651 61.67 138.071 61.67C137.391 61.67 136.764 61.79 136.191 62.03C135.624 62.2633 135.134 62.6 134.721 63.04C134.314 63.48 133.994 64.0167 133.761 64.65C133.534 65.2767 133.421 65.9833 133.421 66.77C133.421 67.5833 133.534 68.3067 133.761 68.94C133.994 69.5733 134.307 70.1067 134.701 70.54C135.094 70.9733 135.557 71.3067 136.091 71.54C136.624 71.7667 137.197 71.88 137.811 71.88C138.177 71.88 138.507 71.86 138.801 71.82C139.101 71.78 139.374 71.7167 139.621 71.63C139.874 71.5433 140.111 71.4333 140.331 71.3C140.557 71.16 140.781 70.99 141.001 70.79C141.067 70.73 141.137 70.6833 141.211 70.65C141.284 70.61 141.364 70.59 141.451 70.59ZM147.959 74H145.259V59.54H147.959V74ZM163.928 74H161.848C161.614 74 161.421 73.9433 161.268 73.83C161.121 73.71 161.014 73.5633 160.948 73.39L159.868 70.44H153.878L152.798 73.39C152.744 73.5433 152.638 73.6833 152.478 73.81C152.324 73.9367 152.134 74 151.908 74H149.818L155.498 59.54H158.248L163.928 74ZM154.568 68.54H159.178L157.418 63.73C157.338 63.5167 157.248 63.2667 157.148 62.98C157.054 62.6867 156.961 62.37 156.868 62.03C156.774 62.37 156.681 62.6867 156.588 62.98C156.501 63.2733 156.414 63.53 156.328 63.75L154.568 68.54ZM168.107 71.78H173.897V74H165.417V59.54H168.107V71.78ZM187.366 62.17C187.293 62.3167 187.206 62.42 187.106 62.48C187.013 62.54 186.9 62.57 186.766 62.57C186.633 62.57 186.483 62.52 186.316 62.42C186.15 62.3133 185.953 62.1967 185.726 62.07C185.5 61.9433 185.233 61.83 184.926 61.73C184.626 61.6233 184.27 61.57 183.856 61.57C183.483 61.57 183.156 61.6167 182.876 61.71C182.603 61.7967 182.37 61.92 182.176 62.08C181.99 62.24 181.85 62.4333 181.756 62.66C181.663 62.88 181.616 63.1233 181.616 63.39C181.616 63.73 181.71 64.0133 181.896 64.24C182.09 64.4667 182.343 64.66 182.656 64.82C182.97 64.98 183.326 65.1233 183.726 65.25C184.126 65.3767 184.533 65.5133 184.946 65.66C185.366 65.8 185.776 65.9667 186.176 66.16C186.576 66.3467 186.933 66.5867 187.246 66.88C187.56 67.1667 187.81 67.52 187.996 67.94C188.19 68.36 188.286 68.87 188.286 69.47C188.286 70.1233 188.173 70.7367 187.946 71.31C187.726 71.8767 187.4 72.3733 186.966 72.8C186.54 73.22 186.016 73.5533 185.396 73.8C184.776 74.04 184.066 74.16 183.266 74.16C182.806 74.16 182.353 74.1133 181.906 74.02C181.46 73.9333 181.03 73.8067 180.616 73.64C180.21 73.4733 179.826 73.2733 179.466 73.04C179.113 72.8067 178.796 72.5467 178.516 72.26L179.296 70.97C179.37 70.8767 179.456 70.8 179.556 70.74C179.663 70.6733 179.78 70.64 179.906 70.64C180.073 70.64 180.253 70.71 180.446 70.85C180.64 70.9833 180.866 71.1333 181.126 71.3C181.393 71.4667 181.703 71.62 182.056 71.76C182.416 71.8933 182.846 71.96 183.346 71.96C184.113 71.96 184.706 71.78 185.126 71.42C185.546 71.0533 185.756 70.53 185.756 69.85C185.756 69.47 185.66 69.16 185.466 68.92C185.28 68.68 185.03 68.48 184.716 68.32C184.403 68.1533 184.046 68.0133 183.646 67.9C183.246 67.7867 182.84 67.6633 182.426 67.53C182.013 67.3967 181.606 67.2367 181.206 67.05C180.806 66.8633 180.45 66.62 180.136 66.32C179.823 66.02 179.57 65.6467 179.376 65.2C179.19 64.7467 179.096 64.19 179.096 63.53C179.096 63.0033 179.2 62.49 179.406 61.99C179.62 61.49 179.926 61.0467 180.326 60.66C180.733 60.2733 181.23 59.9633 181.816 59.73C182.403 59.4967 183.073 59.38 183.826 59.38C184.68 59.38 185.466 59.5133 186.186 59.78C186.906 60.0467 187.52 60.42 188.026 60.9L187.366 62.17ZM199.459 59.54V61.68H193.049V65.69H198.099V67.76H193.049V71.85H199.459V74H190.339V59.54H199.459ZM211.724 70.59C211.871 70.59 211.998 70.6467 212.104 70.76L213.164 71.91C212.578 72.6367 211.854 73.1933 210.994 73.58C210.141 73.9667 209.114 74.16 207.914 74.16C206.841 74.16 205.874 73.9767 205.014 73.61C204.161 73.2433 203.431 72.7333 202.824 72.08C202.218 71.4267 201.751 70.6467 201.424 69.74C201.104 68.8333 200.944 67.8433 200.944 66.77C200.944 65.6833 201.124 64.69 201.484 63.79C201.844 62.8833 202.351 62.1033 203.004 61.45C203.658 60.7967 204.438 60.29 205.344 59.93C206.258 59.5633 207.264 59.38 208.364 59.38C209.438 59.38 210.374 59.5533 211.174 59.9C211.981 60.24 212.671 60.6933 213.244 61.26L212.344 62.51C212.291 62.59 212.221 62.66 212.134 62.72C212.054 62.78 211.941 62.81 211.794 62.81C211.641 62.81 211.484 62.75 211.324 62.63C211.164 62.51 210.961 62.38 210.714 62.24C210.468 62.1 210.154 61.97 209.774 61.85C209.401 61.73 208.924 61.67 208.344 61.67C207.664 61.67 207.038 61.79 206.464 62.03C205.898 62.2633 205.408 62.6 204.994 63.04C204.588 63.48 204.268 64.0167 204.034 64.65C203.808 65.2767 203.694 65.9833 203.694 66.77C203.694 67.5833 203.808 68.3067 204.034 68.94C204.268 69.5733 204.581 70.1067 204.974 70.54C205.368 70.9733 205.831 71.3067 206.364 71.54C206.898 71.7667 207.471 71.88 208.084 71.88C208.451 71.88 208.781 71.86 209.074 71.82C209.374 71.78 209.648 71.7167 209.894 71.63C210.148 71.5433 210.384 71.4333 210.604 71.3C210.831 71.16 211.054 70.99 211.274 70.79C211.341 70.73 211.411 70.6833 211.484 70.65C211.558 70.61 211.638 70.59 211.724 70.59ZM221.022 71.83C221.542 71.83 222.006 71.7433 222.412 71.57C222.826 71.3967 223.172 71.1533 223.452 70.84C223.739 70.5267 223.956 70.1467 224.102 69.7C224.256 69.2533 224.332 68.7533 224.332 68.2V59.54H227.022V68.2C227.022 69.06 226.882 69.8567 226.602 70.59C226.329 71.3167 225.932 71.9467 225.412 72.48C224.892 73.0067 224.262 73.42 223.522 73.72C222.782 74.0133 221.949 74.16 221.022 74.16C220.096 74.16 219.262 74.0133 218.522 73.72C217.782 73.42 217.152 73.0067 216.632 72.48C216.119 71.9467 215.722 71.3167 215.442 70.59C215.169 69.8567 215.032 69.06 215.032 68.2V59.54H217.722V68.19C217.722 68.7433 217.796 69.2433 217.942 69.69C218.096 70.1367 218.312 70.52 218.592 70.84C218.872 71.1533 219.216 71.3967 219.622 71.57C220.036 71.7433 220.502 71.83 221.022 71.83ZM232.533 68.35V74H229.843V59.54H234.253C235.24 59.54 236.083 59.6433 236.783 59.85C237.49 60.05 238.066 60.3333 238.513 60.7C238.966 61.0667 239.296 61.5067 239.503 62.02C239.716 62.5267 239.823 63.0867 239.823 63.7C239.823 64.1867 239.75 64.6467 239.603 65.08C239.463 65.5133 239.256 65.9067 238.983 66.26C238.716 66.6133 238.383 66.9233 237.983 67.19C237.59 67.4567 237.14 67.67 236.633 67.83C236.973 68.0233 237.266 68.3 237.513 68.66L241.133 74H238.713C238.48 74 238.28 73.9533 238.113 73.86C237.953 73.7667 237.816 73.6333 237.703 73.46L234.663 68.83C234.55 68.6567 234.423 68.5333 234.283 68.46C234.15 68.3867 233.95 68.35 233.683 68.35H232.533ZM232.533 66.42H234.213C234.72 66.42 235.16 66.3567 235.533 66.23C235.913 66.1033 236.223 65.93 236.463 65.71C236.71 65.4833 236.893 65.2167 237.013 64.91C237.133 64.6033 237.193 64.2667 237.193 63.9C237.193 63.1667 236.95 62.6033 236.463 62.21C235.983 61.8167 235.246 61.62 234.253 61.62H232.533V66.42ZM245.888 74H243.188V59.54H245.888V74ZM259.338 59.54V61.75H254.988V74H252.298V61.75H247.928V59.54H259.338ZM267.472 68.38V74H264.782V68.38L259.512 59.54H261.882C262.115 59.54 262.299 59.5967 262.432 59.71C262.572 59.8233 262.689 59.9667 262.782 60.14L265.432 64.97C265.585 65.2567 265.719 65.53 265.832 65.79C265.945 66.0433 266.049 66.2933 266.142 66.54C266.229 66.2867 266.325 66.0333 266.432 65.78C266.545 65.52 266.679 65.25 266.832 64.97L269.462 60.14C269.535 59.9933 269.645 59.8567 269.792 59.73C269.939 59.6033 270.125 59.54 270.352 59.54H272.732L267.472 68.38Z" fill="#111111"/>
<path d="M19.991 67.0874L19.9911 67.0875L26.8425 74.0063L26.8426 74.0063C27.1651 74.3318 27.6884 74.3312 28.0102 74.0047L28.0103 74.0046C28.3303 73.6798 28.3294 73.1549 28.0087 72.831L28.0087 72.831L21.7393 66.5L28.0089 60.169L28.0089 60.1689C28.3296 59.845 28.3305 59.3204 28.0106 58.9955L28.0105 58.9954C27.8497 58.8323 27.6377 58.75 27.4257 58.75C27.2144 58.75 27.0032 58.8318 26.8426 58.9938L26.8426 58.9939L19.9914 65.9122L20.1688 66.0884L19.9911 65.9124L19.9913 65.9123C19.8363 66.0685 19.75 66.2802 19.75 66.5C19.75 66.72 19.8366 66.9313 19.991 67.0874Z" fill="#111111" stroke="#111111" stroke-width="0.5"/>
<g filter="url(#filter0_d_218_40017)">
<path d="M0 142C0 130.954 8.95431 122 20 122H355C366.046 122 375 130.954 375 142V812H0V142Z" fill="white"/>
</g>
<rect x="139.663" y="785.692" width="95.674" height="6.30817" rx="3.15409" fill="#E7E7E7"/>
<path d="M27.368 158.536C27.3093 158.653 27.24 158.736 27.16 158.784C27.0853 158.832 26.9947 158.856 26.888 158.856C26.7813 158.856 26.6613 158.816 26.528 158.736C26.3947 158.651 26.2373 158.557 26.056 158.456C25.8747 158.355 25.6613 158.264 25.416 158.184C25.176 158.099 24.8907 158.056 24.56 158.056C24.2613 158.056 24 158.093 23.776 158.168C23.5573 158.237 23.3707 158.336 23.216 158.464C23.0667 158.592 22.9547 158.747 22.88 158.928C22.8053 159.104 22.768 159.299 22.768 159.512C22.768 159.784 22.8427 160.011 22.992 160.192C23.1467 160.373 23.3493 160.528 23.6 160.656C23.8507 160.784 24.136 160.899 24.456 161C24.776 161.101 25.1013 161.211 25.432 161.328C25.768 161.44 26.096 161.573 26.416 161.728C26.736 161.877 27.0213 162.069 27.272 162.304C27.5227 162.533 27.7227 162.816 27.872 163.152C28.0267 163.488 28.104 163.896 28.104 164.376C28.104 164.899 28.0133 165.389 27.832 165.848C27.656 166.301 27.3947 166.699 27.048 167.04C26.7067 167.376 26.288 167.643 25.792 167.84C25.296 168.032 24.728 168.128 24.088 168.128C23.72 168.128 23.3573 168.091 23 168.016C22.6427 167.947 22.2987 167.845 21.968 167.712C21.6427 167.579 21.336 167.419 21.048 167.232C20.7653 167.045 20.512 166.837 20.288 166.608L20.912 165.576C20.9707 165.501 21.04 165.44 21.12 165.392C21.2053 165.339 21.2987 165.312 21.4 165.312C21.5333 165.312 21.6773 165.368 21.832 165.48C21.9867 165.587 22.168 165.707 22.376 165.84C22.5893 165.973 22.8373 166.096 23.12 166.208C23.408 166.315 23.752 166.368 24.152 166.368C24.7653 166.368 25.24 166.224 25.576 165.936C25.912 165.643 26.08 165.224 26.08 164.68C26.08 164.376 26.0027 164.128 25.848 163.936C25.6987 163.744 25.4987 163.584 25.248 163.456C24.9973 163.323 24.712 163.211 24.392 163.12C24.072 163.029 23.7467 162.931 23.416 162.824C23.0853 162.717 22.76 162.589 22.44 162.44C22.12 162.291 21.8347 162.096 21.584 161.856C21.3333 161.616 21.1307 161.317 20.976 160.96C20.8267 160.597 20.752 160.152 20.752 159.624C20.752 159.203 20.8347 158.792 21 158.392C21.1707 157.992 21.416 157.637 21.736 157.328C22.0613 157.019 22.4587 156.771 22.928 156.584C23.3973 156.397 23.9333 156.304 24.536 156.304C25.2187 156.304 25.848 156.411 26.424 156.624C27 156.837 27.4907 157.136 27.896 157.52L27.368 158.536ZM33.1381 159.664C33.7515 159.664 34.3061 159.763 34.8021 159.96C35.3035 160.157 35.7301 160.437 36.0821 160.8C36.4341 161.163 36.7061 161.605 36.8981 162.128C37.0901 162.651 37.1861 163.235 37.1861 163.88C37.1861 164.531 37.0901 165.117 36.8981 165.64C36.7061 166.163 36.4341 166.608 36.0821 166.976C35.7301 167.344 35.3035 167.627 34.8021 167.824C34.3061 168.021 33.7515 168.12 33.1381 168.12C32.5248 168.12 31.9675 168.021 31.4661 167.824C30.9648 167.627 30.5355 167.344 30.1781 166.976C29.8261 166.608 29.5515 166.163 29.3541 165.64C29.1621 165.117 29.0661 164.531 29.0661 163.88C29.0661 163.235 29.1621 162.651 29.3541 162.128C29.5515 161.605 29.8261 161.163 30.1781 160.8C30.5355 160.437 30.9648 160.157 31.4661 159.96C31.9675 159.763 32.5248 159.664 33.1381 159.664ZM33.1381 166.6C33.8208 166.6 34.3248 166.371 34.6501 165.912C34.9808 165.453 35.1461 164.781 35.1461 163.896C35.1461 163.011 34.9808 162.336 34.6501 161.872C34.3248 161.408 33.8208 161.176 33.1381 161.176C32.4448 161.176 31.9328 161.411 31.6021 161.88C31.2715 162.344 31.1061 163.016 31.1061 163.896C31.1061 164.776 31.2715 165.448 31.6021 165.912C31.9328 166.371 32.4448 166.6 33.1381 166.6ZM44.4959 161.528C44.4372 161.603 44.3785 161.661 44.3199 161.704C44.2665 161.747 44.1865 161.768 44.0799 161.768C43.9785 161.768 43.8799 161.739 43.7839 161.68C43.6879 161.616 43.5732 161.547 43.4399 161.472C43.3065 161.392 43.1465 161.323 42.9599 161.264C42.7785 161.2 42.5519 161.168 42.2799 161.168C41.9332 161.168 41.6292 161.232 41.3679 161.36C41.1065 161.483 40.8879 161.661 40.7119 161.896C40.5412 162.131 40.4132 162.416 40.3279 162.752C40.2425 163.083 40.1999 163.459 40.1999 163.88C40.1999 164.317 40.2452 164.707 40.3359 165.048C40.4319 165.389 40.5679 165.677 40.7439 165.912C40.9199 166.141 41.1332 166.317 41.3839 166.44C41.6345 166.557 41.9172 166.616 42.2319 166.616C42.5465 166.616 42.7999 166.579 42.9919 166.504C43.1892 166.424 43.3545 166.339 43.4879 166.248C43.6212 166.152 43.7359 166.067 43.8319 165.992C43.9332 165.912 44.0452 165.872 44.1679 165.872C44.3279 165.872 44.4479 165.933 44.5279 166.056L45.0959 166.776C44.8772 167.032 44.6399 167.248 44.3839 167.424C44.1279 167.595 43.8612 167.733 43.5839 167.84C43.3119 167.941 43.0292 168.013 42.7359 168.056C42.4425 168.099 42.1519 168.12 41.8639 168.12C41.3572 168.12 40.8799 168.027 40.4319 167.84C39.9839 167.648 39.5919 167.371 39.2559 167.008C38.9252 166.645 38.6612 166.203 38.4639 165.68C38.2719 165.152 38.1759 164.552 38.1759 163.88C38.1759 163.277 38.2612 162.72 38.4319 162.208C38.6079 161.691 38.8639 161.245 39.1999 160.872C39.5359 160.493 39.9519 160.197 40.4479 159.984C40.9439 159.771 41.5145 159.664 42.1599 159.664C42.7732 159.664 43.3092 159.763 43.7679 159.96C44.2319 160.157 44.6479 160.44 45.0159 160.808L44.4959 161.528ZM48.4569 159.792V168H46.4809V159.792H48.4569ZM48.7529 157.4C48.7529 157.571 48.7182 157.731 48.6489 157.88C48.5795 158.029 48.4862 158.16 48.3689 158.272C48.2569 158.384 48.1235 158.475 47.9689 158.544C47.8142 158.608 47.6489 158.64 47.4729 158.64C47.3022 158.64 47.1395 158.608 46.9849 158.544C46.8355 158.475 46.7049 158.384 46.5929 158.272C46.4809 158.16 46.3902 158.029 46.3209 157.88C46.2569 157.731 46.2249 157.571 46.2249 157.4C46.2249 157.224 46.2569 157.059 46.3209 156.904C46.3902 156.749 46.4809 156.616 46.5929 156.504C46.7049 156.392 46.8355 156.304 46.9849 156.24C47.1395 156.171 47.3022 156.136 47.4729 156.136C47.6489 156.136 47.8142 156.171 47.9689 156.24C48.1235 156.304 48.2569 156.392 48.3689 156.504C48.4862 156.616 48.5795 156.749 48.6489 156.904C48.7182 157.059 48.7529 157.224 48.7529 157.4ZM57.1286 168H56.2406C56.054 168 55.9073 167.973 55.8006 167.92C55.694 167.861 55.614 167.747 55.5606 167.576L55.3846 166.992C55.1766 167.179 54.9713 167.344 54.7686 167.488C54.5713 167.627 54.366 167.744 54.1526 167.84C53.9393 167.936 53.7126 168.008 53.4726 168.056C53.2326 168.104 52.966 168.128 52.6726 168.128C52.326 168.128 52.006 168.083 51.7126 167.992C51.4193 167.896 51.166 167.755 50.9526 167.568C50.7446 167.381 50.582 167.149 50.4646 166.872C50.3473 166.595 50.2886 166.272 50.2886 165.904C50.2886 165.595 50.3686 165.291 50.5286 164.992C50.694 164.688 50.966 164.416 51.3446 164.176C51.7233 163.931 52.2273 163.728 52.8566 163.568C53.486 163.408 54.2673 163.317 55.2006 163.296V162.816C55.2006 162.267 55.0833 161.861 54.8486 161.6C54.6193 161.333 54.2833 161.2 53.8406 161.2C53.5206 161.2 53.254 161.237 53.0406 161.312C52.8273 161.387 52.6406 161.472 52.4806 161.568C52.326 161.659 52.182 161.741 52.0486 161.816C51.9153 161.891 51.7686 161.928 51.6086 161.928C51.4753 161.928 51.3606 161.893 51.2646 161.824C51.1686 161.755 51.0913 161.669 51.0326 161.568L50.6726 160.936C51.6166 160.072 52.7553 159.64 54.0886 159.64C54.5686 159.64 54.9953 159.72 55.3686 159.88C55.7473 160.035 56.0673 160.253 56.3286 160.536C56.59 160.813 56.7873 161.147 56.9206 161.536C57.0593 161.925 57.1286 162.352 57.1286 162.816V168ZM53.2886 166.768C53.4913 166.768 53.678 166.749 53.8486 166.712C54.0193 166.675 54.1793 166.619 54.3286 166.544C54.4833 166.469 54.63 166.379 54.7686 166.272C54.9126 166.16 55.0566 166.029 55.2006 165.88V164.496C54.6246 164.523 54.142 164.573 53.7526 164.648C53.3686 164.717 53.0593 164.808 52.8246 164.92C52.59 165.032 52.422 165.163 52.3206 165.312C52.2246 165.461 52.1766 165.624 52.1766 165.8C52.1766 166.147 52.278 166.395 52.4806 166.544C52.6886 166.693 52.958 166.768 53.2886 166.768ZM61.1756 156.112V168H59.1996V156.112H61.1756ZM72.8211 158.536C72.7625 158.653 72.6931 158.736 72.6131 158.784C72.5385 158.832 72.4478 158.856 72.3411 158.856C72.2345 158.856 72.1145 158.816 71.9811 158.736C71.8478 158.651 71.6905 158.557 71.5091 158.456C71.3278 158.355 71.1145 158.264 70.8691 158.184C70.6291 158.099 70.3438 158.056 70.0131 158.056C69.7145 158.056 69.4531 158.093 69.2291 158.168C69.0105 158.237 68.8238 158.336 68.6691 158.464C68.5198 158.592 68.4078 158.747 68.3331 158.928C68.2585 159.104 68.2211 159.299 68.2211 159.512C68.2211 159.784 68.2958 160.011 68.4451 160.192C68.5998 160.373 68.8025 160.528 69.0531 160.656C69.3038 160.784 69.5891 160.899 69.9091 161C70.2291 161.101 70.5545 161.211 70.8851 161.328C71.2211 161.44 71.5491 161.573 71.8691 161.728C72.1891 161.877 72.4745 162.069 72.7251 162.304C72.9758 162.533 73.1758 162.816 73.3251 163.152C73.4798 163.488 73.5571 163.896 73.5571 164.376C73.5571 164.899 73.4665 165.389 73.2851 165.848C73.1091 166.301 72.8478 166.699 72.5011 167.04C72.1598 167.376 71.7411 167.643 71.2451 167.84C70.7491 168.032 70.1811 168.128 69.5411 168.128C69.1731 168.128 68.8105 168.091 68.4531 168.016C68.0958 167.947 67.7518 167.845 67.4211 167.712C67.0958 167.579 66.7891 167.419 66.5011 167.232C66.2185 167.045 65.9651 166.837 65.7411 166.608L66.3651 165.576C66.4238 165.501 66.4931 165.44 66.5731 165.392C66.6585 165.339 66.7518 165.312 66.8531 165.312C66.9865 165.312 67.1305 165.368 67.2851 165.48C67.4398 165.587 67.6211 165.707 67.8291 165.84C68.0425 165.973 68.2905 166.096 68.5731 166.208C68.8611 166.315 69.2051 166.368 69.6051 166.368C70.2185 166.368 70.6931 166.224 71.0291 165.936C71.3651 165.643 71.5331 165.224 71.5331 164.68C71.5331 164.376 71.4558 164.128 71.3011 163.936C71.1518 163.744 70.9518 163.584 70.7011 163.456C70.4505 163.323 70.1651 163.211 69.8451 163.12C69.5251 163.029 69.1998 162.931 68.8691 162.824C68.5385 162.717 68.2131 162.589 67.8931 162.44C67.5731 162.291 67.2878 162.096 67.0371 161.856C66.7865 161.616 66.5838 161.317 66.4291 160.96C66.2798 160.597 66.2051 160.152 66.2051 159.624C66.2051 159.203 66.2878 158.792 66.4531 158.392C66.6238 157.992 66.8691 157.637 67.1891 157.328C67.5145 157.019 67.9118 156.771 68.3811 156.584C68.8505 156.397 69.3865 156.304 69.9891 156.304C70.6718 156.304 71.3011 156.411 71.8771 156.624C72.4531 156.837 72.9438 157.136 73.3491 157.52L72.8211 158.536ZM78.4793 159.664C78.9966 159.664 79.4713 159.747 79.9033 159.912C80.3406 160.077 80.7166 160.32 81.0313 160.64C81.3459 160.955 81.5913 161.344 81.7673 161.808C81.9433 162.267 82.0312 162.792 82.0312 163.384C82.0312 163.533 82.0233 163.659 82.0073 163.76C81.9966 163.856 81.9726 163.933 81.9353 163.992C81.9033 164.045 81.8579 164.085 81.7993 164.112C81.7406 164.133 81.6659 164.144 81.5753 164.144H76.5033C76.5619 164.987 76.7886 165.605 77.1833 166C77.5779 166.395 78.1006 166.592 78.7513 166.592C79.0713 166.592 79.3459 166.555 79.5753 166.48C79.8099 166.405 80.0126 166.323 80.1833 166.232C80.3593 166.141 80.5113 166.059 80.6393 165.984C80.7726 165.909 80.9006 165.872 81.0233 165.872C81.1033 165.872 81.1726 165.888 81.2313 165.92C81.2899 165.952 81.3406 165.997 81.3833 166.056L81.9593 166.776C81.7406 167.032 81.4953 167.248 81.2233 167.424C80.9513 167.595 80.6659 167.733 80.3673 167.84C80.0739 167.941 79.7726 168.013 79.4633 168.056C79.1593 168.099 78.8633 168.12 78.5753 168.12C78.0046 168.12 77.4739 168.027 76.9833 167.84C76.4926 167.648 76.0659 167.368 75.7033 167C75.3406 166.627 75.0553 166.168 74.8473 165.624C74.6393 165.075 74.5353 164.44 74.5353 163.72C74.5353 163.16 74.6259 162.635 74.8073 162.144C74.9886 161.648 75.2473 161.219 75.5833 160.856C75.9246 160.488 76.3379 160.197 76.8233 159.984C77.3139 159.771 77.8659 159.664 78.4793 159.664ZM78.5193 161.08C77.9433 161.08 77.4926 161.243 77.1673 161.568C76.8419 161.893 76.6339 162.355 76.5433 162.952H80.2553C80.2553 162.696 80.2206 162.456 80.1513 162.232C80.0819 162.003 79.9753 161.803 79.8313 161.632C79.6873 161.461 79.5059 161.328 79.2873 161.232C79.0686 161.131 78.8126 161.08 78.5193 161.08ZM89.4021 161.528C89.3435 161.603 89.2848 161.661 89.2261 161.704C89.1728 161.747 89.0928 161.768 88.9861 161.768C88.8848 161.768 88.7861 161.739 88.6901 161.68C88.5941 161.616 88.4795 161.547 88.3461 161.472C88.2128 161.392 88.0528 161.323 87.8661 161.264C87.6848 161.2 87.4581 161.168 87.1861 161.168C86.8395 161.168 86.5355 161.232 86.2741 161.36C86.0128 161.483 85.7941 161.661 85.6181 161.896C85.4475 162.131 85.3195 162.416 85.2341 162.752C85.1488 163.083 85.1061 163.459 85.1061 163.88C85.1061 164.317 85.1515 164.707 85.2421 165.048C85.3381 165.389 85.4741 165.677 85.6501 165.912C85.8261 166.141 86.0395 166.317 86.2901 166.44C86.5408 166.557 86.8235 166.616 87.1381 166.616C87.4528 166.616 87.7061 166.579 87.8981 166.504C88.0955 166.424 88.2608 166.339 88.3941 166.248C88.5275 166.152 88.6421 166.067 88.7381 165.992C88.8395 165.912 88.9515 165.872 89.0741 165.872C89.2341 165.872 89.3541 165.933 89.4341 166.056L90.0021 166.776C89.7835 167.032 89.5461 167.248 89.2901 167.424C89.0341 167.595 88.7675 167.733 88.4901 167.84C88.2181 167.941 87.9355 168.013 87.6421 168.056C87.3488 168.099 87.0581 168.12 86.7701 168.12C86.2635 168.12 85.7861 168.027 85.3381 167.84C84.8901 167.648 84.4981 167.371 84.1621 167.008C83.8315 166.645 83.5675 166.203 83.3701 165.68C83.1781 165.152 83.0821 164.552 83.0821 163.88C83.0821 163.277 83.1675 162.72 83.3381 162.208C83.5141 161.691 83.7701 161.245 84.1061 160.872C84.4421 160.493 84.8581 160.197 85.3541 159.984C85.8501 159.771 86.4208 159.664 87.0661 159.664C87.6795 159.664 88.2155 159.763 88.6741 159.96C89.1381 160.157 89.5541 160.44 89.9221 160.808L89.4021 161.528ZM93.0671 159.792V165.008C93.0671 165.509 93.1818 165.899 93.4111 166.176C93.6458 166.448 93.9951 166.584 94.4591 166.584C94.8005 166.584 95.1205 166.509 95.4191 166.36C95.7178 166.205 96.0005 165.995 96.2671 165.728V159.792H98.2431V168H97.0351C96.7791 168 96.6111 167.88 96.5311 167.64L96.3951 166.984C96.2245 167.155 96.0485 167.312 95.8671 167.456C95.6858 167.595 95.4911 167.715 95.2831 167.816C95.0805 167.912 94.8591 167.987 94.6191 168.04C94.3845 168.099 94.1311 168.128 93.8591 168.128C93.4111 168.128 93.0138 168.053 92.6671 167.904C92.3258 167.749 92.0378 167.533 91.8031 167.256C91.5685 166.979 91.3898 166.651 91.2671 166.272C91.1498 165.888 91.0911 165.467 91.0911 165.008V159.792H93.0671ZM100.353 168V159.792H101.513C101.716 159.792 101.857 159.829 101.937 159.904C102.017 159.979 102.07 160.107 102.097 160.288L102.217 161.28C102.51 160.773 102.854 160.373 103.249 160.08C103.644 159.787 104.086 159.64 104.577 159.64C104.982 159.64 105.318 159.733 105.585 159.92L105.329 161.4C105.313 161.496 105.278 161.565 105.225 161.608C105.172 161.645 105.1 161.664 105.009 161.664C104.929 161.664 104.82 161.645 104.681 161.608C104.542 161.571 104.358 161.552 104.129 161.552C103.718 161.552 103.366 161.667 103.073 161.896C102.78 162.12 102.532 162.451 102.329 162.888V168H100.353ZM108.988 159.792V168H107.012V159.792H108.988ZM109.284 157.4C109.284 157.571 109.249 157.731 109.18 157.88C109.111 158.029 109.017 158.16 108.9 158.272C108.788 158.384 108.655 158.475 108.5 158.544C108.345 158.608 108.18 158.64 108.004 158.64C107.833 158.64 107.671 158.608 107.516 158.544C107.367 158.475 107.236 158.384 107.124 158.272C107.012 158.16 106.921 158.029 106.852 157.88C106.788 157.731 106.756 157.571 106.756 157.4C106.756 157.224 106.788 157.059 106.852 156.904C106.921 156.749 107.012 156.616 107.124 156.504C107.236 156.392 107.367 156.304 107.516 156.24C107.671 156.171 107.833 156.136 108.004 156.136C108.18 156.136 108.345 156.171 108.5 156.24C108.655 156.304 108.788 156.392 108.9 156.504C109.017 156.616 109.111 156.749 109.18 156.904C109.249 157.059 109.284 157.224 109.284 157.4ZM113.924 168.128C113.215 168.128 112.668 167.928 112.284 167.528C111.9 167.123 111.708 166.565 111.708 165.856V161.272H110.876C110.769 161.272 110.676 161.237 110.596 161.168C110.521 161.099 110.484 160.995 110.484 160.856V160.072L111.804 159.856L112.22 157.616C112.241 157.509 112.289 157.427 112.364 157.368C112.444 157.309 112.543 157.28 112.66 157.28H113.684V159.864H115.844V161.272H113.684V165.72C113.684 165.976 113.748 166.176 113.876 166.32C114.004 166.464 114.175 166.536 114.388 166.536C114.511 166.536 114.612 166.523 114.692 166.496C114.777 166.464 114.849 166.432 114.908 166.4C114.972 166.368 115.028 166.339 115.076 166.312C115.124 166.28 115.172 166.264 115.22 166.264C115.279 166.264 115.327 166.28 115.364 166.312C115.401 166.339 115.441 166.381 115.484 166.44L116.076 167.4C115.788 167.64 115.457 167.821 115.084 167.944C114.711 168.067 114.324 168.128 113.924 168.128ZM120.327 170.256C120.269 170.395 120.191 170.499 120.095 170.568C120.005 170.643 119.863 170.68 119.671 170.68H118.199L119.735 167.392L116.415 159.792H118.143C118.303 159.792 118.426 159.829 118.511 159.904C118.597 159.979 118.661 160.064 118.703 160.16L120.455 164.416C120.514 164.555 120.565 164.699 120.607 164.848C120.65 164.997 120.687 165.147 120.719 165.296C120.762 165.141 120.807 164.992 120.855 164.848C120.909 164.704 120.965 164.557 121.023 164.408L122.671 160.16C122.714 160.053 122.783 159.965 122.879 159.896C122.981 159.827 123.093 159.792 123.215 159.792H124.799L120.327 170.256ZM130.28 156.432C130.376 156.432 130.456 156.437 130.52 156.448C130.584 156.453 130.64 156.469 130.688 156.496C130.742 156.517 130.792 156.552 130.84 156.6C130.888 156.643 130.942 156.701 131 156.776L137.072 164.512C137.051 164.325 137.035 164.144 137.024 163.968C137.019 163.787 137.016 163.619 137.016 163.464V156.432H138.912V168H137.8C137.63 168 137.488 167.973 137.376 167.92C137.264 167.867 137.155 167.771 137.048 167.632L131 159.928C131.016 160.099 131.027 160.269 131.032 160.44C131.043 160.605 131.048 160.757 131.048 160.896V168H129.152V156.432H130.28ZM142.942 159.792V165.008C142.942 165.509 143.057 165.899 143.286 166.176C143.521 166.448 143.87 166.584 144.334 166.584C144.675 166.584 144.995 166.509 145.294 166.36C145.593 166.205 145.875 165.995 146.142 165.728V159.792H148.118V168H146.91C146.654 168 146.486 167.88 146.406 167.64L146.27 166.984C146.099 167.155 145.923 167.312 145.742 167.456C145.561 167.595 145.366 167.715 145.158 167.816C144.955 167.912 144.734 167.987 144.494 168.04C144.259 168.099 144.006 168.128 143.734 168.128C143.286 168.128 142.889 168.053 142.542 167.904C142.201 167.749 141.913 167.533 141.678 167.256C141.443 166.979 141.265 166.651 141.142 166.272C141.025 165.888 140.966 165.467 140.966 165.008V159.792H142.942ZM150.228 168V159.792H151.436C151.692 159.792 151.86 159.912 151.94 160.152L152.068 160.76C152.212 160.6 152.361 160.453 152.516 160.32C152.676 160.187 152.844 160.072 153.02 159.976C153.201 159.88 153.393 159.805 153.596 159.752C153.804 159.693 154.031 159.664 154.276 159.664C154.793 159.664 155.217 159.805 155.548 160.088C155.884 160.365 156.135 160.736 156.3 161.2C156.428 160.928 156.588 160.696 156.78 160.504C156.972 160.307 157.183 160.147 157.412 160.024C157.641 159.901 157.884 159.811 158.14 159.752C158.401 159.693 158.663 159.664 158.924 159.664C159.377 159.664 159.78 159.733 160.132 159.872C160.484 160.011 160.78 160.213 161.02 160.48C161.26 160.747 161.441 161.072 161.564 161.456C161.692 161.84 161.756 162.28 161.756 162.776V168H159.78V162.776C159.78 162.253 159.665 161.861 159.436 161.6C159.207 161.333 158.871 161.2 158.428 161.2C158.225 161.2 158.036 161.235 157.86 161.304C157.689 161.373 157.537 161.475 157.404 161.608C157.276 161.736 157.175 161.899 157.1 162.096C157.025 162.293 156.988 162.52 156.988 162.776V168H155.004V162.776C155.004 162.227 154.892 161.827 154.668 161.576C154.449 161.325 154.124 161.2 153.692 161.2C153.409 161.2 153.143 161.272 152.892 161.416C152.647 161.555 152.417 161.747 152.204 161.992V168H150.228ZM163.721 168V156.112H165.697V160.8C166.022 160.453 166.39 160.179 166.801 159.976C167.211 159.768 167.691 159.664 168.241 159.664C168.689 159.664 169.097 159.757 169.465 159.944C169.838 160.125 170.158 160.392 170.425 160.744C170.697 161.096 170.905 161.531 171.049 162.048C171.198 162.565 171.273 163.16 171.273 163.832C171.273 164.445 171.19 165.013 171.025 165.536C170.859 166.059 170.622 166.512 170.313 166.896C170.009 167.28 169.638 167.581 169.201 167.8C168.769 168.013 168.283 168.12 167.745 168.12C167.494 168.12 167.265 168.093 167.057 168.04C166.849 167.992 166.659 167.923 166.489 167.832C166.318 167.741 166.158 167.632 166.009 167.504C165.865 167.371 165.726 167.224 165.593 167.064L165.505 167.616C165.473 167.755 165.417 167.853 165.337 167.912C165.262 167.971 165.158 168 165.025 168H163.721ZM167.561 161.2C167.15 161.2 166.798 161.288 166.505 161.464C166.217 161.635 165.947 161.877 165.697 162.192V165.872C165.921 166.149 166.163 166.344 166.425 166.456C166.691 166.563 166.979 166.616 167.289 166.616C167.587 166.616 167.857 166.56 168.097 166.448C168.337 166.336 168.539 166.165 168.705 165.936C168.875 165.707 169.006 165.419 169.097 165.072C169.187 164.72 169.233 164.307 169.233 163.832C169.233 163.352 169.193 162.947 169.113 162.616C169.038 162.28 168.929 162.008 168.785 161.8C168.641 161.592 168.465 161.44 168.257 161.344C168.054 161.248 167.822 161.2 167.561 161.2ZM176.214 159.664C176.731 159.664 177.206 159.747 177.638 159.912C178.075 160.077 178.451 160.32 178.766 160.64C179.08 160.955 179.326 161.344 179.502 161.808C179.678 162.267 179.766 162.792 179.766 163.384C179.766 163.533 179.758 163.659 179.742 163.76C179.731 163.856 179.707 163.933 179.67 163.992C179.638 164.045 179.592 164.085 179.534 164.112C179.475 164.133 179.4 164.144 179.31 164.144H174.238C174.296 164.987 174.523 165.605 174.918 166C175.312 166.395 175.835 166.592 176.486 166.592C176.806 166.592 177.08 166.555 177.31 166.48C177.544 166.405 177.747 166.323 177.918 166.232C178.094 166.141 178.246 166.059 178.374 165.984C178.507 165.909 178.635 165.872 178.758 165.872C178.838 165.872 178.907 165.888 178.966 165.92C179.024 165.952 179.075 165.997 179.118 166.056L179.694 166.776C179.475 167.032 179.23 167.248 178.958 167.424C178.686 167.595 178.4 167.733 178.102 167.84C177.808 167.941 177.507 168.013 177.198 168.056C176.894 168.099 176.598 168.12 176.31 168.12C175.739 168.12 175.208 168.027 174.718 167.84C174.227 167.648 173.8 167.368 173.438 167C173.075 166.627 172.79 166.168 172.582 165.624C172.374 165.075 172.27 164.44 172.27 163.72C172.27 163.16 172.36 162.635 172.542 162.144C172.723 161.648 172.982 161.219 173.318 160.856C173.659 160.488 174.072 160.197 174.558 159.984C175.048 159.771 175.6 159.664 176.214 159.664ZM176.254 161.08C175.678 161.08 175.227 161.243 174.902 161.568C174.576 161.893 174.368 162.355 174.278 162.952H177.99C177.99 162.696 177.955 162.456 177.886 162.232C177.816 162.003 177.71 161.803 177.566 161.632C177.422 161.461 177.24 161.328 177.022 161.232C176.803 161.131 176.547 161.08 176.254 161.08ZM181.368 168V159.792H182.529C182.731 159.792 182.873 159.829 182.953 159.904C183.033 159.979 183.086 160.107 183.113 160.288L183.233 161.28C183.526 160.773 183.87 160.373 184.265 160.08C184.659 159.787 185.102 159.64 185.593 159.64C185.998 159.64 186.334 159.733 186.601 159.92L186.345 161.4C186.329 161.496 186.294 161.565 186.241 161.608C186.187 161.645 186.115 161.664 186.025 161.664C185.945 161.664 185.835 161.645 185.697 161.608C185.558 161.571 185.374 161.552 185.145 161.552C184.734 161.552 184.382 161.667 184.089 161.896C183.795 162.12 183.547 162.451 183.345 162.888V168H181.368ZM192.772 161.392C192.718 161.477 192.662 161.539 192.604 161.576C192.545 161.608 192.47 161.624 192.38 161.624C192.284 161.624 192.18 161.597 192.068 161.544C191.961 161.491 191.836 161.432 191.692 161.368C191.548 161.299 191.382 161.237 191.196 161.184C191.014 161.131 190.798 161.104 190.548 161.104C190.158 161.104 189.852 161.187 189.628 161.352C189.404 161.517 189.292 161.733 189.292 162C189.292 162.176 189.348 162.325 189.46 162.448C189.577 162.565 189.729 162.669 189.916 162.76C190.108 162.851 190.324 162.933 190.564 163.008C190.804 163.077 191.049 163.155 191.3 163.24C191.55 163.325 191.796 163.424 192.036 163.536C192.276 163.643 192.489 163.781 192.676 163.952C192.868 164.117 193.02 164.317 193.132 164.552C193.249 164.787 193.308 165.069 193.308 165.4C193.308 165.795 193.236 166.16 193.092 166.496C192.948 166.827 192.737 167.115 192.46 167.36C192.182 167.6 191.838 167.789 191.428 167.928C191.022 168.061 190.556 168.128 190.028 168.128C189.745 168.128 189.468 168.101 189.196 168.048C188.929 168 188.67 167.931 188.42 167.84C188.174 167.749 187.945 167.643 187.732 167.52C187.524 167.397 187.34 167.264 187.18 167.12L187.636 166.368C187.694 166.277 187.764 166.208 187.844 166.16C187.924 166.112 188.025 166.088 188.148 166.088C188.27 166.088 188.385 166.123 188.492 166.192C188.604 166.261 188.732 166.336 188.876 166.416C189.02 166.496 189.188 166.571 189.38 166.64C189.577 166.709 189.825 166.744 190.124 166.744C190.358 166.744 190.558 166.717 190.724 166.664C190.894 166.605 191.033 166.531 191.14 166.44C191.252 166.349 191.332 166.245 191.38 166.128C191.433 166.005 191.46 165.88 191.46 165.752C191.46 165.56 191.401 165.403 191.284 165.28C191.172 165.157 191.02 165.051 190.828 164.96C190.641 164.869 190.425 164.789 190.18 164.72C189.94 164.645 189.692 164.565 189.436 164.48C189.185 164.395 188.937 164.296 188.692 164.184C188.452 164.067 188.236 163.92 188.044 163.744C187.857 163.568 187.705 163.352 187.588 163.096C187.476 162.84 187.42 162.531 187.42 162.168C187.42 161.832 187.486 161.512 187.62 161.208C187.753 160.904 187.948 160.64 188.204 160.416C188.465 160.187 188.788 160.005 189.172 159.872C189.561 159.733 190.009 159.664 190.516 159.664C191.081 159.664 191.596 159.757 192.06 159.944C192.524 160.131 192.91 160.376 193.22 160.68L192.772 161.392Z" fill="#111111"/>
<path d="M20 210L355 210" stroke="#5B5B5B"/>
<path d="M27.399 190.969V192.075H22.583V195.407H26.482V196.471H22.583V199.894H27.399V201H21.218V190.969H27.399ZM29.1568 201V193.909H29.8988C30.0761 193.909 30.1881 193.995 30.2348 194.168L30.3328 194.938C30.6408 194.597 30.9838 194.322 31.3618 194.112C31.7444 193.902 32.1854 193.797 32.6848 193.797C33.0721 193.797 33.4128 193.862 33.7068 193.993C34.0054 194.119 34.2528 194.301 34.4488 194.539C34.6494 194.772 34.8011 195.055 34.9038 195.386C35.0064 195.717 35.0578 196.084 35.0578 196.485V201H33.8118V196.485C33.8118 195.948 33.6881 195.533 33.4408 195.239C33.1981 194.94 32.8248 194.791 32.3208 194.791C31.9521 194.791 31.6068 194.88 31.2848 195.057C30.9674 195.234 30.6734 195.475 30.4028 195.778V201H29.1568ZM39.0851 201.112C38.5251 201.112 38.0934 200.956 37.7901 200.643C37.4914 200.33 37.3421 199.88 37.3421 199.292V194.952H36.4881C36.4134 194.952 36.3504 194.931 36.2991 194.889C36.2477 194.842 36.2221 194.772 36.2221 194.679V194.182L37.3841 194.035L37.6711 191.844C37.6804 191.774 37.7107 191.718 37.7621 191.676C37.8134 191.629 37.8787 191.606 37.9581 191.606H38.5881V194.049H40.6181V194.952H38.5881V199.208C38.5881 199.507 38.6604 199.728 38.8051 199.873C38.9497 200.018 39.1364 200.09 39.3651 200.09C39.4957 200.09 39.6077 200.074 39.7011 200.041C39.7991 200.004 39.8831 199.964 39.9531 199.922C40.0231 199.88 40.0814 199.843 40.1281 199.81C40.1794 199.773 40.2237 199.754 40.2611 199.754C40.3264 199.754 40.3847 199.794 40.4361 199.873L40.8001 200.468C40.5854 200.669 40.3264 200.827 40.0231 200.944C39.7197 201.056 39.4071 201.112 39.0851 201.112ZM44.9657 193.797C45.3904 193.797 45.7824 193.869 46.1417 194.014C46.5011 194.154 46.8114 194.359 47.0727 194.63C47.3341 194.896 47.5371 195.227 47.6817 195.624C47.8311 196.016 47.9057 196.464 47.9057 196.968C47.9057 197.164 47.8847 197.295 47.8427 197.36C47.8007 197.425 47.7214 197.458 47.6047 197.458H42.8867C42.8961 197.906 42.9567 198.296 43.0687 198.627C43.1807 198.958 43.3347 199.236 43.5307 199.46C43.7267 199.679 43.9601 199.845 44.2307 199.957C44.5014 200.064 44.8047 200.118 45.1407 200.118C45.4534 200.118 45.7217 200.083 45.9457 200.013C46.1744 199.938 46.3704 199.859 46.5337 199.775C46.6971 199.691 46.8324 199.614 46.9397 199.544C47.0517 199.469 47.1474 199.432 47.2267 199.432C47.3294 199.432 47.4087 199.472 47.4647 199.551L47.8147 200.006C47.6607 200.193 47.4764 200.356 47.2617 200.496C47.0471 200.631 46.8161 200.743 46.5687 200.832C46.3261 200.921 46.0741 200.986 45.8127 201.028C45.5514 201.075 45.2924 201.098 45.0357 201.098C44.5457 201.098 44.0931 201.016 43.6777 200.853C43.2671 200.685 42.9101 200.442 42.6067 200.125C42.3081 199.803 42.0747 199.406 41.9067 198.935C41.7387 198.464 41.6547 197.922 41.6547 197.311C41.6547 196.816 41.7294 196.354 41.8787 195.925C42.0327 195.496 42.2521 195.125 42.5367 194.812C42.8214 194.495 43.1691 194.247 43.5797 194.07C43.9904 193.888 44.4524 193.797 44.9657 193.797ZM44.9937 194.714C44.3917 194.714 43.9181 194.889 43.5727 195.239C43.2274 195.584 43.0127 196.065 42.9287 196.681H46.7857C46.7857 196.392 46.7461 196.128 46.6667 195.89C46.5874 195.647 46.4707 195.44 46.3167 195.267C46.1627 195.09 45.9737 194.954 45.7497 194.861C45.5304 194.763 45.2784 194.714 44.9937 194.714ZM49.5005 201V193.909H50.2145C50.3498 193.909 50.4432 193.935 50.4945 193.986C50.5458 194.037 50.5808 194.126 50.5995 194.252L50.6835 195.358C50.9262 194.863 51.2248 194.478 51.5795 194.203C51.9388 193.923 52.3588 193.783 52.8395 193.783C53.0355 193.783 53.2128 193.806 53.3715 193.853C53.5302 193.895 53.6772 193.956 53.8125 194.035L53.6515 194.966C53.6188 195.083 53.5465 195.141 53.4345 195.141C53.3692 195.141 53.2688 195.12 53.1335 195.078C52.9982 195.031 52.8092 195.008 52.5665 195.008C52.1325 195.008 51.7685 195.134 51.4745 195.386C51.1852 195.638 50.9425 196.004 50.7465 196.485V201H49.5005ZM66.184 201H64.819V196.436H59.415V201H58.05V190.969H59.415V195.442H64.819V190.969H66.184V201ZM71.2431 193.797C71.6677 193.797 72.0597 193.869 72.4191 194.014C72.7784 194.154 73.0887 194.359 73.3501 194.63C73.6114 194.896 73.8144 195.227 73.9591 195.624C74.1084 196.016 74.1831 196.464 74.1831 196.968C74.1831 197.164 74.1621 197.295 74.1201 197.36C74.0781 197.425 73.9987 197.458 73.8821 197.458H69.1641C69.1734 197.906 69.2341 198.296 69.3461 198.627C69.4581 198.958 69.6121 199.236 69.8081 199.46C70.0041 199.679 70.2374 199.845 70.5081 199.957C70.7787 200.064 71.0821 200.118 71.4181 200.118C71.7307 200.118 71.9991 200.083 72.2231 200.013C72.4517 199.938 72.6477 199.859 72.8111 199.775C72.9744 199.691 73.1097 199.614 73.2171 199.544C73.3291 199.469 73.4247 199.432 73.5041 199.432C73.6067 199.432 73.6861 199.472 73.7421 199.551L74.0921 200.006C73.9381 200.193 73.7537 200.356 73.5391 200.496C73.3244 200.631 73.0934 200.743 72.8461 200.832C72.6034 200.921 72.3514 200.986 72.0901 201.028C71.8287 201.075 71.5697 201.098 71.3131 201.098C70.8231 201.098 70.3704 201.016 69.9551 200.853C69.5444 200.685 69.1874 200.442 68.8841 200.125C68.5854 199.803 68.3521 199.406 68.1841 198.935C68.0161 198.464 67.9321 197.922 67.9321 197.311C67.9321 196.816 68.0067 196.354 68.1561 195.925C68.3101 195.496 68.5294 195.125 68.8141 194.812C69.0987 194.495 69.4464 194.247 69.8571 194.07C70.2677 193.888 70.7297 193.797 71.2431 193.797ZM71.2711 194.714C70.6691 194.714 70.1954 194.889 69.8501 195.239C69.5047 195.584 69.2901 196.065 69.2061 196.681H73.0631C73.0631 196.392 73.0234 196.128 72.9441 195.89C72.8647 195.647 72.7481 195.44 72.5941 195.267C72.4401 195.09 72.2511 194.954 72.0271 194.861C71.8077 194.763 71.5557 194.714 71.2711 194.714ZM75.7779 201V193.909H76.4919C76.6272 193.909 76.7205 193.935 76.7719 193.986C76.8232 194.037 76.8582 194.126 76.8769 194.252L76.9609 195.358C77.2035 194.863 77.5022 194.478 77.8569 194.203C78.2162 193.923 78.6362 193.783 79.1169 193.783C79.3129 193.783 79.4902 193.806 79.6489 193.853C79.8075 193.895 79.9545 193.956 80.0899 194.035L79.9289 194.966C79.8962 195.083 79.8239 195.141 79.7119 195.141C79.6465 195.141 79.5462 195.12 79.4109 195.078C79.2755 195.031 79.0865 195.008 78.8439 195.008C78.4099 195.008 78.0459 195.134 77.7519 195.386C77.4625 195.638 77.2199 196.004 77.0239 196.485V201H75.7779ZM84.2313 193.797C84.656 193.797 85.048 193.869 85.4073 194.014C85.7667 194.154 86.077 194.359 86.3383 194.63C86.5997 194.896 86.8027 195.227 86.9473 195.624C87.0967 196.016 87.1713 196.464 87.1713 196.968C87.1713 197.164 87.1503 197.295 87.1083 197.36C87.0663 197.425 86.987 197.458 86.8703 197.458H82.1523C82.1617 197.906 82.2223 198.296 82.3343 198.627C82.4463 198.958 82.6003 199.236 82.7963 199.46C82.9923 199.679 83.2257 199.845 83.4963 199.957C83.767 200.064 84.0703 200.118 84.4063 200.118C84.719 200.118 84.9873 200.083 85.2113 200.013C85.44 199.938 85.636 199.859 85.7993 199.775C85.9627 199.691 86.098 199.614 86.2053 199.544C86.3173 199.469 86.413 199.432 86.4923 199.432C86.595 199.432 86.6743 199.472 86.7303 199.551L87.0803 200.006C86.9263 200.193 86.742 200.356 86.5273 200.496C86.3127 200.631 86.0817 200.743 85.8343 200.832C85.5917 200.921 85.3397 200.986 85.0783 201.028C84.817 201.075 84.558 201.098 84.3013 201.098C83.8113 201.098 83.3587 201.016 82.9433 200.853C82.5327 200.685 82.1757 200.442 81.8723 200.125C81.5737 199.803 81.3403 199.406 81.1723 198.935C81.0043 198.464 80.9203 197.922 80.9203 197.311C80.9203 196.816 80.995 196.354 81.1443 195.925C81.2983 195.496 81.5177 195.125 81.8023 194.812C82.087 194.495 82.4347 194.247 82.8453 194.07C83.256 193.888 83.718 193.797 84.2313 193.797ZM84.2593 194.714C83.6573 194.714 83.1837 194.889 82.8383 195.239C82.493 195.584 82.2783 196.065 82.1943 196.681H86.0513C86.0513 196.392 86.0117 196.128 85.9323 195.89C85.853 195.647 85.7363 195.44 85.5823 195.267C85.4283 195.09 85.2393 194.954 85.0153 194.861C84.796 194.763 84.544 194.714 84.2593 194.714Z" fill="#5B5B5B"/>
<path d="M92.5 0.00357724H292.5C292.5 0.00357724 290 -0.516816 289.773 10.9956C289.545 22.9868 284.075 27.9832 277.045 27.9832H107.955C100.925 27.9832 95.4545 22.9868 95.2273 10.9956C95 -0.516815 92.5 0.00357724 92.5 0.00357724Z" fill="#F0F0F0"/>
<g opacity="0.1">
<path fill-rule="evenodd" clip-rule="evenodd" d="M337.47 13H350.833C351.4 13 351.943 13.2251 352.344 13.6259C352.745 14.0267 352.97 14.5702 352.97 15.137V19.946C352.97 20.5128 352.745 21.0563 352.344 21.4571C351.943 21.8579 351.4 22.083 350.833 22.083H337.47C336.903 22.083 336.36 21.8579 335.959 21.4571C335.558 21.0563 335.333 20.5128 335.333 19.946V15.137C335.333 14.5702 335.558 14.0267 335.959 13.6259C336.36 13.2251 336.903 13 337.47 13Z" fill="#111111"/>
</g>
<path d="M354 16V19C354.296 18.8759 354.549 18.6677 354.727 18.4014C354.904 18.1351 355 17.8226 355 17.5028C355.001 17.1821 354.906 16.8683 354.728 16.6009C354.55 16.3336 354.297 16.1245 354 16" fill="#111111"/>
<path d="M338.005 14.603H350.295C350.579 14.603 350.851 14.7157 351.051 14.9161C351.252 15.1166 351.364 15.3885 351.364 15.672V19.412C351.364 19.6955 351.252 19.9674 351.051 20.1679C350.851 20.3684 350.579 20.481 350.295 20.481H338.005C337.722 20.481 337.45 20.3684 337.249 20.1679C337.049 19.9674 336.936 19.6955 336.936 19.412V15.67C336.937 15.3869 337.05 15.1155 337.25 14.9154C337.45 14.7154 337.722 14.603 338.005 14.603V14.603Z" fill="#111111"/>
<path d="M324.774 14.8221C326.55 14.8221 328.258 15.5045 329.545 16.7281C329.591 16.7737 329.654 16.7993 329.719 16.7993C329.784 16.7993 329.846 16.7737 329.892 16.7281L330.819 15.7931C330.843 15.769 330.862 15.7404 330.875 15.709C330.888 15.6776 330.894 15.644 330.894 15.6101C330.894 15.5761 330.887 15.5426 330.874 15.5114C330.86 15.4802 330.841 15.4518 330.817 15.4281C329.191 13.8699 327.026 13 324.774 13C322.522 13 320.357 13.8699 318.731 15.4281C318.707 15.4518 318.688 15.4802 318.674 15.5114C318.661 15.5426 318.654 15.5761 318.654 15.6101C318.654 15.644 318.66 15.6776 318.673 15.709C318.686 15.7404 318.705 15.769 318.729 15.7931L319.656 16.7281C319.702 16.7737 319.765 16.7993 319.83 16.7993C319.895 16.7993 319.957 16.7737 320.003 16.7281C321.29 15.5042 322.999 14.8219 324.775 14.8221H324.774ZM324.774 17.8641C325.75 17.8641 326.691 18.227 327.414 18.8821C327.461 18.9272 327.523 18.9525 327.588 18.9525C327.652 18.9525 327.715 18.9272 327.761 18.8821L328.686 17.9471C328.71 17.9227 328.729 17.8939 328.742 17.8621C328.755 17.8303 328.761 17.7963 328.761 17.7621C328.761 17.7278 328.753 17.694 328.74 17.6626C328.726 17.6312 328.707 17.6028 328.682 17.5791C327.62 16.5915 326.224 16.0425 324.774 16.0425C323.324 16.0425 321.928 16.5915 320.866 17.5791C320.841 17.6028 320.822 17.6312 320.808 17.6626C320.795 17.694 320.787 17.7278 320.787 17.7621C320.787 17.7963 320.793 17.8303 320.806 17.8621C320.819 17.8939 320.838 17.9227 320.862 17.9471L321.787 18.8821C321.834 18.9272 321.896 18.9525 321.961 18.9525C322.025 18.9525 322.088 18.9272 322.134 18.8821C322.857 18.2274 323.797 17.8646 324.772 17.8641H324.774ZM326.553 20.0961C326.578 20.072 326.597 20.0432 326.61 20.0113C326.623 19.9795 326.629 19.9454 326.628 19.9111C326.627 19.8767 326.62 19.8428 326.605 19.8115C326.591 19.7802 326.571 19.7521 326.545 19.7291C326.05 19.3102 325.423 19.0804 324.774 19.0804C324.126 19.0804 323.498 19.3102 323.003 19.7291C322.978 19.752 322.957 19.7798 322.943 19.811C322.929 19.8421 322.921 19.8758 322.92 19.9101C322.919 19.9444 322.925 19.9785 322.938 20.0103C322.951 20.0422 322.971 20.071 322.995 20.0951L324.595 21.7111C324.618 21.7346 324.646 21.7532 324.677 21.7659C324.707 21.7786 324.74 21.7851 324.773 21.7851C324.806 21.7851 324.839 21.7786 324.869 21.7659C324.9 21.7532 324.928 21.7346 324.951 21.7111L326.553 20.0961Z" fill="#111111"/>
<path d="M23.294 18.472C22.97 18.472 22.662 18.418 22.37 18.31C22.082 18.202 21.828 18.044 21.608 17.836C21.388 17.624 21.212 17.366 21.08 17.062C20.952 16.754 20.888 16.402 20.888 16.006C20.888 15.63 20.958 15.278 21.098 14.95C21.238 14.622 21.434 14.336 21.686 14.092C21.938 13.848 22.238 13.656 22.586 13.516C22.934 13.376 23.316 13.306 23.732 13.306C24.144 13.306 24.518 13.374 24.854 13.51C25.19 13.646 25.478 13.836 25.718 14.08C25.958 14.324 26.142 14.616 26.27 14.956C26.402 15.296 26.468 15.672 26.468 16.084C26.468 16.332 26.444 16.568 26.396 16.792C26.352 17.012 26.286 17.228 26.198 17.44C26.11 17.652 26.004 17.864 25.88 18.076C25.76 18.284 25.622 18.5 25.466 18.724L23.372 21.748C23.32 21.824 23.246 21.886 23.15 21.934C23.054 21.978 22.944 22 22.82 22H21.836L24.452 18.574C24.54 18.458 24.622 18.348 24.698 18.244C24.774 18.14 24.846 18.036 24.914 17.932C24.694 18.108 24.446 18.242 24.17 18.334C23.894 18.426 23.602 18.472 23.294 18.472ZM25.442 15.958C25.442 15.69 25.398 15.448 25.31 15.232C25.226 15.012 25.108 14.826 24.956 14.674C24.804 14.522 24.622 14.406 24.41 14.326C24.202 14.242 23.972 14.2 23.72 14.2C23.456 14.2 23.214 14.244 22.994 14.332C22.778 14.416 22.592 14.534 22.436 14.686C22.284 14.838 22.166 15.02 22.082 15.232C21.998 15.444 21.956 15.676 21.956 15.928C21.956 16.2 21.994 16.444 22.07 16.66C22.15 16.872 22.262 17.052 22.406 17.2C22.554 17.348 22.732 17.46 22.94 17.536C23.152 17.612 23.388 17.65 23.648 17.65C23.936 17.65 24.19 17.604 24.41 17.512C24.634 17.416 24.822 17.29 24.974 17.134C25.126 16.978 25.242 16.798 25.322 16.594C25.402 16.39 25.442 16.178 25.442 15.958ZM27.7289 21.34C27.7289 21.236 27.7469 21.138 27.7829 21.046C27.8229 20.954 27.8749 20.874 27.9389 20.806C28.0069 20.738 28.0869 20.684 28.1789 20.644C28.2709 20.604 28.3689 20.584 28.4729 20.584C28.5769 20.584 28.6749 20.604 28.7669 20.644C28.8589 20.684 28.9389 20.738 29.0069 20.806C29.0749 20.874 29.1269 20.954 29.1629 21.046C29.2029 21.138 29.2229 21.236 29.2229 21.34C29.2229 21.448 29.2029 21.548 29.1629 21.64C29.1269 21.728 29.0749 21.806 29.0069 21.874C28.9389 21.942 28.8589 21.994 28.7669 22.03C28.6749 22.07 28.5769 22.09 28.4729 22.09C28.3689 22.09 28.2709 22.07 28.1789 22.03C28.0869 21.994 28.0069 21.942 27.9389 21.874C27.8749 21.806 27.8229 21.728 27.7829 21.64C27.7469 21.548 27.7289 21.448 27.7289 21.34ZM27.7289 16.84C27.7289 16.736 27.7469 16.638 27.7829 16.546C27.8229 16.454 27.8749 16.374 27.9389 16.306C28.0069 16.238 28.0869 16.184 28.1789 16.144C28.2709 16.104 28.3689 16.084 28.4729 16.084C28.5769 16.084 28.6749 16.104 28.7669 16.144C28.8589 16.184 28.9389 16.238 29.0069 16.306C29.0749 16.374 29.1269 16.454 29.1629 16.546C29.2029 16.638 29.2229 16.736 29.2229 16.84C29.2229 16.948 29.2029 17.048 29.1629 17.14C29.1269 17.228 29.0749 17.306 29.0069 17.374C28.9389 17.442 28.8589 17.496 28.7669 17.536C28.6749 17.572 28.5769 17.59 28.4729 17.59C28.3689 17.59 28.2709 17.572 28.1789 17.536C28.0869 17.496 28.0069 17.442 27.9389 17.374C27.8749 17.306 27.8229 17.228 27.7829 17.14C27.7469 17.048 27.7289 16.948 27.7289 16.84ZM35.4024 18.898H36.7044V19.51C36.7044 19.574 36.6844 19.628 36.6444 19.672C36.6084 19.716 36.5504 19.738 36.4704 19.738H35.4024V22H34.4604V19.738H30.6504C30.5704 19.738 30.5004 19.716 30.4404 19.672C30.3844 19.624 30.3484 19.566 30.3324 19.498L30.2244 18.952L34.4064 13.402H35.4024V18.898ZM34.4604 15.352C34.4604 15.248 34.4624 15.136 34.4664 15.016C34.4744 14.896 34.4884 14.772 34.5084 14.644L31.3824 18.898H34.4604V15.352ZM38.6673 21.184H40.5153V15.322C40.5153 15.146 40.5213 14.968 40.5333 14.788L38.9973 16.102C38.9573 16.134 38.9173 16.158 38.8773 16.174C38.8373 16.186 38.7993 16.192 38.7633 16.192C38.7033 16.192 38.6493 16.18 38.6013 16.156C38.5533 16.128 38.5173 16.096 38.4933 16.06L38.1573 15.598L40.7133 13.384H41.5833V21.184H43.2753V22H38.6673V21.184Z" fill="#111111"/>
<path d="M301.8 18.34H302.6C302.812 18.34 303.016 18.4243 303.166 18.5743C303.316 18.7243 303.4 18.9278 303.4 19.14V20.74C303.4 20.9522 303.316 21.1557 303.166 21.3057C303.016 21.4557 302.812 21.54 302.6 21.54H301.8C301.588 21.54 301.384 21.4557 301.234 21.3057C301.084 21.1557 301 20.9522 301 20.74V19.14C301 18.9278 301.084 18.7243 301.234 18.5743C301.384 18.4243 301.588 18.34 301.8 18.34V18.34ZM305.54 16.74H306.34C306.552 16.74 306.756 16.8243 306.906 16.9743C307.056 17.1243 307.14 17.3278 307.14 17.54V20.746C307.14 20.8511 307.119 20.9551 307.079 21.0521C307.039 21.1492 306.98 21.2374 306.906 21.3117C306.831 21.386 306.743 21.4449 306.646 21.4851C306.549 21.5253 306.445 21.546 306.34 21.546H305.54C305.435 21.546 305.331 21.5253 305.234 21.4851C305.137 21.4449 305.049 21.386 304.974 21.3117C304.9 21.2374 304.841 21.1492 304.801 21.0521C304.761 20.9551 304.74 20.8511 304.74 20.746V17.54C304.74 17.4347 304.76 17.3303 304.8 17.2329C304.84 17.1355 304.899 17.047 304.973 16.9724C305.048 16.8978 305.136 16.8386 305.233 16.7982C305.33 16.7578 305.435 16.737 305.54 16.737V16.74ZM309.28 14.87H310.08C310.185 14.87 310.289 14.8907 310.386 14.9309C310.483 14.9711 310.571 15.03 310.646 15.1043C310.72 15.1786 310.779 15.2668 310.819 15.3639C310.859 15.4609 310.88 15.5649 310.88 15.67V20.746C310.88 20.8511 310.859 20.9551 310.819 21.0521C310.779 21.1492 310.72 21.2374 310.646 21.3117C310.571 21.386 310.483 21.4449 310.386 21.4851C310.289 21.5253 310.185 21.546 310.08 21.546H309.28C309.175 21.546 309.071 21.5253 308.974 21.4851C308.877 21.4449 308.789 21.386 308.714 21.3117C308.64 21.2374 308.581 21.1492 308.541 21.0521C308.501 20.9551 308.48 20.8511 308.48 20.746V15.67C308.48 15.5646 308.5 15.4602 308.54 15.3627C308.58 15.2652 308.639 15.1766 308.714 15.102C308.788 15.0274 308.876 14.9682 308.974 14.9279C309.071 14.8876 309.176 14.8669 309.281 14.867L309.28 14.87ZM313.02 13H313.82C314.032 13 314.236 13.0843 314.386 13.2343C314.536 13.3843 314.62 13.5878 314.62 13.8V20.746C314.62 20.9582 314.536 21.1617 314.386 21.3117C314.236 21.4617 314.032 21.546 313.82 21.546H313.02C312.915 21.546 312.811 21.5253 312.714 21.4851C312.617 21.4449 312.529 21.386 312.454 21.3117C312.38 21.2374 312.321 21.1492 312.281 21.0521C312.241 20.9551 312.22 20.8511 312.22 20.746V13.8C312.22 13.6949 312.241 13.5909 312.281 13.4939C312.321 13.3968 312.38 13.3086 312.454 13.2343C312.529 13.16 312.617 13.1011 312.714 13.0609C312.811 13.0207 312.915 13 313.02 13V13Z" fill="#111111"/>
<rect x="32" y="689" width="312" height="60" rx="30" fill="black"/>
<path d="M169.938 712.54C170.058 712.54 170.158 712.547 170.238 712.56C170.318 712.567 170.388 712.587 170.448 712.62C170.515 712.647 170.578 712.69 170.638 712.75C170.698 712.803 170.765 712.877 170.838 712.97L178.428 722.64C178.402 722.407 178.382 722.18 178.368 721.96C178.362 721.733 178.358 721.523 178.358 721.33V712.54H180.728V727H179.338C179.125 727 178.948 726.967 178.808 726.9C178.668 726.833 178.532 726.713 178.398 726.54L170.838 716.91C170.858 717.123 170.872 717.337 170.878 717.55C170.892 717.757 170.898 717.947 170.898 718.12V727H168.528V712.54H169.938ZM187.746 716.58C188.392 716.58 188.986 716.683 189.526 716.89C190.072 717.097 190.542 717.4 190.936 717.8C191.329 718.193 191.636 718.68 191.856 719.26C192.076 719.833 192.186 720.49 192.186 721.23C192.186 721.417 192.176 721.573 192.156 721.7C192.142 721.82 192.112 721.917 192.066 721.99C192.026 722.057 191.969 722.107 191.896 722.14C191.822 722.167 191.729 722.18 191.616 722.18H185.276C185.349 723.233 185.632 724.007 186.126 724.5C186.619 724.993 187.272 725.24 188.086 725.24C188.486 725.24 188.829 725.193 189.116 725.1C189.409 725.007 189.662 724.903 189.876 724.79C190.096 724.677 190.286 724.573 190.446 724.48C190.612 724.387 190.772 724.34 190.926 724.34C191.026 724.34 191.112 724.36 191.186 724.4C191.259 724.44 191.322 724.497 191.376 724.57L192.096 725.47C191.822 725.79 191.516 726.06 191.176 726.28C190.836 726.493 190.479 726.667 190.106 726.8C189.739 726.927 189.362 727.017 188.976 727.07C188.596 727.123 188.226 727.15 187.866 727.15C187.152 727.15 186.489 727.033 185.876 726.8C185.262 726.56 184.729 726.21 184.276 725.75C183.822 725.283 183.466 724.71 183.206 724.03C182.946 723.343 182.816 722.55 182.816 721.65C182.816 720.95 182.929 720.293 183.156 719.68C183.382 719.06 183.706 718.523 184.126 718.07C184.552 717.61 185.069 717.247 185.676 716.98C186.289 716.713 186.979 716.58 187.746 716.58ZM187.796 718.35C187.076 718.35 186.512 718.553 186.106 718.96C185.699 719.367 185.439 719.943 185.326 720.69H189.966C189.966 720.37 189.922 720.07 189.836 719.79C189.749 719.503 189.616 719.253 189.436 719.04C189.256 718.827 189.029 718.66 188.756 718.54C188.482 718.413 188.162 718.35 187.796 718.35ZM196.014 721.71L192.644 716.74H195.024C195.204 716.74 195.337 716.767 195.424 716.82C195.51 716.867 195.587 716.947 195.654 717.06L197.804 720.49C197.837 720.377 197.877 720.263 197.924 720.15C197.977 720.037 198.04 719.923 198.114 719.81L199.844 717.11C199.924 716.983 200.007 716.89 200.094 716.83C200.18 716.77 200.287 716.74 200.414 716.74H202.684L199.304 721.6L202.824 727H200.444C200.264 727 200.117 726.953 200.004 726.86C199.897 726.767 199.807 726.66 199.734 726.54L197.554 722.97C197.494 723.21 197.41 723.41 197.304 723.57L195.384 726.54C195.31 726.653 195.22 726.76 195.114 726.86C195.007 726.953 194.874 727 194.714 727H192.504L196.014 721.71ZM207.754 727.16C206.868 727.16 206.184 726.91 205.704 726.41C205.224 725.903 204.984 725.207 204.984 724.32V718.59H203.944C203.811 718.59 203.694 718.547 203.594 718.46C203.501 718.373 203.454 718.243 203.454 718.07V717.09L205.104 716.82L205.624 714.02C205.651 713.887 205.711 713.783 205.804 713.71C205.904 713.637 206.028 713.6 206.174 713.6H207.454V716.83H210.154V718.59H207.454V724.15C207.454 724.47 207.534 724.72 207.694 724.9C207.854 725.08 208.068 725.17 208.334 725.17C208.488 725.17 208.614 725.153 208.714 725.12C208.821 725.08 208.911 725.04 208.984 725C209.064 724.96 209.134 724.923 209.194 724.89C209.254 724.85 209.314 724.83 209.374 724.83C209.448 724.83 209.508 724.85 209.554 724.89C209.601 724.923 209.651 724.977 209.704 725.05L210.444 726.25C210.084 726.55 209.671 726.777 209.204 726.93C208.738 727.083 208.254 727.16 207.754 727.16Z" fill="white"/>
<circle opacity="0.1" cx="311.5" cy="719.5" r="22.5" fill="white"/>
<path d="M312.793 713.179C312.527 712.932 312.104 712.942 311.851 713.202C311.597 713.462 311.607 713.873 311.874 714.121L316.988 718.85H303.667C303.299 718.85 303 719.141 303 719.5C303 719.859 303.299 720.15 303.667 720.15H316.966L311.874 724.879C311.607 725.127 311.597 725.538 311.851 725.798C311.982 725.932 312.157 726 312.333 726C312.499 726 312.664 725.941 312.793 725.821L318.609 720.419C318.861 720.174 319 719.847 319 719.5C319 719.152 318.861 718.826 318.598 718.57L312.793 713.179Z" fill="white"/>
</g>
<defs>
<filter id="filter0_d_218_40017" x="-30" y="87" width="435" height="750" filterUnits="userSpaceOnUse" color-interpolation-filters="sRGB">
<feFlood flood-opacity="0" result="BackgroundImageFix"/>
<feColorMatrix in="SourceAlpha" type="matrix" values="0 0 0 0 0 0 0 0 0 0 0 0 0 0 0 0 0 0 127 0" result="hardAlpha"/>
<feOffset dy="-5"/>
<feGaussianBlur stdDeviation="15"/>
<feColorMatrix type="matrix" values="0 0 0 0 0 0 0 0 0 0 0 0 0 0 0 0 0 0 0.1 0"/>
<feBlend mode="normal" in2="BackgroundImageFix" result="effect1_dropShadow_218_40017"/>
<feBlend mode="normal" in="SourceGraphic" in2="effect1_dropShadow_218_40017" result="shape"/>
</filter>
<clipPath id="clip0_218_40017">
<rect width="375" height="812" fill="white"/>
</clipPath>
</defs>
</svg>
