<svg width="375" height="812" viewBox="0 0 375 812" fill="none" xmlns="http://www.w3.org/2000/svg">
<g clip-path="url(#clip0_218_29684)">
<rect width="375" height="812" fill="white"/>
<rect x="139.164" y="785.692" width="95.674" height="6.30817" rx="3.15409" fill="#E7E7E7"/>
<path d="M102.975 387.54C103.095 387.54 103.195 387.547 103.275 387.56C103.355 387.567 103.425 387.587 103.485 387.62C103.552 387.647 103.615 387.69 103.675 387.75C103.735 387.803 103.802 387.877 103.875 387.97L111.465 397.64C111.439 397.407 111.419 397.18 111.405 396.96C111.399 396.733 111.395 396.523 111.395 396.33V387.54H113.765V402H112.375C112.162 402 111.985 401.967 111.845 401.9C111.705 401.833 111.569 401.713 111.435 401.54L103.875 391.91C103.895 392.123 103.909 392.337 103.915 392.55C103.929 392.757 103.935 392.947 103.935 393.12V402H101.565V387.54H102.975ZM130.553 394.77C130.553 395.83 130.376 396.813 130.023 397.72C129.669 398.62 129.173 399.4 128.533 400.06C127.893 400.72 127.123 401.237 126.223 401.61C125.323 401.977 124.326 402.16 123.233 402.16C122.139 402.16 121.139 401.977 120.233 401.61C119.333 401.237 118.559 400.72 117.913 400.06C117.273 399.4 116.776 398.62 116.423 397.72C116.069 396.813 115.893 395.83 115.893 394.77C115.893 393.71 116.069 392.73 116.423 391.83C116.776 390.923 117.273 390.14 117.913 389.48C118.559 388.82 119.333 388.307 120.233 387.94C121.139 387.567 122.139 387.38 123.233 387.38C124.326 387.38 125.323 387.567 126.223 387.94C127.123 388.313 127.893 388.83 128.533 389.49C129.173 390.143 129.669 390.923 130.023 391.83C130.376 392.73 130.553 393.71 130.553 394.77ZM127.793 394.77C127.793 393.977 127.686 393.267 127.473 392.64C127.266 392.007 126.966 391.47 126.573 391.03C126.179 390.59 125.699 390.253 125.133 390.02C124.573 389.787 123.939 389.67 123.233 389.67C122.526 389.67 121.889 389.787 121.323 390.02C120.756 390.253 120.273 390.59 119.873 391.03C119.479 391.47 119.176 392.007 118.963 392.64C118.749 393.267 118.643 393.977 118.643 394.77C118.643 395.563 118.749 396.277 118.963 396.91C119.176 397.537 119.479 398.07 119.873 398.51C120.273 398.943 120.756 399.277 121.323 399.51C121.889 399.743 122.526 399.86 123.233 399.86C123.939 399.86 124.573 399.743 125.133 399.51C125.699 399.277 126.179 398.943 126.573 398.51C126.966 398.07 127.266 397.537 127.473 396.91C127.686 396.277 127.793 395.563 127.793 394.77ZM139.326 396.91V402H136.636V387.54H141.346C142.313 387.54 143.149 387.653 143.856 387.88C144.563 388.107 145.146 388.423 145.606 388.83C146.066 389.237 146.406 389.723 146.626 390.29C146.846 390.857 146.956 391.477 146.956 392.15C146.956 392.85 146.839 393.493 146.606 394.08C146.373 394.66 146.023 395.16 145.556 395.58C145.089 396 144.506 396.327 143.806 396.56C143.106 396.793 142.286 396.91 141.346 396.91H139.326ZM139.326 394.81H141.346C141.839 394.81 142.269 394.75 142.636 394.63C143.003 394.503 143.306 394.327 143.546 394.1C143.786 393.867 143.966 393.587 144.086 393.26C144.206 392.927 144.266 392.557 144.266 392.15C144.266 391.763 144.206 391.413 144.086 391.1C143.966 390.787 143.786 390.52 143.546 390.3C143.306 390.08 143.003 389.913 142.636 389.8C142.269 389.68 141.839 389.62 141.346 389.62H139.326V394.81ZM151.826 396.35V402H149.136V387.54H153.546C154.533 387.54 155.376 387.643 156.076 387.85C156.783 388.05 157.359 388.333 157.806 388.7C158.259 389.067 158.589 389.507 158.796 390.02C159.009 390.527 159.116 391.087 159.116 391.7C159.116 392.187 159.043 392.647 158.896 393.08C158.756 393.513 158.549 393.907 158.276 394.26C158.009 394.613 157.676 394.923 157.276 395.19C156.883 395.457 156.433 395.67 155.926 395.83C156.266 396.023 156.559 396.3 156.806 396.66L160.426 402H158.006C157.773 402 157.573 401.953 157.406 401.86C157.246 401.767 157.109 401.633 156.996 401.46L153.956 396.83C153.843 396.657 153.716 396.533 153.576 396.46C153.443 396.387 153.243 396.35 152.976 396.35H151.826ZM151.826 394.42H153.506C154.013 394.42 154.453 394.357 154.826 394.23C155.206 394.103 155.516 393.93 155.756 393.71C156.003 393.483 156.186 393.217 156.306 392.91C156.426 392.603 156.486 392.267 156.486 391.9C156.486 391.167 156.243 390.603 155.756 390.21C155.276 389.817 154.539 389.62 153.546 389.62H151.826V394.42ZM175.533 394.77C175.533 395.83 175.356 396.813 175.003 397.72C174.65 398.62 174.153 399.4 173.513 400.06C172.873 400.72 172.103 401.237 171.203 401.61C170.303 401.977 169.306 402.16 168.213 402.16C167.12 402.16 166.12 401.977 165.213 401.61C164.313 401.237 163.54 400.72 162.893 400.06C162.253 399.4 161.756 398.62 161.403 397.72C161.05 396.813 160.873 395.83 160.873 394.77C160.873 393.71 161.05 392.73 161.403 391.83C161.756 390.923 162.253 390.14 162.893 389.48C163.54 388.82 164.313 388.307 165.213 387.94C166.12 387.567 167.12 387.38 168.213 387.38C169.306 387.38 170.303 387.567 171.203 387.94C172.103 388.313 172.873 388.83 173.513 389.49C174.153 390.143 174.65 390.923 175.003 391.83C175.356 392.73 175.533 393.71 175.533 394.77ZM172.773 394.77C172.773 393.977 172.666 393.267 172.453 392.64C172.246 392.007 171.946 391.47 171.553 391.03C171.16 390.59 170.68 390.253 170.113 390.02C169.553 389.787 168.92 389.67 168.213 389.67C167.506 389.67 166.87 389.787 166.303 390.02C165.736 390.253 165.253 390.59 164.853 391.03C164.46 391.47 164.156 392.007 163.943 392.64C163.73 393.267 163.623 393.977 163.623 394.77C163.623 395.563 163.73 396.277 163.943 396.91C164.156 397.537 164.46 398.07 164.853 398.51C165.253 398.943 165.736 399.277 166.303 399.51C166.87 399.743 167.506 399.86 168.213 399.86C168.92 399.86 169.553 399.743 170.113 399.51C170.68 399.277 171.16 398.943 171.553 398.51C171.946 398.07 172.246 397.537 172.453 396.91C172.666 396.277 172.773 395.563 172.773 394.77ZM184.919 396C185.033 396.213 185.136 396.437 185.229 396.67C185.329 396.897 185.426 397.127 185.519 397.36C185.613 397.12 185.709 396.883 185.809 396.65C185.909 396.417 186.016 396.193 186.129 395.98L190.409 387.97C190.463 387.87 190.516 387.79 190.569 387.73C190.629 387.67 190.693 387.627 190.759 387.6C190.833 387.573 190.913 387.557 190.999 387.55C191.086 387.543 191.189 387.54 191.309 387.54H193.339V402H190.969V392.66C190.969 392.487 190.973 392.297 190.979 392.09C190.993 391.883 191.009 391.673 191.029 391.46L186.659 399.66C186.559 399.847 186.429 399.993 186.269 400.1C186.109 400.2 185.923 400.25 185.709 400.25H185.339C185.126 400.25 184.939 400.2 184.779 400.1C184.619 399.993 184.489 399.847 184.389 399.66L179.959 391.43C179.986 391.65 180.003 391.867 180.009 392.08C180.023 392.287 180.029 392.48 180.029 392.66V402H177.659V387.54H179.689C179.809 387.54 179.913 387.543 179.999 387.55C180.086 387.557 180.163 387.573 180.229 387.6C180.303 387.627 180.369 387.67 180.429 387.73C180.489 387.79 180.546 387.87 180.599 387.97L184.919 396ZM210.123 394.77C210.123 395.83 209.946 396.813 209.593 397.72C209.24 398.62 208.743 399.4 208.103 400.06C207.463 400.72 206.693 401.237 205.793 401.61C204.893 401.977 203.896 402.16 202.803 402.16C201.71 402.16 200.71 401.977 199.803 401.61C198.903 401.237 198.13 400.72 197.483 400.06C196.843 399.4 196.346 398.62 195.993 397.72C195.64 396.813 195.463 395.83 195.463 394.77C195.463 393.71 195.64 392.73 195.993 391.83C196.346 390.923 196.843 390.14 197.483 389.48C198.13 388.82 198.903 388.307 199.803 387.94C200.71 387.567 201.71 387.38 202.803 387.38C203.896 387.38 204.893 387.567 205.793 387.94C206.693 388.313 207.463 388.83 208.103 389.49C208.743 390.143 209.24 390.923 209.593 391.83C209.946 392.73 210.123 393.71 210.123 394.77ZM207.363 394.77C207.363 393.977 207.256 393.267 207.043 392.64C206.836 392.007 206.536 391.47 206.143 391.03C205.75 390.59 205.27 390.253 204.703 390.02C204.143 389.787 203.51 389.67 202.803 389.67C202.096 389.67 201.46 389.787 200.893 390.02C200.326 390.253 199.843 390.59 199.443 391.03C199.05 391.47 198.746 392.007 198.533 392.64C198.32 393.267 198.213 393.977 198.213 394.77C198.213 395.563 198.32 396.277 198.533 396.91C198.746 397.537 199.05 398.07 199.443 398.51C199.843 398.943 200.326 399.277 200.893 399.51C201.46 399.743 202.096 399.86 202.803 399.86C203.51 399.86 204.143 399.743 204.703 399.51C205.27 399.277 205.75 398.943 206.143 398.51C206.536 398.07 206.836 397.537 207.043 396.91C207.256 396.277 207.363 395.563 207.363 394.77ZM221.658 387.54V389.75H217.308V402H214.618V389.75H210.248V387.54H221.658ZM226.392 402H223.692V387.54H226.392V402ZM243.521 394.77C243.521 395.83 243.345 396.813 242.991 397.72C242.638 398.62 242.141 399.4 241.501 400.06C240.861 400.72 240.091 401.237 239.191 401.61C238.291 401.977 237.295 402.16 236.201 402.16C235.108 402.16 234.108 401.977 233.201 401.61C232.301 401.237 231.528 400.72 230.881 400.06C230.241 399.4 229.745 398.62 229.391 397.72C229.038 396.813 228.861 395.83 228.861 394.77C228.861 393.71 229.038 392.73 229.391 391.83C229.745 390.923 230.241 390.14 230.881 389.48C231.528 388.82 232.301 388.307 233.201 387.94C234.108 387.567 235.108 387.38 236.201 387.38C237.295 387.38 238.291 387.567 239.191 387.94C240.091 388.313 240.861 388.83 241.501 389.49C242.141 390.143 242.638 390.923 242.991 391.83C243.345 392.73 243.521 393.71 243.521 394.77ZM240.761 394.77C240.761 393.977 240.655 393.267 240.441 392.64C240.235 392.007 239.935 391.47 239.541 391.03C239.148 390.59 238.668 390.253 238.101 390.02C237.541 389.787 236.908 389.67 236.201 389.67C235.495 389.67 234.858 389.787 234.291 390.02C233.725 390.253 233.241 390.59 232.841 391.03C232.448 391.47 232.145 392.007 231.931 392.64C231.718 393.267 231.611 393.977 231.611 394.77C231.611 395.563 231.718 396.277 231.931 396.91C232.145 397.537 232.448 398.07 232.841 398.51C233.241 398.943 233.725 399.277 234.291 399.51C234.858 399.743 235.495 399.86 236.201 399.86C236.908 399.86 237.541 399.743 238.101 399.51C238.668 399.277 239.148 398.943 239.541 398.51C239.935 398.07 240.235 397.537 240.441 396.91C240.655 396.277 240.761 395.563 240.761 394.77ZM247.058 387.54C247.178 387.54 247.278 387.547 247.358 387.56C247.438 387.567 247.508 387.587 247.568 387.62C247.634 387.647 247.698 387.69 247.758 387.75C247.818 387.803 247.884 387.877 247.958 387.97L255.548 397.64C255.521 397.407 255.501 397.18 255.487 396.96C255.481 396.733 255.478 396.523 255.478 396.33V387.54H257.848V402H256.458C256.244 402 256.068 401.967 255.928 401.9C255.788 401.833 255.651 401.713 255.518 401.54L247.958 391.91C247.978 392.123 247.991 392.337 247.998 392.55C248.011 392.757 248.018 392.947 248.018 393.12V402H245.648V387.54H247.058ZM268.515 390.17C268.441 390.317 268.355 390.42 268.255 390.48C268.161 390.54 268.048 390.57 267.915 390.57C267.781 390.57 267.631 390.52 267.465 390.42C267.298 390.313 267.101 390.197 266.875 390.07C266.648 389.943 266.381 389.83 266.075 389.73C265.775 389.623 265.418 389.57 265.005 389.57C264.631 389.57 264.305 389.617 264.025 389.71C263.751 389.797 263.518 389.92 263.325 390.08C263.138 390.24 262.998 390.433 262.905 390.66C262.811 390.88 262.765 391.123 262.765 391.39C262.765 391.73 262.858 392.013 263.045 392.24C263.238 392.467 263.491 392.66 263.805 392.82C264.118 392.98 264.475 393.123 264.875 393.25C265.275 393.377 265.681 393.513 266.095 393.66C266.515 393.8 266.925 393.967 267.325 394.16C267.725 394.347 268.081 394.587 268.395 394.88C268.708 395.167 268.958 395.52 269.145 395.94C269.338 396.36 269.435 396.87 269.435 397.47C269.435 398.123 269.321 398.737 269.095 399.31C268.875 399.877 268.548 400.373 268.115 400.8C267.688 401.22 267.165 401.553 266.545 401.8C265.925 402.04 265.215 402.16 264.415 402.16C263.955 402.16 263.501 402.113 263.055 402.02C262.608 401.933 262.178 401.807 261.765 401.64C261.358 401.473 260.975 401.273 260.615 401.04C260.261 400.807 259.945 400.547 259.665 400.26L260.445 398.97C260.518 398.877 260.605 398.8 260.705 398.74C260.811 398.673 260.928 398.64 261.055 398.64C261.221 398.64 261.401 398.71 261.595 398.85C261.788 398.983 262.015 399.133 262.275 399.3C262.541 399.467 262.851 399.62 263.205 399.76C263.565 399.893 263.995 399.96 264.495 399.96C265.261 399.96 265.855 399.78 266.275 399.42C266.695 399.053 266.905 398.53 266.905 397.85C266.905 397.47 266.808 397.16 266.615 396.92C266.428 396.68 266.178 396.48 265.865 396.32C265.551 396.153 265.195 396.013 264.795 395.9C264.395 395.787 263.988 395.663 263.575 395.53C263.161 395.397 262.755 395.237 262.355 395.05C261.955 394.863 261.598 394.62 261.285 394.32C260.971 394.02 260.718 393.647 260.525 393.2C260.338 392.747 260.245 392.19 260.245 391.53C260.245 391.003 260.348 390.49 260.555 389.99C260.768 389.49 261.075 389.047 261.475 388.66C261.881 388.273 262.378 387.963 262.965 387.73C263.551 387.497 264.221 387.38 264.975 387.38C265.828 387.38 266.615 387.513 267.335 387.78C268.055 388.047 268.668 388.42 269.175 388.9L268.515 390.17ZM128.611 426H126.531C126.298 426 126.105 425.943 125.951 425.83C125.805 425.71 125.698 425.563 125.631 425.39L124.551 422.44H118.561L117.481 425.39C117.428 425.543 117.321 425.683 117.161 425.81C117.008 425.937 116.818 426 116.591 426H114.501L120.181 411.54H122.931L128.611 426ZM119.251 420.54H123.861L122.101 415.73C122.021 415.517 121.931 415.267 121.831 414.98C121.738 414.687 121.645 414.37 121.551 414.03C121.458 414.37 121.365 414.687 121.271 414.98C121.185 415.273 121.098 415.53 121.011 415.75L119.251 420.54ZM126.981 411.54H129.151C129.385 411.54 129.575 411.597 129.721 411.71C129.868 411.823 129.978 411.97 130.051 412.15L133.451 420.97C133.565 421.257 133.671 421.573 133.771 421.92C133.878 422.26 133.978 422.62 134.071 423C134.225 422.233 134.415 421.557 134.641 420.97L138.031 412.15C138.091 411.997 138.198 411.857 138.351 411.73C138.505 411.603 138.695 411.54 138.921 411.54H141.091L135.251 426H132.821L126.981 411.54ZM153.611 426H151.531C151.298 426 151.105 425.943 150.951 425.83C150.805 425.71 150.698 425.563 150.631 425.39L149.551 422.44H143.561L142.481 425.39C142.428 425.543 142.321 425.683 142.161 425.81C142.008 425.937 141.818 426 141.591 426H139.501L145.181 411.54H147.931L153.611 426ZM144.251 420.54H148.861L147.101 415.73C147.021 415.517 146.931 415.267 146.831 414.98C146.738 414.687 146.645 414.37 146.551 414.03C146.458 414.37 146.365 414.687 146.271 414.98C146.185 415.273 146.098 415.53 146.011 415.75L144.251 420.54ZM158.131 426H155.431V411.54H158.131V426ZM164.08 423.78H169.87V426H161.39V411.54H164.08V423.78ZM184.432 426H182.352C182.118 426 181.925 425.943 181.772 425.83C181.625 425.71 181.518 425.563 181.452 425.39L180.372 422.44H174.382L173.302 425.39C173.248 425.543 173.142 425.683 172.982 425.81C172.828 425.937 172.638 426 172.412 426H170.322L176.002 411.54H178.752L184.432 426ZM175.072 420.54H179.682L177.922 415.73C177.842 415.517 177.752 415.267 177.652 414.98C177.558 414.687 177.465 414.37 177.372 414.03C177.278 414.37 177.185 414.687 177.092 414.98C177.005 415.273 176.918 415.53 176.832 415.75L175.072 420.54ZM185.921 426V411.54H190.911C191.858 411.54 192.664 411.63 193.331 411.81C194.004 411.99 194.554 412.247 194.981 412.58C195.414 412.913 195.731 413.317 195.931 413.79C196.131 414.263 196.231 414.797 196.231 415.39C196.231 415.73 196.181 416.057 196.081 416.37C195.981 416.677 195.824 416.967 195.611 417.24C195.404 417.507 195.138 417.75 194.811 417.97C194.491 418.19 194.108 418.377 193.661 418.53C195.648 418.977 196.641 420.05 196.641 421.75C196.641 422.363 196.524 422.93 196.291 423.45C196.058 423.97 195.718 424.42 195.271 424.8C194.824 425.173 194.274 425.467 193.621 425.68C192.968 425.893 192.221 426 191.381 426H185.921ZM188.611 419.66V423.9H191.341C191.841 423.9 192.258 423.84 192.591 423.72C192.931 423.6 193.201 423.44 193.401 423.24C193.608 423.04 193.754 422.807 193.841 422.54C193.934 422.273 193.981 421.99 193.981 421.69C193.981 421.377 193.931 421.097 193.831 420.85C193.731 420.597 193.574 420.383 193.361 420.21C193.148 420.03 192.874 419.893 192.541 419.8C192.208 419.707 191.804 419.66 191.331 419.66H188.611ZM188.611 417.8H190.761C191.674 417.8 192.368 417.633 192.841 417.3C193.314 416.967 193.551 416.437 193.551 415.71C193.551 414.957 193.338 414.42 192.911 414.1C192.484 413.78 191.818 413.62 190.911 413.62H188.611V417.8ZM201.638 423.78H207.428V426H198.948V411.54H201.638V423.78ZM218.4 411.54V413.68H211.99V417.69H217.04V419.76H211.99V423.85H218.4V426H209.28V411.54H218.4ZM231.023 420.38V426H228.333V420.38L223.063 411.54H225.433C225.666 411.54 225.849 411.597 225.983 411.71C226.123 411.823 226.239 411.967 226.333 412.14L228.983 416.97C229.136 417.257 229.269 417.53 229.383 417.79C229.496 418.043 229.599 418.293 229.693 418.54C229.779 418.287 229.876 418.033 229.983 417.78C230.096 417.52 230.229 417.25 230.383 416.97L233.013 412.14C233.086 411.993 233.196 411.857 233.343 411.73C233.489 411.603 233.676 411.54 233.903 411.54H236.283L231.023 420.38ZM246.799 411.54V413.68H240.389V417.69H245.439V419.76H240.389V423.85H246.799V426H237.679V411.54H246.799ZM259.314 411.54V413.75H254.964V426H252.274V413.75H247.904V411.54H259.314Z" fill="#5B5B5B"/>
<g filter="url(#filter0_d_218_29684)">
<path d="M-0.5 0H374.5V74C374.5 85.0457 365.546 94 354.5 94H19.5C8.45431 94 -0.5 85.0457 -0.5 74V0Z" fill="white"/>
</g>
<path d="M117.446 64.3842V69.9832H114.487V54.0772H119.668C120.732 54.0772 121.652 54.2018 122.429 54.4512C123.207 54.7005 123.848 55.0488 124.354 55.4962C124.86 55.9435 125.234 56.4788 125.476 57.1022C125.718 57.7255 125.839 58.4075 125.839 59.1482C125.839 59.9182 125.711 60.6258 125.454 61.2712C125.198 61.9092 124.813 62.4592 124.299 62.9212C123.786 63.3832 123.144 63.7425 122.374 63.9992C121.604 64.2558 120.702 64.3842 119.668 64.3842H117.446ZM117.446 62.0742H119.668C120.211 62.0742 120.684 62.0082 121.087 61.8762C121.491 61.7368 121.824 61.5425 122.088 61.2932C122.352 61.0365 122.55 60.7285 122.682 60.3692C122.814 60.0025 122.88 59.5955 122.88 59.1482C122.88 58.7228 122.814 58.3378 122.682 57.9932C122.55 57.6485 122.352 57.3552 122.088 57.1132C121.824 56.8712 121.491 56.6878 121.087 56.5632C120.684 56.4312 120.211 56.3652 119.668 56.3652H117.446V62.0742ZM131.196 63.7682V69.9832H128.237V54.0772H133.088C134.174 54.0772 135.101 54.1908 135.871 54.4182C136.649 54.6382 137.283 54.9498 137.774 55.3532C138.273 55.7565 138.636 56.2405 138.863 56.8052C139.098 57.3625 139.215 57.9785 139.215 58.6532C139.215 59.1885 139.135 59.6945 138.973 60.1712C138.819 60.6478 138.592 61.0805 138.291 61.4692C137.998 61.8578 137.631 62.1988 137.191 62.4922C136.759 62.7855 136.264 63.0202 135.706 63.1962C136.08 63.4088 136.403 63.7132 136.674 64.1092L140.656 69.9832H137.994C137.738 69.9832 137.518 69.9318 137.334 69.8292C137.158 69.7265 137.008 69.5798 136.883 69.3892L133.539 64.2962C133.415 64.1055 133.275 63.9698 133.121 63.8892C132.975 63.8085 132.755 63.7682 132.461 63.7682H131.196ZM131.196 61.6452H133.044C133.602 61.6452 134.086 61.5755 134.496 61.4362C134.914 61.2968 135.255 61.1062 135.519 60.8642C135.791 60.6148 135.992 60.3215 136.124 59.9842C136.256 59.6468 136.322 59.2765 136.322 58.8732C136.322 58.0665 136.055 57.4468 135.519 57.0142C134.991 56.5815 134.181 56.3652 133.088 56.3652H131.196V61.6452ZM157.274 62.0302C157.274 63.1962 157.08 64.2778 156.691 65.2752C156.302 66.2652 155.756 67.1232 155.052 67.8492C154.348 68.5752 153.501 69.1435 152.511 69.5542C151.521 69.9575 150.425 70.1592 149.222 70.1592C148.019 70.1592 146.919 69.9575 145.922 69.5542C144.932 69.1435 144.081 68.5752 143.37 67.8492C142.666 67.1232 142.12 66.2652 141.731 65.2752C141.342 64.2778 141.148 63.1962 141.148 62.0302C141.148 60.8642 141.342 59.7862 141.731 58.7962C142.12 57.7988 142.666 56.9372 143.37 56.2112C144.081 55.4852 144.932 54.9205 145.922 54.5172C146.919 54.1065 148.019 53.9012 149.222 53.9012C150.425 53.9012 151.521 54.1065 152.511 54.5172C153.501 54.9278 154.348 55.4962 155.052 56.2222C155.756 56.9408 156.302 57.7988 156.691 58.7962C157.08 59.7862 157.274 60.8642 157.274 62.0302ZM154.238 62.0302C154.238 61.1575 154.121 60.3765 153.886 59.6872C153.659 58.9905 153.329 58.4002 152.896 57.9162C152.463 57.4322 151.935 57.0618 151.312 56.8052C150.696 56.5485 149.999 56.4202 149.222 56.4202C148.445 56.4202 147.744 56.5485 147.121 56.8052C146.498 57.0618 145.966 57.4322 145.526 57.9162C145.093 58.4002 144.76 58.9905 144.525 59.6872C144.29 60.3765 144.173 61.1575 144.173 62.0302C144.173 62.9028 144.29 63.6875 144.525 64.3842C144.76 65.0735 145.093 65.6602 145.526 66.1442C145.966 66.6208 146.498 66.9875 147.121 67.2442C147.744 67.5008 148.445 67.6292 149.222 67.6292C149.999 67.6292 150.696 67.5008 151.312 67.2442C151.935 66.9875 152.463 66.6208 152.896 66.1442C153.329 65.6602 153.659 65.0735 153.886 64.3842C154.121 63.6875 154.238 62.9028 154.238 62.0302ZM167.599 63.3832C167.724 63.6178 167.837 63.8635 167.94 64.1202C168.05 64.3695 168.156 64.6225 168.259 64.8792C168.362 64.6152 168.468 64.3548 168.578 64.0982C168.688 63.8415 168.805 63.5958 168.93 63.3612L173.638 54.5502C173.697 54.4402 173.755 54.3522 173.814 54.2862C173.88 54.2202 173.95 54.1725 174.023 54.1432C174.104 54.1138 174.192 54.0955 174.287 54.0882C174.382 54.0808 174.496 54.0772 174.628 54.0772H176.861V69.9832H174.254V59.7092C174.254 59.5185 174.258 59.3095 174.265 59.0822C174.28 58.8548 174.298 58.6238 174.32 58.3892L169.513 67.4092C169.403 67.6145 169.26 67.7758 169.084 67.8932C168.908 68.0032 168.703 68.0582 168.468 68.0582H168.061C167.826 68.0582 167.621 68.0032 167.445 67.8932C167.269 67.7758 167.126 67.6145 167.016 67.4092L162.143 58.3562C162.172 58.5982 162.191 58.8365 162.198 59.0712C162.213 59.2985 162.22 59.5112 162.22 59.7092V69.9832H159.613V54.0772H161.846C161.978 54.0772 162.092 54.0808 162.187 54.0882C162.282 54.0955 162.367 54.1138 162.44 54.1432C162.521 54.1725 162.594 54.2202 162.66 54.2862C162.726 54.3522 162.788 54.4402 162.847 54.5502L167.599 63.3832ZM195.323 62.0302C195.323 63.1962 195.129 64.2778 194.74 65.2752C194.351 66.2652 193.805 67.1232 193.101 67.8492C192.397 68.5752 191.55 69.1435 190.56 69.5542C189.57 69.9575 188.474 70.1592 187.271 70.1592C186.068 70.1592 184.968 69.9575 183.971 69.5542C182.981 69.1435 182.13 68.5752 181.419 67.8492C180.715 67.1232 180.169 66.2652 179.78 65.2752C179.391 64.2778 179.197 63.1962 179.197 62.0302C179.197 60.8642 179.391 59.7862 179.78 58.7962C180.169 57.7988 180.715 56.9372 181.419 56.2112C182.13 55.4852 182.981 54.9205 183.971 54.5172C184.968 54.1065 186.068 53.9012 187.271 53.9012C188.474 53.9012 189.57 54.1065 190.56 54.5172C191.55 54.9278 192.397 55.4962 193.101 56.2222C193.805 56.9408 194.351 57.7988 194.74 58.7962C195.129 59.7862 195.323 60.8642 195.323 62.0302ZM192.287 62.0302C192.287 61.1575 192.17 60.3765 191.935 59.6872C191.708 58.9905 191.378 58.4002 190.945 57.9162C190.512 57.4322 189.984 57.0618 189.361 56.8052C188.745 56.5485 188.048 56.4202 187.271 56.4202C186.494 56.4202 185.793 56.5485 185.17 56.8052C184.547 57.0618 184.015 57.4322 183.575 57.9162C183.142 58.4002 182.809 58.9905 182.574 59.6872C182.339 60.3765 182.222 61.1575 182.222 62.0302C182.222 62.9028 182.339 63.6875 182.574 64.3842C182.809 65.0735 183.142 65.6602 183.575 66.1442C184.015 66.6208 184.547 66.9875 185.17 67.2442C185.793 67.5008 186.494 67.6292 187.271 67.6292C188.048 67.6292 188.745 67.5008 189.361 67.2442C189.984 66.9875 190.512 66.6208 190.945 66.1442C191.378 65.6602 191.708 65.0735 191.935 64.3842C192.17 63.6875 192.287 62.9028 192.287 62.0302ZM208.011 54.0772V56.5082H203.226V69.9832H200.267V56.5082H195.46V54.0772H208.011ZM213.219 69.9832H210.249V54.0772H213.219V69.9832ZM232.061 62.0302C232.061 63.1962 231.867 64.2778 231.478 65.2752C231.09 66.2652 230.543 67.1232 229.839 67.8492C229.135 68.5752 228.288 69.1435 227.298 69.5542C226.308 69.9575 225.212 70.1592 224.009 70.1592C222.807 70.1592 221.707 69.9575 220.709 69.5542C219.719 69.1435 218.869 68.5752 218.157 67.8492C217.453 67.1232 216.907 66.2652 216.518 65.2752C216.13 64.2778 215.935 63.1962 215.935 62.0302C215.935 60.8642 216.13 59.7862 216.518 58.7962C216.907 57.7988 217.453 56.9372 218.157 56.2112C218.869 55.4852 219.719 54.9205 220.709 54.5172C221.707 54.1065 222.807 53.9012 224.009 53.9012C225.212 53.9012 226.308 54.1065 227.298 54.5172C228.288 54.9278 229.135 55.4962 229.839 56.2222C230.543 56.9408 231.09 57.7988 231.478 58.7962C231.867 59.7862 232.061 60.8642 232.061 62.0302ZM229.025 62.0302C229.025 61.1575 228.908 60.3765 228.673 59.6872C228.446 58.9905 228.116 58.4002 227.683 57.9162C227.251 57.4322 226.723 57.0618 226.099 56.8052C225.483 56.5485 224.787 56.4202 224.009 56.4202C223.232 56.4202 222.532 56.5485 221.908 56.8052C221.285 57.0618 220.753 57.4322 220.313 57.9162C219.881 58.4002 219.547 58.9905 219.312 59.6872C219.078 60.3765 218.96 61.1575 218.96 62.0302C218.96 62.9028 219.078 63.6875 219.312 64.3842C219.547 65.0735 219.881 65.6602 220.313 66.1442C220.753 66.6208 221.285 66.9875 221.908 67.2442C222.532 67.5008 223.232 67.6292 224.009 67.6292C224.787 67.6292 225.483 67.5008 226.099 67.2442C226.723 66.9875 227.251 66.6208 227.683 66.1442C228.116 65.6602 228.446 65.0735 228.673 64.3842C228.908 63.6875 229.025 62.9028 229.025 62.0302ZM235.951 54.0772C236.083 54.0772 236.193 54.0845 236.281 54.0992C236.369 54.1065 236.446 54.1285 236.512 54.1652C236.585 54.1945 236.655 54.2422 236.721 54.3082C236.787 54.3668 236.86 54.4475 236.941 54.5502L245.29 65.1872C245.261 64.9305 245.239 64.6812 245.224 64.4392C245.217 64.1898 245.213 63.9588 245.213 63.7462V54.0772H247.82V69.9832H246.291C246.056 69.9832 245.862 69.9465 245.708 69.8732C245.554 69.7998 245.404 69.6678 245.257 69.4772L236.941 58.8842C236.963 59.1188 236.978 59.3535 236.985 59.5882C237 59.8155 237.007 60.0245 237.007 60.2152V69.9832H234.4V54.0772H235.951ZM259.554 56.9702C259.473 57.1315 259.378 57.2452 259.268 57.3112C259.165 57.3772 259.041 57.4102 258.894 57.4102C258.747 57.4102 258.582 57.3552 258.399 57.2452C258.216 57.1278 257.999 56.9995 257.75 56.8602C257.501 56.7208 257.207 56.5962 256.87 56.4862C256.54 56.3688 256.148 56.3102 255.693 56.3102C255.282 56.3102 254.923 56.3615 254.615 56.4642C254.314 56.5595 254.058 56.6952 253.845 56.8712C253.64 57.0472 253.486 57.2598 253.383 57.5092C253.28 57.7512 253.229 58.0188 253.229 58.3122C253.229 58.6862 253.332 58.9978 253.537 59.2472C253.75 59.4965 254.028 59.7092 254.373 59.8852C254.718 60.0612 255.11 60.2188 255.55 60.3582C255.99 60.4975 256.437 60.6478 256.892 60.8092C257.354 60.9632 257.805 61.1465 258.245 61.3592C258.685 61.5645 259.077 61.8285 259.422 62.1512C259.767 62.4665 260.042 62.8552 260.247 63.3172C260.46 63.7792 260.566 64.3402 260.566 65.0002C260.566 65.7188 260.441 66.3935 260.192 67.0242C259.95 67.6475 259.591 68.1938 259.114 68.6632C258.645 69.1252 258.069 69.4918 257.387 69.7632C256.705 70.0272 255.924 70.1592 255.044 70.1592C254.538 70.1592 254.039 70.1078 253.548 70.0052C253.057 69.9098 252.584 69.7705 252.129 69.5872C251.682 69.4038 251.26 69.1838 250.864 68.9272C250.475 68.6705 250.127 68.3845 249.819 68.0692L250.677 66.6502C250.758 66.5475 250.853 66.4632 250.963 66.3972C251.08 66.3238 251.209 66.2872 251.348 66.2872C251.531 66.2872 251.729 66.3642 251.942 66.5182C252.155 66.6648 252.404 66.8298 252.69 67.0132C252.983 67.1965 253.324 67.3652 253.713 67.5192C254.109 67.6658 254.582 67.7392 255.132 67.7392C255.975 67.7392 256.628 67.5412 257.09 67.1452C257.552 66.7418 257.783 66.1662 257.783 65.4182C257.783 65.0002 257.677 64.6592 257.464 64.3952C257.259 64.1312 256.984 63.9112 256.639 63.7352C256.294 63.5518 255.902 63.3978 255.462 63.2732C255.022 63.1485 254.575 63.0128 254.12 62.8662C253.665 62.7195 253.218 62.5435 252.778 62.3382C252.338 62.1328 251.946 61.8652 251.601 61.5352C251.256 61.2052 250.978 60.7945 250.765 60.3032C250.56 59.8045 250.457 59.1922 250.457 58.4662C250.457 57.8868 250.571 57.3222 250.798 56.7722C251.033 56.2222 251.37 55.7345 251.81 55.3092C252.257 54.8838 252.804 54.5428 253.449 54.2862C254.094 54.0295 254.831 53.9012 255.66 53.9012C256.599 53.9012 257.464 54.0478 258.256 54.3412C259.048 54.6345 259.723 55.0452 260.28 55.5732L259.554 56.9702Z" fill="#111111"/>
<path d="M19.491 61.5706L19.4911 61.5707L26.3425 68.4894L26.3426 68.4895C26.6651 68.8149 27.1884 68.8143 27.5102 68.4879L27.5103 68.4878C27.8303 68.1629 27.8294 67.6381 27.5087 67.3142L27.5087 67.3142L21.2393 60.9831L27.5089 54.6521L27.5089 54.6521C27.8296 54.3281 27.8305 53.8036 27.5106 53.4787L27.5105 53.4786C27.3497 53.3155 27.1377 53.2332 26.9257 53.2332C26.7144 53.2332 26.5032 53.3149 26.3426 53.477L26.3426 53.477L19.4914 60.3954L19.6688 60.5715L19.4911 60.3956L19.4913 60.3954C19.3363 60.5517 19.25 60.7634 19.25 60.9831C19.25 61.2032 19.3366 61.4145 19.491 61.5706Z" fill="#111111" stroke="#111111" stroke-width="0.5"/>
<path d="M92.5 0.0204082H292.5C292.5 0.0204082 290 -0.979591 289.773 11.0204C289.545 23.0204 284.075 28.0204 277.045 28.0204H107.955C100.925 28.0204 95.4545 23.0204 95.2273 11.0204C95 -0.979591 92.5 0.0204082 92.5 0.0204082Z" fill="#DDDDDD"/>
<g opacity="0.1">
<path fill-rule="evenodd" clip-rule="evenodd" d="M339.172 13H352.535C353.102 13 353.645 13.2251 354.046 13.6259C354.447 14.0267 354.672 14.5702 354.672 15.137V19.946C354.672 20.5128 354.447 21.0563 354.046 21.4571C353.645 21.8579 353.102 22.083 352.535 22.083H339.172C338.605 22.083 338.062 21.8579 337.661 21.4571C337.26 21.0563 337.035 20.5128 337.035 19.946V15.137C337.035 14.5702 337.26 14.0267 337.661 13.6259C338.062 13.2251 338.605 13 339.172 13Z" fill="black"/>
</g>
<path d="M355.469 15.939V19.145C355.784 19.0124 356.053 18.7899 356.242 18.5053C356.432 18.2208 356.533 17.8868 356.533 17.545C356.534 17.2023 356.433 16.867 356.244 16.5812C356.055 16.2955 355.785 16.0721 355.469 15.939" fill="#111111"/>
<path d="M339.707 14.603H351.997C352.281 14.603 352.553 14.7157 352.753 14.9161C352.954 15.1166 353.066 15.3885 353.066 15.672V19.412C353.066 19.6955 352.954 19.9674 352.753 20.1679C352.553 20.3684 352.281 20.481 351.997 20.481H339.707C339.424 20.481 339.152 20.3684 338.951 20.1679C338.751 19.9674 338.638 19.6955 338.638 19.412V15.67C338.639 15.3869 338.752 15.1155 338.952 14.9154C339.152 14.7154 339.424 14.603 339.707 14.603V14.603Z" fill="#111111"/>
<path d="M326.476 14.8221C328.252 14.8221 329.96 15.5045 331.247 16.7281C331.293 16.7737 331.356 16.7993 331.42 16.7993C331.485 16.7993 331.548 16.7737 331.594 16.7281L332.521 15.7931C332.545 15.769 332.564 15.7404 332.577 15.709C332.59 15.6776 332.596 15.644 332.596 15.6101C332.596 15.5761 332.589 15.5426 332.576 15.5114C332.562 15.4802 332.543 15.4518 332.519 15.4281C330.893 13.8699 328.728 13 326.476 13C324.224 13 322.059 13.8699 320.433 15.4281C320.409 15.4518 320.39 15.4802 320.376 15.5114C320.363 15.5426 320.356 15.5761 320.356 15.6101C320.356 15.644 320.362 15.6776 320.375 15.709C320.388 15.7404 320.407 15.769 320.431 15.7931L321.358 16.7281C321.404 16.7737 321.467 16.7993 321.531 16.7993C321.596 16.7993 321.659 16.7737 321.705 16.7281C322.992 15.5042 324.701 14.8219 326.477 14.8221H326.476ZM326.476 17.8641C327.452 17.8641 328.393 18.227 329.116 18.8821C329.162 18.9272 329.225 18.9525 329.289 18.9525C329.354 18.9525 329.416 18.9272 329.463 18.8821L330.388 17.9471C330.412 17.9227 330.431 17.8939 330.444 17.8621C330.457 17.8303 330.463 17.7963 330.463 17.7621C330.463 17.7278 330.455 17.694 330.442 17.6626C330.428 17.6312 330.409 17.6028 330.384 17.5791C329.322 16.5915 327.926 16.0425 326.476 16.0425C325.026 16.0425 323.63 16.5915 322.568 17.5791C322.543 17.6028 322.524 17.6312 322.51 17.6626C322.497 17.694 322.489 17.7278 322.489 17.7621C322.489 17.7963 322.495 17.8303 322.508 17.8621C322.521 17.8939 322.54 17.9227 322.564 17.9471L323.489 18.8821C323.535 18.9272 323.598 18.9525 323.662 18.9525C323.727 18.9525 323.789 18.9272 323.836 18.8821C324.559 18.2274 325.499 17.8646 326.474 17.8641H326.476ZM328.255 20.0961C328.279 20.072 328.299 20.0432 328.312 20.0113C328.325 19.9795 328.331 19.9454 328.33 19.9111C328.329 19.8767 328.322 19.8428 328.307 19.8115C328.293 19.7802 328.272 19.7521 328.247 19.7291C327.752 19.3102 327.124 19.0804 326.476 19.0804C325.827 19.0804 325.2 19.3102 324.705 19.7291C324.68 19.752 324.659 19.7798 324.645 19.811C324.63 19.8421 324.623 19.8758 324.622 19.9101C324.621 19.9444 324.627 19.9785 324.64 20.0103C324.653 20.0422 324.672 20.071 324.697 20.0951L326.297 21.7111C326.32 21.7346 326.348 21.7532 326.379 21.7659C326.409 21.7786 326.442 21.7851 326.475 21.7851C326.508 21.7851 326.541 21.7786 326.571 21.7659C326.602 21.7532 326.63 21.7346 326.653 21.7111L328.255 20.0961Z" fill="#111111"/>
<path d="M22.294 18.472C21.97 18.472 21.662 18.418 21.37 18.31C21.082 18.202 20.828 18.044 20.608 17.836C20.388 17.624 20.212 17.366 20.08 17.062C19.952 16.754 19.888 16.402 19.888 16.006C19.888 15.63 19.958 15.278 20.098 14.95C20.238 14.622 20.434 14.336 20.686 14.092C20.938 13.848 21.238 13.656 21.586 13.516C21.934 13.376 22.316 13.306 22.732 13.306C23.144 13.306 23.518 13.374 23.854 13.51C24.19 13.646 24.478 13.836 24.718 14.08C24.958 14.324 25.142 14.616 25.27 14.956C25.402 15.296 25.468 15.672 25.468 16.084C25.468 16.332 25.444 16.568 25.396 16.792C25.352 17.012 25.286 17.228 25.198 17.44C25.11 17.652 25.004 17.864 24.88 18.076C24.76 18.284 24.622 18.5 24.466 18.724L22.372 21.748C22.32 21.824 22.246 21.886 22.15 21.934C22.054 21.978 21.944 22 21.82 22H20.836L23.452 18.574C23.54 18.458 23.622 18.348 23.698 18.244C23.774 18.14 23.846 18.036 23.914 17.932C23.694 18.108 23.446 18.242 23.17 18.334C22.894 18.426 22.602 18.472 22.294 18.472ZM24.442 15.958C24.442 15.69 24.398 15.448 24.31 15.232C24.226 15.012 24.108 14.826 23.956 14.674C23.804 14.522 23.622 14.406 23.41 14.326C23.202 14.242 22.972 14.2 22.72 14.2C22.456 14.2 22.214 14.244 21.994 14.332C21.778 14.416 21.592 14.534 21.436 14.686C21.284 14.838 21.166 15.02 21.082 15.232C20.998 15.444 20.956 15.676 20.956 15.928C20.956 16.2 20.994 16.444 21.07 16.66C21.15 16.872 21.262 17.052 21.406 17.2C21.554 17.348 21.732 17.46 21.94 17.536C22.152 17.612 22.388 17.65 22.648 17.65C22.936 17.65 23.19 17.604 23.41 17.512C23.634 17.416 23.822 17.29 23.974 17.134C24.126 16.978 24.242 16.798 24.322 16.594C24.402 16.39 24.442 16.178 24.442 15.958ZM26.7289 21.34C26.7289 21.236 26.7469 21.138 26.7829 21.046C26.8229 20.954 26.8749 20.874 26.9389 20.806C27.0069 20.738 27.0869 20.684 27.1789 20.644C27.2709 20.604 27.3689 20.584 27.4729 20.584C27.5769 20.584 27.6749 20.604 27.7669 20.644C27.8589 20.684 27.9389 20.738 28.0069 20.806C28.0749 20.874 28.1269 20.954 28.1629 21.046C28.2029 21.138 28.2229 21.236 28.2229 21.34C28.2229 21.448 28.2029 21.548 28.1629 21.64C28.1269 21.728 28.0749 21.806 28.0069 21.874C27.9389 21.942 27.8589 21.994 27.7669 22.03C27.6749 22.07 27.5769 22.09 27.4729 22.09C27.3689 22.09 27.2709 22.07 27.1789 22.03C27.0869 21.994 27.0069 21.942 26.9389 21.874C26.8749 21.806 26.8229 21.728 26.7829 21.64C26.7469 21.548 26.7289 21.448 26.7289 21.34ZM26.7289 16.84C26.7289 16.736 26.7469 16.638 26.7829 16.546C26.8229 16.454 26.8749 16.374 26.9389 16.306C27.0069 16.238 27.0869 16.184 27.1789 16.144C27.2709 16.104 27.3689 16.084 27.4729 16.084C27.5769 16.084 27.6749 16.104 27.7669 16.144C27.8589 16.184 27.9389 16.238 28.0069 16.306C28.0749 16.374 28.1269 16.454 28.1629 16.546C28.2029 16.638 28.2229 16.736 28.2229 16.84C28.2229 16.948 28.2029 17.048 28.1629 17.14C28.1269 17.228 28.0749 17.306 28.0069 17.374C27.9389 17.442 27.8589 17.496 27.7669 17.536C27.6749 17.572 27.5769 17.59 27.4729 17.59C27.3689 17.59 27.2709 17.572 27.1789 17.536C27.0869 17.496 27.0069 17.442 26.9389 17.374C26.8749 17.306 26.8229 17.228 26.7829 17.14C26.7469 17.048 26.7289 16.948 26.7289 16.84ZM34.4024 18.898H35.7044V19.51C35.7044 19.574 35.6844 19.628 35.6444 19.672C35.6084 19.716 35.5504 19.738 35.4704 19.738H34.4024V22H33.4604V19.738H29.6504C29.5704 19.738 29.5004 19.716 29.4404 19.672C29.3844 19.624 29.3484 19.566 29.3324 19.498L29.2244 18.952L33.4064 13.402H34.4024V18.898ZM33.4604 15.352C33.4604 15.248 33.4624 15.136 33.4664 15.016C33.4744 14.896 33.4884 14.772 33.5084 14.644L30.3824 18.898H33.4604V15.352ZM37.6673 21.184H39.5153V15.322C39.5153 15.146 39.5213 14.968 39.5333 14.788L37.9973 16.102C37.9573 16.134 37.9173 16.158 37.8773 16.174C37.8373 16.186 37.7993 16.192 37.7633 16.192C37.7033 16.192 37.6493 16.18 37.6013 16.156C37.5533 16.128 37.5173 16.096 37.4933 16.06L37.1573 15.598L39.7133 13.384H40.5833V21.184H42.2753V22H37.6673V21.184Z" fill="#111111"/>
<path d="M303.502 18.34H304.302C304.514 18.34 304.718 18.4243 304.868 18.5743C305.018 18.7243 305.102 18.9278 305.102 19.14V20.74C305.102 20.9522 305.018 21.1557 304.868 21.3057C304.718 21.4557 304.514 21.54 304.302 21.54H303.502C303.29 21.54 303.086 21.4557 302.936 21.3057C302.786 21.1557 302.702 20.9522 302.702 20.74V19.14C302.702 18.9278 302.786 18.7243 302.936 18.5743C303.086 18.4243 303.29 18.34 303.502 18.34V18.34ZM307.242 16.74H308.042C308.254 16.74 308.458 16.8243 308.608 16.9743C308.758 17.1243 308.842 17.3278 308.842 17.54V20.746C308.842 20.8511 308.821 20.9551 308.781 21.0521C308.741 21.1492 308.682 21.2374 308.608 21.3117C308.534 21.386 308.445 21.4449 308.348 21.4851C308.251 21.5253 308.147 21.546 308.042 21.546H307.242C307.137 21.546 307.033 21.5253 306.936 21.4851C306.839 21.4449 306.751 21.386 306.676 21.3117C306.602 21.2374 306.543 21.1492 306.503 21.0521C306.463 20.9551 306.442 20.8511 306.442 20.746V17.54C306.442 17.4347 306.462 17.3303 306.502 17.2329C306.542 17.1355 306.601 17.047 306.675 16.9724C306.75 16.8978 306.838 16.8386 306.935 16.7982C307.033 16.7578 307.137 16.737 307.242 16.737V16.74ZM310.982 14.87H311.782C311.887 14.87 311.991 14.8907 312.088 14.9309C312.185 14.9711 312.274 15.03 312.348 15.1043C312.422 15.1786 312.481 15.2668 312.521 15.3639C312.561 15.4609 312.582 15.5649 312.582 15.67V20.746C312.582 20.8511 312.561 20.9551 312.521 21.0521C312.481 21.1492 312.422 21.2374 312.348 21.3117C312.274 21.386 312.185 21.4449 312.088 21.4851C311.991 21.5253 311.887 21.546 311.782 21.546H310.982C310.877 21.546 310.773 21.5253 310.676 21.4851C310.579 21.4449 310.491 21.386 310.416 21.3117C310.342 21.2374 310.283 21.1492 310.243 21.0521C310.203 20.9551 310.182 20.8511 310.182 20.746V15.67C310.182 15.5646 310.202 15.4602 310.242 15.3627C310.282 15.2652 310.341 15.1766 310.416 15.102C310.49 15.0274 310.579 14.9682 310.676 14.9279C310.773 14.8876 310.878 14.8669 310.983 14.867L310.982 14.87ZM314.722 13H315.522C315.734 13 315.938 13.0843 316.088 13.2343C316.238 13.3843 316.322 13.5878 316.322 13.8V20.746C316.322 20.9582 316.238 21.1617 316.088 21.3117C315.938 21.4617 315.734 21.546 315.522 21.546H314.722C314.617 21.546 314.513 21.5253 314.416 21.4851C314.319 21.4449 314.231 21.386 314.156 21.3117C314.082 21.2374 314.023 21.1492 313.983 21.0521C313.943 20.9551 313.922 20.8511 313.922 20.746V13.8C313.922 13.6949 313.943 13.5909 313.983 13.4939C314.023 13.3968 314.082 13.3086 314.156 13.2343C314.231 13.16 314.319 13.1011 314.416 13.0609C314.513 13.0207 314.617 13 314.722 13V13Z" fill="#111111"/>
<path d="M228.858 288.159H196.531C196.51 288.159 196.489 288.153 196.471 288.142C196.453 288.131 196.438 288.116 196.429 288.097L193.094 281.334C192.154 279.42 190.167 278.184 188.033 278.184H168.49C165.379 278.184 162.848 280.715 162.848 283.827V289.358H157.315C154.204 289.358 151.673 291.889 151.673 295V300.532H146.142C143.031 300.532 140.5 303.063 140.5 306.174V351.828C140.5 354.939 143.031 357.47 146.142 357.47H206.511C209.622 357.47 212.152 354.939 212.152 351.828V346.296H217.685C220.796 346.296 223.326 343.765 223.326 340.655V335.123H228.858C231.969 335.123 234.5 332.592 234.5 329.481V293.802C234.5 290.69 231.969 288.159 228.858 288.159ZM206.511 351.941H146.142C146.112 351.941 146.083 351.929 146.062 351.908C146.041 351.887 146.029 351.858 146.029 351.828V306.174C146.029 306.111 146.08 306.061 146.142 306.061H165.686C165.705 306.061 165.723 306.068 165.738 306.076C165.74 306.078 165.743 306.077 165.746 306.078C165.752 306.083 165.756 306.09 165.761 306.095C165.771 306.105 165.782 306.113 165.787 306.124L169.123 312.889C170.08 314.83 172.019 316.036 174.183 316.036H206.511C206.54 316.036 206.569 316.048 206.59 316.069C206.611 316.09 206.622 316.119 206.623 316.148C206.623 335.647 206.623 351.65 206.623 351.828C206.623 351.891 206.573 351.941 206.511 351.941ZM217.797 340.655C217.797 340.685 217.785 340.713 217.764 340.734C217.743 340.755 217.715 340.767 217.685 340.767H212.152V316.149C212.152 313.037 209.621 310.506 206.51 310.506H174.183C174.162 310.506 174.142 310.5 174.124 310.489C174.106 310.477 174.092 310.462 174.083 310.443L170.746 303.678C169.79 301.739 167.851 300.532 165.687 300.532H157.203V295C157.203 294.938 157.253 294.888 157.315 294.888H176.859C176.902 294.888 176.941 294.911 176.96 294.951L180.297 301.717C181.255 303.657 183.193 304.863 185.356 304.863H217.685C217.747 304.863 217.797 304.913 217.797 304.975L217.797 340.655ZM228.971 329.481C228.971 329.544 228.92 329.594 228.858 329.594H223.326V304.975C223.326 301.864 220.797 299.334 217.685 299.334H185.356C185.335 299.333 185.315 299.327 185.297 299.316C185.279 299.305 185.265 299.289 185.255 299.27L181.92 292.507C180.964 290.565 179.024 289.358 176.859 289.358H168.377V283.827C168.377 283.764 168.428 283.713 168.489 283.713H188.032C188.074 283.713 188.114 283.736 188.133 283.776L191.469 290.543C192.427 292.482 194.366 293.688 196.531 293.688H228.858C228.92 293.688 228.97 293.739 228.97 293.803V329.481H228.971Z" fill="#5B5B5B"/>
<path d="M189.63 339.92C188.103 339.92 186.865 341.158 186.865 342.685V344.283C186.865 345.81 188.103 347.048 189.63 347.048C191.157 347.048 192.395 345.81 192.395 344.283V342.685C192.395 341.158 191.157 339.92 189.63 339.92ZM197.686 339.92C196.16 339.92 194.922 341.158 194.922 342.685V344.283C194.922 345.81 196.16 347.048 197.686 347.048C199.213 347.048 200.451 345.81 200.451 344.283V342.685C200.451 341.158 199.213 339.92 197.686 339.92Z" fill="#5B5B5B"/>
</g>
<defs>
<filter id="filter0_d_218_29684" x="-15.5" y="-11" width="405" height="124" filterUnits="userSpaceOnUse" color-interpolation-filters="sRGB">
<feFlood flood-opacity="0" result="BackgroundImageFix"/>
<feColorMatrix in="SourceAlpha" type="matrix" values="0 0 0 0 0 0 0 0 0 0 0 0 0 0 0 0 0 0 127 0" result="hardAlpha"/>
<feOffset dy="4"/>
<feGaussianBlur stdDeviation="7.5"/>
<feColorMatrix type="matrix" values="0 0 0 0 0 0 0 0 0 0 0 0 0 0 0 0 0 0 0.06 0"/>
<feBlend mode="normal" in2="BackgroundImageFix" result="effect1_dropShadow_218_29684"/>
<feBlend mode="normal" in="SourceGraphic" in2="effect1_dropShadow_218_29684" result="shape"/>
</filter>
<clipPath id="clip0_218_29684">
<rect width="375" height="812" fill="white"/>
</clipPath>
</defs>
</svg>
