<svg width="375" height="812" viewBox="0 0 375 812" fill="none" xmlns="http://www.w3.org/2000/svg">
<g clip-path="url(#clip0_218_25950)">
<rect width="375" height="812" fill="white"/>
<g filter="url(#filter0_d_218_25950)">
<rect x="20" y="124" width="335" height="158" rx="5" fill="white"/>
</g>
<rect x="40.5" y="226" width="140" height="36" rx="18" fill="#111111"/>
<path d="M101.41 246.954C101.498 246.954 101.574 246.988 101.638 247.056L102.274 247.746C101.922 248.182 101.488 248.516 100.972 248.748C100.46 248.98 99.8443 249.096 99.1243 249.096C98.4803 249.096 97.9003 248.986 97.3843 248.766C96.8723 248.546 96.4343 248.24 96.0703 247.848C95.7063 247.456 95.4263 246.988 95.2303 246.444C95.0383 245.9 94.9423 245.306 94.9423 244.662C94.9423 244.01 95.0503 243.414 95.2663 242.874C95.4823 242.33 95.7863 241.862 96.1783 241.47C96.5703 241.078 97.0383 240.774 97.5823 240.558C98.1303 240.338 98.7343 240.228 99.3943 240.228C100.038 240.228 100.6 240.332 101.08 240.54C101.564 240.744 101.978 241.016 102.322 241.356L101.782 242.106C101.75 242.154 101.708 242.196 101.656 242.232C101.608 242.268 101.54 242.286 101.452 242.286C101.36 242.286 101.266 242.25 101.17 242.178C101.074 242.106 100.952 242.028 100.804 241.944C100.656 241.86 100.468 241.782 100.24 241.71C100.016 241.638 99.7303 241.602 99.3823 241.602C98.9743 241.602 98.5983 241.674 98.2543 241.818C97.9143 241.958 97.6203 242.16 97.3723 242.424C97.1283 242.688 96.9363 243.01 96.7963 243.39C96.6603 243.766 96.5923 244.19 96.5923 244.662C96.5923 245.15 96.6603 245.584 96.7963 245.964C96.9363 246.344 97.1243 246.664 97.3603 246.924C97.5963 247.184 97.8743 247.384 98.1943 247.524C98.5143 247.66 98.8583 247.728 99.2263 247.728C99.4463 247.728 99.6443 247.716 99.8203 247.692C100 247.668 100.164 247.63 100.312 247.578C100.464 247.526 100.606 247.46 100.738 247.38C100.874 247.296 101.008 247.194 101.14 247.074C101.18 247.038 101.222 247.01 101.266 246.99C101.31 246.966 101.358 246.954 101.41 246.954ZM111.123 249H109.875C109.735 249 109.619 248.966 109.527 248.898C109.439 248.826 109.375 248.738 109.335 248.634L108.687 246.864H105.093L104.445 248.634C104.413 248.726 104.349 248.81 104.253 248.886C104.161 248.962 104.047 249 103.911 249H102.657L106.065 240.324H107.715L111.123 249ZM105.507 245.724H108.273L107.217 242.838C107.169 242.71 107.115 242.56 107.055 242.388C106.999 242.212 106.943 242.022 106.887 241.818C106.831 242.022 106.775 242.212 106.719 242.388C106.667 242.564 106.615 242.718 106.563 242.85L105.507 245.724ZM116.667 241.902C116.623 241.99 116.571 242.052 116.511 242.088C116.455 242.124 116.387 242.142 116.307 242.142C116.227 242.142 116.137 242.112 116.037 242.052C115.937 241.988 115.819 241.918 115.683 241.842C115.547 241.766 115.387 241.698 115.203 241.638C115.023 241.574 114.809 241.542 114.561 241.542C114.337 241.542 114.141 241.57 113.973 241.626C113.809 241.678 113.669 241.752 113.553 241.848C113.441 241.944 113.357 242.06 113.301 242.196C113.245 242.328 113.217 242.474 113.217 242.634C113.217 242.838 113.273 243.008 113.385 243.144C113.501 243.28 113.653 243.396 113.841 243.492C114.029 243.588 114.243 243.674 114.483 243.75C114.723 243.826 114.967 243.908 115.215 243.996C115.467 244.08 115.713 244.18 115.953 244.296C116.193 244.408 116.407 244.552 116.595 244.728C116.783 244.9 116.933 245.112 117.045 245.364C117.161 245.616 117.219 245.922 117.219 246.282C117.219 246.674 117.151 247.042 117.015 247.386C116.883 247.726 116.687 248.024 116.427 248.28C116.171 248.532 115.857 248.732 115.485 248.88C115.113 249.024 114.687 249.096 114.207 249.096C113.931 249.096 113.659 249.068 113.391 249.012C113.123 248.96 112.865 248.884 112.617 248.784C112.373 248.684 112.143 248.564 111.927 248.424C111.715 248.284 111.525 248.128 111.357 247.956L111.825 247.182C111.869 247.126 111.921 247.08 111.981 247.044C112.045 247.004 112.115 246.984 112.191 246.984C112.291 246.984 112.399 247.026 112.515 247.11C112.631 247.19 112.767 247.28 112.923 247.38C113.083 247.48 113.269 247.572 113.481 247.656C113.697 247.736 113.955 247.776 114.255 247.776C114.715 247.776 115.071 247.668 115.323 247.452C115.575 247.232 115.701 246.918 115.701 246.51C115.701 246.282 115.643 246.096 115.527 245.952C115.415 245.808 115.265 245.688 115.077 245.592C114.889 245.492 114.675 245.408 114.435 245.34C114.195 245.272 113.951 245.198 113.703 245.118C113.455 245.038 113.211 244.942 112.971 244.83C112.731 244.718 112.517 244.572 112.329 244.392C112.141 244.212 111.989 243.988 111.873 243.72C111.761 243.448 111.705 243.114 111.705 242.718C111.705 242.402 111.767 242.094 111.891 241.794C112.019 241.494 112.203 241.228 112.443 240.996C112.687 240.764 112.985 240.578 113.337 240.438C113.689 240.298 114.091 240.228 114.543 240.228C115.055 240.228 115.527 240.308 115.959 240.468C116.391 240.628 116.759 240.852 117.063 241.14L116.667 241.902ZM125.77 249H124.144V245.208H120.076V249H118.45V240.324H120.076V244.056H124.144V240.324H125.77V249ZM138.163 244.662C138.163 245.298 138.057 245.888 137.845 246.432C137.633 246.972 137.335 247.44 136.951 247.836C136.567 248.232 136.105 248.542 135.565 248.766C135.025 248.986 134.427 249.096 133.771 249.096C133.115 249.096 132.515 248.986 131.971 248.766C131.431 248.542 130.967 248.232 130.579 247.836C130.195 247.44 129.897 246.972 129.685 246.432C129.473 245.888 129.367 245.298 129.367 244.662C129.367 244.026 129.473 243.438 129.685 242.898C129.897 242.354 130.195 241.884 130.579 241.488C130.967 241.092 131.431 240.784 131.971 240.564C132.515 240.34 133.115 240.228 133.771 240.228C134.427 240.228 135.025 240.34 135.565 240.564C136.105 240.788 136.567 241.098 136.951 241.494C137.335 241.886 137.633 242.354 137.845 242.898C138.057 243.438 138.163 244.026 138.163 244.662ZM136.507 244.662C136.507 244.186 136.443 243.76 136.315 243.384C136.191 243.004 136.011 242.682 135.775 242.418C135.539 242.154 135.251 241.952 134.911 241.812C134.575 241.672 134.195 241.602 133.771 241.602C133.347 241.602 132.965 241.672 132.625 241.812C132.285 241.952 131.995 242.154 131.755 242.418C131.519 242.682 131.337 243.004 131.209 243.384C131.081 243.76 131.017 244.186 131.017 244.662C131.017 245.138 131.081 245.566 131.209 245.946C131.337 246.322 131.519 246.642 131.755 246.906C131.995 247.166 132.285 247.366 132.625 247.506C132.965 247.646 133.347 247.716 133.771 247.716C134.195 247.716 134.575 247.646 134.911 247.506C135.251 247.366 135.539 247.166 135.775 246.906C136.011 246.642 136.191 246.322 136.315 245.946C136.443 245.566 136.507 245.138 136.507 244.662ZM142.931 247.698C143.243 247.698 143.521 247.646 143.765 247.542C144.013 247.438 144.221 247.292 144.389 247.104C144.561 246.916 144.691 246.688 144.779 246.42C144.871 246.152 144.917 245.852 144.917 245.52V240.324H146.531V245.52C146.531 246.036 146.447 246.514 146.279 246.954C146.115 247.39 145.877 247.768 145.565 248.088C145.253 248.404 144.875 248.652 144.431 248.832C143.987 249.008 143.487 249.096 142.931 249.096C142.375 249.096 141.875 249.008 141.431 248.832C140.987 248.652 140.609 248.404 140.297 248.088C139.989 247.768 139.751 247.39 139.583 246.954C139.419 246.514 139.337 246.036 139.337 245.52V240.324H140.951V245.514C140.951 245.846 140.995 246.146 141.083 246.414C141.175 246.682 141.305 246.912 141.473 247.104C141.641 247.292 141.847 247.438 142.09 247.542C142.339 247.646 142.619 247.698 142.931 247.698ZM154.283 240.324V241.65H151.673V249H150.059V241.65H147.437V240.324H154.283Z" fill="white"/>
<g clip-path="url(#clip1_218_25950)">
<path d="M82.5 244C82.5 248.419 78.9187 252 74.5 252C70.0813 252 66.5 248.419 66.5 244C66.5 239.581 70.0813 236 74.5 236C78.9187 236 82.5 239.581 82.5 244ZM77.5364 245.543C77.5364 243.955 75.8831 243.512 74.6156 242.916C73.8476 242.517 73.9427 241.561 75.0449 241.497C75.6591 241.46 76.2858 241.641 76.8547 241.841L77.1231 240.621C76.4511 240.417 75.852 240.324 75.3142 240.308V239.556H74.5747V240.346C73.1338 240.544 72.3631 241.448 72.3631 242.457C72.3631 244.263 74.4724 244.539 75.1613 244.86C76.1044 245.281 75.9284 246.156 75.0778 246.348C74.34 246.516 73.3951 246.224 72.6884 245.948L72.3524 247.166C73.0138 247.508 73.8076 247.692 74.5747 247.704V248.444H75.3142V247.665C76.5418 247.492 77.5391 246.815 77.5364 245.543Z" fill="white"/>
</g>
<path d="M335.057 178.501L335.057 178.501L329.918 172.966L329.918 172.966C329.651 172.678 329.209 172.678 328.942 172.967L328.942 172.967C328.686 173.245 328.686 173.687 328.943 173.965L328.943 173.965L333.618 179L328.943 184.035L328.943 184.036C328.686 184.313 328.685 184.755 328.942 185.033L328.942 185.033C329.073 185.175 329.25 185.25 329.431 185.25C329.611 185.25 329.787 185.175 329.918 185.034L329.918 185.034L335.056 179.5C335.056 179.5 335.057 179.5 335.057 179.499C335.183 179.364 335.25 179.184 335.25 179C335.25 178.816 335.182 178.636 335.057 178.501Z" fill="#999999" stroke="#999999" stroke-width="0.5"/>
<path d="M44.63 187.09C43.85 186.983 43.1167 186.77 42.43 186.45C41.75 186.13 41.17 185.733 40.69 185.26L41.45 184.13C41.5167 184.03 41.6033 183.95 41.71 183.89C41.8233 183.823 41.94 183.79 42.06 183.79C42.2067 183.79 42.3633 183.843 42.53 183.95C42.6967 184.05 42.8867 184.17 43.1 184.31C43.3133 184.45 43.5567 184.59 43.83 184.73C44.1033 184.87 44.4267 184.973 44.8 185.04L45.18 180.56C44.7067 180.427 44.2367 180.27 43.77 180.09C43.31 179.91 42.8933 179.673 42.52 179.38C42.1533 179.08 41.8567 178.703 41.63 178.25C41.4033 177.797 41.29 177.23 41.29 176.55C41.29 176.043 41.39 175.55 41.59 175.07C41.7967 174.583 42.0933 174.15 42.48 173.77C42.8667 173.39 43.3433 173.077 43.91 172.83C44.4767 172.583 45.1267 172.443 45.86 172.41L45.97 171.15C45.9833 170.99 46.05 170.847 46.17 170.72C46.29 170.593 46.4467 170.53 46.64 170.53H47.55L47.38 172.5C48.0867 172.613 48.6967 172.813 49.21 173.1C49.7233 173.387 50.17 173.71 50.55 174.07L49.95 174.98C49.8567 175.113 49.7633 175.213 49.67 175.28C49.5767 175.347 49.4633 175.38 49.33 175.38C49.23 175.38 49.11 175.35 48.97 175.29C48.8367 175.223 48.68 175.147 48.5 175.06C48.3267 174.967 48.1333 174.873 47.92 174.78C47.7067 174.687 47.47 174.61 47.21 174.55L46.86 178.69C47.34 178.837 47.8133 179 48.28 179.18C48.7533 179.353 49.1767 179.58 49.55 179.86C49.93 180.14 50.2367 180.49 50.47 180.91C50.7033 181.323 50.82 181.843 50.82 182.47C50.82 183.09 50.7167 183.673 50.51 184.22C50.3033 184.76 50 185.24 49.6 185.66C49.2067 186.073 48.72 186.41 48.14 186.67C47.56 186.93 46.8967 187.087 46.15 187.14L46.03 188.61C46.0167 188.763 45.95 188.903 45.83 189.03C45.71 189.163 45.5533 189.23 45.36 189.23H44.45L44.63 187.09ZM48.48 182.85C48.48 182.597 48.4333 182.377 48.34 182.19C48.2533 181.997 48.1267 181.827 47.96 181.68C47.8 181.533 47.61 181.407 47.39 181.3C47.17 181.193 46.93 181.097 46.67 181.01L46.33 185.07C47.0367 184.977 47.57 184.74 47.93 184.36C48.2967 183.973 48.48 183.47 48.48 182.85ZM43.62 176.31C43.62 176.563 43.6633 176.787 43.75 176.98C43.8367 177.173 43.9567 177.347 44.11 177.5C44.27 177.647 44.4567 177.78 44.67 177.9C44.8833 178.013 45.1167 178.117 45.37 178.21L45.68 174.51C45.3133 174.557 45 174.637 44.74 174.75C44.48 174.857 44.2667 174.99 44.1 175.15C43.9333 175.31 43.81 175.49 43.73 175.69C43.6567 175.883 43.62 176.09 43.62 176.31ZM61.4888 172.38C62.1554 172.38 62.7654 172.48 63.3188 172.68C63.8721 172.873 64.3454 173.15 64.7388 173.51C65.1321 173.87 65.4388 174.303 65.6588 174.81C65.8788 175.317 65.9888 175.88 65.9888 176.5C65.9888 177.033 65.9088 177.527 65.7487 177.98C65.5954 178.433 65.3854 178.867 65.1188 179.28C64.8588 179.693 64.5521 180.093 64.1988 180.48C63.8454 180.867 63.4754 181.26 63.0888 181.66L59.8288 184.99C60.1488 184.897 60.4621 184.827 60.7688 184.78C61.0754 184.727 61.3688 184.7 61.6488 184.7H65.3588C65.6254 184.7 65.8354 184.777 65.9888 184.93C66.1488 185.077 66.2288 185.273 66.2288 185.52V187H56.3088V186.18C56.3088 186.013 56.3421 185.84 56.4088 185.66C56.4821 185.48 56.5954 185.313 56.7488 185.16L61.1388 180.76C61.5054 180.387 61.8321 180.03 62.1188 179.69C62.4121 179.35 62.6554 179.013 62.8488 178.68C63.0488 178.347 63.1988 178.01 63.2988 177.67C63.4054 177.323 63.4588 176.96 63.4588 176.58C63.4588 176.233 63.4088 175.93 63.3088 175.67C63.2088 175.403 63.0654 175.18 62.8788 175C62.6921 174.82 62.4688 174.687 62.2088 174.6C61.9554 174.507 61.6688 174.46 61.3487 174.46C60.7554 174.46 60.2654 174.61 59.8788 174.91C59.4988 175.21 59.2321 175.613 59.0788 176.12C59.0054 176.373 58.8954 176.557 58.7488 176.67C58.6021 176.777 58.4154 176.83 58.1888 176.83C58.0888 176.83 57.9788 176.82 57.8588 176.8L56.5588 176.57C56.6588 175.877 56.8521 175.27 57.1388 174.75C57.4254 174.223 57.7821 173.787 58.2088 173.44C58.6421 173.087 59.1354 172.823 59.6888 172.65C60.2488 172.47 60.8488 172.38 61.4888 172.38ZM69.7603 185.15H72.6903V176.72C72.6903 176.393 72.7003 176.05 72.7203 175.69L70.6403 177.43C70.5536 177.503 70.4636 177.553 70.3703 177.58C70.2836 177.607 70.197 177.62 70.1103 177.62C69.977 177.62 69.8536 177.593 69.7403 177.54C69.6336 177.48 69.5536 177.413 69.5003 177.34L68.7203 176.27L73.1303 172.52H75.1603V185.15H77.7603V187H69.7603V185.15ZM88.0919 181.55H89.9119V182.98C89.9119 183.113 89.8685 183.23 89.7819 183.33C89.6952 183.423 89.5685 183.47 89.4019 183.47H88.0919V187H85.9319V183.47H79.8319C79.6652 183.47 79.5185 183.42 79.3919 183.32C79.2652 183.213 79.1852 183.083 79.1519 182.93L78.9019 181.68L85.7519 172.53H88.0919V181.55ZM85.9319 176.82C85.9319 176.607 85.9385 176.377 85.9519 176.13C85.9652 175.883 85.9885 175.627 86.0219 175.36L81.5319 181.55H85.9319V176.82ZM101.373 179.77C101.373 181.03 101.237 182.127 100.963 183.06C100.697 183.987 100.323 184.753 99.8434 185.36C99.3701 185.967 98.8068 186.42 98.1534 186.72C97.5068 187.013 96.8068 187.16 96.0534 187.16C95.3001 187.16 94.6001 187.013 93.9534 186.72C93.3134 186.42 92.7568 185.967 92.2834 185.36C91.8101 184.753 91.4401 183.987 91.1734 183.06C90.9068 182.127 90.7734 181.03 90.7734 179.77C90.7734 178.503 90.9068 177.407 91.1734 176.48C91.4401 175.553 91.8101 174.787 92.2834 174.18C92.7568 173.573 93.3134 173.123 93.9534 172.83C94.6001 172.53 95.3001 172.38 96.0534 172.38C96.8068 172.38 97.5068 172.53 98.1534 172.83C98.8068 173.123 99.3701 173.573 99.8434 174.18C100.323 174.787 100.697 175.553 100.963 176.48C101.237 177.407 101.373 178.503 101.373 179.77ZM98.8234 179.77C98.8234 178.723 98.7468 177.857 98.5934 177.17C98.4401 176.483 98.2334 175.937 97.9734 175.53C97.7201 175.123 97.4268 174.84 97.0934 174.68C96.7601 174.513 96.4134 174.43 96.0534 174.43C95.7001 174.43 95.3568 174.513 95.0234 174.68C94.6968 174.84 94.4068 175.123 94.1534 175.53C93.9001 175.937 93.6968 176.483 93.5434 177.17C93.3968 177.857 93.3234 178.723 93.3234 179.77C93.3234 180.817 93.3968 181.683 93.5434 182.37C93.6968 183.057 93.9001 183.603 94.1534 184.01C94.4068 184.417 94.6968 184.703 95.0234 184.87C95.3568 185.03 95.7001 185.11 96.0534 185.11C96.4134 185.11 96.7601 185.03 97.0934 184.87C97.4268 184.703 97.7201 184.417 97.9734 184.01C98.2334 183.603 98.4401 183.057 98.5934 182.37C98.7468 181.683 98.8234 180.817 98.8234 179.77ZM102.605 185.64C102.605 185.433 102.642 185.237 102.715 185.05C102.795 184.863 102.902 184.703 103.035 184.57C103.175 184.437 103.338 184.33 103.525 184.25C103.712 184.17 103.912 184.13 104.125 184.13C104.332 184.13 104.528 184.17 104.715 184.25C104.902 184.33 105.062 184.437 105.195 184.57C105.328 184.703 105.435 184.863 105.515 185.05C105.595 185.237 105.635 185.433 105.635 185.64C105.635 185.853 105.595 186.053 105.515 186.24C105.435 186.42 105.328 186.577 105.195 186.71C105.062 186.843 104.902 186.947 104.715 187.02C104.528 187.1 104.332 187.14 104.125 187.14C103.912 187.14 103.712 187.1 103.525 187.02C103.338 186.947 103.175 186.843 103.035 186.71C102.902 186.577 102.795 186.42 102.715 186.24C102.642 186.053 102.605 185.853 102.605 185.64ZM116.257 173.59C116.257 173.943 116.144 174.23 115.917 174.45C115.697 174.67 115.327 174.78 114.807 174.78H110.827L110.307 177.8C110.961 177.667 111.557 177.6 112.097 177.6C112.857 177.6 113.524 177.713 114.097 177.94C114.677 178.167 115.164 178.48 115.557 178.88C115.951 179.28 116.247 179.75 116.447 180.29C116.647 180.823 116.747 181.4 116.747 182.02C116.747 182.787 116.611 183.487 116.337 184.12C116.071 184.753 115.697 185.297 115.217 185.75C114.737 186.197 114.167 186.543 113.507 186.79C112.854 187.037 112.141 187.16 111.367 187.16C110.914 187.16 110.484 187.113 110.077 187.02C109.671 186.927 109.287 186.803 108.927 186.65C108.574 186.49 108.244 186.31 107.937 186.11C107.637 185.903 107.367 185.687 107.127 185.46L107.887 184.41C108.047 184.183 108.261 184.07 108.527 184.07C108.694 184.07 108.861 184.123 109.027 184.23C109.201 184.337 109.401 184.453 109.627 184.58C109.854 184.707 110.117 184.823 110.417 184.93C110.717 185.037 111.081 185.09 111.507 185.09C111.961 185.09 112.361 185.017 112.707 184.87C113.054 184.723 113.341 184.52 113.567 184.26C113.801 183.993 113.974 183.68 114.087 183.32C114.207 182.953 114.267 182.557 114.267 182.13C114.267 181.343 114.037 180.73 113.577 180.29C113.124 179.843 112.454 179.62 111.567 179.62C110.867 179.62 110.164 179.747 109.457 180L107.917 179.56L109.117 172.54H116.257V173.59ZM129.069 179.77C129.069 181.03 128.932 182.127 128.659 183.06C128.392 183.987 128.019 184.753 127.539 185.36C127.065 185.967 126.502 186.42 125.849 186.72C125.202 187.013 124.502 187.16 123.749 187.16C122.995 187.16 122.295 187.013 121.649 186.72C121.009 186.42 120.452 185.967 119.979 185.36C119.505 184.753 119.135 183.987 118.869 183.06C118.602 182.127 118.469 181.03 118.469 179.77C118.469 178.503 118.602 177.407 118.869 176.48C119.135 175.553 119.505 174.787 119.979 174.18C120.452 173.573 121.009 173.123 121.649 172.83C122.295 172.53 122.995 172.38 123.749 172.38C124.502 172.38 125.202 172.53 125.849 172.83C126.502 173.123 127.065 173.573 127.539 174.18C128.019 174.787 128.392 175.553 128.659 176.48C128.932 177.407 129.069 178.503 129.069 179.77ZM126.519 179.77C126.519 178.723 126.442 177.857 126.289 177.17C126.135 176.483 125.929 175.937 125.669 175.53C125.415 175.123 125.122 174.84 124.789 174.68C124.455 174.513 124.109 174.43 123.749 174.43C123.395 174.43 123.052 174.513 122.719 174.68C122.392 174.84 122.102 175.123 121.849 175.53C121.595 175.937 121.392 176.483 121.239 177.17C121.092 177.857 121.019 178.723 121.019 179.77C121.019 180.817 121.092 181.683 121.239 182.37C121.392 183.057 121.595 183.603 121.849 184.01C122.102 184.417 122.392 184.703 122.719 184.87C123.052 185.03 123.395 185.11 123.749 185.11C124.109 185.11 124.455 185.03 124.789 184.87C125.122 184.703 125.415 184.417 125.669 184.01C125.929 183.603 126.135 183.057 126.289 182.37C126.442 181.683 126.519 180.817 126.519 179.77Z" fill="#111111"/>
<path d="M41.218 159V148.969H44.417C45.033 148.969 45.5627 149.03 46.006 149.151C46.454 149.272 46.8203 149.445 47.105 149.669C47.3943 149.893 47.6067 150.168 47.742 150.495C47.882 150.817 47.952 151.181 47.952 151.587C47.952 151.834 47.9123 152.072 47.833 152.301C47.7583 152.53 47.6417 152.742 47.483 152.938C47.329 153.134 47.133 153.309 46.895 153.463C46.6617 153.617 46.3863 153.743 46.069 153.841C46.8017 153.986 47.3547 154.249 47.728 154.632C48.1013 155.015 48.288 155.519 48.288 156.144C48.288 156.569 48.2087 156.956 48.05 157.306C47.896 157.656 47.6673 157.957 47.364 158.209C47.0653 158.461 46.6967 158.657 46.258 158.797C45.824 158.932 45.327 159 44.767 159H41.218ZM42.576 154.429V157.922H44.746C45.1333 157.922 45.4647 157.878 45.74 157.789C46.02 157.7 46.2487 157.577 46.426 157.418C46.608 157.255 46.741 157.063 46.825 156.844C46.909 156.62 46.951 156.375 46.951 156.109C46.951 155.591 46.7667 155.183 46.398 154.884C46.034 154.581 45.481 154.429 44.739 154.429H42.576ZM42.576 153.463H44.368C44.7507 153.463 45.082 153.421 45.362 153.337C45.642 153.253 45.873 153.136 46.055 152.987C46.2417 152.838 46.3793 152.658 46.468 152.448C46.5567 152.233 46.601 152 46.601 151.748C46.601 151.16 46.4237 150.728 46.069 150.453C45.7143 150.178 45.1637 150.04 44.417 150.04H42.576V153.463ZM55.2945 159H54.7415C54.6201 159 54.5221 158.981 54.4475 158.944C54.3728 158.907 54.3238 158.827 54.3005 158.706L54.1605 158.048C53.9738 158.216 53.7918 158.368 53.6145 158.503C53.4371 158.634 53.2505 158.746 53.0545 158.839C52.8585 158.928 52.6485 158.995 52.4245 159.042C52.2051 159.089 51.9601 159.112 51.6895 159.112C51.4141 159.112 51.1551 159.075 50.9125 159C50.6745 158.921 50.4668 158.804 50.2895 158.65C50.1121 158.496 49.9698 158.302 49.8625 158.069C49.7598 157.831 49.7085 157.551 49.7085 157.229C49.7085 156.949 49.7855 156.681 49.9395 156.424C50.0935 156.163 50.3408 155.932 50.6815 155.731C51.0268 155.53 51.4771 155.367 52.0325 155.241C52.5878 155.11 53.2668 155.036 54.0695 155.017V154.464C54.0695 153.913 53.9505 153.498 53.7125 153.218C53.4791 152.933 53.1315 152.791 52.6695 152.791C52.3661 152.791 52.1095 152.831 51.8995 152.91C51.6941 152.985 51.5145 153.071 51.3605 153.169C51.2111 153.262 51.0805 153.349 50.9685 153.428C50.8611 153.503 50.7538 153.54 50.6465 153.54C50.5625 153.54 50.4878 153.519 50.4225 153.477C50.3618 153.43 50.3128 153.374 50.2755 153.309L50.0515 152.91C50.4435 152.532 50.8658 152.25 51.3185 152.063C51.7711 151.876 52.2728 151.783 52.8235 151.783C53.2201 151.783 53.5725 151.848 53.8805 151.979C54.1885 152.11 54.4475 152.292 54.6575 152.525C54.8675 152.758 55.0261 153.041 55.1335 153.372C55.2408 153.703 55.2945 154.067 55.2945 154.464V159ZM52.0605 158.237C52.2798 158.237 52.4805 158.216 52.6625 158.174C52.8445 158.127 53.0148 158.064 53.1735 157.985C53.3368 157.901 53.4908 157.801 53.6355 157.684C53.7848 157.567 53.9295 157.434 54.0695 157.285V155.808C53.4955 155.827 53.0078 155.873 52.6065 155.948C52.2051 156.018 51.8785 156.111 51.6265 156.228C51.3745 156.345 51.1901 156.482 51.0735 156.641C50.9615 156.8 50.9055 156.977 50.9055 157.173C50.9055 157.36 50.9358 157.521 50.9965 157.656C51.0571 157.791 51.1388 157.903 51.2415 157.992C51.3441 158.076 51.4655 158.139 51.6055 158.181C51.7455 158.218 51.8971 158.237 52.0605 158.237ZM58.5682 148.689V159H57.3222V148.689H58.5682ZM65.9722 159H65.4192C65.2979 159 65.1999 158.981 65.1252 158.944C65.0505 158.907 65.0015 158.827 64.9782 158.706L64.8382 158.048C64.6515 158.216 64.4695 158.368 64.2922 158.503C64.1149 158.634 63.9282 158.746 63.7322 158.839C63.5362 158.928 63.3262 158.995 63.1022 159.042C62.8829 159.089 62.6379 159.112 62.3672 159.112C62.0919 159.112 61.8329 159.075 61.5902 159C61.3522 158.921 61.1445 158.804 60.9672 158.65C60.7899 158.496 60.6475 158.302 60.5402 158.069C60.4375 157.831 60.3862 157.551 60.3862 157.229C60.3862 156.949 60.4632 156.681 60.6172 156.424C60.7712 156.163 61.0185 155.932 61.3592 155.731C61.7045 155.53 62.1549 155.367 62.7102 155.241C63.2655 155.11 63.9445 155.036 64.7472 155.017V154.464C64.7472 153.913 64.6282 153.498 64.3902 153.218C64.1569 152.933 63.8092 152.791 63.3472 152.791C63.0439 152.791 62.7872 152.831 62.5772 152.91C62.3719 152.985 62.1922 153.071 62.0382 153.169C61.8889 153.262 61.7582 153.349 61.6462 153.428C61.5389 153.503 61.4315 153.54 61.3242 153.54C61.2402 153.54 61.1655 153.519 61.1002 153.477C61.0395 153.43 60.9905 153.374 60.9532 153.309L60.7292 152.91C61.1212 152.532 61.5435 152.25 61.9962 152.063C62.4489 151.876 62.9505 151.783 63.5012 151.783C63.8979 151.783 64.2502 151.848 64.5582 151.979C64.8662 152.11 65.1252 152.292 65.3352 152.525C65.5452 152.758 65.7039 153.041 65.8112 153.372C65.9185 153.703 65.9722 154.067 65.9722 154.464V159ZM62.7382 158.237C62.9575 158.237 63.1582 158.216 63.3402 158.174C63.5222 158.127 63.6925 158.064 63.8512 157.985C64.0145 157.901 64.1685 157.801 64.3132 157.684C64.4625 157.567 64.6072 157.434 64.7472 157.285V155.808C64.1732 155.827 63.6855 155.873 63.2842 155.948C62.8829 156.018 62.5562 156.111 62.3042 156.228C62.0522 156.345 61.8679 156.482 61.7512 156.641C61.6392 156.8 61.5832 156.977 61.5832 157.173C61.5832 157.36 61.6135 157.521 61.6742 157.656C61.7349 157.791 61.8165 157.903 61.9192 157.992C62.0219 158.076 62.1432 158.139 62.2832 158.181C62.4232 158.218 62.5749 158.237 62.7382 158.237ZM67.8599 159V151.909H68.6019C68.7792 151.909 68.8912 151.995 68.9379 152.168L69.0359 152.938C69.3439 152.597 69.6869 152.322 70.0649 152.112C70.4476 151.902 70.8886 151.797 71.3879 151.797C71.7752 151.797 72.1159 151.862 72.4099 151.993C72.7086 152.119 72.9559 152.301 73.1519 152.539C73.3526 152.772 73.5042 153.055 73.6069 153.386C73.7096 153.717 73.7609 154.084 73.7609 154.485V159H72.5149V154.485C72.5149 153.948 72.3912 153.533 72.1439 153.239C71.9012 152.94 71.5279 152.791 71.0239 152.791C70.6552 152.791 70.3099 152.88 69.9879 153.057C69.6706 153.234 69.3766 153.475 69.1059 153.778V159H67.8599ZM80.4762 153.169C80.4389 153.22 80.4015 153.26 80.3642 153.288C80.3269 153.316 80.2732 153.33 80.2032 153.33C80.1332 153.33 80.0562 153.302 79.9722 153.246C79.8929 153.185 79.7902 153.12 79.6642 153.05C79.5382 152.98 79.3842 152.917 79.2022 152.861C79.0249 152.8 78.8055 152.77 78.5442 152.77C78.1989 152.77 77.8932 152.833 77.6272 152.959C77.3612 153.08 77.1372 153.258 76.9552 153.491C76.7779 153.724 76.6425 154.007 76.5492 154.338C76.4605 154.669 76.4162 155.04 76.4162 155.451C76.4162 155.88 76.4652 156.263 76.5632 156.599C76.6612 156.93 76.7989 157.21 76.9762 157.439C77.1535 157.663 77.3682 157.836 77.6202 157.957C77.8769 158.074 78.1639 158.132 78.4812 158.132C78.7845 158.132 79.0342 158.097 79.2302 158.027C79.4262 157.952 79.5895 157.871 79.7202 157.782C79.8509 157.693 79.9582 157.614 80.0422 157.544C80.1262 157.469 80.2102 157.432 80.2942 157.432C80.4015 157.432 80.4809 157.472 80.5322 157.551L80.8822 158.006C80.5742 158.384 80.1892 158.662 79.7272 158.839C79.2652 159.012 78.7775 159.098 78.2642 159.098C77.8209 159.098 77.4079 159.016 77.0252 158.853C76.6472 158.69 76.3182 158.454 76.0382 158.146C75.7582 157.833 75.5365 157.451 75.3732 156.998C75.2145 156.545 75.1352 156.03 75.1352 155.451C75.1352 154.924 75.2075 154.436 75.3522 153.988C75.5015 153.54 75.7162 153.155 75.9962 152.833C76.2809 152.506 76.6309 152.252 77.0462 152.07C77.4615 151.888 77.9375 151.797 78.4742 151.797C78.9689 151.797 79.4075 151.879 79.7902 152.042C80.1729 152.201 80.5112 152.427 80.8052 152.721L80.4762 153.169ZM84.9813 151.797C85.406 151.797 85.798 151.869 86.1573 152.014C86.5167 152.154 86.827 152.359 87.0883 152.63C87.3497 152.896 87.5527 153.227 87.6973 153.624C87.8467 154.016 87.9213 154.464 87.9213 154.968C87.9213 155.164 87.9003 155.295 87.8583 155.36C87.8163 155.425 87.737 155.458 87.6203 155.458H82.9023C82.9117 155.906 82.9723 156.296 83.0843 156.627C83.1963 156.958 83.3503 157.236 83.5463 157.46C83.7423 157.679 83.9757 157.845 84.2463 157.957C84.517 158.064 84.8203 158.118 85.1563 158.118C85.469 158.118 85.7373 158.083 85.9613 158.013C86.19 157.938 86.386 157.859 86.5493 157.775C86.7127 157.691 86.848 157.614 86.9553 157.544C87.0673 157.469 87.163 157.432 87.2423 157.432C87.345 157.432 87.4243 157.472 87.4803 157.551L87.8303 158.006C87.6763 158.193 87.492 158.356 87.2773 158.496C87.0627 158.631 86.8317 158.743 86.5843 158.832C86.3417 158.921 86.0897 158.986 85.8283 159.028C85.567 159.075 85.308 159.098 85.0513 159.098C84.5613 159.098 84.1087 159.016 83.6933 158.853C83.2827 158.685 82.9257 158.442 82.6223 158.125C82.3237 157.803 82.0903 157.406 81.9223 156.935C81.7543 156.464 81.6703 155.922 81.6703 155.311C81.6703 154.816 81.745 154.354 81.8943 153.925C82.0483 153.496 82.2677 153.125 82.5523 152.812C82.837 152.495 83.1847 152.247 83.5953 152.07C84.006 151.888 84.468 151.797 84.9813 151.797ZM85.0093 152.714C84.4073 152.714 83.9337 152.889 83.5883 153.239C83.243 153.584 83.0283 154.065 82.9443 154.681H86.8013C86.8013 154.392 86.7617 154.128 86.6823 153.89C86.603 153.647 86.4863 153.44 86.3323 153.267C86.1783 153.09 85.9893 152.954 85.7653 152.861C85.546 152.763 85.294 152.714 85.0093 152.714Z" fill="#111111"/>
<path d="M42.709 208.248V212H41.358V201.969H44.319C44.9537 201.969 45.5043 202.044 45.971 202.193C46.4423 202.338 46.832 202.545 47.14 202.816C47.448 203.087 47.6767 203.413 47.826 203.796C47.98 204.179 48.057 204.606 48.057 205.077C48.057 205.544 47.9753 205.971 47.812 206.358C47.6487 206.745 47.4083 207.079 47.091 207.359C46.7783 207.639 46.3887 207.858 45.922 208.017C45.4553 208.171 44.921 208.248 44.319 208.248H42.709ZM42.709 207.17H44.319C44.7063 207.17 45.047 207.119 45.341 207.016C45.6397 206.913 45.8893 206.771 46.09 206.589C46.2907 206.402 46.4423 206.181 46.545 205.924C46.6477 205.667 46.699 205.385 46.699 205.077C46.699 204.438 46.5007 203.938 46.104 203.579C45.712 203.22 45.117 203.04 44.319 203.04H42.709V207.17ZM54.4331 212H53.8801C53.7588 212 53.6608 211.981 53.5861 211.944C53.5115 211.907 53.4625 211.827 53.4391 211.706L53.2991 211.048C53.1125 211.216 52.9305 211.368 52.7531 211.503C52.5758 211.634 52.3891 211.746 52.1931 211.839C51.9971 211.928 51.7871 211.995 51.5631 212.042C51.3438 212.089 51.0988 212.112 50.8281 212.112C50.5528 212.112 50.2938 212.075 50.0511 212C49.8131 211.921 49.6055 211.804 49.4281 211.65C49.2508 211.496 49.1085 211.302 49.0011 211.069C48.8985 210.831 48.8471 210.551 48.8471 210.229C48.8471 209.949 48.9241 209.681 49.0781 209.424C49.2321 209.163 49.4795 208.932 49.8201 208.731C50.1655 208.53 50.6158 208.367 51.1711 208.241C51.7265 208.11 52.4055 208.036 53.2081 208.017V207.464C53.2081 206.913 53.0891 206.498 52.8511 206.218C52.6178 205.933 52.2701 205.791 51.8081 205.791C51.5048 205.791 51.2481 205.831 51.0381 205.91C50.8328 205.985 50.6531 206.071 50.4991 206.169C50.3498 206.262 50.2191 206.349 50.1071 206.428C49.9998 206.503 49.8925 206.54 49.7851 206.54C49.7011 206.54 49.6265 206.519 49.5611 206.477C49.5005 206.43 49.4515 206.374 49.4141 206.309L49.1901 205.91C49.5821 205.532 50.0045 205.25 50.4571 205.063C50.9098 204.876 51.4115 204.783 51.9621 204.783C52.3588 204.783 52.7111 204.848 53.0191 204.979C53.3271 205.11 53.5861 205.292 53.7961 205.525C54.0061 205.758 54.1648 206.041 54.2721 206.372C54.3795 206.703 54.4331 207.067 54.4331 207.464V212ZM51.1991 211.237C51.4185 211.237 51.6191 211.216 51.8011 211.174C51.9831 211.127 52.1535 211.064 52.3121 210.985C52.4755 210.901 52.6295 210.801 52.7741 210.684C52.9235 210.567 53.0681 210.434 53.2081 210.285V208.808C52.6341 208.827 52.1465 208.873 51.7451 208.948C51.3438 209.018 51.0171 209.111 50.7651 209.228C50.5131 209.345 50.3288 209.482 50.2121 209.641C50.1001 209.8 50.0441 209.977 50.0441 210.173C50.0441 210.36 50.0745 210.521 50.1351 210.656C50.1958 210.791 50.2775 210.903 50.3801 210.992C50.4828 211.076 50.6041 211.139 50.7441 211.181C50.8841 211.218 51.0358 211.237 51.1991 211.237ZM58.1811 214.093C58.1391 214.186 58.0854 214.261 58.0201 214.317C57.9594 214.373 57.8637 214.401 57.7331 214.401H56.8091L58.1041 211.587L55.1781 204.909H56.2561C56.3634 204.909 56.4474 204.937 56.5081 204.993C56.5687 205.044 56.6131 205.103 56.6411 205.168L58.5381 209.634C58.5801 209.737 58.6151 209.839 58.6431 209.942C58.6757 210.045 58.7037 210.15 58.7271 210.257C58.7597 210.15 58.7924 210.045 58.8251 209.942C58.8577 209.839 58.8951 209.734 58.9371 209.627L60.7781 205.168C60.8061 205.093 60.8527 205.033 60.9181 204.986C60.9881 204.935 61.0627 204.909 61.1421 204.909H62.1361L58.1811 214.093ZM65.9584 204.797C66.4764 204.797 66.9431 204.883 67.3584 205.056C67.7784 205.229 68.1331 205.474 68.4224 205.791C68.7164 206.108 68.9404 206.493 69.0944 206.946C69.2531 207.394 69.3324 207.896 69.3324 208.451C69.3324 209.011 69.2531 209.515 69.0944 209.963C68.9404 210.411 68.7164 210.794 68.4224 211.111C68.1331 211.428 67.7784 211.673 67.3584 211.846C66.9431 212.014 66.4764 212.098 65.9584 212.098C65.4404 212.098 64.9714 212.014 64.5514 211.846C64.1361 211.673 63.7814 211.428 63.4874 211.111C63.1934 210.794 62.9671 210.411 62.8084 209.963C62.6497 209.515 62.5704 209.011 62.5704 208.451C62.5704 207.896 62.6497 207.394 62.8084 206.946C62.9671 206.493 63.1934 206.108 63.4874 205.791C63.7814 205.474 64.1361 205.229 64.5514 205.056C64.9714 204.883 65.4404 204.797 65.9584 204.797ZM65.9584 211.125C66.6584 211.125 67.1811 210.892 67.5264 210.425C67.8717 209.954 68.0444 209.298 68.0444 208.458C68.0444 207.613 67.8717 206.955 67.5264 206.484C67.1811 206.013 66.6584 205.777 65.9584 205.777C65.6037 205.777 65.2957 205.838 65.0344 205.959C64.7731 206.08 64.5537 206.255 64.3764 206.484C64.2037 206.713 64.0731 206.995 63.9844 207.331C63.9004 207.662 63.8584 208.038 63.8584 208.458C63.8584 208.878 63.9004 209.254 63.9844 209.585C64.0731 209.916 64.2037 210.196 64.3764 210.425C64.5537 210.649 64.7731 210.822 65.0344 210.943C65.2957 211.064 65.6037 211.125 65.9584 211.125ZM71.9457 204.909V209.431C71.9457 209.968 72.0694 210.383 72.3167 210.677C72.564 210.971 72.9374 211.118 73.4367 211.118C73.8007 211.118 74.1437 211.032 74.4657 210.859C74.7877 210.686 75.084 210.446 75.3547 210.138V204.909H76.6007V212H75.8587C75.6814 212 75.5694 211.914 75.5227 211.741L75.4247 210.978C75.1167 211.319 74.7714 211.594 74.3887 211.804C74.006 212.009 73.5674 212.112 73.0727 212.112C72.6854 212.112 72.3424 212.049 72.0437 211.923C71.7497 211.792 71.5024 211.61 71.3017 211.377C71.101 211.144 70.9494 210.861 70.8467 210.53C70.7487 210.199 70.6997 209.832 70.6997 209.431V204.909H71.9457ZM80.796 212.112C80.236 212.112 79.8043 211.956 79.501 211.643C79.2023 211.33 79.053 210.88 79.053 210.292V205.952H78.199C78.1243 205.952 78.0613 205.931 78.01 205.889C77.9587 205.842 77.933 205.772 77.933 205.679V205.182L79.095 205.035L79.382 202.844C79.3913 202.774 79.4217 202.718 79.473 202.676C79.5243 202.629 79.5897 202.606 79.669 202.606H80.299V205.049H82.329V205.952H80.299V210.208C80.299 210.507 80.3713 210.728 80.516 210.873C80.6607 211.018 80.8473 211.09 81.076 211.09C81.2067 211.09 81.3187 211.074 81.412 211.041C81.51 211.004 81.594 210.964 81.664 210.922C81.734 210.88 81.7923 210.843 81.839 210.81C81.8903 210.773 81.9347 210.754 81.972 210.754C82.0373 210.754 82.0957 210.794 82.147 210.873L82.511 211.468C82.2963 211.669 82.0373 211.827 81.734 211.944C81.4307 212.056 81.118 212.112 80.796 212.112ZM90.6367 206.078C90.5807 206.181 90.4944 206.232 90.3777 206.232C90.3077 206.232 90.2284 206.206 90.1397 206.155C90.051 206.104 89.9414 206.048 89.8107 205.987C89.6847 205.922 89.533 205.863 89.3557 205.812C89.1784 205.756 88.9684 205.728 88.7257 205.728C88.5157 205.728 88.3267 205.756 88.1587 205.812C87.9907 205.863 87.846 205.936 87.7247 206.029C87.608 206.122 87.517 206.232 87.4517 206.358C87.391 206.479 87.3607 206.612 87.3607 206.757C87.3607 206.939 87.412 207.091 87.5147 207.212C87.622 207.333 87.762 207.438 87.9347 207.527C88.1074 207.616 88.3034 207.695 88.5227 207.765C88.742 207.83 88.966 207.903 89.1947 207.982C89.428 208.057 89.6544 208.141 89.8737 208.234C90.093 208.327 90.289 208.444 90.4617 208.584C90.6344 208.724 90.772 208.897 90.8747 209.102C90.982 209.303 91.0357 209.545 91.0357 209.83C91.0357 210.157 90.9774 210.46 90.8607 210.74C90.744 211.015 90.5714 211.256 90.3427 211.461C90.114 211.662 89.834 211.82 89.5027 211.937C89.1714 212.054 88.7887 212.112 88.3547 212.112C87.86 212.112 87.412 212.033 87.0107 211.874C86.6094 211.711 86.2687 211.503 85.9887 211.251L86.2827 210.775C86.32 210.714 86.3644 210.668 86.4157 210.635C86.467 210.602 86.5347 210.586 86.6187 210.586C86.7027 210.586 86.7914 210.619 86.8847 210.684C86.978 210.749 87.09 210.822 87.2207 210.901C87.356 210.98 87.517 211.053 87.7037 211.118C87.895 211.183 88.133 211.216 88.4177 211.216C88.6604 211.216 88.8727 211.186 89.0547 211.125C89.2367 211.06 89.3884 210.973 89.5097 210.866C89.631 210.759 89.7197 210.635 89.7757 210.495C89.8364 210.355 89.8667 210.206 89.8667 210.047C89.8667 209.851 89.813 209.69 89.7057 209.564C89.603 209.433 89.4654 209.324 89.2927 209.235C89.12 209.142 88.9217 209.062 88.6977 208.997C88.4784 208.927 88.252 208.855 88.0187 208.78C87.79 208.705 87.5637 208.621 87.3397 208.528C87.1204 208.43 86.9244 208.309 86.7517 208.164C86.579 208.019 86.439 207.842 86.3317 207.632C86.229 207.417 86.1777 207.158 86.1777 206.855C86.1777 206.584 86.2337 206.325 86.3457 206.078C86.4577 205.826 86.621 205.607 86.8357 205.42C87.0504 205.229 87.314 205.077 87.6267 204.965C87.9394 204.853 88.2964 204.797 88.6977 204.797C89.1644 204.797 89.582 204.872 89.9507 205.021C90.324 205.166 90.646 205.366 90.9167 205.623L90.6367 206.078ZM97.484 206.169C97.4467 206.22 97.4093 206.26 97.372 206.288C97.3347 206.316 97.281 206.33 97.211 206.33C97.141 206.33 97.064 206.302 96.98 206.246C96.9007 206.185 96.798 206.12 96.672 206.05C96.546 205.98 96.392 205.917 96.21 205.861C96.0327 205.8 95.8133 205.77 95.552 205.77C95.2067 205.77 94.901 205.833 94.635 205.959C94.369 206.08 94.145 206.258 93.963 206.491C93.7857 206.724 93.6503 207.007 93.557 207.338C93.4683 207.669 93.424 208.04 93.424 208.451C93.424 208.88 93.473 209.263 93.571 209.599C93.669 209.93 93.8067 210.21 93.984 210.439C94.1613 210.663 94.376 210.836 94.628 210.957C94.8847 211.074 95.1717 211.132 95.489 211.132C95.7923 211.132 96.042 211.097 96.238 211.027C96.434 210.952 96.5973 210.871 96.728 210.782C96.8587 210.693 96.966 210.614 97.05 210.544C97.134 210.469 97.218 210.432 97.302 210.432C97.4093 210.432 97.4887 210.472 97.54 210.551L97.89 211.006C97.582 211.384 97.197 211.662 96.735 211.839C96.273 212.012 95.7853 212.098 95.272 212.098C94.8287 212.098 94.4157 212.016 94.033 211.853C93.655 211.69 93.326 211.454 93.046 211.146C92.766 210.833 92.5443 210.451 92.381 209.998C92.2223 209.545 92.143 209.03 92.143 208.451C92.143 207.924 92.2153 207.436 92.36 206.988C92.5093 206.54 92.724 206.155 93.004 205.833C93.2887 205.506 93.6387 205.252 94.054 205.07C94.4693 204.888 94.9453 204.797 95.482 204.797C95.9767 204.797 96.4153 204.879 96.798 205.042C97.1807 205.201 97.519 205.427 97.813 205.721L97.484 206.169ZM99.1822 212V201.689H100.428V205.861C100.731 205.539 101.067 205.282 101.436 205.091C101.805 204.895 102.229 204.797 102.71 204.797C103.097 204.797 103.438 204.862 103.732 204.993C104.031 205.119 104.278 205.301 104.474 205.539C104.675 205.772 104.826 206.055 104.929 206.386C105.032 206.717 105.083 207.084 105.083 207.485V212H103.837V207.485C103.837 206.948 103.713 206.533 103.466 206.239C103.223 205.94 102.85 205.791 102.346 205.791C101.977 205.791 101.632 205.88 101.31 206.057C100.993 206.234 100.699 206.475 100.428 206.778V212H99.1822ZM109.768 204.797C110.193 204.797 110.585 204.869 110.944 205.014C111.304 205.154 111.614 205.359 111.875 205.63C112.137 205.896 112.34 206.227 112.484 206.624C112.634 207.016 112.708 207.464 112.708 207.968C112.708 208.164 112.687 208.295 112.645 208.36C112.603 208.425 112.524 208.458 112.407 208.458H107.689C107.699 208.906 107.759 209.296 107.871 209.627C107.983 209.958 108.137 210.236 108.333 210.46C108.529 210.679 108.763 210.845 109.033 210.957C109.304 211.064 109.607 211.118 109.943 211.118C110.256 211.118 110.524 211.083 110.748 211.013C110.977 210.938 111.173 210.859 111.336 210.775C111.5 210.691 111.635 210.614 111.742 210.544C111.854 210.469 111.95 210.432 112.029 210.432C112.132 210.432 112.211 210.472 112.267 210.551L112.617 211.006C112.463 211.193 112.279 211.356 112.064 211.496C111.85 211.631 111.619 211.743 111.371 211.832C111.129 211.921 110.877 211.986 110.615 212.028C110.354 212.075 110.095 212.098 109.838 212.098C109.348 212.098 108.896 212.016 108.48 211.853C108.07 211.685 107.713 211.442 107.409 211.125C107.111 210.803 106.877 210.406 106.709 209.935C106.541 209.464 106.457 208.922 106.457 208.311C106.457 207.816 106.532 207.354 106.681 206.925C106.835 206.496 107.055 206.125 107.339 205.812C107.624 205.495 107.972 205.247 108.382 205.07C108.793 204.888 109.255 204.797 109.768 204.797ZM109.796 205.714C109.194 205.714 108.721 205.889 108.375 206.239C108.03 206.584 107.815 207.065 107.731 207.681H111.588C111.588 207.392 111.549 207.128 111.469 206.89C111.39 206.647 111.273 206.44 111.119 206.267C110.965 206.09 110.776 205.954 110.552 205.861C110.333 205.763 110.081 205.714 109.796 205.714ZM119.294 212C119.117 212 119.005 211.914 118.958 211.741L118.846 210.88C118.543 211.249 118.195 211.545 117.803 211.769C117.416 211.988 116.97 212.098 116.466 212.098C116.06 212.098 115.692 212.021 115.36 211.867C115.029 211.708 114.747 211.477 114.513 211.174C114.28 210.871 114.1 210.493 113.974 210.04C113.848 209.587 113.785 209.067 113.785 208.479C113.785 207.956 113.855 207.471 113.995 207.023C114.135 206.57 114.336 206.178 114.597 205.847C114.863 205.516 115.185 205.257 115.563 205.07C115.941 204.879 116.371 204.783 116.851 204.783C117.285 204.783 117.656 204.858 117.964 205.007C118.272 205.152 118.548 205.357 118.79 205.623V201.689H120.036V212H119.294ZM116.879 211.09C117.285 211.09 117.64 210.997 117.943 210.81C118.251 210.623 118.534 210.36 118.79 210.019V206.589C118.562 206.281 118.31 206.066 118.034 205.945C117.764 205.819 117.463 205.756 117.131 205.756C116.469 205.756 115.96 205.992 115.605 206.463C115.251 206.934 115.073 207.606 115.073 208.479C115.073 208.941 115.113 209.338 115.192 209.669C115.272 209.996 115.388 210.266 115.542 210.481C115.696 210.691 115.885 210.845 116.109 210.943C116.333 211.041 116.59 211.09 116.879 211.09ZM123.202 204.909V209.431C123.202 209.968 123.325 210.383 123.573 210.677C123.82 210.971 124.193 211.118 124.693 211.118C125.057 211.118 125.4 211.032 125.722 210.859C126.044 210.686 126.34 210.446 126.611 210.138V204.909H127.857V212H127.115C126.937 212 126.825 211.914 126.779 211.741L126.681 210.978C126.373 211.319 126.027 211.594 125.645 211.804C125.262 212.009 124.823 212.112 124.329 212.112C123.941 212.112 123.598 212.049 123.3 211.923C123.006 211.792 122.758 211.61 122.558 211.377C122.357 211.144 122.205 210.861 122.103 210.53C122.005 210.199 121.956 209.832 121.956 209.431V204.909H123.202ZM131.289 201.689V212H130.043V201.689H131.289ZM136.292 204.797C136.717 204.797 137.109 204.869 137.468 205.014C137.827 205.154 138.138 205.359 138.399 205.63C138.66 205.896 138.863 206.227 139.008 206.624C139.157 207.016 139.232 207.464 139.232 207.968C139.232 208.164 139.211 208.295 139.169 208.36C139.127 208.425 139.048 208.458 138.931 208.458H134.213C134.222 208.906 134.283 209.296 134.395 209.627C134.507 209.958 134.661 210.236 134.857 210.46C135.053 210.679 135.286 210.845 135.557 210.957C135.828 211.064 136.131 211.118 136.467 211.118C136.78 211.118 137.048 211.083 137.272 211.013C137.501 210.938 137.697 210.859 137.86 210.775C138.023 210.691 138.159 210.614 138.266 210.544C138.378 210.469 138.474 210.432 138.553 210.432C138.656 210.432 138.735 210.472 138.791 210.551L139.141 211.006C138.987 211.193 138.803 211.356 138.588 211.496C138.373 211.631 138.142 211.743 137.895 211.832C137.652 211.921 137.4 211.986 137.139 212.028C136.878 212.075 136.619 212.098 136.362 212.098C135.872 212.098 135.419 212.016 135.004 211.853C134.593 211.685 134.236 211.442 133.933 211.125C133.634 210.803 133.401 210.406 133.233 209.935C133.065 209.464 132.981 208.922 132.981 208.311C132.981 207.816 133.056 207.354 133.205 206.925C133.359 206.496 133.578 206.125 133.863 205.812C134.148 205.495 134.495 205.247 134.906 205.07C135.317 204.888 135.779 204.797 136.292 204.797ZM136.32 205.714C135.718 205.714 135.244 205.889 134.899 206.239C134.554 206.584 134.339 207.065 134.255 207.681H138.112C138.112 207.392 138.072 207.128 137.993 206.89C137.914 206.647 137.797 206.44 137.643 206.267C137.489 206.09 137.3 205.954 137.076 205.861C136.857 205.763 136.605 205.714 136.32 205.714ZM145.818 212C145.64 212 145.528 211.914 145.482 211.741L145.37 210.88C145.066 211.249 144.719 211.545 144.327 211.769C143.939 211.988 143.494 212.098 142.99 212.098C142.584 212.098 142.215 212.021 141.884 211.867C141.552 211.708 141.27 211.477 141.037 211.174C140.803 210.871 140.624 210.493 140.498 210.04C140.372 209.587 140.309 209.067 140.309 208.479C140.309 207.956 140.379 207.471 140.519 207.023C140.659 206.57 140.859 206.178 141.121 205.847C141.387 205.516 141.709 205.257 142.087 205.07C142.465 204.879 142.894 204.783 143.375 204.783C143.809 204.783 144.18 204.858 144.488 205.007C144.796 205.152 145.071 205.357 145.314 205.623V201.689H146.56V212H145.818ZM143.403 211.09C143.809 211.09 144.163 210.997 144.467 210.81C144.775 210.623 145.057 210.36 145.314 210.019V206.589C145.085 206.281 144.833 206.066 144.558 205.945C144.287 205.819 143.986 205.756 143.655 205.756C142.992 205.756 142.483 205.992 142.129 206.463C141.774 206.934 141.597 207.606 141.597 208.479C141.597 208.941 141.636 209.338 141.716 209.669C141.795 209.996 141.912 210.266 142.066 210.481C142.22 210.691 142.409 210.845 142.633 210.943C142.857 211.041 143.113 211.09 143.403 211.09ZM148.521 211.23C148.521 211.109 148.542 210.994 148.584 210.887C148.631 210.78 148.691 210.686 148.766 210.607C148.845 210.528 148.939 210.465 149.046 210.418C149.153 210.371 149.268 210.348 149.389 210.348C149.51 210.348 149.625 210.371 149.732 210.418C149.839 210.465 149.933 210.528 150.012 210.607C150.091 210.686 150.152 210.78 150.194 210.887C150.241 210.994 150.264 211.109 150.264 211.23C150.264 211.356 150.241 211.473 150.194 211.58C150.152 211.683 150.091 211.774 150.012 211.853C149.933 211.932 149.839 211.993 149.732 212.035C149.625 212.082 149.51 212.105 149.389 212.105C149.268 212.105 149.153 212.082 149.046 212.035C148.939 211.993 148.845 211.932 148.766 211.853C148.691 211.774 148.631 211.683 148.584 211.58C148.542 211.473 148.521 211.356 148.521 211.23ZM148.521 205.98C148.521 205.859 148.542 205.744 148.584 205.637C148.631 205.53 148.691 205.436 148.766 205.357C148.845 205.278 148.939 205.215 149.046 205.168C149.153 205.121 149.268 205.098 149.389 205.098C149.51 205.098 149.625 205.121 149.732 205.168C149.839 205.215 149.933 205.278 150.012 205.357C150.091 205.436 150.152 205.53 150.194 205.637C150.241 205.744 150.264 205.859 150.264 205.98C150.264 206.106 150.241 206.223 150.194 206.33C150.152 206.433 150.091 206.524 150.012 206.603C149.933 206.682 149.839 206.745 149.732 206.792C149.625 206.834 149.51 206.855 149.389 206.855C149.268 206.855 149.153 206.834 149.046 206.792C148.939 206.745 148.845 206.682 148.766 206.603C148.691 206.524 148.631 206.433 148.584 206.33C148.542 206.223 148.521 206.106 148.521 205.98ZM164.394 206.988C164.394 207.739 164.275 208.43 164.037 209.06C163.799 209.685 163.463 210.224 163.029 210.677C162.595 211.13 162.073 211.482 161.461 211.734C160.855 211.981 160.183 212.105 159.445 212.105C158.708 212.105 158.036 211.981 157.429 211.734C156.823 211.482 156.302 211.13 155.868 210.677C155.434 210.224 155.098 209.685 154.86 209.06C154.622 208.43 154.503 207.739 154.503 206.988C154.503 206.237 154.622 205.548 154.86 204.923C155.098 204.293 155.434 203.752 155.868 203.299C156.302 202.842 156.823 202.487 157.429 202.235C158.036 201.983 158.708 201.857 159.445 201.857C160.183 201.857 160.855 201.983 161.461 202.235C162.073 202.487 162.595 202.842 163.029 203.299C163.463 203.752 163.799 204.293 164.037 204.923C164.275 205.548 164.394 206.237 164.394 206.988ZM163.001 206.988C163.001 206.372 162.917 205.819 162.749 205.329C162.581 204.839 162.343 204.426 162.035 204.09C161.727 203.749 161.354 203.488 160.915 203.306C160.477 203.124 159.987 203.033 159.445 203.033C158.909 203.033 158.421 203.124 157.982 203.306C157.544 203.488 157.168 203.749 156.855 204.09C156.547 204.426 156.309 204.839 156.141 205.329C155.973 205.819 155.889 206.372 155.889 206.988C155.889 207.604 155.973 208.157 156.141 208.647C156.309 209.132 156.547 209.545 156.855 209.886C157.168 210.222 157.544 210.481 157.982 210.663C158.421 210.84 158.909 210.929 159.445 210.929C159.987 210.929 160.477 210.84 160.915 210.663C161.354 210.481 161.727 210.222 162.035 209.886C162.343 209.545 162.581 209.132 162.749 208.647C162.917 208.157 163.001 207.604 163.001 206.988ZM170.888 206.169C170.851 206.22 170.814 206.26 170.776 206.288C170.739 206.316 170.685 206.33 170.615 206.33C170.545 206.33 170.468 206.302 170.384 206.246C170.305 206.185 170.202 206.12 170.076 206.05C169.95 205.98 169.796 205.917 169.614 205.861C169.437 205.8 169.218 205.77 168.956 205.77C168.611 205.77 168.305 205.833 168.039 205.959C167.773 206.08 167.549 206.258 167.367 206.491C167.19 206.724 167.055 207.007 166.961 207.338C166.873 207.669 166.828 208.04 166.828 208.451C166.828 208.88 166.877 209.263 166.975 209.599C167.073 209.93 167.211 210.21 167.388 210.439C167.566 210.663 167.78 210.836 168.032 210.957C168.289 211.074 168.576 211.132 168.893 211.132C169.197 211.132 169.446 211.097 169.642 211.027C169.838 210.952 170.002 210.871 170.132 210.782C170.263 210.693 170.37 210.614 170.454 210.544C170.538 210.469 170.622 210.432 170.706 210.432C170.814 210.432 170.893 210.472 170.944 210.551L171.294 211.006C170.986 211.384 170.601 211.662 170.139 211.839C169.677 212.012 169.19 212.098 168.676 212.098C168.233 212.098 167.82 212.016 167.437 211.853C167.059 211.69 166.73 211.454 166.45 211.146C166.17 210.833 165.949 210.451 165.785 209.998C165.627 209.545 165.547 209.03 165.547 208.451C165.547 207.924 165.62 207.436 165.764 206.988C165.914 206.54 166.128 206.155 166.408 205.833C166.693 205.506 167.043 205.252 167.458 205.07C167.874 204.888 168.35 204.797 168.886 204.797C169.381 204.797 169.82 204.879 170.202 205.042C170.585 205.201 170.923 205.427 171.217 205.721L170.888 206.169ZM174.735 212.112C174.175 212.112 173.744 211.956 173.44 211.643C173.142 211.33 172.992 210.88 172.992 210.292V205.952H172.138C172.064 205.952 172.001 205.931 171.949 205.889C171.898 205.842 171.872 205.772 171.872 205.679V205.182L173.034 205.035L173.321 202.844C173.331 202.774 173.361 202.718 173.412 202.676C173.464 202.629 173.529 202.606 173.608 202.606H174.238V205.049H176.268V205.952H174.238V210.208C174.238 210.507 174.311 210.728 174.455 210.873C174.6 211.018 174.787 211.09 175.015 211.09C175.146 211.09 175.258 211.074 175.351 211.041C175.449 211.004 175.533 210.964 175.603 210.922C175.673 210.88 175.732 210.843 175.778 210.81C175.83 210.773 175.874 210.754 175.911 210.754C175.977 210.754 176.035 210.794 176.086 210.873L176.45 211.468C176.236 211.669 175.977 211.827 175.673 211.944C175.37 212.056 175.057 212.112 174.735 212.112ZM180.679 204.797C181.197 204.797 181.664 204.883 182.079 205.056C182.499 205.229 182.854 205.474 183.143 205.791C183.437 206.108 183.661 206.493 183.815 206.946C183.974 207.394 184.053 207.896 184.053 208.451C184.053 209.011 183.974 209.515 183.815 209.963C183.661 210.411 183.437 210.794 183.143 211.111C182.854 211.428 182.499 211.673 182.079 211.846C181.664 212.014 181.197 212.098 180.679 212.098C180.161 212.098 179.692 212.014 179.272 211.846C178.857 211.673 178.502 211.428 178.208 211.111C177.914 210.794 177.688 210.411 177.529 209.963C177.37 209.515 177.291 209.011 177.291 208.451C177.291 207.896 177.37 207.394 177.529 206.946C177.688 206.493 177.914 206.108 178.208 205.791C178.502 205.474 178.857 205.229 179.272 205.056C179.692 204.883 180.161 204.797 180.679 204.797ZM180.679 211.125C181.379 211.125 181.902 210.892 182.247 210.425C182.592 209.954 182.765 209.298 182.765 208.458C182.765 207.613 182.592 206.955 182.247 206.484C181.902 206.013 181.379 205.777 180.679 205.777C180.324 205.777 180.016 205.838 179.755 205.959C179.494 206.08 179.274 206.255 179.097 206.484C178.924 206.713 178.794 206.995 178.705 207.331C178.621 207.662 178.579 208.038 178.579 208.458C178.579 208.878 178.621 209.254 178.705 209.585C178.794 209.916 178.924 210.196 179.097 210.425C179.274 210.649 179.494 210.822 179.755 210.943C180.016 211.064 180.324 211.125 180.679 211.125ZM185.63 212V201.689H186.883V205.931C187.177 205.59 187.513 205.317 187.891 205.112C188.274 204.902 188.71 204.797 189.2 204.797C189.611 204.797 189.982 204.874 190.313 205.028C190.645 205.182 190.927 205.413 191.16 205.721C191.394 206.024 191.573 206.402 191.699 206.855C191.825 207.303 191.888 207.821 191.888 208.409C191.888 208.932 191.818 209.419 191.678 209.872C191.538 210.32 191.335 210.71 191.069 211.041C190.808 211.368 190.486 211.627 190.103 211.818C189.725 212.005 189.298 212.098 188.822 212.098C188.365 212.098 187.975 212.009 187.653 211.832C187.336 211.655 187.058 211.407 186.82 211.09L186.757 211.734C186.72 211.911 186.613 212 186.435 212H185.63ZM188.794 205.791C188.388 205.791 188.031 205.884 187.723 206.071C187.42 206.258 187.14 206.521 186.883 206.862V210.292C187.107 210.6 187.355 210.817 187.625 210.943C187.901 211.069 188.206 211.132 188.542 211.132C189.205 211.132 189.714 210.896 190.068 210.425C190.423 209.954 190.6 209.282 190.6 208.409C190.6 207.947 190.558 207.55 190.474 207.219C190.395 206.888 190.278 206.617 190.124 206.407C189.97 206.192 189.781 206.036 189.557 205.938C189.333 205.84 189.079 205.791 188.794 205.791ZM196.216 204.797C196.64 204.797 197.032 204.869 197.392 205.014C197.751 205.154 198.061 205.359 198.323 205.63C198.584 205.896 198.787 206.227 198.932 206.624C199.081 207.016 199.156 207.464 199.156 207.968C199.156 208.164 199.135 208.295 199.093 208.36C199.051 208.425 198.971 208.458 198.855 208.458H194.137C194.146 208.906 194.207 209.296 194.319 209.627C194.431 209.958 194.585 210.236 194.781 210.46C194.977 210.679 195.21 210.845 195.481 210.957C195.751 211.064 196.055 211.118 196.391 211.118C196.703 211.118 196.972 211.083 197.196 211.013C197.424 210.938 197.62 210.859 197.784 210.775C197.947 210.691 198.082 210.614 198.19 210.544C198.302 210.469 198.397 210.432 198.477 210.432C198.579 210.432 198.659 210.472 198.715 210.551L199.065 211.006C198.911 211.193 198.726 211.356 198.512 211.496C198.297 211.631 198.066 211.743 197.819 211.832C197.576 211.921 197.324 211.986 197.063 212.028C196.801 212.075 196.542 212.098 196.286 212.098C195.796 212.098 195.343 212.016 194.928 211.853C194.517 211.685 194.16 211.442 193.857 211.125C193.558 210.803 193.325 210.406 193.157 209.935C192.989 209.464 192.905 208.922 192.905 208.311C192.905 207.816 192.979 207.354 193.129 206.925C193.283 206.496 193.502 206.125 193.787 205.812C194.071 205.495 194.419 205.247 194.83 205.07C195.24 204.888 195.702 204.797 196.216 204.797ZM196.244 205.714C195.642 205.714 195.168 205.889 194.823 206.239C194.477 206.584 194.263 207.065 194.179 207.681H198.036C198.036 207.392 197.996 207.128 197.917 206.89C197.837 206.647 197.721 206.44 197.567 206.267C197.413 206.09 197.224 205.954 197 205.861C196.78 205.763 196.528 205.714 196.244 205.714ZM200.751 212V204.909H201.465C201.6 204.909 201.693 204.935 201.745 204.986C201.796 205.037 201.831 205.126 201.85 205.252L201.934 206.358C202.176 205.863 202.475 205.478 202.83 205.203C203.189 204.923 203.609 204.783 204.09 204.783C204.286 204.783 204.463 204.806 204.622 204.853C204.78 204.895 204.927 204.956 205.063 205.035L204.902 205.966C204.869 206.083 204.797 206.141 204.685 206.141C204.619 206.141 204.519 206.12 204.384 206.078C204.248 206.031 204.059 206.008 203.817 206.008C203.383 206.008 203.019 206.134 202.725 206.386C202.435 206.638 202.193 207.004 201.997 207.485V212H200.751ZM210.091 211.048H212.247V204.209C212.247 204.004 212.254 203.796 212.268 203.586L210.476 205.119C210.429 205.156 210.383 205.184 210.336 205.203C210.289 205.217 210.245 205.224 210.203 205.224C210.133 205.224 210.07 205.21 210.014 205.182C209.958 205.149 209.916 205.112 209.888 205.07L209.496 204.531L212.478 201.948H213.493V211.048H215.467V212H210.091V211.048ZM220.753 205.854C221.154 205.854 221.535 205.922 221.894 206.057C222.253 206.188 222.568 206.381 222.839 206.638C223.11 206.89 223.324 207.203 223.483 207.576C223.642 207.945 223.721 208.367 223.721 208.843C223.721 209.305 223.637 209.734 223.469 210.131C223.301 210.528 223.065 210.873 222.762 211.167C222.463 211.461 222.102 211.692 221.677 211.86C221.252 212.028 220.786 212.112 220.277 212.112C219.773 212.112 219.316 212.033 218.905 211.874C218.499 211.711 218.151 211.482 217.862 211.188C217.573 210.889 217.349 210.53 217.19 210.11C217.036 209.685 216.959 209.212 216.959 208.689C216.959 208.25 217.057 207.784 217.253 207.289C217.449 206.794 217.759 206.262 218.184 205.693L220.725 202.27C220.79 202.186 220.881 202.116 220.998 202.06C221.115 201.999 221.248 201.969 221.397 201.969H222.503L219.024 206.372C219.262 206.209 219.526 206.083 219.815 205.994C220.104 205.901 220.417 205.854 220.753 205.854ZM218.163 208.906C218.163 209.228 218.21 209.522 218.303 209.788C218.396 210.054 218.532 210.283 218.709 210.474C218.891 210.665 219.11 210.815 219.367 210.922C219.628 211.025 219.925 211.076 220.256 211.076C220.592 211.076 220.895 211.022 221.166 210.915C221.437 210.808 221.668 210.658 221.859 210.467C222.055 210.276 222.204 210.049 222.307 209.788C222.414 209.527 222.468 209.242 222.468 208.934C222.468 208.607 222.417 208.313 222.314 208.052C222.211 207.786 222.067 207.562 221.88 207.38C221.693 207.193 221.469 207.051 221.208 206.953C220.947 206.855 220.66 206.806 220.347 206.806C220.011 206.806 219.708 206.864 219.437 206.981C219.166 207.093 218.935 207.247 218.744 207.443C218.557 207.634 218.413 207.858 218.31 208.115C218.212 208.367 218.163 208.631 218.163 208.906Z" fill="#797979"/>
<path d="M335.557 311.501L335.557 311.501L330.418 305.966L330.418 305.966C330.151 305.678 329.709 305.678 329.442 305.967L329.442 305.967C329.186 306.245 329.186 306.687 329.443 306.965L329.443 306.965L334.118 312L329.443 317.035L329.443 317.036C329.186 317.313 329.185 317.755 329.442 318.033L329.442 318.033C329.573 318.175 329.75 318.25 329.931 318.25C330.111 318.25 330.287 318.175 330.418 318.034L330.418 318.034L335.556 312.5C335.556 312.5 335.557 312.5 335.557 312.499C335.683 312.364 335.75 312.184 335.75 312C335.75 311.816 335.682 311.636 335.557 311.501Z" fill="#999999" stroke="#999999" stroke-width="0.5"/>
<path d="M63.764 308.828C63.716 308.908 63.6653 308.969 63.612 309.012C63.5587 309.049 63.4893 309.068 63.404 309.068C63.3133 309.068 63.2067 309.023 63.084 308.932C62.9667 308.841 62.8147 308.743 62.628 308.636C62.4467 308.524 62.2253 308.423 61.964 308.332C61.708 308.241 61.396 308.196 61.028 308.196C60.6813 308.196 60.3747 308.244 60.108 308.34C59.8413 308.431 59.6173 308.556 59.436 308.716C59.26 308.876 59.1267 309.065 59.036 309.284C58.9453 309.497 58.9 309.729 58.9 309.98C58.9 310.3 58.9773 310.567 59.132 310.78C59.292 310.988 59.5 311.167 59.756 311.316C60.0173 311.465 60.3107 311.596 60.636 311.708C60.9667 311.815 61.3027 311.927 61.644 312.044C61.9907 312.161 62.3267 312.295 62.652 312.444C62.9827 312.588 63.276 312.772 63.532 312.996C63.7933 313.22 64.0013 313.495 64.156 313.82C64.316 314.145 64.396 314.545 64.396 315.02C64.396 315.521 64.3107 315.993 64.14 316.436C63.9693 316.873 63.7187 317.255 63.388 317.58C63.0627 317.905 62.66 318.161 62.18 318.348C61.7053 318.535 61.164 318.628 60.556 318.628C59.8147 318.628 59.1373 318.495 58.524 318.228C57.916 317.956 57.396 317.591 56.964 317.132L57.412 316.396C57.4547 316.337 57.5053 316.289 57.564 316.252C57.628 316.209 57.6973 316.188 57.772 316.188C57.884 316.188 58.012 316.249 58.156 316.372C58.3 316.489 58.4787 316.62 58.692 316.764C58.9107 316.908 59.172 317.041 59.476 317.164C59.7853 317.281 60.1613 317.34 60.604 317.34C60.972 317.34 61.3 317.289 61.588 317.188C61.876 317.087 62.1187 316.945 62.316 316.764C62.5187 316.577 62.6733 316.356 62.78 316.1C62.8867 315.844 62.94 315.559 62.94 315.244C62.94 314.897 62.86 314.615 62.7 314.396C62.5453 314.172 62.34 313.985 62.084 313.836C61.828 313.687 61.5347 313.561 61.204 313.46C60.8787 313.353 60.5427 313.247 60.196 313.14C59.8547 313.028 59.5187 312.9 59.188 312.756C58.8627 312.612 58.572 312.425 58.316 312.196C58.06 311.967 57.852 311.681 57.692 311.34C57.5373 310.993 57.46 310.567 57.46 310.06C57.46 309.655 57.5373 309.263 57.692 308.884C57.852 308.505 58.0813 308.169 58.38 307.876C58.6787 307.583 59.0467 307.348 59.484 307.172C59.9267 306.996 60.4333 306.908 61.004 306.908C61.644 306.908 62.228 307.009 62.756 307.212C63.284 307.415 63.7453 307.708 64.14 308.092L63.764 308.828ZM69.3604 310.268C69.8457 310.268 70.2937 310.351 70.7044 310.516C71.115 310.676 71.4697 310.911 71.7684 311.22C72.067 311.524 72.299 311.903 72.4644 312.356C72.635 312.804 72.7204 313.316 72.7204 313.892C72.7204 314.116 72.6964 314.265 72.6484 314.34C72.6004 314.415 72.5097 314.452 72.3764 314.452H66.9844C66.995 314.964 67.0644 315.409 67.1924 315.788C67.3204 316.167 67.4964 316.484 67.7204 316.74C67.9444 316.991 68.211 317.18 68.5204 317.308C68.8297 317.431 69.1764 317.492 69.5604 317.492C69.9177 317.492 70.2244 317.452 70.4804 317.372C70.7417 317.287 70.9657 317.196 71.1524 317.1C71.339 317.004 71.4937 316.916 71.6164 316.836C71.7444 316.751 71.8537 316.708 71.9444 316.708C72.0617 316.708 72.1524 316.753 72.2164 316.844L72.6164 317.364C72.4404 317.577 72.2297 317.764 71.9844 317.924C71.739 318.079 71.475 318.207 71.1924 318.308C70.915 318.409 70.627 318.484 70.3284 318.532C70.0297 318.585 69.7337 318.612 69.4404 318.612C68.8804 318.612 68.363 318.519 67.8884 318.332C67.419 318.14 67.011 317.863 66.6644 317.5C66.323 317.132 66.0564 316.679 65.8644 316.14C65.6724 315.601 65.5764 314.983 65.5764 314.284C65.5764 313.719 65.6617 313.191 65.8324 312.7C66.0084 312.209 66.259 311.785 66.5844 311.428C66.9097 311.065 67.307 310.783 67.7764 310.58C68.2457 310.372 68.7737 310.268 69.3604 310.268ZM69.3924 311.316C68.7044 311.316 68.163 311.516 67.7684 311.916C67.3737 312.311 67.1284 312.86 67.0324 313.564H71.4404C71.4404 313.233 71.395 312.932 71.3044 312.66C71.2137 312.383 71.0804 312.145 70.9044 311.948C70.7284 311.745 70.5124 311.591 70.2564 311.484C70.0057 311.372 69.7177 311.316 69.3924 311.316ZM76.999 318.628C76.359 318.628 75.8657 318.449 75.519 318.092C75.1777 317.735 75.007 317.22 75.007 316.548V311.588H74.031C73.9457 311.588 73.8737 311.564 73.815 311.516C73.7563 311.463 73.727 311.383 73.727 311.276V310.708L75.055 310.54L75.383 308.036C75.3937 307.956 75.4283 307.892 75.487 307.844C75.5457 307.791 75.6203 307.764 75.711 307.764H76.431V310.556H78.751V311.588H76.431V316.452C76.431 316.793 76.5137 317.047 76.679 317.212C76.8443 317.377 77.0577 317.46 77.319 317.46C77.4683 317.46 77.5963 317.441 77.703 317.404C77.815 317.361 77.911 317.316 77.991 317.268C78.071 317.22 78.1377 317.177 78.191 317.14C78.2497 317.097 78.3003 317.076 78.343 317.076C78.4177 317.076 78.4843 317.121 78.543 317.212L78.959 317.892C78.7137 318.121 78.4177 318.303 78.071 318.436C77.7243 318.564 77.367 318.628 76.999 318.628ZM82.9678 318.628C82.3278 318.628 81.8344 318.449 81.4878 318.092C81.1464 317.735 80.9758 317.22 80.9758 316.548V311.588H79.9998C79.9144 311.588 79.8424 311.564 79.7838 311.516C79.7251 311.463 79.6958 311.383 79.6958 311.276V310.708L81.0238 310.54L81.3518 308.036C81.3624 307.956 81.3971 307.892 81.4557 307.844C81.5144 307.791 81.5891 307.764 81.6798 307.764H82.3998V310.556H84.7198V311.588H82.3998V316.452C82.3998 316.793 82.4824 317.047 82.6478 317.212C82.8131 317.377 83.0264 317.46 83.2878 317.46C83.4371 317.46 83.5651 317.441 83.6718 317.404C83.7838 317.361 83.8798 317.316 83.9598 317.268C84.0398 317.22 84.1064 317.177 84.1598 317.14C84.2184 317.097 84.2691 317.076 84.3118 317.076C84.3864 317.076 84.4531 317.121 84.5118 317.212L84.9278 317.892C84.6824 318.121 84.3864 318.303 84.0398 318.436C83.6931 318.564 83.3358 318.628 82.9678 318.628ZM88.0645 310.396V318.5H86.6405V310.396H88.0645ZM88.3845 307.852C88.3845 307.991 88.3552 308.121 88.2965 308.244C88.2432 308.361 88.1685 308.468 88.0725 308.564C87.9818 308.655 87.8752 308.727 87.7525 308.78C87.6298 308.833 87.4992 308.86 87.3605 308.86C87.2218 308.86 87.0912 308.833 86.9685 308.78C86.8512 308.727 86.7445 308.655 86.6485 308.564C86.5578 308.468 86.4858 308.361 86.4325 308.244C86.3792 308.121 86.3525 307.991 86.3525 307.852C86.3525 307.713 86.3792 307.583 86.4325 307.46C86.4858 307.332 86.5578 307.223 86.6485 307.132C86.7445 307.036 86.8512 306.961 86.9685 306.908C87.0912 306.855 87.2218 306.828 87.3605 306.828C87.4992 306.828 87.6298 306.855 87.7525 306.908C87.8752 306.961 87.9818 307.036 88.0725 307.132C88.1685 307.223 88.2432 307.332 88.2965 307.46C88.3552 307.583 88.3845 307.713 88.3845 307.852ZM90.5743 318.5V310.396H91.4223C91.6249 310.396 91.7529 310.495 91.8063 310.692L91.9183 311.572C92.2703 311.183 92.6623 310.868 93.0943 310.628C93.5316 310.388 94.0356 310.268 94.6063 310.268C95.0489 310.268 95.4383 310.343 95.7743 310.492C96.1156 310.636 96.3983 310.844 96.6223 311.116C96.8516 311.383 97.0249 311.705 97.1423 312.084C97.2596 312.463 97.3183 312.881 97.3183 313.34V318.5H95.8943V313.34C95.8943 312.727 95.7529 312.252 95.4703 311.916C95.1929 311.575 94.7663 311.404 94.1903 311.404C93.7689 311.404 93.3743 311.505 93.0063 311.708C92.6436 311.911 92.3076 312.185 91.9983 312.532V318.5H90.5743ZM102.193 310.26C102.545 310.26 102.873 310.3 103.177 310.38C103.486 310.455 103.766 310.567 104.017 310.716H106.217V311.244C106.217 311.42 106.105 311.532 105.881 311.58L104.961 311.708C105.142 312.055 105.233 312.441 105.233 312.868C105.233 313.263 105.156 313.623 105.001 313.948C104.852 314.268 104.641 314.543 104.369 314.772C104.102 315.001 103.782 315.177 103.409 315.3C103.041 315.423 102.636 315.484 102.193 315.484C101.814 315.484 101.457 315.439 101.121 315.348C100.95 315.455 100.82 315.569 100.729 315.692C100.644 315.815 100.601 315.935 100.601 316.052C100.601 316.244 100.678 316.391 100.833 316.492C100.988 316.588 101.193 316.657 101.449 316.7C101.705 316.743 101.996 316.769 102.321 316.78C102.646 316.791 102.977 316.809 103.313 316.836C103.654 316.857 103.988 316.897 104.313 316.956C104.638 317.015 104.929 317.111 105.185 317.244C105.441 317.377 105.646 317.561 105.801 317.796C105.956 318.031 106.033 318.335 106.033 318.708C106.033 319.055 105.945 319.391 105.769 319.716C105.598 320.041 105.35 320.329 105.025 320.58C104.7 320.836 104.302 321.039 103.833 321.188C103.364 321.343 102.833 321.42 102.241 321.42C101.649 321.42 101.129 321.361 100.681 321.244C100.238 321.127 99.8702 320.969 99.5769 320.772C99.2835 320.575 99.0622 320.345 98.9129 320.084C98.7689 319.828 98.6969 319.559 98.6969 319.276C98.6969 318.876 98.8222 318.537 99.0729 318.26C99.3289 317.977 99.6782 317.753 100.121 317.588C99.8915 317.481 99.7075 317.34 99.5689 317.164C99.4355 316.983 99.3689 316.743 99.3689 316.444C99.3689 316.327 99.3902 316.207 99.4329 316.084C99.4755 315.956 99.5395 315.831 99.6249 315.708C99.7155 315.585 99.8249 315.468 99.9529 315.356C100.081 315.244 100.23 315.145 100.401 315.06C100.001 314.836 99.6862 314.54 99.4569 314.172C99.2329 313.799 99.1209 313.364 99.1209 312.868C99.1209 312.473 99.1955 312.116 99.3449 311.796C99.4995 311.471 99.7129 311.196 99.9849 310.972C100.257 310.743 100.58 310.567 100.953 310.444C101.332 310.321 101.745 310.26 102.193 310.26ZM104.721 318.94C104.721 318.737 104.665 318.575 104.553 318.452C104.441 318.329 104.289 318.236 104.097 318.172C103.905 318.103 103.684 318.052 103.433 318.02C103.182 317.988 102.918 317.967 102.641 317.956C102.364 317.94 102.081 317.924 101.793 317.908C101.505 317.892 101.23 317.863 100.969 317.82C100.665 317.964 100.417 318.14 100.225 318.348C100.038 318.556 99.9449 318.804 99.9449 319.092C99.9449 319.273 99.9902 319.441 100.081 319.596C100.177 319.756 100.321 319.892 100.513 320.004C100.705 320.121 100.945 320.212 101.233 320.276C101.526 320.345 101.87 320.38 102.265 320.38C102.649 320.38 102.993 320.345 103.297 320.276C103.601 320.207 103.857 320.108 104.065 319.98C104.278 319.852 104.441 319.7 104.553 319.524C104.665 319.348 104.721 319.153 104.721 318.94ZM102.193 314.54C102.481 314.54 102.734 314.5 102.953 314.42C103.177 314.34 103.364 314.228 103.513 314.084C103.662 313.94 103.774 313.769 103.849 313.572C103.924 313.369 103.961 313.148 103.961 312.908C103.961 312.412 103.809 312.017 103.505 311.724C103.206 311.431 102.769 311.284 102.193 311.284C101.622 311.284 101.185 311.431 100.881 311.724C100.582 312.017 100.433 312.412 100.433 312.908C100.433 313.148 100.47 313.369 100.545 313.572C100.625 313.769 100.74 313.94 100.889 314.084C101.038 314.228 101.222 314.34 101.441 314.42C101.66 314.5 101.91 314.54 102.193 314.54ZM112.277 311.732C112.213 311.849 112.114 311.908 111.981 311.908C111.901 311.908 111.81 311.879 111.709 311.82C111.607 311.761 111.482 311.697 111.333 311.628C111.189 311.553 111.015 311.487 110.813 311.428C110.61 311.364 110.37 311.332 110.093 311.332C109.853 311.332 109.637 311.364 109.445 311.428C109.253 311.487 109.087 311.569 108.949 311.676C108.815 311.783 108.711 311.908 108.637 312.052C108.567 312.191 108.533 312.343 108.533 312.508C108.533 312.716 108.591 312.889 108.709 313.028C108.831 313.167 108.991 313.287 109.189 313.388C109.386 313.489 109.61 313.58 109.861 313.66C110.111 313.735 110.367 313.817 110.629 313.908C110.895 313.993 111.154 314.089 111.405 314.196C111.655 314.303 111.879 314.436 112.077 314.596C112.274 314.756 112.431 314.953 112.549 315.188C112.671 315.417 112.733 315.695 112.733 316.02C112.733 316.393 112.666 316.74 112.533 317.06C112.399 317.375 112.202 317.649 111.941 317.884C111.679 318.113 111.359 318.295 110.981 318.428C110.602 318.561 110.165 318.628 109.669 318.628C109.103 318.628 108.591 318.537 108.133 318.356C107.674 318.169 107.285 317.932 106.965 317.644L107.301 317.1C107.343 317.031 107.394 316.977 107.453 316.94C107.511 316.903 107.589 316.884 107.685 316.884C107.781 316.884 107.882 316.921 107.989 316.996C108.095 317.071 108.223 317.153 108.373 317.244C108.527 317.335 108.711 317.417 108.925 317.492C109.143 317.567 109.415 317.604 109.741 317.604C110.018 317.604 110.261 317.569 110.469 317.5C110.677 317.425 110.85 317.327 110.989 317.204C111.127 317.081 111.229 316.94 111.293 316.78C111.362 316.62 111.397 316.449 111.397 316.268C111.397 316.044 111.335 315.86 111.213 315.716C111.095 315.567 110.938 315.441 110.741 315.34C110.543 315.233 110.317 315.143 110.061 315.068C109.81 314.988 109.551 314.905 109.285 314.82C109.023 314.735 108.765 314.639 108.509 314.532C108.258 314.42 108.034 314.281 107.837 314.116C107.639 313.951 107.479 313.748 107.357 313.508C107.239 313.263 107.181 312.967 107.181 312.62C107.181 312.311 107.245 312.015 107.373 311.732C107.501 311.444 107.687 311.193 107.933 310.98C108.178 310.761 108.479 310.588 108.837 310.46C109.194 310.332 109.602 310.268 110.061 310.268C110.594 310.268 111.071 310.353 111.493 310.524C111.919 310.689 112.287 310.919 112.597 311.212L112.277 311.732Z" fill="#111111"/>
<path d="M40 314L39 313.417C37.9167 312.75 37.9167 311.167 39 310.5L40 309.917C40.8334 309.417 41.0834 308.417 40.5834 307.667L39.75 306.25C39.25 305.417 38.25 305.167 37.5 305.667L36.5 306.25C35.4167 306.917 34 306.083 34 304.833V303.667C34 302.75 33.25 302 32.3334 302H30.6667C29.75 302 29 302.75 29 303.667V304.75C29 306 27.5834 306.833 26.5 306.167L25.5 305.667C24.6667 305.167 23.6667 305.5 23.25 306.25L22.4167 307.667C22 308.5 22.25 309.5 23 310L24 310.583C25.0834 311.167 25.0834 312.833 24 313.417L23 314C22.1667 314.5 21.9167 315.5 22.4167 316.25L23.25 317.667C23.75 318.5 24.75 318.75 25.5 318.25L26.5 317.75C27.5834 317.083 29 317.917 29 319.167V320.333C29 321.25 29.75 322 30.6667 322H32.3334C33.25 322 34 321.25 34 320.333V319.25C34 318 35.4167 317.167 36.5 317.833L37.5 318.417C38.3334 318.917 39.3334 318.583 39.75 317.833L40.5834 316.417C41 315.5 40.75 314.5 40 314ZM31.5 315.333C29.6667 315.333 28.1667 313.833 28.1667 312C28.1667 310.167 29.6667 308.667 31.5 308.667C33.3334 308.667 34.8334 310.167 34.8334 312C34.8334 313.833 33.3334 315.333 31.5 315.333Z" fill="#D7DF23"/>
<path d="M20 337L355 337" stroke="#EDEDED"/>
<g filter="url(#filter1_d_218_25950)">
<path d="M0.5 0H375.5V74C375.5 85.0457 366.546 94 355.5 94H20.5C9.45431 94 0.5 85.0457 0.5 74V0Z" fill="white"/>
</g>
<path d="M148.636 53.5232H150.896C151.129 53.5232 151.322 53.5798 151.476 53.6932C151.636 53.7998 151.742 53.9465 151.796 54.1332L154.256 62.7832C154.316 62.9965 154.369 63.2298 154.416 63.4832C154.469 63.7298 154.519 63.9932 154.566 64.2732C154.619 63.9932 154.676 63.7298 154.736 63.4832C154.802 63.2298 154.872 62.9965 154.946 62.7832L157.786 54.1332C157.839 53.9798 157.942 53.8398 158.096 53.7132C158.256 53.5865 158.449 53.5232 158.676 53.5232H159.466C159.699 53.5232 159.892 53.5798 160.046 53.6932C160.199 53.7998 160.306 53.9465 160.366 54.1332L163.186 62.7832C163.332 63.2098 163.459 63.6832 163.566 64.2032C163.612 63.9432 163.659 63.6932 163.706 63.4532C163.759 63.2132 163.812 62.9898 163.866 62.7832L166.326 54.1332C166.372 53.9665 166.476 53.8232 166.636 53.7032C166.796 53.5832 166.989 53.5232 167.216 53.5232H169.326L164.836 67.9832H162.406L159.246 58.1032C159.206 57.9765 159.162 57.8398 159.116 57.6932C159.076 57.5465 159.036 57.3898 158.996 57.2232C158.956 57.3898 158.912 57.5465 158.866 57.6932C158.826 57.8398 158.786 57.9765 158.746 58.1032L155.556 67.9832H153.126L148.636 53.5232ZM182.451 67.9832H180.371C180.138 67.9832 179.945 67.9265 179.791 67.8132C179.645 67.6932 179.538 67.5465 179.471 67.3732L178.391 64.4232H172.401L171.321 67.3732C171.268 67.5265 171.161 67.6665 171.001 67.7932C170.848 67.9198 170.658 67.9832 170.431 67.9832H168.341L174.021 53.5232H176.771L182.451 67.9832ZM173.091 62.5232H177.701L175.941 57.7132C175.861 57.4998 175.771 57.2498 175.671 56.9632C175.578 56.6698 175.485 56.3532 175.391 56.0132C175.298 56.3532 175.205 56.6698 175.111 56.9632C175.025 57.2565 174.938 57.5132 174.851 57.7332L173.091 62.5232ZM186.63 65.7632H192.42V67.9832H183.94V53.5232H186.63V65.7632ZM196.963 65.7632H202.753V67.9832H194.273V53.5232H196.963V65.7632ZM213.725 53.5232V55.6632H207.315V59.6732H212.365V61.7432H207.315V65.8332H213.725V67.9832H204.605V53.5232H213.725ZM226.24 53.5232V55.7332H221.89V67.9832H219.2V55.7332H214.83V53.5232H226.24Z" fill="#111111"/>
<path d="M20.491 61.5706L20.4911 61.5707L27.3425 68.4894L27.3426 68.4895C27.6651 68.8149 28.1884 68.8143 28.5102 68.4879L28.5103 68.4878C28.8303 68.1629 28.8294 67.6381 28.5087 67.3142L28.5087 67.3142L22.2393 60.9831L28.5089 54.6521L28.5089 54.6521C28.8296 54.3281 28.8305 53.8036 28.5106 53.4787L28.5105 53.4786C28.3497 53.3155 28.1377 53.2332 27.9257 53.2332C27.7144 53.2332 27.5032 53.3149 27.3426 53.477L27.3426 53.477L20.4914 60.3954L20.6688 60.5715L20.4911 60.3956L20.4913 60.3954C20.3363 60.5517 20.25 60.7634 20.25 60.9831C20.25 61.2032 20.3366 61.4145 20.491 61.5706Z" fill="#111111" stroke="#111111" stroke-width="0.5"/>
<path d="M93.5 0.0204082H293.5C293.5 0.0204082 291 -0.979591 290.773 11.0204C290.545 23.0204 285.075 28.0204 278.045 28.0204H108.955C101.925 28.0204 96.4545 23.0204 96.2273 11.0204C96 -0.979591 93.5 0.0204082 93.5 0.0204082Z" fill="#DDDDDD"/>
<g opacity="0.1">
<path fill-rule="evenodd" clip-rule="evenodd" d="M340.172 13H353.535C354.102 13 354.645 13.2251 355.046 13.6259C355.447 14.0267 355.672 14.5702 355.672 15.137V19.946C355.672 20.5128 355.447 21.0563 355.046 21.4571C354.645 21.8579 354.102 22.083 353.535 22.083H340.172C339.605 22.083 339.062 21.8579 338.661 21.4571C338.26 21.0563 338.035 20.5128 338.035 19.946V15.137C338.035 14.5702 338.26 14.0267 338.661 13.6259C339.062 13.2251 339.605 13 340.172 13Z" fill="black"/>
</g>
<path d="M356.469 15.939V19.145C356.784 19.0124 357.053 18.7899 357.242 18.5053C357.432 18.2208 357.533 17.8868 357.533 17.545C357.534 17.2023 357.433 16.867 357.244 16.5812C357.055 16.2955 356.785 16.0721 356.469 15.939" fill="#111111"/>
<path d="M340.707 14.603H352.997C353.281 14.603 353.553 14.7157 353.753 14.9161C353.954 15.1166 354.066 15.3885 354.066 15.672V19.412C354.066 19.6955 353.954 19.9674 353.753 20.1679C353.553 20.3684 353.281 20.481 352.997 20.481H340.707C340.424 20.481 340.152 20.3684 339.951 20.1679C339.751 19.9674 339.638 19.6955 339.638 19.412V15.67C339.639 15.3869 339.752 15.1155 339.952 14.9154C340.152 14.7154 340.424 14.603 340.707 14.603V14.603Z" fill="#111111"/>
<path d="M327.476 14.8221C329.252 14.8221 330.96 15.5045 332.247 16.7281C332.293 16.7737 332.356 16.7993 332.42 16.7993C332.485 16.7993 332.548 16.7737 332.594 16.7281L333.521 15.7931C333.545 15.769 333.564 15.7404 333.577 15.709C333.59 15.6776 333.596 15.644 333.596 15.6101C333.596 15.5761 333.589 15.5426 333.576 15.5114C333.562 15.4802 333.543 15.4518 333.519 15.4281C331.893 13.8699 329.728 13 327.476 13C325.224 13 323.059 13.8699 321.433 15.4281C321.409 15.4518 321.39 15.4802 321.376 15.5114C321.363 15.5426 321.356 15.5761 321.356 15.6101C321.356 15.644 321.362 15.6776 321.375 15.709C321.388 15.7404 321.407 15.769 321.431 15.7931L322.358 16.7281C322.404 16.7737 322.467 16.7993 322.531 16.7993C322.596 16.7993 322.659 16.7737 322.705 16.7281C323.992 15.5042 325.701 14.8219 327.477 14.8221H327.476ZM327.476 17.8641C328.452 17.8641 329.393 18.227 330.116 18.8821C330.162 18.9272 330.225 18.9525 330.289 18.9525C330.354 18.9525 330.416 18.9272 330.463 18.8821L331.388 17.9471C331.412 17.9227 331.431 17.8939 331.444 17.8621C331.457 17.8303 331.463 17.7963 331.463 17.7621C331.463 17.7278 331.455 17.694 331.442 17.6626C331.428 17.6312 331.409 17.6028 331.384 17.5791C330.322 16.5915 328.926 16.0425 327.476 16.0425C326.026 16.0425 324.63 16.5915 323.568 17.5791C323.543 17.6028 323.524 17.6312 323.51 17.6626C323.497 17.694 323.489 17.7278 323.489 17.7621C323.489 17.7963 323.495 17.8303 323.508 17.8621C323.521 17.8939 323.54 17.9227 323.564 17.9471L324.489 18.8821C324.535 18.9272 324.598 18.9525 324.662 18.9525C324.727 18.9525 324.789 18.9272 324.836 18.8821C325.559 18.2274 326.499 17.8646 327.474 17.8641H327.476ZM329.255 20.0961C329.279 20.072 329.299 20.0432 329.312 20.0113C329.325 19.9795 329.331 19.9454 329.33 19.9111C329.329 19.8767 329.322 19.8428 329.307 19.8115C329.293 19.7802 329.272 19.7521 329.247 19.7291C328.752 19.3102 328.124 19.0804 327.476 19.0804C326.827 19.0804 326.2 19.3102 325.705 19.7291C325.68 19.752 325.659 19.7798 325.645 19.811C325.63 19.8421 325.623 19.8758 325.622 19.9101C325.621 19.9444 325.627 19.9785 325.64 20.0103C325.653 20.0422 325.672 20.071 325.697 20.0951L327.297 21.7111C327.32 21.7346 327.348 21.7532 327.379 21.7659C327.409 21.7786 327.442 21.7851 327.475 21.7851C327.508 21.7851 327.541 21.7786 327.571 21.7659C327.602 21.7532 327.63 21.7346 327.653 21.7111L329.255 20.0961Z" fill="#111111"/>
<path d="M23.294 18.472C22.97 18.472 22.662 18.418 22.37 18.31C22.082 18.202 21.828 18.044 21.608 17.836C21.388 17.624 21.212 17.366 21.08 17.062C20.952 16.754 20.888 16.402 20.888 16.006C20.888 15.63 20.958 15.278 21.098 14.95C21.238 14.622 21.434 14.336 21.686 14.092C21.938 13.848 22.238 13.656 22.586 13.516C22.934 13.376 23.316 13.306 23.732 13.306C24.144 13.306 24.518 13.374 24.854 13.51C25.19 13.646 25.478 13.836 25.718 14.08C25.958 14.324 26.142 14.616 26.27 14.956C26.402 15.296 26.468 15.672 26.468 16.084C26.468 16.332 26.444 16.568 26.396 16.792C26.352 17.012 26.286 17.228 26.198 17.44C26.11 17.652 26.004 17.864 25.88 18.076C25.76 18.284 25.622 18.5 25.466 18.724L23.372 21.748C23.32 21.824 23.246 21.886 23.15 21.934C23.054 21.978 22.944 22 22.82 22H21.836L24.452 18.574C24.54 18.458 24.622 18.348 24.698 18.244C24.774 18.14 24.846 18.036 24.914 17.932C24.694 18.108 24.446 18.242 24.17 18.334C23.894 18.426 23.602 18.472 23.294 18.472ZM25.442 15.958C25.442 15.69 25.398 15.448 25.31 15.232C25.226 15.012 25.108 14.826 24.956 14.674C24.804 14.522 24.622 14.406 24.41 14.326C24.202 14.242 23.972 14.2 23.72 14.2C23.456 14.2 23.214 14.244 22.994 14.332C22.778 14.416 22.592 14.534 22.436 14.686C22.284 14.838 22.166 15.02 22.082 15.232C21.998 15.444 21.956 15.676 21.956 15.928C21.956 16.2 21.994 16.444 22.07 16.66C22.15 16.872 22.262 17.052 22.406 17.2C22.554 17.348 22.732 17.46 22.94 17.536C23.152 17.612 23.388 17.65 23.648 17.65C23.936 17.65 24.19 17.604 24.41 17.512C24.634 17.416 24.822 17.29 24.974 17.134C25.126 16.978 25.242 16.798 25.322 16.594C25.402 16.39 25.442 16.178 25.442 15.958ZM27.7289 21.34C27.7289 21.236 27.7469 21.138 27.7829 21.046C27.8229 20.954 27.8749 20.874 27.9389 20.806C28.0069 20.738 28.0869 20.684 28.1789 20.644C28.2709 20.604 28.3689 20.584 28.4729 20.584C28.5769 20.584 28.6749 20.604 28.7669 20.644C28.8589 20.684 28.9389 20.738 29.0069 20.806C29.0749 20.874 29.1269 20.954 29.1629 21.046C29.2029 21.138 29.2229 21.236 29.2229 21.34C29.2229 21.448 29.2029 21.548 29.1629 21.64C29.1269 21.728 29.0749 21.806 29.0069 21.874C28.9389 21.942 28.8589 21.994 28.7669 22.03C28.6749 22.07 28.5769 22.09 28.4729 22.09C28.3689 22.09 28.2709 22.07 28.1789 22.03C28.0869 21.994 28.0069 21.942 27.9389 21.874C27.8749 21.806 27.8229 21.728 27.7829 21.64C27.7469 21.548 27.7289 21.448 27.7289 21.34ZM27.7289 16.84C27.7289 16.736 27.7469 16.638 27.7829 16.546C27.8229 16.454 27.8749 16.374 27.9389 16.306C28.0069 16.238 28.0869 16.184 28.1789 16.144C28.2709 16.104 28.3689 16.084 28.4729 16.084C28.5769 16.084 28.6749 16.104 28.7669 16.144C28.8589 16.184 28.9389 16.238 29.0069 16.306C29.0749 16.374 29.1269 16.454 29.1629 16.546C29.2029 16.638 29.2229 16.736 29.2229 16.84C29.2229 16.948 29.2029 17.048 29.1629 17.14C29.1269 17.228 29.0749 17.306 29.0069 17.374C28.9389 17.442 28.8589 17.496 28.7669 17.536C28.6749 17.572 28.5769 17.59 28.4729 17.59C28.3689 17.59 28.2709 17.572 28.1789 17.536C28.0869 17.496 28.0069 17.442 27.9389 17.374C27.8749 17.306 27.8229 17.228 27.7829 17.14C27.7469 17.048 27.7289 16.948 27.7289 16.84ZM35.4024 18.898H36.7044V19.51C36.7044 19.574 36.6844 19.628 36.6444 19.672C36.6084 19.716 36.5504 19.738 36.4704 19.738H35.4024V22H34.4604V19.738H30.6504C30.5704 19.738 30.5004 19.716 30.4404 19.672C30.3844 19.624 30.3484 19.566 30.3324 19.498L30.2244 18.952L34.4064 13.402H35.4024V18.898ZM34.4604 15.352C34.4604 15.248 34.4624 15.136 34.4664 15.016C34.4744 14.896 34.4884 14.772 34.5084 14.644L31.3824 18.898H34.4604V15.352ZM38.6673 21.184H40.5153V15.322C40.5153 15.146 40.5213 14.968 40.5333 14.788L38.9973 16.102C38.9573 16.134 38.9173 16.158 38.8773 16.174C38.8373 16.186 38.7993 16.192 38.7633 16.192C38.7033 16.192 38.6493 16.18 38.6013 16.156C38.5533 16.128 38.5173 16.096 38.4933 16.06L38.1573 15.598L40.7133 13.384H41.5833V21.184H43.2753V22H38.6673V21.184Z" fill="#111111"/>
<path d="M304.502 18.34H305.302C305.514 18.34 305.718 18.4243 305.868 18.5743C306.018 18.7243 306.102 18.9278 306.102 19.14V20.74C306.102 20.9522 306.018 21.1557 305.868 21.3057C305.718 21.4557 305.514 21.54 305.302 21.54H304.502C304.29 21.54 304.086 21.4557 303.936 21.3057C303.786 21.1557 303.702 20.9522 303.702 20.74V19.14C303.702 18.9278 303.786 18.7243 303.936 18.5743C304.086 18.4243 304.29 18.34 304.502 18.34V18.34ZM308.242 16.74H309.042C309.254 16.74 309.458 16.8243 309.608 16.9743C309.758 17.1243 309.842 17.3278 309.842 17.54V20.746C309.842 20.8511 309.821 20.9551 309.781 21.0521C309.741 21.1492 309.682 21.2374 309.608 21.3117C309.534 21.386 309.445 21.4449 309.348 21.4851C309.251 21.5253 309.147 21.546 309.042 21.546H308.242C308.137 21.546 308.033 21.5253 307.936 21.4851C307.839 21.4449 307.751 21.386 307.676 21.3117C307.602 21.2374 307.543 21.1492 307.503 21.0521C307.463 20.9551 307.442 20.8511 307.442 20.746V17.54C307.442 17.4347 307.462 17.3303 307.502 17.2329C307.542 17.1355 307.601 17.047 307.675 16.9724C307.75 16.8978 307.838 16.8386 307.935 16.7982C308.033 16.7578 308.137 16.737 308.242 16.737V16.74ZM311.982 14.87H312.782C312.887 14.87 312.991 14.8907 313.088 14.9309C313.185 14.9711 313.274 15.03 313.348 15.1043C313.422 15.1786 313.481 15.2668 313.521 15.3639C313.561 15.4609 313.582 15.5649 313.582 15.67V20.746C313.582 20.8511 313.561 20.9551 313.521 21.0521C313.481 21.1492 313.422 21.2374 313.348 21.3117C313.274 21.386 313.185 21.4449 313.088 21.4851C312.991 21.5253 312.887 21.546 312.782 21.546H311.982C311.877 21.546 311.773 21.5253 311.676 21.4851C311.579 21.4449 311.491 21.386 311.416 21.3117C311.342 21.2374 311.283 21.1492 311.243 21.0521C311.203 20.9551 311.182 20.8511 311.182 20.746V15.67C311.182 15.5646 311.202 15.4602 311.242 15.3627C311.282 15.2652 311.341 15.1766 311.416 15.102C311.49 15.0274 311.579 14.9682 311.676 14.9279C311.773 14.8876 311.878 14.8669 311.983 14.867L311.982 14.87ZM315.722 13H316.522C316.734 13 316.938 13.0843 317.088 13.2343C317.238 13.3843 317.322 13.5878 317.322 13.8V20.746C317.322 20.9582 317.238 21.1617 317.088 21.3117C316.938 21.4617 316.734 21.546 316.522 21.546H315.722C315.617 21.546 315.513 21.5253 315.416 21.4851C315.319 21.4449 315.231 21.386 315.156 21.3117C315.082 21.2374 315.023 21.1492 314.983 21.0521C314.943 20.9551 314.922 20.8511 314.922 20.746V13.8C314.922 13.6949 314.943 13.5909 314.983 13.4939C315.023 13.3968 315.082 13.3086 315.156 13.2343C315.231 13.16 315.319 13.1011 315.416 13.0609C315.513 13.0207 315.617 13 315.722 13V13Z" fill="#111111"/>
</g>
<defs>
<filter id="filter0_d_218_25950" x="5" y="111" width="365" height="188" filterUnits="userSpaceOnUse" color-interpolation-filters="sRGB">
<feFlood flood-opacity="0" result="BackgroundImageFix"/>
<feColorMatrix in="SourceAlpha" type="matrix" values="0 0 0 0 0 0 0 0 0 0 0 0 0 0 0 0 0 0 127 0" result="hardAlpha"/>
<feOffset dy="2"/>
<feGaussianBlur stdDeviation="7.5"/>
<feComposite in2="hardAlpha" operator="out"/>
<feColorMatrix type="matrix" values="0 0 0 0 0 0 0 0 0 0 0 0 0 0 0 0 0 0 0.08 0"/>
<feBlend mode="normal" in2="BackgroundImageFix" result="effect1_dropShadow_218_25950"/>
<feBlend mode="normal" in="SourceGraphic" in2="effect1_dropShadow_218_25950" result="shape"/>
</filter>
<filter id="filter1_d_218_25950" x="-14.5" y="-11" width="405" height="124" filterUnits="userSpaceOnUse" color-interpolation-filters="sRGB">
<feFlood flood-opacity="0" result="BackgroundImageFix"/>
<feColorMatrix in="SourceAlpha" type="matrix" values="0 0 0 0 0 0 0 0 0 0 0 0 0 0 0 0 0 0 127 0" result="hardAlpha"/>
<feOffset dy="4"/>
<feGaussianBlur stdDeviation="7.5"/>
<feColorMatrix type="matrix" values="0 0 0 0 0 0 0 0 0 0 0 0 0 0 0 0 0 0 0.06 0"/>
<feBlend mode="normal" in2="BackgroundImageFix" result="effect1_dropShadow_218_25950"/>
<feBlend mode="normal" in="SourceGraphic" in2="effect1_dropShadow_218_25950" result="shape"/>
</filter>
<clipPath id="clip0_218_25950">
<rect width="375" height="812" fill="white"/>
</clipPath>
<clipPath id="clip1_218_25950">
<rect width="16" height="16" fill="white" transform="translate(66.5 236)"/>
</clipPath>
</defs>
</svg>
