<svg width="375" height="812" viewBox="0 0 375 812" fill="none" xmlns="http://www.w3.org/2000/svg">
<g clip-path="url(#clip0_218_25848)">
<rect width="375" height="812" fill="white"/>
<rect x="31.5" y="720" width="312" height="60" rx="30" fill="black"/>
<path d="M140.016 758H137.936C137.702 758 137.509 757.943 137.356 757.83C137.209 757.71 137.102 757.563 137.036 757.39L135.956 754.44H129.966L128.886 757.39C128.832 757.543 128.726 757.683 128.566 757.81C128.412 757.937 128.222 758 127.996 758H125.906L131.586 743.54H134.336L140.016 758ZM130.656 752.54H135.266L133.506 747.73C133.426 747.517 133.336 747.267 133.236 746.98C133.142 746.687 133.049 746.37 132.956 746.03C132.862 746.37 132.769 746.687 132.676 746.98C132.589 747.273 132.502 747.53 132.416 747.75L130.656 752.54ZM148.585 758C148.265 758 148.055 757.85 147.955 757.55L147.755 756.56C147.542 756.8 147.318 757.017 147.085 757.21C146.852 757.403 146.598 757.57 146.325 757.71C146.058 757.85 145.768 757.957 145.455 758.03C145.148 758.11 144.815 758.15 144.455 758.15C143.895 758.15 143.382 758.033 142.915 757.8C142.448 757.567 142.045 757.23 141.705 756.79C141.372 756.343 141.112 755.793 140.925 755.14C140.745 754.487 140.655 753.74 140.655 752.9C140.655 752.14 140.758 751.433 140.965 750.78C141.172 750.127 141.468 749.56 141.855 749.08C142.242 748.6 142.705 748.227 143.245 747.96C143.785 747.687 144.392 747.55 145.065 747.55C145.638 747.55 146.128 747.643 146.535 747.83C146.942 748.01 147.305 748.253 147.625 748.56V743.14H150.095V758H148.585ZM145.295 756.19C145.808 756.19 146.245 756.083 146.605 755.87C146.965 755.657 147.305 755.353 147.625 754.96V750.36C147.345 750.02 147.038 749.78 146.705 749.64C146.378 749.5 146.025 749.43 145.645 749.43C145.272 749.43 144.932 749.5 144.625 749.64C144.325 749.78 144.068 749.993 143.855 750.28C143.648 750.56 143.488 750.92 143.375 751.36C143.262 751.793 143.205 752.307 143.205 752.9C143.205 753.5 143.252 754.01 143.345 754.43C143.445 754.843 143.585 755.183 143.765 755.45C143.945 755.71 144.165 755.9 144.425 756.02C144.685 756.133 144.975 756.19 145.295 756.19ZM159.991 758C159.671 758 159.461 757.85 159.361 757.55L159.161 756.56C158.948 756.8 158.725 757.017 158.491 757.21C158.258 757.403 158.005 757.57 157.731 757.71C157.465 757.85 157.175 757.957 156.861 758.03C156.555 758.11 156.221 758.15 155.861 758.15C155.301 758.15 154.788 758.033 154.321 757.8C153.855 757.567 153.451 757.23 153.111 756.79C152.778 756.343 152.518 755.793 152.331 755.14C152.151 754.487 152.061 753.74 152.061 752.9C152.061 752.14 152.165 751.433 152.371 750.78C152.578 750.127 152.875 749.56 153.261 749.08C153.648 748.6 154.111 748.227 154.651 747.96C155.191 747.687 155.798 747.55 156.471 747.55C157.045 747.55 157.535 747.643 157.941 747.83C158.348 748.01 158.711 748.253 159.031 748.56V743.14H161.501V758H159.991ZM156.701 756.19C157.215 756.19 157.651 756.083 158.011 755.87C158.371 755.657 158.711 755.353 159.031 754.96V750.36C158.751 750.02 158.445 749.78 158.111 749.64C157.785 749.5 157.431 749.43 157.051 749.43C156.678 749.43 156.338 749.5 156.031 749.64C155.731 749.78 155.475 749.993 155.261 750.28C155.055 750.56 154.895 750.92 154.781 751.36C154.668 751.793 154.611 752.307 154.611 752.9C154.611 753.5 154.658 754.01 154.751 754.43C154.851 754.843 154.991 755.183 155.171 755.45C155.351 755.71 155.571 755.9 155.831 756.02C156.091 756.133 156.381 756.19 156.701 756.19ZM176.085 758H174.975C174.741 758 174.558 757.967 174.425 757.9C174.291 757.827 174.191 757.683 174.125 757.47L173.905 756.74C173.645 756.973 173.388 757.18 173.135 757.36C172.888 757.533 172.631 757.68 172.365 757.8C172.098 757.92 171.815 758.01 171.515 758.07C171.215 758.13 170.881 758.16 170.515 758.16C170.081 758.16 169.681 758.103 169.315 757.99C168.948 757.87 168.631 757.693 168.365 757.46C168.105 757.227 167.901 756.937 167.755 756.59C167.608 756.243 167.535 755.84 167.535 755.38C167.535 754.993 167.635 754.613 167.835 754.24C168.041 753.86 168.381 753.52 168.855 753.22C169.328 752.913 169.958 752.66 170.745 752.46C171.531 752.26 172.508 752.147 173.675 752.12V751.52C173.675 750.833 173.528 750.327 173.235 750C172.948 749.667 172.528 749.5 171.975 749.5C171.575 749.5 171.241 749.547 170.975 749.64C170.708 749.733 170.475 749.84 170.275 749.96C170.081 750.073 169.901 750.177 169.735 750.27C169.568 750.363 169.385 750.41 169.185 750.41C169.018 750.41 168.875 750.367 168.755 750.28C168.635 750.193 168.538 750.087 168.465 749.96L168.015 749.17C169.195 748.09 170.618 747.55 172.285 747.55C172.885 747.55 173.418 747.65 173.885 747.85C174.358 748.043 174.758 748.317 175.085 748.67C175.411 749.017 175.658 749.433 175.825 749.92C175.998 750.407 176.085 750.94 176.085 751.52V758ZM171.285 756.46C171.538 756.46 171.771 756.437 171.985 756.39C172.198 756.343 172.398 756.273 172.585 756.18C172.778 756.087 172.961 755.973 173.135 755.84C173.315 755.7 173.495 755.537 173.675 755.35V753.62C172.955 753.653 172.351 753.717 171.865 753.81C171.385 753.897 170.998 754.01 170.705 754.15C170.411 754.29 170.201 754.453 170.075 754.64C169.955 754.827 169.895 755.03 169.895 755.25C169.895 755.683 170.021 755.993 170.275 756.18C170.535 756.367 170.871 756.46 171.285 756.46ZM181.101 743.54H183.271C183.504 743.54 183.694 743.597 183.841 743.71C183.987 743.823 184.097 743.97 184.171 744.15L187.571 752.97C187.684 753.257 187.791 753.573 187.891 753.92C187.997 754.26 188.097 754.62 188.191 755C188.344 754.233 188.534 753.557 188.761 752.97L192.151 744.15C192.211 743.997 192.317 743.857 192.471 743.73C192.624 743.603 192.814 743.54 193.041 743.54H195.211L189.371 758H186.941L181.101 743.54ZM199.589 747.58C200.236 747.58 200.829 747.683 201.369 747.89C201.916 748.097 202.386 748.4 202.779 748.8C203.173 749.193 203.479 749.68 203.699 750.26C203.919 750.833 204.029 751.49 204.029 752.23C204.029 752.417 204.019 752.573 203.999 752.7C203.986 752.82 203.956 752.917 203.909 752.99C203.869 753.057 203.813 753.107 203.739 753.14C203.666 753.167 203.573 753.18 203.459 753.18H197.119C197.193 754.233 197.476 755.007 197.969 755.5C198.463 755.993 199.116 756.24 199.929 756.24C200.329 756.24 200.673 756.193 200.959 756.1C201.253 756.007 201.506 755.903 201.719 755.79C201.939 755.677 202.129 755.573 202.289 755.48C202.456 755.387 202.616 755.34 202.769 755.34C202.869 755.34 202.956 755.36 203.029 755.4C203.103 755.44 203.166 755.497 203.219 755.57L203.939 756.47C203.666 756.79 203.359 757.06 203.019 757.28C202.679 757.493 202.323 757.667 201.949 757.8C201.583 757.927 201.206 758.017 200.819 758.07C200.439 758.123 200.069 758.15 199.709 758.15C198.996 758.15 198.333 758.033 197.719 757.8C197.106 757.56 196.573 757.21 196.119 756.75C195.666 756.283 195.309 755.71 195.049 755.03C194.789 754.343 194.659 753.55 194.659 752.65C194.659 751.95 194.773 751.293 194.999 750.68C195.226 750.06 195.549 749.523 195.969 749.07C196.396 748.61 196.913 748.247 197.519 747.98C198.133 747.713 198.823 747.58 199.589 747.58ZM199.639 749.35C198.919 749.35 198.356 749.553 197.949 749.96C197.543 750.367 197.283 750.943 197.169 751.69H201.809C201.809 751.37 201.766 751.07 201.679 750.79C201.593 750.503 201.459 750.253 201.279 750.04C201.099 749.827 200.873 749.66 200.599 749.54C200.326 749.413 200.006 749.35 199.639 749.35ZM206.033 758V743.14H208.503V748.85C208.903 748.47 209.343 748.163 209.823 747.93C210.303 747.697 210.866 747.58 211.513 747.58C212.073 747.58 212.57 747.677 213.003 747.87C213.436 748.057 213.796 748.323 214.083 748.67C214.376 749.01 214.596 749.42 214.743 749.9C214.896 750.373 214.973 750.897 214.973 751.47V758H212.503V751.47C212.503 750.843 212.356 750.36 212.063 750.02C211.776 749.673 211.343 749.5 210.763 749.5C210.336 749.5 209.936 749.597 209.563 749.79C209.19 749.983 208.836 750.247 208.503 750.58V758H206.033ZM220.03 747.74V758H217.56V747.74H220.03ZM220.4 744.75C220.4 744.963 220.357 745.163 220.27 745.35C220.183 745.537 220.067 745.7 219.92 745.84C219.78 745.98 219.613 746.093 219.42 746.18C219.227 746.26 219.02 746.3 218.8 746.3C218.587 746.3 218.383 746.26 218.19 746.18C218.003 746.093 217.84 745.98 217.7 745.84C217.56 745.7 217.447 745.537 217.36 745.35C217.28 745.163 217.24 744.963 217.24 744.75C217.24 744.53 217.28 744.323 217.36 744.13C217.447 743.937 217.56 743.77 217.7 743.63C217.84 743.49 218.003 743.38 218.19 743.3C218.383 743.213 218.587 743.17 218.8 743.17C219.02 743.17 219.227 743.213 219.42 743.3C219.613 743.38 219.78 743.49 219.92 743.63C220.067 743.77 220.183 743.937 220.27 744.13C220.357 744.323 220.4 744.53 220.4 744.75ZM230.04 749.91C229.966 750.003 229.893 750.077 229.82 750.13C229.753 750.183 229.653 750.21 229.52 750.21C229.393 750.21 229.27 750.173 229.15 750.1C229.03 750.02 228.886 749.933 228.72 749.84C228.553 749.74 228.353 749.653 228.12 749.58C227.893 749.5 227.61 749.46 227.27 749.46C226.836 749.46 226.456 749.54 226.13 749.7C225.803 749.853 225.53 750.077 225.31 750.37C225.096 750.663 224.936 751.02 224.83 751.44C224.723 751.853 224.67 752.323 224.67 752.85C224.67 753.397 224.726 753.883 224.84 754.31C224.96 754.737 225.13 755.097 225.35 755.39C225.57 755.677 225.836 755.897 226.15 756.05C226.463 756.197 226.816 756.27 227.21 756.27C227.603 756.27 227.92 756.223 228.16 756.13C228.406 756.03 228.613 755.923 228.78 755.81C228.946 755.69 229.09 755.583 229.21 755.49C229.336 755.39 229.476 755.34 229.63 755.34C229.83 755.34 229.98 755.417 230.08 755.57L230.79 756.47C230.516 756.79 230.22 757.06 229.9 757.28C229.58 757.493 229.246 757.667 228.9 757.8C228.56 757.927 228.206 758.017 227.84 758.07C227.473 758.123 227.11 758.15 226.75 758.15C226.116 758.15 225.52 758.033 224.96 757.8C224.4 757.56 223.91 757.213 223.49 756.76C223.076 756.307 222.746 755.753 222.5 755.1C222.26 754.44 222.14 753.69 222.14 752.85C222.14 752.097 222.246 751.4 222.46 750.76C222.68 750.113 223 749.557 223.42 749.09C223.84 748.617 224.36 748.247 224.98 747.98C225.6 747.713 226.313 747.58 227.12 747.58C227.886 747.58 228.556 747.703 229.13 747.95C229.71 748.197 230.23 748.55 230.69 749.01L230.04 749.91ZM234.991 743.14V758H232.521V743.14H234.991ZM242.031 747.58C242.677 747.58 243.271 747.683 243.811 747.89C244.357 748.097 244.827 748.4 245.221 748.8C245.614 749.193 245.921 749.68 246.141 750.26C246.361 750.833 246.471 751.49 246.471 752.23C246.471 752.417 246.461 752.573 246.441 752.7C246.427 752.82 246.397 752.917 246.351 752.99C246.311 753.057 246.254 753.107 246.181 753.14C246.107 753.167 246.014 753.18 245.901 753.18H239.561C239.634 754.233 239.917 755.007 240.411 755.5C240.904 755.993 241.557 756.24 242.371 756.24C242.771 756.24 243.114 756.193 243.401 756.1C243.694 756.007 243.947 755.903 244.161 755.79C244.381 755.677 244.571 755.573 244.731 755.48C244.897 755.387 245.057 755.34 245.211 755.34C245.311 755.34 245.397 755.36 245.471 755.4C245.544 755.44 245.607 755.497 245.661 755.57L246.381 756.47C246.107 756.79 245.801 757.06 245.461 757.28C245.121 757.493 244.764 757.667 244.391 757.8C244.024 757.927 243.647 758.017 243.261 758.07C242.881 758.123 242.511 758.15 242.151 758.15C241.437 758.15 240.774 758.033 240.161 757.8C239.547 757.56 239.014 757.21 238.561 756.75C238.107 756.283 237.751 755.71 237.491 755.03C237.231 754.343 237.101 753.55 237.101 752.65C237.101 751.95 237.214 751.293 237.441 750.68C237.667 750.06 237.991 749.523 238.411 749.07C238.837 748.61 239.354 748.247 239.961 747.98C240.574 747.713 241.264 747.58 242.031 747.58ZM242.081 749.35C241.361 749.35 240.797 749.553 240.391 749.96C239.984 750.367 239.724 750.943 239.611 751.69H244.251C244.251 751.37 244.207 751.07 244.121 750.79C244.034 750.503 243.901 750.253 243.721 750.04C243.541 749.827 243.314 749.66 243.041 749.54C242.767 749.413 242.447 749.35 242.081 749.35Z" fill="white"/>
<circle opacity="0.1" cx="311" cy="750.5" r="22.5" fill="white"/>
<path d="M312.293 744.179C312.027 743.932 311.604 743.942 311.351 744.202C311.097 744.462 311.107 744.873 311.374 745.121L316.488 749.85H303.167C302.799 749.85 302.5 750.141 302.5 750.5C302.5 750.859 302.799 751.15 303.167 751.15H316.466L311.374 755.879C311.107 756.127 311.097 756.538 311.351 756.798C311.482 756.932 311.657 757 311.833 757C311.999 757 312.164 756.941 312.293 756.821L318.109 751.419C318.361 751.174 318.5 750.847 318.5 750.5C318.5 750.152 318.361 749.826 318.098 749.57L312.293 744.179Z" fill="white"/>
<path d="M23.74 138.35V144H21.05V129.54H25.46C26.4467 129.54 27.29 129.643 27.99 129.85C28.6967 130.05 29.2733 130.333 29.72 130.7C30.1733 131.067 30.5033 131.507 30.71 132.02C30.9233 132.527 31.03 133.087 31.03 133.7C31.03 134.187 30.9567 134.647 30.81 135.08C30.67 135.513 30.4633 135.907 30.19 136.26C29.9233 136.613 29.59 136.923 29.19 137.19C28.7967 137.457 28.3467 137.67 27.84 137.83C28.18 138.023 28.4733 138.3 28.72 138.66L32.34 144H29.92C29.6867 144 29.4867 143.953 29.32 143.86C29.16 143.767 29.0233 143.633 28.91 143.46L25.87 138.83C25.7567 138.657 25.63 138.533 25.49 138.46C25.3567 138.387 25.1567 138.35 24.89 138.35H23.74ZM23.74 136.42H25.42C25.9267 136.42 26.3667 136.357 26.74 136.23C27.12 136.103 27.43 135.93 27.67 135.71C27.9167 135.483 28.1 135.217 28.22 134.91C28.34 134.603 28.4 134.267 28.4 133.9C28.4 133.167 28.1567 132.603 27.67 132.21C27.19 131.817 26.4533 131.62 25.46 131.62H23.74V136.42ZM38.1655 133.58C38.8121 133.58 39.4055 133.683 39.9455 133.89C40.4921 134.097 40.9621 134.4 41.3555 134.8C41.7488 135.193 42.0555 135.68 42.2755 136.26C42.4955 136.833 42.6055 137.49 42.6055 138.23C42.6055 138.417 42.5955 138.573 42.5755 138.7C42.5621 138.82 42.5321 138.917 42.4855 138.99C42.4455 139.057 42.3888 139.107 42.3155 139.14C42.2421 139.167 42.1488 139.18 42.0355 139.18H35.6955C35.7688 140.233 36.0521 141.007 36.5455 141.5C37.0388 141.993 37.6921 142.24 38.5055 142.24C38.9055 142.24 39.2488 142.193 39.5355 142.1C39.8288 142.007 40.0821 141.903 40.2955 141.79C40.5155 141.677 40.7055 141.573 40.8655 141.48C41.0321 141.387 41.1921 141.34 41.3455 141.34C41.4455 141.34 41.5321 141.36 41.6055 141.4C41.6788 141.44 41.7421 141.497 41.7955 141.57L42.5155 142.47C42.2421 142.79 41.9355 143.06 41.5955 143.28C41.2555 143.493 40.8988 143.667 40.5255 143.8C40.1588 143.927 39.7821 144.017 39.3955 144.07C39.0155 144.123 38.6455 144.15 38.2855 144.15C37.5721 144.15 36.9088 144.033 36.2955 143.8C35.6821 143.56 35.1488 143.21 34.6955 142.75C34.2421 142.283 33.8855 141.71 33.6255 141.03C33.3655 140.343 33.2355 139.55 33.2355 138.65C33.2355 137.95 33.3488 137.293 33.5755 136.68C33.8021 136.06 34.1255 135.523 34.5455 135.07C34.9721 134.61 35.4888 134.247 36.0955 133.98C36.7088 133.713 37.3988 133.58 38.1655 133.58ZM38.2155 135.35C37.4955 135.35 36.9321 135.553 36.5255 135.96C36.1188 136.367 35.8588 136.943 35.7455 137.69H40.3855C40.3855 137.37 40.3421 137.07 40.2555 136.79C40.1688 136.503 40.0355 136.253 39.8555 136.04C39.6755 135.827 39.4488 135.66 39.1755 135.54C38.9021 135.413 38.5821 135.35 38.2155 135.35ZM52.6491 144H51.5391C51.3057 144 51.1224 143.967 50.9891 143.9C50.8557 143.827 50.7557 143.683 50.6891 143.47L50.4691 142.74C50.2091 142.973 49.9524 143.18 49.6991 143.36C49.4524 143.533 49.1957 143.68 48.9291 143.8C48.6624 143.92 48.3791 144.01 48.0791 144.07C47.7791 144.13 47.4457 144.16 47.0791 144.16C46.6457 144.16 46.2457 144.103 45.8791 143.99C45.5124 143.87 45.1957 143.693 44.9291 143.46C44.6691 143.227 44.4657 142.937 44.3191 142.59C44.1724 142.243 44.0991 141.84 44.0991 141.38C44.0991 140.993 44.1991 140.613 44.3991 140.24C44.6057 139.86 44.9457 139.52 45.4191 139.22C45.8924 138.913 46.5224 138.66 47.3091 138.46C48.0957 138.26 49.0724 138.147 50.2391 138.12V137.52C50.2391 136.833 50.0924 136.327 49.7991 136C49.5124 135.667 49.0924 135.5 48.5391 135.5C48.1391 135.5 47.8057 135.547 47.5391 135.64C47.2724 135.733 47.0391 135.84 46.8391 135.96C46.6457 136.073 46.4657 136.177 46.2991 136.27C46.1324 136.363 45.9491 136.41 45.7491 136.41C45.5824 136.41 45.4391 136.367 45.3191 136.28C45.1991 136.193 45.1024 136.087 45.0291 135.96L44.5791 135.17C45.7591 134.09 47.1824 133.55 48.8491 133.55C49.4491 133.55 49.9824 133.65 50.4491 133.85C50.9224 134.043 51.3224 134.317 51.6491 134.67C51.9757 135.017 52.2224 135.433 52.3891 135.92C52.5624 136.407 52.6491 136.94 52.6491 137.52V144ZM47.8491 142.46C48.1024 142.46 48.3357 142.437 48.5491 142.39C48.7624 142.343 48.9624 142.273 49.1491 142.18C49.3424 142.087 49.5257 141.973 49.6991 141.84C49.8791 141.7 50.0591 141.537 50.2391 141.35V139.62C49.5191 139.653 48.9157 139.717 48.4291 139.81C47.9491 139.897 47.5624 140.01 47.2691 140.15C46.9757 140.29 46.7657 140.453 46.6391 140.64C46.5191 140.827 46.4591 141.03 46.4591 141.25C46.4591 141.683 46.5857 141.993 46.8391 142.18C47.0991 142.367 47.4357 142.46 47.8491 142.46ZM62.2978 144C61.9778 144 61.7678 143.85 61.6678 143.55L61.4678 142.56C61.2545 142.8 61.0311 143.017 60.7978 143.21C60.5645 143.403 60.3111 143.57 60.0378 143.71C59.7711 143.85 59.4811 143.957 59.1678 144.03C58.8611 144.11 58.5278 144.15 58.1678 144.15C57.6078 144.15 57.0945 144.033 56.6278 143.8C56.1611 143.567 55.7578 143.23 55.4178 142.79C55.0845 142.343 54.8245 141.793 54.6378 141.14C54.4578 140.487 54.3678 139.74 54.3678 138.9C54.3678 138.14 54.4711 137.433 54.6778 136.78C54.8845 136.127 55.1811 135.56 55.5678 135.08C55.9545 134.6 56.4178 134.227 56.9578 133.96C57.4978 133.687 58.1045 133.55 58.7778 133.55C59.3511 133.55 59.8411 133.643 60.2478 133.83C60.6545 134.01 61.0178 134.253 61.3378 134.56V129.14H63.8078V144H62.2978ZM59.0078 142.19C59.5211 142.19 59.9578 142.083 60.3178 141.87C60.6778 141.657 61.0178 141.353 61.3378 140.96V136.36C61.0578 136.02 60.7511 135.78 60.4178 135.64C60.0911 135.5 59.7378 135.43 59.3578 135.43C58.9845 135.43 58.6445 135.5 58.3378 135.64C58.0378 135.78 57.7811 135.993 57.5678 136.28C57.3611 136.56 57.2011 136.92 57.0878 137.36C56.9745 137.793 56.9178 138.307 56.9178 138.9C56.9178 139.5 56.9645 140.01 57.0578 140.43C57.1578 140.843 57.2978 141.183 57.4778 141.45C57.6578 141.71 57.8778 141.9 58.1378 142.02C58.3978 142.133 58.6878 142.19 59.0078 142.19ZM70.1241 146.82C70.0507 146.993 69.9541 147.123 69.8341 147.21C69.7207 147.303 69.5441 147.35 69.3041 147.35H67.4641L69.3841 143.24L65.2341 133.74H67.3941C67.5941 133.74 67.7474 133.787 67.8541 133.88C67.9607 133.973 68.0407 134.08 68.0941 134.2L70.2841 139.52C70.3574 139.693 70.4207 139.873 70.4741 140.06C70.5274 140.247 70.5741 140.433 70.6141 140.62C70.6674 140.427 70.7241 140.24 70.7841 140.06C70.8507 139.88 70.9207 139.697 70.9941 139.51L73.0541 134.2C73.1074 134.067 73.1941 133.957 73.3141 133.87C73.4407 133.783 73.5807 133.74 73.7341 133.74H75.7141L70.1241 146.82ZM84.3853 144.16C83.4986 144.16 82.8153 143.91 82.3353 143.41C81.8553 142.903 81.6153 142.207 81.6153 141.32V135.59H80.5753C80.442 135.59 80.3253 135.547 80.2253 135.46C80.132 135.373 80.0853 135.243 80.0853 135.07V134.09L81.7353 133.82L82.2553 131.02C82.282 130.887 82.342 130.783 82.4353 130.71C82.5353 130.637 82.6586 130.6 82.8053 130.6H84.0853V133.83H86.7853V135.59H84.0853V141.15C84.0853 141.47 84.1653 141.72 84.3253 141.9C84.4853 142.08 84.6986 142.17 84.9653 142.17C85.1186 142.17 85.2453 142.153 85.3453 142.12C85.452 142.08 85.542 142.04 85.6153 142C85.6953 141.96 85.7653 141.923 85.8253 141.89C85.8853 141.85 85.9453 141.83 86.0053 141.83C86.0786 141.83 86.1386 141.85 86.1853 141.89C86.232 141.923 86.282 141.977 86.3353 142.05L87.0753 143.25C86.7153 143.55 86.302 143.777 85.8353 143.93C85.3686 144.083 84.8853 144.16 84.3853 144.16ZM93.1297 133.58C93.8964 133.58 94.5897 133.703 95.2097 133.95C95.8364 134.197 96.3697 134.547 96.8097 135C97.2497 135.453 97.5897 136.007 97.8297 136.66C98.0697 137.313 98.1897 138.043 98.1897 138.85C98.1897 139.663 98.0697 140.397 97.8297 141.05C97.5897 141.703 97.2497 142.26 96.8097 142.72C96.3697 143.18 95.8364 143.533 95.2097 143.78C94.5897 144.027 93.8964 144.15 93.1297 144.15C92.363 144.15 91.6664 144.027 91.0397 143.78C90.413 143.533 89.8764 143.18 89.4297 142.72C88.9897 142.26 88.6464 141.703 88.3997 141.05C88.1597 140.397 88.0397 139.663 88.0397 138.85C88.0397 138.043 88.1597 137.313 88.3997 136.66C88.6464 136.007 88.9897 135.453 89.4297 135C89.8764 134.547 90.413 134.197 91.0397 133.95C91.6664 133.703 92.363 133.58 93.1297 133.58ZM93.1297 142.25C93.983 142.25 94.613 141.963 95.0197 141.39C95.433 140.817 95.6397 139.977 95.6397 138.87C95.6397 137.763 95.433 136.92 95.0197 136.34C94.613 135.76 93.983 135.47 93.1297 135.47C92.263 135.47 91.623 135.763 91.2097 136.35C90.7964 136.93 90.5897 137.77 90.5897 138.87C90.5897 139.97 90.7964 140.81 91.2097 141.39C91.623 141.963 92.263 142.25 93.1297 142.25ZM111.204 144C110.884 144 110.674 143.85 110.574 143.55L110.374 142.56C110.161 142.8 109.937 143.017 109.704 143.21C109.471 143.403 109.217 143.57 108.944 143.71C108.677 143.85 108.387 143.957 108.074 144.03C107.767 144.11 107.434 144.15 107.074 144.15C106.514 144.15 106.001 144.033 105.534 143.8C105.067 143.567 104.664 143.23 104.324 142.79C103.991 142.343 103.731 141.793 103.544 141.14C103.364 140.487 103.274 139.74 103.274 138.9C103.274 138.14 103.377 137.433 103.584 136.78C103.791 136.127 104.087 135.56 104.474 135.08C104.861 134.6 105.324 134.227 105.864 133.96C106.404 133.687 107.011 133.55 107.684 133.55C108.257 133.55 108.747 133.643 109.154 133.83C109.561 134.01 109.924 134.253 110.244 134.56V129.14H112.714V144H111.204ZM107.914 142.19C108.427 142.19 108.864 142.083 109.224 141.87C109.584 141.657 109.924 141.353 110.244 140.96V136.36C109.964 136.02 109.657 135.78 109.324 135.64C108.997 135.5 108.644 135.43 108.264 135.43C107.891 135.43 107.551 135.5 107.244 135.64C106.944 135.78 106.687 135.993 106.474 136.28C106.267 136.56 106.107 136.92 105.994 137.36C105.881 137.793 105.824 138.307 105.824 138.9C105.824 139.5 105.871 140.01 105.964 140.43C106.064 140.843 106.204 141.183 106.384 141.45C106.564 141.71 106.784 141.9 107.044 142.02C107.304 142.133 107.594 142.19 107.914 142.19ZM115.39 144V133.74H116.84C117.094 133.74 117.27 133.787 117.37 133.88C117.47 133.973 117.537 134.133 117.57 134.36L117.72 135.6C118.087 134.967 118.517 134.467 119.01 134.1C119.504 133.733 120.057 133.55 120.67 133.55C121.177 133.55 121.597 133.667 121.93 133.9L121.61 135.75C121.59 135.87 121.547 135.957 121.48 136.01C121.414 136.057 121.324 136.08 121.21 136.08C121.11 136.08 120.974 136.057 120.8 136.01C120.627 135.963 120.397 135.94 120.11 135.94C119.597 135.94 119.157 136.083 118.79 136.37C118.424 136.65 118.114 137.063 117.86 137.61V144H115.39ZM126.184 133.74V144H123.714V133.74H126.184ZM126.554 130.75C126.554 130.963 126.511 131.163 126.424 131.35C126.338 131.537 126.221 131.7 126.074 131.84C125.934 131.98 125.768 132.093 125.574 132.18C125.381 132.26 125.174 132.3 124.954 132.3C124.741 132.3 124.538 132.26 124.344 132.18C124.158 132.093 123.994 131.98 123.854 131.84C123.714 131.7 123.601 131.537 123.514 131.35C123.434 131.163 123.394 130.963 123.394 130.75C123.394 130.53 123.434 130.323 123.514 130.13C123.601 129.937 123.714 129.77 123.854 129.63C123.994 129.49 124.158 129.38 124.344 129.3C124.538 129.213 124.741 129.17 124.954 129.17C125.174 129.17 125.381 129.213 125.574 129.3C125.768 129.38 125.934 129.49 126.074 129.63C126.221 129.77 126.338 129.937 126.424 130.13C126.511 130.323 126.554 130.53 126.554 130.75ZM134.124 144H131.884L127.804 133.74H129.854C130.034 133.74 130.184 133.783 130.304 133.87C130.431 133.957 130.517 134.067 130.564 134.2L132.544 139.68C132.657 140 132.751 140.313 132.824 140.62C132.904 140.927 132.974 141.233 133.034 141.54C133.094 141.233 133.161 140.927 133.234 140.62C133.314 140.313 133.414 140 133.534 139.68L135.564 134.2C135.611 134.067 135.694 133.957 135.814 133.87C135.934 133.783 136.077 133.74 136.244 133.74H138.194L134.124 144ZM143.556 133.58C144.203 133.58 144.796 133.683 145.336 133.89C145.883 134.097 146.353 134.4 146.746 134.8C147.139 135.193 147.446 135.68 147.666 136.26C147.886 136.833 147.996 137.49 147.996 138.23C147.996 138.417 147.986 138.573 147.966 138.7C147.953 138.82 147.923 138.917 147.876 138.99C147.836 139.057 147.779 139.107 147.706 139.14C147.633 139.167 147.539 139.18 147.426 139.18H141.086C141.159 140.233 141.443 141.007 141.936 141.5C142.429 141.993 143.083 142.24 143.896 142.24C144.296 142.24 144.639 142.193 144.926 142.1C145.219 142.007 145.473 141.903 145.686 141.79C145.906 141.677 146.096 141.573 146.256 141.48C146.423 141.387 146.583 141.34 146.736 141.34C146.836 141.34 146.923 141.36 146.996 141.4C147.069 141.44 147.133 141.497 147.186 141.57L147.906 142.47C147.633 142.79 147.326 143.06 146.986 143.28C146.646 143.493 146.289 143.667 145.916 143.8C145.549 143.927 145.173 144.017 144.786 144.07C144.406 144.123 144.036 144.15 143.676 144.15C142.963 144.15 142.299 144.033 141.686 143.8C141.073 143.56 140.539 143.21 140.086 142.75C139.633 142.283 139.276 141.71 139.016 141.03C138.756 140.343 138.626 139.55 138.626 138.65C138.626 137.95 138.739 137.293 138.966 136.68C139.193 136.06 139.516 135.523 139.936 135.07C140.363 134.61 140.879 134.247 141.486 133.98C142.099 133.713 142.789 133.58 143.556 133.58ZM143.606 135.35C142.886 135.35 142.323 135.553 141.916 135.96C141.509 136.367 141.249 136.943 141.136 137.69H145.776C145.776 137.37 145.733 137.07 145.646 136.79C145.559 136.503 145.426 136.253 145.246 136.04C145.066 135.827 144.839 135.66 144.566 135.54C144.293 135.413 143.973 135.35 143.606 135.35Z" fill="#111111"/>
<path d="M28.971 171H27.921C27.7997 171 27.7017 170.97 27.627 170.909C27.5523 170.848 27.4963 170.771 27.459 170.678L26.521 168.256H22.02L21.082 170.678C21.0493 170.762 20.9933 170.837 20.914 170.902C20.8347 170.967 20.7367 171 20.62 171H19.57L23.581 160.969H24.96L28.971 171ZM22.398 167.276H26.143L24.568 163.195C24.4653 162.943 24.365 162.628 24.267 162.25C24.2157 162.441 24.1643 162.619 24.113 162.782C24.0663 162.941 24.0197 163.081 23.973 163.202L22.398 167.276ZM35.0286 171C34.8513 171 34.7393 170.914 34.6926 170.741L34.5806 169.88C34.2773 170.249 33.9296 170.545 33.5376 170.769C33.1503 170.988 32.7046 171.098 32.2006 171.098C31.7946 171.098 31.426 171.021 31.0946 170.867C30.7633 170.708 30.481 170.477 30.2476 170.174C30.0143 169.871 29.8346 169.493 29.7086 169.04C29.5826 168.587 29.5196 168.067 29.5196 167.479C29.5196 166.956 29.5896 166.471 29.7296 166.023C29.8696 165.57 30.0703 165.178 30.3316 164.847C30.5976 164.516 30.9196 164.257 31.2976 164.07C31.6756 163.879 32.105 163.783 32.5856 163.783C33.0196 163.783 33.3906 163.858 33.6986 164.007C34.0066 164.152 34.282 164.357 34.5246 164.623V160.689H35.7706V171H35.0286ZM32.6136 170.09C33.0196 170.09 33.3743 169.997 33.6776 169.81C33.9856 169.623 34.268 169.36 34.5246 169.019V165.589C34.296 165.281 34.044 165.066 33.7686 164.945C33.498 164.819 33.197 164.756 32.8656 164.756C32.203 164.756 31.6943 164.992 31.3396 165.463C30.985 165.934 30.8076 166.606 30.8076 167.479C30.8076 167.941 30.8473 168.338 30.9266 168.669C31.006 168.996 31.1226 169.266 31.2766 169.481C31.4306 169.691 31.6196 169.845 31.8436 169.943C32.0676 170.041 32.3243 170.09 32.6136 170.09ZM42.8489 171C42.6716 171 42.5596 170.914 42.5129 170.741L42.4009 169.88C42.0976 170.249 41.7499 170.545 41.3579 170.769C40.9706 170.988 40.5249 171.098 40.0209 171.098C39.6149 171.098 39.2463 171.021 38.9149 170.867C38.5836 170.708 38.3013 170.477 38.0679 170.174C37.8346 169.871 37.6549 169.493 37.5289 169.04C37.4029 168.587 37.3399 168.067 37.3399 167.479C37.3399 166.956 37.4099 166.471 37.5499 166.023C37.6899 165.57 37.8906 165.178 38.1519 164.847C38.4179 164.516 38.7399 164.257 39.1179 164.07C39.4959 163.879 39.9253 163.783 40.4059 163.783C40.8399 163.783 41.2109 163.858 41.5189 164.007C41.8269 164.152 42.1023 164.357 42.3449 164.623V160.689H43.5909V171H42.8489ZM40.4339 170.09C40.8399 170.09 41.1946 169.997 41.4979 169.81C41.8059 169.623 42.0883 169.36 42.3449 169.019V165.589C42.1163 165.281 41.8643 165.066 41.5889 164.945C41.3183 164.819 41.0173 164.756 40.6859 164.756C40.0233 164.756 39.5146 164.992 39.1599 165.463C38.8053 165.934 38.6279 166.606 38.6279 167.479C38.6279 167.941 38.6676 168.338 38.7469 168.669C38.8263 168.996 38.9429 169.266 39.0969 169.481C39.2509 169.691 39.4399 169.845 39.6639 169.943C39.8879 170.041 40.1446 170.09 40.4339 170.09ZM53.5933 171H53.0403C52.9189 171 52.8209 170.981 52.7463 170.944C52.6716 170.907 52.6226 170.827 52.5993 170.706L52.4593 170.048C52.2726 170.216 52.0906 170.368 51.9133 170.503C51.7359 170.634 51.5493 170.746 51.3533 170.839C51.1573 170.928 50.9473 170.995 50.7233 171.042C50.5039 171.089 50.2589 171.112 49.9883 171.112C49.7129 171.112 49.4539 171.075 49.2113 171C48.9733 170.921 48.7656 170.804 48.5883 170.65C48.4109 170.496 48.2686 170.302 48.1613 170.069C48.0586 169.831 48.0073 169.551 48.0073 169.229C48.0073 168.949 48.0843 168.681 48.2383 168.424C48.3923 168.163 48.6396 167.932 48.9803 167.731C49.3256 167.53 49.7759 167.367 50.3313 167.241C50.8866 167.11 51.5656 167.036 52.3683 167.017V166.464C52.3683 165.913 52.2493 165.498 52.0113 165.218C51.7779 164.933 51.4303 164.791 50.9683 164.791C50.6649 164.791 50.4083 164.831 50.1983 164.91C49.9929 164.985 49.8133 165.071 49.6593 165.169C49.5099 165.262 49.3793 165.349 49.2673 165.428C49.1599 165.503 49.0526 165.54 48.9453 165.54C48.8613 165.54 48.7866 165.519 48.7213 165.477C48.6606 165.43 48.6116 165.374 48.5743 165.309L48.3503 164.91C48.7423 164.532 49.1646 164.25 49.6173 164.063C50.0699 163.876 50.5716 163.783 51.1223 163.783C51.5189 163.783 51.8713 163.848 52.1793 163.979C52.4873 164.11 52.7463 164.292 52.9563 164.525C53.1663 164.758 53.3249 165.041 53.4323 165.372C53.5396 165.703 53.5933 166.067 53.5933 166.464V171ZM50.3593 170.237C50.5786 170.237 50.7793 170.216 50.9613 170.174C51.1433 170.127 51.3136 170.064 51.4723 169.985C51.6356 169.901 51.7896 169.801 51.9343 169.684C52.0836 169.567 52.2283 169.434 52.3683 169.285V167.808C51.7943 167.827 51.3066 167.873 50.9053 167.948C50.5039 168.018 50.1773 168.111 49.9253 168.228C49.6733 168.345 49.4889 168.482 49.3723 168.641C49.2603 168.8 49.2043 168.977 49.2043 169.173C49.2043 169.36 49.2346 169.521 49.2953 169.656C49.3559 169.791 49.4376 169.903 49.5403 169.992C49.6429 170.076 49.7643 170.139 49.9043 170.181C50.0443 170.218 50.1959 170.237 50.3593 170.237ZM57.292 163.909H58.314C58.412 163.909 58.4937 163.935 58.559 163.986C58.6243 164.037 58.671 164.098 58.699 164.168L60.498 168.732C60.5633 168.9 60.6147 169.068 60.652 169.236C60.6893 169.404 60.7243 169.57 60.757 169.733C60.7943 169.57 60.834 169.404 60.876 169.236C60.918 169.068 60.9717 168.9 61.037 168.732L62.857 164.168C62.885 164.093 62.9293 164.033 62.99 163.986C63.0553 163.935 63.1347 163.909 63.228 163.909H64.201L61.31 171H60.183L57.292 163.909ZM67.9813 163.797C68.406 163.797 68.798 163.869 69.1573 164.014C69.5167 164.154 69.827 164.359 70.0883 164.63C70.3497 164.896 70.5527 165.227 70.6973 165.624C70.8467 166.016 70.9213 166.464 70.9213 166.968C70.9213 167.164 70.9003 167.295 70.8583 167.36C70.8163 167.425 70.737 167.458 70.6203 167.458H65.9023C65.9117 167.906 65.9723 168.296 66.0843 168.627C66.1963 168.958 66.3503 169.236 66.5463 169.46C66.7423 169.679 66.9757 169.845 67.2463 169.957C67.517 170.064 67.8203 170.118 68.1563 170.118C68.469 170.118 68.7373 170.083 68.9613 170.013C69.19 169.938 69.386 169.859 69.5493 169.775C69.7127 169.691 69.848 169.614 69.9553 169.544C70.0673 169.469 70.163 169.432 70.2423 169.432C70.345 169.432 70.4243 169.472 70.4803 169.551L70.8303 170.006C70.6763 170.193 70.492 170.356 70.2773 170.496C70.0627 170.631 69.8317 170.743 69.5843 170.832C69.3417 170.921 69.0897 170.986 68.8283 171.028C68.567 171.075 68.308 171.098 68.0513 171.098C67.5613 171.098 67.1087 171.016 66.6933 170.853C66.2827 170.685 65.9257 170.442 65.6223 170.125C65.3237 169.803 65.0903 169.406 64.9223 168.935C64.7543 168.464 64.6703 167.922 64.6703 167.311C64.6703 166.816 64.745 166.354 64.8943 165.925C65.0483 165.496 65.2677 165.125 65.5523 164.812C65.837 164.495 66.1847 164.247 66.5953 164.07C67.006 163.888 67.468 163.797 67.9813 163.797ZM68.0093 164.714C67.4073 164.714 66.9337 164.889 66.5883 165.239C66.243 165.584 66.0283 166.065 65.9443 166.681H69.8013C69.8013 166.392 69.7617 166.128 69.6823 165.89C69.603 165.647 69.4863 165.44 69.3323 165.267C69.1783 165.09 68.9893 164.954 68.7653 164.861C68.546 164.763 68.294 164.714 68.0093 164.714ZM72.5161 171V160.689H73.7621V164.861C74.0655 164.539 74.4015 164.282 74.7701 164.091C75.1388 163.895 75.5635 163.797 76.0441 163.797C76.4315 163.797 76.7721 163.862 77.0661 163.993C77.3648 164.119 77.6121 164.301 77.8081 164.539C78.0088 164.772 78.1605 165.055 78.2631 165.386C78.3658 165.717 78.4171 166.084 78.4171 166.485V171H77.1711V166.485C77.1711 165.948 77.0475 165.533 76.8001 165.239C76.5575 164.94 76.1841 164.791 75.6801 164.791C75.3115 164.791 74.9661 164.88 74.6441 165.057C74.3268 165.234 74.0328 165.475 73.7621 165.778V171H72.5161ZM81.6814 163.909V171H80.4354V163.909H81.6814ZM81.9614 161.683C81.9614 161.804 81.9358 161.919 81.8844 162.026C81.8378 162.129 81.7724 162.222 81.6884 162.306C81.6091 162.385 81.5158 162.448 81.4084 162.495C81.3011 162.542 81.1868 162.565 81.0654 162.565C80.9441 162.565 80.8298 162.542 80.7224 162.495C80.6198 162.448 80.5264 162.385 80.4424 162.306C80.3631 162.222 80.3001 162.129 80.2534 162.026C80.2068 161.919 80.1834 161.804 80.1834 161.683C80.1834 161.562 80.2068 161.447 80.2534 161.34C80.3001 161.228 80.3631 161.132 80.4424 161.053C80.5264 160.969 80.6198 160.904 80.7224 160.857C80.8298 160.81 80.9441 160.787 81.0654 160.787C81.1868 160.787 81.3011 160.81 81.4084 160.857C81.5158 160.904 81.6091 160.969 81.6884 161.053C81.7724 161.132 81.8378 161.228 81.8844 161.34C81.9358 161.447 81.9614 161.562 81.9614 161.683ZM88.7145 165.169C88.6771 165.22 88.6398 165.26 88.6025 165.288C88.5651 165.316 88.5115 165.33 88.4415 165.33C88.3715 165.33 88.2945 165.302 88.2105 165.246C88.1311 165.185 88.0285 165.12 87.9025 165.05C87.7765 164.98 87.6225 164.917 87.4405 164.861C87.2631 164.8 87.0438 164.77 86.7825 164.77C86.4371 164.77 86.1315 164.833 85.8655 164.959C85.5995 165.08 85.3755 165.258 85.1935 165.491C85.0161 165.724 84.8808 166.007 84.7875 166.338C84.6988 166.669 84.6545 167.04 84.6545 167.451C84.6545 167.88 84.7035 168.263 84.8015 168.599C84.8995 168.93 85.0371 169.21 85.2145 169.439C85.3918 169.663 85.6065 169.836 85.8585 169.957C86.1151 170.074 86.4021 170.132 86.7195 170.132C87.0228 170.132 87.2725 170.097 87.4685 170.027C87.6645 169.952 87.8278 169.871 87.9585 169.782C88.0891 169.693 88.1965 169.614 88.2805 169.544C88.3645 169.469 88.4485 169.432 88.5325 169.432C88.6398 169.432 88.7191 169.472 88.7705 169.551L89.1205 170.006C88.8125 170.384 88.4275 170.662 87.9655 170.839C87.5035 171.012 87.0158 171.098 86.5025 171.098C86.0591 171.098 85.6461 171.016 85.2635 170.853C84.8855 170.69 84.5565 170.454 84.2765 170.146C83.9965 169.833 83.7748 169.451 83.6115 168.998C83.4528 168.545 83.3735 168.03 83.3735 167.451C83.3735 166.924 83.4458 166.436 83.5905 165.988C83.7398 165.54 83.9545 165.155 84.2345 164.833C84.5191 164.506 84.8691 164.252 85.2845 164.07C85.6998 163.888 86.1758 163.797 86.7125 163.797C87.2071 163.797 87.6458 163.879 88.0285 164.042C88.4111 164.201 88.7495 164.427 89.0435 164.721L88.7145 165.169ZM91.7986 160.689V171H90.5526V160.689H91.7986ZM96.8017 163.797C97.2263 163.797 97.6183 163.869 97.9777 164.014C98.337 164.154 98.6473 164.359 98.9087 164.63C99.17 164.896 99.373 165.227 99.5177 165.624C99.667 166.016 99.7417 166.464 99.7417 166.968C99.7417 167.164 99.7207 167.295 99.6787 167.36C99.6367 167.425 99.5573 167.458 99.4407 167.458H94.7227C94.732 167.906 94.7927 168.296 94.9047 168.627C95.0167 168.958 95.1707 169.236 95.3667 169.46C95.5627 169.679 95.796 169.845 96.0667 169.957C96.3373 170.064 96.6407 170.118 96.9767 170.118C97.2893 170.118 97.5577 170.083 97.7817 170.013C98.0103 169.938 98.2063 169.859 98.3697 169.775C98.533 169.691 98.6683 169.614 98.7757 169.544C98.8877 169.469 98.9833 169.432 99.0627 169.432C99.1653 169.432 99.2447 169.472 99.3007 169.551L99.6507 170.006C99.4967 170.193 99.3123 170.356 99.0977 170.496C98.883 170.631 98.652 170.743 98.4047 170.832C98.162 170.921 97.91 170.986 97.6487 171.028C97.3873 171.075 97.1283 171.098 96.8717 171.098C96.3817 171.098 95.929 171.016 95.5137 170.853C95.103 170.685 94.746 170.442 94.4427 170.125C94.144 169.803 93.9107 169.406 93.7427 168.935C93.5747 168.464 93.4907 167.922 93.4907 167.311C93.4907 166.816 93.5653 166.354 93.7147 165.925C93.8687 165.496 94.088 165.125 94.3727 164.812C94.6573 164.495 95.005 164.247 95.4157 164.07C95.8263 163.888 96.2883 163.797 96.8017 163.797ZM96.8297 164.714C96.2277 164.714 95.754 164.889 95.4087 165.239C95.0633 165.584 94.8487 166.065 94.7647 166.681H98.6217C98.6217 166.392 98.582 166.128 98.5027 165.89C98.4233 165.647 98.3067 165.44 98.1527 165.267C97.9987 165.09 97.8097 164.954 97.5857 164.861C97.3663 164.763 97.1143 164.714 96.8297 164.714Z" fill="#5B5B5B"/>
<path d="M100.653 218.874C100.718 218.986 100.774 219.105 100.821 219.231C100.872 219.352 100.921 219.476 100.968 219.602C101.015 219.471 101.064 219.348 101.115 219.231C101.166 219.11 101.225 218.988 101.29 218.867L104.685 212.7C104.746 212.593 104.809 212.527 104.874 212.504C104.939 212.481 105.033 212.469 105.154 212.469H106.155V222.5H104.965V215.129C104.965 215.031 104.967 214.926 104.972 214.814C104.977 214.702 104.984 214.588 104.993 214.471L101.556 220.743C101.439 220.953 101.276 221.058 101.066 221.058H100.87C100.66 221.058 100.497 220.953 100.38 220.743L96.866 214.45C96.88 214.571 96.8893 214.69 96.894 214.807C96.9033 214.924 96.908 215.031 96.908 215.129V222.5H95.718V212.469H96.719C96.8403 212.469 96.9337 212.481 96.999 212.504C97.0643 212.527 97.1273 212.593 97.188 212.7L100.653 218.874ZM109.787 215.409V222.5H108.541V215.409H109.787ZM110.067 213.183C110.067 213.304 110.041 213.419 109.99 213.526C109.943 213.629 109.878 213.722 109.794 213.806C109.715 213.885 109.621 213.948 109.514 213.995C109.407 214.042 109.292 214.065 109.171 214.065C109.05 214.065 108.935 214.042 108.828 213.995C108.725 213.948 108.632 213.885 108.548 213.806C108.469 213.722 108.406 213.629 108.359 213.526C108.312 213.419 108.289 213.304 108.289 213.183C108.289 213.062 108.312 212.947 108.359 212.84C108.406 212.728 108.469 212.632 108.548 212.553C108.632 212.469 108.725 212.404 108.828 212.357C108.935 212.31 109.05 212.287 109.171 212.287C109.292 212.287 109.407 212.31 109.514 212.357C109.621 212.404 109.715 212.469 109.794 212.553C109.878 212.632 109.943 212.728 109.99 212.84C110.041 212.947 110.067 213.062 110.067 213.183ZM111.983 222.5V215.409H112.725C112.902 215.409 113.014 215.495 113.061 215.668L113.159 216.438C113.467 216.097 113.81 215.822 114.188 215.612C114.571 215.402 115.012 215.297 115.511 215.297C115.898 215.297 116.239 215.362 116.533 215.493C116.832 215.619 117.079 215.801 117.275 216.039C117.476 216.272 117.627 216.555 117.73 216.886C117.833 217.217 117.884 217.584 117.884 217.985V222.5H116.638V217.985C116.638 217.448 116.514 217.033 116.267 216.739C116.024 216.44 115.651 216.291 115.147 216.291C114.778 216.291 114.433 216.38 114.111 216.557C113.794 216.734 113.5 216.975 113.229 217.278V222.5H111.983ZM121.148 215.409V222.5H119.902V215.409H121.148ZM121.428 213.183C121.428 213.304 121.403 213.419 121.351 213.526C121.305 213.629 121.239 213.722 121.155 213.806C121.076 213.885 120.983 213.948 120.875 213.995C120.768 214.042 120.654 214.065 120.532 214.065C120.411 214.065 120.297 214.042 120.189 213.995C120.087 213.948 119.993 213.885 119.909 213.806C119.83 213.722 119.767 213.629 119.72 213.526C119.674 213.419 119.65 213.304 119.65 213.183C119.65 213.062 119.674 212.947 119.72 212.84C119.767 212.728 119.83 212.632 119.909 212.553C119.993 212.469 120.087 212.404 120.189 212.357C120.297 212.31 120.411 212.287 120.532 212.287C120.654 212.287 120.768 212.31 120.875 212.357C120.983 212.404 121.076 212.469 121.155 212.553C121.239 212.632 121.305 212.728 121.351 212.84C121.403 212.947 121.428 213.062 121.428 213.183ZM100.191 241.513C100.462 241.513 100.709 241.501 100.933 241.478C101.162 241.45 101.376 241.41 101.577 241.359C101.778 241.308 101.967 241.247 102.144 241.177C102.321 241.102 102.499 241.018 102.676 240.925V238.713H101.122C101.033 238.713 100.961 238.687 100.905 238.636C100.854 238.585 100.828 238.522 100.828 238.447V237.677H103.908V241.527C103.656 241.709 103.392 241.868 103.117 242.003C102.846 242.138 102.555 242.253 102.242 242.346C101.934 242.435 101.603 242.5 101.248 242.542C100.893 242.589 100.508 242.612 100.093 242.612C99.365 242.612 98.6977 242.488 98.091 242.241C97.4843 241.989 96.9617 241.639 96.523 241.191C96.0843 240.738 95.7413 240.197 95.494 239.567C95.2513 238.937 95.13 238.244 95.13 237.488C95.13 236.723 95.249 236.025 95.487 235.395C95.7297 234.765 96.0727 234.226 96.516 233.778C96.964 233.325 97.503 232.975 98.133 232.728C98.7677 232.481 99.477 232.357 100.261 232.357C100.658 232.357 101.026 232.387 101.367 232.448C101.708 232.504 102.023 232.588 102.312 232.7C102.606 232.807 102.877 232.94 103.124 233.099C103.371 233.253 103.602 233.428 103.817 233.624L103.432 234.24C103.353 234.366 103.25 234.429 103.124 234.429C103.049 234.429 102.968 234.403 102.879 234.352C102.762 234.287 102.632 234.207 102.487 234.114C102.342 234.021 102.165 233.932 101.955 233.848C101.75 233.759 101.505 233.685 101.22 233.624C100.94 233.563 100.606 233.533 100.219 233.533C99.6543 233.533 99.1433 233.626 98.686 233.813C98.2287 233.995 97.839 234.259 97.517 234.604C97.195 234.945 96.9477 235.36 96.775 235.85C96.6023 236.335 96.516 236.881 96.516 237.488C96.516 238.123 96.6047 238.69 96.782 239.189C96.964 239.684 97.2183 240.104 97.545 240.449C97.8717 240.794 98.259 241.058 98.707 241.24C99.155 241.422 99.6497 241.513 100.191 241.513ZM111.627 233.015C111.627 233.192 111.571 233.339 111.459 233.456C111.347 233.568 111.158 233.624 110.892 233.624H107.742L107.28 236.256C107.803 236.144 108.286 236.088 108.729 236.088C109.252 236.088 109.712 236.165 110.108 236.319C110.51 236.473 110.846 236.685 111.116 236.956C111.387 237.227 111.59 237.546 111.725 237.915C111.865 238.284 111.935 238.685 111.935 239.119C111.935 239.651 111.842 240.132 111.655 240.561C111.469 240.99 111.212 241.359 110.885 241.667C110.563 241.97 110.183 242.204 109.744 242.367C109.306 242.53 108.832 242.612 108.323 242.612C108.029 242.612 107.747 242.582 107.476 242.521C107.206 242.465 106.954 242.388 106.72 242.29C106.487 242.192 106.27 242.08 106.069 241.954C105.869 241.828 105.691 241.695 105.537 241.555L105.915 241.023C105.999 240.902 106.111 240.841 106.251 240.841C106.34 240.841 106.443 240.878 106.559 240.953C106.681 241.023 106.825 241.102 106.993 241.191C107.161 241.28 107.357 241.361 107.581 241.436C107.81 241.506 108.081 241.541 108.393 241.541C108.743 241.541 109.058 241.485 109.338 241.373C109.618 241.261 109.856 241.102 110.052 240.897C110.253 240.687 110.407 240.437 110.514 240.148C110.622 239.859 110.675 239.534 110.675 239.175C110.675 238.862 110.629 238.58 110.535 238.328C110.447 238.076 110.309 237.861 110.122 237.684C109.94 237.507 109.712 237.369 109.436 237.271C109.161 237.173 108.839 237.124 108.47 237.124C108.218 237.124 107.957 237.145 107.686 237.187C107.416 237.229 107.136 237.297 106.846 237.39L106.062 237.159L106.874 232.469H111.627V233.015ZM113.602 237.775H117.06V238.832H113.602V237.775ZM124.602 233.015C124.602 233.192 124.546 233.339 124.434 233.456C124.322 233.568 124.133 233.624 123.867 233.624H120.717L120.255 236.256C120.778 236.144 121.261 236.088 121.704 236.088C122.227 236.088 122.686 236.165 123.083 236.319C123.484 236.473 123.82 236.685 124.091 236.956C124.362 237.227 124.565 237.546 124.7 237.915C124.84 238.284 124.91 238.685 124.91 239.119C124.91 239.651 124.817 240.132 124.63 240.561C124.443 240.99 124.187 241.359 123.86 241.667C123.538 241.97 123.158 242.204 122.719 242.367C122.28 242.53 121.807 242.612 121.298 242.612C121.004 242.612 120.722 242.582 120.451 242.521C120.18 242.465 119.928 242.388 119.695 242.29C119.462 242.192 119.245 242.08 119.044 241.954C118.843 241.828 118.666 241.695 118.512 241.555L118.89 241.023C118.974 240.902 119.086 240.841 119.226 240.841C119.315 240.841 119.417 240.878 119.534 240.953C119.655 241.023 119.8 241.102 119.968 241.191C120.136 241.28 120.332 241.361 120.556 241.436C120.785 241.506 121.055 241.541 121.368 241.541C121.718 241.541 122.033 241.485 122.313 241.373C122.593 241.261 122.831 241.102 123.027 240.897C123.228 240.687 123.382 240.437 123.489 240.148C123.596 239.859 123.65 239.534 123.65 239.175C123.65 238.862 123.603 238.58 123.51 238.328C123.421 238.076 123.284 237.861 123.097 237.684C122.915 237.507 122.686 237.369 122.411 237.271C122.136 237.173 121.814 237.124 121.445 237.124C121.193 237.124 120.932 237.145 120.661 237.187C120.39 237.229 120.11 237.297 119.821 237.39L119.037 237.159L119.849 232.469H124.602V233.015ZM130.427 236.354C130.828 236.354 131.209 236.422 131.568 236.557C131.927 236.688 132.242 236.881 132.513 237.138C132.784 237.39 132.998 237.703 133.157 238.076C133.316 238.445 133.395 238.867 133.395 239.343C133.395 239.805 133.311 240.234 133.143 240.631C132.975 241.028 132.739 241.373 132.436 241.667C132.137 241.961 131.776 242.192 131.351 242.36C130.926 242.528 130.46 242.612 129.951 242.612C129.447 242.612 128.99 242.533 128.579 242.374C128.173 242.211 127.825 241.982 127.536 241.688C127.247 241.389 127.023 241.03 126.864 240.61C126.71 240.185 126.633 239.712 126.633 239.189C126.633 238.75 126.731 238.284 126.927 237.789C127.123 237.294 127.433 236.762 127.858 236.193L130.399 232.77C130.464 232.686 130.555 232.616 130.672 232.56C130.789 232.499 130.922 232.469 131.071 232.469H132.177L128.698 236.872C128.936 236.709 129.2 236.583 129.489 236.494C129.778 236.401 130.091 236.354 130.427 236.354ZM127.837 239.406C127.837 239.728 127.884 240.022 127.977 240.288C128.07 240.554 128.206 240.783 128.383 240.974C128.565 241.165 128.784 241.315 129.041 241.422C129.302 241.525 129.599 241.576 129.93 241.576C130.266 241.576 130.569 241.522 130.84 241.415C131.111 241.308 131.342 241.158 131.533 240.967C131.729 240.776 131.878 240.549 131.981 240.288C132.088 240.027 132.142 239.742 132.142 239.434C132.142 239.107 132.091 238.813 131.988 238.552C131.885 238.286 131.741 238.062 131.554 237.88C131.367 237.693 131.143 237.551 130.882 237.453C130.621 237.355 130.334 237.306 130.021 237.306C129.685 237.306 129.382 237.364 129.111 237.481C128.84 237.593 128.609 237.747 128.418 237.943C128.231 238.134 128.087 238.358 127.984 238.615C127.886 238.867 127.837 239.131 127.837 239.406ZM141.586 232.469V233.029C141.586 233.188 141.567 233.318 141.53 233.421C141.497 233.524 141.462 233.61 141.425 233.68L137.274 242.059C137.213 242.18 137.129 242.285 137.022 242.374C136.915 242.458 136.77 242.5 136.588 242.5H135.699L139.913 234.226C139.974 234.109 140.034 234.002 140.095 233.904C140.16 233.806 140.233 233.713 140.312 233.624H135.076C134.997 233.624 134.924 233.594 134.859 233.533C134.798 233.468 134.768 233.395 134.768 233.316V232.469H141.586ZM142.819 237.775H146.277V238.832H142.819V237.775ZM151.964 239.035C151.964 239.595 151.894 240.097 151.754 240.54C151.618 240.983 151.415 241.359 151.145 241.667C150.879 241.97 150.55 242.204 150.158 242.367C149.766 242.53 149.315 242.612 148.807 242.612C148.354 242.612 147.883 242.547 147.393 242.416C147.402 242.281 147.414 242.148 147.428 242.017C147.442 241.882 147.456 241.749 147.47 241.618C147.479 241.539 147.507 241.476 147.554 241.429C147.605 241.378 147.68 241.352 147.778 241.352C147.862 241.352 147.974 241.373 148.114 241.415C148.254 241.457 148.44 241.478 148.674 241.478C148.982 241.478 149.255 241.431 149.493 241.338C149.735 241.245 149.938 241.1 150.102 240.904C150.27 240.708 150.396 240.458 150.48 240.155C150.568 239.847 150.613 239.483 150.613 239.063V232.469H151.964V239.035ZM162.545 242.5H161.18V237.936H155.776V242.5H154.411V232.469H155.776V236.942H161.18V232.469H162.545V242.5Z" fill="#111111"/>
<circle cx="49.5" cy="227" r="30" fill="#C4C4C4"/>
<circle opacity="0.1" cx="340" cy="227" r="15" fill="#EC1A1A"/>
<path fill-rule="evenodd" clip-rule="evenodd" d="M339.333 220.333C338.965 220.333 338.666 220.632 338.666 221V221.667H341.333V221C341.333 220.632 341.035 220.333 340.666 220.333H339.333ZM342.666 221.667V221C342.666 219.895 341.771 219 340.666 219H339.333C338.228 219 337.333 219.895 337.333 221V221.667H334C333.631 221.667 333.333 221.965 333.333 222.333C333.333 222.702 333.631 223 334 223H334.07L335.205 233.221C335.318 234.234 336.174 235 337.193 235H342.806C343.825 235 344.682 234.234 344.794 233.221L345.93 223H346C346.368 223 346.666 222.702 346.666 222.333C346.666 221.965 346.368 221.667 346 221.667H342.666ZM344.588 223H335.411L336.53 233.074C336.568 233.411 336.853 233.667 337.193 233.667H342.806C343.146 233.667 343.431 233.411 343.469 233.074L344.588 223ZM338.666 225C339.035 225 339.333 225.298 339.333 225.667V231C339.333 231.368 339.035 231.667 338.666 231.667C338.298 231.667 338 231.368 338 231V225.667C338 225.298 338.298 225 338.666 225ZM341.333 225C341.701 225 342 225.298 342 225.667V231C342 231.368 341.701 231.667 341.333 231.667C340.965 231.667 340.666 231.368 340.666 231V225.667C340.666 225.298 340.965 225 341.333 225Z" fill="#EC1A1A"/>
<g filter="url(#filter0_d_218_25848)">
<path d="M0.5 0H375.5V74C375.5 85.0457 366.546 94 355.5 94H20.5C9.45431 94 0.5 85.0457 0.5 74V0Z" fill="white"/>
</g>
<path d="M141.556 53.5232H143.726C143.959 53.5232 144.149 53.5798 144.296 53.6932C144.442 53.8065 144.552 53.9532 144.626 54.1332L148.026 62.9532C148.139 63.2398 148.246 63.5565 148.346 63.9032C148.452 64.2432 148.552 64.6032 148.646 64.9832C148.799 64.2165 148.989 63.5398 149.216 62.9532L152.606 54.1332C152.666 53.9798 152.772 53.8398 152.926 53.7132C153.079 53.5865 153.269 53.5232 153.496 53.5232H155.666L149.826 67.9832H147.396L141.556 53.5232ZM166.295 53.5232V55.6632H159.885V59.6732H164.935V61.7432H159.885V65.8332H166.295V67.9832H157.175V53.5232H166.295ZM180.82 67.9832H178.11V61.6632H171.33V67.9832H168.62V53.5232H171.33V59.7432H178.11V53.5232H180.82V67.9832ZM186.767 67.9832H184.067V53.5232H186.767V67.9832ZM199.966 64.5732C200.113 64.5732 200.24 64.6298 200.346 64.7432L201.406 65.8932C200.82 66.6198 200.096 67.1765 199.236 67.5632C198.383 67.9498 197.356 68.1432 196.156 68.1432C195.083 68.1432 194.116 67.9598 193.256 67.5932C192.403 67.2265 191.673 66.7165 191.066 66.0632C190.46 65.4098 189.993 64.6298 189.666 63.7232C189.346 62.8165 189.186 61.8265 189.186 60.7532C189.186 59.6665 189.366 58.6732 189.726 57.7732C190.086 56.8665 190.593 56.0865 191.246 55.4332C191.9 54.7798 192.68 54.2732 193.586 53.9132C194.5 53.5465 195.506 53.3632 196.606 53.3632C197.68 53.3632 198.616 53.5365 199.416 53.8832C200.223 54.2232 200.913 54.6765 201.486 55.2432L200.586 56.4932C200.533 56.5732 200.463 56.6432 200.376 56.7032C200.296 56.7632 200.183 56.7932 200.036 56.7932C199.883 56.7932 199.726 56.7332 199.566 56.6132C199.406 56.4932 199.203 56.3632 198.956 56.2232C198.71 56.0832 198.396 55.9532 198.016 55.8332C197.643 55.7132 197.166 55.6532 196.586 55.6532C195.906 55.6532 195.28 55.7732 194.706 56.0132C194.14 56.2465 193.65 56.5832 193.236 57.0232C192.83 57.4632 192.51 57.9998 192.276 58.6332C192.05 59.2598 191.936 59.9665 191.936 60.7532C191.936 61.5665 192.05 62.2898 192.276 62.9232C192.51 63.5565 192.823 64.0898 193.216 64.5232C193.61 64.9565 194.073 65.2898 194.606 65.5232C195.14 65.7498 195.713 65.8632 196.326 65.8632C196.693 65.8632 197.023 65.8432 197.316 65.8032C197.616 65.7632 197.89 65.6998 198.136 65.6132C198.39 65.5265 198.626 65.4165 198.846 65.2832C199.073 65.1432 199.296 64.9732 199.516 64.7732C199.583 64.7132 199.653 64.6665 199.726 64.6332C199.8 64.5932 199.88 64.5732 199.966 64.5732ZM206.134 65.7632H211.924V67.9832H203.444V53.5232H206.134V65.7632ZM222.896 53.5232V55.6632H216.486V59.6732H221.536V61.7432H216.486V65.8332H222.896V67.9832H213.776V53.5232H222.896ZM232.972 56.1532C232.898 56.2998 232.812 56.4032 232.712 56.4632C232.618 56.5232 232.505 56.5532 232.372 56.5532C232.238 56.5532 232.088 56.5032 231.922 56.4032C231.755 56.2965 231.558 56.1798 231.332 56.0532C231.105 55.9265 230.838 55.8132 230.532 55.7132C230.232 55.6065 229.875 55.5532 229.462 55.5532C229.088 55.5532 228.762 55.5998 228.482 55.6932C228.208 55.7798 227.975 55.9032 227.782 56.0632C227.595 56.2232 227.455 56.4165 227.362 56.6432C227.268 56.8632 227.222 57.1065 227.222 57.3732C227.222 57.7132 227.315 57.9965 227.502 58.2232C227.695 58.4498 227.948 58.6432 228.262 58.8032C228.575 58.9632 228.932 59.1065 229.332 59.2332C229.732 59.3598 230.138 59.4965 230.552 59.6432C230.972 59.7832 231.382 59.9498 231.782 60.1432C232.182 60.3298 232.538 60.5698 232.852 60.8632C233.165 61.1498 233.415 61.5032 233.602 61.9232C233.795 62.3432 233.892 62.8532 233.892 63.4532C233.892 64.1065 233.778 64.7198 233.552 65.2932C233.332 65.8598 233.005 66.3565 232.572 66.7832C232.145 67.2032 231.622 67.5365 231.002 67.7832C230.382 68.0232 229.672 68.1432 228.872 68.1432C228.412 68.1432 227.958 68.0965 227.512 68.0032C227.065 67.9165 226.635 67.7898 226.222 67.6232C225.815 67.4565 225.432 67.2565 225.072 67.0232C224.718 66.7898 224.402 66.5298 224.122 66.2432L224.902 64.9532C224.975 64.8598 225.062 64.7832 225.162 64.7232C225.268 64.6565 225.385 64.6232 225.512 64.6232C225.678 64.6232 225.858 64.6932 226.052 64.8332C226.245 64.9665 226.472 65.1165 226.732 65.2832C226.998 65.4498 227.308 65.6032 227.662 65.7432C228.022 65.8765 228.452 65.9432 228.952 65.9432C229.718 65.9432 230.312 65.7632 230.732 65.4032C231.152 65.0365 231.362 64.5132 231.362 63.8332C231.362 63.4532 231.265 63.1432 231.072 62.9032C230.885 62.6632 230.635 62.4632 230.322 62.3032C230.008 62.1365 229.652 61.9965 229.252 61.8832C228.852 61.7698 228.445 61.6465 228.032 61.5132C227.618 61.3798 227.212 61.2198 226.812 61.0332C226.412 60.8465 226.055 60.6032 225.742 60.3032C225.428 60.0032 225.175 59.6298 224.982 59.1832C224.795 58.7298 224.702 58.1732 224.702 57.5132C224.702 56.9865 224.805 56.4732 225.012 55.9732C225.225 55.4732 225.532 55.0298 225.932 54.6432C226.338 54.2565 226.835 53.9465 227.422 53.7132C228.008 53.4798 228.678 53.3632 229.432 53.3632C230.285 53.3632 231.072 53.4965 231.792 53.7632C232.512 54.0298 233.125 54.4032 233.632 54.8832L232.972 56.1532Z" fill="#111111"/>
<path d="M20.491 61.5706L20.4911 61.5707L27.3425 68.4894L27.3426 68.4895C27.6651 68.8149 28.1884 68.8143 28.5102 68.4879L28.5103 68.4878C28.8303 68.1629 28.8294 67.6381 28.5087 67.3142L28.5087 67.3142L22.2393 60.9831L28.5089 54.6521L28.5089 54.6521C28.8296 54.3281 28.8305 53.8036 28.5106 53.4787L28.5105 53.4786C28.3497 53.3155 28.1377 53.2332 27.9257 53.2332C27.7144 53.2332 27.5032 53.3149 27.3426 53.477L27.3426 53.477L20.4914 60.3954L20.6688 60.5715L20.4911 60.3956L20.4913 60.3954C20.3363 60.5517 20.25 60.7634 20.25 60.9831C20.25 61.2032 20.3366 61.4145 20.491 61.5706Z" fill="#111111" stroke="#111111" stroke-width="0.5"/>
<path d="M93.5 0.0204082H293.5C293.5 0.0204082 291 -0.979591 290.773 11.0204C290.545 23.0204 285.075 28.0204 278.045 28.0204H108.955C101.925 28.0204 96.4545 23.0204 96.2273 11.0204C96 -0.979591 93.5 0.0204082 93.5 0.0204082Z" fill="#DDDDDD"/>
<g opacity="0.1">
<path fill-rule="evenodd" clip-rule="evenodd" d="M340.172 13H353.535C354.102 13 354.645 13.2251 355.046 13.6259C355.447 14.0267 355.672 14.5702 355.672 15.137V19.946C355.672 20.5128 355.447 21.0563 355.046 21.4571C354.645 21.8579 354.102 22.083 353.535 22.083H340.172C339.605 22.083 339.062 21.8579 338.661 21.4571C338.26 21.0563 338.035 20.5128 338.035 19.946V15.137C338.035 14.5702 338.26 14.0267 338.661 13.6259C339.062 13.2251 339.605 13 340.172 13Z" fill="black"/>
</g>
<path d="M356.469 15.939V19.145C356.784 19.0124 357.053 18.7899 357.242 18.5053C357.431 18.2208 357.532 17.8868 357.533 17.545C357.533 17.2023 357.433 16.867 357.243 16.5812C357.054 16.2955 356.785 16.0721 356.469 15.939" fill="#111111"/>
<path d="M340.707 14.603H352.997C353.28 14.603 353.552 14.7157 353.753 14.9161C353.953 15.1166 354.066 15.3885 354.066 15.672V19.412C354.066 19.6955 353.953 19.9674 353.753 20.1679C353.552 20.3684 353.28 20.481 352.997 20.481H340.707C340.423 20.481 340.151 20.3684 339.951 20.1679C339.75 19.9674 339.638 19.6955 339.638 19.412V15.67C339.638 15.3869 339.751 15.1155 339.952 14.9154C340.152 14.7154 340.424 14.603 340.707 14.603V14.603Z" fill="#111111"/>
<path d="M327.475 14.8221C329.251 14.8221 330.959 15.5045 332.246 16.7281C332.293 16.7737 332.355 16.7993 332.42 16.7993C332.485 16.7993 332.547 16.7737 332.593 16.7281L333.52 15.7931C333.544 15.769 333.563 15.7404 333.576 15.709C333.589 15.6776 333.596 15.644 333.595 15.6101C333.595 15.5761 333.588 15.5426 333.575 15.5114C333.562 15.4802 333.543 15.4518 333.518 15.4281C331.892 13.8699 329.728 13 327.475 13C325.223 13 323.058 13.8699 321.432 15.4281C321.408 15.4518 321.389 15.4802 321.376 15.5114C321.363 15.5426 321.356 15.5761 321.355 15.6101C321.355 15.644 321.362 15.6776 321.375 15.709C321.388 15.7404 321.407 15.769 321.43 15.7931L322.357 16.7281C322.404 16.7737 322.466 16.7993 322.531 16.7993C322.596 16.7993 322.658 16.7737 322.704 16.7281C323.992 15.5042 325.7 14.8219 327.476 14.8221H327.475ZM327.475 17.8641C328.451 17.8641 329.392 18.227 330.115 18.8821C330.162 18.9272 330.224 18.9525 330.289 18.9525C330.354 18.9525 330.416 18.9272 330.462 18.8821L331.387 17.9471C331.412 17.9227 331.431 17.8939 331.444 17.8621C331.456 17.8303 331.463 17.7963 331.462 17.7621C331.462 17.7278 331.455 17.694 331.441 17.6626C331.428 17.6312 331.408 17.6028 331.383 17.5791C330.322 16.5915 328.925 16.0425 327.475 16.0425C326.025 16.0425 324.629 16.5915 323.567 17.5791C323.543 17.6028 323.523 17.6312 323.51 17.6626C323.496 17.694 323.489 17.7278 323.488 17.7621C323.488 17.7963 323.494 17.8303 323.507 17.8621C323.52 17.8939 323.539 17.9227 323.563 17.9471L324.488 18.8821C324.535 18.9272 324.597 18.9525 324.662 18.9525C324.727 18.9525 324.789 18.9272 324.835 18.8821C325.558 18.2274 326.498 17.8646 327.473 17.8641H327.475ZM329.254 20.0961C329.279 20.072 329.298 20.0432 329.311 20.0113C329.324 19.9795 329.33 19.9454 329.329 19.9111C329.329 19.8767 329.321 19.8428 329.307 19.8115C329.293 19.7802 329.272 19.7521 329.246 19.7291C328.751 19.3102 328.124 19.0804 327.475 19.0804C326.827 19.0804 326.2 19.3102 325.704 19.7291C325.679 19.752 325.659 19.7798 325.644 19.811C325.63 19.8421 325.622 19.8758 325.621 19.9101C325.621 19.9444 325.627 19.9785 325.64 20.0103C325.653 20.0422 325.672 20.071 325.696 20.0951L327.296 21.7111C327.32 21.7346 327.347 21.7532 327.378 21.7659C327.409 21.7786 327.441 21.7851 327.474 21.7851C327.508 21.7851 327.54 21.7786 327.571 21.7659C327.601 21.7532 327.629 21.7346 327.652 21.7111L329.254 20.0961Z" fill="#111111"/>
<path d="M23.294 18.472C22.97 18.472 22.662 18.418 22.37 18.31C22.082 18.202 21.828 18.044 21.608 17.836C21.388 17.624 21.212 17.366 21.08 17.062C20.952 16.754 20.888 16.402 20.888 16.006C20.888 15.63 20.958 15.278 21.098 14.95C21.238 14.622 21.434 14.336 21.686 14.092C21.938 13.848 22.238 13.656 22.586 13.516C22.934 13.376 23.316 13.306 23.732 13.306C24.144 13.306 24.518 13.374 24.854 13.51C25.19 13.646 25.478 13.836 25.718 14.08C25.958 14.324 26.142 14.616 26.27 14.956C26.402 15.296 26.468 15.672 26.468 16.084C26.468 16.332 26.444 16.568 26.396 16.792C26.352 17.012 26.286 17.228 26.198 17.44C26.11 17.652 26.004 17.864 25.88 18.076C25.76 18.284 25.622 18.5 25.466 18.724L23.372 21.748C23.32 21.824 23.246 21.886 23.15 21.934C23.054 21.978 22.944 22 22.82 22H21.836L24.452 18.574C24.54 18.458 24.622 18.348 24.698 18.244C24.774 18.14 24.846 18.036 24.914 17.932C24.694 18.108 24.446 18.242 24.17 18.334C23.894 18.426 23.602 18.472 23.294 18.472ZM25.442 15.958C25.442 15.69 25.398 15.448 25.31 15.232C25.226 15.012 25.108 14.826 24.956 14.674C24.804 14.522 24.622 14.406 24.41 14.326C24.202 14.242 23.972 14.2 23.72 14.2C23.456 14.2 23.214 14.244 22.994 14.332C22.778 14.416 22.592 14.534 22.436 14.686C22.284 14.838 22.166 15.02 22.082 15.232C21.998 15.444 21.956 15.676 21.956 15.928C21.956 16.2 21.994 16.444 22.07 16.66C22.15 16.872 22.262 17.052 22.406 17.2C22.554 17.348 22.732 17.46 22.94 17.536C23.152 17.612 23.388 17.65 23.648 17.65C23.936 17.65 24.19 17.604 24.41 17.512C24.634 17.416 24.822 17.29 24.974 17.134C25.126 16.978 25.242 16.798 25.322 16.594C25.402 16.39 25.442 16.178 25.442 15.958ZM27.7289 21.34C27.7289 21.236 27.7469 21.138 27.7829 21.046C27.8229 20.954 27.8749 20.874 27.9389 20.806C28.0069 20.738 28.0869 20.684 28.1789 20.644C28.2709 20.604 28.3689 20.584 28.4729 20.584C28.5769 20.584 28.6749 20.604 28.7669 20.644C28.8589 20.684 28.9389 20.738 29.0069 20.806C29.0749 20.874 29.1269 20.954 29.1629 21.046C29.2029 21.138 29.2229 21.236 29.2229 21.34C29.2229 21.448 29.2029 21.548 29.1629 21.64C29.1269 21.728 29.0749 21.806 29.0069 21.874C28.9389 21.942 28.8589 21.994 28.7669 22.03C28.6749 22.07 28.5769 22.09 28.4729 22.09C28.3689 22.09 28.2709 22.07 28.1789 22.03C28.0869 21.994 28.0069 21.942 27.9389 21.874C27.8749 21.806 27.8229 21.728 27.7829 21.64C27.7469 21.548 27.7289 21.448 27.7289 21.34ZM27.7289 16.84C27.7289 16.736 27.7469 16.638 27.7829 16.546C27.8229 16.454 27.8749 16.374 27.9389 16.306C28.0069 16.238 28.0869 16.184 28.1789 16.144C28.2709 16.104 28.3689 16.084 28.4729 16.084C28.5769 16.084 28.6749 16.104 28.7669 16.144C28.8589 16.184 28.9389 16.238 29.0069 16.306C29.0749 16.374 29.1269 16.454 29.1629 16.546C29.2029 16.638 29.2229 16.736 29.2229 16.84C29.2229 16.948 29.2029 17.048 29.1629 17.14C29.1269 17.228 29.0749 17.306 29.0069 17.374C28.9389 17.442 28.8589 17.496 28.7669 17.536C28.6749 17.572 28.5769 17.59 28.4729 17.59C28.3689 17.59 28.2709 17.572 28.1789 17.536C28.0869 17.496 28.0069 17.442 27.9389 17.374C27.8749 17.306 27.8229 17.228 27.7829 17.14C27.7469 17.048 27.7289 16.948 27.7289 16.84ZM35.4024 18.898H36.7044V19.51C36.7044 19.574 36.6844 19.628 36.6444 19.672C36.6084 19.716 36.5504 19.738 36.4704 19.738H35.4024V22H34.4604V19.738H30.6504C30.5704 19.738 30.5004 19.716 30.4404 19.672C30.3844 19.624 30.3484 19.566 30.3324 19.498L30.2244 18.952L34.4064 13.402H35.4024V18.898ZM34.4604 15.352C34.4604 15.248 34.4624 15.136 34.4664 15.016C34.4744 14.896 34.4884 14.772 34.5084 14.644L31.3824 18.898H34.4604V15.352ZM38.6673 21.184H40.5153V15.322C40.5153 15.146 40.5213 14.968 40.5333 14.788L38.9973 16.102C38.9573 16.134 38.9173 16.158 38.8773 16.174C38.8373 16.186 38.7993 16.192 38.7633 16.192C38.7033 16.192 38.6493 16.18 38.6013 16.156C38.5533 16.128 38.5173 16.096 38.4933 16.06L38.1573 15.598L40.7133 13.384H41.5833V21.184H43.2753V22H38.6673V21.184Z" fill="#111111"/>
<path d="M304.502 18.34H305.302C305.514 18.34 305.718 18.4243 305.868 18.5743C306.018 18.7243 306.102 18.9278 306.102 19.14V20.74C306.102 20.9522 306.018 21.1557 305.868 21.3057C305.718 21.4557 305.514 21.54 305.302 21.54H304.502C304.29 21.54 304.086 21.4557 303.936 21.3057C303.786 21.1557 303.702 20.9522 303.702 20.74V19.14C303.702 18.9278 303.786 18.7243 303.936 18.5743C304.086 18.4243 304.29 18.34 304.502 18.34V18.34ZM308.242 16.74H309.042C309.254 16.74 309.458 16.8243 309.608 16.9743C309.758 17.1243 309.842 17.3278 309.842 17.54V20.746C309.842 20.8511 309.821 20.9551 309.781 21.0521C309.741 21.1492 309.682 21.2374 309.608 21.3117C309.534 21.386 309.445 21.4449 309.348 21.4851C309.251 21.5253 309.147 21.546 309.042 21.546H308.242C308.137 21.546 308.033 21.5253 307.936 21.4851C307.839 21.4449 307.751 21.386 307.676 21.3117C307.602 21.2374 307.543 21.1492 307.503 21.0521C307.463 20.9551 307.442 20.8511 307.442 20.746V17.54C307.442 17.4347 307.462 17.3303 307.502 17.2329C307.542 17.1355 307.601 17.047 307.675 16.9724C307.75 16.8978 307.838 16.8386 307.935 16.7982C308.033 16.7578 308.137 16.737 308.242 16.737V16.74ZM311.982 14.87H312.782C312.887 14.87 312.991 14.8907 313.088 14.9309C313.185 14.9711 313.274 15.03 313.348 15.1043C313.422 15.1786 313.481 15.2668 313.521 15.3639C313.561 15.4609 313.582 15.5649 313.582 15.67V20.746C313.582 20.8511 313.561 20.9551 313.521 21.0521C313.481 21.1492 313.422 21.2374 313.348 21.3117C313.274 21.386 313.185 21.4449 313.088 21.4851C312.991 21.5253 312.887 21.546 312.782 21.546H311.982C311.877 21.546 311.773 21.5253 311.676 21.4851C311.579 21.4449 311.491 21.386 311.416 21.3117C311.342 21.2374 311.283 21.1492 311.243 21.0521C311.203 20.9551 311.182 20.8511 311.182 20.746V15.67C311.182 15.5646 311.202 15.4602 311.242 15.3627C311.282 15.2652 311.341 15.1766 311.416 15.102C311.49 15.0274 311.579 14.9682 311.676 14.9279C311.773 14.8876 311.878 14.8669 311.983 14.867L311.982 14.87ZM315.722 13H316.522C316.734 13 316.938 13.0843 317.088 13.2343C317.238 13.3843 317.322 13.5878 317.322 13.8V20.746C317.322 20.9582 317.238 21.1617 317.088 21.3117C316.938 21.4617 316.734 21.546 316.522 21.546H315.722C315.617 21.546 315.513 21.5253 315.416 21.4851C315.319 21.4449 315.231 21.386 315.156 21.3117C315.082 21.2374 315.023 21.1492 314.983 21.0521C314.943 20.9551 314.922 20.8511 314.922 20.746V13.8C314.922 13.6949 314.943 13.5909 314.983 13.4939C315.023 13.3968 315.082 13.3086 315.156 13.2343C315.231 13.16 315.319 13.1011 315.416 13.0609C315.513 13.0207 315.617 13 315.722 13V13Z" fill="#111111"/>
</g>
<defs>
<filter id="filter0_d_218_25848" x="-14.5" y="-11" width="405" height="124" filterUnits="userSpaceOnUse" color-interpolation-filters="sRGB">
<feFlood flood-opacity="0" result="BackgroundImageFix"/>
<feColorMatrix in="SourceAlpha" type="matrix" values="0 0 0 0 0 0 0 0 0 0 0 0 0 0 0 0 0 0 127 0" result="hardAlpha"/>
<feOffset dy="4"/>
<feGaussianBlur stdDeviation="7.5"/>
<feColorMatrix type="matrix" values="0 0 0 0 0 0 0 0 0 0 0 0 0 0 0 0 0 0 0.06 0"/>
<feBlend mode="normal" in2="BackgroundImageFix" result="effect1_dropShadow_218_25848"/>
<feBlend mode="normal" in="SourceGraphic" in2="effect1_dropShadow_218_25848" result="shape"/>
</filter>
<clipPath id="clip0_218_25848">
<rect width="375" height="812" fill="white"/>
</clipPath>
</defs>
</svg>
